<svg width="200" height="200" version="1.1" viewBox="0 0 200 200" xmlns="http://www.w3.org/2000/svg">
 <g transform="matrix(1.3636 0 0 1.3636 12.727 -110.45)" fill="#b3b3b3" stroke-width=".73333">
  <path d="m64 81a55 55 0 0 0-55 55 55 55 0 0 0 55 55 55 55 0 0 0 55-55 55 55 0 0 0-55-55zm0 4a51 51 0 0 1 51 51 51 51 0 0 1-51 51 51 51 0 0 1-51-51 51 51 0 0 1 51-51z" fill-rule="evenodd" style="paint-order:fill markers stroke"/>
  <path d="m105 158h-56l26-48z" opacity=".5" style="paint-order:stroke fill markers"/>
  <path d="m86 158h-63l30-59z" style="paint-order:stroke fill markers"/>
 </g>
</svg>
