<svg xmlns="http://www.w3.org/2000/svg" version="1.1" id="svg2" viewBox="0 0 54 32"><defs id="defs3051"><style id="current-color-scheme" type="text/css">.ColorScheme-NegativeText{color:#da4453}</style></defs><g id="22-22-edit-delete"><path id="path7" class="ColorScheme-NegativeText" d="M11 13a8 8 0 1 0 0 16 8 8 0 0 0 0-16zm0 1a7 7 0 0 1 7 7 6.947 6.947 0 0 1-1.719 4.594l-9.875-9.875A6.947 6.947 0 0 1 11 14zm-5.281 2.406l9.875 9.875A6.947 6.947 0 0 1 11 28a7 7 0 0 1-7-7c0-1.762.644-3.363 1.719-4.594z" fill="currentColor" fill-opacity="1" stroke="none"/><path id="path9" d="M0 10v22h22V10H0z" opacity="1" fill="none"/></g><g id="edit-delete"><path id="path12" class="ColorScheme-NegativeText" d="M38 4c-3.134 0-5.978 1.21-8.115 3.178l-.02.02c-.231.213-.454.436-.668.667l-.02.02A11.943 11.943 0 0 0 26 16c0 6.627 5.373 12 12 12 3.134 0 5.978-1.21 8.115-3.178l.02-.02c.231-.213.454-.436.668-.667l.02-.02A11.943 11.943 0 0 0 50 16c0-6.627-5.373-12-12-12zm0 1c6.075 0 11 4.925 11 11 0 2.858-1.1 5.45-2.887 7.406l-15.52-15.52A10.943 10.943 0 0 1 38 5zm-8.113 3.594l15.52 15.52A10.943 10.943 0 0 1 38 27c-6.075 0-11-4.925-11-11 0-2.858 1.1-5.45 2.887-7.406z" fill="currentColor" fill-opacity="1" stroke="none"/><path id="path14" d="M22 0v32h32V0H22z" opacity="1" fill="none"/></g></svg>