<svg xmlns="http://www.w3.org/2000/svg" width="64" height="64" id="svg4312" version="1.1"><defs id="defs4314"><style id="current-color-scheme" type="text/css">.ColorScheme-Text{color:#7b7c7e}.ColorScheme-Highlight{color:#3daee6}</style></defs><g id="layer1" transform="translate(0 -988.362)"><g id="32-32-osd-duplicate" transform="translate(384 507.362)" fill="none"><path id="rect4200" fill="none" d="M0 0h32v32H0z"/><path d="M125 36v9h1v-8h15v12h-9v1h10V36h-17zm-11 10v14h17V46h-17zm1 1h15v12h-15V47z" transform="translate(-112 -32)" id="path4202" class="ColorScheme-Text" color="#7b7c7e" fill="currentColor" fill-opacity="1" stroke="none"/><path d="M128 39v6h1v-3h9v4h-6v1h7v-8h-11zm7 1h1v1h-1v-1zm2 0h1v1h-1v-1zm-20 9v8h11v-8h-11zm7 1h1v1h-1v-1zm2 0h1v1h-1v-1zm-8 2h9v4h-9v-4z" transform="translate(-112 -32)" id="path4212" class="ColorScheme-Highlight" color="#3daee6" fill="currentColor" fill-opacity="1" stroke="none"/></g><g id="48-48-osd-duplicate" transform="translate(336 491.362)" fill="none"><path id="rect4234" fill="none" d="M0 0h48v48H0z"/><path d="M80 21v14h1V22.002L109 22v16H97v7h5v-1h-4v-5h12V21H80zM66 36v18h12v5h-4v1h14v-1h-4v-5h12V36H66zm29 1v16H67V37.002L95 37zM79 54h4v5h-4v-5z" transform="translate(-64 -16)" id="path4238" class="ColorScheme-Text" color="#7b7c7e" fill="currentColor" fill-opacity="1" stroke="none"/><path d="M87 24v11h1v-6h2v6h1v-6h11v6h-5v1h6V24H87zm10 1h1v1h-1v-1zm2 0h1v1h-1v-1zm2 0h1v1h-1v-1zm-13 2h14v1H88v-1zM73 39v12h16V39H73zm10 1h1v1h-1v-1zm2 0h1v1h-1v-1zm2 0h1v1h-1v-1zm-13 2h14v1H74v-1zm0 2h2v6h-2v-6zm3 0h11v6H77v-6z" transform="translate(-64 -16)" id="path4244" class="ColorScheme-Highlight" color="#3daee6" fill="currentColor" fill-opacity="1" fill-rule="evenodd" stroke="none"/></g><g transform="translate(272 475.362)" id="osd-duplicate" fill="none"><path id="rect4268" fill="none" d="M0 0h64v64H0z"/><path d="M26 11v14h1V12.002L59 12v18H39v1h20v1H39v1h1v4h-1v1h11v-1h-4v-4h14V11H26zM4 26v22h14v4h-4v1h14v-1h-4v-4h14V26H4zm33 1v18H5V27.002L37 27zm4 6h4v4h-4v-4zM5 46h32v1H5v-1zm14 2h4v4h-4v-4z" id="path4270" class="ColorScheme-Text" color="#7b7c7e" fill="currentColor" fill-opacity="1" stroke="none"/><path d="M35 15v10h1v-5h2v5h1v-5h11v6H39v1h12V15H35zm10 1h1v1h-1v-1zm2 0h1v1h-1v-1zm2 0h1v1h-1v-1zm-13 2h14v1H36v-1zM13 30v12h16V30H13zm10 1h1v1h-1v-1zm2 0h1v1h-1v-1zm2 0h1v1h-1v-1zm-13 2h14v1H14v-1zm0 2h2v6h-2v-6zm3 0h11v6H17v-6z" id="path4280" class="ColorScheme-Highlight" color="#3daee6" fill="currentColor" fill-opacity="1" fill-rule="evenodd" stroke="none"/></g><g transform="translate(416 517.362)" id="128-128-osd-duplicate"><path id="rect4302" fill="none" d="M-272-106h128V22h-128z"/><path class="ColorScheme-Text" id="path4306" d="M-221-85v33h1v-32h68v41h-41v1h2v8h-2v1h20v-1h-8v-8h30v-42.998L-221-85zm2 2v31h1v-30h64v36h-39v1h40v-38h-66zm-46 33v43h30v8h-8v1h26V1h-8v-8h30v-42.998L-265-50zm1 1h68v41h-68v-41zm1 1v38h66v-38h-66zm1 1h64v36h-64v-36zm72 5h8v8h-8v-8zm-44 35h8v8h-8v-8z" color="#7b7c7e" fill="currentColor" fill-opacity="1" stroke="none"/><path class="ColorScheme-Highlight" id="path4316" d="M-202-76v24h32v-24h-32zm21 2a1 1 0 1 1 0 2 1 1 0 0 1 0-2zm4 0a1 1 0 1 1 0 2 1 1 0 0 1 0-2zm4 0a1 1 0 1 1 0 2 1 1 0 0 1 0-2zm-28 4h30v1h-30v-1zm0 2h4v15h-4v-15zm5 0h25v15h-25v-15zm-50 27v24h32v-24h-32zm21 2a1 1 0 1 1 0 2 1 1 0 0 1 0-2zm4 0a1 1 0 1 1 0 2 1 1 0 0 1 0-2zm4 0a1 1 0 1 1 0 2 1 1 0 0 1 0-2zm-28 4h30v1h-30v-1zm0 2h4v15h-4v-15zm5 0h25v15h-25v-15z" color="#3daee6" fill="currentColor" fill-opacity="1" fill-rule="evenodd" stroke="none"/></g><g id="32-32-osd-rotate-ccw" transform="translate(384 635.362)" fill="none"><path id="rect4196" fill="none" d="M0 0h32v32H0z"/><path id="path4200" d="M2 22V4h28v18H19v5h4v1H9v-1h4v-5H2zm16 0h-4v5h4v-5zM29 5H3v16h26V5z" class="ColorScheme-Text" color="#7b7c7e" fill="currentColor" fill-opacity="1" stroke="none"/><path d="M121 39v6h6v-2h-2.445c.693-1.19 1.968-2 3.445-2a4 4 0 0 1 0 8v2a6 6 0 1 0-5-9.314V39h-2z" transform="translate(-112 -32)" id="path4204" class="ColorScheme-Highlight" color="#3daee6" fill="currentColor" fill-opacity="1" fill-rule="evenodd" stroke="none"/></g><g id="48-48-osd-rotate-ccw" transform="translate(336 619.362)" fill="none"><path id="rect4224" fill="none" d="M0 0h48v48H0z"/><path d="M66 23v28h18v5h-3v1h14v-1h-3v-5h18V23H66zm43 1v26H67V24.002L109 24zm-41 1v24h40V25H68zm1 1h38v22H69V26zm16 25h6v5h-6v-5z" transform="translate(-64 -16)" id="path4228" class="ColorScheme-Text" color="#7b7c7e" fill="currentColor" fill-opacity="1" stroke="none"/><path id="path4234" d="M16 21h-1v-7h2v3.124A8 8 0 1 1 24 29v-2a6 6 0 1 0-5.659-8H22v2h-6z" class="ColorScheme-Highlight" color="#3daee6" fill="currentColor" fill-opacity="1" fill-rule="evenodd" stroke="none"/></g><g transform="translate(272 603.362)" id="osd-rotate-ccw" fill="none"><path id="rect4252" fill="none" d="M0 0h64v64H0z"/><path id="path4256" d="M59 11H5v34h54V11zM5 10H4v36h24v7h-7v1h22v-1h-7v-7h24V10H5zm24 43v-7h6v7h-6zM7 13h50v29H7V13zm-1-1h52v31H6V12z" class="ColorScheme-Text" color="#7b7c7e" fill="currentColor" fill-opacity="1" fill-rule="evenodd" stroke="none"/><path d="M22.346 19a12.5 12.5 0 0 0-3.35 8.5 12.51 12.51 0 0 0 .629 3.871L15.996 35s6.153 1 9.352 1l-1.85-1.727a10.5 10.5 0 0 1-2.502-6.773 10.5 10.5 0 0 1 4.358-8.5h-3.008zm15.299 0l1.85 1.727a10.5 10.5 0 0 1 2.501 6.773A10.5 10.5 0 0 1 37.64 36h3.007a12.5 12.5 0 0 0 3.35-8.5 12.51 12.51 0 0 0-.629-3.871L46.997 20s-6.153-1-9.352-1zm-7.918 1.432l-3.942 10.27 7.469 2.866 3.941-10.27-7.468-2.866zm.574 1.293l.933.357-.357.934-.932-.36.356-.931zm1.869.714l3.734 1.436-3.224 8.4-3.737-1.431 3.227-8.405zm-2.584 1.153l.932.357-.358.934-.933-.358.359-.933z" id="path4264" class="ColorScheme-Highlight" color="#3daee6" fill="currentColor" fill-opacity="1" stroke="none"/></g><g id="128-128-osd-rotate-ccw" transform="translate(144 539.362)" fill="none"><path id="rect4286" fill="none" d="M0 0h128v128H0z"/><path d="M-121-44a3 3 0 0 0-3 3v66a3 3 0 0 0 3 3h49v13h-13a1 1 0 0 0-1 1v1a1 1 0 0 0 1 1h42a1 1 0 0 0 1-1v-1a1 1 0 0 0-1-1h-13V28h49a3 3 0 0 0 3-3v-66a3 3 0 0 0-3-3h-114zm0 1H-7a2 2 0 0 1 2 2v66a2 2 0 0 1-2 2h-114a2 2 0 0 1-2-2v-66a2 2 0 0 1 2-2zm0 2v64H-7v-64h-114zm1 1H-8v62h-112v-62zm49 68h14v13h-14V28zm-14 14h42v1h-42v-1z" transform="translate(128 64)" id="path4290" class="ColorScheme-Text" color="#7b7c7e" fill="currentColor" fill-opacity="1" stroke="none"/><path d="M-80.955-33A28 28 0 0 0-93-10a28 28 0 0 0 7.023 18.465C-87.135 10.715-89 13-89 13h11.914A26 26 0 0 1-91-10a26 26 0 0 1 13.906-23h-3.861zm28.04 0A26 26 0 0 1-39-10a26 26 0 0 1-13.906 23h3.861A28 28 0 0 0-37-10a28 28 0 0 0-7.023-18.465C-42.865-30.715-41-33-41-33h-11.914zm-17.554 3.762L-81.938.637l22.407 8.601 11.468-29.875-22.406-8.601zm1.692 2.877a.998.998 0 0 1 .966 1.357 1 1 0 1 1-.967-1.357zm3.55.207l.934.36-10.75 28.007-.934-.36 10.75-28.007zm1.868.717l14.004 5.376-8.96 23.34-14.003-5.377 8.959-23.34zm-6.852 2.81a1.001 1.001 0 0 1 .969 1.357 1 1 0 1 1-.969-1.357zm-1.434 3.734a1 1 0 1 1 0 0zm-1.033 17.729l14.006 5.377-1.433 3.732L-74.11 2.57l1.431-3.734z" transform="translate(128 64)" id="path4300" class="ColorScheme-Highlight" color="#3daee6" fill="currentColor" fill-opacity="1" fill-rule="evenodd" stroke="none"/></g><g id="32-32-osd-rotate-cw" transform="translate(384 763.362)" fill="none"><path id="rect4196-3" fill="none" d="M0 0h32v32H0z"/><path id="path4200-6" d="M2 22V4h28v18H19v5h4v1H9v-1h4v-5H2zm16 0h-4v5h4v-5zM29 5H3v16h26V5z" class="ColorScheme-Text" color="#7b7c7e" fill="currentColor" fill-opacity="1" fill-rule="evenodd" stroke="none"/><path d="M128 39a6 6 0 0 0 0 12v-2a4 4 0 0 1 0-8c1.477 0 2.752.81 3.445 2H129v2h6v-6h-2v2.686A5.991 5.991 0 0 0 128 39z" transform="translate(-112 -32)" id="path4204-7" class="ColorScheme-Highlight" color="#3daee6" fill="currentColor" fill-opacity="1" fill-rule="evenodd" stroke="none"/></g><g id="48-48-osd-rotate-cw" transform="translate(336 747.362)" fill="none"><path id="rect4224-5" fill="none" d="M0 0h48v48H0z"/><path d="M66 23v28h18v5h-3v1h14v-1h-3v-5h18V23H66zm43 1v26H67V24.002L109 24zm-41 1v24h40V25H68zm1 1h38v22H69V26zm16 25h6v5h-6v-5z" transform="translate(-64 -16)" id="path4228-3" class="ColorScheme-Text" color="#7b7c7e" fill="currentColor" fill-opacity="1" stroke="none"/><path id="path4234-5" d="M32 21h1v-7h-2v3.124A8 8 0 1 0 24 29v-2a6 6 0 1 1 5.659-8H26v2h6z" class="ColorScheme-Highlight" color="#3daee6" fill="currentColor" fill-opacity="1" fill-rule="evenodd" stroke="none"/></g><g transform="translate(272 731.362)" id="64-64osd-rotate-cw" fill="none"><path id="rect4252-6" fill="none" d="M0 0h64v64H0z"/><path id="path4256-2" d="M59 11H5v34h54V11zM5 10H4v36h24v7h-7v1h22v-1h-7v-7h24V10H5zm24 43v-7h6v7h-6zM7 13h50v29H7V13zm-1-1h52v31H6V12z" class="ColorScheme-Text" color="#7b7c7e" fill="currentColor" fill-opacity="1" fill-rule="evenodd" stroke="none"/><path d="M25.348 19c-3.2 0-9.352 1-9.352 1l3.629 3.629a12.51 12.51 0 0 0-.629 3.871 12.5 12.5 0 0 0 3.35 8.5h3.008a10.5 10.5 0 0 1-4.358-8.5 10.498 10.498 0 0 1 2.5-6.773L25.348 19zm12.29 0a10.5 10.5 0 0 1 4.358 8.5 10.5 10.5 0 0 1-2.502 6.773L37.644 36c3.2 0 9.352-1 9.352-1l-3.63-3.629c.411-1.25.625-2.556.63-3.871a12.5 12.5 0 0 0-3.35-8.5H37.64zm-4.374 1.432l-7.47 2.867 3.942 10.27 7.47-2.868-3.942-10.27zm-2.444 2.007l3.227 8.405-3.736 1.431-3.225-8.4 3.734-1.436zm4.018 4.887l.36.934-.936.357-.358-.933.934-.358zm.717 1.865l.36.934-.935.36-.359-.934.934-.36z" id="path4264-9" class="ColorScheme-Highlight" color="#3daee6" fill="currentColor" fill-opacity="1" stroke="none"/></g><g id="128-128-osd-rotate-cw" transform="translate(144 667.362)" fill="none"><path id="rect4288" fill="none" d="M0 0h128v129H0z"/><path d="M-89-34s1.865 2.285 3.023 4.535A28 28 0 0 0-93-11a28 28 0 0 0 12.045 23h3.861A26 26 0 0 1-91-11a26 26 0 0 1 13.914-23H-89zm36.094 0A26 26 0 0 1-39-11a26 26 0 0 1-13.914 23H-41s-1.865-2.285-3.023-4.535A28 28 0 0 0-37-11a28 28 0 0 0-12.045-23h-3.861zm-6.625 3.762l-22.407 8.601 11.47 29.875 22.406-8.601-11.47-29.875zm-5.242 3.084L-54.023.854l-.934.359-10.75-28.008.934-.36zm-1.868.717l1.434 3.734-14.006 5.375-1.432-3.733 14.004-5.377zm1.791 4.667l8.96 23.34-14.005 5.375-8.959-23.338 14.004-5.377zm10.077 11.213a1 1 0 1 1-.066 1.999 1 1 0 0 1 .066-1.999zm1.433 3.733a1.002 1.002 0 0 1 .326 1.935 1 1 0 1 1-.326-1.936zm1.434 3.736a1 1 0 1 1-.065 1.998 1 1 0 0 1 .065-1.998z" transform="translate(128 64)" id="path4302" class="ColorScheme-Highlight" color="#3daee6" fill="currentColor" fill-opacity="1" fill-rule="evenodd" stroke="none"/><path d="M-121-44a3 3 0 0 0-3 3v66a3 3 0 0 0 3 3h49v13h-13a1 1 0 0 0-1 1v1a1 1 0 0 0 1 1h42a1 1 0 0 0 1-1v-1a1 1 0 0 0-1-1h-13V28h49a3 3 0 0 0 3-3v-66a3 3 0 0 0-3-3h-114zm0 1H-7a2 2 0 0 1 2 2v66a2 2 0 0 1-2 2h-114a2 2 0 0 1-2-2v-66a2 2 0 0 1 2-2zm0 2v64H-7v-64h-114zm1 1H-8v62h-112v-62zm49 68h14v13h-14V28zm-14 14h42v1h-42v-1z" transform="translate(128 64)" id="path4292" class="ColorScheme-Text" color="#7b7c7e" fill="currentColor" fill-opacity="1" stroke="none"/></g><g id="32-32-osd-rotate-flip" transform="translate(384 891.362)" fill="none"><path id="rect4196-1" fill="none" d="M0 0h32v32H0z"/><path id="path4200-2" d="M2 22V4h28v18H19v5h4v1H9v-1h4v-5H2zm16 0h-4v5h4v-5zM29 5H3v16h26V5z" class="ColorScheme-Text" color="#7b7c7e" fill="currentColor" fill-opacity="1" fill-rule="evenodd" stroke="none"/><path id="path4204-70" d="M16 7l-4 4h3v4h-3l4 4 4-4h-3v-4h3l-4-4z" class="ColorScheme-Highlight" color="#3daee6" fill="currentColor" fill-opacity="1" stroke="none"/></g><g id="48-48-osd-rotate-flip" transform="translate(336 875.362)" fill="none"><path id="rect4221" fill="none" d="M0 0h48v48H0z"/><path d="M66 23v28h18v5h-3v1h14v-1h-3v-5h18V23H66zm43 1v26H67V24.002L109 24zm-41 1v24h40V25H68zm1 1h38v22H69V26zm16 25h6v5h-6v-5z" transform="translate(-64 -16)" id="path4225" class="ColorScheme-Text" color="#7b7c7e" fill="currentColor" fill-opacity="1" fill-rule="evenodd" stroke="none"/><path id="path4231" d="M24 13l-4 5h3v6h-3l4 5 4-5h-3v-6h3l-4-5z" class="ColorScheme-Highlight" color="#3daee6" fill="currentColor" fill-opacity="1" stroke="none"/></g><g transform="translate(272 859.362)" id="osd-rotate-flip" fill="none"><path id="rect4249" fill="none" d="M0 0h64v64H0z"/><path id="path4253" d="M59 11H5v34h54V11zM5 10H4v36h24v7h-7v1h22v-1h-7v-7h24V10H5zm24 43v-7h6v7h-6zM7 13h50v29H7V13zm-1-1h52v31H6V12z" class="ColorScheme-Text" color="#7b7c7e" fill="currentColor" fill-opacity="1" fill-rule="evenodd" stroke="none"/><path id="path4257" d="M32 15l-4 7h3v11h-3l4 7 4-7h-3V22h3l-4-7z" class="ColorScheme-Highlight" color="#3daee6" fill="currentColor" fill-opacity="1" stroke="none"/></g><g id="128-128-osd-rotate-flip" transform="translate(144 795.362)" fill="none"><path id="rect4274" fill="none" d="M0 0h128v128H0z"/><path d="M-121-44a3 3 0 0 0-3 3v66a3 3 0 0 0 3 3h49v13h-13a1 1 0 0 0-1 1v1a1 1 0 0 0 1 1h42a1 1 0 0 0 1-1v-1a1 1 0 0 0-1-1h-13V28h49a3 3 0 0 0 3-3v-66a3 3 0 0 0-3-3h-114zm0 1H-7a2 2 0 0 1 2 2v66a2 2 0 0 1-2 2h-114a2 2 0 0 1-2-2v-66a2 2 0 0 1 2-2zm0 2v64H-7v-64h-114zm1 1H-8v62h-112v-62zm49 68h14v13h-14V28zm-14 14h42v1h-42v-1z" transform="translate(128 64)" id="path4278" class="ColorScheme-Text" color="#7b7c7e" fill="currentColor" fill-opacity="1" stroke="none"/><path id="path4284" d="M64.5 30l-6.923 12h1.73l4.183-6v34l-4.76-7H57l7.5 13L72 63h-1.73l-4.76 7V36l4.182 6h1.731L64.5 30z" class="ColorScheme-Highlight" color="#3daee6" fill="currentColor" fill-opacity="1" stroke="none"/></g><g id="32-32-osd-rotate-normal" transform="translate(384 1019.362)" fill="none"><path id="rect4198" fill="none" d="M0 0h32v32H0z"/><path id="path4202-9" d="M2 22V4h28v18H19v5h4v1H9v-1h4v-5H2zm16 0h-4v5h4v-5zM29 5H3v16h26V5z" class="ColorScheme-Text" color="#7b7c7e" fill="currentColor" fill-opacity="1" fill-rule="evenodd" stroke="none"/><path d="M120 39v8h11v-8h-11zm7 1h1v1h-1v-1zm2 0h1v1h-1v-1zm-8 2h9v4h-9v-4zm11 1v1h1v1h-1v1h3v4h-9v-2h-1v3h11v-8h-4zm2 1h1v1h-1v-1z" transform="translate(-112 -32)" id="path4208" class="ColorScheme-Highlight" color="#3daee6" fill="currentColor" fill-opacity="1" stroke="none"/></g><g id="48-48-osd-rotate-normal" transform="translate(336 1003.362)" fill="none"><path id="rect4229" fill="none" d="M0 0h48v48H0z"/><path d="M66 23v28h18v5h-3v1h14v-1h-3v-5h18V23H66zm43 1v26H67V24.002L109 24zm-41 1v24h40V25H68zm1 1h38v22H69V26zm16 25h6v5h-6v-5z" transform="translate(-64 -16)" id="path4233" class="ColorScheme-Text" color="#7b7c7e" fill="currentColor" fill-opacity="1" fill-rule="evenodd" stroke="none"/><path d="M77 28v12h16V28H77zm10 1h1v1h-1v-1zm2 0h1v1h-1v-1zm2 0h1v1h-1v-1zm-13 2h14v1H78v-1zm0 2h2v6h-2v-6zm3 0h11v6H81v-6zm13 1v3h4v1h-4v1h4v6H87v-4h-1v4h-2v-4h-1v5h16V34h-5zm1 1h1v1h-1v-1zm2 0h1v1h-1v-1z" transform="translate(-64 -16)" id="path4241" class="ColorScheme-Highlight" color="#3daee6" fill="currentColor" fill-opacity="1" fill-rule="evenodd" stroke="none"/></g><g transform="translate(272 987.362)" id="osd-rotate-normal" fill="none"><path id="rect4263" fill="none" d="M0 0h64v64H0z"/><path id="path4267" d="M59 11H5v34h54V11zM5 10H4v36h24v7h-7v1h22v-1h-7v-7h24V10H5zm24 43v-7h6v7h-6zM7 13h50v29H7V13zm-1-1h52v31H6V12z" class="ColorScheme-Text" color="#7b7c7e" fill="currentColor" fill-opacity="1" fill-rule="evenodd" stroke="none"/><path d="M21 19v12h16V19H21zm10 1h1v1h-1v-1zm2 0h1v1h-1v-1zm2 0h1v1h-1v-1zm-13 2h14v1H22v-1zm0 2h2v6h-2v-6zm3 0h11v6H25v-6zm13 1v3h4v1h-4v1h4v6H31v-4h-1v4h-2v-4h-1v5h16V25h-5zm1 1h1v1h-1v-1zm2 0h1v1h-1v-1z" id="path4273" class="ColorScheme-Highlight" color="#3daee6" fill="currentColor" fill-opacity="1" fill-rule="evenodd" stroke="none"/></g><g id="128-128-osd-rotate-normal" transform="translate(144 923.362)" fill="none"><path id="rect4294" fill="none" d="M0 0h128v128H0z"/><path d="M-121-44a3 3 0 0 0-3 3v66a3 3 0 0 0 3 3h49v13h-13a1 1 0 0 0-1 1v1a1 1 0 0 0 1 1h42a1 1 0 0 0 1-1v-1a1 1 0 0 0-1-1h-13V28h49a3 3 0 0 0 3-3v-66a3 3 0 0 0-3-3h-114zm0 1H-7a2 2 0 0 1 2 2v66a2 2 0 0 1-2 2h-114a2 2 0 0 1-2-2v-66a2 2 0 0 1 2-2zm0 2v64H-7v-64h-114zm1 1H-8v62h-112v-62zm49 68h14v13h-14V28zm-14 14h42v1h-42v-1z" transform="translate(128 64)" id="path4298" class="ColorScheme-Text" color="#7b7c7e" fill="currentColor" fill-opacity="1" fill-rule="evenodd" stroke="none"/><path d="M-89-26v24h32v-24h-32zm21 2a1 1 0 1 1 0 2 1 1 0 0 1 0-2zm4 0a1 1 0 1 1 0 2 1 1 0 0 1 0-2zm4 0a1 1 0 1 1 0 2 1 1 0 0 1 0-2zm-28 4h30v1h-30v-1zm0 2h4v15h-4v-15zm5 0h25v15h-25v-15zm28 1v6h15v1h-15v1h15V6h-25V0h-1v6h-4V0h-1v7h32v-24h-16zm5 2a1 1 0 1 1 0 2 1 1 0 0 1 0-2zm4 0a1 1 0 1 1 0 2 1 1 0 0 1 0-2zm4 0a1 1 0 1 1 0 2 1 1 0 0 1 0-2z" transform="translate(128 64)" id="path4306-3" class="ColorScheme-Highlight" color="#3daee6" fill="currentColor" fill-opacity="1" fill-rule="evenodd" stroke="none"/></g><g id="32-32-osd-sbs-left" transform="translate(112 636.362)" fill="none"><path id="rect4196-6" fill="none" d="M0 0h32v32H0z"/><path d="M114 41v14h10v-1h-9V42h9v-1h-10zm11 0v14h17V41h-17zm1 1h15v12h-15V42z" transform="translate(-112 -32)" id="path4200-0" class="ColorScheme-Text" color="#7b7c7e" fill="currentColor" fill-opacity="1" stroke="none"/><path d="M119 44v8h5v-1h-4v-4h4v-3h-5zm8 0v3h4v4h-4v1h5v-8h-5zm1 1h1v1h-1v-1zm2 0h1v1h-1v-1z" transform="translate(-112 -32)" id="path4204-6" class="ColorScheme-Highlight" color="#3daee6" fill="currentColor" fill-opacity="1" fill-rule="evenodd" stroke="none"/></g><g id="48-48-osd-sbs-left" transform="translate(64 620.362)" fill="none"><path id="rect4224-2" fill="none" d="M0 0h48v48H0z"/><path d="M66 27v18h12v5h-4v1h12v-1h-2v-4h-1v4h-4v-6H67V28h12v-1H66zm14 0v18h12v5h-4v1h14v-1h-4v-5h12V27H80zm1 1l28 .002V44H81V28zm12 17h4v5h-4v-5z" transform="translate(-64 -16)" id="path4228-6" class="ColorScheme-Text" color="#7b7c7e" fill="currentColor" fill-opacity="1" stroke="none"/><path d="M71 30v12h8v-1h-4v-6h4v-1h-7v-1h7v-3h-8zm11 0v3h7v1h-7v1h7v6h-7v1h8V30h-8zm2 1h1v1h-1v-1zm2 0h1v1h-1v-1zm2 0h1v1h-1v-1zm-16 4h2v6h-2v-6z" transform="translate(-64 -16)" id="path4232" class="ColorScheme-Highlight" color="#3daee6" fill="currentColor" fill-opacity="1" fill-rule="evenodd" stroke="none"/></g><g transform="translate(0 604.362)" id="osd-sbs-left" fill="none"><path id="rect4252-1" fill="none" d="M0 0h64v64H0z"/><path d="M4 18v22h14v4h-4v1h14v-1h-4v-4h1v-1H5v-1h20v-1H5V19l20 .002V18H4zm22 0v22h14v4h-4v1h14v-1h-4v-4h14V18H26zm1 1l32 .002V37H27V19zm0 19h32v1H27v-1zm-8 2h4v4h-4v-4zm22 0h4v4h-4v-4z" id="path4256-8" class="ColorScheme-Text" color="#7b7c7e" fill="currentColor" fill-opacity="1" stroke="none"/><path d="M17 22v12h8v-1h-4v-6h4v-1h-7v-1h7v-3h-8zm11 0v3h7v1h-7v1h7v6h-7v1h8V22h-8zm2 1h1v1h-1v-1zm2 0h1v1h-1v-1zm2 0h1v1h-1v-1zm-16 4h2v6h-2v-6z" id="path4260" class="ColorScheme-Highlight" color="#3daee6" fill="currentColor" fill-opacity="1" fill-rule="evenodd" stroke="none"/></g><g id="128-128-osd-sbs-left" transform="translate(-128 540.362)" fill="none"><path id="rect4280" fill="none" d="M0 0h128v128H0z"/><path d="M-78-26l-43 .002V17h30v8h-8v1h26v-1h-8v-8h3v-1h-42v-41h42v-1zm71 0l-70 .002V17h30v8h-8v1h26v-1h-8v-8h30v-43zm-69 1h68v41h-68v-41zm-43 1v38h41v-1h-40v-36h40v-1h-41zm44 0v38h66v-38h-66zm1 1h64v36h-64v-36zm-16 40h8v8h-8v-8zm44 0h8v8h-8v-8z" transform="translate(128 64)" id="path4286" class="ColorScheme-Text" color="#7b7c7e" fill="currentColor" fill-opacity="1" fill-rule="evenodd" stroke="none"/><path d="M-94-17V7h15V6h-9V-9h9v-1h-14v-1h14v-6h-15zm22 0v6h14v1h-14v1h14V6h-14v1h15v-24h-15zm4 2a1 1 0 1 1 0 2 1 1 0 0 1 0-2zm4 0a1 1 0 1 1 0 2 1 1 0 0 1 0-2zm4 0a1 1 0 1 1 0 2 1 1 0 0 1 0-2zm-33 6h4V6h-4V-9z" transform="translate(128 64)" id="path4292-7" class="ColorScheme-Highlight" color="#3daee6" fill="currentColor" fill-opacity="1" fill-rule="evenodd" stroke="none"/></g><g id="32-32-osd-sbs-sright" transform="translate(112 763.362)" fill="none"><path id="rect4203" fill="none" d="M0 0h32v32H0z"/><path d="M114 41v14h17V41h-17zm18 0v1h9v12h-9v1h10V41h-10zm-17 1h15v12h-15V42z" transform="translate(-112 -32)" id="path4207" class="ColorScheme-Text" color="#7b7c7e" fill="currentColor" fill-opacity="1" stroke="none"/><path d="M124 44v8h5v-1h-4v-4h4v-3h-5zm8 0v3h4v4h-4v1h5v-8h-5zm1 1h1v1h-1v-1zm2 0h1v1h-1v-1z" transform="translate(-112 -32)" id="path4213" class="ColorScheme-Highlight" color="#3daee6" fill="currentColor" fill-opacity="1" fill-rule="evenodd" stroke="none"/></g><g id="48-48-osd-sbs-sright" transform="translate(64 747.362)" fill="none"><path id="rect4234-9" fill="none" d="M0 0h48v48H0z"/><path d="M66 27v18h12v5h-4v1h14v-1h-4v-5h12V27H66zm31 0v1h12v16H97v6h-4v-4h-1v4h-2v1h12v-1h-4v-5h12V27H97zm-2 1v16H67V28.002L95 28zM79 45h4v5h-4v-5z" transform="translate(-64 -16)" id="path4238-2" class="ColorScheme-Text" color="#7b7c7e" fill="currentColor" fill-opacity="1" stroke="none"/><path d="M86 30v12h8v-1h-4v-6h4v-1h-7v-1h7v-3h-8zm11 0v3h7v1h-7v1h7v6h-7v1h8V30h-8zm2 1h1v1h-1v-1zm2 0h1v1h-1v-1zm2 0h1v1h-1v-1zm-16 4h2v6h-2v-6z" transform="translate(-64 -16)" id="path4244-0" class="ColorScheme-Highlight" color="#3daee6" fill="currentColor" fill-opacity="1" fill-rule="evenodd" stroke="none"/></g><g transform="translate(0 731.362)" id="osd-sbs-sright" fill="none"><path id="rect4265" fill="none" d="M0 0h64v64H0z"/><path d="M4 22v22h14v4h-4v1h14v-1h-4v-4h14V22H4zm35 0v1.002L59 23v18H39v1h20v1H39v1h1v4h-4v1h14v-1h-4v-4h14V22H39zm-2 1v18H5V23.002L37 23zM5 42h32v1H5v-1zm14 2h4v4h-4v-4zm22 0h4v4h-4v-4z" id="path4269" class="ColorScheme-Text" color="#7b7c7e" fill="currentColor" fill-opacity="1" stroke="none"/><path d="M28 26v12h8v-1h-4v-6h4v-1h-7v-1h7v-3h-8zm11 0v3h7v1h-7v1h7v6h-7v1h8V26h-8zm2 1h1v1h-1v-1zm2 0h1v1h-1v-1zm2 0h1v1h-1v-1zm-16 4h2v6h-2v-6z" id="path4275" class="ColorScheme-Highlight" color="#3daee6" fill="currentColor" fill-opacity="1" fill-rule="evenodd" stroke="none"/></g><g id="128-128-osd-sbs-sright" transform="translate(-128 668.362)" fill="none"><path id="rect4296" fill="none" d="M0 0h128v127H0z"/><path d="M-121-25v43h30v8h-8v1h26v-1h-8v-8h30v-42.998L-121-25zm71 0v1h42v41h-42v1h3v8h-8v1h26v-1h-8v-8h30v-42.998L-50-25zm-70 1h68v41h-68v-41zm1 1v38h66v-38h-66zm69 0v1h40v36h-40v1h41v-38h-41zm-68 1h64v36h-64v-36zm28 40h8v8h-8v-8zm44 0h8v8h-8v-8z" transform="translate(128 63)" id="path4300-2" class="ColorScheme-Text" color="#7b7c7e" fill="currentColor" fill-opacity="1" fill-rule="evenodd" stroke="none"/><path d="M-71-17V7h15V6h-9V-9h9v-1h-14v-1h14v-6h-15zm22 0v6h14v1h-14v1h14V6h-14v1h15v-24h-15zm4 2a1 1 0 1 1 0 2 1 1 0 0 1 0-2zm4 0a1 1 0 1 1 0 2 1 1 0 0 1 0-2zm4 0a1 1 0 1 1 0 2 1 1 0 0 1 0-2zm-33 6h4V6h-4V-9z" transform="translate(128 63)" id="path4308" class="ColorScheme-Highlight" color="#3daee6" fill="currentColor" fill-opacity="1" fill-rule="evenodd" stroke="none"/></g><g id="32-32-osd-shutd-laptop" transform="translate(112 891.362)" fill="none"><path id="rect4198-3" fill="none" d="M0 0h32v32H0z"/><path d="M125 36v9h1v-8h15v12h-9v1h10V36zm-11 10v14h17V46zm1 1h15v12h-15z" transform="translate(-112 -32)" id="path4200-7" class="ColorScheme-Text" color="#7b7c7e" fill="currentColor" fill-opacity="1" fill-rule="evenodd" stroke="none"/><path id="path4208-5" d="M6.257 18.171l1.414-1.414 2.828 2.828 2.829-2.828 1.414 1.414L11.912 21l2.828 2.828-1.414 1.414-2.828-2.828-2.828 2.828-1.414-1.414L9.085 21l-2.828-2.828z" fill="#da4453"/><path id="path4210" d="M16 13V7h11v8h-7v-1h6v-4h-9v3zm8-5h-1v1h1zm2 0h-1v1h1z" class="ColorScheme-Highlight" color="#3daee6" fill="currentColor" fill-opacity="1" fill-rule="evenodd" stroke="none"/></g><g id="48-48-osd-shutd-laptop" transform="translate(64 875.362)" fill="none"><path id="rect4229-9" fill="none" d="M0 0h48v48H0z"/><path d="M80 21v14h1V22.002L109 22v16H97v7h5v-1h-4v-5h12V21H80zM66 36v18h12v5h-4v1h14v-1h-4v-5h12V36H66zm29 1v16H67V37.002L95 37zM79 54h4v5h-4v-5z" transform="translate(-64 -16)" id="path4233-2" class="ColorScheme-Text" color="#7b7c7e" fill="currentColor" fill-opacity="1" stroke="none"/><path id="path4239" d="M13.414 24L12 25.414l1.643 1.643 1.892 1.892-1.762 1.762L12 32.484l1.414 1.415 1.643-1.643 1.892-1.893 3.535 3.536 1.414-1.415-3.535-3.535 3.535-3.535L20.484 24l-3.535 3.535-1.762-1.762L13.415 24z" fill="#da4453"/><path id="path4241-2" d="M39 8H23v11h1v-6h2v6h1v-6h11v6h-5v1h6V8zm-15 4h14v-1H24v1zm9-3h1v1h-1V9zm2 0h1v1h-1V9zm2 0h1v1h-1V9z" class="ColorScheme-Highlight" color="#3daee6" fill="currentColor" fill-opacity="1" fill-rule="evenodd" stroke="none"/></g><g transform="translate(0 859.362)" id="osd-shutd-laptop" fill="none"><path id="rect4260" fill="none" d="M0 0h64v64H0z"/><path d="M26 11v14h1V12.002L59 12v18H39v1h20v1H39v1h1v4h-1v1h11v-1h-4v-4h14V11H26zM4 26v22h14v4h-4v1h14v-1h-4v-4h14V26H4zm33 1v18H5V27.002L37 27zm4 6h4v4h-4v-4zM5 46h32v1H5v-1zm14 2h4v4h-4v-4z" id="path4262" class="ColorScheme-Text" color="#7b7c7e" fill="currentColor" fill-opacity="1" fill-rule="evenodd" stroke="none"/><path id="path4270-8" d="M14.636 31.05l1.414-1.414L21 34.585l4.948-4.95h.002l1.412 1.415L22.415 36 24 37.582v.003l3.363 3.362v.002l-1.414 1.412L21 37.415 19.415 39h-.001l-1.829 1.83h-.002l-1.533 1.533-1.414-1.414L19.585 36l-3.416-3.414v-.002l-1.533-1.533z" fill="#da4453"/><path id="path4272" d="M51 15H35v10h1v-5h2v5h1v-5h11v6H39v1h12V15zm-15 4h14v-1H36v1zm9-3h1v1h-1v-1zm2 0h1v1h-1v-1zm2 0h1v1h-1v-1z" class="ColorScheme-Highlight" color="#3daee6" fill="currentColor" fill-opacity="1" fill-rule="evenodd" stroke="none"/></g><g id="128-128-osd-shutd-laptop" transform="translate(-128 795.362)" fill="none"><path id="rect4291" fill="none" d="M0 0h128v128H0z"/><path d="M-77-43v33h1v-32h68v41h-41v1h2v8h-2v1h20V8h-8V0h30v-42.998L-77-43zm2 2v31h1v-30h64v36h-39v1h40v-38h-66zm-46 33v43h30v8h-8v1h26v-1h-8v-8h30V-7.998L-121-8zm1 1h68v41h-68V-7zm1 1v38h66V-6h-66zm1 1h64v36h-64V-5zm72 5h8v8h-8V0zm-44 35h8v8h-8v-8z" transform="translate(128 64)" id="path4295" class="ColorScheme-Text" color="#7b7c7e" fill="currentColor" fill-opacity="1" fill-rule="evenodd" stroke="none"/><path id="path4303" d="M53.748 64l-3.56 3.563-8.106 8.105-9.383-9.38-.117-.118-2.168-2.168L29 65.416l2.736 2.735.826.826 8.106 8.105-9.383 9.383L29 88.75l1.414 1.414 2.736-2.736.827-.826 8.105-8.106L53.75 90.162l1.412-1.412.002-.002-11.668-11.666 9.498-9.5 2.168-2.168-1.412-1.412-.002-.002z" fill="#da4453"/><path id="path4309" d="M70 30h32v24H70V30zm6 23h25V38H76v15zm25-16v-1H71v1h30zm-30 1h4v15h-4V38zm21-5a1 1 0 1 0-2 0 1 1 0 0 0 2 0zm4 0a1 1 0 1 0-2 0 1 1 0 0 0 2 0zm4 0a1 1 0 1 0-2 0 1 1 0 0 0 2 0z" class="ColorScheme-Highlight" color="#3daee6" fill="currentColor" fill-opacity="1" fill-rule="evenodd" stroke="none"/></g><g id="32-32-osd-shutd-screen" transform="translate(112 1019.362)" fill="none"><path id="rect4200-9" fill="none" d="M0 0h32v32H0z"/><path d="M125 36v9h1v-8h15v12h-9v1h10V36h-17zm-11 10v14h17V46h-17zm1 1h15v12h-15V47z" transform="translate(-112 -32)" id="path4204-73" class="ColorScheme-Text" color="#7b7c7e" fill="currentColor" fill-opacity="1" stroke="none"/><path id="path4210-6" d="M5 17v8h11v-8H5zm7 1h1v1h-1v-1zm2 0h1v1h-1v-1zm-8 2h9v4H6v-4z" class="ColorScheme-Highlight" color="#3daee6" fill="currentColor" fill-opacity="1" stroke="none"/><path id="path4214" d="M18.671 6.757l-1.414 1.414L20.085 11l-2 2.001H20v.913l1.5-1.5 2.828 2.829 1.414-1.414-2.829-2.829 2.829-2.828-1.414-1.414-2.829 2.828-2.828-2.828z" clip-rule="evenodd" fill="#da4453" fill-rule="evenodd"/></g><g id="48-48-osd-shutd-screen" transform="translate(64 1003.362)" fill="none"><path id="rect4234-1" fill="none" d="M0 0h48v48H0z"/><path d="M80 21v14h1V22.002L109 22v16H97v7h5v-1h-4v-5h12V21H80zM66 36v18h12v5h-4v1h14v-1h-4v-5h12V36H66zm29 1v16H67V37.002L95 37zM79 54h4v5h-4v-5z" transform="translate(-64 -16)" id="path4238-29" class="ColorScheme-Text" color="#7b7c7e" fill="currentColor" fill-opacity="1" stroke="none"/><path id="path4244-3" d="M9 23h16v12H9V23zm1 5v6h2v-6h-2zm3 6h11v-6H13v6zm11-7H10v-1h14v1zm-4-3h-1v1h1v-1zm2 0h-1v1h1v-1zm2 0h-1v1h1v-1z" class="ColorScheme-Highlight" color="#3daee6" fill="currentColor" fill-opacity="1" fill-rule="evenodd" stroke="none"/><path id="path4248" d="M27.414 9L26 10.414l1.643 1.643 1.892 1.892-1.762 1.762L26 17.484l1.414 1.414 1.643-1.642 1.892-1.893 3.535 3.535 1.414-1.414-3.535-3.535 3.535-3.535L34.484 9l-3.535 3.535-1.761-1.762L27.414 9z" fill="#da4453"/></g><g id="osd-shutd-screen" transform="translate(0 988.362)" fill="none"><path id="rect4271" fill="none" d="M0 0h64v64H0z"/><path d="M26 12v14h1V13.002L59 13v18H39v1h20v1H39v1h1v4h-1v1h11v-1h-4v-4h14V12H26zM4 27v22h14v4h-4v1h14v-1h-4v-4h14V27H4zm33 1v18H5V28.002L37 28zm4 6h4v4h-4v-4zM5 47h32v1H5v-1zm14 2h4v4h-4v-4z" transform="translate(0 -1)" id="path4273-1" class="ColorScheme-Text" color="#7b7c7e" fill="currentColor" fill-opacity="1" fill-rule="evenodd" stroke="none"/><path id="path4283" d="M13 30h16v12H13V30zm1 5v6h2v-6h-2zm3 6h11v-6H17v6zm11-7H14v-1h14v1zm-4-3h-1v1h1v-1zm2 0h-1v1h1v-1zm2 0h-1v1h1v-1z" class="ColorScheme-Highlight" color="#3daee6" fill="currentColor" fill-opacity="1" fill-rule="evenodd" stroke="none"/><path id="path4285" d="M38.05 14.636l-1.414 1.414 1.533 1.533v.002l3.416 3.414-4 4.001H39v1.412l.583-.583h.002L41.414 24h.001L43 22.415l4.95 4.947 1.413-1.412v-.002L46 22.586v-.003L44.415 21l4.947-4.95-1.412-1.413h-.002L43 19.585l-4.95-4.95z" clip-rule="evenodd" fill="#da4453" fill-rule="evenodd"/></g><g id="128-128-osd-shutd-screen" transform="translate(-128 923.362)" fill="none"><path id="rect4305" fill="none" d="M0 0h128v128H0z"/><path d="M-77-43v33h1v-32h68v41h-41v1h2v8h-2v1h20V8h-8V0h30v-42.998L-77-43zm2 2v31h1v-30h64v36h-39v1h40v-38h-66zm-46 33v43h30v8h-8v1h26v-1h-8v-8h30V-7.998L-121-8zm1 1h68v41h-68V-7zm1 1v38h66V-6h-66zm1 1h64v36h-64V-5zm72 5h8v8h-8V0zm-44 35h8v8h-8v-8z" transform="translate(128 64)" id="path4309-9" class="ColorScheme-Text" color="#7b7c7e" fill="currentColor" fill-opacity="1" fill-rule="evenodd" stroke="none"/><path id="path4319" d="M26 65h32v24H26V65zm6 23h25V73H32v15zm25-16v-1H27v1h30zm-30 1h4v15h-4V73zm21-5a1 1 0 1 0-2 0 1 1 0 0 0 2 0zm4 0a1 1 0 1 0-2 0 1 1 0 0 0 2 0zm4 0a1 1 0 1 0-2 0 1 1 0 0 0 2 0z" class="ColorScheme-Highlight" color="#3daee6" fill="currentColor" fill-opacity="1" fill-rule="evenodd" stroke="none"/><path id="path4321" d="M94.188 32.563L97.748 29l.002.002 1.412 1.412-2.168 2.168-9.498 9.5 11.668 11.666-.002.002-1.412 1.412-11.668-11.666-8.105 8.106-.827.826L75.578 54H73.25l-.25-.25 2.285-2.285 9.383-9.383-8.106-8.105-.826-.826L73 30.416l1.414-1.414 2.168 2.168.117.117 9.383 9.381 8.106-8.105z" clip-rule="evenodd" fill="#da4453" fill-rule="evenodd"/></g></g></svg>