<?xml version="1.0" encoding="UTF-8" standalone="no"?>
<svg
   width="150"
   height="150"
   version="1.1"
   viewBox="0 0 150 150"
   id="svg120"
   sodipodi:docname="background.svg"
   inkscape:version="1.3.2 (091e20ef0f, 2023-11-25)"
   xmlns:inkscape="http://www.inkscape.org/namespaces/inkscape"
   xmlns:sodipodi="http://sodipodi.sourceforge.net/DTD/sodipodi-0.dtd"
   xmlns:xlink="http://www.w3.org/1999/xlink"
   xmlns="http://www.w3.org/2000/svg"
   xmlns:svg="http://www.w3.org/2000/svg">
  <sodipodi:namedview
     id="namedview122"
     pagecolor="#ffffff"
     bordercolor="#666666"
     borderopacity="1.0"
     inkscape:pageshadow="2"
     inkscape:pageopacity="0.0"
     inkscape:pagecheckerboard="0"
     showgrid="true"
     inkscape:zoom="37.000001"
     inkscape:cx="13.243243"
     inkscape:cy="95.837836"
     inkscape:window-width="1920"
     inkscape:window-height="954"
     inkscape:window-x="0"
     inkscape:window-y="0"
     inkscape:window-maximized="1"
     inkscape:current-layer="svg120"
     inkscape:showpageshadow="2"
     inkscape:deskcolor="#d1d1d1">
    <inkscape:grid
       type="xygrid"
       id="grid1761"
       originx="0"
       originy="0"
       spacingy="1"
       spacingx="1"
       units="px"
       visible="true" />
  </sodipodi:namedview>
  <defs
     id="defs16">
    <style
       id="current-color-scheme"
       type="text/css">.ColorScheme-Text {
        color:#31363b;
        stop-color:#31363b;
      }
      .ColorScheme-Background {
        color:#eff0f1;
        stop-color:#eff0f1;
      }
      .ColorScheme-Highlight {
        color:#3daee9;
        stop-color:#3daee9;
      }
      .ColorScheme-ViewText {
        color:#31363b;
        stop-color:#31363b;
      }
      .ColorScheme-ViewBackground {
        color:#fcfcfc;
        stop-color:#fcfcfc;
      }
      .ColorScheme-ViewHover {
        color:#93cee9;
        stop-color:#93cee9;
      }
      .ColorScheme-ViewFocus{
        color:#3daee9;
        stop-color:#3daee9;
      }
      .ColorScheme-ButtonText {
        color:#31363b;
        stop-color:#31363b;
      }
      .ColorScheme-ButtonBackground {
        color:#eff0f1;
        stop-color:#eff0f1;
      }
      .ColorScheme-ButtonHover {
        color:#93cee9;
        stop-color:#93cee9;
      }
      .ColorScheme-ButtonFocus{
        color:#3daee9;
        stop-color:#3daee9;
      }</style>
    <radialGradient
       inkscape:collect="always"
       xlink:href="#linearGradient3828-2"
       id="radialGradient1086"
       gradientUnits="userSpaceOnUse"
       gradientTransform="matrix(0,2,2,0,-417.99956,-9.9994107)"
       cx="50"
       cy="238"
       fx="50"
       fy="238"
       r="6" />
    <linearGradient
       id="linearGradient3828-2">
      <stop
         id="stop3830-75"
         offset="0"
         style="stop-color:#232629;stop-opacity:0.239" />
      <stop
         style="stop-color:#1a1c1e;stop-opacity:0.239"
         offset="0.33000001"
         id="stop3836-31" />
      <stop
         style="stop-color:#111314;stop-opacity:0.098"
         offset="0.66000003"
         id="stop3832-9" />
      <stop
         id="stop3834-7"
         offset="1"
         style="stop-color:#000000;stop-opacity:0;" />
    </linearGradient>
    <linearGradient
       inkscape:collect="always"
       xlink:href="#linearGradient3809-3"
       id="linearGradient1084"
       gradientUnits="userSpaceOnUse"
       gradientTransform="matrix(0.40624999,0,0,0.5,-162.31274,-180.50028)"
       x1="65"
       y1="233"
       x2="65"
       y2="225.51292" />
    <linearGradient
       id="linearGradient3809-3">
      <stop
         id="stop3811-1"
         offset="0"
         style="stop-color:#232629;stop-opacity:0.23921569;" />
      <stop
         style="stop-color:#111314;stop-opacity:0.09803922;"
         offset="0.5"
         id="stop3817-3" />
      <stop
         id="stop3815-2"
         offset="1"
         style="stop-color:#000000;stop-opacity:0;" />
    </linearGradient>
    <radialGradient
       inkscape:collect="always"
       xlink:href="#linearGradient3828-2"
       id="radialGradient1082"
       gradientUnits="userSpaceOnUse"
       gradientTransform="rotate(-90,-27.49996,206.50027)"
       cx="50"
       cy="238"
       fx="50"
       fy="238"
       r="6" />
    <radialGradient
       inkscape:collect="always"
       xlink:href="#linearGradient3828-2"
       id="radialGradient1080"
       gradientUnits="userSpaceOnUse"
       gradientTransform="rotate(-90,-27.49973,206.50004)"
       cx="50"
       cy="238"
       fx="50"
       fy="238"
       r="6" />
    <radialGradient
       inkscape:collect="always"
       xlink:href="#linearGradient3828-2"
       id="radialGradient1078"
       gradientUnits="userSpaceOnUse"
       gradientTransform="matrix(0,2,2,0,-418.00046,-9.9994107)"
       cx="50"
       cy="238"
       fx="50"
       fy="238"
       r="6" />
    <linearGradient
       inkscape:collect="always"
       xlink:href="#linearGradient3809-3"
       id="linearGradient1076"
       gradientUnits="userSpaceOnUse"
       gradientTransform="matrix(1.8125001,0,0,0.5,-86.625826,-260.50021)"
       x1="65"
       y1="233"
       x2="65"
       y2="225.51292" />
    <linearGradient
       inkscape:collect="always"
       xlink:href="#linearGradient3809-3"
       id="linearGradient1074"
       gradientUnits="userSpaceOnUse"
       gradientTransform="matrix(0.40624999,0,0,0.5,-162.31273,-180.49978)"
       x1="65"
       y1="233"
       x2="65"
       y2="225.51292" />
    <linearGradient
       inkscape:collect="always"
       xlink:href="#linearGradient3809-3"
       id="linearGradient1072"
       gradientUnits="userSpaceOnUse"
       gradientTransform="matrix(1.8125001,0,0,0.5,-86.625818,10.500304)"
       x1="65"
       y1="233"
       x2="65"
       y2="225.51292" />
    <radialGradient
       r="6"
       fy="238"
       fx="50"
       cy="238"
       cx="50"
       gradientTransform="rotate(-90,-27.49996,206.50027)"
       gradientUnits="userSpaceOnUse"
       id="radialGradient4097"
       xlink:href="#linearGradient3828-2"
       inkscape:collect="always" />
    <linearGradient
       inkscape:collect="always"
       xlink:href="#linearGradient3809-3"
       id="linearGradient1557"
       gradientUnits="userSpaceOnUse"
       gradientTransform="matrix(1.8125001,0,0,0.5,-86.625818,10.500304)"
       x1="65"
       y1="233"
       x2="65"
       y2="225.51292" />
    <radialGradient
       r="6"
       fy="238"
       fx="50"
       cy="238"
       cx="50"
       gradientTransform="rotate(-90,-27.49996,206.50027)"
       gradientUnits="userSpaceOnUse"
       id="radialGradient4097-5"
       xlink:href="#linearGradient3828-2"
       inkscape:collect="always" />
    <linearGradient
       inkscape:collect="always"
       xlink:href="#linearGradient3809-3"
       id="linearGradient4930"
       gradientUnits="userSpaceOnUse"
       gradientTransform="matrix(1.8125001,0,0,0.5,-86.625818,10.500304)"
       x1="65"
       y1="233"
       x2="65"
       y2="225.51292" />
  </defs>
  <use
     x="0"
     y="0"
     xlink:href="#blurred-top"
     id="blurred-left"
     transform="rotate(-90,29.00054,108.99992)"
     width="100%"
     height="100%" />
  <use
     x="0"
     y="0"
     xlink:href="#blurred-top"
     id="blurred-bottom"
     transform="rotate(180,29.000234,108.9997)"
     width="100%"
     height="100%" />
  <use
     x="0"
     y="0"
     xlink:href="#blurred-top"
     id="blurred-right"
     transform="rotate(90,28.999928,108.99946)"
     width="100%"
     height="100%" />
  <g
     id="blurred-top"
     transform="matrix(0.5517241,0,0,2,10.793567,-165.00062)">
    <path
       id="path2667-9"
       d="M 4,127.0003 V 129 h 58 v -1.9997 c -0.02169,-6.7e-4 -0.04064,0 -0.0625,0 H 4.0625 c -0.021861,0 -0.040806,-6.7e-4 -0.0625,0 z"
       style="opacity:1;fill:currentColor"
       class="ColorScheme-Background" />
    <path
       d="M 4,127.00007 V 127.5 h 58 v -0.49993 c -0.02169,-1.6e-4 -0.04064,0 -0.0625,0 H 4.0625 c -0.021861,0 -0.040806,-1.6e-4 -0.0625,0 z"
       id="path5283-1"
       style="opacity:0;fill:#ffffff" />
    <rect
       y="123"
       x="4"
       height="4"
       width="58"
       style="opacity:0.5;fill:url(#linearGradient4930)"
       id="rect3545" />
    <rect
       id="rect2010-2"
       width="58"
       height="0.5"
       x="4"
       y="126.5"
       style="fill:#000000;opacity:0.45" />
  </g>
  <g
     transform="matrix(0.744186,0,0,2.4635078,-31.650717,48.656246)"
     id="blurred-center">
    <path
       id="path11378-9"
       d="m 60,17.999997 v 12.989608 h 43 V 17.999997 Z"
       style="opacity:1;fill:currentColor;stroke-width:0.528466"
       class="ColorScheme-Background" />
  </g>
  <g
     id="blurred-topleft"
     transform="matrix(2,0,0,2,5.0004578,-165.00062)">
    <path
       style="opacity:0.5;fill:url(#radialGradient4097-5);fill-opacity:1;stroke:none"
       d="m -2.0002265,123.0003 v 6 h 4 c 0,-1.10457 0.895431,-2 2,-2 v -4 z"
       id="path3555" />
    <path
       id="path2128-3"
       d="m 13,26 c -2.770003,0 -5,2.229997 -5,5 h 1 c 0,-2.20914 1.790862,-4 4,-4 z"
       transform="matrix(0.5,0,0,0.5,-2.5002325,113.5003)"
       style="fill:#000000;opacity:0.45" />
    <path
       id="path4234-6"
       style="opacity:1;fill:currentColor"
       class="ColorScheme-Background"
       d="m 13,27 c -2.216,0 -4,1.784 -4,4 h 4 z"
       transform="matrix(0.5,0,0,0.5,-2.5002325,113.5003)" />
    <path
       id="path3188-0"
       d="m 13,27 c -2.216,0 -4,1.784 -4,4 h 1 c 0,-1.662 1.338,-3 3,-3 z"
       transform="matrix(0.5,0,0,0.5,-2.5002325,113.5003)"
       style="opacity:0;fill:#ffffff" />
  </g>
  <use
     x="0"
     y="0"
     xlink:href="#blurred-topleft"
     id="blurred-topright"
     transform="rotate(90,28.999928,108.99946)"
     width="100%"
     height="100%" />
  <use
     x="0"
     y="0"
     xlink:href="#blurred-topleft"
     id="blurred-bottomright"
     transform="rotate(180,29.000234,108.9997)"
     width="100%"
     height="100%" />
  <use
     x="0"
     y="0"
     xlink:href="#blurred-topleft"
     id="blurred-bottomleft"
     transform="rotate(-90,29.00054,108.99992)"
     width="100%"
     height="100%" />
  <use
     x="0"
     y="0"
     xlink:href="#top"
     id="left"
     transform="rotate(-90,29.000532,46.999932)"
     width="100%"
     height="100%" />
  <use
     x="0"
     y="0"
     xlink:href="#top"
     id="bottom"
     transform="rotate(180,29.000232,46.9997)"
     width="100%"
     height="100%" />
  <use
     x="0"
     y="0"
     xlink:href="#top"
     id="right"
     transform="rotate(90,28.999933,46.999467)"
     width="100%"
     height="100%" />
  <rect
     y="8.625"
     x="5"
     height="4.375"
     width="5"
     id="hint-stretch-borders"
     style="opacity:0.875;fill:#008000;fill-opacity:1;stroke:none;stroke-width:0;stroke-miterlimit:4;stroke-dasharray:none;stroke-opacity:1" />
  <text
     id="text4270"
     y="-506.74683"
     x="198.334"
     style="font-style:normal;font-variant:normal;font-weight:bold;font-stretch:normal;line-height:0%;font-family:'Gill Sans';text-align:justify;writing-mode:lr-tb;text-anchor:start;fill:#000000;fill-opacity:1;stroke:none;stroke-width:1px;stroke-linecap:butt;stroke-linejoin:miter;stroke-opacity:1"
     xml:space="preserve"><tspan
       y="-506.74683"
       x="198.334"
       id="tspan4272"
       sodipodi:role="line"
       style="font-size:14px;line-height:1.25"> </tspan></text>
  <g
     style="opacity:0.979"
     transform="matrix(-0.75,0,0,0.75,133.5,29.499998)"
     id="g3041" />
  <g
     id="top"
     transform="matrix(0.5517241,0,0,2,10.793569,-227.0006)">
    <path
       id="path2667"
       d="M 4,127.0003 V 129 h 58 v -1.9997 c -0.02169,-6.7e-4 -0.04064,0 -0.0625,0 H 4.0625 c -0.021861,0 -0.040806,-6.7e-4 -0.0625,0 z"
       style="opacity:1;fill:currentColor"
       class="ColorScheme-Background" />
    <path
       d="M 4,127.00007 V 127.5 h 58 v -0.49993 c -0.02169,-1.6e-4 -0.04064,0 -0.0625,0 H 4.0625 c -0.021861,0 -0.040806,-1.6e-4 -0.0625,0 z"
       id="path5283"
       style="fill:#ffffff;opacity:0" />
    <rect
       y="123"
       x="4"
       height="4"
       width="58"
       style="opacity:0.5;fill:url(#linearGradient1557)"
       id="rect5023" />
    <rect
       id="rect2010"
       width="58"
       height="0.5"
       x="4"
       y="126.5"
       style="fill:#000000;opacity:0.45" />
  </g>
  <g
     transform="matrix(0.744186,0,0,2.4635078,-31.650704,-13.343751)"
     id="center">
    <path
       id="path11378"
       d="m 60,17.999997 v 12.989608 h 43 V 17.999997 Z"
       style="opacity:1;fill:currentColor;stroke-width:0.528466"
       class="ColorScheme-Background" />
  </g>
  <rect
     y="19"
     x="28"
     height="14"
     width="4"
     id="hint-top-margin"
     style="opacity:0.875;fill:#008000;fill-opacity:1;stroke:none" />
  <rect
     style="opacity:0.875;fill:#008000;fill-opacity:1;stroke:none"
     id="hint-bottom-margin"
     width="4"
     height="14"
     x="28"
     y="61" />
  <rect
     y="44"
     x="43"
     height="4"
     width="14"
     id="hint-right-margin"
     style="opacity:0.875;fill:#008000;fill-opacity:1;stroke:none" />
  <g
     id="topleft"
     transform="matrix(2,0,0,2,5.000465,-227.0006)">
    <path
       style="fill:url(#radialGradient4097);fill-opacity:1;stroke:none;opacity:0.5"
       d="m -2.0002265,123.0003 v 6 h 4 c 0,-1.10457 0.895431,-2 2,-2 v -4 z"
       id="path5032" />
    <path
       id="path2128"
       d="M 13 26 C 10.229997 26 8 28.229997 8 31 L 9 31 C 9 28.79086 10.790862 27 13 27 L 13 26 z "
       transform="matrix(0.5,0,0,0.5,-2.5002325,113.5003)"
       style="fill:#000000;opacity:0.45" />
    <path
       id="path4234"
       style="fill:currentColor;opacity:1"
       class="ColorScheme-Background"
       d="M 13 27 C 10.784 27 9 28.784 9 31 L 13 31 L 13 27 z "
       transform="matrix(0.5,0,0,0.5,-2.5002325,113.5003)" />
    <path
       id="path3188"
       d="M 13 27 C 10.784 27 9 28.784 9 31 L 10 31 C 10 29.338 11.338 28 13 28 L 13 27 z "
       transform="matrix(0.5,0,0,0.5,-2.5002325,113.5003)"
       style="fill:#ffffff;opacity:0" />
  </g>
  <rect
     style="opacity:0.875;fill:#008000;fill-opacity:1;stroke:none"
     id="hint-left-margin"
     width="14"
     height="4"
     x="1"
     y="44.062355" />
  <rect
     style="opacity:0.875;fill:#ff00ff;fill-opacity:1;stroke:none;stroke-width:0.755929"
     id="hint-right-inset"
     width="8"
     height="4"
     x="49"
     y="49" />
  <rect
     y="49"
     x="1"
     height="4"
     width="8"
     id="hint-left-inset"
     style="opacity:0.875;fill:#ff00ff;fill-opacity:1;stroke:none;stroke-width:0.755929" />
  <rect
     style="opacity:0.875;fill:#ff00ff;fill-opacity:1;stroke:none;stroke-width:0.755929"
     id="hint-top-inset"
     width="4"
     height="8"
     x="34"
     y="19" />
  <rect
     y="67"
     x="34"
     height="8"
     width="4"
     id="hint-bottom-inset"
     style="opacity:0.875;fill:#ff00ff;fill-opacity:1;stroke:none;stroke-width:0.755929" />
  <g
     transform="matrix(0.5517241,0,0,2,87.793104,-165.0006)"
     id="blurred-mask-top">
    <path
       class="ColorScheme-Background"
       style="fill:#000000;fill-opacity:1;stroke-width:0.999926"
       d="M 4,127.0003 V 129 h 58 v -1.9997 c -0.02169,-6.7e-4 -0.04064,0 -0.0625,0 H 4.0625 c -0.021861,0 -0.040806,-6.7e-4 -0.0625,0 z"
       id="path973"
       inkscape:connector-curvature="0" />
    <rect
       style="fill:none;fill-opacity:0.239216;stroke:none"
       id="rect977"
       width="58.000004"
       height="4"
       x="3.9991782"
       y="123.0003" />
  </g>
  <g
     transform="matrix(2,0,0,2.4615385,-2.0000014,-224.53907)"
     id="blurred-mask-right">
    <path
       class="ColorScheme-Background"
       style="fill:#000000;fill-opacity:1;stroke-width:0.999926"
       d="m 62,129 v 13 h 1.999703 c 6.68e-4,-0.0217 0,-0.0406 0,-0.0625 v -12.875 c 0,-0.0219 6.68e-4,-0.0408 0,-0.0625 z"
       id="path981"
       inkscape:connector-curvature="0" />
    <rect
       style="fill:none;fill-opacity:1;stroke:none"
       id="rect985"
       width="13"
       height="4"
       x="-142.00024"
       y="-67.999771"
       transform="matrix(0,-1,-1,0,0,0)" />
  </g>
  <g
     transform="matrix(0.5517241,0,0,2,87.793104,-159.0006)"
     id="blurred-mask-bottom">
    <path
       class="ColorScheme-Background"
       style="fill:#000000;fill-opacity:1;stroke-width:0.999926"
       d="M 4,142.0003 V 144 c 0.021694,6.7e-4 0.040639,0 0.0625,0 h 57.875 c 0.02186,0 0.04081,6.7e-4 0.0625,0 v -1.9997 z"
       id="path989"
       inkscape:connector-curvature="0" />
    <rect
       y="-148.0002"
       x="3.9991746"
       height="4"
       width="58.000004"
       id="rect993"
       style="fill:none;fill-opacity:1;stroke:none"
       transform="scale(1,-1)" />
  </g>
  <g
     id="blurred-mask-bottomleft"
     transform="translate(31.999999,34.99939)">
    <path
       class="ColorScheme-Background"
       style="fill:#000000;fill-opacity:1"
       d="m 54,90 c 0.06722,2.1827 1.817292,3.93278 4,4 v -4 z"
       id="path997"
       inkscape:connector-curvature="0" />
    <path
       inkscape:label="#path3870"
       style="fill:none;fill-opacity:1;stroke:none"
       d="M 45.999547,102.00061 V 90.000609 h 8.000001 c 0,2.20914 1.790861,4 4,4 v 8.000001 z"
       id="path1001"
       inkscape:connector-curvature="0"
       inkscape:transform-center-x="5"
       inkscape:transform-center-y="5" />
  </g>
  <g
     id="blurred-mask-center"
     transform="matrix(0.744186,0,0,2.4635078,45.34883,48.656249)">
    <g
       id="g1007"
       transform="matrix(0.344,0,0,0.8118505,3.584,-783.88382)">
      <path
         class="ColorScheme-Background"
         style="fill:#000000;fill-opacity:1"
         d="m 164,987.7235 v 16 h 125 v -16 z"
         id="path1005"
         inkscape:connector-curvature="0" />
    </g>
  </g>
  <g
     id="blurred-mask-topright"
     transform="matrix(-2,0,0,2,129.99998,-165.0006)">
    <path
       class="ColorScheme-Background"
       id="path1011"
       d="m 4,127 c -1.0913544,0.0336 -1.9663917,0.90865 -2,2 h 2 z"
       style="fill:#000000;fill-opacity:1"
       inkscape:connector-curvature="0" />
    <path
       inkscape:label="#path3838"
       style="fill:none;fill-opacity:1;stroke:none"
       d="m -1.99978,123.0003 v 6 h 4 c 0,-1.10457 0.895431,-2 2,-2 v -4 z"
       id="path1015"
       inkscape:connector-curvature="0"
       inkscape:transform-center-x="2.5"
       inkscape:transform-center-y="-2.5" />
  </g>
  <g
     transform="matrix(2,0,0,2,81.999994,-165.0006)"
     id="blurred-mask-topleft">
    <path
       class="ColorScheme-Background"
       style="fill:#000000;fill-opacity:1"
       d="m 4,127 c -1.0913544,0.0336 -1.9663917,0.90865 -2,2 h 2 z"
       id="path1025"
       inkscape:connector-curvature="0" />
    <path
       inkscape:label="#rect3045"
       inkscape:transform-center-y="-2.5"
       inkscape:transform-center-x="2.4999995"
       inkscape:connector-curvature="0"
       id="path1029"
       d="m -2.0002265,123.0003 v 6 h 4 c 0,-1.10457 0.895431,-2 2,-2 v -4 z"
       style="fill:none;fill-opacity:1;stroke:none" />
  </g>
  <g
     id="blurred-mask-left"
     transform="matrix(-2,0,0,2.4615385,214.00013,-224.53907)">
    <path
       class="ColorScheme-Background"
       id="path1033"
       d="m 62.000297,129 v 13 H 64 c 6.68e-4,-0.0217 0,-0.0406 0,-0.0625 v -12.875 c 0,-0.0219 6.68e-4,-0.0408 0,-0.0625 z"
       style="fill:#000000;fill-opacity:1;stroke-width:0.999926"
       inkscape:connector-curvature="0" />
    <rect
       y="-68.000298"
       x="-142.00024"
       height="4"
       width="13"
       id="rect1037"
       style="fill:none;fill-opacity:1;stroke:none"
       transform="matrix(0,-1,-1,0,0,0)" />
  </g>
  <g
     id="blurred-mask-bottomright"
     transform="matrix(-1,0,0,1,179.99998,34.99939)">
    <path
       class="ColorScheme-Background"
       id="path1041"
       d="m 54,90 c 0.06722,2.1827 1.817292,3.93278 4,4 v -4 z"
       style="fill:#000000;fill-opacity:1"
       inkscape:connector-curvature="0" />
    <path
       inkscape:label="#path3874"
       inkscape:transform-center-y="5"
       inkscape:transform-center-x="5"
       inkscape:connector-curvature="0"
       id="path1045"
       d="M 46.00044,102.00061 V 90.000609 h 8 c 0,2.20914 1.79086,4 4,4 v 8.000001 z"
       style="fill:none;fill-opacity:1;stroke:none" />
  </g>
  <rect
     y="81"
     x="28"
     height="14"
     width="4"
     id="blurred-hint-top-margin"
     style="opacity:0.875;fill:#008000;fill-opacity:1;stroke:none" />
  <rect
     style="opacity:0.875;fill:#008000;fill-opacity:1;stroke:none"
     id="blurred-hint-bottom-margin"
     width="4"
     height="14"
     x="28"
     y="123" />
  <rect
     y="106.00001"
     x="43"
     height="4"
     width="14"
     id="blurred-hint-right-margin"
     style="opacity:0.875;fill:#008000;fill-opacity:1;stroke:none" />
  <rect
     style="opacity:0.875;fill:#008000;fill-opacity:1;stroke:none"
     id="blurred-hint-left-margin"
     width="14"
     height="4"
     x="1"
     y="106.06236" />
  <rect
     y="111"
     x="49"
     height="4"
     width="8"
     id="blurred-hint-right-inset"
     style="opacity:0.875;fill:#ff00ff;fill-opacity:1;stroke:none;stroke-width:0.755929" />
  <rect
     style="opacity:0.875;fill:#ff00ff;fill-opacity:1;stroke:none;stroke-width:0.755929"
     id="blurred-hint-left-inset"
     width="8"
     height="4"
     x="1"
     y="111" />
  <rect
     y="81"
     x="34"
     height="8"
     width="4"
     id="blurred-hint-top-inset"
     style="opacity:0.875;fill:#ff00ff;fill-opacity:1;stroke:none;stroke-width:0.755929" />
  <rect
     style="opacity:0.875;fill:#ff00ff;fill-opacity:1;stroke:none;stroke-width:0.755929"
     id="blurred-hint-bottom-inset"
     width="4"
     height="8"
     x="34"
     y="129" />
  <g
     id="shadow-top"
     transform="matrix(0.5517241,0,0,2,87.793569,-227.1006)">
    <path
       inkscape:connector-curvature="0"
       id="path983"
       d="M 4,127.0003 V 129 h 58 v -1.9997 c -0.02169,-6.7e-4 -0.04064,0 -0.0625,0 H 4.0625 c -0.021861,0 -0.040806,-6.7e-4 -0.0625,0 z"
       style="opacity:1;fill:none;stroke-width:0.999926"
       class="ColorScheme-Background" />
    <rect
       y="123.0003"
       x="3.9991782"
       height="4"
       width="58.000004"
       id="rect987"
       style="fill:url(#linearGradient1072);fill-opacity:1;stroke:none;opacity:0.5" />
  </g>
  <g
     id="shadow-right"
     transform="matrix(2,0,0,2.4615385,-1.999535,-286.63907)">
    <path
       inkscape:connector-curvature="0"
       id="path991"
       d="m 62,129 v 13 h 1.999703 c 6.68e-4,-0.0217 0,-0.0406 0,-0.0625 v -12.875 c 0,-0.0219 6.68e-4,-0.0408 0,-0.0625 z"
       style="opacity:1;fill:none;stroke-width:0.999926"
       class="ColorScheme-Background" />
    <rect
       transform="matrix(0,-1,-1,0,0,0)"
       y="-67.999771"
       x="-142.00024"
       height="4"
       width="13"
       id="rect995"
       style="fill:url(#linearGradient1074);fill-opacity:1;stroke:none;opacity:0.5" />
  </g>
  <g
     id="shadow-bottom"
     transform="matrix(0.5517241,0,0,2,87.793571,-221.1006)">
    <path
       inkscape:connector-curvature="0"
       id="path999"
       d="M 4,142.0003 V 144 c 0.021694,6.7e-4 0.040639,0 0.0625,0 h 57.875 c 0.02186,0 0.04081,6.7e-4 0.0625,0 v -1.9997 z"
       style="opacity:1;fill:none;stroke-width:0.999926"
       class="ColorScheme-Background" />
    <rect
       transform="scale(1,-1)"
       style="fill:url(#linearGradient1076);fill-opacity:1;stroke:none;opacity:0.5"
       id="rect1005"
       width="58.000004"
       height="4"
       x="3.9991746"
       y="-148.0002" />
  </g>
  <g
     transform="translate(32.000465,-27.10061)"
     id="shadow-bottomleft">
    <path
       inkscape:connector-curvature="0"
       id="path1010"
       d="m 54,90 c 0.06722,2.1827 1.817292,3.93278 4,4 v -4 z"
       style="opacity:1;fill:none"
       class="ColorScheme-Background" />
    <path
       inkscape:transform-center-y="5"
       inkscape:transform-center-x="5"
       inkscape:connector-curvature="0"
       id="path1014"
       d="M 45.999547,102.00061 V 90.000609 h 8.000001 c 0,2.20914 1.790861,4 4,4 v 8.000001 z"
       style="fill:url(#radialGradient1078);fill-opacity:1;stroke:none;opacity:0.5"
       inkscape:label="#path3870" />
  </g>
  <g
     transform="matrix(0.744186,0,0,2.4635078,45.349296,-13.443751)"
     id="shadow-center">
    <g
       transform="matrix(0.344,0,0,0.8118505,3.584,-783.88382)"
       id="g1020">
      <path
         inkscape:connector-curvature="0"
         id="path1018"
         d="m 164,987.7235 v 16 h 125 v -16 z"
         style="opacity:1;fill:none"
         class="ColorScheme-Background" />
    </g>
  </g>
  <g
     transform="matrix(-2,0,0,2,130.00045,-227.1006)"
     id="shadow-topright">
    <path
       inkscape:connector-curvature="0"
       style="opacity:1;fill:none"
       d="m 4,127 c -1.0913544,0.0336 -1.9663917,0.90865 -2,2 h 2 z"
       id="path1024"
       class="ColorScheme-Background" />
    <path
       inkscape:transform-center-y="-2.5"
       inkscape:transform-center-x="2.5"
       inkscape:connector-curvature="0"
       id="path1028"
       d="m -1.99978,123.0003 v 6 h 4 c 0,-1.10457 0.895431,-2 2,-2 v -4 z"
       style="fill:url(#radialGradient1080);fill-opacity:1;stroke:none;opacity:0.5"
       inkscape:label="#path3838" />
  </g>
  <rect
     y="18.9"
     x="105"
     height="14"
     width="4"
     id="shadow-hint-top-margin"
     style="opacity:0.875;fill:#008000;fill-opacity:1;stroke:none" />
  <rect
     style="opacity:0.875;fill:#008000;fill-opacity:1;stroke:none"
     id="shadow-hint-bottom-margin"
     width="4"
     height="14"
     x="105"
     y="60.900002" />
  <rect
     y="43.900002"
     x="120"
     height="4"
     width="14"
     id="shadow-hint-right-margin"
     style="opacity:0.875;fill:#008000;fill-opacity:1;stroke:none" />
  <g
     id="shadow-topleft"
     transform="matrix(2,0,0,2,82.000465,-227.1006)">
    <path
       inkscape:connector-curvature="0"
       id="path1038"
       d="m 4,127 c -1.0913544,0.0336 -1.9663917,0.90865 -2,2 h 2 z"
       style="opacity:1;fill:none"
       class="ColorScheme-Background" />
    <path
       style="fill:url(#radialGradient1082);fill-opacity:1;stroke:none;opacity:0.5"
       d="m -2.0002265,123.0003 v 6 h 4 c 0,-1.10457 0.895431,-2 2,-2 v -4 z"
       id="path1042"
       inkscape:connector-curvature="0"
       inkscape:transform-center-x="2.4999995"
       inkscape:transform-center-y="-2.5"
       inkscape:label="#rect3045" />
  </g>
  <g
     transform="matrix(-2,0,0,2.4615385,214.0006,-286.63907)"
     id="shadow-left">
    <path
       inkscape:connector-curvature="0"
       style="opacity:1;fill:none;stroke-width:0.999926"
       d="m 62.000297,129 v 13 H 64 c 6.68e-4,-0.0217 0,-0.0406 0,-0.0625 v -12.875 c 0,-0.0219 6.68e-4,-0.0408 0,-0.0625 z"
       id="path1046"
       class="ColorScheme-Background" />
    <rect
       transform="matrix(0,-1,-1,0,0,0)"
       style="fill:url(#linearGradient1084);fill-opacity:1;stroke:none;opacity:0.5"
       id="rect1050"
       width="13"
       height="4"
       x="-142.00024"
       y="-68.000298" />
  </g>
  <g
     transform="matrix(-1,0,0,1,180.00045,-27.10061)"
     id="shadow-bottomright">
    <path
       inkscape:connector-curvature="0"
       style="opacity:1;fill:none"
       d="m 54,90 c 0.06722,2.1827 1.817292,3.93278 4,4 v -4 z"
       id="path1054"
       class="ColorScheme-Background" />
    <path
       style="fill:url(#radialGradient1086);fill-opacity:1;stroke:none;opacity:0.5"
       d="M 46.00044,102.00061 V 90.000609 h 8 c 0,2.20914 1.79086,4 4,4 v 8.000001 z"
       id="path1058"
       inkscape:connector-curvature="0"
       inkscape:transform-center-x="5"
       inkscape:transform-center-y="5"
       inkscape:label="#path3874" />
  </g>
  <rect
     style="opacity:0.875;fill:#008000;fill-opacity:1;stroke:none"
     id="shadow-hint-left-margin"
     width="14"
     height="4"
     x="78"
     y="43.962357" />
  <rect
     y="48.900002"
     x="126"
     height="4"
     width="8"
     id="shadow-hint-right-inset"
     style="opacity:0.875;fill:#ff00ff;fill-opacity:1;stroke:none;stroke-width:0.755929" />
  <rect
     style="opacity:0.875;fill:#ff00ff;fill-opacity:1;stroke:none;stroke-width:0.755929"
     id="shadow-hint-left-inset"
     width="8"
     height="4"
     x="78"
     y="48.900002" />
  <rect
     y="18.9"
     x="111"
     height="8"
     width="4"
     id="shadow-hint-top-inset"
     style="opacity:0.875;fill:#ff00ff;fill-opacity:1;stroke:none;stroke-width:0.755929" />
  <rect
     style="opacity:0.875;fill:#ff00ff;fill-opacity:1;stroke:none;stroke-width:0.755929"
     id="shadow-hint-bottom-inset"
     width="4"
     height="8"
     x="111"
     y="66.900002" />
  <use
     x="0"
     y="0"
     xlink:href="#topleft"
     id="topright"
     transform="rotate(90,28.999933,46.999468)"
     width="100%"
     height="100%" />
  <use
     x="0"
     y="0"
     xlink:href="#topleft"
     id="bottomright"
     transform="rotate(180,29.000232,46.9997)"
     width="100%"
     height="100%" />
  <use
     x="0"
     y="0"
     xlink:href="#topleft"
     id="bottomleft"
     transform="rotate(-90,29.000532,46.999933)"
     width="100%"
     height="100%" />
</svg>
