<?xml version="1.0" encoding="UTF-8" standalone="no"?>
<svg
   width="173"
   height="56"
   version="1.1"
   viewBox="0 0 173 56"
   id="svg139"
   sodipodi:docname="panel-background.svg"
   inkscape:version="1.3.2 (091e20ef0f, 2023-11-25)"
   xmlns:inkscape="http://www.inkscape.org/namespaces/inkscape"
   xmlns:sodipodi="http://sodipodi.sourceforge.net/DTD/sodipodi-0.dtd"
   xmlns:xlink="http://www.w3.org/1999/xlink"
   xmlns="http://www.w3.org/2000/svg"
   xmlns:svg="http://www.w3.org/2000/svg"
   xmlns:rdf="http://www.w3.org/1999/02/22-rdf-syntax-ns#"
   xmlns:cc="http://creativecommons.org/ns#"
   xmlns:dc="http://purl.org/dc/elements/1.1/">
  <metadata
     id="metadata143">
    <rdf:RDF>
      <cc:Work
         rdf:about="">
        <dc:format>image/svg+xml</dc:format>
        <dc:type
           rdf:resource="http://purl.org/dc/dcmitype/StillImage" />
      </cc:Work>
    </rdf:RDF>
  </metadata>
  <sodipodi:namedview
     pagecolor="#ffffff"
     bordercolor="#666666"
     borderopacity="1"
     objecttolerance="10"
     gridtolerance="10"
     guidetolerance="10"
     inkscape:pageopacity="0"
     inkscape:pageshadow="2"
     inkscape:window-width="1920"
     inkscape:window-height="954"
     id="namedview141"
     showgrid="true"
     inkscape:zoom="14.312138"
     inkscape:cx="94.046045"
     inkscape:cy="40.245559"
     inkscape:window-x="0"
     inkscape:window-y="0"
     inkscape:window-maximized="1"
     inkscape:current-layer="svg139"
     inkscape:pagecheckerboard="0"
     inkscape:showpageshadow="2"
     inkscape:deskcolor="#d1d1d1">
    <inkscape:grid
       type="xygrid"
       id="grid1069"
       originx="0"
       originy="0"
       spacingy="1"
       spacingx="1"
       units="px"
       visible="true" />
  </sodipodi:namedview>
  <defs
     id="defs13">
    <style
       id="current-color-scheme"
       type="text/css">.ColorScheme-Text {
        color:#31363b;
        stop-color:#31363b;
      }
      .ColorScheme-Background {
        color:#eff0f1;
        stop-color:#eff0f1;
      }
      .ColorScheme-Highlight {
        color:#3daee9;
        stop-color:#3daee9;
      }
      .ColorScheme-ViewText {
        color:#31363b;
        stop-color:#31363b;
      }
      .ColorScheme-ViewBackground {
        color:#fcfcfc;
        stop-color:#fcfcfc;
      }
      .ColorScheme-ViewHover {
        color:#93cee9;
        stop-color:#93cee9;
      }
      .ColorScheme-ViewFocus{
        color:#3daee9;
        stop-color:#3daee9;
      }
      .ColorScheme-ButtonText {
        color:#31363b;
        stop-color:#31363b;
      }
      .ColorScheme-ButtonBackground {
        color:#eff0f1;
        stop-color:#eff0f1;
      }
      .ColorScheme-ButtonHover {
        color:#93cee9;
        stop-color:#93cee9;
      }
      .ColorScheme-ButtonFocus{
        color:#3daee9;
        stop-color:#3daee9;
      }</style>
    <linearGradient
       id="linearGradient4950"
       x1="51"
       x2="69"
       y1="932.36"
       y2="932.36"
       gradientUnits="userSpaceOnUse"
       xlink:href="#linearGradient4270" />
    <linearGradient
       id="linearGradient4270">
      <stop
         stop-color="#000000"
         stop-opacity=".66663"
         offset="0"
         id="stop4" />
      <stop
         stop-color="#000000"
         stop-opacity="0"
         offset="1"
         id="stop6" />
    </linearGradient>
    <linearGradient
       id="linearGradient4948"
       x1="-15.571"
       x2="-7.8571"
       y1="932.36"
       y2="932.36"
       gradientTransform="matrix(2.3333,0,0,1,17.333,0)"
       gradientUnits="userSpaceOnUse"
       xlink:href="#linearGradient4270" />
    <linearGradient
       id="linearGradient4934"
       x1="951.79"
       x2="960.36"
       y1="-35"
       y2="-35"
       gradientTransform="matrix(2.3333,0,0,1,-1272.5,0)"
       gradientUnits="userSpaceOnUse"
       xlink:href="#linearGradient4270" />
    <linearGradient
       id="linearGradient4920"
       x1="-912.93"
       x2="-905.22"
       y1="-35"
       y2="-35"
       gradientTransform="matrix(2.3333,0,0,1,1213.8,0)"
       gradientUnits="userSpaceOnUse"
       xlink:href="#linearGradient4270" />
    <radialGradient
       id="radialGradient1805"
       cx="77"
       cy="12"
       r="10"
       gradientTransform="matrix(0,-1.8,1.8,0,55.4,150.6)"
       gradientUnits="userSpaceOnUse"
       xlink:href="#linearGradient4270" />
  </defs>
  <rect
     id="hint-tile-center"
     y="-1.4648437e-05"
     width="5"
     height="5"
     fill="#ff6600"
     x="0" />
  <g
     id="top"
     transform="translate(0,-904.36)">
    <rect
       class="ColorScheme-Background"
       transform="matrix(0,-1,-1,0,0,0)"
       x="-916.35999"
       y="-51"
       width="6"
       height="32"
       fill="currentColor"
       id="rect16"
       style="opacity:1" />
  </g>
  <g
     id="topleft"
     transform="translate(0,-904.36)">
    <path
       id="path19"
       class="ColorScheme-Background"
       d="M 19 6 C 15.676 6 13 8.676 13 12 L 17 12 L 18 12 L 19 12 L 19 11 L 19 7 L 19 6 z "
       transform="translate(0,904.36)"
       fill="currentColor"
       style="opacity:1" />
  </g>
  <g
     id="topright"
     transform="translate(0,-904.36)">
    <path
       id="path22"
       class="ColorScheme-Background"
       d="M 51 6 L 51 7 L 51 11 L 51 12 L 52 12 L 53 12 L 56 12 L 57 12 C 57 8.676 54.324 6 51 6 z "
       transform="translate(0,904.36)"
       fill="currentColor"
       style="opacity:1" />
  </g>
  <g
     id="bottom"
     transform="translate(0,-904.36)">
    <rect
       class="ColorScheme-Background"
       transform="rotate(90)"
       x="948.35999"
       y="-51"
       width="6"
       height="32"
       fill="currentColor"
       id="rect25"
       style="opacity:1" />
  </g>
  <g
     id="bottomleft"
     transform="translate(0,-904.36)">
    <path
       id="path28"
       class="ColorScheme-Background"
       d="M 13 44 C 13 47.324 15.676 50 19 50 L 19 49 L 19 45 L 19 44 L 18 44 L 17 44 L 14 44 L 13 44 z "
       transform="translate(0,904.36)"
       fill="currentColor"
       style="opacity:1" />
  </g>
  <g
     id="bottomright"
     transform="translate(0,-904.36)">
    <path
       id="path31"
       class="ColorScheme-Background"
       d="M 51 44 L 51 45 L 51 49 L 51 50 C 54.324 50 57 47.324 57 44 L 56 44 L 53 44 L 52 44 L 51 44 z "
       transform="translate(0,904.36)"
       fill="currentColor"
       style="opacity:1" />
  </g>
  <g
     id="left"
     transform="translate(0,-904.36)">
    <rect
       class="ColorScheme-Background"
       transform="scale(-1,1)"
       x="-19"
       y="916.35999"
       width="6"
       height="32"
       fill="currentColor"
       id="rect34"
       style="opacity:1" />
  </g>
  <g
     id="right"
     transform="translate(0,-904.36)">
    <rect
       class="ColorScheme-Background"
       x="51"
       y="916.35999"
       width="6"
       height="32"
       fill="currentColor"
       id="rect37"
       style="opacity:1" />
  </g>
  <g
     id="center"
     transform="translate(0,-904.36)">
    <rect
       x="19"
       y="916.35999"
       width="32"
       height="32"
       fill="none"
       id="rect40" />
    <rect
       class="ColorScheme-Background"
       x="19"
       y="916.35999"
       width="32"
       height="32"
       fill="currentColor"
       id="rect42"
       style="opacity:1" />
  </g>
  <rect
     id="hint-top-inset"
     x="33"
     y="3"
     width="4"
     height="0.1"
     fill="#ff00ff" />
  <rect
     id="hint-bottom-inset"
     x="33"
     y="53"
     width="4"
     height="0.1"
     fill="#ff00ff" />
  <rect
     id="hint-right-inset"
     transform="rotate(90)"
     x="21"
     y="-60"
     width="4"
     height="0.1"
     fill="#ff00ff" />
  <rect
     id="hint-left-inset"
     transform="rotate(90)"
     x="26"
     y="-10.1"
     width="4"
     height="0.1"
     fill="#ff00ff" />
  <g
     id="mask-top"
     transform="matrix(1,0,0,1.2,116,-1086.432)">
    <rect
       transform="matrix(0,-1,-1,0,0,0)"
       x="-915.35999"
       y="-51"
       width="5"
       height="32"
       fill="#000000"
       opacity="0.97"
       id="rect49" />
  </g>
  <g
     id="mask-topleft"
     transform="matrix(1.2,0,0,1.2,113.4,-1086.432)">
    <path
       transform="translate(-116,904.36)"
       d="m 134,6 c -2.77,0 -5,2.23 -5,5 h 5 z"
       fill="#000000"
       opacity="0.97"
       id="path52" />
  </g>
  <g
     id="mask-topright"
     transform="matrix(1.2,0,0,1.2,104.6,-1086.432)">
    <path
       transform="translate(-116,904.36)"
       d="m 168,6 v 5 h 5 c 0,-2.77 -2.23,-5 -5,-5 z"
       fill="#000000"
       opacity="0.97"
       id="path55" />
  </g>
  <g
     id="mask-bottom"
     transform="matrix(1,0,0,1.2,116,-1095.232)">
    <rect
       transform="rotate(90)"
       x="949.35999"
       y="-51"
       width="5"
       height="32"
       fill="#000000"
       opacity="0.97"
       id="rect58" />
  </g>
  <g
     id="mask-bottomleft"
     transform="matrix(1.2,0,0,1.2,113.4,-1095.232)">
    <path
       transform="translate(-116,904.36)"
       d="m 129,45 c 0,2.77 2.23,5 5,5 v -5 z"
       fill="#000000"
       opacity="0.97"
       id="path61" />
  </g>
  <g
     id="mask-bottomright"
     transform="matrix(1.2,0,0,1.2,104.6,-1095.232)">
    <path
       transform="translate(-116,904.36)"
       d="m 168,45 v 5 c 2.77,0 5,-2.23 5,-5 z"
       fill="#000000"
       opacity="0.97"
       id="path64" />
  </g>
  <g
     id="mask-left"
     transform="matrix(1.2,0,0,1,113.4,-904.36)">
    <rect
       transform="scale(-1,1)"
       x="-18"
       y="916.35999"
       width="5"
       height="32"
       fill="#000000"
       opacity="0.97"
       id="rect67" />
  </g>
  <g
     id="mask-right"
     transform="matrix(1.2,0,0,1,104.6,-904.36)">
    <rect
       x="52"
       y="916.35999"
       width="5"
       height="32"
       fill="#000000"
       opacity="0.97"
       id="rect70" />
  </g>
  <g
     id="mask-center"
     transform="translate(116,-904.36)">
    <rect
       x="19"
       y="916.35999"
       width="32"
       height="32"
       fill="none"
       id="rect73" />
    <rect
       x="19"
       y="916.35999"
       width="32"
       height="32"
       fill="#000000"
       opacity="0.97"
       id="rect75" />
  </g>
  <g
     id="shadow-top"
     transform="translate(58,-904.36)">
    <rect
       transform="matrix(0,-1,-1,0,0,0)"
       x="-916.35999"
       y="-51"
       width="6"
       height="32"
       fill="none"
       id="rect78" />
    <rect
       transform="matrix(0,-1,-1,0,0,0)"
       x="-910.35999"
       y="-51"
       width="14"
       height="32"
       fill="url(#linearGradient4920)"
       opacity="0.15"
       id="rect80"
       style="fill:url(#linearGradient4920)" />
    <rect
       transform="matrix(0,-1,-1,0,0,0)"
       x="-911.35999"
       y="-51"
       width="0.99997997"
       height="32"
       fill="none"
       id="rect82" />
    <rect
       transform="matrix(0,-1,-1,0,0,0)"
       x="-910.35999"
       y="-51"
       width="1"
       height="32"
       id="rect84"
       style="fill:#000000;opacity:0.65" />
  </g>
  <g
     id="shadow-topleft"
     transform="translate(58,-904.36)">
    <path
       transform="translate(-58,904.36)"
       d="m 57,-8 v 20 c 4.6667,6e-6 9.3333,9e-6 14,0 v -1 c 0,-2.77 2.23,-5 5,-5 h 1 V -8 Z"
       fill="url(#radialGradient1805)"
       fill-rule="evenodd"
       opacity="0.15"
       id="path87"
       style="fill:url(#radialGradient1805)" />
    <rect
       transform="scale(-1,1)"
       x="-19"
       y="910.35999"
       width="6"
       height="6"
       ry="0.99997997"
       fill="none"
       id="rect89" />
    <rect
       transform="scale(-1,1)"
       x="-19"
       y="910.35999"
       width="2"
       height="6"
       ry="0"
       fill="none"
       id="rect91" />
    <rect
       transform="scale(-1,1)"
       x="-18"
       y="914.35999"
       width="5"
       height="2"
       fill="none"
       id="rect93" />
    <path
       transform="translate(-58,904.36)"
       d="m 76,5 c -3.324,0 -6,2.676 -6,6 v 1 h 1 v -1 c 0,-2.77 2.23,-5 5,-5 h 1 V 5 Z"
       id="path95"
       style="fill:#000000;opacity:0.65" />
  </g>
  <g
     id="shadow-bottom"
     transform="translate(58,-904.36)">
    <rect
       transform="rotate(90)"
       x="948.35999"
       y="-51"
       width="6"
       height="32"
       fill="none"
       id="rect98" />
    <rect
       transform="rotate(90)"
       x="954.35999"
       y="-51"
       width="14"
       height="32"
       fill="url(#linearGradient4934)"
       opacity="0.15"
       id="rect100"
       style="fill:url(#linearGradient4934)" />
    <rect
       transform="rotate(90)"
       x="953.35999"
       y="-51"
       width="1"
       height="32"
       fill="none"
       id="rect102" />
    <rect
       transform="rotate(90)"
       x="954.35999"
       y="-51"
       width="1"
       height="32"
       id="rect104"
       style="fill:#000000;opacity:0.65" />
  </g>
  <g
     id="shadow-left"
     transform="translate(58,-904.36)">
    <rect
       transform="scale(-1,1)"
       x="-19"
       y="916.35999"
       width="6"
       height="32"
       fill="none"
       id="rect107" />
    <rect
       transform="scale(-1,1)"
       x="-13"
       y="916.35999"
       width="14"
       height="32"
       fill="url(#linearGradient4948)"
       opacity="0.15"
       id="rect109"
       style="fill:url(#linearGradient4948)" />
    <rect
       transform="scale(-1,1)"
       x="-14"
       y="916.35999"
       width="1"
       height="32"
       fill="none"
       id="rect111" />
    <rect
       transform="scale(-1,1)"
       x="-13"
       y="916.35999"
       width="1"
       height="32"
       id="rect113"
       style="fill:#000000;opacity:0.65" />
  </g>
  <g
     id="shadow-right"
     transform="translate(58,-904.36)">
    <rect
       x="51"
       y="916.35999"
       width="6"
       height="32"
       fill="none"
       id="rect116" />
    <rect
       x="57"
       y="916.35999"
       width="14"
       height="32"
       fill="url(#linearGradient4950)"
       opacity="0.15"
       id="rect118"
       style="fill:url(#linearGradient4950)" />
    <rect
       x="56"
       y="916.35999"
       width="1"
       height="32"
       fill="none"
       id="rect120" />
    <rect
       x="57"
       y="916.35999"
       width="1"
       height="32"
       id="rect122"
       style="fill:#000000;opacity:0.65" />
  </g>
  <g
     id="shadow-center"
     transform="translate(58,-904.36)"
     fill="none">
    <rect
       x="19"
       y="916.35999"
       width="32"
       height="32"
       id="rect125" />
    <rect
       x="19"
       y="916.35999"
       width="32"
       height="32"
       id="rect127" />
  </g>
  <rect
     id="shadow-hint-top-inset"
     x="91"
     y="-8.0000143"
     width="4"
     height="14"
     fill="#ff00ff" />
  <rect
     id="shadow-hint-bottom-inset"
     x="91"
     y="49.999985"
     width="4"
     height="14"
     fill="#ff00ff" />
  <rect
     id="shadow-hint-right-inset"
     transform="rotate(90)"
     x="25.999985"
     y="-129"
     width="4"
     height="14"
     fill="#ff00ff" />
  <rect
     id="shadow-hint-left-inset"
     transform="rotate(90)"
     x="25.999985"
     y="-71"
     width="4"
     height="14"
     fill="#ff00ff" />
  <rect
     id="shadow-hint-top-margin"
     x="86"
     y="-8"
     width="3.9999998"
     height="14"
     fill="#ff00ff"
     style="fill:#00ff00;stroke-width:1.52753" />
  <rect
     id="shadow-hint-bottom-margin"
     x="96"
     y="50"
     width="3.9999998"
     height="14"
     fill="#ff00ff"
     style="fill:#00ff00;stroke-width:1.52752" />
  <rect
     id="shadow-hint-right-margin"
     transform="rotate(90)"
     x="21"
     y="-129"
     width="3.9999769"
     height="14"
     fill="#ff00ff"
     style="fill:#00ff00;stroke-width:1.52753" />
  <rect
     id="shadow-hint-left-margin"
     transform="rotate(90)"
     x="31"
     y="-71"
     width="4.0000229"
     height="14"
     fill="#ff00ff"
     style="fill:#00ff00;stroke-width:1.52753" />
  <use
     id="shadow-topright"
     transform="rotate(90,93,28)"
     width="100%"
     height="100%"
     xlink:href="#shadow-topleft"
     x="0"
     y="0" />
  <use
     id="shadow-bottomleft"
     transform="rotate(-90,93,28)"
     width="100%"
     height="100%"
     xlink:href="#shadow-topleft"
     x="0"
     y="0" />
  <use
     id="shadow-bottomright"
     transform="rotate(180,93,28)"
     width="100%"
     height="100%"
     xlink:href="#shadow-topleft"
     x="0"
     y="0" />
  <rect
     id="hint-bottom-margin"
     x="34"
     y="44"
     height="6"
     fill="#800080"
     width="4"
     style="stroke-width:1" />
  <rect
     id="hint-left-margin"
     transform="rotate(90)"
     x="28"
     y="-19"
     width="4"
     height="6"
     fill="#800080"
     style="stroke-width:1" />
  <rect
     id="hint-top-margin"
     x="30"
     y="6"
     width="4"
     height="6"
     fill="#800080"
     style="stroke-width:1" />
  <rect
     id="hint-right-margin"
     transform="rotate(90)"
     x="24"
     y="-57"
     width="4"
     height="6"
     fill="#800080"
     style="stroke-width:1" />
  <rect
     style="color:#eff0f1;fill:currentColor;fill-opacity:1;stroke:none;stop-color:#eff0f1"
     id="thick-center"
     width="32"
     height="32"
     x="19"
     y="75"
     class="ColorScheme-Background" />
  <rect
     transform="rotate(90)"
     style="fill:#800080;fill-opacity:1;stroke:none;stroke-width:1.1547"
     id="thick-hint-right-margin"
     width="4"
     height="8"
     x="95"
     y="-56" />
  <rect
     transform="rotate(90)"
     y="-20"
     x="95"
     height="8"
     width="4"
     id="thick-hint-left-margin"
     style="fill:#800080;fill-opacity:1;stroke:none;stroke-width:1.1547" />
  <rect
     y="69"
     x="38"
     height="8"
     width="4"
     id="thick-hint-top-margin"
     style="fill:#800080;fill-opacity:1;stroke:none;stroke-width:1.1547" />
  <rect
     style="fill:#800080;fill-opacity:1;stroke:none;stroke-width:1.1547"
     id="thick-hint-bottom-margin"
     width="4"
     height="8"
     x="39"
     y="105" />
</svg>
