<?xml version="1.0" encoding="UTF-8" standalone="no"?>
<svg
   id="svg2"
   version="1.1"
   viewBox="0 0 104 138"
   sodipodi:docname="actionbutton.svg"
   inkscape:version="1.1.2 (0a00cf5339, 2022-02-04, custom)"
   xmlns:inkscape="http://www.inkscape.org/namespaces/inkscape"
   xmlns:sodipodi="http://sodipodi.sourceforge.net/DTD/sodipodi-0.dtd"
   xmlns="http://www.w3.org/2000/svg"
   xmlns:svg="http://www.w3.org/2000/svg">
  <defs
     id="defs70" />
  <sodipodi:namedview
     id="namedview68"
     pagecolor="#ffffff"
     bordercolor="#666666"
     borderopacity="1.0"
     inkscape:pageshadow="2"
     inkscape:pageopacity="0.0"
     inkscape:pagecheckerboard="0"
     showgrid="true"
     inkscape:zoom="8.1686665"
     inkscape:cx="9.4262631"
     inkscape:cy="70.390926"
     inkscape:window-width="1920"
     inkscape:window-height="1008"
     inkscape:window-x="0"
     inkscape:window-y="0"
     inkscape:window-maximized="1"
     inkscape:current-layer="svg2"
     inkscape:snap-bbox="true"
     inkscape:bbox-nodes="true"
     inkscape:snap-nodes="false">
    <inkscape:grid
       type="xygrid"
       id="grid887" />
  </sodipodi:namedview>
  <style
     id="current-color-scheme"
     type="text/css">.ColorScheme-Background {
            color:#eff0f1;
        }
        .ColorScheme-Text {
            color:#232629;
        }
        .ColorScheme-ButtonHover {
            color:#93cee9;
        }
        .ColorScheme-ButtonFocus{
            color:#3daee9;
        }</style>
  <g
     id="22-22-pressed">
    <path
       id="rect835-3-6-5"
       d="m62 46h22v22h-22z"
       fill="none"
       opacity=".02" />
    <rect
       id="rect841-6-0"
       class="ColorScheme-ButtonFocus"
       x="62"
       y="46"
       width="22"
       height="22"
       rx="11"
       fill="currentColor"
       fill-rule="evenodd" />
    <rect
       id="rect841-6-0-3"
       class="ColorScheme-Background"
       x="63"
       y="47"
       width="20"
       height="20"
       rx="10"
       fill="currentColor"
       fill-rule="evenodd" />
  </g>
  <g
     id="22-22-hover">
    <path
       id="rect835-3-6-5-1"
       d="m62 80h22v22h-22z"
       fill="none"
       opacity=".02" />
    <rect
       id="rect841-6-6"
       class="ColorScheme-ButtonHover"
       x="62"
       y="80"
       width="22"
       height="22"
       rx="11"
       fill="currentColor"
       fill-rule="evenodd" />
    <rect
       id="rect841-6-6-5"
       class="ColorScheme-Background"
       x="63"
       y="81"
       width="20"
       height="20"
       rx="10"
       fill="currentColor"
       fill-rule="evenodd" />
  </g>
  <g
     id="22-22-normal">
    <path
       id="rect835-3-6"
       d="m62 12h22v22h-22z"
       fill="none"
       opacity=".02" />
    <rect
       id="rect841-6-6-5-3-3"
       class="ColorScheme-Text"
       x="63"
       y="13"
       width="20"
       height="20"
       rx="10"
       fill="currentColor"
       style="opacity:0.15" />
    <rect
       id="rect1577"
       class="ColorScheme-Background"
       x="64"
       y="14"
       width="18"
       height="18"
       rx="9"
       fill="currentColor"
       fill-rule="evenodd"
       style="stroke-width:0.818182" />
  </g>
  <g
     id="22-22-focus">
    <path
       id="rect835-3-6-5-1-9"
       d="m62 114h22v22h-22z"
       fill="none"
       opacity=".02" />
    <rect
       id="rect841-6-2"
       class="ColorScheme-ButtonFocus"
       x="62"
       y="114"
       width="22"
       height="22"
       rx="11"
       fill="currentColor"
       fill-rule="evenodd" />
    <rect
       id="rect841-6-6-5-5"
       class="ColorScheme-Background"
       x="63"
       y="115"
       width="20"
       height="20"
       rx="10"
       fill="currentColor"
       fill-rule="evenodd" />
  </g>
  <g
     id="24-24-focus">
    <path
       id="rect835-3-3-9-0"
       d="m36 112h24v24h-24z"
       fill="none"
       opacity=".02" />
    <rect
       id="rect841-6-2-9"
       class="ColorScheme-ButtonFocus"
       x="36.000011"
       y="112"
       width="23.999989"
       height="23.999998"
       rx="11.999994"
       fill="currentColor"
       fill-rule="evenodd" />
    <rect
       id="rect841-6-6-5-5-1"
       class="ColorScheme-Background"
       x="37.000011"
       y="113"
       width="21.999981"
       height="22"
       rx="10.99999"
       fill="currentColor"
       fill-rule="evenodd" />
  </g>
  <g
     id="24-24-hover">
    <path
       id="rect835-3-3-9"
       d="m36 78h24v24h-24z"
       fill="none"
       opacity=".02" />
    <rect
       id="rect841-6-6-7"
       class="ColorScheme-ButtonHover"
       x="36"
       y="78"
       width="24"
       height="24"
       rx="12"
       fill="currentColor"
       fill-rule="evenodd" />
    <rect
       id="rect841-6-6-5-0"
       class="ColorScheme-Background"
       x="37"
       y="79"
       width="22"
       height="22"
       rx="11"
       fill="currentColor"
       fill-rule="evenodd" />
  </g>
  <g
     id="24-24-pressed">
    <path
       id="rect835-3-3"
       d="m36 44h24v24h-24z"
       fill="none"
       opacity=".02" />
    <rect
       id="rect841-6-0-9"
       class="ColorScheme-ButtonFocus"
       x="36"
       y="44"
       width="24"
       height="24"
       rx="12"
       fill="currentColor"
       fill-rule="evenodd" />
    <rect
       id="rect841-6-0-3-3"
       class="ColorScheme-Background"
       x="37"
       y="45"
       width="22"
       height="22"
       rx="11"
       fill="currentColor"
       fill-rule="evenodd" />
  </g>
  <g
     id="24-24-normal">
    <rect
       id="rect1246"
       class="ColorScheme-Text"
       x="37"
       y="11"
       width="22"
       height="22"
       rx="11"
       fill="currentColor"
       style="opacity:0.15" />
    <path
       id="rect835-3"
       d="m36 10h24v24h-24z"
       fill="none"
       opacity=".02" />
    <rect
       id="rect841-6-6-5-3-3-6"
       class="ColorScheme-Background"
       x="38"
       y="12"
       width="20"
       height="20"
       rx="10"
       fill="currentColor" />
  </g>
  <g
     id="normal">
    <path
       id="rect841-6-26-7"
       class="ColorScheme-Text"
       d="M 18 3 C 9.69 3 3 9.69 3 18 C 3 26.31 9.69 33 18 33 C 26.31 33 33 26.31 33 18 C 33 9.69 26.31 3 18 3 z M 18 4 C 25.756 4 32 10.244 32 18 C 32 25.756 25.756 32 18 32 C 10.244 32 4 25.756 4 18 C 4 10.244 10.244 4 18 4 z "
       fill="currentColor"
       style="opacity:0.15" />
    <path
       id="rect835"
       d="m2 2h32v32h-32z"
       fill="none"
       opacity=".02" />
    <rect
       id="rect841-6-6-5-3-3-6-8"
       class="ColorScheme-Background"
       x="4"
       y="4"
       width="28"
       height="28"
       rx="14"
       fill="currentColor"
       ry="14" />
  </g>
  <g
     id="pressed">
    <path
       id="rect835-5"
       d="m2 36h32v32h-32z"
       fill="none"
       opacity=".02" />
    <rect
       id="rect841-6-0-9-0"
       class="ColorScheme-ButtonFocus"
       x="2"
       y="36"
       width="32"
       height="32"
       rx="16"
       fill="currentColor" />
    <rect
       id="rect841-6-0-3-3-2"
       class="ColorScheme-Background"
       x="3"
       y="37"
       width="30"
       height="30"
       rx="15"
       fill="currentColor" />
  </g>
  <g
     id="hover">
    <path
       id="rect835-5-2"
       d="m2 70h32v32h-32z"
       fill="none"
       opacity=".02" />
    <rect
       id="rect841-6-6-7-3"
       class="ColorScheme-ButtonHover"
       x="2"
       y="70"
       width="32"
       height="32"
       rx="16"
       fill="currentColor" />
    <rect
       id="rect841-6-6-5-0-7"
       class="ColorScheme-Background"
       x="3.0000029"
       y="71"
       width="30"
       height="30"
       rx="15"
       fill="currentColor" />
  </g>
  <g
     id="focus">
    <path
       id="rect835-5-2-7"
       d="m2 104h32v32h-32z"
       fill="none"
       opacity=".02" />
    <rect
       id="rect841-6-6-7-3-8"
       class="ColorScheme-ButtonFocus"
       x="2"
       y="104"
       width="32"
       height="32"
       rx="16"
       fill="currentColor" />
    <rect
       id="rect841-6-6-5-0-7-9"
       class="ColorScheme-Background"
       x="3"
       y="105"
       width="30"
       height="30"
       rx="15"
       fill="currentColor" />
  </g>
  <g
     id="16-16-pressed"
     transform="translate(24 6)">
    <path
       id="rect835-3-6-5-3"
       d="m62 46h16v16h-16z"
       fill="none"
       opacity=".02" />
    <rect
       id="rect841-6-0-6"
       class="ColorScheme-ButtonFocus"
       x="62"
       y="46"
       width="16"
       height="16"
       rx="14"
       fill="currentColor"
       fill-rule="evenodd" />
    <rect
       id="rect841-6-0-3-1"
       class="ColorScheme-Background"
       x="63"
       y="47"
       width="14"
       height="14"
       rx="14"
       fill="currentColor"
       fill-rule="evenodd" />
  </g>
  <g
     id="16-16-hover"
     transform="translate(24 6)">
    <path
       id="rect835-3-6-5-1-93"
       d="m62 80h16v16h-16z"
       fill="none"
       opacity=".02" />
    <rect
       id="rect841-6-6-9"
       class="ColorScheme-ButtonHover"
       x="62"
       y="80"
       width="16"
       height="16"
       rx="14"
       fill="currentColor"
       fill-rule="evenodd" />
    <rect
       id="rect841-6-6-5-4"
       class="ColorScheme-Background"
       x="63"
       y="81"
       width="14"
       height="14"
       rx="14"
       fill="currentColor"
       fill-rule="evenodd" />
  </g>
  <g
     id="16-16-normal"
     transform="translate(24 6)">
    <path
       id="rect835-3-6-8"
       d="m62 12h16v16h-16z"
       fill="none"
       opacity=".02" />
    <rect
       id="rect841-6-6-5-3-3-5"
       class="ColorScheme-Text"
       x="63"
       y="13"
       width="14"
       height="14"
       rx="7"
       fill="currentColor"
       ry="7"
       style="opacity:0.15" />
    <rect
       id="rect1678"
       class="ColorScheme-Background"
       x="64"
       y="14"
       width="12"
       height="12"
       rx="6"
       fill="currentColor"
       ry="6" />
  </g>
  <g
     id="16-16-focus"
     transform="translate(24 6)">
    <path
       id="rect835-3-6-5-1-9-0"
       d="m62 114h16v16h-16z"
       fill="none"
       opacity=".02" />
    <rect
       id="rect841-6-2-3"
       class="ColorScheme-ButtonFocus"
       x="62"
       y="114"
       width="16"
       height="16"
       rx="14"
       fill="currentColor"
       fill-rule="evenodd" />
    <rect
       id="rect841-6-6-5-5-2"
       class="ColorScheme-Background"
       x="63"
       y="115"
       width="14"
       height="14"
       rx="14"
       fill="currentColor"
       fill-rule="evenodd" />
  </g>
</svg>
