<?xml version="1.0" encoding="UTF-8" standalone="no"?>
<svg
   width="200"
   height="200"
   version="1.0"
   id="svg117"
   sodipodi:docname="clock.svg"
   inkscape:version="1.1.2 (0a00cf5339, 2022-02-04, custom)"
   xmlns:inkscape="http://www.inkscape.org/namespaces/inkscape"
   xmlns:sodipodi="http://sodipodi.sourceforge.net/DTD/sodipodi-0.dtd"
   xmlns="http://www.w3.org/2000/svg"
   xmlns:svg="http://www.w3.org/2000/svg">
  <sodipodi:namedview
     id="namedview119"
     pagecolor="#ffffff"
     bordercolor="#666666"
     borderopacity="1.0"
     inkscape:pageshadow="2"
     inkscape:pageopacity="0.0"
     inkscape:pagecheckerboard="0"
     showgrid="true"
     inkscape:zoom="2.2627417"
     inkscape:cx="105.62408"
     inkscape:cy="32.703689"
     inkscape:window-width="1920"
     inkscape:window-height="1008"
     inkscape:window-x="0"
     inkscape:window-y="0"
     inkscape:window-maximized="1"
     inkscape:current-layer="svg117">
    <inkscape:grid
       type="xygrid"
       id="grid967" />
  </sodipodi:namedview>
  <defs
     id="defs12">
    <radialGradient
       id="radialGradient4671"
       cx="1255.9"
       cy="382.73"
       r="96.606"
       gradientTransform="matrix(1.0765 0 0 1.0765 -1252 -310.02)"
       gradientUnits="userSpaceOnUse">
      <stop
         stop-color="#232629"
         offset="0"
         id="stop2" />
      <stop
         stop-color="#232629"
         stop-opacity=".52349"
         offset=".9"
         id="stop4" />
      <stop
         stop-color="#232629"
         stop-opacity=".10738"
         offset=".96"
         id="stop6" />
      <stop
         stop-color="#232629"
         stop-opacity="0"
         offset="1"
         id="stop8" />
    </radialGradient>
    <style
       type="text/css"
       id="current-color-scheme">
      .ColorScheme-Text {
        color:#31363b;
        stop-color:#31363b;
      }
      .ColorScheme-Background {
        color:#eff0f1;
        stop-color:#eff0f1;
      }
      .ColorScheme-Highlight {
        color:#3daee9;
        stop-color:#3daee9;
      }
      .ColorScheme-ViewText {
        color:#31363b;
        stop-color:#31363b;
      }
      .ColorScheme-ViewBackground {
        color:#fcfcfc;
        stop-color:#fcfcfc;
      }
      .ColorScheme-ViewHover {
        color:#93cee9;
        stop-color:#93cee9;
      }
      .ColorScheme-ViewFocus{
        color:#3daee9;
        stop-color:#3daee9;
      }
      .ColorScheme-ButtonText {
        color:#31363b;
        stop-color:#31363b;
      }
      .ColorScheme-ButtonBackground {
        color:#eff0f1;
        stop-color:#eff0f1;
      }
      .ColorScheme-ButtonHover {
        color:#93cee9;
        stop-color:#93cee9;
      }
      .ColorScheme-ButtonFocus{
        color:#3daee9;
        stop-color:#3daee9;
      }
      </style>
  </defs>
  <g
     id="SecondHandShadow"
     transform="rotate(120.04 801.4 159.96)"
     fill="#232629"
     opacity="0">
    <path
       transform="rotate(-30)"
       d="m591.81 1011.2h75.736v1.7321h-75.736z"
       id="path14" />
    <circle
       transform="matrix(.29783 0 0 .29783 489.81 467.45)"
       cx="1771.4"
       cy="382.03"
       r="6.4995"
       fill-opacity=".0039216"
       id="circle16" />
    <rect
       transform="rotate(239.96 705.5 80.642)"
       x="113"
       y="97"
       width="6"
       height="82"
       fill-opacity=".60392"
       opacity=".01"
       id="rect18" />
  </g>
  <g
     id="MinuteHandShadow"
     transform="rotate(120.22 772.98 144.54)"
     fill="#232629"
     opacity="0">
    <path
       d="m1016.7 579.91 66.473-38.689 1.509 2.5928-66.473 38.689z"
       id="path21" />
    <circle
       transform="matrix(.62496 0 0 .62496 -89.662 342.48)"
       cx="1771.4"
       cy="382.03"
       r="6.4995"
       fill-opacity=".0039216"
       id="circle23" />
  </g>
  <g
     id="HourHandShadow"
     transform="rotate(233.13 522.57 550.63)"
     fill="#232629"
     opacity="0">
    <rect
       transform="rotate(126.87 409.43 584.47)"
       x="33"
       y="91"
       width="18"
       height="64"
       fill-opacity=".60392"
       opacity=".01"
       id="rect26" />
    <path
       d="m980.52 549.89-5.9548-0.74154 2.5212 5.5089 0.0361-0.0506 34.481 25.905 3.4218-4.6985-34.481-25.905z"
       id="path28" />
    <circle
       transform="translate(-753.93 199.18)"
       cx="1771.4"
       cy="382.03"
       r="6.4995"
       id="circle30" />
  </g>
  <g
     id="ClockFace">
    <rect
       x="-7"
       y="-7"
       width="214"
       height="214"
       fill="#717171"
       opacity=".005"
       id="rect33" />
    <circle
       cx="100"
       cy="102"
       r="104"
       fill="url(#radialGradient4671)"
       opacity=".35"
       id="circle35" />
    <circle
       cx="100"
       cy="100"
       r="96"
       id="circle37"
       fill="currentColor"
       class="ColorScheme-ViewBackground"
       style="opacity:0.97" />
    <path
       d="m100 67.999c-17.673 0-32 14.327-32 32 0 17.673 14.327 32 32 32 17.673 0 32-14.327 32-32 0-17.673-14.327-32-32-32zm0 2.3271c7.8696 0 15.417 3.1266 20.982 8.6913 5.5647 5.5647 8.6913 13.112 8.6913 20.982 0 7.8696-3.1266 15.417-8.6913 20.982-5.5647 5.5647-13.112 8.6913-20.982 8.6913-7.8696 0-15.417-3.1266-20.982-8.6913-5.5647-5.5647-8.6913-13.112-8.6913-20.982 0-7.8696 3.1266-15.417 8.6913-20.982s13.112-8.6913 20.982-8.6913z"
       id="path39"
       class="ColorScheme-Text"
       fill="currentColor"
       style="opacity:0.15" />
    <g
       transform="matrix(.47059 0 0 .47059 -351.76 -154.12)"
       fill="#000000"
       opacity=".075"
       style="isolation:isolate"
       id="g43">
      <path
         d="m106.4 84.873-4.5371 8.375 10.938 19.551h11.055l-17.455-27.926z"
         id="path41"
         class="ColorScheme-Text"
         fill="currentColor"
         transform="matrix(2.125 0 0 2.125 747.5 327.5)"
         style="opacity:1" />
    </g>
    <path
       d="m112.8 112.8h-36.655l17.455-34.327z"
       id="path45"
       class="ColorScheme-Text"
       fill="currentColor"
       style="opacity:0.15" />
    <path
       d="M 100,3 C 46.375811,3 2.8945313,46.48128 2.8945313,100.10547 c 0,53.62419 43.4812797,97.10742 97.1054687,97.10742 53.62419,0 97.10547,-43.48323 97.10547,-97.10742 C 197.10547,46.48128 153.62419,3 100,3 Z m 0,1 c 53.08375,0 96.10547,43.02172 96.10547,96.10547 0,53.08375 -43.02172,96.10742 -96.10547,96.10742 -53.083749,0 -96.1054687,-43.02367 -96.1054687,-96.10742 C 3.8945313,47.02172 46.916251,4 100,4 Z"
       id="circle47"
       class="ColorScheme-Text"
       fill="currentColor"
       style="opacity:0.15" />
    <path
       d="m151.67 41.846c-0.74129 0-1.3438 0.5324-1.3438 1.1875s0.60247 1.1875 1.3438 1.1875h27.17a96.606 96.606 0 0 0-1.7188-2.375zm12.926 4.6758c-0.63388 0-1.1484 0.51456-1.1484 1.1484v0.07813c0 0.63388 0.51456 1.1484 1.1484 1.1484h17.354a96.606 96.606 0 0 0-1.5039-2.375zm-14.598 7.291c-0.0953 0-0.18792 0.01308-0.27734 0.03125-3.3166 0.30623-5.918 3.0965-5.918 6.4922 0 1.5752 0.56133 3.0226 1.4922 4.1504h-16.912c-0.67127 0-1.2148 0.53045-1.2148 1.1855 0 0.6551 0.54358 1.1875 1.2148 1.1875h43.018c2.2584 0.03785 4.0801 1.8831 4.0801 4.1504 0 2.291-1.8594 4.1504-4.1504 4.1504v0.10742h-16.186c-0.57686 0-1.0449 0.46833-1.0449 1.0449v0.2832c0 0.57659 0.46806 1.0449 1.0449 1.0449h30.82c0.24017 0 0.45822-0.08436 0.63476-0.2207 3.027-0.5647 5.3223-3.2205 5.3223-6.4102 0-0.30389-0.0437-0.59578-0.084-0.88867a96.606 96.606 0 0 0-0.73828-2.2344c-1.007-1.8315-2.8486-3.1405-5.0254-3.3652-0.091-0.02123-0.18365-0.03516-0.28125-0.03516h-21.469c-2.258-0.03854-4.0801-1.8835-4.0801-4.1504s1.822-4.1099 4.0801-4.1484h21.742a96.606 96.606 0 0 0-1.2363-2.375zm0.25781 2.375h2.0742l-2e-3 2e-3c-0.93086 1.1278-1.4902 2.5714-1.4902 4.1465 0 1.5752 0.56134 3.0226 1.4922 4.1504h-2.0742c-2.2586-0.03785-4.0801-1.8831-4.0801-4.1504 0-2.2673 1.8214-4.1106 4.0801-4.1484zm7.0352 0h2.0742l-2e-3 2e-3c-0.93085 1.1278-1.4902 2.5714-1.4902 4.1465 0 1.5752 0.56133 3.0226 1.4922 4.1504h-2.0742c-2.2586-0.03785-4.082-1.8831-4.082-4.1504 0-2.2673 1.8234-4.1106 4.082-4.1484zm19.068 10.672h2.0762c2.2578 0.03853 4.0801 1.8835 4.0801 4.1504 0 2.291-1.8614 4.1504-4.1524 4.1504v0.10742h-2.0976c0.98702-1.1432 1.5859-2.6305 1.5859-4.2578 0-1.5751-0.5613-3.0226-1.4922-4.1504zm7.0352 0h2.0742c2.2584 0.03785 4.0801 1.8831 4.0801 4.1504 0 2.291-1.8594 4.1504-4.1504 4.1504v0.10742h-2.0977c0.98703-1.1432 1.5859-2.6305 1.5859-4.2578 0-1.5751-0.5613-3.0226-1.4922-4.1504zm-172.66 52.953c-0.5948 0-1.0781 0.47427-1.0781 1.0586 0 0.58431 0.48332 1.0586 1.0781 1.0586h17.424c2.043 0 3.7012 1.6582 3.7012 3.7012 0 2.0216-1.6247 3.6655-3.6387 3.6992h-19.191c-0.090701 0-0.17786 0.0151-0.26172 0.0371-0.20967 0.0238-0.40706 0.0814-0.60938 0.12695a96.606 96.606 0 0 0 0.74805 2.0059c0.15258-0.0219 0.30297-0.052 0.46094-0.0547h1.8516l-2e-3 2e-3c-0.66502 0.8057-1.1039 1.7962-1.2578 2.8789a96.606 96.606 0 0 0 2.6719 6.7324h35.594v0.0469c2.0427 0 3.7012 1.6585 3.7012 3.7012s-1.6585 3.7012-3.7012 3.7012v0.0703h-13.018c-0.01205 0-0.02318 2e-3 -0.03516 2e-3 -3.1611 0.0566-5.7109 2.6397-5.7109 5.8144 0 2.8974 2.1243 5.3032 4.8984 5.7441 0.10596 0.0461 0.22286 0.0723 0.3457 0.0723h19.395c1.9989 0.0507 3.6055 1.6884 3.6055 3.6992 0 2.043-1.6582 3.7012-3.7012 3.7012v0.0937h-8.0117c-0.45333 0-0.82031 0.36864-0.82031 0.82226v0.47461c0 0.45361 0.36698 0.82227 0.82031 0.82227h21.17c0.21124 0 0.40129-0.0835 0.54688-0.21484 2.6551-0.53824 4.6562-2.8862 4.6562-5.6992 0-2.9021-2.1331-5.3109-4.9141-5.7461-0.10335-0.0435-0.21688-0.0684-0.33594-0.0684h-0.49219c-0.02484-3.1e-4 -0.0493-2e-3 -0.07422-2e-3v2e-3h-6.1973c-0.02484-3.1e-4 -0.0493-2e-3 -0.07422-2e-3v2e-3h-6.1992c-0.02484-3.1e-4 -0.0493-2e-3 -0.07422-2e-3v2e-3h-6.1816c-2.0427 0-3.7012-1.6585-3.7012-3.7012 0-2.0219 1.625-3.6655 3.6387-3.6992h37.27c0.75669 0 1.3711-0.47427 1.3711-1.0586 0-0.58431-0.61441-1.0586-1.3711-1.0586h-32.379c0.86673-1.0158 1.3906-2.3329 1.3906-3.7715 0-2.7609-1.9282-5.0743-4.5098-5.668-0.18257-0.12406-0.40512-0.19726-0.64648-0.19726h-26.908v-0.0937c-2.0427 0-3.7012-1.6602-3.7012-3.7031 0-2.0212 1.6237-3.6648 3.6367-3.6992h33.543c0.5707 0 1.0352-0.46277 1.0352-1.0332v-0.0488c0-0.57042-0.46445-1.0332-1.0352-1.0332h-10.268l2e-3 -2e-3c0.82998-1.0055 1.3301-2.2929 1.3301-3.6973 0-2.9988-2.2751-5.4707-5.1914-5.7832-0.08424-0.0208-0.17094-0.0352-0.26172-0.0352zm21.908 2.1172h1.7871c2.043 0 3.7012 1.6582 3.7012 3.7012 0 2.0212-1.6234 3.6648-3.6367 3.6992h-1.8516l2e-3 -2e-3c0.82998-1.0055 1.3301-2.2929 1.3301-3.6973 0-1.4045-0.50205-2.6956-1.332-3.7012zm6.2734 0h1.7871c2.043 0 3.7012 1.6582 3.7012 3.7012 0 2.0216-1.6247 3.6655-3.6387 3.6992h-1.8496l2e-3 -2e-3c0.82998-1.0055 1.3281-2.2929 1.3281-3.6973 0-1.4045-0.5001-2.6956-1.3301-3.7012zm-23.275 9.5156h1.8496l-2e-3 2e-3c-0.82998 1.0056-1.3281 2.2929-1.3281 3.6973 0 1.4511 0.53396 2.7776 1.4141 3.7969h-1.8711v-0.0937c-2.0427 0-3.7012-1.6602-3.7012-3.7031 0-2.0216 1.625-3.6655 3.6387-3.6992zm19.566 19.25c0.0026-5e-5 0.0052 5e-5 0.0078 0h1.8477c-0.82998 1.0055-1.3281 2.2948-1.3281 3.6992 0 1.4043 0.5001 2.6956 1.3301 3.7012h-1.7871c-2.0427 0-3.7012-1.6585-3.7012-3.7012 0-2.0193 1.6208-3.6614 3.6309-3.6992zm6.2793 0h1.8477c-0.82998 1.0055-1.3281 2.2948-1.3281 3.6992 0 1.4043 0.5001 2.6956 1.3301 3.7012h-1.7852c-2.0427 0-3.7012-1.6585-3.7012-3.7012 0-2.0215 1.6237-3.6648 3.6367-3.6992zm17.006 9.5156h1.8789c1.9994 0.0502 3.6074 1.6881 3.6074 3.6992 0 2.043-1.6582 3.7012-3.7012 3.7012v0.0937h-1.8691c0.87903-1.019 1.4121-2.3448 1.4121-3.7949 0-1.4043-0.49814-2.6937-1.3281-3.6992zm6.2715 0h1.8809c1.9989 0.0507 3.6055 1.6884 3.6055 3.6992 0 2.043-1.6582 3.7012-3.7012 3.7012v0.0937h-1.8672c0.87876-1.019 1.4121-2.345 1.4121-3.7949 0-1.4043-0.5001-2.6937-1.3301-3.6992z"
       id="path49"
       class="ColorScheme-Text"
       fill="currentColor"
       style="opacity:0.1" />
    <g
       transform="translate(-.99942 -.00050354)"
       fill="#000000"
       stroke-linecap="round"
       stroke-linejoin="round"
       stroke-width="5.3537"
       id="g55">
      <path
         id="rect51"
         d="M 100 10 C 99.446 10 99 10.446 99 11 L 99 25 C 99 25.554 99.446 26 100 26 C 100.554 26 101 25.554 101 25 L 101 11 C 101 10.446 100.554 10 100 10 z M 55.472656 21.923828 C 55.311529 21.92818 55.149931 21.972031 55 22.058594 C 54.520222 22.335594 54.355813 22.94405 54.632812 23.423828 L 58.632812 30.351562 C 58.909813 30.831341 59.520222 30.99575 60 30.71875 C 60.479778 30.44175 60.642234 29.831341 60.365234 29.351562 L 56.365234 22.423828 C 56.174797 22.093981 55.827136 21.914253 55.472656 21.923828 z M 144.52734 21.923828 C 144.17286 21.914253 143.8252 22.093981 143.63477 22.423828 L 139.63477 29.351562 C 139.35777 29.831341 139.52218 30.44175 140.00195 30.71875 C 140.48173 30.99575 141.09019 30.831341 141.36719 30.351562 L 145.36719 23.423828 C 145.64419 22.94405 145.48173 22.335594 145.00195 22.058594 C 144.85202 21.972031 144.68847 21.92818 144.52734 21.923828 z M 22.949219 54.5 C 22.594739 54.490425 22.247078 54.670153 22.056641 55 C 21.779641 55.479778 21.94405 56.090187 22.423828 56.367188 L 29.351562 60.367188 C 29.831341 60.644188 30.439797 60.479778 30.716797 60 C 30.993797 59.520222 30.831341 58.911766 30.351562 58.634766 L 23.423828 54.634766 C 23.273897 54.548203 23.110346 54.504352 22.949219 54.5 z M 177.05078 54.5 C 176.88965 54.504352 176.72806 54.548203 176.57812 54.634766 L 169.64844 58.634766 C 169.16866 58.911766 169.0062 59.520222 169.2832 60 C 169.5602 60.479778 170.16866 60.644188 170.64844 60.367188 L 177.57812 56.367188 C 178.0579 56.090187 178.22036 55.479778 177.94336 55 C 177.75292 54.670153 177.40526 54.490425 177.05078 54.5 z M 11 99 C 10.446 99 10 99.446 10 100 C 10 100.554 10.446 101 11 101 L 25 101 C 25.554 101 26 100.554 26 100 C 26 99.446 25.554 99 25 99 L 11 99 z M 175 99 C 174.446 99 174 99.446 174 100 C 174 100.554 174.446 101 175 101 L 189 101 C 189.554 101 190 100.554 190 100 C 190 99.446 189.554 99 189 99 L 175 99 z M 29.826172 139.5 C 29.665045 139.50435 29.501493 139.5482 29.351562 139.63477 L 22.423828 143.63477 C 21.94405 143.91177 21.781594 144.52022 22.058594 145 C 22.335594 145.47978 22.94405 145.64419 23.423828 145.36719 L 30.351562 141.36719 C 30.831341 141.09019 30.99575 140.47978 30.71875 140 C 30.528312 139.67015 30.180652 139.49043 29.826172 139.5 z M 170.17383 139.5 C 169.81935 139.49043 169.47169 139.67211 169.28125 140.00195 C 169.00425 140.48173 169.16866 141.09019 169.64844 141.36719 L 176.57617 145.36719 C 177.05595 145.64419 177.66441 145.48173 177.94141 145.00195 C 178.21841 144.52218 178.05595 143.91177 177.57617 143.63477 L 170.64844 139.63477 C 170.49851 139.5482 170.33496 139.50435 170.17383 139.5 z M 59.527344 169.14844 C 59.172864 169.13886 58.825203 169.31859 58.634766 169.64844 L 54.634766 176.57617 C 54.357766 177.05595 54.520222 177.66636 55 177.94336 C 55.479778 178.22036 56.090187 178.05595 56.367188 177.57617 L 60.367188 170.64844 C 60.644187 170.16866 60.479778 169.5602 60 169.2832 C 59.850069 169.19664 59.688471 169.15279 59.527344 169.14844 z M 140.47266 169.14844 C 140.31153 169.15279 140.14993 169.19664 140 169.2832 C 139.52022 169.5602 139.35581 170.16866 139.63281 170.64844 L 143.63281 177.57812 C 143.90981 178.0579 144.52022 178.22036 145 177.94336 C 145.47978 177.66636 145.64223 177.0579 145.36523 176.57812 L 141.36523 169.64844 C 141.1748 169.31859 140.82714 169.13886 140.47266 169.14844 z M 100 174 C 99.446 174 99 174.446 99 175 L 99 189 C 99 189.554 99.446 190 100 190 C 100.554 190 101 189.554 101 189 L 101 175 C 101 174.446 100.554 174 100 174 z "
         transform="translate(0.99942,5.0354e-4)"
         class="ColorScheme-Text"
         style="opacity:0.35"
         fill="currentColor" />
    </g>
    <g
       transform="rotate(90 100.5 99.5)"
       fill="#000000"
       stroke-linecap="round"
       stroke-linejoin="round"
       stroke-width="5.3537"
       id="g61" />
    <g
       transform="rotate(30 100 100)"
       fill="#000000"
       stroke-linecap="round"
       stroke-linejoin="round"
       stroke-width="4.2325"
       id="g67" />
    <g
       transform="rotate(60 100 100)"
       fill="#000000"
       stroke-linecap="round"
       stroke-linejoin="round"
       stroke-width="4.2325"
       id="g73" />
    <g
       transform="rotate(120 100 100)"
       fill="#000000"
       stroke-linecap="round"
       stroke-linejoin="round"
       stroke-width="4.2325"
       id="g79" />
    <g
       transform="rotate(150 100 100)"
       fill="#000000"
       stroke-linecap="round"
       stroke-linejoin="round"
       stroke-width="4.2325"
       id="g85" />
  </g>
  <g
     id="HourHand"
     transform="translate(220.84 -64.243)"
     stroke-linecap="square">
    <rect
       x="70"
       y="91"
       width="18"
       height="64"
       rx="0"
       ry="0"
       fill="none"
       stroke-width="2.9248"
       id="rect88" />
    <path
       id="path90"
       d="M 299.83984 29.757812 A 6 6 0 0 0 293.83984 35.757812 A 6 6 0 0 0 296.9043 40.972656 L 297.83984 87.757812 C 297.86204 88.865592 298.73184 89.757812 299.83984 89.757812 C 300.94784 89.757812 301.81764 88.865612 301.83984 87.757812 L 302.77539 40.972656 A 6 6 0 0 0 305.83984 35.757812 A 6 6 0 0 0 299.83984 29.757812 z "
       transform="translate(-220.84,64.243)"
       fill="currentColor"
       class="ColorScheme-Text"
       style="opacity:0.75" />
    <circle
       cx="79"
       cy="100"
       r="4"
       id="circle94"
       class="ColorScheme-Highlight"
       fill="currentColor" />
    <circle
       cx="79"
       cy="100"
       r="2"
       fill="#f9f9f9"
       id="circle96" />
  </g>
  <g
     id="SecondHand"
     transform="translate(173.84 -64.243)"
     stroke-linecap="square">
    <rect
       x="96"
       y="96"
       width="8"
       height="81"
       rx="0"
       ry="0"
       fill="none"
       stroke-width="3.6"
       id="rect99" />
    <path
       class="ColorScheme-Highlight"
       transform="translate(-173.84 64.243)"
       d="m273.84 31.756a4 4 0 0 0-4 4 4 4 0 0 0 2.0352 3.4727l0.96485 67.527c0.00791 0.55394 0.446 1 1 1s0.992-0.44606 1-1l0.96484-67.525a4 4 0 0 0 2.0352-3.4746 4 4 0 0 0-4-4z"
       fill="currentColor"
       id="path101" />
    <circle
       cx="100"
       cy="100"
       r="2"
       fill="#f9f9f9"
       id="circle103" />
  </g>
  <g
     id="MinuteHand"
     transform="translate(88.842 -64.243)"
     stroke-linecap="square">
    <rect
       x="149"
       y="94"
       width="12"
       height="85"
       rx="0"
       ry="0"
       fill="none"
       stroke-width="2.7521"
       id="rect106" />
    <path
       id="path108"
       d="M 243.8418 29.757812 A 6 6 0 0 0 237.8418 35.757812 A 6 6 0 0 0 240.88867 40.962891 L 241.8418 105.75781 C 241.8581 106.86565 242.73384 107.75586 243.8418 107.75586 C 244.94976 107.75586 245.8255 106.86561 245.8418 105.75781 L 246.79492 40.962891 A 6 6 0 0 0 249.8418 35.757812 A 6 6 0 0 0 243.8418 29.757812 z "
       transform="translate(-88.842,64.243)"
       fill="currentColor"
       class="ColorScheme-Text" />
    <circle
       cx="155"
       cy="100"
       r="4"
       id="circle112"
       class="ColorScheme-Highlight"
       fill="currentColor" />
    <circle
       cx="155"
       cy="100"
       r="2"
       fill="#f9f9f9"
       id="circle114" />
  </g>
</svg>
