<?xml version="1.0" encoding="UTF-8" standalone="no"?>
<!-- Created with Inkscape (http://www.inkscape.org/) -->

<svg
   xmlns:dc="http://purl.org/dc/elements/1.1/"
   xmlns:cc="http://creativecommons.org/ns#"
   xmlns:rdf="http://www.w3.org/1999/02/22-rdf-syntax-ns#"
   xmlns:svg="http://www.w3.org/2000/svg"
   xmlns="http://www.w3.org/2000/svg"
   xmlns:xlink="http://www.w3.org/1999/xlink"
   xmlns:sodipodi="http://sodipodi.sourceforge.net/DTD/sodipodi-0.dtd"
   xmlns:inkscape="http://www.inkscape.org/namespaces/inkscape"
   id="svg2"
   sodipodi:version="0.32"
   inkscape:version="0.92.4 (5da689c313, 2019-01-14)"
   width="200"
   height="200"
   sodipodi:docname="clock.svgz"
   inkscape:output_extension="org.inkscape.output.svgz.inkscape"
   inkscape:export-filename="/home/pinheiro/server/svnserver/estilo/plasma/4.2/test/image601cc.png"
   inkscape:export-xdpi="90"
   inkscape:export-ydpi="90"
   version="1.0">
  <sodipodi:namedview
     inkscape:window-height="710"
     inkscape:window-width="1366"
     inkscape:pageshadow="2"
     inkscape:pageopacity="1"
     guidetolerance="3"
     gridtolerance="4"
     objecttolerance="6"
     borderopacity="1.0"
     bordercolor="#666666"
     pagecolor="#b9c8e1"
     id="base"
     inkscape:zoom="2.2581886"
     inkscape:cx="83.673934"
     inkscape:cy="43.9848"
     inkscape:window-x="0"
     inkscape:window-y="28"
     inkscape:current-layer="svg2"
     showgrid="true"
     showguides="true"
     inkscape:guide-bbox="true"
     inkscape:window-maximized="1">
    <inkscape:grid
       empspacing="5"
       enabled="true"
       visible="true"
       id="grid5592"
       type="xygrid"
       snapvisiblegridlinesonly="true"
       color="#0000ff"
       opacity="0.03921569"
       empcolor="#0000ff"
       empopacity="0.07843137" />
    <sodipodi:guide
       id="guide4454"
       position="1296.8644,-784.48024"
       orientation="1,0"
       inkscape:locked="false" />
    <sodipodi:guide
       id="guide7371"
       position="820.86441,-843.48024"
       orientation="0,1"
       inkscape:locked="false" />
  </sodipodi:namedview>
  <metadata
     id="metadata7">
    <rdf:RDF>
      <cc:Work
         rdf:about="">
        <dc:format>image/svg+xml</dc:format>
        <dc:type
           rdf:resource="http://purl.org/dc/dcmitype/StillImage" />
        <dc:title />
      </cc:Work>
    </rdf:RDF>
  </metadata>
  <defs
     id="defs5">
    <linearGradient
       id="linearGradient4011">
      <stop
         style="stop-color:#232629;stop-opacity:1;"
         offset="0"
         id="stop4013" />
      <stop
         id="stop4019"
         offset="0.89999998"
         style="stop-color:#232629;stop-opacity:0.52348995;" />
      <stop
         style="stop-color:#232629;stop-opacity:0.10738255;"
         offset="0.95999998"
         id="stop4021" />
      <stop
         style="stop-color:#232629;stop-opacity:0;"
         offset="1"
         id="stop4015" />
    </linearGradient>
    <linearGradient
       id="linearGradient3264">
      <stop
         style="stop-color:#000000;stop-opacity:1;"
         offset="0"
         id="stop3266" />
      <stop
         id="stop3272"
         offset="0.68343294"
         style="stop-color:#000000;stop-opacity:0.49803922;" />
      <stop
         style="stop-color:#000000;stop-opacity:0.14117648;"
         offset="0.79985917"
         id="stop3274" />
      <stop
         id="stop3276"
         offset="0.89750695"
         style="stop-color:#000000;stop-opacity:0.03137255;" />
      <stop
         style="stop-color:#000000;stop-opacity:0;"
         offset="1"
         id="stop3268" />
    </linearGradient>
    <linearGradient
       id="linearGradient6617">
      <stop
         style="stop-color:#e7e7e7;stop-opacity:0;"
         offset="0"
         id="stop6619" />
      <stop
         id="stop6625"
         offset="0.89623755"
         style="stop-color:#f3f3f3;stop-opacity:1" />
      <stop
         style="stop-color:#e3e3e3;stop-opacity:0.99861372"
         offset="1"
         id="stop6621" />
    </linearGradient>
    <linearGradient
       id="linearGradient5995">
      <stop
         id="stop5997"
         offset="0"
         style="stop-color:#d7d7d7;stop-opacity:1;" />
      <stop
         id="stop5999"
         offset="1"
         style="stop-color:#ffffff;stop-opacity:1" />
    </linearGradient>
    <linearGradient
       id="linearGradient6876"
       inkscape:collect="always">
      <stop
         id="stop6878"
         offset="0"
         style="stop-color:#ffffff;stop-opacity:1;" />
      <stop
         id="stop6880"
         offset="1"
         style="stop-color:#ffffff;stop-opacity:0;" />
    </linearGradient>
    <linearGradient
       id="linearGradient6608">
      <stop
         id="stop6610"
         offset="0"
         style="stop-color:#ffffff;stop-opacity:1;" />
      <stop
         style="stop-color:#f0f0f0;stop-opacity:1;"
         offset="0.79710144"
         id="stop6617" />
      <stop
         id="stop6612"
         offset="1"
         style="stop-color:#e2e2e2;stop-opacity:1;" />
    </linearGradient>
    <linearGradient
       id="linearGradient6195"
       inkscape:collect="always">
      <stop
         id="stop6197"
         offset="0"
         style="stop-color:#ffffff;stop-opacity:1;" />
      <stop
         id="stop6199"
         offset="1"
         style="stop-color:#ffffff;stop-opacity:0;" />
    </linearGradient>
    <linearGradient
       id="linearGradient8518">
      <stop
         id="stop8520"
         offset="0"
         style="stop-color:#bd0000;stop-opacity:1;" />
      <stop
         style="stop-color:#ff4747;stop-opacity:1"
         offset="0.15470119"
         id="stop8522" />
      <stop
         id="stop8524"
         offset="0.94668281"
         style="stop-color:#9c0000;stop-opacity:1;" />
      <stop
         id="stop8526"
         offset="1"
         style="stop-color:#db0000;stop-opacity:1;" />
    </linearGradient>
    <linearGradient
       gradientUnits="userSpaceOnUse"
       y2="117.86208"
       x2="1155.6477"
       y1="283.88474"
       x1="1155.6477"
       id="linearGradient6203"
       xlink:href="#linearGradient6195"
       inkscape:collect="always" />
    <linearGradient
       gradientTransform="translate(-1027.6356,-20.896313)"
       y2="53.696342"
       x2="1133.3816"
       y1="21.651564"
       x1="1133.3816"
       gradientUnits="userSpaceOnUse"
       id="linearGradient6890"
       xlink:href="#linearGradient6876"
       inkscape:collect="always" />
    <filter
       color-interpolation-filters="sRGB"
       inkscape:collect="always"
       id="filter5354-4"
       x="-0.21153671"
       width="1.4230734"
       y="-0.061348539"
       height="1.1226971">
      <feGaussianBlur
         inkscape:collect="always"
         stdDeviation="0.87589417"
         id="feGaussianBlur5356-7" />
    </filter>
    <filter
       color-interpolation-filters="sRGB"
       inkscape:collect="always"
       id="filter5358-1"
       x="-0.10297539"
       width="1.2059509"
       y="-0.058814138"
       height="1.1176283">
      <feGaussianBlur
         inkscape:collect="always"
         stdDeviation="0.87589417"
         id="feGaussianBlur5360-0" />
    </filter>
    <radialGradient
       inkscape:collect="always"
       xlink:href="#linearGradient4011"
       id="radialGradient4471"
       gradientUnits="userSpaceOnUse"
       cx="1255.8716"
       cy="382.72916"
       fx="1255.8716"
       fy="382.72916"
       r="96.605507" />
    <radialGradient
       inkscape:collect="always"
       xlink:href="#linearGradient4011"
       id="radialGradient4671"
       gradientUnits="userSpaceOnUse"
       cx="1255.8716"
       cy="382.72916"
       fx="1255.8716"
       fy="382.72916"
       r="96.605507" />
  </defs>
  <g
     inkscape:groupmode="layer"
     id="layer1"
     style="display:none"
     inkscape:label="layer1"
     transform="translate(-1798.1356,76.7415)" />
  <g
     inkscape:groupmode="layer"
     id="layer2"
     style="display:inline"
     inkscape:label="glow"
     transform="translate(-1798.1356,76.7415)" />
  <g
     transform="translate(-1028.03,408.47464)"
     style="display:inline"
     inkscape:label="box"
     id="layer4" />
  <g
     transform="translate(-1028.03,408.47464)"
     style="display:inline"
     inkscape:label="zip_app"
     id="layer5" />
  <g
     inkscape:label="#g4535"
     id="ClockFace"
     transform="translate(-917.46243,-480.01699)">
    <g
       id="g4323"
       inkscape:label="#g4323">
      <rect
         y="473.017"
         x="910.4624"
         height="214"
         width="214"
         id="rect4069"
         style="opacity:0.00499998;fill:#717171;fill-opacity:1;stroke:none" />
      <path
         sodipodi:type="arc"
         style="fill:url(#radialGradient4671);fill-opacity:1;stroke:none;opacity:0.35"
         id="path4329"
         sodipodi:cx="1255.8716"
         sodipodi:cy="382.72916"
         sodipodi:rx="96.605507"
         sodipodi:ry="96.605507"
         d="m 1352.4771,382.72916 a 96.605507,96.605507 0 0 1 -96.6055,96.6055 96.605507,96.605507 0 0 1 -96.6055,-96.6055 96.605507,96.605507 0 0 1 96.6055,-96.60551 96.605507,96.605507 0 0 1 96.6055,96.60551 z"
         transform="matrix(1.0765432,0,0,1.0765432,-334.53758,169.99252)"
         inkscape:export-filename="C:\Users\andrewl\Downloads\silly clock.png"
         inkscape:export-xdpi="90"
         inkscape:export-ydpi="90" />
      <g
         id="g4245">
        <path
           inkscape:export-ydpi="90"
           inkscape:export-xdpi="90"
           inkscape:export-filename="C:\Users\andrewl\Downloads\silly clock.png"
           transform="translate(-238.40858,197.28733)"
           sodipodi:type="arc"
           style="fill:#ffffff;fill-opacity:1;stroke:none;opacity:0.9"
           id="path5099"
           sodipodi:cx="1255.8716"
           sodipodi:cy="382.72916"
           sodipodi:rx="96.605507"
           sodipodi:ry="96.605507"
           d="m 1352.4771,382.72916 a 96.605507,96.605507 0 0 1 -96.6055,96.6055 96.605507,96.605507 0 0 1 -96.6055,-96.6055 96.605507,96.605507 0 0 1 96.6055,-96.60551 96.605507,96.605507 0 0 1 96.6055,96.60551 z" />
        <g
           id="g6149"
           transform="translate(-0.50849973,-0.41219339)">
          <path
             inkscape:connector-curvature="0"
             style="font-size:medium;font-style:normal;font-variant:normal;font-weight:normal;font-stretch:normal;text-indent:0;text-align:start;text-decoration:none;line-height:normal;letter-spacing:normal;word-spacing:normal;text-transform:none;direction:ltr;block-progression:tb;writing-mode:lr-tb;text-anchor:start;baseline-shift:baseline;opacity:0.6;color:#000000;fill:#31363b;fill-opacity:1;stroke:none;stroke-width:1px;marker:none;visibility:visible;display:inline;overflow:visible;enable-background:accumulate;font-family:Sans;-inkscape-font-specification:Sans"
             d="m 974.36163,503.57953 -0.8437,0.5 2.0937,3.59375 c 0.2777,-0.16344 0.564,-0.30841 0.8437,-0.46875 z m 87.87497,0 -2.0313,3.53125 c 0.2926,0.16682 0.5847,0.3298 0.875,0.5 l 2.0313,-3.53125 z m -95.68747,5.03125 -0.8125,0.5625 2.4687,3.40625 c 0.2689,-0.19888 0.5412,-0.398 0.8126,-0.59375 z m 103.49997,0 -2.375,3.28125 c 0.2668,0.19173 0.5481,0.36775 0.8125,0.5625 l 2.375,-3.28125 z m -110.74997,5.8125 -0.7188,0.65625 2.7813,3.09375 c 0.2398,-0.21947 0.5076,-0.40827 0.75,-0.625 z m 117.99997,0 -2.7188,3 c 0.2483,0.22104 0.5045,0.43234 0.75,0.65625 l 2.7188,-3 z m -124.59377,6.53125 -0.6562,0.75 3.125,2.8125 c 0.2192,-0.24732 0.4342,-0.50529 0.6562,-0.75 z m 131.18757,0 -3,2.6875 c 0.2326,0.25546 0.4579,0.52294 0.6874,0.78125 l 3,-2.71875 z m -137.06257,7.1875 -0.5937,0.78125 3.4375,2.5 c 0.1922,-0.26833 0.3673,-0.54652 0.5625,-0.8125 z m 142.93757,0 -3.25,2.375 c 0.1905,0.25885 0.3748,0.52016 0.5624,0.78125 l 3.2813,-2.375 z m -148.06257,7.75 -0.5,0.875 3.6876,2.125 c 0.1656,-0.2917 0.3309,-0.58548 0.5,-0.875 z m 153.18757,0 -3.5,2.03125 c 0.17,0.29042 0.3333,0.58239 0.5,0.875 l 3.5,-2.03125 z m -157.43757,8.25 -0.4062,0.90625 3.875,1.71875 c 0.1333,-0.30532 0.2695,-0.60282 0.4062,-0.90625 z m 161.68757,0 -3.6876,1.625 c 0.1363,0.3014 0.2735,0.60298 0.4063,0.90625 l 3.6875,-1.625 z m -165.06257,8.65625 -0.3124,0.9375 4.0624,1.3125 c 0.098,-0.30841 0.1804,-0.63063 0.2813,-0.9375 z m 168.43757,0 -3.8438,1.25 c 0.1021,0.30968 0.2139,0.62625 0.3125,0.9375 l 3.8437,-1.25 z m -170.90627,8.96875 -0.1875,0.96875 4.1562,0.875 c 0.066,-0.32409 0.1492,-0.64602 0.2188,-0.96875 z m 173.34367,0 -3.9374,0.84375 c 0.069,0.32066 0.1218,0.64674 0.1874,0.96875 l 3.9688,-0.84375 z m -174.81237,9.15625 -0.125,0.96875 4.2812,0.4375 c 0.031,-0.32197 0.059,-0.64784 0.094,-0.96875 l -4.25,-0.4375 z m 176.34367,0 -4.0625,0.4375 c 0.035,0.32091 0.063,0.64678 0.094,0.96875 l 4.0624,-0.4375 -0.094,-0.96875 z m -172.15627,18.09375 -4.3124,0.4375 0.125,1 4.2812,-0.4375 c -0.037,-0.33266 -0.061,-0.66618 -0.094,-1 z m 168.15627,0 c -0.033,0.33382 -0.057,0.66734 -0.094,1 l 4.0937,0.4375 0.094,-1 z m -166.84367,8.71875 -4.2188,0.90625 0.1875,0.96875 4.25,-0.90625 c -0.071,-0.32234 -0.1519,-0.64505 -0.2187,-0.96875 z m 165.53117,0.0625 c -0.067,0.32362 -0.148,0.6465 -0.2188,0.96875 l 4,0.84375 0.2188,-0.96875 z m -163.28117,8.46875 -4.125,1.34375 0.3124,0.96875 4.125,-1.34375 c -0.1075,-0.32327 -0.2087,-0.64375 -0.3124,-0.96875 z m 160.99997,0.0625 c -0.1041,0.32488 -0.2047,0.64559 -0.3126,0.96875 l 3.9376,1.28125 0.3124,-0.96875 z m -157.87497,8.21875 -3.9688,1.78125 0.4062,0.90625 3.9688,-1.78125 c -0.1376,-0.30308 -0.2721,-0.60127 -0.4062,-0.90625 z m 154.74997,0.0937 c -0.1339,0.30333 -0.269,0.60481 -0.4063,0.90625 l 3.7813,1.6875 0.4062,-0.90625 z m -150.74997,7.78125 -3.8126,2.1875 0.5,0.875 3.8126,-2.1875 c -0.1699,-0.28898 -0.3335,-0.58384 -0.5,-0.875 z m 146.74997,0.0937 c -0.1676,0.29207 -0.3292,0.58514 -0.5,0.875 l 3.625,2.09375 0.5,-0.875 z m -141.99997,7.34375 -3.5313,2.5625 0.5937,0.8125 3.5313,-2.5625 c -0.1995,-0.27029 -0.3974,-0.53977 -0.5937,-0.8125 z m 137.18737,0.0937 c -0.1931,0.26753 -0.3662,0.54733 -0.5624,0.8125 l 3.375,2.46875 0.5937,-0.8125 z m -131.62497,6.78125 -3.2812,2.9375 0.6562,0.75 3.2813,-2.9375 c -0.2242,-0.24569 -0.4349,-0.50167 -0.6563,-0.75 z m 126.09377,0.0937 c -0.2264,0.25327 -0.4581,0.49949 -0.6875,0.75 l 3.1563,2.84375 0.6874,-0.75 z m -119.93747,6.1875 -2.9063,3.25 0.7188,0.6875 2.9375,-3.28125 c -0.2482,-0.22104 -0.5044,-0.43234 -0.75,-0.65625 z m 113.71867,0.0937 c -0.251,0.22809 -0.4961,0.46241 -0.75,0.6875 l 2.8438,3.15625 0.75,-0.6875 z m -106.90617,5.5 -2.5625,3.53125 0.8125,0.59375 2.5625,-3.53125 c -0.2716,-0.19534 -0.5433,-0.39528 -0.8125,-0.59375 z m 100.06247,0.0937 c -0.2696,0.19791 -0.5404,0.39898 -0.8125,0.59375 l 2.5,3.4375 0.8125,-0.59375 z m -92.65627,4.78125 -2.1874,3.78125 0.8437,0.5 2.1875,-3.8125 c -0.28,-0.15998 -0.5658,-0.30567 -0.8438,-0.46875 z m 85.24997,0.0625 c -0.2828,0.16517 -0.5588,0.33803 -0.8437,0.5 l 2.125,3.71875 0.875,-0.5 z m -77.43737,4 -1.75,3.96875 0.9062,0.40625 1.7812,-3.96875 c -0.3132,-0.13766 -0.6262,-0.26491 -0.9374,-0.40625 z m 69.62497,0.0937 c -0.3079,0.13886 -0.6278,0.27098 -0.9376,0.40625 l 1.7188,3.875 0.9375,-0.40625 z m -61.37497,3.125 -1.3438,4.15625 0.9375,0.3125 1.3437,-4.15625 c -0.3141,-0.10014 -0.625,-0.2088 -0.9374,-0.3125 z m 53.09367,0.0625 c -0.3222,0.10608 -0.6448,0.2102 -0.9687,0.3125 l 1.3437,4.09375 0.9687,-0.3125 z m -44.5937,2.25 -0.90627,4.25 0.99997,0.21875 0.9063,-4.25 c -0.3338,-0.0688 -0.6678,-0.14601 -1,-0.21875 z m 36.0624,0.0625 c -0.3265,0.0705 -0.6408,0.15204 -0.9687,0.21875 l 0.9063,4.1875 0.9687,-0.21875 z m -27.3124,1.375 -0.4688,4.34375 1,0.0937 0.4375,-4.3125 c -0.3249,-0.0321 -0.6449,-0.0892 -0.9687,-0.125 z m 18.5937,0.0313 c -0.323,0.035 -0.6447,0.0624 -0.9687,0.0937 l 0.4374,4.3125 0.9688,-0.0937 z"
             id="path5480"
             sodipodi:nodetypes="cccccccccccccccccccccccccccccccccccccccccccccccccccccccccccccccccccccccccccccccccccccccccccccccccccccccccccccccccccccccccccccccccccccccccccccccccccccccccccccccccccccccccccccccccccccccccccccccccccccccccccccccccccccccccccccccccccccccccccccccccccc" />
        </g>
        <g
           inkscape:export-ydpi="90"
           inkscape:export-xdpi="90"
           inkscape:export-filename="C:\Users\andrewl\Downloads\silly clock.png"
           transform="translate(-283.73228,123.31062)"
           id="g5157">
          <g
             style="font-size:40px;font-style:normal;font-variant:normal;font-weight:normal;font-stretch:normal;text-align:start;line-height:125%;letter-spacing:0px;word-spacing:0px;writing-mode:lr-tb;text-anchor:start;fill:#232629;fill-opacity:0.44270833;stroke:none;filter:url(#filter5354-4);font-family:Oxygen;-inkscape-font-specification:Oxygen"
             id="text4522" />
          <g
             style="font-size:40px;font-style:normal;font-variant:normal;font-weight:normal;font-stretch:normal;text-align:start;line-height:125%;letter-spacing:0px;word-spacing:0px;writing-mode:lr-tb;text-anchor:start;fill:#3daee9;fill-opacity:1;stroke:none;font-family:Oxygen;-inkscape-font-specification:Oxygen"
             id="text5149" />
          <g
             style="font-size:40px;font-style:normal;font-variant:normal;font-weight:normal;font-stretch:normal;text-align:start;line-height:125%;letter-spacing:0px;word-spacing:0px;writing-mode:lr-tb;text-anchor:start;fill:#232629;fill-opacity:0.44270833;stroke:none;filter:url(#filter5358-1);font-family:Oxygen;-inkscape-font-specification:Oxygen"
             id="text4526" />
          <g
             style="font-size:40px;font-style:normal;font-variant:normal;font-weight:normal;font-stretch:normal;text-align:start;line-height:125%;letter-spacing:0px;word-spacing:0px;writing-mode:lr-tb;text-anchor:start;fill:#3daee9;fill-opacity:1;stroke:none;font-family:Oxygen;-inkscape-font-specification:Oxygen"
             id="text5153"
             transform="translate(0,6)">
            <path
               id="path6197"
               d="m 1306.8865,363.0712 c 2.7474,3e-5 4.9479,0.72268 6.6015,2.16797 1.6667,1.43231 2.5,3.39195 2.5,5.8789 0,1.69273 -0.4362,3.28778 -1.3086,4.78516 -0.8724,1.48439 -2.2135,3.19663 -4.0234,5.13672 l -8.2617,8.80859 13.0273,0 0,3.00781 -16.4453,0 0,-3.6914 9.3945,-10.6836 c 1.2761,-1.45831 2.2331,-2.72784 2.8711,-3.80859 0.6511,-1.09373 0.9766,-2.17446 0.9766,-3.24219 0,-1.66664 -0.4753,-2.93617 -1.4258,-3.80859 -0.9505,-0.87237 -2.2851,-1.30857 -4.0039,-1.30859 -2.5521,2e-5 -4.6419,0.82033 -6.2695,2.46093 l -1.1328,-3.0664 c 1.914,-1.75779 4.414,-2.63669 7.5,-2.63672 m -14.8802,1.23047 3.4961,0 0,28.55468 -3.4961,0 0,-25.29296 c -1.6015,1.06773 -3.1966,1.95965 -4.7851,2.67578 l 0,-3.06641 c 1.25,-0.54685 2.845,-1.50388 4.7851,-2.87109"
               inkscape:connector-curvature="0"
               style="fill:#5294e2;fill-opacity:1" />
          </g>
        </g>
        <rect
           inkscape:export-ydpi="90"
           inkscape:export-xdpi="90"
           inkscape:export-filename="C:\Users\andrewl\Downloads\silly clock.png"
           style="fill:#5294e2;fill-opacity:1;stroke:none"
           id="rect5442"
           width="20"
           height="2.7090182"
           x="927.37054"
           y="578.95905" />
        <rect
           inkscape:export-ydpi="90"
           inkscape:export-xdpi="90"
           inkscape:export-filename="C:\Users\andrewl\Downloads\silly clock.png"
           y="578.95905"
           x="1088.5704"
           height="2.7090182"
           width="20"
           id="rect5446"
           style="fill:#5294e2;fill-opacity:1;stroke:none" />
        <rect
           inkscape:export-ydpi="90"
           inkscape:export-xdpi="90"
           inkscape:export-filename="C:\Users\andrewl\Downloads\silly clock.png"
           transform="matrix(0,1,-1,0,0,0)"
           style="fill:#5294e2;fill-opacity:1;stroke:none"
           id="rect5448"
           width="20"
           height="2.7090182"
           x="651.61395"
           y="-1019.2259" />
        <path
           inkscape:export-ydpi="90"
           inkscape:export-xdpi="90"
           inkscape:export-filename="C:\Users\andrewl\Downloads\silly clock.png"
           d="m 1352.4771,382.72916 a 96.605507,96.605507 0 0 1 -96.6055,96.6055 96.605507,96.605507 0 0 1 -96.6055,-96.6055 96.605507,96.605507 0 0 1 96.6055,-96.60551 96.605507,96.605507 0 0 1 96.6055,96.60551 z"
           sodipodi:ry="96.605507"
           sodipodi:rx="96.605507"
           sodipodi:cy="382.72916"
           sodipodi:cx="1255.8716"
           id="path5627"
           style="fill:none;stroke:#70767a;stroke-opacity:0.67708333"
           sodipodi:type="arc"
           transform="translate(-238.40858,197.28733)" />
        <g
           id="g6073"
           transform="translate(-0.50849973,-0.41219339)">
          <path
             id="path6063"
             style="fill:#666667;fill-opacity:1;stroke:none"
             d="m 1090.3075,537.57714 4.0274,-2.3252 1.3545,2.34607 -4.0274,2.3252 z m -149.43492,86.2763 4.0273,-2.32515 1.3545,2.34607 -4.0273,2.32515 z"
             inkscape:connector-curvature="0" />
          <path
             inkscape:connector-curvature="0"
             d="m 1059.0835,507.3447 2.3252,-4.02738 2.3461,1.35451 -2.3252,4.02738 z m -86.27632,149.43492 2.3252,-4.02729 2.3461,1.35451 -2.3252,4.02729 z"
             style="fill:#666667;fill-opacity:1;stroke:none"
             id="path6065" />
          <path
             id="path6067"
             style="fill:#666667;fill-opacity:1;stroke:none"
             d="m 944.89998,539.92325 -4.0274,-2.32521 1.3545,-2.34608 4.0274,2.3252 z m 149.43492,86.27629 -4.0273,-2.3252 1.3545,-2.34614 4.0273,2.32526 z"
             inkscape:connector-curvature="0" />
          <path
             inkscape:connector-curvature="0"
             d="m 975.13238,508.69925 -2.3252,-4.02739 2.3461,-1.35452 2.3252,4.02738 z m 86.27632,149.43491 -2.3251,-4.02733 2.3461,-1.35457 2.3251,4.02738 z"
             style="fill:#666667;fill-opacity:1;stroke:none"
             id="path6069" />
        </g>
      </g>
      <g
         id="text5629"
         style="font-size:12px;font-style:normal;font-variant:normal;font-weight:normal;font-stretch:normal;text-align:center;line-height:125%;letter-spacing:0px;word-spacing:0px;text-anchor:middle;fill:#575757;fill-opacity:1;stroke:none;font-family:Pristina;-inkscape-font-specification:Pristina" />
    </g>
  </g>
  <g
     inkscape:transform-center-y="23.551467"
     inkscape:transform-center-x="-0.051283455"
     transform="matrix(-0.60001469,-0.79998898,0.79998898,-0.60001469,185.52507,1262.6976)"
     id="HourHand"
     inkscape:label="#g4370">
    <rect
       style="opacity:0.01000001;fill:#232629;fill-opacity:0.60392157;stroke:none"
       id="rect4673"
       width="18"
       height="64.000008"
       x="33.000023"
       y="91.000023"
       transform="matrix(-0.60001469,0.79998898,-0.79998898,-0.60001469,1122.662,607.61912)" />
    <path
       inkscape:export-ydpi="90"
       inkscape:export-xdpi="90"
       inkscape:export-filename="C:\Users\andrewl\Downloads\silly clock.png"
       sodipodi:nodetypes="cccccccc"
       inkscape:connector-curvature="0"
       id="rect5450"
       d="m 980.52302,549.88656 -5.95481,-0.74154 2.52119,5.5089 0.0361,-0.0506 34.4809,25.90467 3.4218,-4.69848 -34.48069,-25.90464 z"
       style="fill:#232629;fill-opacity:1;stroke:none" />
    <path
       sodipodi:type="arc"
       style="fill:#232629;fill-opacity:1;stroke:none"
       id="path5455-2"
       sodipodi:cx="1771.3964"
       sodipodi:cy="382.03223"
       sodipodi:rx="6.4994531"
       sodipodi:ry="6.4994531"
       d="m 1777.8958,382.03223 a 6.4994531,6.4994531 0 0 1 -6.4994,6.49945 6.4994531,6.4994531 0 0 1 -6.4995,-6.49945 6.4994531,6.4994531 0 0 1 6.4995,-6.49946 6.4994531,6.4994531 0 0 1 6.4994,6.49946 z"
       transform="translate(-753.93395,199.18469)"
       inkscape:export-filename="C:\Users\andrewl\Downloads\silly clock.png"
       inkscape:export-xdpi="90"
       inkscape:export-ydpi="90" />
  </g>
  <g
     inkscape:label="#g6188"
     style="fill:#717171;fill-opacity:1"
     transform="matrix(-0.50330119,0.86411105,-0.86411105,-0.50330119,1082.352,-486.65826)"
     inkscape:transform-center-y="36.661562"
     inkscape:transform-center-x="-0.046410759"
     id="MinuteHand">
    <rect
       style="opacity:0.01000001;fill:#232629;fill-opacity:0.60392157;stroke:none"
       id="rect4675"
       width="12.000004"
       height="85"
       x="64"
       y="94"
       transform="matrix(-0.50330119,-0.86411105,0.86411105,-0.50330119,966.28244,692.06487)" />
    <path
       transform="matrix(0.8642748,-0.50301995,0.50301995,0.8642748,0,0)"
       style="fill:#717171;stroke:none"
       d="m 588.1651,1012.6153 75.73595,7e-4 0,3 -75.73595,-7e-4 z"
       id="rect5459"
       inkscape:connector-curvature="0"
       sodipodi:nodetypes="ccccc" />
    <path
       transform="matrix(0.56475116,0,0,0.56475116,17.103729,365.50423)"
       d="m 1777.8958,382.03223 a 6.4994531,6.4994531 0 0 1 -6.4994,6.49945 6.4994531,6.4994531 0 0 1 -6.4995,-6.49945 6.4994531,6.4994531 0 0 1 6.4995,-6.49946 6.4994531,6.4994531 0 0 1 6.4994,6.49946 z"
       sodipodi:ry="6.4994531"
       sodipodi:rx="6.4994531"
       sodipodi:cy="382.03223"
       sodipodi:cx="1771.3964"
       id="path5457"
       style="fill:#717171;fill-opacity:1;stroke:none"
       sodipodi:type="arc"
       inkscape:export-filename="C:\Users\andrewl\Downloads\silly clock.png"
       inkscape:export-xdpi="90"
       inkscape:export-ydpi="90" />
  </g>
  <g
     transform="matrix(-0.50061728,0.86566872,-0.86566872,-0.50061728,1138.4953,-489.71587)"
     id="SecondHand"
     inkscape:transform-center-x="-0.014947832"
     inkscape:transform-center-y="37.602839"
     inkscape:label="#g6210">
    <rect
       style="fill:#f67400;fill-opacity:1;stroke:none"
       id="rect6212"
       width="77.735947"
       height="1.7321701"
       x="589.80505"
       y="1011.1874"
       transform="matrix(0.8660254,-0.5,0.5,0.8660254,0,0)"
       inkscape:export-filename="C:\Users\andrewl\Downloads\silly clock.png"
       inkscape:export-xdpi="90"
       inkscape:export-ydpi="90" />
    <path
       transform="matrix(0.29783451,0,0,0.29783451,489.8134,467.44934)"
       style="fill:#f67400;fill-opacity:1;stroke:none"
       d="m 1777.8958,382.03223 c 0,3.58955 -2.9099,6.49945 -6.4994,6.49945 -3.5896,0 -6.4995,-2.9099 -6.4995,-6.49945 0,-3.58955 2.9099,-6.49946 6.4995,-6.49946 3.5895,0 6.4994,2.90991 6.4994,6.49946 z"
       id="path6214"
       inkscape:connector-curvature="0" />
    <rect
       style="opacity:0.01000001;fill:#232629;fill-opacity:0.60392157;stroke:none"
       id="rect4677"
       width="8.0000019"
       height="6.999999"
       x="106"
       y="96"
       transform="matrix(-0.50061728,-0.86566873,0.86566873,-0.50061728,985.87226,726.54885)" />
  </g>
  <g
     style="opacity:0;fill:#232629;fill-opacity:1"
     inkscape:transform-center-y="37.602839"
     inkscape:transform-center-x="-0.014947832"
     id="SecondHandShadow"
     transform="matrix(-0.50061728,0.86566872,-0.86566872,-0.50061728,1146.4953,-489.71587)"
     inkscape:label="#g4412">
    <path
       transform="matrix(0.8660254,-0.5,0.5,0.8660254,0,0)"
       style="fill:#232629;stroke:none"
       d="m 591.80505,1011.186 75.73595,0 0,1.7321 -75.73595,0 z"
       id="rect4414"
       inkscape:connector-curvature="0"
       sodipodi:nodetypes="ccccc" />
    <circle
       inkscape:export-ydpi="90"
       inkscape:export-xdpi="90"
       inkscape:export-filename="C:\Users\andrewl\Downloads\silly clock.png"
       style="fill:#232629;fill-opacity:0.00392157;stroke:none"
       id="path4416"
       transform="matrix(0.29783451,0,0,0.29783451,489.8134,467.44934)"
       sodipodi:type="arc"
       sodipodi:ry="6.4994531"
       sodipodi:rx="6.4994531"
       sodipodi:cy="382.03223"
       sodipodi:cx="1771.3964"
       d="m 1777.8958,382.03223 a 6.4994531,6.4994531 0 0 1 -6.4994,6.49945 6.4994531,6.4994531 0 0 1 -6.4995,-6.49945 6.4994531,6.4994531 0 0 1 6.4995,-6.49946 6.4994531,6.4994531 0 0 1 6.4994,6.49946 z" />
    <rect
       style="opacity:0.01000001;fill:#232629;fill-opacity:0.60392157;stroke:none"
       id="rect4715"
       width="5.999999"
       height="82"
       x="113"
       y="97"
       transform="matrix(-0.50061728,-0.86566873,0.86566873,-0.50061728,988.87596,731.74286)" />
  </g>
  <path
     sodipodi:type="arc"
     style="opacity:0.001;fill:#232629;fill-opacity:1;stroke:none"
     id="HandCenterScrew"
     sodipodi:cx="-50"
     sodipodi:cy="100"
     sodipodi:rx="5"
     sodipodi:ry="5"
     d="m -45,100 a 5,5 0 1 1 -10,0 5,5 0 1 1 10,0 z"
     inkscape:label="#path4580" />
  <path
     sodipodi:type="arc"
     style="opacity:0.00100002;fill:#232629;fill-opacity:1;stroke:none"
     id="Glass"
     sodipodi:cx="-195"
     sodipodi:cy="100"
     sodipodi:rx="45"
     sodipodi:ry="45"
     d="m -150,100 a 45,45 0 1 1 -90,0 45,45 0 1 1 90,0 z"
     transform="matrix(1.5739209,0,0,1.5739209,111.91458,-57.39209)"
     inkscape:label="#path4584" />
  <g
     id="MinuteHandShadow"
     inkscape:transform-center-x="-0.046410759"
     inkscape:transform-center-y="36.661562"
     transform="matrix(-0.50330119,0.86411105,-0.86411105,-0.50330119,1092.352,-486.65826)"
     style="opacity:0;fill:#232629;fill-opacity:1"
     inkscape:label="#g4402">
    <path
       style="fill:#232629;stroke:none;stroke-width:1.02131093"
       d="m 1016.6855,579.91107 66.4728,-38.68926 1.509,2.59284 -66.4727,38.68927 z"
       id="rect4404"
       inkscape:connector-curvature="0"
       sodipodi:nodetypes="ccccc" />
    <circle
       transform="matrix(0.62496371,0,0,0.62496371,-89.662081,342.47545)"
       id="path4406"
       style="fill:#232629;fill-opacity:0.00392157;stroke:none"
       inkscape:export-filename="C:\Users\andrewl\Downloads\silly clock.png"
       inkscape:export-xdpi="90"
       inkscape:export-ydpi="90"
       sodipodi:type="arc"
       sodipodi:ry="6.4994531"
       sodipodi:rx="6.4994531"
       sodipodi:cy="382.03223"
       sodipodi:cx="1771.3964"
       d="m 1777.8958,382.03223 a 6.4994531,6.4994531 0 0 1 -6.4994,6.49945 6.4994531,6.4994531 0 0 1 -6.4995,-6.49945 6.4994531,6.4994531 0 0 1 6.4995,-6.49946 6.4994531,6.4994531 0 0 1 6.4994,6.49946 z" />
  </g>
  <g
     inkscape:transform-center-y="22.887218"
     inkscape:transform-center-x="-0.051283455"
     transform="rotate(-126.87095,416.28764,581.2625)"
     id="HourHandShadow"
     inkscape:label="#g4370"
     style="opacity:0">
    <rect
       style="opacity:0.01000001;fill:#232629;fill-opacity:0.60392157;stroke:none"
       id="rect4673-7"
       width="18"
       height="64.000008"
       x="33.000023"
       y="91.000023"
       transform="rotate(126.87095,409.42971,584.46862)" />
    <path
       inkscape:export-ydpi="90"
       inkscape:export-xdpi="90"
       inkscape:export-filename="C:\Users\andrewl\Downloads\silly clock.png"
       sodipodi:nodetypes="cccccccc"
       inkscape:connector-curvature="0"
       id="rect5450-5"
       d="m 980.52302,549.88656 -5.95481,-0.74154 2.52119,5.5089 0.0361,-0.0506 34.4809,25.90467 3.4218,-4.69848 -34.48069,-25.90464 z"
       style="fill:#232629;fill-opacity:1;stroke:none" />
    <circle
       r="6.4994531"
       cy="382.03223"
       cx="1771.3964"
       style="fill:#232629;fill-opacity:1;stroke:none"
       id="path5455-2-3"
       transform="translate(-753.93395,199.18469)"
       inkscape:export-filename="C:\Users\andrewl\Downloads\silly clock.png"
       inkscape:export-xdpi="90"
       inkscape:export-ydpi="90" />
  </g>
</svg>
