<svg width="124" height="52" version="1.1" viewBox="0 0 32.808 13.758" xmlns="http://www.w3.org/2000/svg">
 <defs>
  <style id="current-color-scheme" type="text/css">.ColorScheme-Text {
        color:#31363b;
        stop-color:#31363b;
      }
      .ColorScheme-Background {
        color:#eff0f1;
        stop-color:#eff0f1;
      }
      .ColorScheme-Highlight {
        color:#3daee9;
        stop-color:#3daee9;
      }
      .ColorScheme-ViewText {
        color:#31363b;
        stop-color:#31363b;
      }
      .ColorScheme-ViewBackground {
        color:#fcfcfc;
        stop-color:#fcfcfc;
      }
      .ColorScheme-ViewHover {
        color:#93cee9;
        stop-color:#93cee9;
      }
      .ColorScheme-ViewFocus{
        color:#3daee9;
        stop-color:#3daee9;
      }
      .ColorScheme-ButtonText {
        color:#31363b;
        stop-color:#31363b;
      }
      .ColorScheme-ButtonBackground {
        color:#eff0f1;
        stop-color:#eff0f1;
      }
      .ColorScheme-ButtonHover {
        color:#93cee9;
        stop-color:#93cee9;
      }
      .ColorScheme-ButtonFocus{
        color:#3daee9;
        stop-color:#3daee9;
      }</style>
 </defs>
 <g id="configure" transform="translate(.52917 -249.37)">
  <rect x="4.2333" y="249.37" width="4.2333" height="4.2333" fill="none"/>
  <path class="ColorScheme-Text" d="m6.2917 249.64c-0.034396 3e-3 -0.079375 9e-3 -0.11562 0.0249 0 0-0.023548 0.0783-0.04154 0.27278-0.02196 0.23813-0.11324 0.29898-0.18177 0.3474-0.068792 0.0484-0.089958 0.0627-0.11589 0.0744-0.13441 0.0225-0.25426 0.037-0.43815-0.11562-0.15028-0.12489-0.21484-0.16537-0.21484-0.16537-0.074083 0.0291-0.14076 0.10742-0.14076 0.10742s-0.078052 0.0661-0.10742 0.1405c0 0 0.040481 0.0648 0.16536 0.2151 0.15266 0.18362 0.13838 0.30374 0.11589 0.43815-0.011642 0.0257-0.025929 0.0471-0.074613 0.11563-0.048419 0.0688-0.10927 0.16007-0.34713 0.18203-0.19447 0.018-0.26458 0.0413-0.26458 0.0413-0.03175 0.0733-0.033073 0.17357-0.033073 0.17357s0.00132 0.10054 0.033073 0.17383c0 0 0.070115 0.0233 0.26458 0.0413 0.23786 0.022 0.29845 0.11324 0.34713 0.18177 0.048683 0.0688 0.062971 0.0899 0.074613 0.11588 0.02249 0.13441 0.037042 0.25453-0.11589 0.43815-0.12488 0.15029-0.16536 0.21511-0.16536 0.21511 0.029369 0.0741 0.10742 0.14023 0.10742 0.14023s0.066146 0.0786 0.14076 0.10768c0 0 0.064558-0.0405 0.21484-0.16536 0.18389-0.15267 0.30374-0.13811 0.43815-0.11562 0.025665 0.0116 0.047096 0.0257 0.11589 0.0741 0.068792 0.0487 0.15981 0.10954 0.18177 0.3474 0.017992 0.19447 0.04154 0.26458 0.04154 0.26458 0.07329 0.0318 0.17357 0.0331 0.17357 0.0331s0.10054-1e-3 0.17357-0.0331c0 0 0.023548-0.0699 0.041275-0.26458 0.02196-0.23786 0.11245-0.3011 0.22331-0.38021v-8e-3c0.026458-0.01 0.048683-0.0214 0.074348-0.0331 0.13441-0.0228 0.25453-0.037 0.43841 0.11562 0.15002 0.12488 0.21484 0.16536 0.21484 0.16536 0.07435-0.0291 0.14049-0.10742 0.14049-0.10742s0.07832-0.0661 0.10768-0.14049c0 0-0.04048-0.0648-0.16536-0.21511-0.15293-0.18362-0.13838-0.30374-0.11589-0.43815 0.01164-0.0257 0.02328-0.0481 0.03307-0.0743h0.0082c0.07937-0.11112 0.14261-0.20108 0.38047-0.2233 0.19447-0.018 0.27278-0.0413 0.27278-0.0413 0.03175-0.0733 0.02487-0.17383 0.02487-0.17383s0.0069-0.10054-0.02487-0.17357c0 0-0.07832-0.0233-0.27278-0.0413-0.23812-0.022-0.3011-0.11218-0.38047-0.22331-0.0098-0.0265-0.02963-0.0487-0.04128-0.0743-0.02249-0.13441-0.03704-0.25453 0.11589-0.43815 0.12462-0.15028 0.16536-0.2151 0.16536-0.2151-0.02937-0.0741-0.10768-0.1405-0.10768-0.1405s-0.06615-0.0783-0.14023-0.10742c0 0-0.06482 0.0405-0.21511 0.16537-0.18388 0.15266-0.29898 0.13758-0.46302 0.0661-0.16404-0.0714-0.25109-0.13414-0.27305-0.37227-0.017992-0.19447-0.041275-0.27252-0.041275-0.27252-0.073025-0.0323-0.17357-0.0254-0.17357-0.0254s-0.023813-3e-3 -0.057944 0zm0.057944 1.3229a0.52917 0.52917 0 1 1 0 1.0583 0.52917 0.52917 0 0 1 0-1.0583z" fill="currentColor"/>
 </g>
 <g id="delete" transform="translate(.52917 -249.37)">
  <rect x="4.2333" y="258.9" width="4.2333" height="4.2333" fill="none"/>
  <g transform="matrix(.26458 0 0 .26458 4.2333 258.9)" enable-background="new" fill="#ed5059">
   <g color="#000000" fill="#ed5059" font-weight="400">
    <path d="m2 3.993v10c0 0.524 0.476 1 1 1h9c0.524 0 1-0.476 1-1v-10h-1v10h-9v-10zm-0.938-1h12.938c0-1-1-1-1-1h-3s0-1-1-1h-3c-1 0-1 1-1 1h-3s-0.938 0-0.938 1z" fill="#f56666" overflow="visible"/>
   </g>
  </g>
 </g>
 <g id="menu" transform="translate(.52917 -249.37)">
  <rect x="-.52917" y="249.37" width="4.2333" height="4.2333" fill="none"/>
  <rect x="-1.0174e-6" y="249.9" width="3.175" height="3.175" fill="none"/>
  <path class="ColorScheme-Text" d="m4.5328e-8 250.17v0.52917h3.175v-0.52917zm0 1.0583v0.52917h3.175v-0.52917zm0 1.0583v0.52916h3.175v-0.52916z" fill="currentColor"/>
 </g>
 <g id="rotate" transform="translate(.52917 -249.37)">
  <rect x="8.9958" y="249.37" width="4.2333" height="4.2333" fill="none"/>
  <rect x="9.525" y="249.9" width="3.175" height="3.175" fill="none"/>
  <path class="ColorScheme-Text" transform="matrix(.26458 0 0 .26458 -.52917 249.37)" d="m44.172 1.6719-0.70703 0.70703 1.6211 1.6211h-4.0859v1h4.0859l-1.6211 1.6211 0.70703 0.70703 2.8281-2.8281-2.8281-2.8281zm-4.6719 3.3281c-0.27614 0-0.5 0.22375-0.5 0.5 0 0.27628 0.22386 0.5 0.5 0.5s0.5-0.22375 0.5-0.5c0-0.27628-0.22386-0.5-0.5-0.5zm6.9688 1.5625-3.9062 3.9062 3.5312 3.5312 3.9062-3.9062zm-7.9688 1.4375c-0.27614 0-0.5 0.22375-0.5 0.5 0 0.27628 0.22386 0.5 0.5 0.5s0.5-0.22375 0.5-0.5c0-0.27628-0.22386-0.5-0.5-0.5zm1 3c-0.27614 0-0.5 0.22375-0.5 0.5 0 0.27628 0.22386 0.5 0.5 0.5s0.5-0.22375 0.5-0.5c0-0.27628-0.22386-0.5-0.5-0.5zm3 1c-0.27613 0-0.5 0.22375-0.5 0.5 0 0.27628 0.22386 0.5 0.5 0.5 0.27613 0 0.5-0.22375 0.5-0.5 0-0.27628-0.22386-0.5-0.5-0.5z" fill="currentColor"/>
 </g>
 <g id="move" transform="translate(.52917 -249.37)">
  <rect x="13.758" y="249.37" width="4.2333" height="4.2333" fill="none"/>
  <rect x="14.288" y="249.9" width="3.175" height="3.175" fill="none"/>
  <path class="ColorScheme-Text" d="m15.875 249.9-0.52917 0.79375h1.0583l-0.52917-0.79375zm-0.79375 1.0583-0.79375 0.52917 0.79375 0.52916v-1.0583zm1.5875 0v1.0583l0.79375-0.52916-0.79375-0.52917zm-0.79375 0.26458c-0.14612 0-0.26458 0.11846-0.26458 0.26459 0 0.14612 0.11846 0.26458 0.26458 0.26458 0.14613 0 0.26458-0.11846 0.26458-0.26458 0-0.14613-0.11846-0.26459-0.26458-0.26459zm-0.52917 1.0583 0.52917 0.79375 0.52917-0.79375h-1.0583z" fill="currentColor"/>
 </g>
 <g id="size-vertical" transform="translate(.52917 -249.37)">
  <rect x="18.521" y="249.37" width="4.2333" height="4.2333" fill="none"/>
  <rect x="19.05" y="249.9" width="3.175" height="3.175" fill="none"/>
  <path class="ColorScheme-Text" d="m20.638 249.9-0.52917 0.79375h1.0583zm0 1.3229c-0.14612 0-0.26458 0.11846-0.26458 0.26459 0 0.14612 0.11846 0.26458 0.26458 0.26458 0.14613 0 0.26458-0.11846 0.26458-0.26458 0-0.14613-0.11846-0.26459-0.26458-0.26459zm-0.52917 1.0583 0.52917 0.79375 0.52917-0.79375z" fill="currentColor"/>
 </g>
 <g id="size-horizontal" transform="translate(.52917 -249.37)">
  <rect x="23.283" y="249.37" width="4.2333" height="4.2333" fill="none"/>
  <rect x="23.812" y="249.9" width="3.175" height="3.175" fill="none"/>
  <path class="ColorScheme-Text" d="m26.988 251.49-0.79375-0.52917v1.0583zm-1.3229 0c0-0.14613-0.11846-0.26458-0.26459-0.26458-0.14612 0-0.26458 0.11845-0.26458 0.26458s0.11846 0.26458 0.26458 0.26458c0.14613 0 0.26459-0.11845 0.26459-0.26458zm-1.0583-0.52917-0.79375 0.52917 0.79375 0.52917z" fill="currentColor"/>
 </g>
 <g id="size-diagonal-tr2bl" transform="translate(.52917 -249.37)">
  <rect x="28.046" y="249.37" width="4.2333" height="4.2333" fill="none"/>
  <rect x="28.575" y="249.9" width="3.175" height="3.175" fill="none"/>
  <path class="ColorScheme-Text" d="m29.369 253.08v-0.26458h-0.60668l0.87126-0.87127-0.18707-0.18706-0.87126 0.87126v-0.60668h-0.26458v1.0583h1.0583z" fill="currentColor"/>
  <path class="ColorScheme-Text" transform="matrix(.26458 0 0 .26458 -.52917 249.37)" d="m109 2v6h1v-5h7v-1h-7zm13 6v5h-7v1h8v-6z" fill="currentColor"/>
  <path class="ColorScheme-Text" d="m30.956 249.9v0.26458h0.60668l-0.87126 0.87127 0.18707 0.18706 0.87126-0.87126v0.60668h0.26458v-1.0583h-1.0583z" fill="currentColor"/>
 </g>
 <g id="size-diagonal-tl2br" transform="translate(.52917 -249.37)">
  <rect x="-.52917" y="254.14" width="4.2333" height="4.2333" fill="none"/>
  <rect x="8.4756e-7" y="254.67" width="3.175" height="3.175" fill="none"/>
  <path class="ColorScheme-Text" d="m2.3812 257.84v-0.26458h0.60668l-0.87126-0.87127 0.18707-0.18706 0.87126 0.87126v-0.60668h0.26458v1.0583h-1.0583z" fill="currentColor"/>
  <path class="ColorScheme-Text" d="m3.4396 254.67v1.5875h-0.26458v-1.3229h-1.852v-0.26459h1.852zm-3.4396 1.5875v1.3229h1.8521v0.26458h-2.1167v-1.5875z" fill="currentColor"/>
  <path class="ColorScheme-Text" d="m0.79375 254.67v0.26458h-0.60668l0.87126 0.87127-0.18707 0.18706-0.87126-0.87126v0.60668h-0.26458v-1.0583h1.0583z" fill="currentColor"/>
 </g>
 <g id="maximize" transform="translate(.52917 -249.37)">
  <rect x="4.2333" y="254.14" width="4.2333" height="4.2333" fill="none"/>
  <rect x="4.7625" y="254.67" width="3.175" height="3.175" fill="none"/>
  <path class="ColorScheme-Text" d="m7.1437 254.67v0.26458h0.60668l-0.87126 0.87127 0.18707 0.18706 0.87126-0.87126v0.60668h0.26458v-1.0583h-1.0583z" fill="currentColor"/>
  <path class="ColorScheme-Text" transform="matrix(.26458 0 0 .26458 -.52917 249.37)" d="m19 20v12h14v-6h-1v5h-12v-10h7v-1h-7z" fill="currentColor"/>
 </g>
 <g id="unmaximize" transform="translate(.52917 -249.37)">
  <rect x="8.9958" y="254.14" width="4.2333" height="4.2333" fill="none"/>
  <rect x="9.525" y="254.67" width="3.175" height="3.175" fill="none"/>
  <path class="ColorScheme-Text" d="m12.7 255.99v-0.26458h-0.60668l0.87126-0.87127-0.18707-0.18706-0.87127 0.87126v-0.60668h-0.26458v1.0583h1.0583z" fill="currentColor"/>
  <path class="ColorScheme-Text" d="m9.2604 254.67v3.175h3.7041v-1.5875h-0.26458v1.3229h-3.175v-2.6458h1.8521v-0.26458h-1.8521z" fill="currentColor"/>
 </g>
 <g id="status" transform="translate(.52917 -249.37)">
  <rect x="13.758" y="254.14" width="4.2333" height="4.2333" fill="none"/>
  <rect x="14.288" y="254.67" width="3.175" height="3.175" fill="none"/>
  <g transform="matrix(.26458 0 0 .26458 -97.82 113.43)">
   <path class="ColorScheme-Text" transform="translate(367.71,513.79)" d="m56 20v12h12v-12h-11zm1 3h7.3457l-1.7168 6.4082-1.9668-3.4082h-3.6621zm8.3828 0h1.6172v8h-3.7617zm-8.3828 4h3.084l2.3086 4h-5.3926z" fill="currentColor"/>
  </g>
 </g>
 <g id="collapse" transform="translate(.52917 -249.37)">
  <rect x="23.283" y="254.14" width="4.2333" height="4.2333" fill="none"/>
  <rect x="23.813" y="254.67" width="3.175" height="3.175" fill="none"/>
  <path class="ColorScheme-Text" d="m24.871 254.67 0.52917 0.52916 0.52917-0.52916h-1.0583zm-1.0583 1.3229v0.52917h3.175v-0.52917zm1.5875 1.3229-0.52917 0.52917h1.0583l-0.52917-0.52917z" fill="currentColor"/>
 </g>
 <g id="return-to-source" transform="translate(.52917 -249.37)">
  <rect x="18.521" y="254.14" width="4.2333" height="4.2333" fill="none"/>
  <rect x="19.05" y="254.67" width="3.175" height="3.175" fill="none"/>
  <path class="ColorScheme-Text" transform="matrix(.26458 0 0 .26458 -.52917 249.37)" d="m74 20v12h12v-12zm4 1h4l-2 2zm-3 4h10v2h-10zm5 4 2 2h-4z" fill="currentColor"/>
 </g>
 <g id="restore" transform="translate(.52917 -249.37)">
  <rect x="28.046" y="254.14" width="4.2333" height="4.2333" fill="none"/>
  <rect x="28.575" y="254.67" width="3.175" height="3.175" fill="none"/>
  <path class="ColorScheme-Text" d="m29.633 255.2 0.52917-0.52916 0.52917 0.52916zm-1.0583 0.79375v0.52917h3.175v-0.52917zm1.5875 1.8521-0.52917-0.52917h1.0583z" fill="currentColor"/>
 </g>
 <g id="help" transform="translate(.52917 -249.37)">
  <rect x="-.52917" y="258.9" width="4.2333" height="4.2333" fill="none"/>
  <rect x="8.4756e-7" y="259.43" width="3.175" height="3.175" fill="none"/>
  <path class="ColorScheme-Text" d="m1.5875 259.43a1.5875 1.5875 0 0 0-1.5875 1.5875 1.5875 1.5875 0 0 0 1.5875 1.5875 1.5875 1.5875 0 0 0 1.5875-1.5875 1.5875 1.5875 0 0 0-1.5875-1.5875zm-1.5875 0.26458v0.52917l0.52917-0.52917zm1.5875 0a1.3229 1.3229 0 0 1 0.63252 0.16123l-0.40256 0.40256a0.79375 0.79375 0 0 0-0.22996-0.0346 0.79375 0.79375 0 0 0-0.22996 0.0346l-0.40153-0.40153a1.3229 1.3229 0 0 1 0.63149-0.16226zm1.0583 0 0.52917 0.52917v-0.52917zm-2.22 0.6904 0.40256 0.40256a0.79375 0.79375 0 0 0-0.034623 0.22996 0.79375 0.79375 0 0 0 0.034623 0.22996l-0.40153 0.40152a1.3229 1.3229 0 0 1-0.16226-0.63148 1.3229 1.3229 0 0 1 0.16123-0.63252zm2.3223 1e-3a1.3229 1.3229 0 0 1 0.16226 0.63149 1.3229 1.3229 0 0 1-0.16123 0.63252l-0.40256-0.40253a0.79375 0.79375 0 0 0 0.034623-0.22996 0.79375 0.79375 0 0 0-0.034623-0.22996l0.40153-0.40153zm-1.1607 0.10232a0.52917 0.52917 0 0 1 0.52917 0.52917 0.52917 0.52917 0 0 1-0.52917 0.52916 0.52917 0.52917 0 0 1-0.52917-0.52916 0.52917 0.52917 0 0 1 0.52917-0.52917zm-0.22996 1.2883a0.79375 0.79375 0 0 0 0.22996 0.0346 0.79375 0.79375 0 0 0 0.22996-0.0346l0.40153 0.40153a1.3229 1.3229 0 0 1-0.63149 0.16226 1.3229 1.3229 0 0 1-0.63252-0.16123zm-1.3575 0.0346v0.52916h0.52917zm3.175 0-0.52917 0.52916h0.52917z" fill="currentColor"/>
 </g>
 <g id="add" transform="translate(.52917 -249.37)">
  <rect x="8.9958" y="258.9" width="4.2333" height="4.2333" fill="none"/>
  <rect x="9.525" y="259.43" width="3.175" height="3.175" fill="none"/>
  <path class="ColorScheme-Text" transform="matrix(.26458 0 0 .26458 -.52917 249.37)" d="m43 38v5h-5v2h5v5h2v-5h5v-2h-5v-5z" fill="currentColor"/>
 </g>
 <g id="remove" transform="translate(.52917 -249.37)">
  <rect x="13.758" y="258.9" width="4.2333" height="4.2333" fill="none"/>
  <rect x="14.287" y="259.43" width="3.175" height="3.175" fill="none"/>
  <rect class="ColorScheme-Text" transform="rotate(90)" x="260.75" y="-17.462" width=".52917" height="3.175" fill="currentColor"/>
 </g>
 <g id="filter" transform="translate(.52917 -249.37)">
  <rect x="18.521" y="258.9" width="4.2333" height="4.2333" fill="none"/>
  <rect x="19.05" y="259.43" width="3.175" height="3.175" fill="none"/>
  <path class="ColorScheme-Text" transform="matrix(.26458 0 0 .26458 -.52917 249.37)" d="m76 38-1 1v1l3 5.2598v2.7422l3 1.9961v2e-3h1v-4.7403l3-5.2599v-1l-1-1h-8zm0 1h8v0.73438l-3 5.2637v3.7969l-2-1.3301v-2.4668l-3-5.2637zm1 1 2 2v-1l1-1z" fill="currentColor" fill-rule="evenodd"/>
 </g>
 <g id="close" transform="translate(.52917 -249.37)">
  <rect x="23.283" y="258.9" width="4.2333" height="4.2333" fill="none"/>
  <rect x="23.813" y="259.43" width="3.175" height="3.175" fill="none"/>
  <circle class="ColorScheme-Background" cx="25.4" cy="261.02" r="1.0583" fill="currentColor"/>
  <path d="m25.4 259.43a1.5875 1.5875 0 0 0-1.5875 1.5875 1.5875 1.5875 0 0 0 1.5875 1.5875 1.5875 1.5875 0 0 0 1.5875-1.5875 1.5875 1.5875 0 0 0-1.5875-1.5875zm-0.60668 0.79375 0.60668 0.60668 0.60668-0.60668 0.18707 0.18707-0.60668 0.60668 0.60668 0.60668-0.18707 0.18707-0.60668-0.60668-0.60668 0.60668-0.18707-0.18707 0.60668-0.60668-0.60668-0.60668z" fill="#f56666"/>
 </g>
 <g id="showbackground" transform="translate(.52917 -249.37)">
  <rect class="ColorScheme-Background" x="28.575" y="259.69" width="2.6458" height="2.6458" ry=".12427" fill="currentColor" opacity=".8"/>
  <rect x="27.859" y="258.9" width="4.2333" height="4.2333" fill="none"/>
  <path class="ColorScheme-Text" transform="matrix(.26458 0 0 .26458 -.52917 249.37)" d="m110 38c-0.55407 0-1 0.44593-1 1v10c0 0.55407 0.44593 1 1 1h10c0.55407 0 1-0.44593 1-1v-10c0-0.55407-0.44593-1-1-1zm0.46875 1h9.0625c0.26021 0 0.46875 0.2105 0.46875 0.4707v9.0605c0 0.26021-0.20854 0.46875-0.46875 0.46875h-9.0625c-0.26021 0-0.46875-0.20854-0.46875-0.46875v-9.0605c0-0.26021 0.20854-0.4707 0.46875-0.4707z" fill="currentColor" opacity=".4"/>
  <g transform="scale(.92488 1.0812)" fill="#000000" stroke-width=".26458px" aria-label="a">
   <path class="ColorScheme-Text" d="m32.391 240.67c0.17304 0 0.30106 0.038 0.38405 0.11389 0.08299 0.0759 0.12449 0.19688 0.12449 0.36286v0.99379h-0.16951l-0.04503-0.22834h-0.01059c-0.0618 0.0777-0.12713 0.13508-0.196 0.17216-0.06886 0.0371-0.16245 0.0556-0.28075 0.0556-0.1289 0-0.23573-0.0335-0.32048-0.10065-0.08476-0.0689-0.12239-0.17569-0.12239-0.32048 0-0.14126 0.05088-0.28618 0.16212-0.3621 0.11124-0.0777 0.28252-0.11816 0.51383-0.12522l0.24102-8e-3v-0.0504c0-0.11831-0.0256-0.20042-0.07681-0.24633-0.05121-0.0459-0.1236-0.0689-0.21719-0.0689-0.07416 0-0.14479 0.0115-0.21189 0.0344-0.0671 0.0212-0.12978 0.0459-0.18805 0.0742l-0.07151-0.17481c0.0618-0.0335 0.13508-0.0618 0.21984-0.0848 0.08476-0.0247 0.17304-0.0371 0.26486-0.0371zm0.27811 0.73618-0.20924 8e-3c-0.17658 7e-3 -0.29929 0.0334-0.36816 0.0829-0.0671 0.0495-0.10065 0.1345-0.10065 0.22453 0 0.0795 0.02384 0.13773 0.07151 0.17481 0.04944 0.0371 0.11212 0.0556 0.18805 0.0556 0.1183 0 0.21719-0.0327 0.29665-0.098 0.08122-0.0671 0.12184-0.16951 0.12184-0.30724z" fill="currentColor"/>
  </g>
 </g>
</svg>
