<?xml version="1.0" encoding="UTF-8" standalone="no"?>
<svg
   width="128"
   height="128"
   version="1.0"
   id="svg134"
   sodipodi:docname="containment-controls.svg"
   inkscape:version="1.3.2 (091e20ef0f, 2023-11-25)"
   xmlns:inkscape="http://www.inkscape.org/namespaces/inkscape"
   xmlns:sodipodi="http://sodipodi.sourceforge.net/DTD/sodipodi-0.dtd"
   xmlns:xlink="http://www.w3.org/1999/xlink"
   xmlns="http://www.w3.org/2000/svg"
   xmlns:svg="http://www.w3.org/2000/svg">
  <sodipodi:namedview
     id="namedview136"
     pagecolor="#474747"
     bordercolor="#666666"
     borderopacity="1.0"
     inkscape:showpageshadow="2"
     inkscape:pageopacity="0"
     inkscape:pagecheckerboard="0"
     inkscape:deskcolor="#d1d1d1"
     showgrid="true"
     inkscape:zoom="3.6875"
     inkscape:cx="60.881356"
     inkscape:cy="61.288136"
     inkscape:window-width="1920"
     inkscape:window-height="1020"
     inkscape:window-x="0"
     inkscape:window-y="24"
     inkscape:window-maximized="1"
     inkscape:current-layer="svg134">
    <inkscape:grid
       id="grid1"
       units="px"
       originx="0"
       originy="0"
       spacingx="1"
       spacingy="1"
       empcolor="#0099e5"
       empopacity="0.30196078"
       color="#0099e5"
       opacity="0.14902"
       empspacing="5"
       dotted="false"
       gridanglex="30"
       gridanglez="30"
       visible="true" />
  </sodipodi:namedview>
  <defs
     id="defs37">
    <style
       id="current-color-scheme"
       type="text/css">.ColorScheme-Text {
        color:#31363b;
      }
      .ColorScheme-Background{
        color:#eff0f1;
      }
      .ColorScheme-ViewText {
        color:#31363b;
      }
      .ColorScheme-ViewBackground{
        color:#fcfcfc;
      }
      .ColorScheme-ViewHover {
        color:#3daee9;
      }
      .ColorScheme-ViewFocus{
        color:#3daee9;
      }
      .ColorScheme-ButtonText {
        color:#31363b;
      }
      .ColorScheme-ButtonBackground{
        color:#eff0f1;
      }
      .ColorScheme-ButtonHover {
        color:#3daee9;
      }
      .ColorScheme-ButtonFocus{
        color:#3daee9;
      }</style>
  </defs>
  <rect
     id="hint-tile-center"
     x="-10"
     width="5.2208"
     height="5.4026"
     fill="#023812"
     opacity=".65" />
  <g
     id="vertical-centerindicator"
     transform="translate(1,-28)">
    <rect
       x="11"
       y="32"
       width="42"
       height="1"
       id="rect40"
       style="opacity:0.35;fill:#ffffff" />
  </g>
  <g
     id="horizontal-centerindicator"
     transform="translate(-4,17)">
    <path
       transform="rotate(-90)"
       d="m-31 8h42v1h-42z"
       id="path43"
       style="opacity:0.35;fill:#ffffff" />
  </g>
  <rect
     id="south-center"
     class="ColorScheme-ButtonFocus"
     x="71"
     y="66"
     width="10"
     height="12"
     fill="currentColor" />
  <rect
     id="south-bottom"
     class="ColorScheme-ButtonFocus"
     x="71"
     y="78"
     width="10"
     height="1"
     fill="currentColor" />
  <rect
     id="south-top"
     class="ColorScheme-ButtonFocus"
     x="71"
     y="65"
     width="10"
     height="1"
     fill="currentColor" />
  <rect
     id="north-center"
     class="ColorScheme-ButtonFocus"
     x="70"
     y="29"
     width="10"
     height="12"
     fill="currentColor" />
  <rect
     id="north-bottom"
     class="ColorScheme-ButtonFocus"
     x="70"
     y="41"
     width="10"
     height="1"
     fill="currentColor" />
  <rect
     id="north-top"
     class="ColorScheme-ButtonFocus"
     x="70"
     y="28"
     width="10"
     height="1"
     fill="currentColor" />
  <rect
     id="west-center"
     class="ColorScheme-ButtonFocus"
     transform="rotate(90)"
     x="113"
     y="-18"
     width="10"
     height="12"
     fill="currentColor" />
  <rect
     id="west-left"
     class="ColorScheme-ButtonFocus"
     transform="rotate(90)"
     x="113"
     y="-6"
     width="10"
     height="1"
     fill="currentColor" />
  <rect
     id="west-right"
     class="ColorScheme-ButtonFocus"
     transform="rotate(90)"
     x="113"
     y="-19"
     width="10"
     height="1"
     fill="currentColor" />
  <rect
     id="east-center"
     class="ColorScheme-ButtonFocus"
     transform="rotate(90)"
     x="112"
     y="-90"
     width="10"
     height="12"
     fill="currentColor" />
  <rect
     id="east-left"
     class="ColorScheme-ButtonFocus"
     transform="rotate(90)"
     x="112"
     y="-78"
     width="10"
     height="1"
     fill="currentColor" />
  <rect
     id="east-right"
     class="ColorScheme-ButtonFocus"
     transform="rotate(90)"
     x="112"
     y="-91"
     width="10"
     height="1"
     fill="currentColor" />
  <g
     id="north-offsetslider"
     transform="matrix(.73969 0 0 -.73969 127.53 -57.2)">
    <rect
       transform="matrix(1.3519 0 0 1.3519 -37.218 -180.08)"
       x="-40"
       y="56"
       width="28"
       height="19"
       fill="#fcfcfc"
       fill-opacity=".0039216"
       opacity=".01"
       id="rect84" />
    <path
       d="m -72.368154,-88.145034 9.463424,-13.519176 h -18.926848 z"
       id="path86"
       class="ColorScheme-Background"
       fill="currentColor" />
  </g>
  <g
     id="north-maxslider">
    <rect
       x="90.005821"
       y="7.000391"
       width="35.999527"
       height="14.999804"
       rx="2.9999607"
       ry="2.9999607"
       fill="#fcfcfc"
       fill-opacity="0.00392163"
       opacity="0.01"
       id="rect7"
       style="stroke-width:0.999987" />
    <rect
       class="ColorScheme-Background"
       x="108"
       y="9"
       width="1"
       height="11"
       fill="currentColor"
       id="rect8" />
    <path
       class="ColorScheme-Background"
       d="m 101.69367,9.1563626 -0.74999,0.687491 4.15615,4.1561454 H 93.005984 v 0.999987 h 12.093846 l -4.15615,4.156146 0.68749,0.687491 4.99994,-4.999935 0.37499,-0.343745 -0.37499,-0.343746 z"
       fill="currentColor"
       id="path8" />
  </g>
  <g
     id="north-minslider">
    <rect
       transform="scale(-1,1)"
       x="-125.99818"
       y="22.994181"
       width="35.999527"
       height="14.999804"
       rx="2.9999607"
       ry="2.9999607"
       fill="#fcfcfc"
       fill-opacity="0.00392163"
       opacity="0.01"
       id="rect10"
       style="stroke-width:0.999987" />
    <rect
       class="ColorScheme-Background"
       x="-108"
       y="25"
       width="1"
       height="11"
       fill="currentColor"
       id="rect11"
       transform="scale(-1,1)" />
    <path
       class="ColorScheme-Background"
       d="m 114.37333,25.150152 0.68749,0.687491 -4.15615,4.156145 h 12.09384 v 0.999987 h -12.09384 l 4.15615,4.156146 -0.68749,0.687491 -4.99994,-4.999935 -0.37499,-0.343745 0.37499,-0.343746 z"
       fill="currentColor"
       id="path11" />
  </g>
  <use
     x="0"
     y="0"
     xlink:href="#north-maxslider"
     id="south-maxslider"
     transform="translate(0,41.000001)" />
  <use
     x="0"
     y="0"
     xlink:href="#north-minslider"
     id="south-minslider"
     transform="translate(0,41.000001)" />
  <use
     x="0"
     y="0"
     xlink:href="#north-maxslider"
     id="east-maxslider"
     transform="matrix(0,1,1,0,90,-10)" />
  <use
     x="0"
     y="0"
     xlink:href="#north-minslider"
     id="east-minslider"
     transform="matrix(0,1,1,0,90,-10)" />
  <use
     x="0"
     y="0"
     xlink:href="#north-maxslider"
     id="west-maxslider"
     transform="matrix(0,1,1,0,19,-10)" />
  <use
     x="0"
     y="0"
     xlink:href="#north-minslider"
     id="west-minslider"
     transform="matrix(0,1,1,0,19,-10)" />
  <use
     x="0"
     y="0"
     xlink:href="#north-offsetslider"
     id="south-offsetslider"
     transform="matrix(1,0,0,-1,0.99944211,65.004108)" />
  <use
     x="0"
     y="0"
     xlink:href="#north-offsetslider"
     id="east-offsetslider"
     transform="matrix(0,-1,-1,0,89.999999,169)" />
  <use
     x="0"
     y="0"
     xlink:href="#north-offsetslider"
     id="west-offsetslider"
     transform="rotate(-90,85.5,83.5)" />
</svg>
