<?xml version="1.0" encoding="UTF-8" standalone="no"?>
<svg
   width="128"
   height="128"
   version="1.0"
   id="svg134"
   sodipodi:docname="containment-controls.svg"
   inkscape:version="1.2.2 (b0a8486541, 2022-12-01)"
   xmlns:inkscape="http://www.inkscape.org/namespaces/inkscape"
   xmlns:sodipodi="http://sodipodi.sourceforge.net/DTD/sodipodi-0.dtd"
   xmlns="http://www.w3.org/2000/svg"
   xmlns:svg="http://www.w3.org/2000/svg"
   xmlns:osb="http://www.openswatchbook.org/uri/2009/osb">
  <sodipodi:namedview
     id="namedview136"
     pagecolor="#474747"
     bordercolor="#666666"
     borderopacity="1.0"
     inkscape:showpageshadow="2"
     inkscape:pageopacity="0"
     inkscape:pagecheckerboard="0"
     inkscape:deskcolor="#d1d1d1"
     showgrid="false"
     inkscape:zoom="1.84375"
     inkscape:cx="21.423729"
     inkscape:cy="13.016949"
     inkscape:window-width="1920"
     inkscape:window-height="1006"
     inkscape:window-x="0"
     inkscape:window-y="0"
     inkscape:window-maximized="1"
     inkscape:current-layer="svg134" />
  <defs
     id="defs37">
    <style
       id="current-color-scheme"
       type="text/css">.ColorScheme-ButtonText {
        color:#31363b;
      }
      .ColorScheme-Background{
        color:#eff0f1;
      }
      .ColorScheme-ViewText {
        color:#31363b;
      }
      .ColorScheme-ViewBackground{
        color:#fcfcfc;
      }
      .ColorScheme-ViewHover {
        color:#3daee9;
      }
      .ColorScheme-ViewFocus{
        color:#3daee9;
      }
      .ColorScheme-ButtonText {
        color:#31363b;
      }
      .ColorScheme-ButtonBackground{
        color:#eff0f1;
      }
      .ColorScheme-ButtonHover {
        color:#3daee9;
      }
      .ColorScheme-ButtonFocus{
        color:#3daee9;
      }</style>
    <linearGradient
       id="linearGradient7">
      <stop
         stop-color="#888888"
         offset="0"
         id="stop3" />
      <stop
         stop-color="#232323"
         offset="1"
         id="stop5" />
    </linearGradient>
    <linearGradient
       id="linearGradient13">
      <stop
         stop-color="#ffffff"
         stop-opacity=".78431"
         offset="0"
         id="stop9" />
      <stop
         stop-color="#ffffff"
         stop-opacity=".19608"
         offset="1"
         id="stop11" />
    </linearGradient>
    <linearGradient
       id="linearGradient19">
      <stop
         stop-color="#ffffff"
         offset="0"
         id="stop15" />
      <stop
         stop-color="#b4b4b4"
         offset="1"
         id="stop17" />
    </linearGradient>
    <linearGradient
       osb:paint="solid"
       id="linearGradient23">
      <stop
         stop-color="#ffffff"
         offset="0"
         id="stop21" />
    </linearGradient>
    <linearGradient
       id="linearGradient29">
      <stop
         stop-color="#000000"
         stop-opacity=".078431"
         offset="0"
         id="stop25" />
      <stop
         stop-color="#000000"
         stop-opacity=".31373"
         offset="1"
         id="stop27" />
    </linearGradient>
    <linearGradient
       id="linearGradient35">
      <stop
         stop-color="#fafafa"
         offset="0"
         id="stop31" />
      <stop
         stop-color="#e2e2e2"
         stop-opacity=".70588"
         offset="1"
         id="stop33" />
    </linearGradient>
  </defs>
  <rect
     id="hint-tile-center"
     x="-10"
     width="5.2208"
     height="5.4026"
     fill="#023812"
     opacity=".65" />
  <g
     id="vertical-centerindicator"
     transform="translate(1,-28)">
    <rect
       x="11"
       y="32"
       width="42"
       height="1"
       id="rect40"
       style="opacity:0.35;fill:#ffffff" />
  </g>
  <g
     id="horizontal-centerindicator"
     transform="translate(-4,17)">
    <path
       transform="rotate(-90)"
       d="m-31 8h42v1h-42z"
       id="path43"
       style="opacity:0.35;fill:#ffffff" />
  </g>
  <g
     id="south-maxslider"
     transform="matrix(.73969 0 0 .73969 161.53 126.21)">
    <rect
       transform="matrix(1.3519 0 0 1.3519 -107.51 -181.44)"
       x="8"
       y="57"
       width="36"
       height="15"
       rx="3"
       ry="3"
       fill="#fcfcfc"
       fill-opacity=".0039216"
       opacity=".01"
       id="rect46" />
    <rect
       x="-73.716"
       y="-101.67"
       width="2.7039"
       height="14.871"
       id="rect48"
       style="fill:#ffffff" />
    <path
       transform="matrix(1.3519 0 0 1.3519 -107.51 -181.44)"
       d="m19.688 59.156-0.75 0.6875 4.1562 4.1562h-12.094v1h12.094l-4.1562 4.1562 0.6875 0.6875 5-5 0.375-0.34375-0.375-0.34375z"
       id="path50"
       style="fill:#ffffff" />
  </g>
  <g
     id="south-offsetslider"
     transform="matrix(.73969 0 0 .73969 129.53 125.2)">
    <rect
       transform="matrix(1.3519 0 0 1.3519 -37.218 -180.08)"
       x="-40"
       y="56"
       width="28"
       height="19"
       fill="#fcfcfc"
       fill-opacity=".0039216"
       opacity=".01"
       id="rect53" />
    <path
       d="m-72.266-88.185 9.733-13.48h-19.466z"
       id="path55"
       style="fill:#ffffff" />
  </g>
  <rect
     id="south-center"
     class="ColorScheme-ButtonFocus"
     x="71"
     y="66"
     width="10"
     height="12"
     fill="currentColor" />
  <rect
     id="south-bottom"
     class="ColorScheme-ButtonFocus"
     x="71"
     y="78"
     width="10"
     height="1"
     fill="currentColor" />
  <rect
     id="south-top"
     class="ColorScheme-ButtonFocus"
     x="71"
     y="65"
     width="10"
     height="1"
     fill="currentColor" />
  <rect
     id="north-center"
     class="ColorScheme-ButtonFocus"
     x="70"
     y="29"
     width="10"
     height="12"
     fill="currentColor" />
  <rect
     id="north-bottom"
     class="ColorScheme-ButtonFocus"
     x="70"
     y="41"
     width="10"
     height="1"
     fill="currentColor" />
  <rect
     id="north-top"
     class="ColorScheme-ButtonFocus"
     x="70"
     y="28"
     width="10"
     height="1"
     fill="currentColor" />
  <rect
     id="west-center"
     class="ColorScheme-ButtonFocus"
     transform="rotate(90)"
     x="113"
     y="-18"
     width="10"
     height="12"
     fill="currentColor" />
  <rect
     id="west-left"
     class="ColorScheme-ButtonFocus"
     transform="rotate(90)"
     x="113"
     y="-6"
     width="10"
     height="1"
     fill="currentColor" />
  <rect
     id="west-right"
     class="ColorScheme-ButtonFocus"
     transform="rotate(90)"
     x="113"
     y="-19"
     width="10"
     height="1"
     fill="currentColor" />
  <rect
     id="east-center"
     class="ColorScheme-ButtonFocus"
     transform="rotate(90)"
     x="112"
     y="-90"
     width="10"
     height="12"
     fill="currentColor" />
  <rect
     id="east-left"
     class="ColorScheme-ButtonFocus"
     transform="rotate(90)"
     x="112"
     y="-78"
     width="10"
     height="1"
     fill="currentColor" />
  <rect
     id="east-right"
     class="ColorScheme-ButtonFocus"
     transform="rotate(90)"
     x="112"
     y="-91"
     width="10"
     height="1"
     fill="currentColor" />
  <g
     id="south-minslider"
     transform="matrix(-.73969 0 0 .73969 54.474 141.21)">
    <rect
       transform="matrix(1.3519 0 0 1.3519 -107.51 -181.44)"
       x="8"
       y="57"
       width="36"
       height="15"
       rx="3"
       ry="3"
       fill="#fcfcfc"
       fill-opacity=".0039216"
       opacity=".01"
       id="rect70" />
    <rect
       x="-73.716"
       y="-101.67"
       width="2.7039"
       height="14.871"
       id="rect72"
       style="fill:#ffffff" />
    <path
       transform="matrix(1.3519 0 0 1.3519 -107.51 -181.44)"
       d="m19.625 59.156-0.6875 0.6875 4.1562 4.1562h-12.094v1h12.094l-4.1562 4.1562 0.6875 0.6875 5-5 0.375-0.34375-0.375-0.34375z"
       id="path74"
       style="fill:#ffffff" />
  </g>
  <g
     id="north-maxslider"
     transform="matrix(.73969 0 0 .73969 161.53 84.707)">
    <rect
       transform="matrix(1.3519 0 0 1.3519 -107.51 -181.44)"
       x="8"
       y="57"
       width="36"
       height="15"
       rx="3"
       ry="3"
       fill="#fcfcfc"
       fill-opacity=".0039216"
       opacity=".01"
       id="rect77" />
    <rect
       x="-73.716"
       y="-101.67"
       width="2.7039"
       height="14.871"
       id="rect79"
       style="fill:#ffffff" />
    <path
       transform="matrix(1.3519 0 0 1.3519 -107.51 -181.44)"
       d="m19.688 59.156-0.75 0.6875 4.1562 4.1562h-12.094v1h12.094l-4.1562 4.1562 0.6875 0.6875 5-5 0.375-0.34375-0.375-0.34375z"
       id="path81"
       style="fill:#ffffff" />
  </g>
  <g
     id="north-offsetslider"
     transform="matrix(.73969 0 0 -.73969 127.53 -57.2)">
    <rect
       transform="matrix(1.3519 0 0 1.3519 -37.218 -180.08)"
       x="-40"
       y="56"
       width="28"
       height="19"
       fill="#fcfcfc"
       fill-opacity=".0039216"
       opacity=".01"
       id="rect84" />
    <path
       d="m-72.266-88.185 9.733-13.48h-19.466z"
       id="path86"
       style="fill:#ffffff" />
  </g>
  <g
     id="north-minslider"
     transform="matrix(-.73969 0 0 .73969 54.474 99.707)">
    <rect
       transform="matrix(1.3519 0 0 1.3519 -107.51 -181.44)"
       x="8"
       y="57"
       width="36"
       height="15"
       rx="3"
       ry="3"
       fill="#fcfcfc"
       fill-opacity=".0039216"
       opacity=".01"
       id="rect89" />
    <rect
       x="-73.716"
       y="-101.67"
       width="2.7039"
       height="14.871"
       id="rect91"
       style="fill:#ffffff" />
    <path
       transform="matrix(1.3519 0 0 1.3519 -107.51 -181.44)"
       d="m19.625 59.156-0.6875 0.6875 4.1562 4.1562h-12.094v1h12.094l-4.1562 4.1562 0.6875 0.6875 5-5 0.375-0.34375-0.375-0.34375z"
       id="path93"
       style="fill:#ffffff" />
  </g>
  <g
     id="east-maxslider"
     transform="matrix(0 .73969 -.73969 0 33.793 153.53)">
    <rect
       transform="matrix(1.3519 0 0 1.3519 -107.51 -181.44)"
       x="8"
       y="57"
       width="36"
       height="15"
       rx="3"
       ry="3"
       fill="#fcfcfc"
       fill-opacity=".0039216"
       opacity=".01"
       id="rect96" />
    <rect
       x="-73.716"
       y="-101.67"
       width="2.7039"
       height="14.871"
       id="rect98"
       style="fill:#ffffff" />
    <path
       transform="matrix(1.3519 0 0 1.3519 -107.51 -181.44)"
       d="m19.688 59.156-0.75 0.6875 4.1562 4.1562h-12.094v1h12.094l-4.1562 4.1562 0.6875 0.6875 5-5 0.375-0.34375-0.375-0.34375z"
       id="path100"
       style="fill:#ffffff" />
  </g>
  <g
     id="east-offsetslider"
     transform="matrix(0 .73969 .73969 0 153.2 149.53)">
    <rect
       transform="matrix(1.3519 0 0 1.3519 -37.218 -180.08)"
       x="-40"
       y="56"
       width="28"
       height="19"
       fill="#fcfcfc"
       fill-opacity=".0039216"
       opacity=".01"
       id="rect103" />
    <path
       d="m-72.266-88.185 9.733-13.48h-19.466z"
       id="path105"
       style="fill:#ffffff" />
  </g>
  <g
     id="east-minslider"
     transform="matrix(0 -.73969 -.73969 0 49.793 46.474)">
    <rect
       transform="matrix(1.3519 0 0 1.3519 -107.51 -181.44)"
       x="8"
       y="57"
       width="36"
       height="15"
       rx="3"
       ry="3"
       fill="#fcfcfc"
       fill-opacity=".0039216"
       opacity=".01"
       id="rect108" />
    <rect
       x="-73.716"
       y="-101.67"
       width="2.7039"
       height="14.871"
       id="rect110"
       style="fill:#ffffff" />
    <path
       transform="matrix(1.3519 0 0 1.3519 -107.51 -181.44)"
       d="m19.625 59.156-0.6875 0.6875 4.1562 4.1562h-12.094v1h12.094l-4.1562 4.1562 0.6875 0.6875 5-5 0.375-0.34375-0.375-0.34375z"
       id="path112"
       style="fill:#ffffff" />
  </g>
  <g
     id="west-maxslider"
     transform="matrix(0 .73969 -.73969 0 -38.207 153.53)">
    <rect
       transform="matrix(1.3519 0 0 1.3519 -107.51 -181.44)"
       x="8"
       y="57"
       width="36"
       height="15"
       rx="3"
       ry="3"
       fill="#fcfcfc"
       fill-opacity=".0039216"
       opacity=".01"
       id="rect115" />
    <rect
       x="-73.716"
       y="-101.67"
       width="2.7039"
       height="14.871"
       id="rect117"
       style="fill:#ffffff" />
    <path
       transform="matrix(1.3519 0 0 1.3519 -107.51 -181.44)"
       d="m19.688 59.156-0.75 0.6875 4.1562 4.1562h-12.094v1h12.094l-4.1562 4.1562 0.6875 0.6875 5-5 0.375-0.34375-0.375-0.34375z"
       id="path119"
       style="fill:#ffffff" />
  </g>
  <g
     id="west-offsetslider"
     transform="matrix(0 .73969 -.73969 0 -57.2 149.53)">
    <rect
       transform="matrix(1.3519 0 0 1.3519 -37.218 -180.08)"
       x="-40"
       y="56"
       width="28"
       height="19"
       fill="#fcfcfc"
       fill-opacity=".0039216"
       opacity=".01"
       id="rect122" />
    <path
       d="m-72.266-88.185 9.733-13.48h-19.466z"
       id="path124"
       style="fill:#ffffff" />
  </g>
  <g
     id="west-minslider"
     transform="matrix(0 -.73969 -.73969 0 -18.707 46.474)">
    <rect
       transform="matrix(1.3519 0 0 1.3519 -107.51 -181.44)"
       x="8"
       y="57"
       width="36"
       height="15"
       rx="3"
       ry="3"
       fill="#fcfcfc"
       fill-opacity=".0039216"
       opacity=".01"
       id="rect127" />
    <rect
       x="-73.716"
       y="-101.67"
       width="2.7039"
       height="14.871"
       id="rect129"
       style="fill:#ffffff" />
    <path
       transform="matrix(1.3519 0 0 1.3519 -107.51 -181.44)"
       d="m19.625 59.156-0.6875 0.6875 4.1562 4.1562h-12.094v1h12.094l-4.1562 4.1562 0.6875 0.6875 5-5 0.375-0.34375-0.375-0.34375z"
       id="path131"
       style="fill:#ffffff" />
  </g>
</svg>
