<svg width="56" height="56" version="1.1" viewBox="0 0 56 56" xmlns="http://www.w3.org/2000/svg" xmlns:xlink="http://www.w3.org/1999/xlink">
 <defs>
  <linearGradient id="linearGradient937">
   <stop class="ColorScheme-Highlight" stop-color="#5294e2" stop-opacity=".87451" offset="0"/>
   <stop class="ColorScheme-Highlight" stop-color="#5294e2" stop-opacity=".62745" offset=".5"/>
   <stop class="ColorScheme-Highlight" stop-color="#5294e2" stop-opacity="0" offset="1"/>
  </linearGradient>
  <linearGradient id="linearGradient888" x1="28" x2="28" y1="926.36" y2="914.36" gradientTransform="translate(0 -2.8217e-5)" gradientUnits="userSpaceOnUse" xlink:href="#linearGradient937"/>
  <linearGradient id="linearGradient888-2" x1="28" x2="28" y1="926.36" y2="914.36" gradientTransform="translate(904.36 -960.36)" gradientUnits="userSpaceOnUse" xlink:href="#linearGradient937"/>
  <linearGradient id="linearGradient888-9" x1="28" x2="28" y1="926.36" y2="914.36" gradientTransform="translate(0 -1864.7)" gradientUnits="userSpaceOnUse" xlink:href="#linearGradient937"/>
  <linearGradient id="linearGradient888-6" x1="28" x2="28" y1="926.36" y2="914.36" gradientTransform="translate(-960.36 -904.36)" gradientUnits="userSpaceOnUse" xlink:href="#linearGradient937"/>
  <radialGradient id="radialGradient1434" cx="22" cy="22" r="6" gradientTransform="matrix(-7.6817e-8 -2 2 -7.6817e-8 -22 970.36)" gradientUnits="userSpaceOnUse" xlink:href="#linearGradient937"/>
  <radialGradient id="radialGradient1434-2" cx="22" cy="22" r="6" gradientTransform="matrix(7.6817e-8 -2 -2 -7.6817e-8 78 970.36)" gradientUnits="userSpaceOnUse" xlink:href="#linearGradient937"/>
  <radialGradient id="radialGradient1434-9" cx="22" cy="22" r="6" gradientTransform="matrix(7.6817e-8 2 -2 7.6817e-8 78 894.36)" gradientUnits="userSpaceOnUse" xlink:href="#linearGradient937"/>
  <radialGradient id="radialGradient1434-4" cx="22" cy="22" r="6" gradientTransform="matrix(-7.6817e-8 2 2 7.6817e-8 -22 894.36)" gradientUnits="userSpaceOnUse" xlink:href="#linearGradient937"/>
 </defs>
 <rect id="hint-glow-radius" y="2.6172e-6" width="5" height="5" fill="#ff6600"/>
 <rect id="hint-tile-center" y="6" width="5" height="5" fill="#ff6600"/>
 <g id="top" transform="translate(0 -904.36)">
  <rect x="22" y="914.36" width="12" height="12" rx="0" ry="0" fill="url(#linearGradient888)" fill-rule="evenodd"/>
  <rect x="22" y="914.36" width="12" height="12" fill="none"/>
 </g>
 <g id="left" transform="translate(0 -904.36)">
  <rect x="10" y="926.36" width="12" height="12" fill="none"/>
  <rect transform="rotate(-90)" x="-938.36" y="10" width="12" height="12" rx="0" ry="0" fill="url(#linearGradient888-6)" fill-rule="evenodd"/>
 </g>
 <g id="right" transform="translate(0 -904.36)">
  <rect transform="rotate(90)" x="926.36" y="-46" width="12" height="12" rx="0" ry="0" fill="url(#linearGradient888-2)" fill-rule="evenodd"/>
 </g>
 <g id="center" transform="translate(0 -904.36)">
  <rect x="22" y="926.36" width="12" height="12" fill="none"/>
  <rect x="22" y="926.36" width="12" height="12" fill="#5294e2" fill-rule="evenodd"/>
 </g>
 <g id="bottom" transform="translate(0 -904.36)">
  <rect x="22" y="938.36" width="12" height="12" fill="none"/>
  <rect transform="scale(1,-1)" x="22" y="-950.36" width="12" height="12" rx="0" ry="0" fill="url(#linearGradient888-9)" fill-rule="evenodd"/>
 </g>
 <g id="bottomright" transform="translate(0 -904.36)">
  <rect x="34" y="938.36" width="12" height="12" fill="none"/>
  <path d="m34 950.36a12 12 0 0 0 12-12h-12z" fill="url(#radialGradient1434-9)" fill-rule="evenodd"/>
 </g>
 <g id="topright" transform="translate(0 -904.36)">
  <rect x="34" y="914.36" width="12" height="12" fill="none"/>
  <path d="m34 914.36a12 12 0 0 1 12 12h-12z" fill="url(#radialGradient1434-2)" fill-rule="evenodd"/>
 </g>
 <g id="bottomleft" transform="translate(0 -904.36)">
  <rect x="10" y="938.36" width="12" height="12" fill="none"/>
  <path d="m22 950.36a12 12 0 0 1-12-12h12z" fill="url(#radialGradient1434-4)" fill-rule="evenodd"/>
 </g>
 <g id="topleft" transform="translate(0 -904.36)">
  <rect x="10" y="914.36" width="12" height="12" fill="none"/>
  <path d="m22 914.36a12 12 0 0 0-12 12h12z" fill="url(#radialGradient1434)" fill-rule="evenodd"/>
 </g>
</svg>
