<?xml version="1.0" encoding="UTF-8" standalone="no"?>
<svg
   xmlns:svg="http://www.w3.org/2000/svg"
   xmlns="http://www.w3.org/2000/svg"
   xmlns:sodipodi="http://sodipodi.sourceforge.net/DTD/sodipodi-0.dtd"
   xmlns:inkscape="http://www.inkscape.org/namespaces/inkscape"
   width="17"
   height="57"
   version="1.0"
   id="svg176"
   sodipodi:docname="lineedit.svg"
   inkscape:version="1.0.2 (e86c870879, 2021-01-15)">
  <sodipodi:namedview
     pagecolor="#ffffff"
     bordercolor="#666666"
     borderopacity="1"
     objecttolerance="10"
     gridtolerance="10"
     guidetolerance="10"
     inkscape:pageopacity="0"
     inkscape:pageshadow="2"
     inkscape:window-width="1366"
     inkscape:window-height="697"
     id="namedview178"
     showgrid="false"
     inkscape:zoom="4.4298246"
     inkscape:cx="90.403733"
     inkscape:cy="40.090797"
     inkscape:window-x="0"
     inkscape:window-y="0"
     inkscape:window-maximized="1"
     inkscape:current-layer="svg176" />
  <defs
     id="defs3">
    <style
       id="current-color-scheme"
       type="text/css">.ColorScheme-Text {
        color:#31363b;
      }
      .ColorScheme-Background{
        color:#eff0f1;
      }
      .ColorScheme-ViewText {
        color:#31363b;
      }
      .ColorScheme-ViewBackground{
        color:#eeeeee;
      }
      .ColorScheme-ViewHover {
        color:#3daee9;
      }
      .ColorScheme-ViewFocus{
        color:#3daee9;
      }
      .ColorScheme-ButtonText {
        color:#31363b;
      }
      .ColorScheme-ButtonBackground{
        color:#eff0f1;
      }
      .ColorScheme-ButtonHover {
        color:#3daee9;
      }
      .ColorScheme-ButtonFocus{
        color:#3daee9;
      }</style>
  </defs>
  <rect
     id="base-center"
     class="ColorScheme-ViewBackground"
     x="35"
     y="-35"
     width="80"
     height="20"
     fill="currentColor" />
  <g
     id="base-top"
     transform="translate(-115,-2)"
     fill="currentColor">
    <rect
       class="ColorScheme-ViewBackground"
       x="150"
       y="-35"
       width="80"
       height="2"
       id="rect6"
       fill="currentColor" />
    <rect
       class="ColorScheme-Text"
       x="150"
       y="-36"
       width="80"
       height="1"
       opacity=".25"
       id="rect8"
       fill="currentColor" />
  </g>
  <g
     id="base-topleft">
    <rect
       class="ColorScheme-ViewBackground"
       x="34"
       y="-36"
       width="1"
       height="1"
       fill="currentColor"
       id="rect11" />
    <path
       class="ColorScheme-Text"
       d="m 33,-36 a 2,2 0 0 1 2,-2 v 2 z"
       fill="currentColor"
       opacity="0.25"
       id="path13"
       style="stroke-width:2" />
    <path
       class="ColorScheme-ViewBackground"
       d="m 34,-36 a 1,1 0 0 1 1,-1 v 1 z"
       fill="currentColor"
       id="path15" />
    <rect
       class="ColorScheme-Text"
       x="33"
       y="-36"
       width="1"
       height="1"
       fill="currentColor"
       opacity="0.25"
       id="rect17" />
  </g>
  <rect
     id="focus-center"
     class="ColorScheme-ViewBackground"
     x="35"
     y="11"
     width="80"
     height="20"
     fill="currentColor" />
  <g
     id="focus-top"
     transform="translate(-115,44)">
    <rect
       class="ColorScheme-ViewBackground"
       x="150"
       y="-37"
       width="80"
       height="1"
       fill="currentColor"
       id="rect23" />
    <rect
       x="150"
       y="-36"
       width="80"
       height="3"
       id="rect25"
       class="ColorScheme-ViewBackground"
       fill="currentColor" />
    <rect
       class="ColorScheme-ViewFocus"
       x="150"
       y="-38"
       width="80"
       height="1"
       fill="currentColor"
       id="rect27" />
  </g>
  <g
     id="focus-topright"
     transform="translate(-115,44)">
    <path
       class="ColorScheme-ViewFocus"
       transform="translate(115,-44)"
       d="m115 6v1c1.1046 0 2 0.89543 2 2h1c0-1.6569-1.3432-3-3-3z"
       fill="currentColor"
       id="path30" />
    <path
       class="ColorScheme-ViewBackground"
       transform="translate(115,-44)"
       d="m115 7v1c0.55228 0 1 0.44772 1 1h1c0-1.1046-0.89543-2-2-2z"
       fill="currentColor"
       id="path32" />
    <path
       transform="translate(115,-44)"
       d="m115 8v1 2h1v-2c0-0.55228-0.44772-1-1-1z"
       id="path34"
       class="ColorScheme-ViewBackground"
       fill="currentColor" />
    <rect
       class="ColorScheme-ViewBackground"
       transform="scale(-1,1)"
       x="-232"
       y="-35"
       width="1"
       height="2"
       fill="currentColor"
       id="rect36" />
    <rect
       class="ColorScheme-ViewFocus"
       transform="scale(-1,1)"
       x="-233"
       y="-35"
       width="1"
       height="2"
       fill="currentColor"
       id="rect38" />
  </g>
  <rect
     id="hover-center"
     class="ColorScheme-ViewBackground"
     x="35"
     y="57"
     width="80"
     height="20"
     fill="currentColor" />
  <g
     id="hover-top"
     transform="translate(-115,90)">
    <rect
       class="ColorScheme-ViewBackground"
       x="150"
       y="-34"
       width="80"
       height="1"
       id="rect42"
       fill="currentColor" />
    <rect
       class="ColorScheme-ViewHover"
       x="150"
       y="-35"
       width="80"
       height="1"
       id="rect44"
       fill="currentColor" />
  </g>
  <g
     id="hover-topright">
    <path
       class="ColorScheme-ViewBackground"
       d="m 116,57 a -1,1 0 0 0 -1,-1 v 1 z"
       id="path47"
       fill="currentColor" />
    <path
       class="ColorScheme-ViewFocus"
       d="m 115,55 v 1 c 0.55228,0 1,0.44772 1,1 h 1 c 0,-1.1046 -0.89543,-2 -2,-2 z"
       id="path49"
       fill="currentColor" />
  </g>
  <rect
     id="hint-tile-center"
     x="-2.74"
     y="-1.3406"
     width="2.0329"
     height="2.0771"
     rx="0"
     ry="2.0771"
     fill="#4e9a06" />
  <rect
     id="base-hint-top-margin"
     x="73"
     y="-39"
     width="2"
     height="6"
     fill="#4e9a06" />
  <rect
     id="focus-hint-top-margin"
     x="73"
     y="11.99"
     width="2"
     height=".01"
     fill="#4e9a06" />
  <rect
     id="focus-hint-bottom-margin"
     x="73"
     y="31.99"
     width="2"
     height=".01"
     fill="#4e9a06" />
  <rect
     id="hover-hint-top-margin"
     x="73"
     y="57.99"
     width="2"
     height=".01"
     fill="#4e9a06" />
  <rect
     id="hover-hint-left-margin"
     x="34"
     y="65"
     width=".01"
     height="2"
     fill="#4e9a06" />
  <rect
     id="hover-hint-right-margin"
     x="112"
     y="65"
     width=".01"
     height="2"
     fill="#4e9a06" />
  <rect
     id="focus-hint-left-margin"
     x="34"
     y="18"
     width=".01"
     height="2"
     fill="#4e9a06" />
  <rect
     id="focus-hint-right-margin"
     x="112"
     y="18"
     width=".01"
     height="2"
     fill="#4e9a06" />
  <rect
     id="hover-hint-bottom-margin"
     x="73"
     y="77.99"
     width="2"
     height=".01"
     fill="#4e9a06" />
  <rect
     id="hint-focus-over-base"
     x="1.7897"
     y="10.923"
     width="2.0329"
     height="2.0771"
     rx="0"
     ry="2.0771"
     fill="#4e9a06"
     opacity=".99" />
  <g
     id="base-left">
    <rect
       class="ColorScheme-ViewBackground"
       fill="currentColor"
       x="34"
       y="-35"
       width="1"
       height="20"
       id="rect63" />
    <rect
       class="ColorScheme-Text"
       fill="currentColor"
       x="33"
       y="-35"
       width="1"
       height="20"
       opacity=".25"
       id="rect65" />
  </g>
  <rect
     id="base-hint-left-margin"
     x="32"
     y="-27"
     width="6"
     height="2"
     fill="#4e9a06" />
  <g
     id="base-topright">
    <rect
       class="ColorScheme-ViewBackground"
       fill="currentColor"
       transform="scale(-1,1)"
       x="-116"
       y="-36"
       width="1"
       height="1"
       id="rect69" />
    <path
       class="ColorScheme-Text"
       fill="currentColor"
       d="m 117,-36 a 2,2 0 0 0 -2,-2 v 2 z"
       opacity="0.25"
       id="path71"
       style="stroke-width:2" />
    <path
       class="ColorScheme-ViewBackground"
       fill="currentColor"
       d="m 116,-36 a -1,1 0 0 0 -1,-1 v 1 z"
       id="path73" />
    <rect
       class="ColorScheme-Text"
       fill="currentColor"
       transform="scale(-1,1)"
       x="-117"
       y="-36"
       width="1"
       height="1"
       opacity="0.25"
       id="rect75" />
  </g>
  <g
     id="base-bottomright"
     transform="matrix(-1,0,0,1,265,-2)">
    <path
       class="ColorScheme-Text"
       fill="currentColor"
       transform="matrix(2,0,0,-2,-150,-83)"
       d="m149-35a1 1 0 0 1 1-1v1z"
       opacity=".25"
       id="path78" />
    <path
       class="ColorScheme-ViewBackground"
       fill="currentColor"
       transform="matrix(1 0 0 -1 -3.9231e-8 -48)"
       d="m149-35a1 1 0 0 1 1-1v1z"
       id="path80" />
  </g>
  <g
     id="base-right"
     transform="matrix(-1,0,0,1,150,0)">
    <rect
       class="ColorScheme-ViewBackground"
       fill="currentColor"
       x="34"
       y="-35"
       width="1"
       height="20"
       id="rect83" />
    <rect
       class="ColorScheme-Text"
       fill="currentColor"
       x="33"
       y="-35"
       width="1"
       height="20"
       opacity=".25"
       id="rect85" />
  </g>
  <rect
     id="base-hint-right-margin"
     x="112"
     y="-27"
     width="6"
     height="2"
     fill="#4e9a06" />
  <g
     id="base-bottom"
     transform="matrix(1,0,0,-1,-115,-49)">
    <rect
       class="ColorScheme-ViewBackground"
       fill="currentColor"
       x="150"
       y="-35"
       width="80"
       height="1"
       id="rect89" />
    <rect
       class="ColorScheme-Text"
       fill="currentColor"
       x="150"
       y="-36"
       width="80"
       height="1"
       opacity=".25"
       id="rect91" />
  </g>
  <rect
     id="base-hint-bottom-margin"
     x="73"
     y="-18"
     width="2"
     height="6"
     fill="#4e9a06" />
  <g
     id="base-bottomleft">
    <path
       class="ColorScheme-Text"
       fill="currentColor"
       d="m 33,-15 a 2,2 0 0 0 2,2 v -2 z"
       opacity="0.25"
       id="path95"
       style="stroke-width:2" />
    <path
       class="ColorScheme-ViewBackground"
       fill="currentColor"
       d="m 34,-15 a 1,-1 0 0 0 1,1 v -1 z"
       id="path97" />
  </g>
  <g
     id="focus-right">
    <rect
       class="ColorScheme-ViewBackground"
       transform="scale(-1,1)"
       x="-116"
       y="11"
       width="1"
       height="20"
       id="rect100"
       fill="currentColor" />
    <rect
       class="ColorScheme-ViewBackground"
       transform="scale(-1,1)"
       x="-117"
       y="11"
       width="1"
       height="20"
       id="rect102"
       fill="currentColor" />
    <rect
       class="ColorScheme-ViewFocus"
       transform="scale(-1,1)"
       x="-118"
       y="11"
       width="1"
       height="20"
       id="rect104"
       fill="currentColor" />
  </g>
  <g
     id="focus-left"
     transform="matrix(-1,0,0,1,150,0)">
    <rect
       class="ColorScheme-ViewBackground"
       fill="currentColor"
       transform="scale(-1,1)"
       x="-116"
       y="11"
       width="1"
       height="20"
       id="rect107" />
    <rect
       class="ColorScheme-ViewBackground"
       fill="currentColor"
       transform="scale(-1,1)"
       x="-117"
       y="11"
       width="1"
       height="20"
       id="rect109" />
    <rect
       class="ColorScheme-ViewFocus"
       fill="currentColor"
       transform="scale(-1,1)"
       x="-118"
       y="11"
       width="1"
       height="20"
       id="rect111" />
  </g>
  <g
     id="focus-bottomright">
    <path
       class="ColorScheme-ViewBackground"
       fill="currentColor"
       d="m116 31c0 0.55228-0.44772 1-1 1v1c1.1046 0 2-0.89543 2-2z"
       id="path114" />
    <path
       class="ColorScheme-ViewBackground"
       fill="currentColor"
       transform="matrix(-1,0,0,-1,265,-4)"
       d="m149-35a1 1 0 0 1 1-1v1z"
       id="path116" />
    <path
       class="ColorScheme-ViewFocus"
       fill="currentColor"
       d="m115 34v-1c1.1046 0 2-0.89543 2-2h1c0 1.6569-1.3432 3-3 3z"
       id="path118" />
  </g>
  <g
     id="focus-bottom">
    <rect
       class="ColorScheme-ViewBackground"
       fill="currentColor"
       x="35"
       y="31"
       width="80"
       height="1"
       id="rect121" />
    <rect
       class="ColorScheme-ViewBackground"
       fill="currentColor"
       x="35"
       y="32"
       width="80"
       height="1"
       id="rect123" />
    <rect
       class="ColorScheme-ViewFocus"
       fill="currentColor"
       x="35"
       y="33"
       width="80"
       height="1"
       id="rect125" />
  </g>
  <g
     id="focus-bottomleft">
    <path
       class="ColorScheme-ViewBackground"
       fill="currentColor"
       d="m 34,31 c 0,0.55228 0.44772,1 1,1 v 1 c -1.1046,0 -2,-0.89543 -2,-2 z"
       id="path128" />
    <path
       class="ColorScheme-ViewBackground"
       fill="currentColor"
       d="m 34,31 a 1,-1 0 0 0 1,1 v -1 z"
       id="path130" />
    <path
       class="ColorScheme-ViewFocus"
       fill="currentColor"
       d="m 35,34 v -1 c -1.1046,0 -2,-0.89543 -2,-2 h -1 c 0,1.6569 1.3432,3 3,3 z"
       id="path132" />
  </g>
  <g
     id="focus-topleft"
     transform="matrix(-1,0,0,1,265,44)">
    <path
       class="ColorScheme-ViewFocus"
       transform="translate(115,-44)"
       d="m115 6v1c1.1046 0 2 0.89543 2 2h1c0-1.6569-1.3432-3-3-3z"
       fill="currentColor"
       id="path135" />
    <path
       class="ColorScheme-ViewBackground"
       transform="translate(115,-44)"
       d="m115 7v1c0.55228 0 1 0.44772 1 1h1c0-1.1046-0.89543-2-2-2z"
       fill="currentColor"
       id="path137" />
    <path
       transform="translate(115,-44)"
       d="m115 8v1 2h1v-2c0-0.55228-0.44772-1-1-1z"
       id="path139"
       class="ColorScheme-ViewBackground"
       fill="currentColor" />
    <rect
       class="ColorScheme-ViewBackground"
       transform="scale(-1,1)"
       x="-232"
       y="-35"
       width="1"
       height="2"
       fill="currentColor"
       id="rect141" />
    <rect
       class="ColorScheme-ViewFocus"
       transform="scale(-1,1)"
       x="-233"
       y="-35"
       width="1"
       height="2"
       fill="currentColor"
       id="rect143" />
  </g>
  <g
     id="hover-topleft"
     transform="matrix(-1,0,0,1,265,90)">
    <path
       class="ColorScheme-ViewBackground"
       fill="currentColor"
       transform="matrix(-1,0,0,1,380,2)"
       d="m149-35a1 1 0 0 1 1-1v1z"
       id="path146" />
    <path
       class="ColorScheme-ViewFocus"
       fill="currentColor"
       d="m230-35v1c0.55228 0 1 0.44772 1 1h1c0-1.1046-0.89543-2-2-2z"
       id="path148" />
  </g>
  <g
     id="hover-right">
    <rect
       class="ColorScheme-ViewBackground"
       fill="currentColor"
       transform="scale(-1,1)"
       x="-116"
       y="57"
       width="1"
       height="20"
       id="rect151" />
    <rect
       class="ColorScheme-ViewHover"
       fill="currentColor"
       transform="scale(-1,1)"
       x="-117"
       y="57"
       width="1"
       height="20"
       id="rect153" />
  </g>
  <g
     id="hover-left">
    <rect
       class="ColorScheme-ViewBackground"
       fill="currentColor"
       x="34"
       y="57"
       width="1"
       height="20"
       id="rect156" />
    <rect
       class="ColorScheme-ViewHover"
       fill="currentColor"
       x="33"
       y="57"
       width="1"
       height="20"
       id="rect158" />
  </g>
  <g
     id="hover-bottomright"
     transform="matrix(1,0,0,-1,-115,44)">
    <path
       class="ColorScheme-ViewBackground"
       fill="currentColor"
       transform="matrix(-1,0,0,1,380,2)"
       d="m149-35a1 1 0 0 1 1-1v1z"
       id="path161" />
    <path
       class="ColorScheme-ViewFocus"
       fill="currentColor"
       d="m230-35v1c0.55228 0 1 0.44772 1 1h1c0-1.1046-0.89543-2-2-2z"
       id="path163" />
  </g>
  <g
     id="hover-bottom">
    <rect
       class="ColorScheme-ViewHover"
       fill="currentColor"
       x="35"
       y="78"
       width="80"
       height="1"
       id="rect166" />
    <rect
       class="ColorScheme-ViewBackground"
       fill="currentColor"
       x="35"
       y="77"
       width="80"
       height="1"
       id="rect168" />
  </g>
  <g
     id="hover-bottomleft">
    <path
       class="ColorScheme-ViewBackground"
       fill="currentColor"
       d="m 34,77 a 1,-1 0 0 0 1,1 v -1 z"
       id="path171" />
    <path
       class="ColorScheme-ViewFocus"
       fill="currentColor"
       d="m 35,79 v -1 c -0.55228,0 -1,-0.44772 -1,-1 h -1 c 0,1.1046 0.89543,2 2,2 z"
       id="path173" />
  </g>
</svg>
