<?xml version="1.0" encoding="UTF-8" standalone="no"?>
<svg
   version="1.1"
   viewBox="0 0 173 56"
   id="svg44"
   sodipodi:docname="plasmoidheading.svg"
   inkscape:version="1.1.2 (0a00cf5339, 2022-02-04, custom)"
   xmlns:inkscape="http://www.inkscape.org/namespaces/inkscape"
   xmlns:sodipodi="http://sodipodi.sourceforge.net/DTD/sodipodi-0.dtd"
   xmlns="http://www.w3.org/2000/svg"
   xmlns:svg="http://www.w3.org/2000/svg">
  <defs
     id="defs48" />
  <sodipodi:namedview
     id="namedview46"
     pagecolor="#ffffff"
     bordercolor="#666666"
     borderopacity="1.0"
     inkscape:pageshadow="2"
     inkscape:pageopacity="0.0"
     inkscape:pagecheckerboard="0"
     showgrid="false"
     inkscape:zoom="31.445087"
     inkscape:cx="29.320956"
     inkscape:cy="45.603309"
     inkscape:window-width="1920"
     inkscape:window-height="1008"
     inkscape:window-x="0"
     inkscape:window-y="0"
     inkscape:window-maximized="1"
     inkscape:current-layer="svg44" />
  <style
     id="current-color-scheme"
     type="text/css">.ColorScheme-Text {
            color:#232629;
        }
        .ColorScheme-Background {
            color:#eff0f1;
        }</style>
  <path
     id="hint-stretch-borders"
     d="m-7-7h5v5h-5z"
     opacity=".6" />
  <path
     id="header-center"
     class="ColorScheme-Background"
     d="m19 12h32v32h-32z"
     fill="currentColor"
     opacity=".75" />
  <path
     id="header-right"
     class="ColorScheme-Background"
     d="m51 12h6v32h-6z"
     fill="currentColor"
     opacity=".75" />
  <path
     id="header-top"
     class="ColorScheme-Background"
     transform="rotate(-90)"
     d="m-12 19h6v32h-6z"
     fill="currentColor"
     opacity=".75" />
  <g
     id="header-bottom"
     fill="currentColor">
    <path
       class="ColorScheme-Background"
       d="m51 44v5h-32v-5z"
       opacity=".75"
       id="path7"
       fill="currentColor" />
    <path
       id="border-bottom"
       class="ColorScheme-Text"
       transform="rotate(90)"
       d="m49-51h1v32h-1z"
       fill="currentColor"
       style="opacity:0.15" />
  </g>
  <path
     id="header-left"
     class="ColorScheme-Background"
     transform="scale(-1)"
     d="m-19-44h6v32h-6z"
     fill="currentColor"
     opacity=".75" />
  <g
     id="header-bottomright"
     fill="currentColor">
    <path
       class="ColorScheme-Background"
       d="m57 44h-6v5h6v-4.1667z"
       opacity=".75"
       id="path12"
       fill="currentColor" />
    <path
       id="border-bottomright"
       class="ColorScheme-Text"
       d="m57 49h-6v1h6c0-1-2e-5 0 0-1z"
       fill="currentColor"
       style="opacity:0.15" />
  </g>
  <g
     id="header-bottomleft"
     fill="currentColor">
    <path
       class="ColorScheme-Background"
       d="m19 49v-5h-6v5c6 3.4e-5 0 0 4 0h1z"
       opacity=".75"
       id="path16"
       fill="currentColor" />
    <path
       id="border-bottomleft"
       class="ColorScheme-Text"
       d="m19 50v-1h-4l-2-2e-5v1l2 2e-5h1z"
       fill="currentColor"
       style="opacity:0.15" />
  </g>
  <path
     id="header-topleft"
     class="ColorScheme-Background"
     d="m16 6c-2 0-3 1-3 3v3h6v-6h-1 1z"
     fill="currentColor"
     opacity=".75" />
  <path
     id="header-topright"
     class="ColorScheme-Background"
     d="m51 6v6h6v-3c0-2-1-3-3-3h-2z"
     fill="currentColor"
     opacity=".75" />
  <path
     id="footer-center"
     class="ColorScheme-Background"
     transform="scale(1 -1)"
     d="m67-44h32v32h-32z"
     fill="currentColor"
     opacity=".75" />
  <path
     id="footer-right"
     class="ColorScheme-Background"
     transform="scale(1 -1)"
     d="m99-44h6v32h-6z"
     fill="currentColor"
     opacity=".75" />
  <path
     id="footer-bottom"
     class="ColorScheme-Background"
     transform="matrix(0 1 1 0 0 0)"
     d="m44 67h6v32h-6z"
     fill="currentColor"
     opacity=".75" />
  <g
     id="footer-top"
     fill="currentColor">
    <path
       class="ColorScheme-Background"
       d="m99 12v-5h-32v5z"
       opacity=".75"
       id="path25"
       fill="currentColor" />
    <path
       id="border-top"
       class="ColorScheme-Text"
       transform="matrix(0 -1 -1 0 0 0)"
       d="m-7-99h1v32h-1z"
       fill="currentColor"
       style="opacity:0.15" />
  </g>
  <path
     id="footer-left"
     class="ColorScheme-Background"
     transform="scale(-1 1)"
     d="m-67 12h6v32h-6z"
     fill="currentColor"
     opacity=".75" />
  <g
     id="footer-topright"
     fill="currentColor">
    <path
       class="ColorScheme-Background"
       d="m105 12h-6v-5h6v4.1667z"
       opacity=".75"
       id="path30"
       fill="currentColor" />
    <path
       id="border-topright"
       class="ColorScheme-Text"
       d="m105 7h-6v-1h6c0 1-2e-5 0 0 1z"
       fill="currentColor"
       style="opacity:0.15" />
  </g>
  <g
     id="footer-topleft"
     fill="currentColor">
    <path
       class="ColorScheme-Background"
       d="m67 7v5h-6v-5c6-3.33e-5 0 0 4 0h1z"
       opacity=".75"
       id="path34"
       fill="currentColor" />
    <path
       id="border-topleft"
       class="ColorScheme-Text"
       d="m67 6v1h-4l-2 2e-5v-1l2-2e-5h1z"
       fill="currentColor"
       style="opacity:0.15" />
  </g>
  <path
     id="footer-bottomleft"
     class="ColorScheme-Background"
     d="m64 50c-2 0-3-1-3-3v-3h6v6h-1 1z"
     fill="currentColor"
     opacity=".75" />
  <path
     id="footer-bottomright"
     class="ColorScheme-Background"
     d="m99 50v-6h6v3c0 2-1 3-3 3h-2z"
     fill="currentColor"
     opacity=".75" />
  <path
     id="hint-top-margin"
     d="m33 12h4v6h-4z"
     fill="#f0f" />
  <path
     id="hint-bottom-margin"
     d="m33 38h4v6h-4z"
     fill="#f0f" />
  <path
     id="hint-right-margin"
     transform="rotate(90)"
     d="m26-51h4v6h-4z"
     fill="#f0f" />
  <path
     id="hint-left-margin"
     transform="rotate(90)"
     d="m26-25h4v6h-4z"
     fill="#f0f" />
</svg>
