<?xml version="1.0" encoding="UTF-8" standalone="no"?>
<svg
   xmlns:dc="http://purl.org/dc/elements/1.1/"
   xmlns:cc="http://creativecommons.org/ns#"
   xmlns:rdf="http://www.w3.org/1999/02/22-rdf-syntax-ns#"
   xmlns:svg="http://www.w3.org/2000/svg"
   xmlns="http://www.w3.org/2000/svg"
   xmlns:sodipodi="http://sodipodi.sourceforge.net/DTD/sodipodi-0.dtd"
   xmlns:inkscape="http://www.inkscape.org/namespaces/inkscape"
   inkscape:version="1.0.2 (e86c870879, 2021-01-15)"
   sodipodi:docname="plasmoidheading.svg"
   version="1.1"
   viewBox="0 0 173 56.000004"
   id="svg2">
  <metadata
     id="metadata43">
    <rdf:RDF>
      <cc:Work
         rdf:about="">
        <dc:format>image/svg+xml</dc:format>
        <dc:type
           rdf:resource="http://purl.org/dc/dcmitype/StillImage" />
      </cc:Work>
    </rdf:RDF>
  </metadata>
  <defs
     id="defs41" />
  <sodipodi:namedview
     inkscape:current-layer="svg2"
     inkscape:window-maximized="1"
     inkscape:window-y="0"
     inkscape:window-x="0"
     inkscape:cy="49.872319"
     inkscape:cx="105.60454"
     inkscape:zoom="3.6011562"
     showgrid="true"
     id="namedview39"
     inkscape:window-height="701"
     inkscape:window-width="1366"
     inkscape:pageshadow="2"
     inkscape:pageopacity="0"
     guidetolerance="10"
     gridtolerance="10"
     objecttolerance="10"
     borderopacity="1"
     bordercolor="#666666"
     pagecolor="#ffffff"
     inkscape:document-rotation="0"
     inkscape:snap-bbox="true"
     inkscape:bbox-nodes="true"
     inkscape:snap-bbox-edge-midpoints="true">
    <inkscape:grid
       type="xygrid"
       id="grid865" />
  </sodipodi:namedview>
  <style
     type="text/css"
     id="current-color-scheme">.ColorScheme-Text {
            color:#232629;
        }
        .ColorScheme-Background {
            color:#eff0f1;
        }</style>
  <path
     opacity=".6"
     d="m-7-7h5v5h-5z"
     id="hint-stretch-borders" />
  <path
     opacity=".75"
     fill="currentColor"
     d="m19 12h32v32h-32z"
     class="ColorScheme-Background"
     id="header-center" />
  <path
     opacity=".75"
     fill="currentColor"
     d="m51 12h6v32h-6z"
     class="ColorScheme-Background"
     id="header-right" />
  <path
     opacity=".75"
     fill="currentColor"
     d="m-12 19h6v32h-6z"
     transform="rotate(-90)"
     class="ColorScheme-Background"
     id="header-top" />
  <g
     id="header-bottom">
    <path
       opacity="0.75"
       d="m 51,44 v 4.999985 H 19 V 44 Z"
       fill="currentColor"
       class="ColorScheme-Background"
       id="rect3152"
       style="stroke-width:0.91287" />
    <path
       d="m49-51h1v32h-1z"
       transform="rotate(90)"
       id="rect3154"
       style="opacity:0.2" />
  </g>
  <path
     opacity=".75"
     fill="currentColor"
     d="m-19-44h6v32h-6z"
     transform="scale(-1)"
     class="ColorScheme-Background"
     id="header-left" />
  <g
     id="header-bottomright">
    <path
       opacity="0.75"
       d="m 57,44 h -6 v 4.999985 h 6 v -4.166654 z"
       fill="currentColor"
       class="ColorScheme-Background"
       id="path3176"
       style="stroke-width:0.91287" />
    <path
       d="m57 49h-6v1h6c0-1-2e-5 0 0-1z"
       id="path3178"
       style="opacity:0.2" />
  </g>
  <g
     id="header-bottomleft">
    <path
       opacity="0.75"
       d="M 19,48.999985 V 44 h -6 v 4.999985 c 6,3.4e-5 0,0 4,0 h 1 z"
       fill="currentColor"
       class="ColorScheme-Background"
       id="path3182"
       style="stroke-width:0.91287" />
    <path
       d="m19 50v-1h-4l-2-2e-5v1l2 2e-5h1z"
       id="path3184"
       style="opacity:0.2" />
  </g>
  <path
     opacity=".75"
     fill="currentColor"
     d="m16 6c-2 0-3 1-3 3v3h6v-6h-1 1z"
     class="ColorScheme-Background"
     id="header-topleft" />
  <path
     opacity=".75"
     fill="currentColor"
     d="m51 6v6h6v-3c0-2-1-3-3-3h-2z"
     class="ColorScheme-Background"
     id="header-topright" />
  <path
     opacity=".75"
     fill="currentColor"
     d="m67-44h32v32h-32z"
     transform="scale(1 -1)"
     class="ColorScheme-Background"
     id="footer-center" />
  <path
     opacity=".75"
     fill="currentColor"
     d="m99-44h6v32h-6z"
     transform="scale(1 -1)"
     class="ColorScheme-Background"
     id="footer-right" />
  <path
     opacity=".75"
     fill="currentColor"
     d="m44 67h6v32h-6z"
     transform="matrix(0 1 1 0 0 0)"
     class="ColorScheme-Background"
     id="footer-bottom" />
  <g
     id="footer-top">
    <path
       opacity="0.75"
       d="M 99,12 V 7.0000148 H 67 V 12 Z"
       fill="currentColor"
       class="ColorScheme-Background"
       id="rect3152-0"
       style="stroke-width:0.91287" />
    <path
       d="m-7-99h1v32h-1z"
       transform="matrix(0 -1 -1 0 0 0)"
       id="rect3154-9"
       style="opacity:0.2" />
  </g>
  <path
     opacity=".75"
     fill="currentColor"
     d="m-67 12h6v32h-6z"
     transform="scale(-1 1)"
     class="ColorScheme-Background"
     id="footer-left" />
  <g
     id="footer-topright">
    <path
       opacity="0.75"
       d="M 105,12 H 99 V 7.0000148 h 6 v 4.1666542 z"
       fill="currentColor"
       class="ColorScheme-Background"
       id="path3176-6"
       style="stroke-width:0.91287" />
    <path
       d="m105 7h-6v-1h6c0 1-2e-5 0 0 1z"
       id="path3178-2"
       style="opacity:0.2" />
  </g>
  <g
     id="footer-topleft">
    <path
       opacity="0.75"
       d="M 67,7.0000148 V 12 H 61 V 7.0000148 c 6,-3.33e-5 0,0 4,0 h 1 z"
       fill="currentColor"
       class="ColorScheme-Background"
       id="path3182-1"
       style="stroke-width:0.91287" />
    <path
       d="m67 6v1h-4l-2 2e-5v-1l2-2e-5h1z"
       id="path3184-8"
       style="opacity:0.2" />
  </g>
  <path
     opacity=".75"
     fill="currentColor"
     d="m64 50c-2 0-3-1-3-3v-3h6v6h-1 1z"
     class="ColorScheme-Background"
     id="footer-bottomleft" />
  <path
     opacity=".75"
     fill="currentColor"
     d="m99 50v-6h6v3c0 2-1 3-3 3h-2z"
     class="ColorScheme-Background"
     id="footer-bottomright" />
  <path
     fill="#f0f"
     d="m33 12h4v6h-4z"
     id="hint-top-margin" />
  <path
     fill="#f0f"
     d="m33 38h4v6h-4z"
     id="hint-bottom-margin" />
  <path
     fill="#f0f"
     d="m26-51h4v6h-4z"
     transform="rotate(90)"
     id="hint-right-margin" />
  <path
     fill="#f0f"
     d="m26-25h4v6h-4z"
     transform="rotate(90)"
     id="hint-left-margin" />
</svg>
