<?xml version="1.0" encoding="UTF-8" standalone="no"?>
<!-- Created with Inkscape (http://www.inkscape.org/) -->
<svg xmlns:dc="http://purl.org/dc/elements/1.1/" xmlns:cc="http://creativecommons.org/ns#" xmlns:rdf="http://www.w3.org/1999/02/22-rdf-syntax-ns#" xmlns:svg="http://www.w3.org/2000/svg" xmlns="http://www.w3.org/2000/svg" xmlns:xlink="http://www.w3.org/1999/xlink" xmlns:sodipodi="http://sodipodi.sourceforge.net/DTD/sodipodi-0.dtd" xmlns:inkscape="http://www.inkscape.org/namespaces/inkscape" width="121" height="56" viewBox="0 0 121 56" id="svg2" version="1.1" inkscape:version="0.91 r13725" sodipodi:docname="translucentbackground.svgz">
  <defs id="defs4">
    <linearGradient id="linearGradient4594" inkscape:collect="always">
      <stop id="stop4596" offset="0" style="stop-color:#000000;stop-opacity:0.6"/>
      <stop id="stop4598" offset="1" style="stop-color:#000000;stop-opacity:0;"/>
    </linearGradient>
    <linearGradient inkscape:collect="always" id="linearGradient4289">
      <stop style="stop-color:#000000;stop-opacity:1;" offset="0" id="stop4291"/>
      <stop style="stop-color:#000000;stop-opacity:0;" offset="1" id="stop4293"/>
    </linearGradient>
    <linearGradient inkscape:collect="always" xlink:href="#linearGradient4289" id="linearGradient4920" gradientUnits="userSpaceOnUse" x1="-912.36218" y1="-35" x2="-909.36218" y2="-35"/>
    <linearGradient inkscape:collect="always" xlink:href="#linearGradient4289" id="linearGradient4922" gradientUnits="userSpaceOnUse" x1="15" y1="9.9999781" x2="12" y2="9.9999781"/>
    <radialGradient inkscape:collect="always" xlink:href="#linearGradient4289" id="radialGradient4924" gradientUnits="userSpaceOnUse" gradientTransform="matrix(4.3053928e-7,-0.33333335,0.3333339,4.3054001e-7,-232.15696,14.899586)" cx="23.700001" cy="912.4693" fx="23.700001" fy="912.4693" r="6"/>
    <linearGradient inkscape:collect="always" xlink:href="#linearGradient4289" id="linearGradient4926" gradientUnits="userSpaceOnUse" x1="16" y1="7.9999776" x2="16" y2="4.9999776" gradientTransform="translate(58,0)"/>
    <linearGradient inkscape:collect="always" xlink:href="#linearGradient4289" id="linearGradient4928" gradientUnits="userSpaceOnUse" x1="55" y1="9.9999781" x2="58" y2="9.9999781"/>
    <radialGradient inkscape:collect="always" xlink:href="#linearGradient4594" id="radialGradient4930" gradientUnits="userSpaceOnUse" gradientTransform="matrix(0.33333332,2.4112937e-6,-2.4112795e-6,0.33333136,95.537914,-296.41909)" cx="55.392845" cy="910.26215" fx="55.392845" fy="910.26215" r="6"/>
    <linearGradient inkscape:collect="always" xlink:href="#linearGradient4289" id="linearGradient4932" gradientUnits="userSpaceOnUse" x1="53" y1="7.9999776" x2="53" y2="4.9999776" gradientTransform="translate(58,0)"/>
    <linearGradient inkscape:collect="always" xlink:href="#linearGradient4289" id="linearGradient4934" gradientUnits="userSpaceOnUse" x1="952.36218" y1="-35" x2="955.36218" y2="-35"/>
    <linearGradient inkscape:collect="always" xlink:href="#linearGradient4289" id="linearGradient4936" gradientUnits="userSpaceOnUse" x1="19" y1="47.999977" x2="19" y2="50.999977" gradientTransform="translate(58,0)"/>
    <radialGradient inkscape:collect="always" xlink:href="#linearGradient4289" id="radialGradient4938" gradientUnits="userSpaceOnUse" gradientTransform="matrix(-0.3333334,-1.5267249e-6,1.5267197e-6,-0.33333227,75.046174,365.28628)" cx="9.1428642" cy="948.86188" fx="9.1428642" fy="948.86188" r="6"/>
    <linearGradient inkscape:collect="always" xlink:href="#linearGradient4289" id="linearGradient4940" gradientUnits="userSpaceOnUse" x1="15" y1="45.999977" x2="12" y2="45.999977"/>
    <linearGradient inkscape:collect="always" xlink:href="#linearGradient4289" id="linearGradient4942" gradientUnits="userSpaceOnUse" x1="53" y1="47.999977" x2="53" y2="50.999977" gradientTransform="translate(58,0)"/>
    <radialGradient inkscape:collect="always" xlink:href="#linearGradient4289" id="radialGradient4944" gradientUnits="userSpaceOnUse" gradientTransform="matrix(1.0353385e-7,0.33333326,-0.33333422,1.0353415e-7,428.53826,30.416558)" cx="55.749981" cy="943.6123" fx="55.749981" fy="943.6123" r="6"/>
    <linearGradient inkscape:collect="always" xlink:href="#linearGradient4289" id="linearGradient4946" gradientUnits="userSpaceOnUse" x1="55" y1="45.999977" x2="58" y2="45.999977"/>
    <linearGradient inkscape:collect="always" xlink:href="#linearGradient4289" id="linearGradient4948" gradientUnits="userSpaceOnUse" x1="-15" y1="932.36218" x2="-12" y2="932.36218"/>
    <linearGradient inkscape:collect="always" xlink:href="#linearGradient4289" id="linearGradient4950" gradientUnits="userSpaceOnUse" x1="55" y1="932.36218" x2="58" y2="932.36218"/>
    <style type="text/css" id="current-color-scheme">
      .ColorScheme-Text {
        color:#31363b;
      }
      .ColorScheme-Background {
        color:#eff0f1;
      }
      .ColorScheme-Highlight {
        color:#3daee9;
      }
      .ColorScheme-ViewText {
        color:#31363b;
      }
      .ColorScheme-ViewBackground {
        color:#fcfcfc;
      }
      .ColorScheme-ViewHover {
        color:#93cee9;
      }
      .ColorScheme-ViewFocus{
        color:#3daee9;
      }
      .ColorScheme-ButtonText {
        color:#31363b;
      }
      .ColorScheme-ButtonBackground {
        color:#eff0f1;
      }
      .ColorScheme-ButtonHover {
        color:#93cee9;
      }
      .ColorScheme-ButtonFocus{
        color:#3daee9;
      }
      </style>
    <style type="text/css" id="current-color-scheme">
      .ColorScheme-Text {
        color:#31363b;
      }
      .ColorScheme-Background {
        color:#eff0f1;
      }
      .ColorScheme-Highlight {
        color:#3daee9;
      }
      .ColorScheme-ViewText {
        color:#31363b;
      }
      .ColorScheme-ViewBackground {
        color:#fcfcfc;
      }
      .ColorScheme-ViewHover {
        color:#93cee9;
      }
      .ColorScheme-ViewFocus{
        color:#3daee9;
      }
      .ColorScheme-ButtonText {
        color:#31363b;
      }
      .ColorScheme-ButtonBackground {
        color:#eff0f1;
      }
      .ColorScheme-ButtonHover {
        color:#93cee9;
      }
      .ColorScheme-ButtonFocus{
        color:#3daee9;
      }
      </style>
  </defs>
  <sodipodi:namedview id="base" pagecolor="#b0dba0" bordercolor="#cc0000" borderopacity="1" inkscape:pageopacity="0" inkscape:pageshadow="2" inkscape:zoom="8.2727406" inkscape:cx="85.212395" inkscape:cy="16.477581" inkscape:document-units="px" inkscape:current-layer="layer1" showgrid="true" inkscape:showpageshadow="false" borderlayer="true" units="px" inkscape:window-width="2560" inkscape:window-height="957" inkscape:window-x="0" inkscape:window-y="30" inkscape:window-maximized="1" showguides="true" fit-margin-top="0" fit-margin-left="0" fit-margin-right="0" fit-margin-bottom="0">
    <inkscape:grid type="xygrid" id="grid3336" empspacing="2" originx="0" originy="-91.999954"/>
  </sodipodi:namedview>
  <metadata id="metadata7">
    <rdf:RDF>
      <cc:Work rdf:about="">
        <dc:format>image/svg+xml</dc:format>
        <dc:type rdf:resource="http://purl.org/dc/dcmitype/StillImage"/>
        <dc:title/>
      </cc:Work>
    </rdf:RDF>
  </metadata>
  <g inkscape:label="Layer 1" inkscape:groupmode="layer" id="layer1" transform="translate(0,-904.36221)">
    <rect style="opacity:1;fill:#ff6600;fill-opacity:1;stroke:none" id="hint-tile-center" width="5" height="5" x="0" y="904.36218"/>
    <g id="top">
      <rect y="-50.999985" x="-916.36218" height="32" width="6" id="rect4152" style="opacity:0.9;fill:currentColor;fill-opacity:1;stroke:none" transform="matrix(0,-1,-1,0,0,0)" class="ColorScheme-Background"/>
    </g>
    <g id="topleft">
      <path style="opacity:0.9;fill:currentColor;fill-opacity:1" d="m 14,6 c -0.553986,0 -1,0.4460137 -1,1 l 0,4 0,1 4,0 1,0 1,0 0,-1 0,-4 0,-1 -1,0 -1,0 -3,0 z" transform="translate(0,904.36218)" id="rect4159" inkscape:connector-curvature="0" class="ColorScheme-Background"/>
    </g>
    <g id="topright">
      <path style="opacity:0.9;fill:currentColor;fill-opacity:1" d="m 51,6 0,1 0,4 0,1 1,0 1,0 3,0 1,0 0,-1 0,-4 C 57,6.4460137 56.553986,6 56,6 l -3,0 -1,0 -1,0 z" transform="translate(0,904.36218)" id="rect4177" inkscape:connector-curvature="0" class="ColorScheme-Background"/>
    </g>
    <g id="bottom">
      <rect transform="matrix(0,1,-1,0,0,0)" style="opacity:0.9;fill:currentColor;fill-opacity:1;stroke:none" id="rect4148" width="6" height="32" x="948.36218" y="-50.999985" class="ColorScheme-Background"/>
    </g>
    <g id="bottomleft">
      <path inkscape:connector-curvature="0" style="opacity:0.9;fill:currentColor;fill-opacity:1" d="m 19,954.36218 0,-1 0,-4 0,-1 -1,0 -1,0 -3,0 -1,0 0,1 0,4 c 0,0.55399 0.446014,1 1,1 l 3,0 1,0 1,0 z" id="path5048" class="ColorScheme-Background"/>
    </g>
    <g id="bottomright">
      <path id="rect4177-6" d="m 51,954.36218 0,-1 0,-4 0,-1 1,0 1,0 3,0 1,0 0,1 0,4 c 0,0.55399 -0.446014,1 -1,1 l -3,0 -1,0 -1,0 z" style="opacity:0.9;fill:currentColor;fill-opacity:1" inkscape:connector-curvature="0" class="ColorScheme-Background"/>
    </g>
    <g id="left">
      <rect transform="scale(-1,1)" style="opacity:0.9;fill:currentColor;fill-opacity:1;stroke:none" id="rect4144" width="5.9999995" height="32" x="-19.000004" y="916.36218" class="ColorScheme-Background"/>
    </g>
    <g id="right">
      <rect y="916.36218" x="50.999985" height="32" width="5.9999995" id="rect4140" style="opacity:0.9;fill:currentColor;fill-opacity:1;stroke:none" class="ColorScheme-Background"/>
    </g>
    <g id="center">
      <rect y="916.36218" x="19.000004" height="32" width="32" id="rect4401" style="opacity:1;fill:none;fill-opacity:1;stroke:none"/>
      <rect style="opacity:0.9;fill:currentColor;fill-opacity:1;stroke:none" id="rect4138" width="32" height="32" x="19.000004" y="916.36218" class="ColorScheme-Background"/>
    </g>
    <rect style="fill:#ff00ff;fill-opacity:1;stroke:none" id="hint-top-margin" width="4" height="6.0000248" x="33" y="916.36218"/>
    <rect y="942.36218" x="33" height="5.9999752" width="4" id="hint-bottom-margin" style="fill:#ff00ff;fill-opacity:1;stroke:none"/>
    <rect y="-51" x="930.36218" height="6.0000153" width="4" id="hint-right-margin" style="fill:#ff00ff;fill-opacity:1;stroke:none" transform="matrix(0,1,-1,0,0,0)"/>
    <rect style="fill:#ff00ff;fill-opacity:1;stroke:none" id="hint-left-margin" width="4" height="6.0000038" x="930.36218" y="-25.000004" transform="matrix(0,1,-1,0,0,0)"/>
    <rect style="fill:#00ff00;fill-opacity:1;stroke:none" id="hint-top-inset" width="4" height="0.000001" x="33" y="904.36218"/>
    <rect y="954.36218" x="33" height="0.000001" width="4" id="hint-bottom-inset" style="fill:#00ff00;fill-opacity:1;stroke:none"/>
    <rect y="-63" x="930.36218" height="0.000001" width="4" id="hint-right-inset" style="fill:#00ff00;fill-opacity:1;stroke:none" transform="matrix(0,1,-1,0,0,0)"/>
    <rect style="fill:#00ff00;fill-opacity:1;stroke:none" id="hint-left-inset" width="4" height="0.000001" x="930.36218" y="-13.000004" transform="matrix(0,1,-1,0,0,0)"/>
    <g id="shadow-top" transform="translate(58,0)">
      <rect transform="matrix(0,-1,-1,0,0,0)" style="opacity:1;fill:none;fill-opacity:1;stroke:none" id="rect4820" width="6" height="32" x="-916.36218" y="-50.999985"/>
      <rect transform="matrix(0,-1,-1,0,0,0)" style="opacity:1;fill:url(#linearGradient4920);fill-opacity:1;stroke:none" id="rect4822" width="6" height="32" x="-910.36218" y="-50.999985"/>
      <rect y="-50.999985" x="-911.36218" height="32" width="0.99997741" id="rect4824" style="opacity:1;fill:none;fill-opacity:1;stroke:none" transform="matrix(0,-1,-1,0,0,0)"/>
    </g>
    <g id="shadow-topleft" transform="translate(58,0)">
      <path id="path4828" transform="translate(0,904.36218)" d="m 7,7 0,1 0,4 6,0 0,-4 0,-1 -6,0 z" style="fill:url(#linearGradient4922);fill-opacity:1;fill-rule:evenodd;stroke:none;stroke-width:1px;stroke-linecap:butt;stroke-linejoin:miter;stroke-opacity:1" inkscape:connector-curvature="0"/>
      <path style="opacity:0.6;fill:url(#radialGradient4924);fill-opacity:1;fill-rule:evenodd;stroke:none;stroke-width:1px;stroke-linecap:butt;stroke-linejoin:miter;stroke-opacity:1" d="m 65,0 0,7 6,0 0,-1 1,0 0,-6 -7,0 z" transform="translate(-58,904.36218)" id="path4830" inkscape:connector-curvature="0"/>
      <path style="fill:url(#linearGradient4926);fill-opacity:1;fill-rule:evenodd;stroke:none;stroke-width:1px;stroke-linecap:butt;stroke-linejoin:miter;stroke-opacity:1" d="m 72,0 0,6 1,0 4,0 0,-6 -4,0 -1,0 z" transform="translate(-58,904.36218)" id="path4832" inkscape:connector-curvature="0"/>
      <rect ry="0.9999752" y="910.36218" x="-19.000004" height="6.0000224" width="5.9999919" id="rect4834" style="fill:none;fill-opacity:1" transform="scale(-1,1)"/>
      <rect ry="0" y="910.36218" x="-19.000004" height="5.9999752" width="2.0000038" id="rect4836" style="fill:none;fill-opacity:1" transform="scale(-1,1)"/>
      <rect y="914.36218" x="-18" height="2.0000248" width="4.9999924" id="rect4838" style="fill:none;fill-opacity:1" transform="scale(-1,1)"/>
    </g>
    <g id="shadow-topright" transform="translate(58,0)">
      <path id="path4842" transform="translate(0,904.36218)" d="m 57,7 0,1 0,4 6,0 0,-4 0,-1 -6,0 z" style="fill:url(#linearGradient4928);fill-opacity:1;fill-rule:evenodd;stroke:none;stroke-width:1px;stroke-linecap:butt;stroke-linejoin:miter;stroke-opacity:1" inkscape:connector-curvature="0"/>
      <path style="fill:url(#radialGradient4930);fill-opacity:1;fill-rule:evenodd;stroke:none;stroke-width:1px;stroke-linecap:butt;stroke-linejoin:miter;stroke-opacity:1" d="m 114,0 0,6 1,0 0,1 6,0 0,-7 -7,0 z" transform="translate(-58,904.36218)" id="path4844" inkscape:connector-curvature="0"/>
      <path style="fill:url(#linearGradient4932);fill-opacity:1;fill-rule:evenodd;stroke:none;stroke-width:1px;stroke-linecap:butt;stroke-linejoin:miter;stroke-opacity:1" d="m 109,0 0,6 4,0 1,0 0,-6 -1,0 -4,0 z" transform="translate(-58,904.36218)" id="path4846" inkscape:connector-curvature="0"/>
      <rect style="fill:none;fill-opacity:1" id="rect4848" width="5.9999957" height="6.0000224" x="50.999985" y="910.36218" ry="0.9999752"/>
      <rect style="fill:none;fill-opacity:1" id="rect4850" width="2.0000153" height="5.9999752" x="50.999985" y="910.36218" ry="0"/>
      <rect style="fill:none;fill-opacity:1" id="rect4852" width="4.9999809" height="2.0000248" x="52" y="914.36218"/>
    </g>
    <g id="shadow-bottom" transform="translate(58,0)">
      <rect y="-50.999985" x="948.36218" height="32" width="6" id="rect4856" style="opacity:1;fill:none;fill-opacity:1;stroke:none" transform="matrix(0,1,-1,0,0,0)"/>
      <rect y="-50.999985" x="954.36218" height="32" width="6" id="rect4858" style="opacity:1;fill:url(#linearGradient4934);fill-opacity:1;stroke:none" transform="matrix(0,1,-1,0,0,0)"/>
      <rect transform="matrix(0,1,-1,0,0,0)" style="opacity:1;fill:none;fill-opacity:1;stroke:none" id="rect4860" width="1.0000226" height="31.999971" x="953.36218" y="-50.999985"/>
    </g>
    <g id="shadow-bottomleft" transform="translate(58,0)">
      <path style="fill:url(#linearGradient4936);fill-opacity:1;fill-rule:evenodd;stroke:none;stroke-width:1px;stroke-linecap:butt;stroke-linejoin:miter;stroke-opacity:1" d="m 72,50 0,6 1,0 4,0 0,-6 -4,0 -1,0 z" transform="translate(-58,904.36218)" id="path4864" inkscape:connector-curvature="0"/>
      <path style="opacity:0.6;fill:url(#radialGradient4938);fill-opacity:1;fill-rule:evenodd;stroke:none;stroke-width:1px;stroke-linecap:butt;stroke-linejoin:miter;stroke-opacity:1" d="m 65,49 0,7 7,0 0,-6 -1,0 0,-1 -6,0 z" transform="translate(-58,904.36218)" id="path4866" inkscape:connector-curvature="0"/>
      <path id="path4868" transform="translate(0,904.36218)" d="m 7,44 0,4 0,1 6,0 0,-1 0,-4 -6,0 z" style="fill:url(#linearGradient4940);fill-opacity:1;fill-rule:evenodd;stroke:none;stroke-width:1px;stroke-linecap:butt;stroke-linejoin:miter;stroke-opacity:1" inkscape:connector-curvature="0"/>
      <rect style="fill:none;fill-opacity:1" id="rect4870" width="5.9999957" height="5.999999" x="-19.000004" y="-954.36188" ry="0.99971962" transform="scale(-1,-1)"/>
      <rect transform="scale(-1,-1)" style="fill:none;fill-opacity:1" id="rect4872" width="2.0000038" height="6.0000248" x="-19.000004" y="-954.36218" ry="0"/>
      <rect transform="scale(-1,-1)" style="fill:none;fill-opacity:1" id="rect4874" width="4.9999714" height="2.0000362" x="-18" y="-950.36218"/>
    </g>
    <g id="shadow-bottomright" transform="translate(58,0)">
      <path style="fill:url(#linearGradient4942);fill-opacity:1;fill-rule:evenodd;stroke:none;stroke-width:1px;stroke-linecap:butt;stroke-linejoin:miter;stroke-opacity:1" d="m 109,50 0,6 4,0 1,0 0,-6 -1,0 -4,0 z" transform="translate(-58,904.36218)" id="path4878" inkscape:connector-curvature="0"/>
      <path style="opacity:0.6;fill:url(#radialGradient4944);fill-opacity:1;fill-rule:evenodd;stroke:none;stroke-width:1px;stroke-linecap:butt;stroke-linejoin:miter;stroke-opacity:1" d="m 115,49 0,1 -1,0 0,6 7,0 0,-7 -6,0 z" transform="translate(-58,904.36218)" id="path4880" inkscape:connector-curvature="0"/>
      <path id="path4882" transform="translate(0,904.36218)" d="m 57,44 0,4 0,1 6,0 0,-1 0,-4 -6,0 z" style="fill:url(#linearGradient4946);fill-opacity:1;fill-rule:evenodd;stroke:none;stroke-width:1px;stroke-linecap:butt;stroke-linejoin:miter;stroke-opacity:1" inkscape:connector-curvature="0"/>
      <rect ry="0.99971962" y="-954.36188" x="50.999985" height="5.999999" width="5.9999957" id="rect4884" style="fill:none;fill-opacity:1" transform="scale(1,-1)"/>
      <rect ry="0" y="-954.36218" x="50.999985" height="6.0000248" width="2.0000153" id="rect4886" style="fill:none;fill-opacity:1" transform="scale(1,-1)"/>
      <rect y="-950.36218" x="52" height="2.0000362" width="4.9999847" id="rect4888" style="fill:none;fill-opacity:1" transform="scale(1,-1)"/>
    </g>
    <g id="shadow-left" transform="translate(58,0)">
      <rect y="916.36218" x="-19.000004" height="32" width="5.9999995" id="rect4892" style="opacity:1;fill:none;fill-opacity:1;stroke:none" transform="scale(-1,1)"/>
      <rect y="916.36218" x="-13.000002" height="32" width="5.9999995" id="rect4894" style="opacity:1;fill:url(#linearGradient4948);fill-opacity:1;stroke:none" transform="scale(-1,1)"/>
      <rect transform="scale(-1,1)" style="opacity:1;fill:none;fill-opacity:1;stroke:none" id="rect4896" width="1.0000019" height="32.000023" x="-14.000002" y="916.36218"/>
    </g>
    <g id="shadow-right" transform="translate(58,0)">
      <rect style="opacity:1;fill:none;fill-opacity:1;stroke:none" id="rect4900" width="5.9999995" height="32" x="50.999985" y="916.36218"/>
      <rect style="opacity:1;fill:url(#linearGradient4950);fill-opacity:1;stroke:none" id="rect4902" width="5.9999995" height="32" x="56.999985" y="916.36218"/>
      <rect y="916.36218" x="55.999985" height="32.000023" width="1" id="rect4904" style="opacity:1;fill:none;fill-opacity:1;stroke:none"/>
    </g>
    <g id="shadow-center" transform="translate(58,0)">
      <rect style="opacity:1;fill:none;fill-opacity:1;stroke:none" id="rect4908" width="32" height="32" x="19.000004" y="916.36218"/>
      <rect y="916.36218" x="19.000004" height="32" width="32" id="rect4910" style="opacity:1;fill:none;fill-opacity:1;stroke:none"/>
    </g>
    <rect y="904.36218" x="91" height="5.9999771" width="4" id="shadow-hint-top-margin" style="fill:#ff00ff;fill-opacity:1;stroke:none"/>
    <rect style="fill:#ff00ff;fill-opacity:1;stroke:none" id="shadow-hint-bottom-margin" width="4" height="6.0000229" x="91" y="954.36218"/>
    <rect transform="matrix(0,1,-1,0,0,0)" style="fill:#ff00ff;fill-opacity:1;stroke:none" id="shadow-hint-right-margin" width="3.9999769" height="5.9999771" x="930.36218" y="-120.99998"/>
    <rect transform="matrix(0,1,-1,0,0,0)" y="-71" x="930.36218" height="6" width="4.0000229" id="shadow-hint-left-margin" style="fill:#ff00ff;fill-opacity:1;stroke:none"/>
    <rect y="904.36218" x="97" height="5.9999771" width="4" id="shadow-hint-top-inset" style="fill:#00ff00;fill-opacity:1;stroke:none"/>
    <rect style="fill:#00ff00;fill-opacity:1;stroke:none" id="shadow-hint-bottom-inset" width="4" height="6.0000229" x="97" y="954.36218"/>
    <rect transform="matrix(0,1,-1,0,0,0)" style="fill:#00ff00;fill-opacity:1;stroke:none" id="shadow-hint-right-inset" width="3.9999769" height="5.9999771" x="936.36218" y="-120.99998"/>
    <rect transform="matrix(0,1,-1,0,0,0)" y="-71" x="936.36218" height="6" width="4.0000229" id="shadow-hint-left-inset" style="fill:#00ff00;fill-opacity:1;stroke:none"/>
  </g>
</svg>
