<?xml version="1.0" encoding="UTF-8" standalone="no"?>
<svg
   xmlns:dc="http://purl.org/dc/elements/1.1/"
   xmlns:cc="http://creativecommons.org/ns#"
   xmlns:rdf="http://www.w3.org/1999/02/22-rdf-syntax-ns#"
   xmlns:svg="http://www.w3.org/2000/svg"
   xmlns="http://www.w3.org/2000/svg"
   xmlns:sodipodi="http://sodipodi.sourceforge.net/DTD/sodipodi-0.dtd"
   xmlns:inkscape="http://www.inkscape.org/namespaces/inkscape"
   width="257"
   height="161"
   version="1.0"
   id="svg184"
   sodipodi:docname="viewitem.svg"
   inkscape:version="1.0.2 (e86c870879, 2021-01-15)">
  <metadata
     id="metadata114">
    <rdf:RDF>
      <cc:Work
         rdf:about="">
        <dc:format>image/svg+xml</dc:format>
        <dc:type
           rdf:resource="http://purl.org/dc/dcmitype/StillImage" />
      </cc:Work>
    </rdf:RDF>
  </metadata>
  <defs
     id="defs3">
    <style
       id="current-color-scheme"
       type="text/css">.ColorScheme-Text {
        color:#7B7C7E;
      }
      .ColorScheme-Background{
        color:#EFF0F1;
      }
      .ColorScheme-Highlight{
        color:#3DAEE6;
      }
      .ColorScheme-ViewText {
        color:#7B7C7E;
      }
      .ColorScheme-ViewBackground{
        color:#FCFCFC;
      }
      .ColorScheme-ViewHover {
        color:#3DAEE6;
      }
      .ColorScheme-ViewFocus{
        color:#1E92FF;
      }
      .ColorScheme-ButtonText {
        color:#7B7C7E;
      }
      .ColorScheme-ButtonBackground{
        color:#EFF0F1;
      }
      .ColorScheme-ButtonHover {
        color:#3DAEE6;
      }
      .ColorScheme-ButtonFocus{
        color:#1E92FF;
      }</style>
  </defs>
  <sodipodi:namedview
     pagecolor="#ffffff"
     bordercolor="#666666"
     borderopacity="1"
     objecttolerance="10"
     gridtolerance="10"
     guidetolerance="10"
     inkscape:pageopacity="0"
     inkscape:pageshadow="2"
     inkscape:window-width="1366"
     inkscape:window-height="700"
     id="namedview186"
     showgrid="true"
     inkscape:snap-bbox="true"
     inkscape:bbox-nodes="true"
     inkscape:zoom="2"
     inkscape:cx="91.197206"
     inkscape:cy="-13.544258"
     inkscape:window-x="0"
     inkscape:window-y="0"
     inkscape:window-maximized="1"
     inkscape:current-layer="svg184"
     inkscape:document-rotation="0">
    <inkscape:grid
       type="xygrid"
       id="grid1120" />
  </sodipodi:namedview>
  <rect
     id="hint-tile-center"
     x="33"
     y="-50"
     width="40"
     height="40"
     fill="#008000" />
  <path
     id="selected-center"
     class="ColorScheme-ButtonFocus"
     d="M 30,15 V 63 H 78 V 15 Z"
     fill="currentColor"
     opacity="0.8" />
  <g
     id="selected-left"
     transform="matrix(1,0,0,3,-160.14,-2474.58)">
    <path
       class="ColorScheme-ButtonFocus"
       d="m 186.14,829.86 v 16 h 4 v -16 z"
       fill="currentColor"
       opacity="0.8"
       id="path7" />
  </g>
  <g
     id="selected-topleft"
     transform="translate(-160.14,-814.86)">
    <path
       class="ColorScheme-ButtonFocus"
       d="m 186.14,829.86 h 4 v -4 h -1.4688 c -1.405,0 -2.5312,1.1159 -2.5312,2.5312 z"
       fill="currentColor"
       opacity="0.8"
       id="path10" />
  </g>
  <g
     id="selected-top"
     transform="matrix(0.36641221,0,0,1,-39.669618,-814.86)">
    <path
       class="ColorScheme-ButtonFocus"
       d="m 190.14,825.86 v 4 h 131 v -4 z"
       fill="currentColor"
       opacity="0.8"
       id="path13" />
  </g>
  <g
     id="selected-topright"
     transform="translate(-243.14,-814.86)">
    <path
       class="ColorScheme-ButtonFocus"
       d="m 321.14,825.86 v 4 h 4 v -1.4688 c 0,-1.405 -1.1159,-2.5312 -2.5312,-2.5312 z"
       fill="currentColor"
       opacity="0.8"
       id="path16" />
  </g>
  <g
     id="selected-right"
     transform="matrix(1,0,0,3,-243.14,-2474.58)">
    <path
       class="ColorScheme-ButtonFocus"
       d="m 325.14,829.86 v 16 h -4 v -16 z"
       fill="currentColor"
       opacity="0.8"
       id="path19" />
  </g>
  <path
     id="normal-center"
     d="m 93,15 v 48 h 48 V 15 Z"
     opacity="0" />
  <g
     id="normal-bottom"
     transform="matrix(0.36638425,0,0,0.50018757,23.340377,-360.08846)"
     opacity="0">
    <g
       id="g29">
      <path
         class="ColorScheme-ButtonFocus"
         d="m 190.13,845.86 v 4 l 130.98,-0.0625 V 845.86 Z"
         fill="currentColor"
         fill-opacity="0.15"
         id="path23" />
      <path
         class="ColorScheme-ButtonFocus"
         d="m 190.14,849.86 v 1 h 131 v -1 z"
         fill="currentColor"
         fill-opacity="0.15"
         id="path25" />
      <path
         class="ColorScheme-ButtonFocus"
         d="m 190.14,848.86 v 1 h 131 v -1 z"
         fill="currentColor"
         fill-opacity="0.15"
         id="path27" />
    </g>
    <rect
       transform="translate(-342.86,-17.143)"
       x="547"
       y="869"
       width="1"
       height="2"
       fill-opacity="0"
       id="rect31" />
  </g>
  <g
     id="normal-bottomleft"
     transform="matrix(0.57143,0,0,0.5,-15.65,-359.9298)"
     opacity="0">
    <path
       class="ColorScheme-ButtonFocus"
       d="m 188.67,850.86 c -1.9482,0 -3.5312,-1.5884 -3.5312,-3.5312 V 845.86 h 1 v 1.4688 c 0,1.405 1.1159,2.5312 2.5312,2.5312 h 1.4688 v 1 z"
       fill="currentColor"
       fill-opacity="0.15"
       id="path34" />
    <path
       class="ColorScheme-ButtonFocus"
       d="m 190.14,849.86 v -4 h -4 v 1.4688 c 0,1.405 1.1159,2.5312 2.5312,2.5312 z"
       fill="currentColor"
       fill-opacity="0.15"
       id="path36" />
    <path
       class="ColorScheme-ButtonFocus"
       d="m 188.74,849.86 c -1.6608,0 -2.6,-1.1986 -2.6,-2.7 v -1.3 h 1 l -0.021,1.2937 c -0.0208,1.2806 0.23073,1.7063 1.621,1.7063 h 1.4 v 1 z"
       fill="currentColor"
       fill-opacity="0.15"
       id="path38" />
    <rect
       x="183.14"
       y="851.85999"
       width="2"
       height="2"
       fill-opacity="0"
       id="rect40" />
  </g>
  <g
     id="normal-left"
     transform="matrix(0.57143,0,0,3,-15.65,-2474.5798)"
     opacity="0">
    <g
       id="g49">
      <path
         class="ColorScheme-ButtonFocus"
         d="m 186.14,829.86 v 16 h 4 v -16 z"
         fill="currentColor"
         fill-opacity="0.15"
         id="path43" />
      <path
         class="ColorScheme-ButtonFocus"
         d="m 185.14,829.86 v 16 h 1 v -16 z"
         fill="currentColor"
         fill-opacity="0.15"
         id="path45" />
      <path
         class="ColorScheme-ButtonFocus"
         d="m 186.14,829.86 v 16 h 1 v -16 z"
         fill="currentColor"
         fill-opacity="0.15"
         id="path47" />
    </g>
    <rect
       x="183.14"
       y="834.85999"
       width="2"
       height="3"
       fill-opacity="0"
       id="rect51" />
  </g>
  <g
     id="normal-topleft"
     transform="matrix(0.57143,0,0,0.57143,-15.65,-459.206)"
     opacity="0">
    <g
       id="g60">
      <path
         class="ColorScheme-ButtonFocus"
         d="m 186.14,829.86 h 4 v -4 h -1.4688 c -1.405,0 -2.5312,1.1159 -2.5312,2.5312 z"
         fill="currentColor"
         fill-opacity="0.15"
         id="path54" />
      <path
         class="ColorScheme-ButtonFocus"
         d="m 185.14,828.39 c 0,-1.9482 1.5884,-3.5312 3.5312,-3.5312 h 1.4688 v 1 h -1.4688 c -1.405,0 -2.5312,1.1159 -2.5312,2.5312 v 1.4688 h -1 z"
         fill="currentColor"
         fill-opacity="0.15"
         id="path56" />
      <path
         class="ColorScheme-ButtonFocus"
         d="m 186.14,829.86 h 1 v -1 c 0,-1.4154 0.59498,-2 2,-2 h 1 v -1 h -1.4688 c -1.405,0 -2.5312,1.1159 -2.5312,2.5312 z"
         fill="currentColor"
         fill-opacity="0.15"
         id="path58" />
    </g>
    <rect
       x="183.14"
       y="822.85999"
       width="2"
       height="2"
       fill-opacity="0"
       id="rect62" />
  </g>
  <g
     id="normal-top"
     transform="matrix(0.36641221,0,0,0.57143,23.332083,-459.206)"
     opacity="0">
    <g
       id="g71">
      <path
         d="m 190.14,825.86 v 4 h 131 v -4 z"
         fill="currentColor"
         fill-opacity="0.15"
         id="path65" />
      <path
         d="m 190.14,824.86 v 1 h 131 v -1 z"
         fill="currentColor"
         fill-opacity="0.15"
         id="path67" />
      <path
         d="m 190.14,825.86 v 1 h 131 v -1 z"
         fill="currentColor"
         fill-opacity="0.15"
         id="path69" />
    </g>
    <rect
       x="200.14"
       y="822.85999"
       width="3"
       height="2"
       fill-opacity="0"
       id="rect73" />
  </g>
  <g
     id="normal-topright"
     transform="matrix(0.57143,0,0,0.57143,-42.50903,-459.2069)"
     opacity="0">
    <g
       id="g82">
      <path
         class="ColorScheme-ButtonFocus"
         d="m 321.14,825.86 v 4 h 4 v -1.4688 c 0,-1.405 -1.1159,-2.5312 -2.5312,-2.5312 z"
         fill="currentColor"
         fill-opacity="0.15"
         id="path76" />
      <path
         class="ColorScheme-ButtonFocus"
         d="m 322.61,824.86 c 1.9482,0 3.5312,1.5884 3.5312,3.5312 v 1.4688 h -1 v -1.4688 c 0,-1.405 -1.1159,-2.5312 -2.5312,-2.5312 h -1.4688 v -1 z"
         fill="currentColor"
         fill-opacity="0.15"
         id="path78" />
      <path
         class="ColorScheme-ButtonFocus"
         d="m 325.14,829.86 h -1 v -1 c 0,-1.4154 -0.59498,-2 -2,-2 h -1 v -1 h 1.4688 c 1.405,0 2.5312,1.1159 2.5312,2.5312 z"
         fill="currentColor"
         fill-opacity="0.15"
         id="path80" />
    </g>
    <rect
       x="326.14001"
       y="822.85999"
       width="2"
       height="2"
       fill-opacity="0"
       id="rect84" />
  </g>
  <g
     id="normal-right"
     transform="matrix(0.57143,0,0,3,-42.50903,-2474.58)"
     opacity="0">
    <g
       id="g93">
      <path
         class="ColorScheme-ButtonFocus"
         d="m 325.14,829.86 v 16 h -4 v -16 z"
         fill="currentColor"
         fill-opacity="0.15"
         id="path87" />
      <path
         class="ColorScheme-ButtonFocus"
         d="m 326.14,829.86 v 16 h -1 v -16 z"
         fill="currentColor"
         fill-opacity="0.15"
         id="path89" />
      <path
         class="ColorScheme-ButtonFocus"
         d="m 325.14,829.86 v 16 h -1 v -16 z"
         fill="currentColor"
         fill-opacity="0.15"
         id="path91" />
    </g>
    <rect
       x="326.14001"
       y="832.85999"
       width="2"
       height="3"
       fill-opacity="0"
       id="rect95" />
  </g>
  <g
     id="normal-bottomright"
     transform="matrix(0.57143,0,0,0.5,-42.49,-359.911)"
     opacity="0">
    <path
       class="ColorScheme-ButtonFocus"
       d="m 325.14,845.86 h -4 v 4 h 1.4688 c 1.405,0 2.5312,-1.1159 2.5312,-2.5312 z"
       fill="currentColor"
       fill-opacity="0.15"
       id="path98" />
    <path
       class="ColorScheme-ButtonFocus"
       d="m 322.14,849.86 c 1.5971,0 3,-0.57542 3,-3 v -1 h -1 v 1 c 0,0.89359 -0.31679,2 -2,2 h -1 v 1 z"
       fill="currentColor"
       fill-opacity="0.15"
       id="path100" />
    <path
       class="ColorScheme-ButtonFocus"
       d="m 326.14,847.33 c 0,1.9482 -1.5884,3.5312 -3.5312,3.5312 H 321.14 v -1 h 1.4688 c 1.405,0 2.5312,-1.1159 2.5312,-2.5312 v -1.4688 h 1 z"
       fill="currentColor"
       fill-opacity="0.15"
       opacity="0.852"
       id="path102" />
    <rect
       x="326.14001"
       y="851.85999"
       width="2"
       height="2"
       fill-opacity="0"
       id="rect104" />
  </g>
  <path
     id="hover-center"
     class="ColorScheme-ButtonFocus"
     d="m 30,75 v 48 H 78 V 75 Z"
     fill="currentColor"
     opacity="0.3" />
  <g
     id="hover-left"
     transform="matrix(1,0,0,3,-160.14,-2414.58)">
    <path
       class="ColorScheme-ButtonFocus"
       fill="currentColor"
       d="m 186.14,829.86 v 16 h 4 v -16 z"
       opacity="0.3"
       id="path108" />
    <path
       class="ColorScheme-ButtonFocus"
       fill="currentColor"
       d="m 186.14,829.86 v 16 h 1 v -16 z"
       id="path110" />
  </g>
  <g
     id="hover-topleft"
     transform="matrix(1,0,0,0.99453008,-160.14,-750.32073)">
    <path
       class="ColorScheme-ButtonFocus"
       fill="currentColor"
       d="m 186.14,829.86 h 4 v -4 h -1.4688 c -1.405,0 -2.5312,1.1159 -2.5312,2.5312 z"
       opacity="0.3"
       id="path113" />
    <path
       class="ColorScheme-ButtonFocus"
       fill="currentColor"
       d="m 188.671,825.838 c -1.405,0 -2.5312,1.12204 -2.5312,2.54512 V 829.86 h 1 v -1.09982 c 0,-1.06733 0.85248,-1.91668 1.9062,-1.91668 h 1.0938 v -1.0055 z"
       id="path115"
       style="stroke-width:1.00275" />
  </g>
  <g
     id="hover-top"
     transform="matrix(0.36641,0,0,1,-39.67,-754.86)">
    <path
       class="ColorScheme-ButtonFocus"
       fill="currentColor"
       d="m 190.14,825.86 v 4 h 131 v -4 z"
       opacity="0.3"
       id="path118" />
    <path
       class="ColorScheme-ButtonFocus"
       fill="currentColor"
       d="m 190.14,825.86 v 1 h 131 v -1 z"
       id="path120" />
  </g>
  <g
     id="hover-topright"
     transform="matrix(0.99970009,0,0,1,-243.04369,-754.86)">
    <path
       class="ColorScheme-ButtonFocus"
       fill="currentColor"
       d="m 321.14,825.86 v 4 h 4 v -1.4688 c 0,-1.405 -1.1159,-2.5312 -2.5312,-2.5312 z"
       opacity="0.3"
       id="path123" />
    <path
       class="ColorScheme-ButtonFocus"
       fill="currentColor"
       d="m 322.60924,825.86 c 1.40542,0 2.53196,1.1159 2.53196,2.5312 v 1.4688 h -1.0003 v -1.0938 c 0,-1.0615 -0.85274,-1.9062 -1.90677,-1.9062 H 321.14 v -1 z"
       id="path125"
       style="stroke-width:1.00015" />
  </g>
  <g
     id="hover-right"
     transform="matrix(1,0,0,3,-243.14,-2414.58)">
    <path
       class="ColorScheme-ButtonFocus"
       fill="currentColor"
       d="m 325.14,829.86 v 16 h -4 v -16 z"
       opacity="0.3"
       id="path128" />
    <path
       class="ColorScheme-ButtonFocus"
       fill="currentColor"
       d="m 325.14,829.86 v 16 h -1 v -16 z"
       id="path130" />
  </g>
  <path
     id="selected+hover-center"
     class="ColorScheme-ButtonFocus"
     d="m 93,75 v 48 h 48 V 75 Z"
     fill="currentColor" />
  <g
     id="selected+hover-left"
     transform="matrix(1,0,0,3,-97.14,-2414.58)">
    <path
       class="ColorScheme-ButtonFocus"
       d="m 186.14,829.86 v 16 h 4 v -16 z"
       fill="currentColor"
       id="path134" />
  </g>
  <g
     id="selected+hover-topleft"
     transform="translate(-97.14,-754.86)">
    <path
       class="ColorScheme-ButtonFocus"
       d="m 186.14,829.86 h 4 v -4 h -1.4688 c -1.405,0 -2.5312,1.1159 -2.5312,2.5312 z"
       fill="currentColor"
       id="path137" />
  </g>
  <g
     id="selected+hover-top"
     transform="matrix(0.36641,0,0,1,23.33,-754.86)">
    <path
       class="ColorScheme-ButtonFocus"
       d="m 190.14,825.86 v 4 h 131 v -4 z"
       fill="currentColor"
       id="path140" />
  </g>
  <g
     id="selected+hover-topright"
     transform="translate(-180.14,-754.86)">
    <path
       class="ColorScheme-ButtonFocus"
       d="m 321.14,825.86 v 4 h 4 v -1.4688 c 0,-1.405 -1.1159,-2.5312 -2.5312,-2.5312 z"
       fill="currentColor"
       id="path143" />
  </g>
  <g
     id="selected+hover-right"
     transform="matrix(1,0,0,3,-180.14,-2414.58)">
    <path
       class="ColorScheme-ButtonFocus"
       d="m 325.14,829.86 v 16 h -4 v -16 z"
       fill="currentColor"
       id="path146" />
  </g>
  <g
     id="selected-bottomright"
     transform="rotate(180,134.07,446.43)">
    <path
       class="ColorScheme-ButtonFocus"
       d="m 186.14,829.86 h 4 v -4 h -1.4688 c -1.405,0 -2.5312,1.1159 -2.5312,2.5312 z"
       fill="currentColor"
       opacity="0.8"
       id="path149" />
  </g>
  <g
     id="selected-bottom"
     transform="matrix(-0.36641221,0,0,-1,147.66962,892.86)">
    <path
       class="ColorScheme-ButtonFocus"
       d="m 190.14,825.86 v 4 h 131 v -4 z"
       fill="currentColor"
       opacity="0.8"
       id="path152" />
  </g>
  <g
     id="selected-bottomleft"
     transform="rotate(180,175.57,446.43)">
    <path
       class="ColorScheme-ButtonFocus"
       d="m 321.14,825.86 v 4 h 4 v -1.4688 c 0,-1.405 -1.1159,-2.5312 -2.5312,-2.5312 z"
       fill="currentColor"
       opacity="0.8"
       id="path155" />
  </g>
  <g
     id="hover-bottomright"
     transform="matrix(-1,0,0,-0.99453008,268.14,948.32073)">
    <path
       class="ColorScheme-ButtonFocus"
       fill="currentColor"
       d="m 186.14,829.86 h 4 v -4 h -1.4688 c -1.405,0 -2.5312,1.1159 -2.5312,2.5312 z"
       opacity="0.3"
       id="path158" />
    <path
       class="ColorScheme-ButtonFocus"
       fill="currentColor"
       d="m 188.6712,825.838 c -1.405,0 -2.5312,1.12204 -2.5312,2.54512 V 829.86 h 1 v -1.09982 c 0,-1.06733 0.85248,-1.91668 1.9062,-1.91668 h 1.0938 v -1.0055 z"
       id="path160"
       style="stroke-width:1.00275" />
  </g>
  <g
     id="hover-bottom"
     transform="matrix(-0.36641,0,0,-1,147.6692,952.86)">
    <path
       class="ColorScheme-ButtonFocus"
       fill="currentColor"
       d="m 190.14,825.86 v 4 h 131 v -4 z"
       opacity="0.3"
       id="path163" />
    <path
       class="ColorScheme-ButtonFocus"
       fill="currentColor"
       d="m 190.1408,825.86 v 1 h 131 v -1 z"
       id="path165" />
  </g>
  <g
     id="hover-bottomleft"
     transform="matrix(-0.99970009,0,0,-1,351.04449,952.86)">
    <path
       class="ColorScheme-ButtonFocus"
       fill="currentColor"
       d="m 321.14,825.86 v 4 h 4 v -1.4688 c 0,-1.405 -1.1159,-2.5312 -2.5312,-2.5312 z"
       opacity="0.3"
       id="path168" />
    <path
       class="ColorScheme-ButtonFocus"
       fill="currentColor"
       d="m 322.61,825.86 c 1.405,0 2.5312,1.1159 2.5312,2.5312 v 1.4688 h -1 v -1.0938 c 0,-1.0615 -0.85248,-1.9062 -1.9062,-1.9062 h -1.0938 v -1 z"
       id="path170" />
  </g>
  <g
     id="selected+hover-bottomright"
     transform="rotate(180,165.57,476.43)">
    <path
       class="ColorScheme-ButtonFocus"
       d="m 186.14,829.86 h 4 v -4 h -1.4688 c -1.405,0 -2.5312,1.1159 -2.5312,2.5312 z"
       fill="currentColor"
       id="path173" />
  </g>
  <g
     id="selected+hover-bottom"
     transform="matrix(-0.36641,0,0,-1,210.6692,952.86)">
    <path
       class="ColorScheme-ButtonFocus"
       d="m 190.14,825.86 v 4 h 131 v -4 z"
       fill="currentColor"
       id="path176" />
  </g>
  <g
     id="selected+hover-bottomleft"
     transform="rotate(180,207.07,476.43)">
    <path
       class="ColorScheme-ButtonFocus"
       d="m 321.14,825.86 v 4 h 4 v -1.4688 c 0,-1.405 -1.1159,-2.5312 -2.5312,-2.5312 z"
       fill="currentColor"
       id="path179" />
  </g>
</svg>
