<?xml version="1.0" encoding="UTF-8" standalone="no"?>
<svg
   xmlns:dc="http://purl.org/dc/elements/1.1/"
   xmlns:cc="http://creativecommons.org/ns#"
   xmlns:rdf="http://www.w3.org/1999/02/22-rdf-syntax-ns#"
   xmlns:svg="http://www.w3.org/2000/svg"
   xmlns="http://www.w3.org/2000/svg"
   xmlns:sodipodi="http://sodipodi.sourceforge.net/DTD/sodipodi-0.dtd"
   xmlns:inkscape="http://www.inkscape.org/namespaces/inkscape"
   width="50"
   height="90"
   version="1.1"
   id="svg64"
   sodipodi:docname="help.svg"
   inkscape:version="0.92.4 5da689c313, 2019-01-14">
  <metadata
     id="metadata70">
    <rdf:RDF>
      <cc:Work
         rdf:about="">
        <dc:format>image/svg+xml</dc:format>
        <dc:type
           rdf:resource="http://purl.org/dc/dcmitype/StillImage" />
        <dc:title>Vetro</dc:title>
      </cc:Work>
    </rdf:RDF>
  </metadata>
  <defs
     id="defs68" />
  <sodipodi:namedview
     pagecolor="#ffffff"
     bordercolor="#666666"
     borderopacity="1"
     objecttolerance="10"
     gridtolerance="10"
     guidetolerance="10"
     inkscape:pageopacity="0"
     inkscape:pageshadow="2"
     inkscape:window-width="1366"
     inkscape:window-height="692"
     id="namedview66"
     showgrid="true"
     inkscape:zoom="3.7083822"
     inkscape:cx="15.299124"
     inkscape:cy="23.273078"
     inkscape:window-x="0"
     inkscape:window-y="0"
     inkscape:window-maximized="1"
     inkscape:current-layer="svg64"
     inkscape:snap-bbox="true"
     inkscape:bbox-nodes="true"
     inkscape:snap-bbox-edge-midpoints="true"
     inkscape:snap-nodes="true">
    <inkscape:grid
       type="xygrid"
       id="grid846" />
  </sodipodi:namedview>
  <title
     id="title2">Vetro</title>
  <g
     id="active-center"
     transform="translate(49)">
    <rect
       ry="0.85714287"
       y="-7.9936058e-15"
       x="-49"
       height="30"
       width="38"
       id="rect57"
       style="opacity:0;fill:#b3b3b3;fill-opacity:1;stroke:none;stroke-width:1.61422253;stroke-linecap:round;stroke-linejoin:round;stroke-miterlimit:4;stroke-dasharray:none;stroke-opacity:1;paint-order:stroke fill markers" />
    <circle
       r="12"
       cy="15"
       cx="-30"
       id="path48"
       style="opacity:0;fill:#ffffff;fill-opacity:1;stroke:none;stroke-width:2.39841461;stroke-linecap:round;stroke-linejoin:round;stroke-miterlimit:4;stroke-dasharray:none;stroke-opacity:1;paint-order:stroke fill markers" />
    <path
       id="path99"
       d="m -30,7 a 5,5 0 0 0 -5,5 h 1 a 4,4 0 0 1 4,-4 4,4 0 0 1 4,4 4,4 0 0 1 -4,4 v 1 4 h 1 V 16.898438 A 5,5 0 0 0 -25,12 5,5 0 0 0 -30,7 Z m 0,15 v 1 h 1 v -1 z"
       style="opacity:1;fill:#575c67;fill-opacity:1;stroke:none;stroke-width:2;stroke-linecap:round;stroke-linejoin:round;stroke-miterlimit:4;stroke-dasharray:none;stroke-opacity:1;paint-order:stroke fill markers"
       inkscape:connector-curvature="0" />
  </g>
  <g
     id="pressed-center"
     transform="translate(49)">
    <rect
       ry="0.85714287"
       y="64"
       x="-49"
       height="30"
       width="38"
       id="rect75"
       style="opacity:0;fill:#b3b3b3;fill-opacity:1;stroke:none;stroke-width:1.61422253;stroke-linecap:round;stroke-linejoin:round;stroke-miterlimit:4;stroke-dasharray:none;stroke-opacity:1;paint-order:stroke fill markers" />
    <circle
       r="12"
       cy="79"
       cx="-30"
       id="circle77"
       style="opacity:0.2;fill:#000000;fill-opacity:1;stroke:none;stroke-width:2.39841461;stroke-linecap:round;stroke-linejoin:round;stroke-miterlimit:4;stroke-dasharray:none;stroke-opacity:1;paint-order:stroke fill markers" />
    <path
       inkscape:connector-curvature="0"
       style="opacity:1;fill:#575c67;fill-opacity:1;stroke:none;stroke-width:2;stroke-linecap:round;stroke-linejoin:round;stroke-miterlimit:4;stroke-dasharray:none;stroke-opacity:1;paint-order:stroke fill markers"
       d="m -30,71 a 5,5 0 0 0 -5,5 h 1 a 4,4 0 0 1 4,-4 4,4 0 0 1 4,4 4,4 0 0 1 -4,4 v 1 4 h 1 V 80.898438 A 5,5 0 0 0 -25,76 5,5 0 0 0 -30,71 Z m 0,15 v 1 h 1 v -1 z"
       id="path87" />
  </g>
  <g
     id="hover-center"
     transform="translate(49)">
    <rect
       style="opacity:0;fill:#b3b3b3;fill-opacity:1;stroke:none;stroke-width:1.61422253;stroke-linecap:round;stroke-linejoin:round;stroke-miterlimit:4;stroke-dasharray:none;stroke-opacity:1;paint-order:stroke fill markers"
       id="rect65"
       width="38"
       height="30"
       x="-49"
       y="32"
       ry="0.85714287" />
    <circle
       style="opacity:0.1;fill:#000000;fill-opacity:1;stroke:none;stroke-width:2.39841461;stroke-linecap:round;stroke-linejoin:round;stroke-miterlimit:4;stroke-dasharray:none;stroke-opacity:1;paint-order:stroke fill markers"
       id="circle67"
       cx="-30"
       cy="47"
       r="12" />
    <path
       id="path105"
       d="m -30,39 a 5,5 0 0 0 -5,5 h 1 a 4,4 0 0 1 4,-4 4,4 0 0 1 4,4 4,4 0 0 1 -4,4 v 1 4 h 1 V 48.898438 A 5,5 0 0 0 -25,44 5,5 0 0 0 -30,39 Z m 0,15 v 1 h 1 v -1 z"
       style="opacity:1;fill:#575c67;fill-opacity:1;stroke:none;stroke-width:2;stroke-linecap:round;stroke-linejoin:round;stroke-miterlimit:4;stroke-dasharray:none;stroke-opacity:1;paint-order:stroke fill markers"
       inkscape:connector-curvature="0" />
  </g>
  <g
     id="deactivated-center"
     transform="translate(49)">
    <rect
       style="opacity:0;fill:#b3b3b3;fill-opacity:1;stroke:none;stroke-width:1.61422253;stroke-linecap:round;stroke-linejoin:round;stroke-miterlimit:4;stroke-dasharray:none;stroke-opacity:1;paint-order:stroke fill markers"
       id="rect85"
       width="38"
       height="30"
       x="-49"
       y="96"
       ry="0.85714287" />
    <circle
       style="opacity:0.05;fill:#000000;fill-opacity:1;stroke:none;stroke-width:2.39841461;stroke-linecap:round;stroke-linejoin:round;stroke-miterlimit:4;stroke-dasharray:none;stroke-opacity:1;paint-order:stroke fill markers"
       id="circle87"
       cx="-30"
       cy="111"
       r="12" />
    <path
       id="path107"
       d="m -30,103 a 5,5 0 0 0 -5,5 h 1 a 4,4 0 0 1 4,-4 4,4 0 0 1 4,4 4,4 0 0 1 -4,4 v 1 4 h 1 v -4.10156 A 5,5 0 0 0 -25,108 a 5,5 0 0 0 -5,-5 z m 0,15 v 1 h 1 v -1 z"
       style="opacity:1;fill:#575c67;fill-opacity:1;stroke:none;stroke-width:2;stroke-linecap:round;stroke-linejoin:round;stroke-miterlimit:4;stroke-dasharray:none;stroke-opacity:1;paint-order:stroke fill markers"
       inkscape:connector-curvature="0" />
  </g>
  <g
     transform="translate(105)"
     id="inactive-center">
    <rect
       style="opacity:0;fill:#b3b3b3;fill-opacity:1;stroke:none;stroke-width:1.61422253;stroke-linecap:round;stroke-linejoin:round;stroke-miterlimit:4;stroke-dasharray:none;stroke-opacity:1;paint-order:stroke fill markers"
       id="rect124"
       width="38"
       height="30"
       x="-49"
       y="-7.9936058e-15"
       ry="0.85714287" />
    <circle
       style="opacity:0;fill:#ffffff;fill-opacity:1;stroke:none;stroke-width:2.39841461;stroke-linecap:round;stroke-linejoin:round;stroke-miterlimit:4;stroke-dasharray:none;stroke-opacity:1;paint-order:stroke fill markers"
       id="circle126"
       cx="-30"
       cy="15"
       r="12" />
    <path
       inkscape:connector-curvature="0"
       style="opacity:0.5;fill:#575c67;fill-opacity:1;stroke:none;stroke-width:2;stroke-linecap:round;stroke-linejoin:round;stroke-miterlimit:4;stroke-dasharray:none;stroke-opacity:1;paint-order:stroke fill markers"
       d="m -30,7 a 5,5 0 0 0 -5,5 h 1 a 4,4 0 0 1 4,-4 4,4 0 0 1 4,4 4,4 0 0 1 -4,4 v 1 4 h 1 V 16.898438 A 5,5 0 0 0 -25,12 5,5 0 0 0 -30,7 Z m 0,15 v 1 h 1 v -1 z"
       id="path128" />
  </g>
  <g
     transform="translate(105)"
     id="pressed-inactive-center">
    <rect
       style="opacity:0;fill:#b3b3b3;fill-opacity:1;stroke:none;stroke-width:1.61422253;stroke-linecap:round;stroke-linejoin:round;stroke-miterlimit:4;stroke-dasharray:none;stroke-opacity:1;paint-order:stroke fill markers"
       id="rect132"
       width="38"
       height="30"
       x="-49"
       y="64"
       ry="0.85714287" />
    <circle
       style="opacity:0.2;fill:#000000;fill-opacity:1;stroke:none;stroke-width:2.39841461;stroke-linecap:round;stroke-linejoin:round;stroke-miterlimit:4;stroke-dasharray:none;stroke-opacity:1;paint-order:stroke fill markers"
       id="circle134"
       cx="-30"
       cy="79"
       r="12" />
    <path
       id="path136"
       d="m -30,71 a 5,5 0 0 0 -5,5 h 1 a 4,4 0 0 1 4,-4 4,4 0 0 1 4,4 4,4 0 0 1 -4,4 v 1 4 h 1 V 80.898438 A 5,5 0 0 0 -25,76 5,5 0 0 0 -30,71 Z m 0,15 v 1 h 1 v -1 z"
       style="opacity:0.5;fill:#575c67;fill-opacity:1;stroke:none;stroke-width:2;stroke-linecap:round;stroke-linejoin:round;stroke-miterlimit:4;stroke-dasharray:none;stroke-opacity:1;paint-order:stroke fill markers"
       inkscape:connector-curvature="0" />
  </g>
  <g
     transform="translate(105)"
     id="hover-inactive-center">
    <rect
       ry="0.85714287"
       y="32"
       x="-49"
       height="30"
       width="38"
       id="rect140"
       style="opacity:0;fill:#b3b3b3;fill-opacity:1;stroke:none;stroke-width:1.61422253;stroke-linecap:round;stroke-linejoin:round;stroke-miterlimit:4;stroke-dasharray:none;stroke-opacity:1;paint-order:stroke fill markers" />
    <circle
       r="12"
       cy="47"
       cx="-30"
       id="circle142"
       style="opacity:0.1;fill:#000000;fill-opacity:1;stroke:none;stroke-width:2.39841461;stroke-linecap:round;stroke-linejoin:round;stroke-miterlimit:4;stroke-dasharray:none;stroke-opacity:1;paint-order:stroke fill markers" />
    <path
       inkscape:connector-curvature="0"
       style="opacity:0.5;fill:#575c67;fill-opacity:1;stroke:none;stroke-width:2;stroke-linecap:round;stroke-linejoin:round;stroke-miterlimit:4;stroke-dasharray:none;stroke-opacity:1;paint-order:stroke fill markers"
       d="m -30,39 a 5,5 0 0 0 -5,5 h 1 a 4,4 0 0 1 4,-4 4,4 0 0 1 4,4 4,4 0 0 1 -4,4 v 1 4 h 1 V 48.898438 A 5,5 0 0 0 -25,44 5,5 0 0 0 -30,39 Z m 0,15 v 1 h 1 v -1 z"
       id="path144" />
  </g>
  <g
     transform="translate(105)"
     id="deactivated-inactive-center">
    <rect
       ry="0.85714287"
       y="96"
       x="-49"
       height="30"
       width="38"
       id="rect148"
       style="opacity:0;fill:#b3b3b3;fill-opacity:1;stroke:none;stroke-width:1.61422253;stroke-linecap:round;stroke-linejoin:round;stroke-miterlimit:4;stroke-dasharray:none;stroke-opacity:1;paint-order:stroke fill markers" />
    <circle
       r="12"
       cy="111"
       cx="-30"
       id="circle150"
       style="opacity:0.05;fill:#000000;fill-opacity:1;stroke:none;stroke-width:2.39841461;stroke-linecap:round;stroke-linejoin:round;stroke-miterlimit:4;stroke-dasharray:none;stroke-opacity:1;paint-order:stroke fill markers" />
    <path
       inkscape:connector-curvature="0"
       style="opacity:0.5;fill:#575c67;fill-opacity:1;stroke:none;stroke-width:2;stroke-linecap:round;stroke-linejoin:round;stroke-miterlimit:4;stroke-dasharray:none;stroke-opacity:1;paint-order:stroke fill markers"
       d="m -30,103 a 5,5 0 0 0 -5,5 h 1 a 4,4 0 0 1 4,-4 4,4 0 0 1 4,4 4,4 0 0 1 -4,4 v 1 4 h 1 v -4.10156 A 5,5 0 0 0 -25,108 a 5,5 0 0 0 -5,-5 z m 0,15 v 1 h 1 v -1 z"
       id="path152" />
  </g>
</svg>
