<?xml version="1.0" encoding="UTF-8" standalone="no"?>
<svg
   xmlns:dc="http://purl.org/dc/elements/1.1/"
   xmlns:cc="http://creativecommons.org/ns#"
   xmlns:rdf="http://www.w3.org/1999/02/22-rdf-syntax-ns#"
   xmlns:svg="http://www.w3.org/2000/svg"
   xmlns="http://www.w3.org/2000/svg"
   xmlns:sodipodi="http://sodipodi.sourceforge.net/DTD/sodipodi-0.dtd"
   xmlns:inkscape="http://www.inkscape.org/namespaces/inkscape"
   id="svg4379"
   width="200"
   height="200"
   version="1.1"
   viewBox="0 0 200 200"
   sodipodi:docname="kde.svg"
   inkscape:version="0.92.4 (5da689c313, 2019-01-14)">
  <metadata
     id="metadata41">
    <rdf:RDF>
      <cc:Work
         rdf:about="">
        <dc:format>image/svg+xml</dc:format>
        <dc:type
           rdf:resource="http://purl.org/dc/dcmitype/StillImage" />
        <dc:title />
      </cc:Work>
    </rdf:RDF>
  </metadata>
  <sodipodi:namedview
     pagecolor="#2e3236"
     bordercolor="#666666"
     borderopacity="1"
     objecttolerance="10"
     gridtolerance="10"
     guidetolerance="10"
     inkscape:pageopacity="0"
     inkscape:pageshadow="2"
     inkscape:window-width="1366"
     inkscape:window-height="709"
     id="namedview39"
     showgrid="false"
     inkscape:zoom="1.84375"
     inkscape:cx="-35.652808"
     inkscape:cy="79.141119"
     inkscape:window-x="0"
     inkscape:window-y="0"
     inkscape:window-maximized="1"
     inkscape:current-layer="svg4379">
    <inkscape:grid
       type="xygrid"
       id="grid839" />
  </sodipodi:namedview>
  <defs
     id="defs4381" />
  <g
     id="g4522"
     transform="matrix(1.3636364,0,0,1.3636364,12.72727,-110.45455)"
     style="stroke-width:0.73333335">
    <path
       inkscape:connector-curvature="0"
       id="circle846"
       d="M 64,81 A 55,55 0 0 0 9,136 55,55 0 0 0 64,191 55,55 0 0 0 119,136 55,55 0 0 0 64,81 Z m 0,4 a 50.999999,50.999999 0 0 1 51,51 50.999999,50.999999 0 0 1 -51,51 50.999999,50.999999 0 0 1 -51,-51 50.999999,50.999999 0 0 1 51,-51 z"
       style="opacity:1;fill:#ffffff;fill-opacity:1;fill-rule:evenodd;stroke:none;stroke-width:17.60000038;stroke-linecap:round;stroke-linejoin:round;stroke-miterlimit:4;stroke-dasharray:none;stroke-opacity:0.29411765;paint-order:fill markers stroke" />
    <path
       d="M 105,158 H 49 l 26,-48 z"
       id="path1820"
       inkscape:connector-curvature="0"
       style="opacity:0.5;fill:#ffffff;fill-opacity:1;stroke:none;stroke-width:0.7333315;stroke-linecap:round;stroke-linejoin:miter;stroke-miterlimit:4;stroke-dasharray:none;stroke-opacity:0.494;paint-order:stroke fill markers"
       sodipodi:nodetypes="cccc" />
    <path
       id="rect1817"
       d="M 86,158 H 23 L 53,99 Z"
       inkscape:connector-curvature="0"
       style="opacity:1;fill:#ffffff;fill-opacity:1;stroke:none;stroke-width:0.7333315;stroke-linecap:round;stroke-linejoin:miter;stroke-miterlimit:4;stroke-dasharray:none;stroke-opacity:0.494;paint-order:stroke fill markers"
       sodipodi:nodetypes="cccc" />
  </g>
</svg>
