<svg version="1.1" viewBox="0 0 54 32" xmlns="http://www.w3.org/2000/svg">
 <defs>
  <style id="current-color-scheme" type="text/css">.ColorScheme-Text {
        color:#5c616c;
      }</style>
 </defs>
 <g id="22-22-apport">
  <path class="ColorScheme-Text" d="m6 13c-1.662 0-3 1.338-3 3v10c0 1.662 1.338 3 3 3h10c1.662 0 3-1.338 3-3v-10c0-1.662-1.338-3-3-3h-10zm0 1h10c1.108 0 2 0.892 2 2v10c0 1.108-0.892 2-2 2h-10c-1.108 0-2-0.892-2-2v-10c0-1.108 0.892-2 2-2zm-1 1v1h1v-1h-1zm1 1v2h2v-2h-2zm2 0h1v-1h-1v1zm0 2v1h1v-1h-1zm-2 0h-1v1h1v-1zm7-3v1h1v-1h-1zm1 1v2h2v-2h-2zm2 0h1v-1h-1v1zm0 2v1h1v-1h-1zm-2 0h-1v1h1v-1zm-5 3v2h4v-2h-4zm4 2v2h2v-2h-2zm2 2v2h2v-2h-2zm-6-2h-2v2h2v-2zm-2 2h-2v2h2v-2z" fill="currentColor"/>
  <path d="m0 10v22h22v-22z" fill="none"/>
 </g>
 <g id="apport">
  <path class="ColorScheme-Text" d="m30 4c-2.216 0-4 1.784-4 4v16c0 2.216 1.784 4 4 4h16c2.216 0 4-1.784 4-4v-16c0-2.216-1.784-4-4-4h-16zm0 1h16c1.662 0 3 1.338 3 3v16c0 1.662-1.338 3-3 3h-16c-1.662 0-3-1.338-3-3v-16c0-1.662 1.338-3 3-3zm-1 2v2h2v-2h-2zm2 2v3h3v-3h-3zm3 0h2v-2h-2v2zm0 3v2h2v-2h-2zm-3 0h-2v2h2v-2zm9-5v2h2v-2h-2zm2 2v3h3v-3h-3zm3 0h2v-2h-2v2zm0 3v2h2v-2h-2zm-3 0h-2v2h2v-2zm-8 5v2h8v-2h-8zm8 2v2h2v-2h-2zm2 2v2h2v-2h-2zm-10-2h-2v2h2v-2zm-2 2h-2v2h2v-2z" fill="currentColor"/>
  <path d="m22 0v32h32v-32z" fill="none"/>
 </g>
</svg>
