<svg id="svg203" width="22" height="22" version="1.0" xmlns="http://www.w3.org/2000/svg">
 <defs id="defs5">
  <style id="current-color-scheme" type="text/css">.ColorScheme-Text{color:#5c616c}</style>
 </defs>
 <g id="audio-volume-high" transform="translate(0,-23)">
  <rect id="rect7" x="-2" y="49" width="32" height="32" fill="none"/>
  <g id="g11" transform="matrix(1.4545 0 0 1.4545 .91095 53.369)">
   <path id="path9" d="m4.1862 5.2463h-2.0625v5.5h2.0625l3.4375 2.75h0.6875v-11h-0.6875z" class="ColorScheme-Text" fill="currentColor"/>
  </g>
  <g id="g19" class="ColorScheme-Text" fill="currentColor">
   <path id="path13" d="m15.596 60.205-1.1992 1.5996a4.0002 4.0002 0 0 1 1.6035 3.1953 4.0002 4.0002 0 0 1-1.6035 3.1973l1.1992 1.5957a6.0002 6.0002 0 0 0 2.4043-4.793 6.0002 6.0002 0 0 0-2.4043-4.7949z"/>
   <path id="path15" d="m17.994 57.008-1.1992 1.5996a8.0002 8.0002 0 0 1 3.2051 6.3926 8.0002 8.0002 0 0 1-3.2051 6.3945l1.1973 1.5957a10 10 0 0 0 4.0078-7.9902 10 10 0 0 0-4.0059-7.9922z"/>
   <path id="path17" d="m20.393 53.811-1.2012 1.6016a12 12 0 0 1 4.8086 9.5879 12 12 0 0 1-4.8066 9.5898l1.1953 1.5957a14 14 0 0 0 5.6113-11.186 14 14 0 0 0-5.6074-11.189z"/>
  </g>
 </g>
 <g id="audio-volume-medium" transform="translate(37,-23)">
  <rect id="rect22" x="-2" y="49" width="32" height="32" fill="none"/>
  <g id="g26" transform="matrix(1.4545 0 0 1.4545 .91095 53.369)">
   <path id="path24" d="m4.1862 5.2463h-2.0625v5.5h2.0625l3.4375 2.75h0.6875v-11h-0.6875z" class="ColorScheme-Text" fill="currentColor"/>
  </g>
  <g id="g34" class="ColorScheme-Text" fill="currentColor">
   <path id="path28" d="m15.596 60.205-1.1992 1.5996a4.0002 4.0002 0 0 1 1.6035 3.1953 4.0002 4.0002 0 0 1-1.6035 3.1973l1.1992 1.5957a6.0002 6.0002 0 0 0 2.4043-4.793 6.0002 6.0002 0 0 0-2.4043-4.7949z"/>
   <path id="path30" d="m17.994 57.008-1.1992 1.5996a8.0002 8.0002 0 0 1 3.2051 6.3926 8.0002 8.0002 0 0 1-3.2051 6.3945l1.1973 1.5957a10 10 0 0 0 4.0078-7.9902 10 10 0 0 0-4.0059-7.9922z"/>
   <path id="path32" d="m20.393 53.811-1.2012 1.6016a12 12 0 0 1 4.8086 9.5879 12 12 0 0 1-4.8066 9.5898l1.1953 1.5957a14 14 0 0 0 5.6113-11.186 14 14 0 0 0-5.6074-11.189z" opacity=".25"/>
  </g>
 </g>
 <g id="audio-volume-low" transform="translate(72,-23)">
  <rect id="rect37" x="-2" y="49" width="32" height="32" fill="none"/>
  <g id="g41" transform="matrix(1.4545 0 0 1.4545 .91095 53.369)">
   <path id="path39" d="m4.1862 5.2463h-2.0625v5.5h2.0625l3.4375 2.75h0.6875v-11h-0.6875z" class="ColorScheme-Text" fill="currentColor"/>
  </g>
  <g id="g49" class="ColorScheme-Text" fill="currentColor">
   <path id="path43" d="m15.596 60.205-1.1992 1.5996a4.0002 4.0002 0 0 1 1.6035 3.1953 4.0002 4.0002 0 0 1-1.6035 3.1973l1.1992 1.5957a6.0002 6.0002 0 0 0 2.4043-4.793 6.0002 6.0002 0 0 0-2.4043-4.7949z"/>
   <path id="path45" d="m17.994 57.008-1.1992 1.5996a8.0002 8.0002 0 0 1 3.2051 6.3926 8.0002 8.0002 0 0 1-3.2051 6.3945l1.1973 1.5957a10 10 0 0 0 4.0078-7.9902 10 10 0 0 0-4.0059-7.9922z" opacity=".25"/>
   <path id="path47" d="m20.393 53.811-1.2012 1.6016a12 12 0 0 1 4.8086 9.5879 12 12 0 0 1-4.8066 9.5898l1.1953 1.5957a14 14 0 0 0 5.6113-11.186 14 14 0 0 0-5.6074-11.189z" opacity=".25"/>
  </g>
 </g>
 <g id="audio-volume-muted" transform="translate(107,-23)">
  <rect id="rect52" x="-2" y="49" width="32" height="32" fill="none"/>
  <g id="g56" transform="matrix(1.4545 0 0 1.4545 .91095 53.369)">
   <path id="path54" d="m4.1862 5.2463h-2.0625v5.5h2.0625l3.4375 2.75h0.6875v-11h-0.6875z" class="ColorScheme-Text" fill="currentColor" opacity=".35"/>
  </g>
  <g id="g64" class="ColorScheme-Text" fill="currentColor">
   <path id="path58" d="m15.596 60.205-1.1992 1.5996a4.0002 4.0002 0 0 1 1.6035 3.1953 4.0002 4.0002 0 0 1-1.6035 3.1973l1.1992 1.5957a6.0002 6.0002 0 0 0 2.4043-4.793 6.0002 6.0002 0 0 0-2.4043-4.7949z" opacity=".35"/>
   <path id="path60" d="m17.994 57.008-1.1992 1.5996a8.0002 8.0002 0 0 1 3.2051 6.3926 8.0002 8.0002 0 0 1-3.2051 6.3945l1.1973 1.5957a10 10 0 0 0 4.0078-7.9902 10 10 0 0 0-4.0059-7.9922z" opacity=".35"/>
   <path id="path62" d="m20.393 53.811-1.2012 1.6016a12 12 0 0 1 4.8086 9.5879 12 12 0 0 1-4.8066 9.5898l1.1953 1.5957a14 14 0 0 0 5.6113-11.186 14 14 0 0 0-5.6074-11.189z" opacity=".35"/>
  </g>
 </g>
 <g id="16-16-audio-volume-high" transform="translate(0,16)">
  <rect id="rect67" x="4" y="-40" width="16" height="16" fill="none"/>
  <g id="g79" class="ColorScheme-Text" fill="currentColor">
   <path id="path69" d="m9.47-38-3 3h-2.47v6h2.469l3.062 3.031 0.469-0.031v-12h-0.531z"/>
   <g id="g77">
    <path id="path71" d="m11.996-35.996-0.59961 0.80078a4 4 0 0 1 1.6035 3.1953 4 4 0 0 1-1.6035 3.1973l0.59961 0.79688a5 5 0 0 0 2.0039-3.9941 5 5 0 0 0-2.0039-3.9961z"/>
    <path id="path73" d="m14.195-37.594-0.59961 0.79883a6 6 0 0 1 2.4043 4.7949 6 6 0 0 1-2.4043 4.7949l0.59961 0.79883a7 7 0 0 0 2.8047-5.5938 7 7 0 0 0-2.8047-5.5938z"/>
    <path id="path75" d="m16.395-39.193-0.59961 0.80078a8 8 0 0 1 3.2051 6.3926 8 8 0 0 1-3.2051 6.3945l0.59766 0.79688a9 9 0 0 0 3.6074-7.1914 9 9 0 0 0-3.6055-7.1934z"/>
   </g>
  </g>
 </g>
 <g id="16-16-audio-volume-medium" transform="translate(17,16)">
  <rect id="rect82" x="4" y="-40" width="16" height="16" fill="none"/>
  <g id="g94" class="ColorScheme-Text" fill="currentColor">
   <path id="path84" d="m9.47-38-3 3h-2.47v6h2.469l3.062 3.031 0.469-0.031v-12h-0.531z"/>
   <g id="g92">
    <path id="path86" d="m11.996-35.996-0.59961 0.80078a4 4 0 0 1 1.6035 3.1953 4 4 0 0 1-1.6035 3.1973l0.59961 0.79688a5 5 0 0 0 2.0039-3.9941 5 5 0 0 0-2.0039-3.9961z"/>
    <path id="path88" d="m14.195-37.594-0.59961 0.79883a6 6 0 0 1 2.4043 4.7949 6 6 0 0 1-2.4043 4.7949l0.59961 0.79883a7 7 0 0 0 2.8047-5.5938 7 7 0 0 0-2.8047-5.5938z"/>
    <path id="path90" d="m16.395-39.193-0.59961 0.80078a8 8 0 0 1 3.2051 6.3926 8 8 0 0 1-3.2051 6.3945l0.59766 0.79688a9 9 0 0 0 3.6074-7.1914 9 9 0 0 0-3.6055-7.1934z" opacity=".25"/>
   </g>
  </g>
 </g>
 <g id="16-16-audio-volume-low" transform="translate(34,16)">
  <rect id="rect97" x="4" y="-40" width="16" height="16" fill="none"/>
  <g id="g109" class="ColorScheme-Text" fill="currentColor">
   <path id="path99" d="m9.47-38-3 3h-2.47v6h2.469l3.062 3.031 0.469-0.031v-12h-0.531z"/>
   <g id="g107">
    <path id="path101" d="m11.996-35.996-0.59961 0.80078a4 4 0 0 1 1.6035 3.1953 4 4 0 0 1-1.6035 3.1973l0.59961 0.79688a5 5 0 0 0 2.0039-3.9941 5 5 0 0 0-2.0039-3.9961z"/>
    <path id="path103" d="m14.195-37.594-0.59961 0.79883a6 6 0 0 1 2.4043 4.7949 6 6 0 0 1-2.4043 4.7949l0.59961 0.79883a7 7 0 0 0 2.8047-5.5938 7 7 0 0 0-2.8047-5.5938z" opacity=".25"/>
    <path id="path105" d="m16.395-39.193-0.59961 0.80078a8 8 0 0 1 3.2051 6.3926 8 8 0 0 1-3.2051 6.3945l0.59766 0.79688a9 9 0 0 0 3.6074-7.1914 9 9 0 0 0-3.6055-7.1934z" opacity=".25"/>
   </g>
  </g>
 </g>
 <g id="16-16-audio-volume-muted" transform="translate(51,16)">
  <rect id="rect112" x="4" y="-40" width="16" height="16" fill="none"/>
  <g id="g124" class="ColorScheme-Text" fill="currentColor">
   <path id="path114" d="m9.47-38-3 3h-2.47v6h2.469l3.062 3.031 0.469-0.031v-12h-0.531z" opacity=".25"/>
   <g id="g122">
    <path id="path116" d="m11.996-35.996-0.59961 0.80078a4 4 0 0 1 1.6035 3.1953 4 4 0 0 1-1.6035 3.1973l0.59961 0.79688a5 5 0 0 0 2.0039-3.9941 5 5 0 0 0-2.0039-3.9961z" opacity=".25"/>
    <path id="path118" d="m14.195-37.594-0.59961 0.79883a6 6 0 0 1 2.4043 4.7949 6 6 0 0 1-2.4043 4.7949l0.59961 0.79883a7 7 0 0 0 2.8047-5.5938 7 7 0 0 0-2.8047-5.5938z" opacity=".25"/>
    <path id="path120" d="m16.395-39.193-0.59961 0.80078a8 8 0 0 1 3.2051 6.3926 8 8 0 0 1-3.2051 6.3945l0.59766 0.79688a9 9 0 0 0 3.6074-7.1914 9 9 0 0 0-3.6055-7.1934z" opacity=".25"/>
   </g>
  </g>
 </g>
 <g id="22-22-audio-volume-high" transform="translate(0,22)">
  <rect id="rect127" y="-22" width="22" height="22" fill="none"/>
  <g id="g143" transform="translate(-1,21)">
   <rect id="rect129" x="4" y="-40" width="16" height="16" fill="none"/>
   <g id="g141" class="ColorScheme-Text" fill="currentColor">
    <path id="path131" d="m9.47-38-3 3h-2.47v6h2.469l3.062 3.031 0.469-0.031v-12h-0.531z"/>
    <g id="g139">
     <path id="path133" d="m11.996-35.996-0.59961 0.80078a4 4 0 0 1 1.6035 3.1953 4 4 0 0 1-1.6035 3.1973l0.59961 0.79688a5 5 0 0 0 2.0039-3.9941 5 5 0 0 0-2.0039-3.9961z"/>
     <path id="path135" d="m14.195-37.594-0.59961 0.79883a6 6 0 0 1 2.4043 4.7949 6 6 0 0 1-2.4043 4.7949l0.59961 0.79883a7 7 0 0 0 2.8047-5.5938 7 7 0 0 0-2.8047-5.5938z"/>
     <path id="path137" d="m16.395-39.193-0.59961 0.80078a8 8 0 0 1 3.2051 6.3926 8 8 0 0 1-3.2051 6.3945l0.59766 0.79688a9 9 0 0 0 3.6074-7.1914 9 9 0 0 0-3.6055-7.1934z"/>
    </g>
   </g>
  </g>
 </g>
 <g id="22-22-audio-volume-medium" transform="translate(22,22)">
  <rect id="rect146" y="-22" width="22" height="22" fill="none"/>
  <g id="g162" transform="translate(-1,21)">
   <rect id="rect148" x="4" y="-40" width="16" height="16" fill="none"/>
   <g id="g160" class="ColorScheme-Text" fill="currentColor">
    <path id="path150" d="m9.47-38-3 3h-2.47v6h2.469l3.062 3.031 0.469-0.031v-12h-0.531z"/>
    <g id="g158">
     <path id="path152" d="m11.996-35.996-0.59961 0.80078a4 4 0 0 1 1.6035 3.1953 4 4 0 0 1-1.6035 3.1973l0.59961 0.79688a5 5 0 0 0 2.0039-3.9941 5 5 0 0 0-2.0039-3.9961z"/>
     <path id="path154" d="m14.195-37.594-0.59961 0.79883a6 6 0 0 1 2.4043 4.7949 6 6 0 0 1-2.4043 4.7949l0.59961 0.79883a7 7 0 0 0 2.8047-5.5938 7 7 0 0 0-2.8047-5.5938z"/>
     <path id="path156" d="m16.395-39.193-0.59961 0.80078a8 8 0 0 1 3.2051 6.3926 8 8 0 0 1-3.2051 6.3945l0.59766 0.79688a9 9 0 0 0 3.6074-7.1914 9 9 0 0 0-3.6055-7.1934z" opacity=".25"/>
    </g>
   </g>
  </g>
 </g>
 <g id="22-22-audio-volume-low" transform="translate(44,22)">
  <rect id="rect165" y="-22" width="22" height="22" fill="none"/>
  <g id="g181" transform="translate(-1,21)">
   <rect id="rect167" x="4" y="-40" width="16" height="16" fill="none"/>
   <g id="g179" class="ColorScheme-Text" fill="currentColor">
    <path id="path169" d="m9.47-38-3 3h-2.47v6h2.469l3.062 3.031 0.469-0.031v-12h-0.531z"/>
    <g id="g177">
     <path id="path171" d="m11.996-35.996-0.59961 0.80078a4 4 0 0 1 1.6035 3.1953 4 4 0 0 1-1.6035 3.1973l0.59961 0.79688a5 5 0 0 0 2.0039-3.9941 5 5 0 0 0-2.0039-3.9961z"/>
     <path id="path173" d="m14.195-37.594-0.59961 0.79883a6 6 0 0 1 2.4043 4.7949 6 6 0 0 1-2.4043 4.7949l0.59961 0.79883a7 7 0 0 0 2.8047-5.5938 7 7 0 0 0-2.8047-5.5938z" opacity=".25"/>
     <path id="path175" d="m16.395-39.193-0.59961 0.80078a8 8 0 0 1 3.2051 6.3926 8 8 0 0 1-3.2051 6.3945l0.59766 0.79688a9 9 0 0 0 3.6074-7.1914 9 9 0 0 0-3.6055-7.1934z" opacity=".25"/>
    </g>
   </g>
  </g>
 </g>
 <g id="22-22-audio-volume-muted" transform="translate(66,22)">
  <rect id="rect184" y="-22" width="22" height="22" fill="none"/>
  <g id="g200" transform="translate(-1,21)">
   <rect id="rect186" x="4" y="-40" width="16" height="16" fill="none"/>
   <g id="g198" class="ColorScheme-Text" fill="currentColor">
    <path id="path188" d="m9.47-38-3 3h-2.47v6h2.469l3.062 3.031 0.469-0.031v-12h-0.531z" opacity=".25"/>
    <g id="g196">
     <path id="path190" d="m11.996-35.996-0.59961 0.80078a4 4 0 0 1 1.6035 3.1953 4 4 0 0 1-1.6035 3.1973l0.59961 0.79688a5 5 0 0 0 2.0039-3.9941 5 5 0 0 0-2.0039-3.9961z" opacity=".25"/>
     <path id="path192" d="m14.195-37.594-0.59961 0.79883a6 6 0 0 1 2.4043 4.7949 6 6 0 0 1-2.4043 4.7949l0.59961 0.79883a7 7 0 0 0 2.8047-5.5938 7 7 0 0 0-2.8047-5.5938z" opacity=".25"/>
     <path id="path194" d="m16.395-39.193-0.59961 0.80078a8 8 0 0 1 3.2051 6.3926 8 8 0 0 1-3.2051 6.3945l0.59766 0.79688a9 9 0 0 0 3.6074-7.1914 9 9 0 0 0-3.6055-7.1934z" opacity=".25"/>
    </g>
   </g>
  </g>
 </g>
</svg>
