<svg width="32" height="32" version="1.1" xmlns="http://www.w3.org/2000/svg">
 <defs>
  <style id="current-color-scheme" type="text/css">.ColorScheme-Text{color:#5c616c}</style>
 </defs>
 <g id="device-notifier">
  <path class="ColorScheme-Text" d="m8 1v8c-1.108 0-2 0.892-2 2v18c0 1.108 0.892 2 2 2h16c1.108 0 2-0.892 2-2v-18c0-1.108-0.892-2-2-2v-8zm1 1h14v7h-14zm2 3v2h3v-2zm7 0v2h3v-2zm-10 5h16c0.554 0 1 0.446 1 1v18c0 0.554-0.446 1-1 1h-16c-0.554 0-1-0.446-1-1v-18c0-0.554 0.446-1 1-1zm8 9-2 2h4zm-6 5v1h12v-1zm1 3v1h10v-1z" fill="currentColor"/>
  <path d="m0 0h32v32h-32z" fill="none" opacity=".2"/>
 </g>
 <g id="22-22-device-notifier">
  <path class="ColorScheme-Text" d="m44 12c-1.108 0-2 0.892-2 2v8c0 1.108 0.892 2 2 2h8c1.108 0 2-0.892 2-2v-8c0-1.108-0.892-2-2-2h-8zm0 1h8c0.554 0 1 0.446 1 1v8c0 0.554-0.446 1-1 1h-8c-0.554 0-1-0.446-1-1v-8c0-0.554 0.446-1 1-1z" fill="currentColor"/>
  <path d="m37 5h22v22h-22z" fill="none" opacity=".2"/>
  <path class="ColorScheme-Text" d="m44 8v3.9922h1v-2.9922h6.0156v2.9922h1v-3.9922h-8.0156zm2.0078 1.9922v1h1v-1h-1zm3 0v1h1v-1h-1z" fill="currentColor"/>
  <path class="ColorScheme-Text" d="m48 17-1 1h2zm-2 3v1h4v-1z" fill="currentColor"/>
 </g>
 <g id="16-16-device-notifier">
  <path d="m65.007 8h16v16h-16z" fill="none" opacity=".2"/>
  <path class="ColorScheme-Text" d="m69.007 8v3.9922h1v-2.9922h6.0156v2.9922h1v-3.9922zm2.0078 1.9922v1h1v-1zm3 0v1h1v-1zm-5.0078 2.0078c-1.108 0-2 0.892-2 2v8c0 1.108 0.892 2 2 2h8c1.108 0 2-0.892 2-2v-8c0-1.108-0.892-2-2-2zm0 1h8c0.554 0 1 0.446 1 1v8c0 0.554-0.446 1-1 1h-8c-0.554 0-1-0.446-1-1v-8c0-0.554 0.446-1 1-1zm4 4-1 1h2zm-2 3v1h4v-1z" fill="currentColor"/>
 </g>
</svg>
