<?xml version="1.0" encoding="UTF-8" standalone="no"?>
<svg
   width="32"
   height="32"
   version="1.1"
   id="svg24"
   sodipodi:docname="device.svg"
   inkscape:version="1.2.2 (b0a8486541, 2022-12-01)"
   xmlns:inkscape="http://www.inkscape.org/namespaces/inkscape"
   xmlns:sodipodi="http://sodipodi.sourceforge.net/DTD/sodipodi-0.dtd"
   xmlns="http://www.w3.org/2000/svg"
   xmlns:svg="http://www.w3.org/2000/svg">
  <sodipodi:namedview
     id="namedview26"
     pagecolor="#ffffff"
     bordercolor="#666666"
     borderopacity="1.0"
     inkscape:pageshadow="2"
     inkscape:pageopacity="0.0"
     inkscape:pagecheckerboard="0"
     showgrid="true"
     inkscape:zoom="4.0879611"
     inkscape:cx="142.61388"
     inkscape:cy="83.293357"
     inkscape:window-width="3840"
     inkscape:window-height="2036"
     inkscape:window-x="0"
     inkscape:window-y="64"
     inkscape:window-maximized="1"
     inkscape:current-layer="svg24"
     inkscape:showpageshadow="2"
     inkscape:deskcolor="#d1d1d1">
    <inkscape:grid
       type="xygrid"
       id="grid843" />
  </sodipodi:namedview>
  <defs
     id="defs3">
    <style
       id="current-color-scheme"
       type="text/css">.ColorScheme-Text{color:#5c616c}</style>
  </defs>
  <g
     id="device-notifier">
    <path
       class="ColorScheme-Text"
       d="m 8,4 v 7 c -1.108,0 -2,0.892 -2,2 v 13 c 0,1.108 0.892,2 2,2 h 16 c 1.108,0 2,-0.892 2,-2 V 13 c 0,-1.108 -0.892,-2 -2,-2 V 4 Z m 1,1 h 14 v 6 H 9 Z m 3,2 v 2 h 3 V 7 Z m 5,0 v 2 h 3 V 7 Z m -9,5 h 16 c 0.554,0 1,0.446 1,1 v 13 c 0,0.554 -0.446,1 -1,1 H 8 C 7.446,27 7,26.554 7,26 V 13 c 0,-0.554 0.446,-1 1,-1 z m 8,6 -2,2 h 4 z m -4,4 v 1 h 8 v -1 z m 1,2 v 1 h 6 v -1 z"
       fill="currentColor"
       id="path5"
       sodipodi:nodetypes="ccssssssccccccccccccccccccssssssssscccccccccccccc" />
    <path
       d="m0 0h32v32h-32z"
       fill="none"
       opacity=".2"
       id="path7" />
  </g>
  <g
     id="22-22-device-notifier">
    <path
       class="ColorScheme-Text"
       d="m44 12c-1.108 0-2 0.892-2 2v8c0 1.108 0.892 2 2 2h8c1.108 0 2-0.892 2-2v-8c0-1.108-0.892-2-2-2h-8zm0 1h8c0.554 0 1 0.446 1 1v8c0 0.554-0.446 1-1 1h-8c-0.554 0-1-0.446-1-1v-8c0-0.554 0.446-1 1-1z"
       fill="currentColor"
       id="path10" />
    <path
       d="m37 5h22v22h-22z"
       fill="none"
       opacity=".2"
       id="path12" />
    <path
       class="ColorScheme-Text"
       d="m44 8v3.9922h1v-2.9922h6.0156v2.9922h1v-3.9922h-8.0156zm2.0078 1.9922v1h1v-1h-1zm3 0v1h1v-1h-1z"
       fill="currentColor"
       id="path14" />
    <path
       class="ColorScheme-Text"
       d="m48 17-1 1h2zm-2 3v1h4v-1z"
       fill="currentColor"
       id="path16" />
  </g>
  <g
     id="16-16-device-notifier">
    <path
       d="m65.007 8h16v16h-16z"
       fill="none"
       opacity=".2"
       id="path19" />
    <path
       class="ColorScheme-Text"
       d="m69.007 8v3.9922h1v-2.9922h6.0156v2.9922h1v-3.9922zm2.0078 1.9922v1h1v-1zm3 0v1h1v-1zm-5.0078 2.0078c-1.108 0-2 0.892-2 2v8c0 1.108 0.892 2 2 2h8c1.108 0 2-0.892 2-2v-8c0-1.108-0.892-2-2-2zm0 1h8c0.554 0 1 0.446 1 1v8c0 0.554-0.446 1-1 1h-8c-0.554 0-1-0.446-1-1v-8c0-0.554 0.446-1 1-1zm4 4-1 1h2zm-2 3v1h4v-1z"
       fill="currentColor"
       id="path21" />
  </g>
</svg>
