<svg version="1.1" viewBox="0 0 54 32" xmlns="http://www.w3.org/2000/svg">
 <style id="current-color-scheme" type="text/css">.ColorScheme-NegativeText {
            color:#da4453;
        }</style>
 <g id="22-22-edit-delete">
  <path d="m0 10v22h22v-22z" fill="none"/>
  <path class="ColorScheme-NegativeText" d="m8 13v2h1v-1h4v1h1v-2zm-4 3v1h14v-1zm2 2v11h10v-11h-1v10h-8v-10z" fill="currentColor"/>
 </g>
 <g id="edit-delete">
  <path d="m22 0v32h32v-32z" fill="none"/>
  <path class="ColorScheme-NegativeText" d="m46 10v18h-16v-18h1v17h14v-17zm3-2h-22v1h22zm-7-4v3h-1v-2h-6v2h-1v-3z" fill="currentColor"/>
 </g>
 <g id="16-16-edit-delete">
  <path d="m-16 16h16v16h-16z" fill="none"/>
  <path class="ColorScheme-NegativeText" d="m-11 18v2h1v-1h4v1h1v-2h-5zm-3 3v1h2v8h8v-8h2v-1zm3 1h6v7h-6z" fill="currentColor"/>
 </g>
</svg>
