<?xml version="1.0" encoding="UTF-8" standalone="no"?>
<svg
   id="svg221"
   width="242"
   height="154"
   version="1.1"
   sodipodi:docname="fcitx.svg"
   inkscape:version="1.2.1 (9c6d41e410, 2022-07-14)"
   xmlns:inkscape="http://www.inkscape.org/namespaces/inkscape"
   xmlns:sodipodi="http://sodipodi.sourceforge.net/DTD/sodipodi-0.dtd"
   xmlns="http://www.w3.org/2000/svg"
   xmlns:svg="http://www.w3.org/2000/svg">
  <sodipodi:namedview
     id="namedview134"
     pagecolor="#ffffff"
     bordercolor="#666666"
     borderopacity="1.0"
     inkscape:pageshadow="2"
     inkscape:pageopacity="0.0"
     inkscape:pagecheckerboard="0"
     showgrid="false"
     inkscape:snap-bbox="true"
     inkscape:bbox-nodes="true"
     inkscape:zoom="4.8376624"
     inkscape:cx="168.26309"
     inkscape:cy="60.359731"
     inkscape:window-width="1368"
     inkscape:window-height="700"
     inkscape:window-x="0"
     inkscape:window-y="32"
     inkscape:window-maximized="1"
     inkscape:current-layer="svg221"
     inkscape:showpageshadow="2"
     inkscape:deskcolor="#d1d1d1">
    <inkscape:grid
       type="xygrid"
       id="grid1611" />
  </sodipodi:namedview>
  <defs
     id="defs3">
    <style
       id="current-color-scheme"
       type="text/css">.ColorScheme-Text{color:#5c616c}</style>
  </defs>
  <g
     id="fcitx-fullwidth-active"
     transform="translate(132 -82)">
    <path
       id="path125"
       d="M0 170h22v22H0z"
       fill="none" />
    <ellipse
       id="ellipse127"
       class="ColorScheme-Text"
       cx="11"
       cy="181"
       rx="8"
       ry="8"
       fill="currentColor" />
  </g>
  <g
     id="fcitx-fullwidth-inactive"
     transform="translate(154 -82)">
    <path
       id="path130"
       d="M0 170h22v22H0z"
       fill="none" />
    <path
       id="path132"
       class="ColorScheme-Text"
       transform="translate(-154 82)"
       d="M167.566 91.432A8 8 0 0 1 168 94a8 8 0 0 1-8 8 8 8 0 0 1-2.566-.432A8 8 0 0 0 165 107a8 8 0 0 0 8-8 8 8 0 0 0-5.434-7.568z"
       fill="currentColor" />
  </g>
  <g
     id="fcitx-punc-inactive"
     transform="translate(154 -60)">
    <path
       id="path135"
       d="M0 170h22v22H0z"
       fill="none" />
    <circle
       id="circle137"
       class="ColorScheme-Text"
       cx="7.5"
       cy="180.5"
       r="1.5"
       fill="currentColor" />
    <path
       id="path139"
       class="ColorScheme-Text"
       d="M14.5 179a1.5 1.5 0 0 0-1.5 1.5 1.5 1.5 0 0 0 1.5 1.5 1.5 1.5 0 0 0 .047-.002c-.533.94-1.348 1.602-1.348 1.602l.602.8s1.967-1.426 2.162-3.572A1.5 1.5 0 0 0 16 180.5a1.5 1.5 0 0 0-1.5-1.5z"
       fill="currentColor" />
  </g>
  <g
     id="fcitx-punc-active"
     transform="translate(132 -60)">
    <path
       id="path142"
       class="ColorScheme-Text"
       d="M7.5 178a2.508 2.508 0 0 0-2.5 2.5c0 1.375 1.125 2.5 2.5 2.5s2.5-1.125 2.5-2.5-1.125-2.5-2.5-2.5zm0 1c.834 0 1.5.666 1.5 1.5s-.666 1.5-1.5 1.5-1.5-.666-1.5-1.5.666-1.5 1.5-1.5z"
       fill="currentColor" />
    <path
       id="path144"
       d="M0 170h22v22H0z"
       fill="none" />
    <path
       id="path146"
       class="ColorScheme-Text"
       transform="translate(-198 82)"
       d="M212.5 96a2.508 2.508 0 0 0-2.5 2.5c0 1.375 1.125 2.5 2.5 2.5.365 0 .71-.084 1.023-.227a3.874 3.874 0 0 1-1.306 1.502c-.895.616-1.78.729-1.78.729l.125.992s1.116-.137 2.221-.896c1.105-.76 2.217-2.202 2.217-4.6 0-1.375-1.125-2.5-2.5-2.5zm0 1c.834 0 1.5.666 1.5 1.5s-.666 1.5-1.5 1.5-1.5-.666-1.5-1.5.666-1.5 1.5-1.5z"
       fill="currentColor" />
  </g>
  <g
     id="fcitx-chttrans-inactive"
     transform="translate(132 -38)">
    <path
       id="path149"
       d="M0 170h22v22H0z"
       fill="none" />
    <path
       id="path151"
       class="ColorScheme-Text"
       transform="translate(-132 60)"
       d="M138.81 113.406c-.507 1.367-1.347 2.598-2.519 3.692l.996.761c.195-.039.742-.722 1.64-2.05h.762c.43.625.801 1.27 1.114 1.933l1.172-.644-.938-1.29h2.05v-1.113h-3.632l.469-.937-1.113-.352zm6.036 0c-.47 1.328-1.27 2.54-2.403 3.633l.996.762c.665-.625 1.172-1.29 1.524-1.992h.996c.43.586.8 1.21 1.113 1.875l1.055-.645c-.273-.43-.566-.84-.879-1.23h2.461v-1.114h-4.16c.156-.312.293-.625.41-.937l-1.113-.352zm-5.45 4.102l-.996.586c.547.547.957 1.094 1.23 1.64l1.114-.586a7.528 7.528 0 0 0-1.348-1.64zm1.993.527v.996h6.386v6.035c0 .547-.136.82-.41.82-.39 0-.898-.019-1.523-.058l.293 1.113c.547.04 1.015.059 1.406.059.469 0 .82-.137 1.055-.41.234-.274.351-.664.351-1.172v-7.383h-7.558zm-3.985 1.582V127h1.172v-7.383h-1.172zm2.871.645v5.039h5.391v-5.04h-5.39zm1.114.996h3.164v.996h-3.164v-.996zm0 1.933h3.164v1.114h-3.164v-1.114zM135 128v1h16v-1h-16z"
       fill="currentColor" />
  </g>
  <g
     id="fcitx-chttrans-active"
     transform="translate(154 -38)">
    <path
       id="path154"
       d="M0 170h22v22H0z"
       fill="none" />
    <path
       id="path156"
       class="ColorScheme-Text"
       transform="translate(-154 60)"
       d="M160.02 113.465c-.313.703-.899 1.387-1.758 2.05l.82.645c.39-.273.762-.644 1.113-1.113h5.45v-.879h-4.864c.04-.117.098-.254.176-.41l-.937-.293zm7.148 0a9.114 9.114 0 0 1-1.875 3.34l.703.761.586-.703a6.784 6.784 0 0 0 1.23 1.524c-.625.508-1.367.957-2.226 1.347l.82.88a14.66 14.66 0 0 0 2.227-1.466 14.006 14.006 0 0 0 2.344 1.465l.761-.937c-.937-.39-1.738-.82-2.402-1.29a6.443 6.443 0 0 0 1.406-2.519h.82v-.996h-3.867l.47-1.113-.997-.293zm-7.266 2.285l-.351 1.7h-1.172v.937h.996l-.352 1.758h4.395v.351h.996l.059-.351H165v-.88h-.469l.117-.878h.938v-.938h-.82l.234-1.699h-5.098zm7.325.117h2.402c-.195.664-.547 1.29-1.055 1.875a10.674 10.674 0 0 1-1.406-1.758c.04-.039.059-.078.059-.117zm-6.446.703h.762c.195.235.39.528.586.88h-1.524l.176-.88zm1.7 0h1.464l-.117.88h-.762l-.586-.88zm-1.993 1.817h.762c.195.234.41.527.645.879h-1.583l.176-.88zm1.758 0h1.465l-.176.879h-.762a6.542 6.542 0 0 0-.527-.88zm5.684 1.933c-1.25.742-2.11 1.153-2.578 1.23-.704.118-1.954.196-3.75.235a8.109 8.109 0 0 0 1.875-.879l-.762-.527c-.781.547-1.758.976-2.93 1.289l.117.82c1.172 0 2.364-.039 3.575-.117-1.25.469-2.774.879-4.57 1.23l.175.938c1.758 0 3.535-.059 5.332-.176v1.23c0 .313-.117.47-.351.47-.43 0-.86-.06-1.29-.176l.176 1.054c.352.079.723.118 1.114.118.625 0 1.035-.098 1.23-.293.195-.196.293-.528.293-.996v-1.524a69.146 69.146 0 0 0 3.984-.469c.313.313.586.645.82.996l1.114-.527a14.92 14.92 0 0 0-2.813-2.578l-1.054.469c.43.273.82.586 1.172.937-1.563.313-3.965.528-7.207.645 2.617-.586 5.039-1.504 7.265-2.754l-.937-.645zm-.88 4.278l-.468.937c1.29.313 2.578.742 3.867 1.29l.469-.997c-1.211-.469-2.5-.879-3.867-1.23zm-4.687.117c-1.133.469-2.383.84-3.75 1.113l.703.996c1.485-.39 2.754-.898 3.809-1.523l-.762-.586zM157 128v1h16v-1h-16z"
       fill="currentColor" />
  </g>
  <g
     id="fcitx-remind-active">
    <path
       id="path159"
       class="ColorScheme-Text"
       d="M209 91c-3.308 0-6 2.692-6 6a.5.5 0 0 0 .002.057c.014 2.321.86 3.509 1.62 4.394.764.893 1.378 1.442 1.378 3.049v2.5h2v1h2v-1h2v-2.5c0-1.607.634-2.304 1.39-3.25.75-.936 1.589-2.104 1.606-4.188A.5.5 0 0 0 215 97c0-3.308-2.692-6-6-6zm0 1c2.767 0 5 2.233 5 5 0 1.875-.647 2.696-1.39 3.625-.663.828-1.337 1.843-1.495 3.375h-4.234c-.164-1.504-.85-2.44-1.502-3.201-.735-.857-1.379-1.66-1.379-3.799 0-2.767 2.233-5 5-5zm-1.854 5.146l-1.5 1.5.708.708 1.146-1.147 1.146 1.147h.708l1.146-1.147 1.146 1.147.708-.708-1.5-1.5h-.708L209 98.293l-1.146-1.147h-.708z"
       fill="currentColor" />
    <path
       id="path161"
       d="m198 88h22v22h-22z"
       fill="none" />
    <ellipse
       id="ellipse163"
       cx="202.5"
       cy="92.5"
       rx="2.5"
       ry="2.5"
       fill="#11d116"
       stroke-linecap="round" />
  </g>
  <g
     id="fcitx-remind-inactive"
     transform="translate(22)">
    <path
       id="path166"
       d="m198 88h22v22h-22z"
       fill="none" />
    <path
       id="path168"
       class="ColorScheme-Text"
       d="M209 91c-3.308 0-6 2.692-6 6a.5.5 0 0 0 .002.057c.014 2.321.86 3.509 1.62 4.394.764.893 1.378 1.442 1.378 3.049v2.5h2v1h2v-1h2v-2.5c0-1.607.634-2.304 1.39-3.25.75-.936 1.589-2.104 1.606-4.187A.5.5 0 0 0 215 97c0-3.308-2.692-6-6-6zm0 1c2.767 0 5 2.233 5 5 0 1.875-.647 2.696-1.39 3.625-.663.828-1.337 1.843-1.495 3.375h-4.234c-.164-1.504-.85-2.44-1.502-3.201-.735-.857-1.379-1.66-1.379-3.799 0-2.767 2.233-5 5-5zm-1.854 5.146l-1.5 1.5.708.708 1.146-1.147 1.146 1.147h.708l1.146-1.147 1.146 1.147.708-.708-1.5-1.5h-.708L209 98.293l-1.146-1.147h-.708z"
       fill="currentColor" />
  </g>
  <g
     id="fcitx-handwriting-active">
    <path
       id="path171"
       class="ColorScheme-Text"
       d="M213.137 112.568l-3.272 12.207 1.07 3.739 2.795-2.703 3.27-12.207-.482-.131-3.381-.905zm.707 1.223l1.931.518-.26.968-1.931-.52.26-.966zm-.518 1.934l1.932.517-2.422 9.043-1.397 1.352-.535-1.87 2.422-9.042zm-11.004 3.726a5.65 5.65 0 0 0-.644.057.5.5 0 1 0 .136.992c.42-.058.71-.056.872-.03.16.027.164.058.152.042-.012-.017.006-.01-.006.092a2.344 2.344 0 0 1-.125.45c-.134.374-.351.824-.41 1.327-.03.251-.015.54.133.806.147.268.42.468.738.575.153.05.213.04.309.045.095.004.2.005.316.005.231 0 .504-.003.758.004.032.001.047.006.078.008-.09.056-.146.098-.252.158-.533.301-1.218.645-1.781 1.022-.282.188-.536.383-.737.621-.2.238-.37.576-.287.95.083.372.37.631.73.825.361.195.834.352 1.481.498 1.051.238 2.36.169 3.543.221 1.183.052 2.169.26 2.553.703a.5.5 0 1 0 .754-.656c-.756-.871-2.016-.992-3.262-1.047-1.246-.055-2.55-.01-3.367-.195-.596-.135-1-.28-1.227-.403-.227-.122-.235-.195-.228-.162.007.033-.019.023.076-.09a2.75 2.75 0 0 1 .527-.433c.482-.322 1.152-.663 1.717-.982a6.18 6.18 0 0 0 .752-.479c.214-.166.466-.33.477-.752.006-.246-.165-.47-.305-.564a1.105 1.105 0 0 0-.397-.16 4.22 4.22 0 0 0-.818-.083c-.282-.008-.562-.004-.783-.004-.11 0-.206 0-.272-.003a.45.45 0 0 1-.064-.008c.012.004.013.007.027.011-.05-.016-.047-.015-.027-.011-.114-.043-.142-.077-.154-.098-.013-.023-.03-.08-.016-.205.03-.25.206-.675.36-1.105.076-.216.148-.436.175-.678.028-.242.006-.535-.176-.787-.181-.252-.478-.39-.798-.444a2.832 2.832 0 0 0-.528-.033z"
       fill="currentColor" />
    <g
       id="g179"
       stroke-linecap="round">
      <path
         id="path173"
         d="m198 110h22v22h-22z"
         fill="none" />
      <path
         id="path175"
         d="m198 110h22v22h-22z"
         fill="none" />
      <ellipse
         id="ellipse177"
         cx="202.5"
         cy="114.5"
         rx="2.5"
         ry="2.5"
         fill="#11d116" />
    </g>
  </g>
  <g
     id="fcitx-handwriting-inactive"
     transform="translate(22)">
    <path
       id="path182"
       class="ColorScheme-Text"
       transform="translate(-22)"
       d="M235.137 112.568l-3.272 12.207 1.07 3.739 2.795-2.703 3.27-12.207-.482-.131-3.381-.905zm.707 1.223l1.931.518-.26.968-1.931-.52.26-.966zm-.518 1.934l1.932.517-2.422 9.043-1.397 1.352-.535-1.87 2.422-9.042zm-11.004 3.726a5.65 5.65 0 0 0-.644.057.5.5 0 0 0 .115.994.5.5 0 0 0 .021-.002c.42-.058.71-.056.872-.03.16.027.164.058.152.042-.012-.017.006-.01-.006.092a2.344 2.344 0 0 1-.125.45c-.134.374-.351.824-.41 1.327-.03.251-.015.54.133.806.147.268.42.468.738.575.153.05.213.04.309.045.095.004.2.005.316.005.231 0 .504-.003.758.004.032.001.047.006.078.008-.09.056-.146.098-.252.158-.533.301-1.218.645-1.781 1.022-.282.188-.536.383-.737.621-.2.238-.37.576-.287.95.083.372.37.631.73.825.361.195.834.352 1.481.498 1.051.238 2.36.169 3.543.221 1.183.052 2.169.26 2.553.703a.5.5 0 1 0 .754-.656c-.756-.871-2.016-.992-3.262-1.047-1.246-.055-2.55-.01-3.367-.195-.596-.135-1-.28-1.227-.403-.227-.122-.235-.195-.228-.162.007.033-.019.023.076-.09a2.75 2.75 0 0 1 .527-.433c.482-.322 1.152-.663 1.717-.982a6.18 6.18 0 0 0 .752-.479c.214-.166.466-.33.477-.752.006-.246-.165-.47-.305-.564a1.105 1.105 0 0 0-.397-.16 4.22 4.22 0 0 0-.818-.083c-.282-.008-.562-.004-.783-.004-.11 0-.206 0-.272-.003a.45.45 0 0 1-.064-.008c.012.004.013.007.027.011-.05-.016-.047-.015-.027-.011-.114-.043-.142-.077-.154-.098-.013-.023-.03-.08-.016-.205.03-.25.206-.675.36-1.105.076-.216.148-.436.175-.678.028-.242.006-.535-.176-.787-.181-.252-.478-.39-.798-.444a2.832 2.832 0 0 0-.528-.033z"
       fill="currentColor" />
    <path
       id="path184"
       d="m198 110h22v22h-22z"
       fill="none"
       stroke-linecap="round" />
    <path
       id="path186"
       d="m198 110h22v22h-22z"
       fill="none"
       stroke-linecap="round" />
  </g>
  <g
     id="fcitx"
     transform="translate(132 88)">
    <path
       id="path189"
       d="M0-22h22V0H0z"
       fill="none" />
    <path
       id="path191"
       class="ColorScheme-Text"
       d="M9.57-19c-.937-.017-1.837.536-2.184 1.438-.414 1.077-.296 2.244-.279 3.368.006.364-.092.696-.24 1.009a3.431 3.431 0 0 1-.21.223c-.736.813-2.565 2.95-1.983 5.14-.146.064-.317.072-.503.093-.219.026-.463.082-.657.312-.173.2-.199.474-.219.732-.02.259-.035.506-.125.659-.263.408-.352.709-.293.955.06.246.266.4.515.519.497.238 1.217.381 1.71.824h.001c.525.465 1.106.724 1.614.728.423.003.796-.187 1.01-.571.19.034.387.03.587-.027a4.355 4.355 0 0 1 2.08-.06c.413.086.826.054 1.218-.065.167.316.45.53.793.623.496.133 1.11.025 1.697-.333h.001c.57-.354 1.3-.323 1.827-.437.264-.057.495-.161.59-.396.095-.235.05-.556-.148-1.038-.067-.167-.04-.416-.011-.678.028-.262.055-.543-.08-.777-.148-.268-.379-.372-.59-.442-.212-.07-.406-.115-.548-.253-.156-.16-.309-.375-.503-.546l-.005-.005c-.008-.3-.057-.609-.137-.917.426-.566.858-1.2 1.179-1.818h.003l.24-.034-.063-.3.038-.03.786-1.478c.43.022.9-.187 1.176-.686a25.336 25.336 0 0 1 1.283-2.058c-1.886.269-3.349.242-3.43 1.686-.008.164.017.31.066.44l-1.087 1.274-.01.042-.334.053.1.236c-.24.282-.472.595-.69.918-.055-.097-.11-.193-.167-.286-.318-.648-.731-1.248-1.137-1.842-.487-.716-.575-1.59-.583-2.462-.016-1.813-.21-3.693-2.298-3.733zm.895 2.267c.165-.01.334.074.461.251.127.178.21.514.21.706.002.261-.092.523-.198.714a.692.692 0 0 1-.096.13l-.262-.152-.06-.035a.326.594 8.727 0 0 .227-.475.326.594 8.727 0 0-.262-.63.326.594 8.727 0 0-.386.547.326.594 8.727 0 0 .002.293.98.98 0 0 0-.179-.058l-.057-.01a1.439 1.439 0 0 1-.04-.25c-.014-.26.039-.427.145-.618.106-.191.33-.403.495-.413zm-2.14.161a.93.707 82.237 0 1 .03.001.93.707 82.237 0 1 .72.806.93.707 82.237 0 1-.053.57 2.028 2.028 0 0 0-.117.092 1.173 1.173 0 0 1-.26.16.553.348 80.266 0 0 .16-.593.553.348 80.266 0 0-.384-.473.553.348 80.266 0 0-.295.623.553.348 80.266 0 0 .477.464c-.07.036-.15.077-.254.14-.024.013-.045.028-.066.043a.93.707 82.237 0 1-.601-.786.93.707 82.237 0 1 .644-1.047zm1.384 1.208a.811.811 0 0 1 .192.018c.24.052.413.202.52.283.02.015.046.028.11.065l.3.173a.292.292 0 0 1 .152.322c-.023.139-.13.308-.342.468h-.001c-.13.104-.213.23-.313.336a.712.712 0 0 1-.418.23.976.976 0 0 1-.594-.078c-.168-.072-.314-.167-.472-.198-.325-.06-.572-.233-.666-.417a.353.353 0 0 1-.04-.214c.06.01.138.042.23.088.11.056.24.132.383.206.284.15.618.297.96.28.34-.017.603-.192.791-.36.094-.085.17-.168.228-.229.029-.03.054-.056.072-.072.02-.016.034-.02.028-.02l-.004-.074c-.031.001-.05.018-.072.038-.023.02-.048.046-.078.077-.058.062-.132.143-.223.224-.181.163-.428.326-.746.342-.318.016-.641-.124-.922-.271-.14-.074-.27-.149-.384-.206a.94.94 0 0 0-.243-.094.52.52 0 0 1 .241-.25H8.4c.286-.172.416-.198.57-.33.289-.247.534-.332.74-.337zm1.262 1.133c.036.087.067.18.088.285.188.98.396 1.585 1.344 3.2.098.247.172.423.256.628a3.772 3.772 0 0 0-.392-1.185c-.58-1.225-.002-.47.258.077.19.355.414.966.548 1.65A23.216 23.216 0 0 0 12.11-7.7a.743.743 0 0 0-.127.405c.002.087.031.17.077.242-.516.38-.54 1.126.002 1.396-.055.078-.107.153-.16.233a5.01 5.01 0 0 0-.216.355c-1.139.809-2.958.912-4.309-.557-.127-.276-.243-.539-.286-.741v-.001c-.098-.482-.2-.926-.35-1.285a2.491 2.491 0 0 0-.08-.17c.106-.25.158-.511.139-.67-.072-.423-.384-.509-1.086-.348-.596.144-.957.428-.808.858-.027.023-.054.043-.08.064-.198-.504.21-.837.896-1.006-.1-.931.444-1.876.962-2.491.015.02-.022.13-.155.402-.294.504-.582 1.325-.45 2.022.098-.013.191-.023.272-.023.047-.506.172-.983.386-1.367.409-.87 1.462-2.337 1.492-3.554.141.136.349.242.596.288.13.026.275.116.452.192.177.075.389.134.65.085a.827.827 0 0 0 .472-.26c.108-.114.188-.235.302-.325.118-.09.207-.182.27-.275zm5.077 1.411a.994.994 0 0 0 .182.12l-.69 1.299-.163.128c-.054-.028-.109-.052-.164-.094-.073-.055-.093-.104-.15-.167l.043-.182.942-1.104zm-1.33 1.62a2.1 2.1 0 0 0 .486.366c-.882 1.622-2.581 3.44-2.596 3.456-.104.09-.17.073-.172.075v-.002c0-.021.01-.082.067-.171l.01-.015.007-.016s1.037-2.277 2.198-3.693zm-.422 2.54zm-9.307.857c.238.421.753.772 1.163.595.158-.067.294-.217.4-.396l.012.025c.14.336.242.77.339 1.25.08.371.326.822.521 1.269.195.446.329.88.231 1.172v.002c-.153.491-.493.698-.936.695-.444-.003-.99-.239-1.49-.68-.545-.489-1.298-.635-1.755-.853-.228-.11-.37-.226-.41-.392-.041-.167.017-.42.268-.81l.001-.002v-.001c.128-.216.133-.488.153-.741.02-.254.052-.484.173-.623.155-.185.328-.222.534-.246.207-.024.443-.025.66-.162l.002-.001c.047-.032.09-.066.134-.101zm9.642.06c.125.134.245.29.376.424h.001l.001.002c.188.182.422.232.621.297.2.066.366.138.485.354v.001h.001c.095.165.083.404.055.662-.028.259-.072.532.024.77.19.464.21.74.148.895-.063.155-.213.23-.453.282-.481.103-1.254.066-1.888.46-.551.336-1.116.427-1.548.311-.431-.116-.736-.427-.8-.944v-.002c-.047-.312.15-.699.406-1.087.06-.092.124-.18.187-.271.264.065.62.04 1.071-.131.896-.513 1.264-1.234 1.313-2.023zm-1.187.116zm-.318.357l-.198.215.198-.215zm-1.02.28z"
       fill="currentColor" />
  </g>
  <g
     id="fcitx-vk-active">
    <g
       id="g1050"
       transform="translate(22)">
      <path
         id="path1046"
         d="m154 66h22v22h-22z"
         fill="none" />
      <path
         id="path1048"
         transform="translate(-22)"
         d="m182 70c-1.108 0-2 0.892-2 2v10c0 1.108 0.892 2 2 2h8.1758a3 3 0 0 1-0.17578-1 3 3 0 0 1 0.17383-1h-8.1738c-0.554 0-1-0.446-1-1v-9c0-0.554 0.446-1 1-1h10c0.554 0 1 0.446 1 1v8a3 3 0 0 1 1 0.17383v-8.1738c0-1.108-0.892-2-2-2h-10zm6.6562 4.9941c-0.79 0-1.5473 0.257-2.2793 0.75l0.37305 0.84961c0.312-0.21 0.61625-0.35975 0.90625-0.46875 0.298-0.116 0.57-0.15625 0.875-0.15625 0.449 0 0.79225 0.10375 1.0312 0.34375 0.24 0.232 0.4375 0.54875 0.4375 0.96875v0.30664c-0.21-0.08-0.52025-0.1435-0.78125-0.1875a4.015 4.015 0 0 0-0.78125-0.0625c-0.356 0-0.67175 0.038-0.96875 0.125-0.29 0.087-0.56425 0.215-0.78125 0.375-0.21 0.16-0.35275 0.3455-0.46875 0.5625-0.116 0.218-0.1875 0.54936-0.1875 0.81836 0 0.254 0.06225 0.50075 0.15625 0.71875 0.101 0.217 0.208 0.4025 0.375 0.5625 0.174 0.16 0.393 0.28 0.625 0.375 0.239 0.087 0.50525 0.125 0.78125 0.125a2.73 2.73 0 0 0 1.1875-0.25c0.377-0.181 0.6835-0.44825 0.9375-0.78125l0.03125 0.34375a0.743 0.743 0 0 0 0.21875 0.4375c0.11402 0.10104 0.27883 0.15917 0.48633 0.17969a3 3 0 0 1 0.63867-0.50586v-0.54883c-0.124-7e-3 -0.30352-0.03575-0.35352-0.09375a0.497 0.497 0 0 1-0.11523-0.3125v-2.1309c0-0.747-0.09625-1.3198-0.53125-1.7188s-1.0295-0.625-1.8125-0.625zm-0.15625 3.0703a1.67 1.67 0 0 1 0.06641 0c0.218 0 0.60703 0.04975 0.83203 0.09375 0.232 0.044 0.39856 0.10555 0.60156 0.18555v0.75c0 0.145-0.12925 0.3075-0.28125 0.4375-0.427 0.38-0.9395 0.42975-1.4375 0.46875-0.326 0-0.73336 0.017125-0.94336-0.17188-0.21-0.196-0.33789-0.42012-0.33789-0.70312 0-0.305 0.2945-0.569 0.5625-0.75a1.67 1.67 0 0 1 0.9375-0.31055z"
         class="ColorScheme-Text"
         fill="currentColor" />
    </g>
    <path
       id="path201"
       class="ColorScheme-PositiveText"
       d="m193 81a2 2 0 0 0-2 2 2 2 0 0 0 2 2 2 2 0 0 0 2-2 2 2 0 0 0-2-2z"
       fill="#11d116"
       stroke-width=".8" />
  </g>
  <g
     id="fcitx-sogoupinyin"
     transform="translate(-3)">
    <path
       id="path211"
       class="ColorScheme-Text"
       d="M 115 25 C 113.892 25 113 25.892 113 27 L 113 39 C 113 40.108 113.892 41 115 41 L 127 41 C 128.108 41 129 40.108 129 39 L 129 27 C 129 25.892 128.108 25 127 25 L 115 25 z M 120.62109 27.001953 C 121.0671 26.994453 121.52008 27.005049 121.87109 27.037109 C 123.63469 27.204109 125.17014 27.753125 126.49414 28.703125 C 126.93914 29.018635 126.94816 28.98025 126.14062 29.90625 C 125.4831 30.65826 125.38317 30.722677 125.2207 30.679688 C 125.1792 30.671187 124.99139 30.581629 124.79688 30.474609 C 123.78787 29.910099 122.64451 29.502048 121.75391 29.392578 C 121.27593 29.334578 120.90638 29.404146 120.71484 29.597656 C 120.61734 29.694656 120.57952 29.951703 120.64453 30.095703 C 120.76202 30.366213 121.21994 30.625848 122.4375 31.111328 C 124.18 31.809348 124.90509 32.181087 125.62109 32.742188 C 126.33461 33.302698 126.77786 33.966172 126.94336 34.701172 C 127.04353 35.154682 127.00719 35.903203 126.87109 36.283203 C 126.73257 36.674213 126.5528 36.952797 126.25781 37.279297 C 125.43278 38.198817 123.86586 38.827922 121.94336 38.982422 C 121.59237 39.008422 120.59445 39.005912 120.31445 38.982422 C 119.08595 38.877422 118.43149 38.756797 117.65039 38.466797 C 117.18488 38.295297 116.90709 38.158526 116.49414 37.916016 C 116.11362 37.694516 115.42133 37.18201 115.17383 36.9375 C 114.92326 36.69249 114.92852 36.620135 115.29102 36.265625 C 115.84803 35.722115 116.60343 35.050141 116.70703 34.994141 C 116.84401 34.920641 116.88127 34.931375 117.34375 35.234375 C 117.80329 35.537385 118.36083 35.810312 118.92383 36.007812 C 119.72234 36.293323 120.29667 36.415422 120.95117 36.419922 C 121.30818 36.421922 121.37594 36.400484 121.56445 36.333984 C 121.84745 36.230984 121.96983 36.112094 121.99023 35.871094 C 122.00213 35.719094 121.97143 35.653844 121.89453 35.527344 C 121.69755 35.215834 121.27616 34.964767 119.89062 34.341797 C 118.73512 33.820287 118.33405 33.618007 117.81445 33.310547 C 116.59095 32.585527 115.94197 31.862875 115.66797 30.921875 C 115.58567 30.654865 115.61241 29.953408 115.69141 29.648438 C 115.83542 29.143428 116.05335 28.755531 116.42188 28.394531 C 117.09489 27.728511 118.13791 27.269813 119.44141 27.070312 C 119.73243 27.026812 120.17506 27.010053 120.62109 27.001953 z "
       transform="translate(3)"
       fill="currentColor" />
    <path
       id="path213"
       d="m113 22h22v22h-22z"
       fill="none" />
  </g>
  <g
     id="fcitx-kbd">
    <path
       id="path206"
       d="m154 66h22v22h-22z"
       fill="none" />
    <path
       id="path2"
       d="m160 70c-1.108 0-2 0.892-2 2v10c0 1.108 0.892 2 2 2h10c1.108 0 2-0.892 2-2v-10c0-1.108-0.892-2-2-2zm0 1h10c0.554 0 1 0.446 1 1v9c0 0.554-0.446 1-1 1h-10c-0.554 0-1-0.446-1-1v-9c0-0.554 0.446-1 1-1zm6.656 3.994c-0.79 0-1.548 0.257-2.28 0.75l0.374 0.85c0.312-0.21 0.616-0.36 0.906-0.469 0.298-0.116 0.571-0.156 0.876-0.156 0.449 0 0.791 0.104 1.03 0.344 0.24 0.232 0.438 0.548 0.438 0.968v0.307c-0.21-0.08-0.52-0.144-0.781-0.188a4.015 4.015 0 0 0-0.781-0.062c-0.356 0-0.672 0.038-0.969 0.125-0.29 0.087-0.564 0.215-0.781 0.375-0.21 0.16-0.353 0.345-0.469 0.562-0.116 0.218-0.188 0.55-0.188 0.819 0 0.254 0.063 0.501 0.157 0.719 0.101 0.217 0.208 0.402 0.375 0.562 0.174 0.16 0.393 0.28 0.625 0.375 0.239 0.087 0.505 0.125 0.781 0.125a2.73 2.73 0 0 0 1.188-0.25c0.377-0.181 0.683-0.448 0.937-0.781l0.031 0.344a0.743 0.743 0 0 0 0.219 0.437c0.123 0.109 0.299 0.173 0.531 0.188 0.08 0 0.187 6e-3 0.281 0 0.102-8e-3 0.197-0.01 0.313-0.032v-1.031c-0.124-7e-3 -0.304-0.036-0.354-0.094a0.497 0.497 0 0 1-0.115-0.312v-2.131c0-0.747-0.096-1.32-0.531-1.719s-1.03-0.625-1.813-0.625zm-0.09 3.07c0.218 0 0.608 0.05 0.833 0.094 0.232 0.044 0.398 0.106 0.601 0.186v0.75c0 0.145-0.129 0.307-0.281 0.437-0.427 0.38-0.94 0.43-1.438 0.469-0.326 0-0.734 0.018-0.944-0.171-0.21-0.196-0.337-0.421-0.337-0.704 0-0.305 0.295-0.569 0.563-0.75a1.67 1.67 0 0 1 1.004-0.31z"
       class="ColorScheme-Text"
       fill="currentColor" />
  </g>
  <g
     id="fcitx-bopomofo-libpinyin"
     transform="translate(154,66.004997)">
    <rect
       width="22"
       height="22"
       fill="none"
       id="rect5"
       x="-87.996002"
       y="-44.005001" />
    <path
       id="path7"
       class="ColorScheme-Text"
       d="m -83,-41 c -1.0803,0 -1.953021,0.848611 -1.996094,1.917969 v 12.158203 c 0.04307,1.069358 0.915794,1.917969 1.996094,1.917969 h 12 c 1.108,0 2,-0.892 2,-2 V -39 c 0,-1.108 -0.892,-2 -2,-2 z m 6.304688,1.59375 2,1.5 -0.601563,0.800781 -2,-1.5 z m -5.947266,0.04687 2,2 -0.707031,0.707031 -2,-2 z m 2.646484,2.353516 h 9 v 1 h -4 v 3 h 3 v 1 h -3 v 4 h 4 v 1 h -9 v -1 h 4 v -4 h -3 v -1 h 3 v -3 h -4 z m -2.646484,0.646484 2,2 -0.707031,0.707031 -2,-2 z m 1.171875,3.195313 0.949219,0.316406 -2,6 -0.949219,-0.316406 z"
       fill="currentColor" />
  </g>
  <g
     id="fcitx-pinyin"
     transform="translate(154,66.004997)">
    <path
       id="path10"
       class="ColorScheme-Text"
       d="m -149,-63 c -1.108,0 -2,0.892 -2,2 V -49.005859 -49 c 0,1.06645 0.82701,1.930664 1.87695,1.994141 H -149 h 12 0.12305 C -135.82701,-47.069336 -135,-47.93355 -135,-49 V -49.0059 -61 c 0,-1.108 -0.892,-2 -2,-2 z m 0,1 h 12 c 0.55382,0 1,0.446178 1,1 v 11.996094 c 0,0.553822 -0.44618,0.998047 -1,0.998047 h -12 c -0.55382,0 -1,-0.444225 -1,-0.998047 V -61 c 0,-0.553822 0.44618,-1 1,-1 z m 5.90039,0.695312 -0.80078,0.59961 1.27539,1.699219 H -144 v 1 h 1 v 3 h -1.88281 l 0.10547,-0.05273 -0.44532,-0.894531 -0.77734,0.388672 v -2.441406 h 1 v -1 h -1 v -2 h -1 v 2 h -2 v 1 h 2 v 2.941406 l -2.22266,1.111328 0.44532,0.894531 1.77734,-0.888672 v 3.941407 h -2 v 1 h 3 v -5.441407 l 1,-0.5 v 0.941407 h 1.96094 c -0.0887,0.89503 -0.39165,1.61154 -0.79297,2.30664 -0.49732,0.8613 -1.50977,1.830078 -1.50977,1.830078 l 0.6836,0.728516 c 0,0 1.0707,-0.983584 1.6914,-2.058594 0.44869,-0.77721 0.82964,-1.68794 0.92578,-2.80664 H -140 v 5 h 1 v -5 h 2 v -1 h -2 v -3 h 2 v -1 h -2.375 l 1.27539,-1.699219 -0.80078,-0.59961 -1.5,2 0.39844,0.298829 h -1.9961 l 0.39844,-0.298829 z M -142,-58.005859 h 2 v 3 h -2 z"
       fill="currentColor" />
    <rect
       width="22"
       height="22"
       fill="none"
       id="rect12"
       x="-154"
       y="-66.004997" />
  </g>
  <g
     id="fcitx-pinyin-libpinyin"
     transform="translate(154,66.004997)">
    <path
       id="path30"
       class="ColorScheme-Text"
       d="m -149,-41.005859 c -1.108,0 -2,0.892 -2,2 v 11.996093 c 0,1.108 0.892,2 2,2 h 12 c 1.108,0 2,-0.892 2,-2 v -11.996093 c 0,-1.108 -0.892,-2 -2,-2 z m 5.90039,1.701171 1.5,2 -0.39844,0.298829 h 1.9961 l -0.39844,-0.298829 1.5,-2 0.80078,0.59961 -1.27539,1.699219 H -137 v 1 h -2 v 3 h 2 v 1 h -2 v 5 h -1 v -5 h -2.04102 c -0.0961,1.1187 -0.47709,2.02944 -0.92578,2.80664 -0.62072,1.075 -1.6914,2.058594 -1.6914,2.058594 l -0.6836,-0.728516 c 0,0 1.01247,-0.968758 1.50977,-1.830078 0.40132,-0.69512 0.70429,-1.41164 0.79297,-2.30664 H -145 v -0.941407 l -1,0.5 v 5.441407 h -3 v -1 h 2 v -3.941407 l -1.77734,0.888672 -0.44532,-0.894531 2.22266,-1.111328 v -2.941406 h -2 v -1 h 2 v -2 h 1 v 2 h 1 v 1 h -1 v 2.441406 l 0.77734,-0.388672 0.44532,0.894531 -0.10547,0.05273 H -143 v -3 h -1 v -1 h 1.375 l -1.27539,-1.699219 z M -142,-36.005859 v 3 h 2 v -3 z"
       fill="currentColor" />
    <rect
       width="22"
       height="22"
       fill="none"
       id="rect32"
       x="-154"
       y="-44.005001" />
  </g>
  <g
     id="fcitx-shuangpin-libpinyin"
     transform="translate(154,66.004997)">
    <path
       id="path35"
       class="ColorScheme-Text"
       d="m -105,-41 c -1.108,0 -2,0.892 -2,2 v 11.994141 c 0,1.108 0.892,2 2,2 h 12 c 1.108,0 2,-0.892 2,-2 V -39 c 0,-1.108 -0.892,-2 -2,-2 z m 0,1.994141 h 5.548828 l -0.05078,0.548828 c 0,0 -0.32815,3.521106 -1.224608,6.128906 0.58267,0.8731 1.138989,1.775219 1.837889,3.011719 l -0.86914,0.490234 c -0.538879,-0.9534 -0.984689,-1.6884 -1.421879,-2.375 -1.3944,3.1253 -3.36523,4.488281 -3.36523,4.488281 l -0.55664,-0.832031 c 0,0 1.97037,-1.31405 3.26367,-4.65625 -0.76565,-1.1064 -1.63533,-2.221434 -3.05273,-3.990234 l 0.78124,-0.626953 c 1.1813,1.4742 1.97337,2.492278 2.66797,3.455078 0.55096,-1.9057 0.79815,-3.999178 0.86914,-4.642578 H -105 Z m 6,0 h 6 v 0.5 c 0,2.1466 -0.832891,4.968103 -1.707031,6.908203 -0.11096,0.2463 -0.241608,0.465959 -0.367188,0.693359 0.62377,1.0834 1.46015,2.113469 2.84375,3.230469 l -0.626953,0.779297 c -1.2811,-1.0343 -2.147134,-2.040853 -2.802734,-3.064453 -1.3932,1.9869 -3.103516,3.037109 -3.103516,3.037109 l -0.517578,-0.855469 c 0,0 1.780259,-1.100778 3.068359,-3.142578 -0.33769,-0.6484 -0.621438,-1.307287 -0.886718,-1.992187 -0.75808,-1.957 -1.208647,-4.50205 -1.310547,-5.09375 H -99 Z m 1.607422,1 c 0.13927,0.7654 0.568312,3.033321 1.226562,4.732421 0.17351,0.4479 0.351003,0.867401 0.539063,1.28125 0.0025,-0.006 0.0053,-0.0056 0.0078,-0.01562 0.75695,-1.68 1.434269,-4.144947 1.542969,-5.998047 z"
       fill="currentColor" />
    <rect
       width="22"
       height="22"
       fill="none"
       id="rect37"
       x="-110"
       y="-44.005001" />
  </g>
  <g
     id="fcitx-sunpinyin"
     transform="translate(22.000001,43.999997)">
    <path
       class="ColorScheme-Text"
       d="m 11,1.5137 c -0.25562,0 -0.51116,0.099053 -0.70703,0.29492 l -2.1914,2.1914 h -3.1016 c -0.554,0 -1,0.446 -1,1 v 3.0996 l -2.1934,2.1934 c -0.39174,0.39174 -0.39174,1.0223 0,1.4141 l 2.1934,2.1934 v 3.0996 c 0,0.554 0.446,1 1,1 h 3.0996 l 2.1934,2.1934 c 0.39174,0.39174 1.0223,0.39174 1.4141,0 l 2.1934,-2.1934 h 3.0996 c 0.554,0 1,-0.446 1,-1 v -3.1016 l 2.1914,-2.1914 c 0.39174,-0.39174 0.39174,-1.0223 0,-1.4141 l -2.1914,-2.1914 v -3.1016 c 0,-0.554 -0.446,-1 -1,-1 h -3.1016 l -2.1914,-2.1914 C 11.5112,1.61275 11.25566,1.5137 11.00004,1.5137 Z m -0.09961,3.1875 1.5,2 -0.39844,0.29883 h 1.9961 l -0.39844,-0.29883 1.5,-2 0.80078,0.59961 -1.2754,1.6992 h 2.375 v 1 h -2 v 3 h 2 v 1 h -2 v 5 h -1 v -5 h -2.041 c -0.09614,1.1187 -0.47709,2.0294 -0.92578,2.8066 -0.62072,1.075 -1.6914,2.0586 -1.6914,2.0586 L 8.65822,16.13669 c 0,0 1.0125,-0.96878 1.5098,-1.8301 0.40132,-0.69512 0.70429,-1.4116 0.79297,-2.3066 h -1.9609 v -0.94141 l -1,0.5 v 5.4414 h -3 v -1 h 2 v -3.9414 l -1.7773,0.88867 -0.44531,-0.89453 2.2227,-1.1113 v -2.9414 h -2 v -1 h 2 v -2 h 1 v 2 h 1 v 1 h -1 v 2.4414 l 0.77734,-0.38867 0.44531,0.89453 -0.10547,0.05273 h 1.8828 v -3 h -1 v -1 h 1.375 L 10.09976,5.30081 10.90054,4.7012 Z M 11.99999,8 v 3 h 2 V 8 Z"
       fill="currentColor"
       id="path40" />
    <rect
       width="22"
       height="22"
       fill="none"
       id="rect42"
       x="0"
       y="0" />
  </g>
  <g
     id="fcitx-emoji"
     transform="translate(1.35e-6,-37.995003)">
    <rect
       x="-2.4710001e-09"
       y="170"
       width="22"
       height="22"
       fill="none"
       id="rect45" />
    <path
       class="ColorScheme-Text"
       transform="translate(0,26)"
       d="m 3.2227,150.05 -0.44531,0.89454 4,2 L 7.2227,152.05 Z m 15.555,0 -4,2 0.44531,0.89454 4,-2 z m -14.777,2.9473 a 1,1 0 0 0 -1,1 1,1 0 0 0 1,1 1,1 0 0 0 1,-1 1,1 0 0 0 -1,-1 z m 14,0 a 1,1 0 0 0 -1,1 1,1 0 0 0 1,1 1,1 0 0 0 1,-1 1,1 0 0 0 -1,-1 z m -9.9004,1.6992 c -0.81,1.08 -1.235,2.2888 -1.1602,3.3359 0.037398,0.52357 0.21003,1.0214 0.56836,1.3906 0.35833,0.3692 0.88802,0.57422 1.4922,0.57422 0.96123,0 1.6388,-0.68084 2,-1.457 0.36117,0.77619 1.0388,1.457 2,1.457 0.60417,0 1.1339,-0.20503 1.4922,-0.57422 0.35833,-0.36919 0.53096,-0.86705 0.56836,-1.3906 0.0748,-1.0472 -0.35016,-2.2559 -1.1602,-3.3359 l -0.80078,0.60156 c 0.69,0.92 1.015,1.9612 0.96484,2.6641 -0.0251,0.35143 -0.13372,0.60357 -0.29102,0.76563 -0.1573,0.16206 -0.3776,0.26953 -0.77344,0.26953 -0.52778,0 -0.84027,-0.3068 -1.1074,-0.89453 -0.26715,-0.58774 -0.39258,-1.411 -0.39258,-2.1055 h -1 c 0,0.69444 -0.12543,1.5177 -0.39258,2.1055 -0.26715,0.58773 -0.57964,0.89453 -1.1074,0.89453 -0.39583,0 -0.61614,-0.10747 -0.77344,-0.26953 -0.1573,-0.16206 -0.26591,-0.4142 -0.29102,-0.76563 -0.050204,-0.70285 0.27484,-1.7441 0.96484,-2.6641 z"
       fill="currentColor"
       id="path47" />
  </g>
  <g
     id="fcitx-quanpin-libpinyin"
     transform="translate(154,66.004997)">
    <path
       id="path75"
       class="ColorScheme-Text"
       d="m -127,-41 c -1.108,0 -2,0.892 -2,2 v 11.994141 c 0,1.108 0.892,2 2,2 h 12 c 1.108,0 2,-0.892 2,-2 V -39 c 0,-1.108 -0.892,-2 -2,-2 z m 5.50977,1.896484 0.98046,0.195313 c -0.0101,0.0507 -0.034,0.09672 -0.0469,0.146484 1.8764,2.289 5.73242,3.78711 5.73242,3.78711 l -0.35156,0.9375 c 0,0 -0.80845,-0.321761 -1.82422,-0.837891 v 0.869141 h -3.5 v 2 h 2.5 v 1 h -2.5 v 3 h 4.5 v 1 h -10 v -1 h 4.5 v -3 h -2.5 v -1 h 2.5 v -2 h -3.5 v -0.824219 c -1.02869,0.50172 -1.83008,0.794922 -1.83008,0.794922 l -0.33984,-0.941406 c 0,0 1.34123,-0.488854 2.73633,-1.277344 1.3951,-0.78853 2.75747,-1.92021 2.94336,-2.84961 z M -121,-37.773438 c -0.66759,0.99691 -1.84611,1.771626 -2.94141,2.390626 -0.24781,0.140059 -0.48317,0.256003 -0.7207,0.376953 h 7.39649 c -1.19141,-0.63048 -2.61818,-1.552778 -3.73438,-2.767579 z"
       fill="currentColor" />
    <rect
       width="22"
       height="22"
       fill="none"
       id="rect77"
       x="-132"
       y="-44.005001" />
  </g>
  <g
     id="fcitx-chewing-libpinyin"
     transform="translate(154,66.004997)">
    <path
       id="path90"
       class="ColorScheme-Text"
       d="m -60.996094,-41.005859 c -1.108,0 -2,0.892 -2,2 v 11.996093 c 0,1.108 0.892,2 2,2 h 12 c 1.108,0 2,-0.892 2,-2 v -11.996093 c 0,-1.108 -0.892,-2 -2,-2 z m 0,2 h 6 v 1 h -2 v 3 h 2 l -0.40039,-0.300782 c 0,0 1.40039,-1.949218 1.40039,-3.699218 h 1 c 0,0.70875 -0.165372,1.3887 -0.382812,2 h 1.382812 v -2 h 1 v 2 h 2 v 1 h -2 v 2 h 2 v 1 h -5 v -1 h 2 v -2 h -1.802734 c -0.39863,0.78961 -0.796875,1.300781 -0.796875,1.300781 l -0.400391,-0.300781 v 8 h -6 v -8 h 1 v -3 h -1 z m 2,1 v 3 h 1 v -3 z m 0,4 v 3 h -1 v 1 h 3 v 1 h -3 v 1 h 4 v -6 h -1 v 3 h -1 v -3 z m 5,2 h 5 v 5 h -5 v -4.5 z m 1,1 v 3 h 3 v -3 z"
       fill="currentColor" />
    <rect
       width="22"
       height="22"
       fill="none"
       id="rect92"
       x="-65.996002"
       y="-44.005001" />
  </g>
  <g
     id="fcitx-unikey"
     transform="translate(1.35e-6,-59.995003)">
    <rect
       x="-2.4710001e-09"
       y="170"
       width="22"
       height="22"
       fill="none"
       id="rect100" />
    <path
       class="ColorScheme-Text"
       transform="translate(0,48)"
       d="m 4,126 v 8 h 3 v 7 h 8 v -7 h 3 v -8 h -7 z m 1,1 h 6 v 6 H 5 Z m 7,0 h 5 v 6 h -5 z m -6,1 v 1.5 c 0,0.80556 0.12264,1.4228 0.48438,1.875 0.36174,0.4522 0.93229,0.625 1.5156,0.625 0.58331,0 1.1539,-0.17283 1.5156,-0.625 0.3617,-0.45217 0.48438,-1.0694 0.48438,-1.875 V 128 h -1 v 1.5 c 0,0.69444 -0.12736,1.0772 -0.26562,1.25 C 8.59608,130.9228 8.41663,131 7.99996,131 7.58329,131 7.40385,130.92283 7.26558,130.75 7.12731,130.57717 6.99996,130.19444 6.99996,129.5 V 128 Z m 8,0 v 4 h 1 v -4 z m -6,6 h 6 v 6 H 8 Z m 2,1 H 9 v 4 h 1 v -2.498 L 12,139 h 1 v -4 h -1 v 2.498 z"
       fill="currentColor"
       id="path102" />
  </g>
  <g
     id="fcitx-anthy"
     transform="translate(1.35e-6,-103.99501)">
    <rect
       x="-2.4710001e-09"
       y="170"
       width="22"
       height="22"
       fill="none"
       id="rect105" />
    <path
       class="ColorScheme-Text"
       d="m 11,173 c -1.0986,0 -2,0.90135 -2,2 v 0.002 c 0.00127,0.60896 0.33339,1.1222 0.79492,1.4961 -0.14513,0.97576 -0.37292,2.233 -0.76953,3.2559 -0.21187,0.54639 -0.46706,1.0145 -0.73438,1.3164 -0.26732,0.30189 -0.50722,0.42964 -0.79102,0.42964 -0.29818,0 -0.53948,-0.11146 -0.79297,-0.34766 -0.25349,-0.23619 -0.49536,-0.60095 -0.70117,-1.0371 -0.37942,-0.80403 -0.60763,-1.8156 -0.76172,-2.6445 0.43936,-0.37486 0.75541,-0.8789 0.75586,-1.4707 0,-1.0986 -0.90135,-2 -2,-2 -1.09865,0 -2,0.90135 -2,2 9.876e-4,0.82143 0.56431,1.4555 1.2988,1.7578 l 1.7812,10.242 h 11.84 l 1.7812,-10.24 c 0.73541,-0.30266 1.2989,-0.93733 1.2988,-1.7598 0,-1.0986 -0.90135,-2 -2,-2 -1.09865,0 -2,0.90135 -2,2 4.5e-4,0.5918 0.3165,1.0958 0.75586,1.4707 -0.15409,0.82895 -0.3823,1.8405 -0.76172,2.6445 -0.20582,0.43616 -0.44768,0.80092 -0.70117,1.0371 -0.25349,0.2362 -0.49478,0.34766 -0.79297,0.34766 -0.28372,0 -0.52375,-0.12794 -0.79102,-0.42969 -0.26727,-0.30174 -0.5225,-0.77029 -0.73438,-1.3164 -0.39662,-1.0223 -0.62431,-2.2781 -0.76953,-3.2539 0.46225,-0.37449 0.79445,-0.8901 0.79492,-1.5 0,-1.0986 -0.90135,-2 -2,-2 z m 0,1 c 0.55821,0 1,0.44179 1,1 -3e-4,0.3835 -0.21765,0.73066 -0.5625,0.89844 l -0.32617,0.1582 0.04883,0.36133 c 0.14511,1.0343 0.40693,2.4707 0.88281,3.6973 0.23794,0.6133 0.52737,1.1782 0.91797,1.6191 0.3906,0.44099 0.92067,0.76563 1.5391,0.76563 0.57517,0 1.0848,-0.25198 1.4746,-0.61523 0.38985,-0.36326 0.68307,-0.83355 0.92383,-1.3438 0.40326,-0.85457 0.59589,-1.7876 0.75976,-2.6152 l -1.5781,9.0742 h -10.16 l -1.5762,-9.0723 c 0.16389,0.82721 0.35491,1.7595 0.75781,2.6133 0.24076,0.5102 0.53398,0.98049 0.92383,1.3438 0.38985,0.36325 0.89944,0.61523 1.4746,0.61523 0.61858,0 1.1504,-0.32637 1.541,-0.76758 0.3906,-0.44121 0.68006,-1.0036 0.91797,-1.6172 0.47582,-1.2271 0.73585,-2.6651 0.88086,-3.6992 l 0.04883,-0.36133 -0.32617,-0.15821 C 10.21877,175.72917 10.00163,175.38231 10.00016,175 v -0.002 c 0.001,-0.55723 0.44245,-0.998 1,-0.998 z m -7,1 c 0.55821,0 1,0.44179 1,1 -2.85e-4,0.375 -0.20772,0.71484 -0.54102,0.88672 l -0.29297,0.15234 -0.32812,-0.0547 C 3.35139,176.90478 3.00059,176.49296 3,176 c 0,-0.55821 0.44179,-1 1,-1 z m 14,0 c 0.55821,0 1,0.44179 1,1 4.9e-5,0.49347 -0.35089,0.90665 -0.83789,0.98633 l -0.32617,0.0547 -0.29492,-0.1543 C 17.20772,176.71484 17.00029,176.375 17,176 c 0,-0.55821 0.44179,-1 1,-1 z"
       fill="currentColor"
       id="path107" />
  </g>
  <g
     id="fcitx-quanpin"
     transform="translate(154,66.004997)">
    <path
       id="path60"
       class="ColorScheme-Text"
       d="m -121.49023,-61.103516 c -0.18588,0.92943 -1.54826,2.06111 -2.94336,2.84961 -1.3951,0.78853 -2.73633,1.277343 -2.73633,1.277344 l 0.33984,0.941406 c 0,0 0.80136,-0.293212 1.83008,-0.794922 v 0.824219 h 3.5 v 2 h -2.5 v 1 h 2.5 v 3 h -4.5 v 1 h 10 v -1 h -4.5 v -3 h 2.5 v -1 h -2.5 v -2 h 3.5 V -56.875 c 1.0158,0.51614 1.82422,0.837891 1.82422,0.837891 l 0.35156,-0.9375 c 0,0 -3.85602,-1.49811 -5.73242,-3.78711 0.0129,-0.04977 0.0367,-0.09578 0.0469,-0.146484 z M -121,-59.773438 c 1.1162,1.2148 2.54298,2.137079 3.73438,2.767579 h -7.39649 c 0.23754,-0.12095 0.4729,-0.236894 0.7207,-0.376953 1.0953,-0.61906 2.27381,-1.393726 2.94141,-2.390626 z"
       fill="currentColor" />
    <rect
       width="22"
       height="22"
       fill="none"
       id="rect62"
       x="-132"
       y="-66.004997" />
    <path
       id="rect2273"
       d="m -127,-62.994141 c -1.108,0 -2,0.892 -2,2 V -49 c 0,1.108 0.892,2 2,2 h 12 c 1.108,0 2,-0.892 2,-2 v -11.994141 c 0,-1.108 -0.892,-2 -2,-2 z m 0,1 h 12 c 0.55383,0 1,0.446173 1,1 v 11.996094 C -114,-48.444221 -114.44617,-48 -115,-48 h -12 c -0.55383,0 -1,-0.444221 -1,-0.998047 v -11.996094 c 0,-0.553827 0.44617,-1 1,-1 z"
       class="ColorScheme-Text"
       fill="currentColor" />
  </g>
  <g
     id="fcitx-shuangpin"
     transform="translate(154,66.004997)">
    <path
       class="ColorScheme-Text"
       d="m -105,-61.00495 v 1 h 4.4277 c -0.071,0.64338 -0.31818,2.7369 -0.86914,4.6426 -0.69455,-0.96275 -1.4867,-1.9809 -2.668,-3.4551 l -0.78125,0.62695 c 1.4174,1.7689 2.2871,2.8839 3.0527,3.9902 -1.2933,3.3423 -3.2637,4.6562 -3.2637,4.6562 l 0.55664,0.83203 c 0,0 1.9708,-1.363 3.3652,-4.4883 0.43716,0.68656 0.88299,1.4216 1.4219,2.375 l 0.86914,-0.49024 c -0.69889,-1.2365 -1.2552,-2.1386 -1.8379,-3.0117 0.89647,-2.6078 1.2246,-6.1289 1.2246,-6.1289 l 0.05078,-0.54883 z m 6,0 v 1 h 0.58984 c 0.10193,0.5916 0.55246,3.1367 1.3105,5.0938 0.26528,0.68481 0.54903,1.3437 0.88672,1.9922 -1.2881,2.0417 -3.0684,3.1426 -3.0684,3.1426 l 0.51758,0.85547 c 0,0 1.7103,-1.0502 3.1035,-3.0371 0.65567,1.0236 1.5216,2.0301 2.8027,3.0645 l 0.62695,-0.7793 c -1.3836,-1.117 -2.22,-2.1471 -2.8438,-3.2305 0.12558,-0.22738 0.25622,-0.44709 0.36719,-0.69336 0.87417,-1.9401 1.707,-4.7616 1.707,-6.9082 v -0.5 z m 1.6074,1 h 3.3164 c -0.10862,1.8531 -0.78602,4.318 -1.543,5.998 -0.0025,0.0055 -0.0053,0.01017 -0.0078,0.01563 -0.18806,-0.41384 -0.36556,-0.83337 -0.53906,-1.2812 -0.65821,-1.6992 -1.0873,-3.967 -1.2266,-4.7324 z"
       fill="currentColor"
       id="path15" />
    <rect
       width="22"
       height="22"
       fill="none"
       id="rect17"
       x="-110"
       y="-66.004997" />
    <path
       id="path2935"
       d="m -105,-62.994141 c -1.108,0 -2,0.892 -2,2 V -49 c 0,1.108 0.892,2 2,2 h 12 c 1.108,0 2,-0.892 2,-2 v -11.994141 c 0,-1.108 -0.892,-2 -2,-2 z m 0,1 h 12 c 0.55383,0 1,0.446173 1,1 v 11.996094 C -92,-48.444221 -92.44617,-48 -93,-48 h -12 c -0.55383,0 -1,-0.444221 -1,-0.998047 v -11.996094 c 0,-0.553827 0.44617,-1 1,-1 z"
       class="ColorScheme-Text"
       fill="currentColor" />
  </g>
  <g
     id="fcitx-bopomofo"
     transform="translate(154,66.004997)">
    <rect
       width="22"
       height="22"
       fill="none"
       id="rect80"
       x="-87.996002"
       y="-66.004997" />
    <path
       class="ColorScheme-Text"
       d="m -76.6952,-61.40539 -0.60156,0.80078 2,1.5 0.60156,-0.80078 z m -5.9473,0.04687 -0.70703,0.70703 2,2 0.70703,-0.70703 z m 2.6465,2.3535 v 1 h 4 v 3 h -3 v 1 h 3 v 4 h -4 v 1 h 9 v -1 h -4 v -4 h 3 v -1 h -3 v -3 h 4 v -1 z m -2.6465,0.64648 -0.70703,0.70703 2,2 0.70703,-0.70703 z m 1.1719,3.1953 -2,6 0.94922,0.31641 2,-6 z"
       fill="currentColor"
       id="path82" />
    <path
       id="path3036"
       d="m -83,-62.994141 c -1.108,0 -2,0.892 -2,2 V -49 c 0,1.108 0.892,2 2,2 h 12 c 1.108,0 2,-0.892 2,-2 v -11.994141 c 0,-1.108 -0.892,-2 -2,-2 z m 0,1 h 12 c 0.55383,0 1,0.446173 1,1 v 11.996094 C -70,-48.444221 -70.44617,-48 -71,-48 h -12 c -0.55383,0 -1,-0.444221 -1,-0.998047 v -11.996094 c 0,-0.553827 0.44617,-1 1,-1 z"
       class="ColorScheme-Text"
       fill="currentColor" />
  </g>
  <g
     id="fcitx-chewing"
     transform="translate(154,66.004997)">
    <path
       class="ColorScheme-Text"
       d="m -60.996,-61.005 v 1 h 1 v 3 h -1 v 8 h 6 v -8 h -2 v -3 h 2 v -1 z m 6,4 0.40039,0.30078 c 0,0 0.39825,-0.51117 0.79688,-1.3008 h 1.8027 v 2 h -2 v 1 h 5 v -1 h -2 v -2 h 2 v -1 h -2 v -2 h -1 v 2 h -1.3828 c 0.21744,-0.61134 0.38281,-1.2913 0.38281,-2 h -1 c 0,1.75 -1.4004,3.6992 -1.4004,3.6992 z m -4,-3 h 1 v 3 h -1 z m 0,4 h 1 v 3 h 1 v -3 h 1 v 6 h -4 v -1 h 3 v -1 h -3 v -1 h 1 z m 5,2 v 5 h 5 v -5 z m 1,1 h 3 v 3 h -3 z"
       fill="currentColor"
       id="path85" />
    <rect
       width="22"
       height="22"
       fill="none"
       id="rect87"
       x="-65.996002"
       y="-66.004997" />
    <path
       id="path3137"
       d="m -61,-62.994141 c -1.108,0 -2,0.892 -2,2 V -49 c 0,1.108 0.892,2 2,2 h 12 c 1.108,0 2,-0.892 2,-2 v -11.994141 c 0,-1.108 -0.892,-2 -2,-2 z m 0,1 h 12 c 0.55383,0 1,0.446173 1,1 v 11.996094 C -48,-48.444221 -48.44617,-48 -49,-48 h -12 c -0.55383,0 -1,-0.444221 -1,-0.998047 v -11.996094 c 0,-0.553827 0.44617,-1 1,-1 z"
       class="ColorScheme-Text"
       fill="currentColor" />
  </g>
  <g
     id="fcitx-rime"
     transform="translate(154,66.004997)">
    <path
       class="ColorScheme-Text"
       d="m -33.996,-61.005 v 6.9824 c -1.811,-0.08165 -2.7205,-0.60659 -3.2617,-1.4922 -0.58985,-0.96521 -0.73828,-2.5111 -0.73828,-4.4902 h -1 c 0,2.0208 0.10157,3.725 0.88672,5.0098 0.72658,1.189 2.0629,1.874 4.1133,1.9707 v 3.0195 h -5 v 1 h 11 v -1 h -5 v -3.0195 c 2.0504,-0.09674 3.3867,-0.78175 4.1133,-1.9707 0.78515,-1.2848 0.88672,-2.9889 0.88672,-5.0098 h -1 c 0,1.9792 -0.14843,3.525 -0.73828,4.4902 -0.5412,0.8856 -1.4508,1.4105 -3.2617,1.4922 v -6.9824 z"
       fill="currentColor"
       id="path95" />
    <rect
       width="22"
       height="22"
       fill="none"
       id="rect97"
       x="-43.995998"
       y="-66.004997" />
    <path
       id="path3318"
       d="m -39,-62.994141 c -1.108,0 -2,0.892 -2,2 V -49 c 0,1.108 0.892,2 2,2 h 12 c 1.108,0 2,-0.892 2,-2 v -11.994141 c 0,-1.108 -0.892,-2 -2,-2 z m 0,1 h 12 c 0.55383,0 1,0.446173 1,1 v 11.996094 C -26,-48.444221 -26.44617,-48 -27,-48 h -12 c -0.55383,0 -1,-0.444221 -1,-0.998047 v -11.996094 c 0,-0.553827 0.44617,-1 1,-1 z"
       class="ColorScheme-Text"
       fill="currentColor" />
  </g>
  <g
     id="fcitx-erbi"
     transform="translate(154,66.004997)">
    <path
       class="ColorScheme-Text"
       d="m -15.996,-59.005 v 1 h 10 v -1 z m -1,7 v 1 h 12 v -1 z"
       fill="currentColor"
       id="path50" />
    <rect
       width="22"
       height="22"
       fill="none"
       id="rect52"
       x="-21.996"
       y="-66.004997" />
    <path
       id="path3419"
       d="m -17,-62.994141 c -1.108,0 -2,0.892 -2,2 V -49 c 0,1.108 0.892,2 2,2 h 12 c 1.108,0 2,-0.892 2,-2 v -11.994141 c 0,-1.108 -0.892,-2 -2,-2 z m 0,1 h 12 c 0.55383,0 1,0.446173 1,1 v 11.996094 C -4,-48.444221 -4.44617,-48 -5,-48 h -12 c -0.55383,0 -1,-0.444221 -1,-0.998047 v -11.996094 c 0,-0.553827 0.44617,-1 1,-1 z"
       class="ColorScheme-Text"
       fill="currentColor" />
  </g>
  <g
     id="fcitx-wubi"
     transform="translate(154,66.004997)">
    <path
       class="ColorScheme-Text"
       d="m 6.0041825,-60.00495 v 1 h 3.877 l -0.66602,3 h -2.2109 v 1 h 1.9883 l -0.88867,4 h -2.0996 v 1 h 9.9999995 v -1 h -1.999999 v -5 h -3.7637 l 0.66602,-3 h 4.097699 v -1 z m 4.0137005,5 h 2.9863 v 4 H 9.1271825 Z"
       fill="currentColor"
       id="path20" />
    <rect
       width="22"
       height="22"
       fill="none"
       id="rect22"
       x="0.0041824998"
       y="-66.004997" />
    <path
       id="path3520"
       d="m 5,-62.994141 c -1.108,0 -2,0.892 -2,2 V -49 c 0,1.108 0.892,2 2,2 h 12 c 1.108,0 2,-0.892 2,-2 v -11.994141 c 0,-1.108 -0.892,-2 -2,-2 z m 0,1 h 12 c 0.55383,0 1,0.446173 1,1 v 11.996094 C 18,-48.444221 17.55383,-48 17,-48 H 5 c -0.55383,0 -1,-0.444221 -1,-0.998047 v -11.996094 c 0,-0.553827 0.44617,-1 1,-1 z"
       class="ColorScheme-Text"
       fill="currentColor" />
  </g>
  <g
     id="fcitx-wbpy"
     transform="translate(154,66.004997)">
    <rect
       width="22"
       height="22"
       fill="none"
       id="rect72"
       x="22.004"
       y="-66.004997" />
    <path
       id="path4102"
       class="ColorScheme-Text"
       d="m 27,-62.994141 c -1.108,0 -2,0.892 -2,2 V -49 c 0,1.108 0.892,2 2,2 h 5.267578 c 0.344976,0.598077 0.989646,1 1.732422,1 h 6 c 1.108,0 2,-0.892 2,-2 v -6 c 0,-0.742776 -0.401923,-1.387446 -1,-1.732422 v -5.261719 c 0,-1.108 -0.892,-2 -2,-2 z m 0,1 h 12 c 0.55383,0 1,0.446173 1,1 V -56 h -3.996094 v -0.0059 h -3.763672 l 0.666016,-3 h 4.097656 v -1 h -9 v 1 h 3.876953 l -0.666015,3 h -2.210938 v 1 h 1.988282 l -0.888672,4 h -2.09961 v 1 H 32 V -48 h -5 c -0.55383,0 -1,-0.444221 -1,-0.998047 v -11.996094 c 0,-0.553827 0.44617,-1 1,-1 z m 6.757812,6.009766 c -0.02892,0.0035 -0.05742,0.009 -0.08594,0.01367 0.02868,-0.0047 0.05685,-0.01018 0.08594,-0.01367 z m 6.486329,0 c 0.02502,0.003 0.04951,0.0078 0.07422,0.01172 -0.02466,-0.0039 -0.04926,-0.0087 -0.07422,-0.01172 z m 0.242187,0.04687 c 0.02149,0.0054 0.04325,0.0096 0.06445,0.01563 -0.02126,-0.006 -0.04291,-0.01027 -0.06445,-0.01563 z m -6.982422,0.002 c -0.01828,0.0046 -0.03662,0.0085 -0.05469,0.01367 0.01804,-0.0052 0.03643,-0.009 0.05469,-0.01367 z m -1.486328,0.929688 h 0.253906 C 32.099663,-54.710408 32,-54.367763 32,-54 v 2.994141 h -0.873047 z m 2.982422,1 h 0.5 c 0.75,0 1.531703,-0.0168 2.220703,0.21289 0.3445,0.11483 0.676386,0.305192 0.916016,0.613281 0.23962,0.30809 0.363281,0.715529 0.363281,1.173829 0,0.4583 -0.123661,0.865768 -0.363281,1.173828 -0.23962,0.30809 -0.571516,0.498451 -0.916016,0.613281 -0.53384,0.17794 -1.133403,0.159464 -1.720703,0.164062 v 2.048829 h -1 z m 1,1.044921 v 1.914063 c 0.52807,-0.0121 1.082797,-0.012 1.404297,-0.119141 0.218,-0.0727 0.354859,-0.163563 0.443359,-0.277343 C 37.936156,-51.557149 38,-51.712236 38,-52.003906 c 0,-0.29167 -0.06384,-0.44871 -0.152344,-0.5625 -0.0885,-0.11378 -0.225359,-0.202721 -0.443359,-0.275391 C 37.082777,-52.948967 36.52807,-52.948836 36,-52.960938 Z m -3.984375,5.205079 c 0.003,0.02496 0.0078,0.04955 0.01172,0.07422 -0.004,-0.02471 -0.0087,-0.0492 -0.01172,-0.07422 z m 0.04687,0.242187 c 0.0054,0.02154 0.0096,0.04319 0.01563,0.06445 -0.0061,-0.0212 -0.01024,-0.04296 -0.01563,-0.06445 z"
       fill="currentColor" />
  </g>
  <g
     id="fcitx-ziranma"
     transform="translate(154,66.004997)">
    <path
       class="ColorScheme-Text"
       d="m 53.6837,-61.38977 -2.8613,2.3848 h -0.81836 v 10 h 10 v -10 h -7.6172 l 1.9375,-1.6152 z m -2.6797,3.3848 h 8 v 8 h -8 v -2 h 6 v -1 h -6 v -2 h 6 v -1 h -6 z"
       fill="currentColor"
       id="path55"
       sodipodi:nodetypes="cccccccccccccccccccccc" />
    <rect
       width="22"
       height="22"
       fill="none"
       id="rect57"
       x="44.004002"
       y="-66.004997" />
    <path
       id="path4392"
       d="m 49,-62.994141 c -1.108,0 -2,0.892 -2,2 V -49 c 0,1.108 0.892,2 2,2 h 12 c 1.108,0 2,-0.892 2,-2 v -11.994141 c 0,-1.108 -0.892,-2 -2,-2 z m 0,1 h 12 c 0.55383,0 1,0.446173 1,1 v 11.996094 C 62,-48.444221 61.55383,-48 61,-48 H 49 c -0.55383,0 -1,-0.444221 -1,-0.998047 v -11.996094 c 0,-0.553827 0.44617,-1 1,-1 z"
       class="ColorScheme-Text"
       fill="currentColor" />
  </g>
  <g
     id="fcitx-cangjie"
     transform="translate(154,66.004997)">
    <path
       class="ColorScheme-Text"
       d="m 76.588,-61.28234 c -1.8435,2.7653 -5.6465,3.2812 -5.6465,3.2812 l 0.125,0.99219 c 0,0 0.83386,-0.12382 1.9375,-0.53516 v 4.0391 c 0,0.83333 -0.45395,1.9126 -0.93359,2.752 -0.47965,0.83938 -0.95704,1.4355 -0.95703,1.4355 l 0.78124,0.625 c 0,0 0.52262,-0.65383 1.043,-1.5645 0.0223,-0.03907 0.044,-0.08499 0.0664,-0.125 l 1e-5,1.377 h 8 v -3 h -7.2754 c 0.107,-0.32666 0.17843,-0.66104 0.2207,-1 h 7.0547 v -4.5391 c 1.1036,0.41133 1.9375,0.53516 1.9375,0.53516 l 0.125,-0.99219 c 0,0 -3.8029,-0.51593 -5.6465,-3.2812 z m 0.41602,0.98047 c 0.85882,1.0696 1.9335,1.7985 2.9336,2.2969 h -2.4336 l 0.27734,-0.41602 -1.5,-1 -0.55468,0.83203 0.875,0.58398 h -2.5312 c 1.0001,-0.49833 2.0748,-1.2273 2.9336,-2.2969 z m -3,3.2969 h 6 v 3 h -6 v -1 h 5 v -1 h -5 z m 0,6 h 6 v 1 h -6 z"
       fill="currentColor"
       id="path65"
       sodipodi:nodetypes="ccccscccccccccccccccccccccccccccccccccccccccc" />
    <rect
       width="22"
       height="22"
       fill="none"
       id="rect67"
       x="66.003998"
       y="-66.004997" />
    <path
       id="path4493"
       d="m 71,-62.994141 c -1.108,0 -2,0.892 -2,2 V -49 c 0,1.108 0.892,2 2,2 h 12 c 1.108,0 2,-0.892 2,-2 v -11.994141 c 0,-1.108 -0.892,-2 -2,-2 z m 0,1 h 12 c 0.55383,0 1,0.446173 1,1 v 11.996094 C 84,-48.444221 83.55383,-48 83,-48 H 71 c -0.55383,0 -1,-0.444221 -1,-0.998047 v -11.996094 c 0,-0.553827 0.44617,-1 1,-1 z"
       class="ColorScheme-Text"
       fill="currentColor" />
  </g>
  <g
     id="fcitx-googlepinyin"
     transform="translate(154,66.004997)">
    <path
       class="ColorScheme-Text"
       d="m -143.1016,-16.50105 c -1.2942,0.024 -2.5802,0.49973 -3.5977,1.4238 -2.035,1.848 -2.3884,4.9374 -0.82617,7.1992 1.56223,2.2618 4.5769,3.0228 7.0254,1.7734 2.1893,-1.1171 3.3322,-3.5456 2.8984,-5.9004 h -2.0566 c 7.8e-4,0.0026 10e-4,0.0052 0.002,0.0078 h -3.3438 v 2 h 3.3359 c -0.26298,0.88496 -0.86402,1.6612 -1.7461,2.1113 -1.5694,0.8008 -3.4693,0.3209 -4.4707,-1.1289 -1.0014,-1.4498 -0.77707,-3.3974 0.5273,-4.582 1.3044,-1.1845 3.2627,-1.2202 4.6094,-0.08398 l 1.291,-1.5293 c -1.0505,-0.8863 -2.3543,-1.3145 -3.6484,-1.291 z"
       fill="currentColor"
       id="path25"
       sodipodi:nodetypes="ccscccccccssccccc" />
    <rect
       width="22"
       height="22"
       fill="none"
       id="rect27"
       x="-154"
       y="-22.004999" />
    <path
       id="path4736"
       d="m -149,-19 c -1.108,0 -2,0.892 -2,2 v 11.994141 c 0,1.108 0.892,2 2,2 h 12 c 1.108,0 2,-0.892 2,-2 V -17 c 0,-1.108 -0.892,-2 -2,-2 z m 0,1 h 12 c 0.55383,0 1,0.446173 1,1 v 11.996094 c 0,0.553826 -0.44617,0.998047 -1,0.998047 h -12 c -0.55383,0 -1,-0.444221 -1,-0.998047 V -17 c 0,-0.553827 0.44617,-1 1,-1 z"
       class="ColorScheme-Text"
       fill="currentColor" />
  </g>
  <g
     id="fcitx-libkkc"
     transform="translate(154,66.004997)">
    <rect
       x="-132"
       y="0"
       width="22"
       height="22"
       fill="none"
       id="rect110" />
    <path
       class="ColorScheme-Text"
       d="m -127,7 v 8 h 1 V 12.707 L -123.707,15 H -122 v -2.293 l 2.293,2.293 h 1.4141 l -3,-3 3,-3 h -1.4141 L -122,11.293 V 7 h -1 v 2 h -0.70703 l -2.293,2.293 V 7 Z m 10,2 c -0.58333,0 -1.1107,0.15363 -1.4785,0.52148 -0.36785,0.36786 -0.52148,0.89519 -0.52148,1.4785 v 2 c 0,0.58333 0.15363,1.1107 0.52148,1.4785 0.36785,0.36785 0.89518,0.52148 1.4785,0.52148 0.58332,0 1.1107,-0.15363 1.4785,-0.52148 0.36785,-0.36786 0.52148,-0.89519 0.52148,-1.4785 h -1 c 0,0.41667 -0.0964,0.63934 -0.22852,0.77148 -0.13215,0.13215 -0.35482,0.22852 -0.77148,0.22852 -0.41666,0 -0.63934,-0.0964 -0.77148,-0.22852 -0.13215,-0.13214 -0.22852,-0.35481 -0.22852,-0.77148 v -2 c 0,-0.41667 0.0964,-0.63934 0.22852,-0.77148 0.13215,-0.13215 0.35482,-0.22852 0.77148,-0.22852 0.41666,0 0.63934,0.0964 0.77148,0.22852 0.13215,0.13214 0.22852,0.35481 0.22852,0.77148 h 1 c 0,-0.58333 -0.15363,-1.1107 -0.52148,-1.4785 C -115.88935,9.15363 -116.41668,9 -117,9 Z m -6,0.70703 v 4.5859 l -2.293,-2.293 z"
       fill="currentColor"
       id="path112"
       sodipodi:nodetypes="ccccccccccccccccccccscsscscccsssssssscccscccc" />
    <path
       id="path4936"
       d="m -127,3.005859 c -1.108,0 -2,0.892 -2,2 V 17 c 0,1.108 0.892,2 2,2 h 12 c 1.108,0 2,-0.892 2,-2 V 5.005859 c 0,-1.108 -0.892,-2 -2,-2 z m 0,1 h 12 c 0.55383,0 1,0.446173 1,1 V 17.001953 C -114,17.555779 -114.44617,18 -115,18 h -12 c -0.55383,0 -1,-0.444221 -1,-0.998047 V 5.005859 c 0,-0.553827 0.44617,-1 1,-1 z"
       class="ColorScheme-Text"
       fill="currentColor" />
  </g>
  <g
     id="fcitx-libskk"
     transform="translate(154,66.004997)">
    <rect
       x="-110"
       y="0"
       width="22"
       height="22"
       fill="none"
       id="rect115" />
    <path
       class="ColorScheme-Text"
       d="m -101.00004,7 v 8 h 1 V 12.707 L -97.707039,15 h 1.707 v -2.293 l 2.293,2.293 h 1.4141 l -3,-3 3,-3 h -1.4141 l -2.293,2.293 V 7 h -1 v 2 h -0.70703 l -2.293001,2.293 V 7 Z m 0,6 c 0,-0.58334 -0.15363,-1.1107 -0.52148,-1.4785 -0.36785,-0.3678 -0.89518,-0.52148 -1.4785,-0.52148 -0.41667,0 -0.63934,-0.0964 -0.77148,-0.22852 -0.13215,-0.13215 -0.22852,-0.35482 -0.22852,-0.77148 0,-0.41667 0.0964,-0.63933 0.22852,-0.77148 0.13215,-0.13215 0.35482,-0.22852 0.77148,-0.22852 0.41666,0 0.63934,0.09641 0.77148,0.22852 0.13215,0.13215 0.22852,0.35481 0.22852,0.77148 h 1 c 0,-0.58334 -0.15363,-1.1107 -0.52148,-1.4785 -0.36785,-0.3678 -0.89518,-0.52148 -1.4785,-0.52148 -0.58332,0 -1.1107,0.15363 -1.4785,0.52148 -0.3678,0.36785 -0.52148,0.89518 -0.52148,1.4785 0,0.58333 0.15363,1.1107 0.52148,1.4785 0.36785,0.3678 0.89518,0.52148 1.4785,0.52148 0.41667,0 0.63934,0.09641 0.77148,0.22852 C -102.09637,12.36067 -102,12.58333 -102,13 c 0,0.41666 -0.0964,0.63933 -0.22852,0.77148 C -102.36067,13.90363 -102.58334,14 -103,14 c -0.41666,0 -0.63934,-0.0964 -0.77148,-0.22852 C -103.90363,13.63933 -104,13.41666 -104,13 h -1 c 0,0.58333 0.15363,1.1107 0.52148,1.4785 0.36785,0.3678 0.89518,0.52148 1.4785,0.52148 0.58332,0 1.1107,-0.15363 1.4785,-0.52148 0.3678,-0.36785 0.52148,-0.89519 0.52148,-1.4785 z m 4.000001,-3.293 v 4.5859 l -2.293,-2.293 z"
       fill="currentColor"
       id="path117"
       sodipodi:nodetypes="ccccccccccccccccccccssssscscccsssssscscssccsssscccc" />
    <path
       id="path5037"
       d="m -105,3 c -1.108,0 -2,0.892 -2,2 v 11.994141 c 0,1.108 0.892,2 2,2 h 12.000001 c 1.108,0 2,-0.892 2,-2 V 5 c 0,-1.108 -0.892,-2 -2,-2 z m 0,1 h 12.000001 c 0.55383,0 1,0.446173 1,1 v 11.996094 c 0,0.553826 -0.44617,0.998047 -1,0.998047 H -105 c -0.55383,0 -1,-0.444221 -1,-0.998047 V 5 c 0,-0.553827 0.44617,-1 1,-1 z"
       class="ColorScheme-Text"
       fill="currentColor" />
  </g>
  <g
     id="fcitx-hangul"
     transform="translate(154,66.004997)">
    <rect
       x="-154"
       y="22"
       width="22"
       height="22"
       fill="none"
       id="rect120" />
    <path
       class="ColorScheme-Text"
       d="m -146,27 v 1 h 2 v -1 z m 6,1 v 8 h 1 v -4 h 2 v -1 h -2 v -3 z m -8,1 v 1 h 6 v -1 z m 3,2 c -1.5969,0 -3,1.0577 -3,2.5 0,1.4423 1.4031,2.5 3,2.5 1.5969,0 3,-1.0577 3,-2.5 0,-1.4423 -1.4031,-2.5 -3,-2.5 z m 0,1 c 1.1645,0 2,0.73321 2,1.5 0,0.76679 -0.83546,1.5 -2,1.5 -1.1645,0 -2,-0.73321 -2,-1.5 0,-0.76679 0.83546,-1.5 2,-1.5 z m -1,5 v 2 h 8 v -1 h -7 v -1 z"
       fill="currentColor"
       id="path122"
       sodipodi:nodetypes="cccccccccccccccccccssssssssssccccccc" />
    <path
       id="path5138"
       d="m -149,25 c -1.108,0 -2,0.892 -2,2 v 11.994141 c 0,1.108 0.892,2 2,2 h 12 c 1.108,0 2,-0.892 2,-2 V 27 c 0,-1.108 -0.892,-2 -2,-2 z m 0,1 h 12 c 0.55383,0 1,0.446173 1,1 v 11.996094 c 0,0.553826 -0.44617,0.998047 -1,0.998047 h -12 c -0.55383,0 -1,-0.444221 -1,-0.998047 V 27 c 0,-0.553827 0.44617,-1 1,-1 z"
       class="ColorScheme-Text"
       fill="currentColor" />
  </g>
  <g
     id="fcitx-sogouwubi">
    <path
       id="path218"
       d="m 132,21.998 h 22 v 22 h -22 z"
       fill="none" />
    <path
       id="path1741"
       class="ColorScheme-Text"
       d="M 137 25 C 135.892 25 135 25.892 135 27 L 135 38.994141 C 135 40.102141 135.892 40.994141 137 40.994141 L 142.26758 40.994141 C 142.61255 41.592218 143.25722 41.994141 144 41.994141 L 150 41.994141 C 151.108 41.994141 152 41.102141 152 39.994141 L 152 33.994141 C 152 33.251365 151.59808 32.606695 151 32.261719 L 151 27 C 151 25.892 150.108 25 149 25 L 137 25 z M 137 26 L 149 26 C 149.55383 26 150 26.446173 150 27 L 150 31.994141 L 146.00391 31.994141 L 146.00391 31.988281 L 142.24023 31.988281 L 142.90625 28.988281 L 147.00391 28.988281 L 147.00391 27.988281 L 138.00391 27.988281 L 138.00391 28.988281 L 141.88086 28.988281 L 141.21484 31.988281 L 139.00391 31.988281 L 139.00391 32.988281 L 140.99219 32.988281 L 140.10352 36.988281 L 138.00391 36.988281 L 138.00391 37.988281 L 142 37.988281 L 142 39.994141 L 137 39.994141 C 136.44617 39.994141 136 39.54992 136 38.996094 L 136 27 C 136 26.446173 136.44617 26 137 26 z M 142.01758 32.988281 L 142.27148 32.988281 C 142.09966 33.28369 142 33.626378 142 33.994141 L 142 36.988281 L 141.12695 36.988281 L 142.01758 32.988281 z M 146.81055 34 C 147.03384 33.9964 147.2603 34.001398 147.43555 34.017578 C 148.3177 34.101108 149.08575 34.376403 149.74805 34.851562 C 149.97056 35.009363 149.97406 34.989925 149.57031 35.453125 C 149.24192 35.829235 149.19273 35.861374 149.11133 35.839844 C 149.09043 35.835644 148.99594 35.789558 148.89844 35.736328 C 148.39372 35.453998 147.82255 35.250353 147.37695 35.195312 C 147.13768 35.166303 146.95312 35.202008 146.85742 35.298828 C 146.80952 35.347398 146.79237 35.474855 146.82227 35.546875 C 146.88097 35.682175 147.10978 35.811847 147.71875 36.054688 C 148.59038 36.403818 148.95225 36.590504 149.31055 36.871094 C 149.66747 37.151454 149.8882 37.483943 149.9707 37.851562 C 150.0203 38.078392 150.00385 38.452478 149.93555 38.642578 C 149.86615 38.838108 149.77665 38.977325 149.62891 39.140625 C 149.21625 39.600595 148.4323 39.914907 147.4707 39.992188 C 147.29514 40.005347 146.79622 40.004148 146.65625 39.992188 C 146.04178 39.939667 145.71288 39.879425 145.32227 39.734375 C 145.08959 39.648605 144.9505 39.580284 144.74414 39.458984 C 144.55411 39.348204 144.20779 39.09107 144.08398 38.96875 C 143.95954 38.84619 143.96324 38.810103 144.14453 38.632812 C 144.42344 38.360943 144.79766 38.026147 144.85156 37.998047 C 144.92036 37.961257 144.93846 37.965618 145.16992 38.117188 C 145.39972 38.268757 145.67922 38.405096 145.96094 38.503906 C 146.36039 38.646746 146.64739 38.708637 146.97461 38.710938 C 147.15346 38.712137 147.1887 38.701439 147.2832 38.667969 C 147.42494 38.616469 147.48214 38.556067 147.49414 38.435547 C 147.50014 38.359517 147.48317 38.326952 147.44727 38.263672 C 147.34867 38.107852 147.13635 37.981552 146.44336 37.669922 C 145.86513 37.409072 145.66584 37.308137 145.40625 37.154297 C 144.79435 36.791657 144.46898 36.429654 144.33203 35.958984 C 144.29023 35.825404 144.30195 35.476799 144.34375 35.324219 C 144.41555 35.071629 144.52475 34.875892 144.70898 34.695312 C 145.04562 34.362153 145.56868 34.132973 146.2207 34.033203 C 146.36605 34.011663 146.58744 34.004 146.81055 34 z "
       fill="currentColor" />
  </g>
  <g
     id="g434"
     transform="translate(49.470548)"
     style="opacity:0.35">
    <path
       id="path430"
       d="m 154,66 h 22 v 22 h -22 z"
       fill="none" />
    <path
       id="path432"
       d="m 160,70 c -1.108,0 -2,0.892 -2,2 v 10 c 0,1.108 0.892,2 2,2 h 10 c 1.108,0 2,-0.892 2,-2 V 72 c 0,-1.108 -0.892,-2 -2,-2 z m 0,1 h 10 c 0.554,0 1,0.446 1,1 v 9 c 0,0.554 -0.446,1 -1,1 h -10 c -0.554,0 -1,-0.446 -1,-1 v -9 c 0,-0.554 0.446,-1 1,-1 z m 6.656,3.994 c -0.79,0 -1.548,0.257 -2.28,0.75 l 0.374,0.85 c 0.312,-0.21 0.616,-0.36 0.906,-0.469 0.298,-0.116 0.571,-0.156 0.876,-0.156 0.449,0 0.791,0.104 1.03,0.344 0.24,0.232 0.438,0.548 0.438,0.968 v 0.307 c -0.21,-0.08 -0.52,-0.144 -0.781,-0.188 a 4.015,4.015 0 0 0 -0.781,-0.062 c -0.356,0 -0.672,0.038 -0.969,0.125 -0.29,0.087 -0.564,0.215 -0.781,0.375 -0.21,0.16 -0.353,0.345 -0.469,0.562 -0.116,0.218 -0.188,0.55 -0.188,0.819 0,0.254 0.063,0.501 0.157,0.719 0.101,0.217 0.208,0.402 0.375,0.562 0.174,0.16 0.393,0.28 0.625,0.375 0.239,0.087 0.505,0.125 0.781,0.125 a 2.73,2.73 0 0 0 1.188,-0.25 c 0.377,-0.181 0.683,-0.448 0.937,-0.781 l 0.031,0.344 a 0.743,0.743 0 0 0 0.219,0.437 c 0.123,0.109 0.299,0.173 0.531,0.188 0.08,0 0.187,0.006 0.281,0 0.102,-0.008 0.197,-0.01 0.313,-0.032 v -1.031 c -0.124,-0.007 -0.304,-0.036 -0.354,-0.094 A 0.497,0.497 0 0 1 169,79.469 v -2.131 c 0,-0.747 -0.096,-1.32 -0.531,-1.719 -0.435,-0.399 -1.03,-0.625 -1.813,-0.625 z m -0.09,3.07 c 0.218,0 0.608,0.05 0.833,0.094 0.232,0.044 0.398,0.106 0.601,0.186 v 0.75 c 0,0.145 -0.129,0.307 -0.281,0.437 -0.427,0.38 -0.94,0.43 -1.438,0.469 -0.326,0 -0.734,0.018 -0.944,-0.171 -0.21,-0.196 -0.337,-0.421 -0.337,-0.704 0,-0.305 0.295,-0.569 0.563,-0.75 a 1.67,1.67 0 0 1 1.004,-0.31 z"
       class="ColorScheme-Text"
       fill="currentColor" />
  </g>
</svg>
