<?xml version="1.0" encoding="UTF-8" standalone="no"?>
<svg
   width="22"
   height="22"
   id="svg3869"
   version="1.1"
   sodipodi:docname="go.svg"
   inkscape:version="1.2.2 (b0a8486541, 2022-12-01)"
   xmlns:inkscape="http://www.inkscape.org/namespaces/inkscape"
   xmlns:sodipodi="http://sodipodi.sourceforge.net/DTD/sodipodi-0.dtd"
   xmlns="http://www.w3.org/2000/svg"
   xmlns:svg="http://www.w3.org/2000/svg">
  <sodipodi:namedview
     id="namedview24"
     pagecolor="#ffffff"
     bordercolor="#666666"
     borderopacity="1.0"
     inkscape:pageshadow="2"
     inkscape:pageopacity="0.0"
     inkscape:pagecheckerboard="0"
     showgrid="true"
     inkscape:zoom="8.4659089"
     inkscape:cx="64.434901"
     inkscape:cy="5.3154364"
     inkscape:window-width="1920"
     inkscape:window-height="1010"
     inkscape:window-x="0"
     inkscape:window-y="34"
     inkscape:window-maximized="1"
     inkscape:current-layer="svg3869"
     inkscape:showpageshadow="2"
     inkscape:deskcolor="#d1d1d1">
    <inkscape:grid
       type="xygrid"
       id="grid205" />
  </sodipodi:namedview>
  <defs
     id="defs3871">
    <style
       type="text/css"
       id="current-color-scheme">.ColorScheme-Text{color:#5c616c}</style>
  </defs>
  <g
     id="go-home"
     transform="translate(-326,-534.362)">
    <path
       id="rect4180"
       opacity="1"
       fill="none"
       fill-opacity="1"
       stroke="none"
       stroke-width="3.567"
       stroke-linecap="butt"
       stroke-linejoin="miter"
       stroke-miterlimit="4"
       stroke-dasharray="none"
       stroke-dashoffset="0"
       stroke-opacity="1"
       d="m 326,534.362 h 22 v 22 h -22 z" />
    <path
       id="rect4164"
       d="m 337,537.362 -0.707,0.707 -7.293,7.293 0.707,0.707 0.293,-0.293 v 7.586 h 14 v -7.586 l 0.293,0.293 0.707,-0.707 -3,-3 v -3 h -3 l -1.293,-1.293 z m 0,1.414 6,6 v 7.586 h -4 v -5 h -4 v 5 h -4 v -7.586 z"
       class="ColorScheme-Text"
       opacity="1"
       fill="currentColor"
       fill-opacity="1"
       stroke="none" />
  </g>
  <g
     id="go-down"
     transform="translate(-326,-534.362)">
    <path
       id="rect4411"
       opacity="1"
       fill="none"
       fill-opacity="1"
       stroke="none"
       stroke-width="3.567"
       stroke-linecap="butt"
       stroke-linejoin="miter"
       stroke-miterlimit="4"
       stroke-dasharray="none"
       stroke-dashoffset="0"
       stroke-opacity="1"
       d="m 414,534.362 h 22 v 22 h -22 z" />
    <path
       d="m 417.707,541.362 -0.707,0.707 6.125,6.125 1.875,1.875 1.875,-1.875 6.125,-6.125 -0.707,-0.707 -6.125,6.125 -1.168,1.168 -1.168,-1.168 z"
       id="rect4176"
       class="ColorScheme-Text"
       fill="currentColor" />
  </g>
  <g
     id="go-next"
     transform="translate(-326,-534.362)">
    <path
       id="rect4407"
       opacity="1"
       fill="none"
       fill-opacity="1"
       stroke="none"
       stroke-width="3.567"
       stroke-linecap="butt"
       stroke-linejoin="miter"
       stroke-miterlimit="4"
       stroke-dasharray="none"
       stroke-dashoffset="0"
       stroke-opacity="1"
       d="m 370,534.362 h 22 v 22 h -22 z" />
    <path
       d="m 377.707,537.362 -0.707,0.707 6.125,6.125 1.168,1.168 -1.168,1.168 -6.125,6.125 0.707,0.707 6.125,-6.125 1.875,-1.875 -1.875,-1.875 z"
       id="rect4176-0"
       class="ColorScheme-Text"
       fill="currentColor" />
  </g>
  <g
     id="go-previous"
     transform="translate(-326,-534.362)">
    <path
       id="rect4405"
       opacity="1"
       fill="none"
       fill-opacity="1"
       stroke="none"
       stroke-width="3.567"
       stroke-linecap="butt"
       stroke-linejoin="miter"
       stroke-miterlimit="4"
       stroke-dasharray="none"
       stroke-dashoffset="0"
       stroke-opacity="1"
       d="m 348,534.362 h 22 v 22 h -22 z" />
    <path
       d="m 362.293,537.362 -6.125,6.125 -1.875,1.875 1.875,1.875 6.125,6.125 0.707,-0.707 -6.125,-6.125 -1.168,-1.168 1.168,-1.168 6.125,-6.125 z"
       id="rect4176-7"
       class="ColorScheme-Text"
       fill="currentColor" />
  </g>
  <g
     id="32-32-go-down"
     transform="matrix(1.4545455,0,0,1.4545455,-484.18182,-819.25384)">
    <path
       id="path859"
       opacity="1"
       fill="none"
       fill-opacity="1"
       stroke="none"
       stroke-width="3.567"
       stroke-linecap="butt"
       stroke-linejoin="miter"
       stroke-miterlimit="4"
       stroke-dasharray="none"
       stroke-dashoffset="0"
       stroke-opacity="1"
       d="m 414,534.362 h 22 v 22 h -22 z" />
    <path
       d="m 417.707,541.362 -0.707,0.707 6.125,6.125 1.875,1.875 1.875,-1.875 6.125,-6.125 -0.707,-0.707 -6.125,6.125 -1.168,1.168 -1.168,-1.168 z"
       id="path861"
       class="ColorScheme-Text"
       fill="currentColor" />
  </g>
  <g
     id="32-32-go-next"
     transform="matrix(1.4545455,0,0,1.4545455,-484.18182,-819.25384)">
    <path
       id="path867"
       opacity="1"
       fill="none"
       fill-opacity="1"
       stroke="none"
       stroke-width="3.567"
       stroke-linecap="butt"
       stroke-linejoin="miter"
       stroke-miterlimit="4"
       stroke-dasharray="none"
       stroke-dashoffset="0"
       stroke-opacity="1"
       d="m 370,534.362 h 22 v 22 h -22 z" />
    <path
       d="m 377.707,537.362 -0.707,0.707 6.125,6.125 1.168,1.168 -1.168,1.168 -6.125,6.125 0.707,0.707 6.125,-6.125 1.875,-1.875 -1.875,-1.875 z"
       id="path869"
       class="ColorScheme-Text"
       fill="currentColor" />
  </g>
  <g
     id="32-32-go-previous"
     transform="matrix(1.4545455,0,0,1.4545455,-484.18182,-819.25384)">
    <path
       id="path875"
       opacity="1"
       fill="none"
       fill-opacity="1"
       stroke="none"
       stroke-width="3.567"
       stroke-linecap="butt"
       stroke-linejoin="miter"
       stroke-miterlimit="4"
       stroke-dasharray="none"
       stroke-dashoffset="0"
       stroke-opacity="1"
       d="m 348,534.362 h 22 v 22 h -22 z" />
    <path
       d="m 362.293,537.362 -6.125,6.125 -1.875,1.875 1.875,1.875 6.125,6.125 0.707,-0.707 -6.125,-6.125 -1.168,-1.168 1.168,-1.168 6.125,-6.125 z"
       id="path877"
       class="ColorScheme-Text"
       fill="currentColor" />
  </g>
  <g
     id="32-32-go-up"
     transform="matrix(1.4545455,0,0,-1.4545455,-516.18184,767.16663)">
    <path
       id="path197"
       opacity="1"
       fill="none"
       fill-opacity="1"
       stroke="none"
       stroke-width="3.567"
       stroke-linecap="butt"
       stroke-linejoin="miter"
       stroke-miterlimit="4"
       stroke-dasharray="none"
       stroke-dashoffset="0"
       stroke-opacity="1"
       d="m 414,534.362 h 22 v 22 h -22 z" />
    <path
       d="m 417.707,541.362 -0.707,0.707 6.125,6.125 1.875,1.875 1.875,-1.875 6.125,-6.125 -0.707,-0.707 -6.125,6.125 -1.168,1.168 -1.168,-1.168 z"
       id="path199"
       class="ColorScheme-Text"
       fill="currentColor" />
  </g>
  <g
     id="go-up"
     transform="matrix(1,0,0,-1,-349,556.362)">
    <path
       id="path209"
       opacity="1"
       fill="none"
       fill-opacity="1"
       stroke="none"
       stroke-width="3.567"
       stroke-linecap="butt"
       stroke-linejoin="miter"
       stroke-miterlimit="4"
       stroke-dasharray="none"
       stroke-dashoffset="0"
       stroke-opacity="1"
       d="m 414,534.362 h 22 v 22 h -22 z" />
    <path
       d="m 417.707,541.362 -0.707,0.707 6.125,6.125 1.875,1.875 1.875,-1.875 6.125,-6.125 -0.707,-0.707 -6.125,6.125 -1.168,1.168 -1.168,-1.168 z"
       id="path211"
       class="ColorScheme-Text"
       fill="currentColor" />
  </g>
</svg>
