<?xml version="1.0" encoding="UTF-8" standalone="no"?>
<svg
   width="70"
   height="256"
   version="1.1"
   id="svg224"
   sodipodi:docname="input.svg"
   inkscape:version="1.3.2 (091e20ef0f, 2023-11-25)"
   xmlns:inkscape="http://www.inkscape.org/namespaces/inkscape"
   xmlns:sodipodi="http://sodipodi.sourceforge.net/DTD/sodipodi-0.dtd"
   xmlns="http://www.w3.org/2000/svg"
   xmlns:svg="http://www.w3.org/2000/svg">
  <sodipodi:namedview
     id="namedview226"
     pagecolor="#ffffff"
     bordercolor="#666666"
     borderopacity="1.0"
     inkscape:pageshadow="2"
     inkscape:pageopacity="0.0"
     inkscape:pagecheckerboard="0"
     showgrid="true"
     inkscape:snap-bbox="true"
     inkscape:bbox-nodes="true"
     inkscape:zoom="1.9528301"
     inkscape:cx="25.347828"
     inkscape:cy="131.0918"
     inkscape:window-width="1920"
     inkscape:window-height="1019"
     inkscape:window-x="0"
     inkscape:window-y="31"
     inkscape:window-maximized="1"
     inkscape:current-layer="svg224"
     inkscape:showpageshadow="2"
     inkscape:deskcolor="#d1d1d1">
    <inkscape:grid
       type="xygrid"
       id="grid1043"
       originx="0"
       originy="0"
       spacingy="1"
       spacingx="1"
       units="px"
       visible="true" />
  </sodipodi:namedview>
  <defs
     id="defs3">
    <style
       id="current-color-scheme"
       type="text/css">.ColorScheme-Text{color:#5c616c}</style>
  </defs>
  <g
     id="22-22-input-mouse-battery"
     transform="translate(-310 -300.36)">
    <rect
       x="326"
       y="534.36"
       width="22"
       height="22"
       ry="0"
       fill="none"
       id="rect5" />
    <path
       class="ColorScheme-Text"
       transform="translate(326 534.36)"
       d="M13.5 3C10.453 3 8 5.676 8 9v4c0 3.324 2.453 6 5.5 6s5.5-2.676 5.5-6V9c0-3.324-2.453-6-5.5-6zm0 1A4.49 4.49 0 0 1 18 8.5v5a4.49 4.49 0 0 1-4.5 4.5A4.49 4.49 0 0 1 9 13.5v-5A4.49 4.49 0 0 1 13.5 4zm0 2c-.277 0-.5.223-.5.5v2a.499.499 0 1 0 1 0v-2c0-.277-.223-.5-.5-.5z"
       fill="currentColor"
       id="path7" />
    <path
       class="ColorScheme-Text"
       d="m331 537.36-2 5h2v3l2-5h-2z"
       fill="currentColor"
       id="path9" />
  </g>
  <g
     id="input-mouse-battery"
     transform="translate(-332 -332.36)">
    <path
       class="ColorScheme-Text"
       d="m386 560.36a8 9 0 0 0-8 9v6a8 9 0 0 0 8 9 8 9 0 0 0 8-9v-6a8 9 0 0 0-8-9zm0 1a7 8 0 0 1 7 8v6a7 8 0 0 1-7 8 7 8 0 0 1-7-8v-6a7 8 0 0 1 7-8zm0 3a1 1 0 0 0-1 1v3a1 1 0 0 0 1 1 1 1 0 0 0 1-1v-3a1 1 0 0 0-1-1zm0 8-2 5h2v3l2-5h-2z"
       fill="currentColor"
       id="path34" />
    <rect
       x="370"
       y="556.36"
       width="32"
       height="32"
       ry="0"
       fill="none"
       id="rect36" />
  </g>
  <g
     id="16-16-input-mouse-battery"
     transform="translate(-303 -297.36)">
    <path
       class="ColorScheme-Text"
       transform="translate(319 457.36)"
       d="m-8 82a4 4 0 0 0-4 4v4a4 4 0 0 0 4 4 4 4 0 0 0 4-4v-4a4 4 0 0 0-4-4zm0 1a3 3 0 0 1 3 3v4a3 3 0 0 1-3 3 3 3 0 0 1-3-3v-4a3 3 0 0 1 3-3zm0 1-2 5h2v3l2-5h-2z"
       fill="currentColor"
       id="path39" />
    <path
       d="m303 537.36h16v16h-16z"
       fill="none"
       id="path41" />
  </g>
  <g
     id="22-22-input-keyboard-virtual-on"
     transform="translate(-165.31 -24.823)">
    <g
       transform="translate(22)"
       id="g68">
      <path
         d="m154 66h22v22h-22z"
         fill="none"
         id="path64" />
      <path
         class="ColorScheme-Text"
         transform="translate(-22)"
         d="m182 70c-1.108 0-2 0.892-2 2v10c0 1.108 0.892 2 2 2h8.1758a3 3 0 0 1-0.17578-1 3 3 0 0 1 0.17383-1h-8.1738c-0.554 0-1-0.446-1-1v-9c0-0.554 0.446-1 1-1h10c0.554 0 1 0.446 1 1v8a3 3 0 0 1 1 0.17383v-8.1738c0-1.108-0.892-2-2-2zm6.6562 4.9941c-0.79 0-1.5473 0.257-2.2793 0.75l0.37305 0.84961c0.312-0.21 0.61625-0.35975 0.90625-0.46875 0.298-0.116 0.57-0.15625 0.875-0.15625 0.449 0 0.79225 0.10375 1.0312 0.34375 0.24 0.232 0.4375 0.54875 0.4375 0.96875v0.30664c-0.21-0.08-0.52025-0.1435-0.78125-0.1875a4.015 4.015 0 0 0-0.78125-0.0625c-0.356 0-0.67175 0.038-0.96875 0.125-0.29 0.087-0.56425 0.215-0.78125 0.375-0.21 0.16-0.35275 0.3455-0.46875 0.5625-0.116 0.218-0.1875 0.54936-0.1875 0.81836 0 0.254 0.0623 0.50075 0.15625 0.71875 0.101 0.217 0.208 0.4025 0.375 0.5625 0.174 0.16 0.393 0.28 0.625 0.375 0.239 0.087 0.50525 0.125 0.78125 0.125a2.73 2.73 0 0 0 1.1875-0.25c0.377-0.181 0.6835-0.44825 0.9375-0.78125l0.0312 0.34375a0.743 0.743 0 0 0 0.21875 0.4375c0.11402 0.10104 0.27883 0.15917 0.48633 0.17969a3 3 0 0 1 0.63867-0.50586v-0.54883c-0.124-7e-3 -0.30352-0.03575-0.35352-0.09375a0.497 0.497 0 0 1-0.11518-0.3125v-2.1309c0-0.747-0.0962-1.3198-0.53125-1.7188-0.435-0.399-1.0295-0.625-1.8125-0.625zm-0.15625 3.0703a1.67 1.67 0 0 1 0.0664 0c0.218 0 0.60703 0.04975 0.83203 0.09375 0.232 0.044 0.39856 0.10555 0.60156 0.18555v0.75c0 0.145-0.12925 0.3075-0.28125 0.4375-0.427 0.38-0.9395 0.42975-1.4375 0.46875-0.326 0-0.73336 0.01712-0.94336-0.17188-0.20999-0.196-0.33788-0.42012-0.33788-0.70312 0-0.305 0.2945-0.569 0.5625-0.75a1.67 1.67 0 0 1 0.9375-0.31055z"
         fill="currentColor"
         id="path66" />
    </g>
    <path
       class="ColorScheme-PositiveText"
       d="m193 81a2 2 0 0 0-2 2 2 2 0 0 0 2 2 2 2 0 0 0 2-2 2 2 0 0 0-2-2z"
       fill="#11d116"
       id="path70" />
  </g>
  <g
     id="22-22-input-keyboard"
     transform="translate(-143.47 -56.9)">
    <path
       d="m154 66h22v22h-22z"
       fill="none"
       id="path73" />
    <path
       class="ColorScheme-Text"
       d="m160 70c-1.108 0-2 0.892-2 2v10c0 1.108 0.892 2 2 2h10c1.108 0 2-0.892 2-2v-10c0-1.108-0.892-2-2-2zm0 1h10c0.554 0 1 0.446 1 1v9c0 0.554-0.446 1-1 1h-10c-0.554 0-1-0.446-1-1v-9c0-0.554 0.446-1 1-1zm6.656 3.994c-0.79 0-1.548 0.257-2.28 0.75l0.374 0.85c0.312-0.21 0.616-0.36 0.906-0.469 0.298-0.116 0.571-0.156 0.876-0.156 0.449 0 0.791 0.104 1.03 0.344 0.24 0.232 0.438 0.548 0.438 0.968v0.307c-0.21-0.08-0.52-0.144-0.781-0.188a4.015 4.015 0 0 0-0.781-0.062c-0.356 0-0.672 0.038-0.969 0.125-0.29 0.087-0.564 0.215-0.781 0.375-0.21 0.16-0.353 0.345-0.469 0.562-0.116 0.218-0.188 0.55-0.188 0.819 0 0.254 0.063 0.501 0.157 0.719 0.101 0.217 0.208 0.402 0.375 0.562 0.174 0.16 0.393 0.28 0.625 0.375 0.239 0.087 0.505 0.125 0.781 0.125a2.73 2.73 0 0 0 1.188-0.25c0.377-0.181 0.683-0.448 0.937-0.781l0.031 0.344a0.743 0.743 0 0 0 0.219 0.437c0.123 0.109 0.299 0.173 0.531 0.188 0.08 0 0.187 6e-3 0.281 0 0.102-8e-3 0.197-0.01 0.313-0.032v-1.031c-0.124-7e-3 -0.304-0.036-0.354-0.094a0.497 0.497 0 0 1-0.115-0.312v-2.131c0-0.747-0.096-1.32-0.531-1.719s-1.03-0.625-1.813-0.625zm-0.09 3.07c0.218 0 0.608 0.05 0.833 0.094 0.232 0.044 0.398 0.106 0.601 0.186v0.75c0 0.145-0.129 0.307-0.281 0.437-0.427 0.38-0.94 0.43-1.438 0.469-0.326 0-0.734 0.018-0.944-0.171-0.21-0.196-0.337-0.421-0.337-0.704 0-0.305 0.295-0.569 0.563-0.75a1.67 1.67 0 0 1 1.004-0.31z"
       fill="currentColor"
       id="path75" />
  </g>
  <g
     id="22-22-input-keyboard-virtual-off"
     transform="translate(-165.31 5.3099)">
    <g
       transform="translate(22)"
       id="g82">
      <path
         d="m154 66h22v22h-22z"
         fill="none"
         id="path78" />
      <path
         class="ColorScheme-Text"
         transform="translate(-22)"
         d="m182 70c-1.108 0-2 0.892-2 2v10c0 1.108 0.892 2 2 2h8.1758a3 3 0 0 1-0.17578-1 3 3 0 0 1 0.17383-1h-8.1738c-0.554 0-1-0.446-1-1v-9c0-0.554 0.446-1 1-1h10c0.554 0 1 0.446 1 1v8a3 3 0 0 1 1 0.17383v-8.1738c0-1.108-0.892-2-2-2zm6.6562 4.9941c-0.79 0-1.5473 0.257-2.2793 0.75l0.37305 0.84961c0.312-0.21 0.61625-0.35975 0.90625-0.46875 0.298-0.116 0.57-0.15625 0.875-0.15625 0.449 0 0.79225 0.10375 1.0312 0.34375 0.24 0.232 0.4375 0.54875 0.4375 0.96875v0.30664c-0.21-0.08-0.52025-0.1435-0.78125-0.1875a4.015 4.015 0 0 0-0.78125-0.0625c-0.356 0-0.67175 0.038-0.96875 0.125-0.29 0.087-0.56425 0.215-0.78125 0.375-0.21 0.16-0.35275 0.3455-0.46875 0.5625-0.116 0.218-0.1875 0.54936-0.1875 0.81836 0 0.254 0.0623 0.50075 0.15625 0.71875 0.101 0.217 0.208 0.4025 0.375 0.5625 0.174 0.16 0.393 0.28 0.625 0.375 0.239 0.087 0.50525 0.125 0.78125 0.125a2.73 2.73 0 0 0 1.1875-0.25c0.377-0.181 0.6835-0.44825 0.9375-0.78125l0.0312 0.34375a0.743 0.743 0 0 0 0.21875 0.4375c0.11402 0.10104 0.27883 0.15917 0.48633 0.17969a3 3 0 0 1 0.63867-0.50586v-0.54883c-0.124-7e-3 -0.30352-0.03575-0.35352-0.09375a0.497 0.497 0 0 1-0.11518-0.3125v-2.1309c0-0.747-0.0962-1.3198-0.53125-1.7188-0.435-0.399-1.0295-0.625-1.8125-0.625zm-0.15625 3.0703a1.67 1.67 0 0 1 0.0664 0c0.218 0 0.60703 0.04975 0.83203 0.09375 0.232 0.044 0.39856 0.10555 0.60156 0.18555v0.75c0 0.145-0.12925 0.3075-0.28125 0.4375-0.427 0.38-0.9395 0.42975-1.4375 0.46875-0.326 0-0.73336 0.01712-0.94336-0.17188-0.20999-0.196-0.33788-0.42012-0.33788-0.70312 0-0.305 0.2945-0.569 0.5625-0.75a1.67 1.67 0 0 1 0.9375-0.31055z"
         fill="currentColor"
         id="path80" />
    </g>
    <path
       class="ColorScheme-Text"
       d="m193 81a2 2 0 0 0-2 2 2 2 0 0 0 2 2 2 2 0 0 0 2-2 2 2 0 0 0-2-2z"
       fill="currentColor"
       opacity=".35"
       id="path84" />
  </g>
  <g
     id="input-keyboard">
    <path
       id="rect1169"
       d="m 43,6.9995 c -1.108,0 -2,0.892 -2,2 v 14 c 0,1.108 0.892,2 2,2 h 22 c 1.108,0 2,-0.892 2,-2 v -14 c 0,-1.108 -0.892,-2 -2,-2 z m 0,1 h 22 c 0.554,0 1,0.446 1,1 v 14 c 0,0.554 -0.446,1 -1,1 H 43 c -0.554,0 -1,-0.446 -1,-1 v -14 c 0,-0.554 0.446,-1 1,-1 z m 1,3 v 2 h 2 v -2 z m 3,0 v 2 h 2 v -2 z m 3,0 v 2 h 2 v -2 z m 3,0 v 2 h 2 v -2 z m 3,0 v 2 h 2 v -2 z m 3,0 v 2 h 2 v -2 z m 3,0 v 2 h 2 v -2 z m -18,4 v 2 h 2 v -2 z m 3,0 v 2 h 2 v -2 z m 3,0 v 2 h 2 v -2 z m 3,0 v 2 h 2 v -2 z m 3,0 v 2 h 2 v -2 z m 3,0 v 2 h 2 v -2 z m 3,0 v 2 h 2 v -2 z m -18,4 v 2 h 2 v -2 z m 3,0 v 2 h 2 v -2 z m 3,0 v 2 h 8 v -2 z m 9,0 v 2 h 2 v -2 z m 3,0 v 2 h 2 v -2 z"
       class="ColorScheme-Text"
       fill="currentColor" />
    <rect
       x="38"
       y="-0.00050001527"
       width="32"
       height="32"
       fill="none"
       id="rect87" />
  </g>
  <g
     id="input-keyboard-virtual-on"
     transform="translate(0,-3)">
    <path
       id="path1825"
       class="ColorScheme-Text"
       d="m 43,42 c -1.108,0 -2,0.892 -2,2 v 14 c 0,1.108 0.892,2 2,2 H 62.341797 A 3.5,3.5 0 0 1 62.035156,59 H 43 c -0.554,0 -1,-0.446 -1,-1 V 44 c 0,-0.554 0.446,-1 1,-1 h 22 c 0.554,0 1,0.446 1,1 v 11.035156 a 3.5,3.5 0 0 1 1,0.302735 V 44 c 0,-1.108 -0.892,-2 -2,-2 z m 1,4 v 2 h 2 v -2 z m 3,0 v 2 h 2 v -2 z m 3,0 v 2 h 2 v -2 z m 3,0 v 2 h 2 v -2 z m 3,0 v 2 h 2 v -2 z m 3,0 v 2 h 2 v -2 z m 3,0 v 2 h 2 v -2 z m -18,4 v 2 h 2 v -2 z m 3,0 v 2 h 2 v -2 z m 3,0 v 2 h 2 v -2 z m 3,0 v 2 h 2 v -2 z m 3,0 v 2 h 2 v -2 z m 3,0 v 2 h 2 v -2 z m 3,0 v 2 h 2 v -2 z m -18,4 v 2 h 2 v -2 z m 3,0 v 2 h 2 v -2 z m 3,0 v 2 h 8 v -2 z m 9,0 v 2 h 2 v -2 z m 3,0 v 2 h 1.0625 A 3.5,3.5 0 0 1 64,55.341797 V 54 Z"
       fill="currentColor" />
    <rect
       x="38"
       y="35"
       width="32"
       height="32"
       fill="none"
       id="rect1827" />
    <path
       d="M 65.5,56 A 2.5,2.5 0 0 0 63,58.5 2.5,2.5 0 0 0 65.5,61 2.5,2.5 0 0 0 68,58.5 2.5,2.5 0 0 0 65.5,56 Z"
       fill="#11d116"
       id="path134" />
  </g>
  <g
     id="input-keyboard-virtual-off"
     transform="translate(0,29)">
    <path
       id="path2030"
       class="ColorScheme-Text"
       d="m 43,42 c -1.108,0 -2,0.892 -2,2 v 14 c 0,1.108 0.892,2 2,2 H 62.341797 A 3.5,3.5 0 0 1 62.035156,59 H 43 c -0.554,0 -1,-0.446 -1,-1 V 44 c 0,-0.554 0.446,-1 1,-1 h 22 c 0.554,0 1,0.446 1,1 v 11.035156 a 3.5,3.5 0 0 1 1,0.302735 V 44 c 0,-1.108 -0.892,-2 -2,-2 z m 1,4 v 2 h 2 v -2 z m 3,0 v 2 h 2 v -2 z m 3,0 v 2 h 2 v -2 z m 3,0 v 2 h 2 v -2 z m 3,0 v 2 h 2 v -2 z m 3,0 v 2 h 2 v -2 z m 3,0 v 2 h 2 v -2 z m -18,4 v 2 h 2 v -2 z m 3,0 v 2 h 2 v -2 z m 3,0 v 2 h 2 v -2 z m 3,0 v 2 h 2 v -2 z m 3,0 v 2 h 2 v -2 z m 3,0 v 2 h 2 v -2 z m 3,0 v 2 h 2 v -2 z m -18,4 v 2 h 2 v -2 z m 3,0 v 2 h 2 v -2 z m 3,0 v 2 h 8 v -2 z m 9,0 v 2 h 2 v -2 z m 3,0 v 2 h 1.0625 A 3.5,3.5 0 0 1 64,55.341797 V 54 Z"
       fill="currentColor" />
    <rect
       x="38"
       y="35"
       width="32"
       height="32"
       fill="none"
       id="rect2032" />
    <path
       d="M 65.5,56 A 2.5,2.5 0 0 0 63,58.5 2.5,2.5 0 0 0 65.5,61 2.5,2.5 0 0 0 68,58.5 2.5,2.5 0 0 0 65.5,56 Z"
       id="path2034"
       class="ColorScheme-Text"
       fill="currentColor"
       style="opacity:0.35" />
  </g>
  <g
     id="22-22-input-keyboard-brightness"
     transform="translate(16,9.9999854)">
    <rect
       x="0.0049972534"
       y="96.001999"
       width="22"
       height="22"
       fill="none"
       id="rect12358" />
    <g
       id="g12689"
       fill="currentColor"
       class="ColorScheme-Text">
      <path
         id="path5177"
         d="m 17,97 c -1.1046,0 -2,0.89543 -2,2 0,1.10457 0.89543,2 2,2 1.10457,0 2,-0.89543 2,-2 0,-1.10457 -0.89543,-2 -2,-2 z m 0,1 v 2 c -0.55228,0 -1,-0.44771 -1,-1 0,-0.55228 0.44772,-1 1,-1 z m -6.556641,3.00195 -2.4375,6 h 1.074219 l 0.40625,-1 h 3.039063 l 0.40625,1 h 1.074218 l -2.439453,-6 h -0.537109 l -0.02344,0.01 -0.02344,-0.01 z m 0.5625,1.25782 1.113282,2.74218 H 9.892578 Z" />
      <path
         id="path12646"
         d="m 5,97 c -1.1079952,0 -2,0.892005 -2,2 v 3 11 l 8,4 8,-4 v -11 h -1 v 10 H 4 v -10 -3 c 0,-0.553996 0.4460024,-1 1,-1 h 9 v -1 z m 0.234375,16 h 11.53125 L 11,115.88281 Z" />
      <rect
         id="rect12658"
         width="14"
         height="1"
         x="4"
         y="110" />
    </g>
  </g>
  <g
     id="22-22-input-keyboard-battery"
     transform="translate(16,9.9999854)">
    <rect
       x="0.0099999998"
       y="127.99998"
       width="22"
       height="22"
       ry="0"
       fill="none"
       id="rect12" />
    <path
       id="path5181"
       d="m 16,128 -2,5 h 2 v 3 l 2,-5 h -2 z m -5.5625,5.00195 -2.4375,6 h 1.0742188 l 0.40625,-1 h 3.0390622 l 0.40625,1 H 14 V 139 l -2.439453,-5.99805 h -0.537109 l -0.02344,0.01 -0.02344,-0.01 z m 0.5625,1.25782 1.113281,2.74218 H 9.8867188 Z"
       class="ColorScheme-Text"
       fill="currentColor" />
    <path
       id="path12786"
       d="m 5,129 c -1.1079952,0 -2,0.892 -2,2 v 3 11 l 8,4 8,-4 v -11 h -1 v 10 H 4 v -10 -3 c 0,-0.554 0.4460024,-1 1,-1 h 9 v -1 z m 0.234375,16 h 11.53125 L 11,147.88281 Z"
       class="ColorScheme-Text"
       fill="currentColor" />
    <rect
       id="rect12788"
       width="14"
       height="1"
       x="4"
       y="142"
       class="ColorScheme-Text"
       fill="currentColor" />
  </g>
  <g
     id="22-22-input-caps-on"
     transform="translate(16,9.9999854)">
    <rect
       x="0.0049988707"
       y="160.002"
       width="22"
       height="22"
       fill="none"
       id="rect39" />
    <path
       id="path5185"
       class="ColorScheme-Text"
       d="m 10.443359,165 -2.4374996,6 h 1.0742187 l 0.40625,-1 h 3.0390629 l 0.40625,1 h 1.074218 l -2.439453,-6 h -0.537109 l -0.02344,0.01 -0.02344,-0.01 z m 0.5625,1.25782 L 12.119141,169 H 9.8925781 Z"
       fill="currentColor" />
    <path
       id="path12811"
       class="ColorScheme-Text"
       d="m 5,160.99805 c -1.107994,0 -2,0.892 -2,2 v 3 11 l 8,4 8,-4 v -11 -3 c 0,-1.108 -0.892006,-2 -2,-2 H 14 8 Z m 0,1 h 3 6 3 c 0.553997,0 1,0.446 1,1 v 3 10 H 4 v -10 -3 c 0,-0.554 0.446003,-1 1,-1 z m 0.234375,15 h 11.53125 L 11,179.88086 Z"
       fill="currentColor" />
    <rect
       id="rect12813"
       width="14"
       height="1"
       x="4"
       y="173.99805"
       class="ColorScheme-Text"
       fill="currentColor" />
  </g>
  <g
     id="22-22-input-num-on"
     transform="translate(16,9.9999854)">
    <rect
       x="0.0049988707"
       y="192.002"
       width="22"
       height="22"
       fill="none"
       id="rect13381" />
    <path
       class="ColorScheme-Text"
       d="m 11,197 v 1 h -1 v 1 h 1 v 4 h -1 v 1 h 3 v -1 h -1 v -6 z"
       fill="currentColor"
       id="path13395" />
    <path
       id="path12837"
       class="ColorScheme-Text"
       d="m 5,193 c -1.107994,0 -2,0.892 -2,2 v 3 11 l 8,4 8,-4 v -11 -3 c 0,-1.108 -0.892006,-2 -2,-2 H 14 8 Z m 0,1 h 3 6 3 c 0.553997,0 1,0.446 1,1 v 3 10 H 4 v -10 -3 c 0,-0.554 0.446003,-1 1,-1 z m 0.234375,15 h 11.53125 L 11,211.88281 Z"
       fill="currentColor" />
    <rect
       id="rect12839"
       width="14"
       height="1"
       x="4"
       y="206"
       class="ColorScheme-Text"
       fill="currentColor" />
  </g>
  <g
     id="input-keyboard-brightness"
     transform="translate(16,9.9999854)">
    <path
       id="path5179"
       class="ColorScheme-Text"
       d="m 47,87 c -0.277,0 -0.5,0.223 -0.5,0.5 v 1 c 0,0.277 0.223,0.5 0.5,0.5 0.277001,0 0.5,-0.223 0.5,-0.5 v -1 C 47.5,87.223 47.277001,87 47,87 Z m -3.18164,1.318359 c -0.12781,0 -0.255575,0.04851 -0.353516,0.146485 -0.19587,0.19587 -0.19587,0.511161 0,0.707031 l 0.707031,0.707031 c 0.19587,0.19587 0.511162,0.19587 0.707031,0 0.19587,-0.19587 0.19587,-0.511161 0,-0.707031 l -0.707031,-0.707031 c -0.09793,-0.0979 -0.225706,-0.146485 -0.353515,-0.146485 z m 6.363281,0 c -0.127809,0 -0.255576,0.04851 -0.353516,0.146485 l -0.707031,0.707031 c -0.195859,0.19587 -0.195859,0.511161 0,0.707031 0.19587,0.19587 0.511172,0.19587 0.707031,0 l 0.707031,-0.707031 c 0.19586,-0.19587 0.19586,-0.511161 0,-0.707031 -0.0979,-0.0979 -0.225705,-0.146485 -0.353515,-0.146485 z M 47,90 c -1.1046,0 -2,0.895431 -2,2 0,1.10457 0.895431,2 2,2 1.104601,0 2,-0.89543 2,-2 0,-1.104569 -0.89543,-2 -2,-2 z m 0,1 v 2 c -0.552279,0 -1,-0.44772 -1,-1 0,-0.552279 0.447721,-1 1,-1 z m -4.5,0.5 c -0.277,0 -0.5,0.223 -0.5,0.5 0,0.277 0.223,0.5 0.5,0.5 h 1 c 0.277001,0 0.5,-0.223 0.5,-0.5 0,-0.277 -0.222999,-0.5 -0.5,-0.5 z m 8,0 c -0.277,0 -0.5,0.223 -0.5,0.5 0,0.277 0.223,0.5 0.5,0.5 h 1 c 0.277001,0 0.5,-0.223 0.5,-0.5 0,-0.277 -0.222999,-0.5 -0.5,-0.5 z m -5.974609,2.474609 c -0.127809,0 -0.255576,0.0486 -0.353516,0.146485 l -0.707031,0.707031 c -0.19587,0.195865 -0.19587,0.511166 0,0.707036 0.19587,0.19587 0.511161,0.19587 0.707031,0 l 0.707031,-0.707036 c 0.19587,-0.19587 0.19587,-0.511161 0,-0.707031 -0.09793,-0.0979 -0.225705,-0.146485 -0.353515,-0.146485 z m 4.949219,0 c -0.12781,0 -0.255575,0.0486 -0.353516,0.146485 -0.195859,0.19587 -0.195859,0.511161 0,0.707031 l 0.707031,0.707036 c 0.19587,0.19587 0.511162,0.19587 0.707031,0 0.19586,-0.19587 0.19586,-0.511171 0,-0.707036 l -0.707031,-0.707031 c -0.0979,-0.0979 -0.225706,-0.146485 -0.353515,-0.146485 z M 47,95 c -0.277,0 -0.5,0.223 -0.5,0.5 v 1 c 0,0.277 0.223,0.5 0.5,0.5 0.277001,0 0.5,-0.223 0.5,-0.5 v -1 C 47.5,95.223 47.277001,95 47,95 Z"
       fill="currentColor" />
    <rect
       x="22"
       y="86"
       width="32"
       height="32"
       fill="none"
       id="rect12940"
       style="stroke-width:1.45455" />
    <path
       id="rect12952"
       d="m 29,89 c -1.66199,0 -3,1.33801 -3,3 v 10 1 8.64453 l 12,5.45313 0.414062,-0.1875 L 50,111.64453 V 103 102 98 h -1 v 4 1 7 H 27 v -7 -1 -10 c 0,-1.107995 0.892005,-2 2,-2 h 12 v -1 z m -2,22 h 22 l -11,5 z"
       class="ColorScheme-Text"
       fill="currentColor" />
    <rect
       id="rect12990"
       width="22"
       height="1"
       x="27"
       y="107"
       rx="0"
       ry="0"
       fill="currentColor"
       class="ColorScheme-Text" />
    <path
       id="path13000"
       d="m 37.451172,94 -4.091797,9 h 1.099609 l 0.908204,-2 h 5.285156 l 0.916015,2 h 1.09961 L 38.548828,94 Z M 38.001953,95.205078 40.195312,100 h -4.373046 z"
       class="ColorScheme-Text"
       fill="currentColor" />
  </g>
  <g
     id="input-keyboard-battery"
     transform="translate(16,9.9999854)">
    <rect
       x="22"
       y="118"
       width="32"
       height="32"
       ry="0"
       id="rect22"
       style="fill:none" />
    <path
       id="path5183"
       class="ColorScheme-Text"
       d="m 46,119 -3,6 h 3 v 4 l 3,-6 h -3 z"
       fill="currentColor" />
    <path
       id="path13139"
       d="m 29,121 c -1.66199,0 -3,1.33801 -3,3 v 10 1 8.64453 l 12,5.45313 0.414062,-0.1875 L 50,143.64453 V 135 v -1 -4 h -1 v 4 1 7 H 27 v -7 -1 -10 c 0,-1.108 0.892005,-2 2,-2 h 12 v -1 z m -2,22 h 22 l -11,5 z"
       class="ColorScheme-Text"
       fill="currentColor" />
    <rect
       id="rect13141"
       width="22"
       height="1"
       x="27"
       y="139"
       rx="0"
       ry="0"
       fill="currentColor"
       class="ColorScheme-Text" />
    <path
       id="path13143"
       d="m 37.451172,126 -4.091797,9 h 1.099609 l 0.908204,-2 h 5.285156 l 0.916015,2 h 1.09961 l -4.119141,-9 z m 0.550781,1.20508 L 40.195312,132 h -4.373046 z"
       class="ColorScheme-Text"
       fill="currentColor" />
  </g>
  <g
     id="input-caps-on"
     transform="translate(16,9.9999854)">
    <rect
       x="22"
       y="150"
       width="32"
       height="32"
       ry="0"
       id="rect13248"
       style="fill:none" />
    <path
       id="path13252"
       class="ColorScheme-Text"
       d="m 29,153 c -1.661988,0 -3,1.33801 -3,3 v 6 4 1 8.64453 L 37.585938,180.91016 38,181.09766 50,175.64453 V 167 v -1 -4 -6 c 0,-1.66199 -1.338012,-3 -3,-3 h -6 -6 z m 0,1 h 6 6 6 c 1.107994,0 2,0.892 2,2 v 6 4 1 7 H 27 v -7 -1 -4 -6 c 0,-1.108 0.892006,-2 2,-2 z m -2,21 h 22 l -11,5 z"
       fill="currentColor" />
    <rect
       id="rect13254"
       width="22"
       height="1"
       x="27"
       y="171"
       rx="0"
       ry="0"
       fill="currentColor"
       class="ColorScheme-Text" />
    <path
       id="path13256"
       d="m 37.451172,158 -4.091797,9 h 1.099609 l 0.908204,-2 h 5.285156 l 0.916015,2 h 1.09961 l -4.119141,-9 z m 0.550781,1.20508 L 40.195312,164 h -4.373046 z"
       class="ColorScheme-Text"
       fill="currentColor" />
  </g>
  <g
     id="input-num-on"
     transform="translate(16,9.9999854)">
    <path
       class="ColorScheme-Text"
       d="m 38,190 v 2 h -2 v 1 h 2 v 6 h -2 v 1 h 5 v -1 h -2 v -9 z"
       fill="currentColor"
       id="path13401" />
    <rect
       x="22"
       y="182"
       width="32"
       height="32"
       ry="0"
       id="rect13276"
       style="fill:none" />
    <path
       id="path13278"
       class="ColorScheme-Text"
       d="m 29,185 c -1.661988,0 -3,1.33801 -3,3 v 6 4 1 8.64453 L 37.585938,212.91016 38,213.09766 50,207.64453 V 199 v -1 -4 -6 c 0,-1.66199 -1.338012,-3 -3,-3 h -6 -6 z m 0,1 h 6 6 6 c 1.107994,0 2,0.892 2,2 v 6 4 1 7 H 27 v -7 -1 -4 -6 c 0,-1.108 0.892006,-2 2,-2 z m -2,21 h 22 l -11,5 z"
       fill="currentColor" />
    <rect
       id="rect13280"
       width="22"
       height="1"
       x="27"
       y="203"
       rx="0"
       ry="0"
       fill="currentColor"
       class="ColorScheme-Text" />
  </g>
</svg>
