<?xml version="1.0" encoding="UTF-8" standalone="no"?>
<svg
   width="32"
   height="32"
   version="1.1"
   id="svg20"
   sodipodi:docname="kate.svg"
   inkscape:version="1.1.2 (0a00cf5339, 2022-02-04, custom)"
   xmlns:inkscape="http://www.inkscape.org/namespaces/inkscape"
   xmlns:sodipodi="http://sodipodi.sourceforge.net/DTD/sodipodi-0.dtd"
   xmlns="http://www.w3.org/2000/svg"
   xmlns:svg="http://www.w3.org/2000/svg">
  <sodipodi:namedview
     id="namedview22"
     pagecolor="#ffffff"
     bordercolor="#666666"
     borderopacity="1.0"
     inkscape:pageshadow="2"
     inkscape:pageopacity="0.0"
     inkscape:pagecheckerboard="0"
     showgrid="true"
     inkscape:snap-smooth-nodes="true"
     inkscape:zoom="8.1759222"
     inkscape:cx="27.397521"
     inkscape:cy="9.6625186"
     inkscape:window-width="1920"
     inkscape:window-height="1008"
     inkscape:window-x="0"
     inkscape:window-y="0"
     inkscape:window-maximized="1"
     inkscape:current-layer="svg20">
    <inkscape:grid
       type="xygrid"
       id="grid1032" />
  </sodipodi:namedview>
  <defs
     id="defs3">
    <style
       id="current-color-scheme"
       type="text/css">.ColorScheme-Text{color:#5c616c}</style>
  </defs>
  <g
     id="22-22-kate">
    <path
       d="m49 5h22v22h-22z"
       fill="none"
       id="path10" />
    <path
       d="m54 9v14h12v-14zm1 1h10v12h-10zm2 5v1h6v-1zm0 2v1h6v-1zm0 2v1h4v-1z"
       class="ColorScheme-Text"
       fill="currentColor"
       id="path12" />
  </g>
  <g
     id="16-16-kate">
    <path
       d="m81 8h16v16h-16z"
       fill="none"
       id="path15" />
    <path
       d="m83 9v14h12v-14zm1 1h10v12h-10zm2 5v1h6v-1zm0 2v1h6v-1zm0 2v1h4v-1z"
       class="ColorScheme-Text"
       fill="currentColor"
       id="path17" />
  </g>
  <g
     id="kate">
    <path
       d="M 0,0 H 32 V 32 H 0 Z"
       fill="none"
       id="path7" />
    <path
       id="rect1034"
       class="ColorScheme-Text"
       d="M 8 4 C 6.892 4 6 4.892 6 6 L 6 26 C 6 27.108 6.892 28 8 28 L 24 28 C 25.108 28 26 27.108 26 26 L 26 6 C 26 4.892 25.108 4 24 4 L 8 4 z M 8 5 L 24 5 C 24.554 5 25 5.446 25 6 L 25 26 C 25 26.554 24.554 27 24 27 L 8 27 C 7.446 27 7 26.554 7 26 L 7 6 C 7 5.446 7.446 5 8 5 z M 10 12 L 10 13 L 22 13 L 22 12 L 10 12 z M 10 15 L 10 16 L 22 16 L 22 15 L 10 15 z M 10 18 L 10 19 L 22 19 L 22 18 L 10 18 z M 10 21 L 10 22 L 18 22 L 18 21 L 10 21 z "
       fill="currentColor" />
  </g>
</svg>
