<?xml version="1.0" encoding="UTF-8" standalone="no"?>
<svg
   width="54"
   height="32"
   version="1.1"
   id="svg57"
   sodipodi:docname="keyboard.svg"
   inkscape:version="1.1.1 (3bf5ae0d25, 2021-09-20, custom)"
   xmlns:inkscape="http://www.inkscape.org/namespaces/inkscape"
   xmlns:sodipodi="http://sodipodi.sourceforge.net/DTD/sodipodi-0.dtd"
   xmlns:xlink="http://www.w3.org/1999/xlink"
   xmlns="http://www.w3.org/2000/svg"
   xmlns:svg="http://www.w3.org/2000/svg">
  <sodipodi:namedview
     id="namedview59"
     pagecolor="#ffffff"
     bordercolor="#666666"
     borderopacity="1.0"
     inkscape:pageshadow="2"
     inkscape:pageopacity="0.0"
     inkscape:pagecheckerboard="0"
     showgrid="true"
     inkscape:snap-bbox="true"
     inkscape:bbox-nodes="true"
     inkscape:snap-nodes="false"
     inkscape:zoom="11.046875"
     inkscape:cx="54.042433"
     inkscape:cy="39.241867"
     inkscape:window-width="1920"
     inkscape:window-height="1019"
     inkscape:window-x="0"
     inkscape:window-y="0"
     inkscape:window-maximized="1"
     inkscape:current-layer="svg57">
    <inkscape:grid
       type="xygrid"
       id="grid876" />
  </sodipodi:namedview>
  <defs
     id="defs3">
    <style
       id="current-color-scheme"
       type="text/css">.ColorScheme-Text{color:#5c616c}</style>
  </defs>
  <g
     id="22-22-keyboard-layout"
     transform="translate(-154,-56)">
    <path
       d="m 154,66 h 22 v 22 h -22 z"
       fill="none"
       id="path5" />
    <path
       class="ColorScheme-Text"
       d="m 160,70 c -1.108,0 -2,0.892 -2,2 v 10 c 0,1.108 0.892,2 2,2 h 10 c 1.108,0 2,-0.892 2,-2 V 72 c 0,-1.108 -0.892,-2 -2,-2 z m 0,1 h 10 c 0.554,0 1,0.446 1,1 v 9 c 0,0.554 -0.446,1 -1,1 h -10 c -0.554,0 -1,-0.446 -1,-1 v -9 c 0,-0.554 0.446,-1 1,-1 z m 6.656,3.994 c -0.79,0 -1.548,0.257 -2.28,0.75 l 0.374,0.85 c 0.312,-0.21 0.616,-0.36 0.906,-0.469 0.298,-0.116 0.571,-0.156 0.876,-0.156 0.449,0 0.791,0.104 1.03,0.344 0.24,0.232 0.438,0.548 0.438,0.968 v 0.307 c -0.21,-0.08 -0.52,-0.144 -0.781,-0.188 a 4.015,4.015 0 0 0 -0.781,-0.062 c -0.356,0 -0.672,0.038 -0.969,0.125 -0.29,0.087 -0.564,0.215 -0.781,0.375 -0.21,0.16 -0.353,0.345 -0.469,0.562 -0.116,0.218 -0.188,0.55 -0.188,0.819 0,0.254 0.063,0.501 0.157,0.719 0.101,0.217 0.208,0.402 0.375,0.562 0.174,0.16 0.393,0.28 0.625,0.375 0.239,0.087 0.505,0.125 0.781,0.125 a 2.73,2.73 0 0 0 1.188,-0.25 c 0.377,-0.181 0.683,-0.448 0.937,-0.781 l 0.031,0.344 a 0.743,0.743 0 0 0 0.219,0.437 c 0.123,0.109 0.299,0.173 0.531,0.188 0.08,0 0.187,0.006 0.281,0 0.102,-0.008 0.197,-0.01 0.313,-0.032 v -1.031 c -0.124,-0.007 -0.304,-0.036 -0.354,-0.094 A 0.497,0.497 0 0 1 169,79.469 v -2.131 c 0,-0.747 -0.096,-1.32 -0.531,-1.719 -0.435,-0.399 -1.03,-0.625 -1.813,-0.625 z m -0.09,3.07 c 0.218,0 0.608,0.05 0.833,0.094 0.232,0.044 0.398,0.106 0.601,0.186 v 0.75 c 0,0.145 -0.129,0.307 -0.281,0.437 -0.427,0.38 -0.94,0.43 -1.438,0.469 -0.326,0 -0.734,0.018 -0.944,-0.171 -0.21,-0.196 -0.337,-0.421 -0.337,-0.704 0,-0.305 0.295,-0.569 0.563,-0.75 a 1.67,1.67 0 0 1 1.004,-0.31 z"
       fill="currentColor"
       id="path7" />
  </g>
  <use
     id="22-22-ibus-keyboard"
     transform="translate(0,32.692)"
     width="100%"
     height="100%"
     xlink:href="#22-22-keyboard-layout"
     x="0"
     y="0" />
  <g
     id="keyboard-layout"
     transform="translate(-16,5.0001527e-4)">
    <path
       id="rect1169"
       d="m 43,6.9995 c -1.108,0 -2,0.892 -2,2 v 14 c 0,1.108 0.892,2 2,2 h 22 c 1.108,0 2,-0.892 2,-2 v -14 c 0,-1.108 -0.892,-2 -2,-2 z m 0,1 h 22 c 0.554,0 1,0.446 1,1 v 14 c 0,0.554 -0.446,1 -1,1 H 43 c -0.554,0 -1,-0.446 -1,-1 v -14 c 0,-0.554 0.446,-1 1,-1 z m 1,3 v 2 h 2 v -2 z m 3,0 v 2 h 2 v -2 z m 3,0 v 2 h 2 v -2 z m 3,0 v 2 h 2 v -2 z m 3,0 v 2 h 2 v -2 z m 3,0 v 2 h 2 v -2 z m 3,0 v 2 h 2 v -2 z m -18,4 v 2 h 2 v -2 z m 3,0 v 2 h 2 v -2 z m 3,0 v 2 h 2 v -2 z m 3,0 v 2 h 2 v -2 z m 3,0 v 2 h 2 v -2 z m 3,0 v 2 h 2 v -2 z m 3,0 v 2 h 2 v -2 z m -18,4 v 2 h 2 v -2 z m 3,0 v 2 h 2 v -2 z m 3,0 v 2 h 8 v -2 z m 9,0 v 2 h 2 v -2 z m 3,0 v 2 h 2 v -2 z"
       class="ColorScheme-Text"
       fill="currentColor" />
    <rect
       x="38"
       y="-0.00050001527"
       width="32"
       height="32"
       fill="none"
       id="rect87" />
  </g>
  <use
     x="0"
     y="0"
     xlink:href="#keyboard-layout"
     id="ibus-keyboard"
     transform="translate(0,32)"
     width="100%"
     height="100%" />
</svg>
