<?xml version="1.0" encoding="UTF-8" standalone="no"?>
<svg
   id="svg4153"
   width="22"
   height="22"
   version="1.1"
   sodipodi:docname="kmail.svg"
   inkscape:version="1.2.1 (9c6d41e410, 2022-07-14, custom)"
   xmlns:inkscape="http://www.inkscape.org/namespaces/inkscape"
   xmlns:sodipodi="http://sodipodi.sourceforge.net/DTD/sodipodi-0.dtd"
   xmlns="http://www.w3.org/2000/svg"
   xmlns:svg="http://www.w3.org/2000/svg">
  <sodipodi:namedview
     id="namedview5114"
     pagecolor="#ffffff"
     bordercolor="#000000"
     borderopacity="0.25"
     inkscape:showpageshadow="2"
     inkscape:pageopacity="0.0"
     inkscape:pagecheckerboard="0"
     inkscape:deskcolor="#d1d1d1"
     showgrid="false"
     inkscape:zoom="10.727273"
     inkscape:cx="7.3644068"
     inkscape:cy="11.04661"
     inkscape:window-width="1368"
     inkscape:window-height="704"
     inkscape:window-x="0"
     inkscape:window-y="28"
     inkscape:window-maximized="1"
     inkscape:current-layer="svg4153" />
  <defs
     id="defs4157">
    <style
       id="current-color-scheme"
       type="text/css">.ColorScheme-Text{color:#5c616c}</style>
  </defs>
  <g
     id="kmail">
    <path
       id="rect4193-9"
       d="M 0,0 H 22 V 22 H 0 Z"
       fill="none" />
    <path
       class="ColorScheme-Text"
       d="m 4.9999999,5.0000002 c -1.108,0 -2,0.8920001 -2,2 V 15 c 0,1.108 0.892,2 2,2 H 17 c 1.108,0 2,-0.892 2,-2 V 7.0000002 c 0,-1.1079999 -0.892,-2 -2,-2 z m 0,1 H 17 c 0.48888,0 0.87448,0.35406 0.96289,0.8164101 l -6.4238,5.1151997 c -0.30559,0.24335 -0.77254,0.24335 -1.0781,0 L 4.0371899,6.8164102 c 0.08841,-0.46235 0.47401,-0.81641 0.96289,-0.81641 z m -1,2.0488001 3.7051,2.9511997 -3.7051,2.9512 V 8.0489003 Z M 18,8.0488002 V 13.9511 L 14.2949,10.9999 18,8.0487003 Z M 8.4979999,11.6328 9.6679001,12.56444 c 0.7308699,0.58201 1.9331999,0.58201 2.6640999,0 l 1.1699,-0.93164 4.4609,3.5508 c -0.08841,0.46235 -0.47401,0.81641 -0.96289,0.81641 H 4.9999099 c -0.48888,0 -0.87448,-0.35406 -0.96289,-0.81641 l 4.4609,-3.5508 z"
       fill="currentColor"
       id="path3375" />
  </g>
</svg>
