<svg width="22" height="22" version="1.1" viewBox="0 0 22 22" xmlns="http://www.w3.org/2000/svg">
 <defs>
  <style id="current-color-scheme" type="text/css">.ColorScheme-Text {
        color:#5c616c;
      }
      .ColorScheme-Background {
        color:#eff0f1;
      }
      .ColorScheme-Highlight {
        color:#3daee9;
      }
      .ColorScheme-ViewText {
        color:#5c616c;
      }
      .ColorScheme-ViewBackground {
        color:#fcfcfc;
      }
      .ColorScheme-ViewHover {
        color:#93cee9;
      }
      .ColorScheme-ViewFocus{
        color:#3daee9;
      }
      .ColorScheme-ButtonText {
        color:#5c616c;
      }
      .ColorScheme-ButtonBackground {
        color:#eff0f1;
      }
      .ColorScheme-ButtonHover {
        color:#93cee9;
      }
      .ColorScheme-ButtonFocus{
        color:#3daee9;
      }</style>
 </defs>
 <g transform="translate(-326 -534.36)">
  <g id="konv_message">
   <path class="ColorScheme-ButtonFocus" d="m341 538.36-12 3.418v1.043 4.5391 0.58203l1 0.28516v2.1328 0.30078l6 1.6992v-1-1.4238l5 1.4238v-1.043-10.914-1.043zm4.0293 0.42773-0.77148 0.63086c1.1373 1.7722 1.7419 3.8337 1.7422 5.9395-4e-3 2.1039-0.61142 4.1625-1.75 5.9316l0.7832 0.64258c1.2816-1.9532 1.9651-4.2381 1.9668-6.5742-4e-3 -2.3352-0.68851-4.6186-1.9707-6.5703zm-5.0293 0.9004v10.344l-10-2.8476v-4.6484l10-2.8476zm2.6894 1.0156-0.78125 0.63867c0.71179 1.2188 1.0885 2.6042 1.0918 4.0156-2e-3 1.4119-0.37841 2.798-1.0898 4.0176l0.78125 0.64062c0.85323-1.4042 1.3058-3.0151 1.3086-4.6582-4e-3 -1.6419-0.45732-3.2515-1.3106-4.6543zm-14.689 1.3594-1 0.28515v0.0117 1 3 1 0.0117l1 0.28516v-0.29688-0.74609-3.5078-0.74609-0.29687zm3 6.4492 4 1.1387v1.4258l-4-1.1328v-1.4316z" fill="currentColor"/>
   <rect x="326" y="534.36" width="22" height="22" fill="none"/>
  </g>
 </g>
</svg>
