<svg xmlns="http://www.w3.org/2000/svg" width="22" height="22" id="svg3869" version="1.1"><defs id="defs3871"><style type="text/css" id="current-color-scheme"></style></defs><g id="layer1" transform="translate(-326 -534.362)"><g id="konv_message" fill-opacity="1" stroke="none"><path id="rect3353" d="M341 538.362l-12 3.418v6.164l1 .285v2.434l6 1.7v-2.425l5 1.424V538.362zm4.03.428l-.772.63a11 11 0 0 1 1.742 5.94 11 11 0 0 1-1.75 5.932l.783.642A12 12 0 0 0 347 545.36a12.003 12.003 0 0 0-1.97-6.57zm-5.03.9v10.344l-10-2.848v-4.648l10-2.848zm2.69 1.016l-.782.639A8 8 0 0 1 343 545.36a7.996 7.996 0 0 1-1.09 4.018l.781.64A9 9 0 0 0 344 545.36a8.999 8.999 0 0 0-1.31-4.654zm-14.69 1.36l-1 .284v5.024l1 .285v-5.594zm3 6.449l4 1.138v1.426l-4-1.133v-1.431z" opacity="1" fill="currentColor" stroke-width=".1" stroke-linecap="round" stroke-linejoin="miter" stroke-miterlimit="4" stroke-dasharray="none" stroke-opacity=".299" color="#3daee9"/><path id="rect4170" opacity="1" fill="none" d="M326 534.362h22v22h-22z"/></g></g></svg>