<?xml version="1.0" encoding="UTF-8" standalone="no"?>
<svg
   id="svg"
   version="1.1"
   viewBox="0 0 22 22"
   sodipodi:docname="list.svg"
   inkscape:version="1.3 (0e150ed6c4, 2023-07-21)"
   xmlns:inkscape="http://www.inkscape.org/namespaces/inkscape"
   xmlns:sodipodi="http://sodipodi.sourceforge.net/DTD/sodipodi-0.dtd"
   xmlns="http://www.w3.org/2000/svg"
   xmlns:svg="http://www.w3.org/2000/svg">
  <sodipodi:namedview
     id="namedview16"
     pagecolor="#ffffff"
     bordercolor="#666666"
     borderopacity="1.0"
     inkscape:pageshadow="2"
     inkscape:pageopacity="0.0"
     inkscape:pagecheckerboard="0"
     showgrid="true"
     inkscape:zoom="2.0851615"
     inkscape:cx="2.3978958"
     inkscape:cy="-64.982976"
     inkscape:window-width="1920"
     inkscape:window-height="1016"
     inkscape:window-x="0"
     inkscape:window-y="28"
     inkscape:window-maximized="1"
     inkscape:current-layer="svg"
     inkscape:showpageshadow="2"
     inkscape:deskcolor="#d1d1d1">
    <inkscape:grid
       id="grid5"
       units="px"
       originx="0"
       originy="0"
       spacingx="1"
       spacingy="1"
       empcolor="#0099e5"
       empopacity="0.30196078"
       color="#0099e5"
       opacity="0.14901961"
       empspacing="5"
       dotted="false"
       gridanglex="30"
       gridanglez="30"
       visible="true" />
  </sodipodi:namedview>
  <defs
     id="defs3">
    <style
       id="current-color-scheme"
       type="text/css">&#10;    .ColorScheme-Text { color:#5c616c }&#10;    .ColorScheme-Highlight { color:#3498db }&#10;    .ColorScheme-NegativeText { color:#e74c3c }&#10;  </style>
  </defs>
  <g
     id="22-22-list-add">
    <path
       id="rect2991"
       d="m 10,3 v 7 H 3 v 2.1 h 7 V 19 h 2 v -6.9 h 7 V 10 H 12 V 3 Z"
       class="ColorScheme-Text"
       fill="currentColor" />
    <path
       id="rect3763"
       d="M 0,0 H 22 V 22 H 0 Z"
       fill="none" />
  </g>
  <g
     id="22-22-list-remove"
     transform="translate(22)">
    <path
       id="rect3783"
       d="M 0,0 H 22 V 22 H 0 Z"
       fill="none" />
    <path
       id="rect887"
       d="m 3,10 h 16 v 2 H 3 Z"
       class="ColorScheme-Text"
       fill="currentColor" />
  </g>
  <g
     id="16-16-list-add"
     transform="matrix(0.72727273,0,0,0.72727273,-16,6)">
    <path
       id="rect2991-3"
       d="M 9.625,2.75 V 9.625 H 2.75 v 2.75 h 6.875 v 6.875 h 2.75 V 12.375 H 19.25 V 9.625 H 12.375 V 2.75 Z"
       class="ColorScheme-Text"
       fill="currentColor" />
    <path
       id="rect3763-5"
       d="M 0,0 H 22 V 22 H 0 Z"
       fill="none" />
  </g>
  <g
     id="16-16-list-remove"
     transform="matrix(0.72727273,0,0,0.72727273,44,6)">
    <path
       id="rect3783-9"
       d="M 0,0 H 22 V 22 H 0 Z"
       fill="none" />
    <path
       id="rect889"
       d="m 2.75,9.625 h 16.5 v 2.75 H 2.75 Z"
       class="ColorScheme-Text"
       fill="currentColor" />
  </g>
  <g
     id="list-add">
    <rect
       style="fill:none;stroke-width:0.741621;stroke-linecap:round;stroke-linejoin:round"
       id="rect4"
       width="32"
       height="32"
       x="-5"
       y="-35" />
    <path
       id="path1"
       d="m 10,-28 v 8 H 2 v 2.1 h 8 v 7.9 h 2 v -7.9 h 8 V -20 h -8 v -8 z"
       class="ColorScheme-Text"
       fill="currentColor" />
  </g>
  <g
     id="list-remove">
    <rect
       style="fill:none;stroke-width:0.741621;stroke-linecap:round;stroke-linejoin:round"
       id="rect5"
       width="32"
       height="32"
       x="27"
       y="-35" />
    <path
       id="path4"
       d="m 34,-20 h 18 v 2 H 34 Z"
       class="ColorScheme-Text"
       fill="currentColor" />
  </g>
</svg>
