<?xml version="1.0" encoding="UTF-8" standalone="no"?>
<svg
   id="svg4153"
   width="22"
   height="22"
   version="1.1"
   sodipodi:docname="mail.svg"
   inkscape:version="1.2.1 (9c6d41e410, 2022-07-14, custom)"
   xmlns:inkscape="http://www.inkscape.org/namespaces/inkscape"
   xmlns:sodipodi="http://sodipodi.sourceforge.net/DTD/sodipodi-0.dtd"
   xmlns="http://www.w3.org/2000/svg"
   xmlns:svg="http://www.w3.org/2000/svg">
  <sodipodi:namedview
     id="namedview5295"
     pagecolor="#ffffff"
     bordercolor="#000000"
     borderopacity="0.25"
     inkscape:showpageshadow="2"
     inkscape:pageopacity="0.0"
     inkscape:pagecheckerboard="0"
     inkscape:deskcolor="#d1d1d1"
     showgrid="true"
     inkscape:zoom="7.5853273"
     inkscape:cx="29.003363"
     inkscape:cy="15.490432"
     inkscape:window-width="1368"
     inkscape:window-height="704"
     inkscape:window-x="0"
     inkscape:window-y="28"
     inkscape:window-maximized="1"
     inkscape:current-layer="svg4153">
    <inkscape:grid
       type="xygrid"
       id="grid5602" />
  </sodipodi:namedview>
  <defs
     id="defs4157">
    <style
       id="current-color-scheme"
       type="text/css">.ColorScheme-Text{color:#5c616c}</style>
  </defs>
  <g
     id="mail-unread">
    <path
       id="rect4193-9"
       d="M 0,0 H 22 V 22 H 0 Z"
       fill="none" />
    <path
       class="ColorScheme-Text"
       d="m 4.9999999,5.0000002 c -1.108,0 -2,0.8920001 -2,2 V 15 c 0,1.108 0.892,2 2,2 H 17 c 1.108,0 2,-0.892 2,-2 V 7.0000002 c 0,-1.1079999 -0.892,-2 -2,-2 z m 0,1 H 17 c 0.48888,0 0.87448,0.35406 0.96289,0.8164101 l -6.4238,5.1151997 c -0.30559,0.24335 -0.77254,0.24335 -1.0781,0 L 4.0371899,6.8164102 c 0.08841,-0.46235 0.47401,-0.81641 0.96289,-0.81641 z m -1,2.0488001 3.7051,2.9511997 -3.7051,2.9512 V 8.0489003 Z M 18,8.0488002 V 13.9511 L 14.2949,10.9999 18,8.0487003 Z M 8.4979999,11.6328 9.6679001,12.56444 c 0.7308699,0.58201 1.9331999,0.58201 2.6640999,0 l 1.1699,-0.93164 4.4609,3.5508 c -0.08841,0.46235 -0.47401,0.81641 -0.96289,0.81641 H 4.9999099 c -0.48888,0 -0.87448,-0.35406 -0.96289,-0.81641 l 4.4609,-3.5508 z"
       fill="currentColor"
       id="path3375" />
  </g>
  <g
     id="mail-unread-new">
    <path
       id="rect4178"
       d="M 27,0 H 49 V 22 H 27 Z"
       fill="none" />
    <path
       id="path5437"
       class="ColorScheme-Text"
       d="m 32,5 c -1.107999,0 -2,0.892001 -2,2 v 8 c 0,1.107999 0.892001,2 2,2 h 6.763672 A 4.5,4.5 0 0 1 38.267578,16 H 32 c -0.488879,0 -0.87448,-0.354057 -0.96289,-0.816406 l 4.460937,-3.550782 1.169922,0.931641 c 0.43444,0.34596 1.035869,0.485252 1.605469,0.419922 a 4.5,4.5 0 0 1 1.158203,-1.763672 l -0.892578,0.710938 c -0.30559,0.243349 -0.772595,0.243349 -1.078125,0 L 31.03711,6.816406 C 31.12552,6.354057 31.511121,6 32,6 h 12 c 0.48888,0 0.874481,0.354057 0.962891,0.816406 L 40.06836,10.712891 A 4.5,4.5 0 0 1 42.5,10 a 4.5,4.5 0 0 1 0.04883,0.002 l 2.451172,-1.953125 v 2.708984 a 4.5,4.5 0 0 1 1,0.914063 V 7.000047 c 0,-1.107999 -0.892001,-2 -2,-2 z M 31,8.048828 34.705078,11 31,13.951172 Z M 42.5,11 A 3.5,3.5 0 0 0 39,14.5 3.5,3.5 0 0 0 42.5,18 3.5,3.5 0 0 0 46,14.5 3.5,3.5 0 0 0 42.5,11 Z M 42,12 h 1 v 2 h 2 v 1 h -2 v 2 h -1 v -2 h -2 v -1 h 2 z"
       fill="currentColor" />
  </g>
</svg>
