<?xml version="1.0" encoding="UTF-8" standalone="no"?>
<svg
   version="1.1"
   viewBox="0 0 54 32"
   id="svg15"
   sodipodi:docname="nepomuk.svg"
   inkscape:version="1.2.2 (b0a8486541, 2022-12-01)"
   xmlns:inkscape="http://www.inkscape.org/namespaces/inkscape"
   xmlns:sodipodi="http://sodipodi.sourceforge.net/DTD/sodipodi-0.dtd"
   xmlns="http://www.w3.org/2000/svg"
   xmlns:svg="http://www.w3.org/2000/svg">
  <sodipodi:namedview
     id="namedview17"
     pagecolor="#ffffff"
     bordercolor="#000000"
     borderopacity="0.25"
     inkscape:showpageshadow="2"
     inkscape:pageopacity="0.0"
     inkscape:pagecheckerboard="0"
     inkscape:deskcolor="#d1d1d1"
     showgrid="true"
     inkscape:zoom="5.2149125"
     inkscape:cx="-5.4650965"
     inkscape:cy="24.0656"
     inkscape:window-width="1368"
     inkscape:window-height="696"
     inkscape:window-x="0"
     inkscape:window-y="0"
     inkscape:window-maximized="1"
     inkscape:current-layer="svg15">
    <inkscape:grid
       type="xygrid"
       id="grid1738" />
  </sodipodi:namedview>
  <defs
     id="defs3">
    <style
       id="current-color-scheme"
       type="text/css">.ColorScheme-Text{color:#5c616c}</style>
  </defs>
  <g
     id="nepomuk">
    <path
       class="ColorScheme-Text"
       d="M35 4a9 9 0 0 0-9 9 9 9 0 0 0 9 9 9 9 0 0 0 5.994-2.299L49.293 28l.707-.707-8.3-8.3A9 9 0 0 0 44 13a9 9 0 0 0-9-9zm0 1a8 8 0 0 1 8 8 8 8 0 0 1-8 8 8 8 0 0 1-8-8 8 8 0 0 1 8-8z"
       fill="currentColor"
       id="path5" />
    <path
       d="M22 0v32h32V0H22z"
       fill="none"
       id="path7" />
  </g>
  <g
     id="22-22-nepomuk">
    <path
       class="ColorScheme-Text"
       d="m9 13c-3.324 0-6 2.676-6 6s2.676 6 6 6c1.4812 0 2.8306-0.53468 3.875-1.418l5.418 5.418 0.70703-0.70703-5.418-5.418c0.88329-1.0444 1.418-2.3938 1.418-3.875 0-3.324-2.676-6-6-6zm0 1c2.77 0 5 2.23 5 5s-2.23 5-5 5c-2.77 0-5-2.23-5-5s2.23-5 5-5z"
       fill="currentColor"
       id="path10" />
    <path
       d="m0 10v22h22v-22z"
       fill="none"
       id="path12" />
  </g>
  <g
     id="16-16-nepomuk">
    <rect
       id="rect1135"
       width="16"
       height="16"
       x="-28"
       y="15"
       rx="0"
       ry="0"
       style="fill:none;stroke-width:0.730264" />
    <path
       id="path908"
       d="m -21.357422,17.013672 a 5,5 0 0 0 -3.177734,1.451172 5,5 0 0 0 0,7.070312 5,5 0 0 0 6.691406,0.328125 l 4.267578,4.267578 0.707031,-0.707031 -4.259765,-4.259765 a 5,5 0 0 0 -0.335938,-6.699219 5,5 0 0 0 -3.892578,-1.451172 z M -21,18 a 4,4 0 0 1 2.828125,1.171875 4,4 0 0 1 0,5.65625 4,4 0 0 1 -5.65625,0 4,4 0 0 1 0,-5.65625 A 4,4 0 0 1 -21,18 Z"
       class="ColorScheme-Text"
       fill="currentColor" />
  </g>
</svg>
