<?xml version="1.0" encoding="UTF-8"?>
<svg width="22" height="22" version="1.1" xmlns="http://www.w3.org/2000/svg">
 <style id="current-color-scheme" type="text/css">.ColorScheme-Text{color:#5c616c;}.ColorScheme-Highlight{color:#5294e2;}</style>
 <g id="pamac-tray-no-update">
  <rect x="-.97726" y="30.051" width="32" height="32" rx="0" ry="0" fill="none" stop-color="#000000" style="paint-order:stroke fill markers"/>
  <path class="ColorScheme-Text" d="m15.004 34c-0.14641-3.52e-4 -0.29348 0.023739-0.4375 0.074219a1.0001 1.0001 0 0 0-0.001953 0l-8.5234 2.9961h0.16797a1.0001 1.0001 0 0 0-0.33008 0.054688c-0.48969 0.17144-0.87891 0.71872-0.87891 1.2383v8.9355c0 2.4695 0.90127 4.8223 2.4844 6.6465 9.613e-4 0.0011 9.975e-4 0.002807 0.0019531 0.003907a1.0001 1.0001 0 0 0 0 0.001953c0.79584 0.91808 1.801 1.6295 2.877 2.2109a1.0001 1.0001 0 0 0 0.47461 0.12109h-0.25l3.9453 2.1289a1.0001 1.0001 0 0 0 0.95117 0l4.1582-2.248a1.0001 1.0001 0 0 0 0.001953 0c1.0752-0.58148 2.0787-1.2951 2.873-2.2109l0.001953-0.001953a1.0001 1.0001 0 0 0 0.001953 0c1.584-1.8254 2.4785-4.1809 2.4785-6.6484v-8.9395c0-0.51864-0.38854-1.0638-0.87695-1.2363l-8.6875-3.0527c-0.13948-0.04907-0.28523-0.073869-0.43164-0.074219zm-0.001953 1c0.035 1.22e-4 0.06905 0.006098 0.10156 0.017578l8.6875 3.0527c0.12974 0.04543 0.20898 0.15494 0.20898 0.29297v8.9395c0 2.2257-0.80719 4.3497-2.2344 5.9941h-0.001953c-0.68811 0.79397-1.5936 1.4464-2.5957 1.9883l-4.1602 2.248-4.168-2.25h-0.001953c-1.0031-0.54217-1.9091-1.192-2.5977-1.9863v-0.001953c-1.4285-1.6445-2.2402-3.7683-2.2402-5.9961v-8.9355c0-0.13803 0.07924-0.24754 0.20898-0.29297h0.0019531l8.6855-3.0527c0.03403-0.01193 0.07047-0.017698 0.10547-0.017578zm-0.001953 6c-0.015338 0-0.033542 5.43e-4 -0.048828 0.001953h-0.001953c-0.028082 0.002835-0.055541 0.010324-0.082031 0.017578-0.002587 7.13e-4 -0.007189 0.001198-0.009766 0.001953-0.014859 0.004474-0.030444 0.009734-0.044922 0.015625-0.007945 0.0032-0.015704 0.006177-0.023438 0.009766-0.002185 0.001027-0.003685 0.002845-0.005859 0.003906-0.004466 0.002165-0.01121 0.003553-0.015625 0.00586-0.014028 0.007393-0.029538 0.016568-0.042969 0.02539l-0.001953 0.001953-0.001953 0.001954c-0.003472 0.002341-0.006357 0.005386-0.009765 0.007812-0.008464 0.006035-0.01918 0.012906-0.027344 0.019531-0.012862 0.010525-0.02537 0.021464-0.03711 0.033203l-3.5352 3.5352c-0.19587 0.19587-0.19587 0.51116 0 0.70703 0.19587 0.19587 0.51116 0.19587 0.70703 0l2.6816-2.6816v7.793c0 0.277 0.223 0.5 0.5 0.5s0.5-0.223 0.5-0.5v-7.793l2.6836 2.6816c0.19587 0.19587 0.51116 0.19587 0.70703 0 0.19587-0.19587 0.19587-0.51116 0-0.70703l-3.5371-3.5352c-0.024484-0.024483-0.050374-0.04609-0.078125-0.064453-0.023031-0.015239-0.047573-0.028039-0.072266-0.039062-0.002754-0.001221-0.005042-0.002738-0.007813-0.003907-0.001881-7.93e-4 -0.003965-0.001182-0.005859-0.001953h-0.001953c-0.015043-0.006121-0.029471-0.011034-0.044922-0.015625-0.015464-0.004569-0.030816-0.008637-0.046875-0.011718-0.015104-0.002937-0.029654-0.006285-0.044922-0.007813h-0.001953c-0.015918-0.00153-0.032852-0.001953-0.048828-0.001953z" fill="currentColor"/>
 </g>
 <g id="22-22-pamac-tray-no-update">
  <rect width="22" height="22" opacity="0"/>
  <path class="ColorScheme-Text" d="m11 2.3789a1.0001 1.0001 0 0 0-0.33203 0.056641l-6 2.1094a1.0001 1.0001 0 0 0-0.66797 0.94336v6.1719c0 1.7291 0.62891 3.3791 1.7383 4.6562 0.56059 0.6467 1.264 1.1428 2.0156 1.5488a1.0001 1.0001 0 0 0 0 0.001954l2.7773 1.498a1.0001 1.0001 0 0 0 0.95117-0.001953l2.7695-1.498c0.75046-0.40585 1.4518-0.90272 2.0117-1.5488 1.1077-1.277 1.7363-2.9254 1.7363-4.6523v-6.1758a1.0001 1.0001 0 0 0-0.66797-0.94336l-6-2.1094a1.0001 1.0001 0 0 0-0.33203-0.056641zm0 1 6 2.1094v6.1758c0 1.4849-0.54032 2.9012-1.4922 3.998-0.45237 0.52196-1.0557 0.95825-1.7324 1.3242l-2.7695 1.498-2.7773-1.498c-0.67823-0.36634-1.2816-0.80185-1.7344-1.3242v-0.001953c-0.95279-1.0969-1.4941-2.5137-1.4941-4v-6.1719l6-2.1094zm0 4.1211c-0.03267 0-0.064813 0.0038356-0.095703 0.0097656-0.03197 0.00613-0.062337 0.015467-0.091797 0.027344-0.01009 0.00407-0.019547 0.0089799-0.029297 0.013672-5e-3 0.0024301-0.010685 0.0032594-0.015625 0.0058594-0.0021 0.00109-0.003759 0.0027863-0.005859 0.0039063-0.0124 0.00676-0.02519 0.013597-0.03711 0.021484-0.0015 9.843e-4 -0.002406 0.0029063-0.003906 0.0039063-0.0026 0.00177-0.005212 0.0040394-0.007812 0.0058594-0.01 0.00702-0.019867 0.013764-0.029297 0.021484h-0.001953c-0.01232 0.01018-0.023617 0.021664-0.035157 0.033203-0.0113 0.011297-0.023033 0.022819-0.033203 0.035156l-2.7949 2.793c-0.19587 0.19587-0.19587 0.51116 0 0.70703 0.19587 0.19587 0.51116 0.19587 0.70703 0l1.9746-1.9746v4.793c0 0.277 0.223 0.5 0.5 0.5s0.5-0.223 0.5-0.5v-4.793l1.9746 1.9746c0.19587 0.19587 0.51116 0.19587 0.70703 0 0.19587-0.19587 0.19587-0.51116 0-0.70703l-2.7949-2.793c-0.01017-0.012338-0.021913-0.023859-0.033203-0.035156-0.01154-0.011539-0.022837-0.023024-0.035157-0.033203h-0.001953c-0.0094-0.0077199-0.019307-0.01446-0.029297-0.021484-0.02222-0.015636-0.045602-0.029118-0.070312-0.041016-0.0097-0.00469-0.019207-0.0095998-0.029297-0.013672-0.02946-0.011877-0.059827-0.02121-0.091797-0.027344-0.01452-0.00282-0.030252-0.0062925-0.044922-0.0078125-0.0013-1.306e-4 -0.002606 1.209e-4 -0.003906 0-0.015872-0.0015327-0.030899-0.0019531-0.046875-0.0019531z" fill="currentColor"/>
 </g>
 <g id="22-22-pamac-tray-update">
  <rect x="38" width="22" height="22" opacity="0"/>
  <circle class="ColorScheme-Highlight" cx="53" cy="17" r="2" fill="currentColor"/>
  <path class="ColorScheme-Text" d="m49 2.3789a1.0001 1.0001 0 0 0-0.33203 0.056641l-6 2.1094a1.0001 1.0001 0 0 0-0.66797 0.94336v6.1719c0 1.7291 0.62891 3.3791 1.7383 4.6562 0.56059 0.6467 1.264 1.1428 2.0156 1.5488a1.0001 1.0001 0 0 0 0 0.001954l2.7773 1.498a1.0001 1.0001 0 0 0 0.95117-0.001953l1.1016-0.59766a3 3 0 0 1-0.45117-0.89062l-1.127 0.60938-2.7773-1.498c-0.67823-0.36634-1.2816-0.80185-1.7344-1.3242v-0.001953c-0.95279-1.0969-1.4941-2.5137-1.4941-4v-6.1719l6-2.1094 6 2.1094v6.1758c0 0.94006-0.21857 1.8505-0.61914 2.6719a3 3 0 0 1 0.81055 0.61523c0.52281-1.0009 0.80859-2.1262 0.80859-3.2871v-6.1758a1.0001 1.0001 0 0 0-0.66797-0.94336l-6-2.1094a1.0001 1.0001 0 0 0-0.33203-0.056641zm0 5.1211c-0.03267 0-0.064813 0.0038356-0.095703 0.0097656-0.03197 0.00613-0.062337 0.015467-0.091797 0.027344-0.01009 0.00407-0.019547 0.0089799-0.029297 0.013672-5e-3 0.0024301-0.010675 0.0032594-0.015625 0.0058594-0.0021 0.00109-0.003759 0.0027863-0.005859 0.0039063-0.0124 0.00676-0.02519 0.013598-0.03711 0.021484-0.0015 9.843e-4 -0.002406 0.0029063-0.003906 0.0039063-0.0026 0.00177-0.005212 0.0040394-0.007812 0.0058594-0.01 0.00702-0.019867 0.013764-0.029297 0.021484h-0.001953c-0.01232 0.01018-0.023617 0.021664-0.035157 0.033203-0.0113 0.011297-0.023033 0.022819-0.033203 0.035156l-2.7949 2.793c-0.19587 0.19587-0.19587 0.51116 0 0.70703 0.19587 0.19587 0.51116 0.19587 0.70703 0l1.9746-1.9746v4.793c0 0.277 0.223 0.5 0.5 0.5s0.5-0.223 0.5-0.5v-4.793l1.9746 1.9746c0.19587 0.19587 0.51116 0.19587 0.70703 0 0.19587-0.19587 0.19587-0.51116 0-0.70703l-2.7949-2.793c-0.01017-0.012338-0.021913-0.023859-0.033203-0.035156-0.01154-0.011539-0.022837-0.023024-0.035157-0.033203h-0.001953c-0.0094-0.0077199-0.019307-0.01446-0.029297-0.021484-0.02222-0.015636-0.045602-0.029118-0.070312-0.041016-0.0097-0.00469-0.019207-0.0095998-0.029297-0.013672-0.02946-0.011877-0.059827-0.02121-0.091797-0.027344-0.01452-0.00282-0.030252-0.0062925-0.044922-0.0078125-0.0013-1.306e-4 -0.002606 1.209e-4 -0.003906 0-0.015826-0.0015352-0.030899-0.0019531-0.046875-0.0019531z" fill="currentColor"/>
 </g>
 <g id="pamac-tray-update">
  <rect x="39" y="30.051" width="32" height="32" rx="0" ry="0" fill="none" stop-color="#000000" style="paint-order:stroke fill markers"/>
  <circle class="ColorScheme-Highlight" cx="61.5" cy="55.5" r="2.5" fill="currentColor"/>
  <path class="ColorScheme-Text" d="m53.98 34c-0.14641-3.52e-4 -0.29348 0.023739-0.4375 0.074219a1.0001 1.0001 0 0 0-0.001953 0l-8.5234 2.9961h0.16797a1.0001 1.0001 0 0 0-0.33008 0.054688c-0.48969 0.17144-0.87891 0.71872-0.87891 1.2383v8.9355c0 2.4695 0.90127 4.8223 2.4844 6.6465 9.6e-4 0.0011 9.5e-4 0.002807 0.001953 0.003907a1.0001 1.0001 0 0 0 0 0.001953c0.79584 0.91808 1.801 1.6295 2.877 2.2109a1.0001 1.0001 0 0 0 0.47461 0.12109h-0.25l3.9453 2.1289a1.0001 1.0001 0 0 0 0.95117 0l3.668-1.9844a3.5 3.5 0 0 1-0.12891-0.92773 3.5 3.5 0 0 1 0.009766-0.14258l-4.0254 2.1758-4.168-2.25h-0.001953c-1.003-0.54217-1.9091-1.192-2.5977-1.9863v-0.001953c-1.4285-1.6445-2.2402-3.7683-2.2402-5.9961v-8.9355c0-0.13803 0.079241-0.24754 0.20898-0.29297h0.001953l8.6855-3.0527c0.03403-0.01193 0.07047-0.017698 0.10547-0.017578 0.035 1.22e-4 0.069049 0.006098 0.10156 0.017578l8.6875 3.0527c0.12979 0.04543 0.20898 0.15494 0.20898 0.29297v8.9395c0 1.6789-0.46055 3.3002-1.2988 4.7012a3.5 3.5 0 0 1 1.0312 0.21289c0.82047-1.4839 1.2676-3.1709 1.2676-4.9141v-8.9395c0-0.51864-0.38854-1.0638-0.87695-1.2363l-8.6875-3.0527c-0.13953-0.04907-0.28523-0.073869-0.43164-0.074219zm-0.003907 7c-0.015339 0-0.033538 4.96e-4 -0.048828 0.001953h-0.001953c-0.02808 0.0028-0.055541 0.010318-0.082031 0.017578-0.0026 7.13e-4 -0.007166 0.001153-0.009766 0.001953-0.01486 0.0045-0.030442 0.009695-0.044922 0.015625-0.007899 0.0032-0.015697 0.006166-0.023437 0.009766-0.0022 1e-3 -0.003659 0.002806-0.005859 0.003906-0.0045 0.0022-0.011205 0.00356-0.015625 0.00586-0.01403 0.0074-0.029539 0.01657-0.042969 0.02539l-0.001953 0.001953-0.001953 0.001954c-0.0035 0.002299-0.006366 0.005412-0.009766 0.007812-0.0085 6e-3 -0.019184 0.012911-0.027344 0.019531-0.01286 0.01053-0.025369 0.021463-0.037109 0.033203l-3.5352 3.5352c-0.19587 0.19587-0.19587 0.51116 0 0.70703 0.19587 0.19587 0.51116 0.19587 0.70703 0l2.6816-2.6816v7.793c0 0.277 0.223 0.5 0.5 0.5 0.277 0 0.5-0.223 0.5-0.5v-7.793l2.6836 2.6816c0.19587 0.19587 0.51116 0.19587 0.70703 0 0.19587-0.19587 0.19587-0.51116 0-0.70703l-3.5371-3.5352c-0.02448-0.02448-0.050365-0.046093-0.078125-0.064453-0.02303-0.01524-0.047566-0.028042-0.072265-0.039062-0.0028-0.0012-0.005013-0.002707-0.007813-0.003907-0.0019-7.92e-4 -0.003959-0.001153-0.005859-0.001953h-0.001954c-0.015039-0.0061-0.029471-0.011025-0.044921-0.015625-0.01546-0.0046-0.030825-0.008598-0.046875-0.011718-0.0151-0.0029-0.029652-0.006313-0.044922-0.007813h-0.001953c-0.015796-0.001501-0.032853-0.001953-0.048829-0.001953z" fill="currentColor"/>
 </g>
</svg>
