<svg id="svg" version="1.1" viewBox="0 0 22 22" xmlns="http://www.w3.org/2000/svg">
 <defs>
  <style id="current-color-scheme" type="text/css">.ColorScheme-Text{color:#5c616c}</style>
 </defs>
 <g id="22-22-printer">
  <path d="m0 0h22v22h-22z" fill-opacity="0"/>
  <path class="ColorScheme-Text" d="m5.9986 4v6h-1c-1 0-1 1-1 1v5h2v2h10v-2h2v-5s0.108-1-1-1h-1v-6zm1 1h8v5h-8zm-1 7h1v1h-1zm1 4h8v1h-8z" fill="currentColor"/>
 </g>
 <g id="printer">
  <path d="m-32-10h32v32h-32z" fill="none"/>
  <path class="ColorScheme-Text" d="m-23-6v7h-3c-1.108 0-2 0.892-2 2v10h5v5h14v-5h5v-10c0-1.108-0.892-2-2-2h-3v-7zm1 1h12v6h-12zm-2 9h3v2h-3zm2 9h12v4h-12z" fill="currentColor"/>
 </g>
</svg>
