<svg version="1.1" viewBox="0 0 54 32" xmlns="http://www.w3.org/2000/svg">
 <defs>
  <style id="current-color-scheme" type="text/css">
    .ColorScheme-Text { color:#5c616c }
    .ColorScheme-Highlight { color:#3498db }
    .ColorScheme-NegativeText { color:#e74c3c }</style>
 </defs>
 <g id="redshift-status-off">
  <rect x="60" width="32" height="32" fill="none"/>
  <path class="ColorScheme-Text" d="m76 4c-4.4448 0-8 3.8515-8 8.498 0 3.2778 1.5169 5.0641 2.791 6.3418s2.209 2.0083 2.209 4.1602v1h6v-1c0-2.152 0.93491-2.8825 2.209-4.1602 1.2741-1.2777 2.791-3.064 2.791-6.3418 0-4.6466-3.5552-8.498-8-8.498zm0 1c3.8659 0 7 3.3559 7 7.498 0 5.9999-5 5.5278-5 10.502h-4c0-4.9739-5-4.502-5-10.502 0-4.1422 3.1341-7.498 7-7.498zm-3 20v1h6v-1zm1 2v1h4v-1z" fill="currentColor" opacity=".35"/>
 </g>
 <g id="redshift-status-on">
  <rect x="25" width="32" height="32" fill="none"/>
  <path class="ColorScheme-Text" d="m41 4c-4.4448 0-8 3.8515-8 8.498 0 3.2778 1.5169 5.0641 2.791 6.3418s2.209 2.0083 2.209 4.1602v1h6v-1c0-2.152 0.93491-2.8825 2.209-4.1602 1.2741-1.2777 2.791-3.064 2.791-6.3418 0-4.6466-3.5552-8.498-8-8.498zm0 1c3.8659 0 7 3.3559 7 7.498 0 5.9999-5 5.5278-5 10.502h-4c0-4.9739-5-4.502-5-10.502 0-4.1422 3.1341-7.498 7-7.498zm-3 20v1h6v-1zm1 2v1h4v-1z" fill="currentColor"/>
 </g>
 <g id="22-22-redshift-status-on">
  <rect y="10" width="22" height="22" fill="none"/>
  <path class="ColorScheme-Text" d="m11 13c-2.7721 0-5 2.346-5 5.166 0 1.9667 1.0454 3.1439 1.8203 3.8633 0.77493 0.71939 1.1797 0.95091 1.1797 1.9707v1h4v-1c0-1.0198 0.40476-1.2513 1.1797-1.9707 0.77493-0.71939 1.8203-1.8966 1.8203-3.8633 0-2.82-2.2279-5.166-5-5.166zm0 1c2.2091 0 4 1.8648 4 4.166 0 3.3333-3 3.0706-3 5.834h-2c0-2.7633-3-2.5007-3-5.834 0-2.3012 1.7909-4.166 4-4.166zm-2 12v1h4v-1zm1 2v1h2v-1z" fill="currentColor"/>
 </g>
 <g id="22-22-redshift-status-off">
  <rect x="-27" y="10" width="22" height="22" fill="none"/>
  <path class="ColorScheme-Text" d="m-16 13c-2.7721 0-5 2.346-5 5.166 0 1.9667 1.0454 3.1439 1.8203 3.8633 0.77493 0.71939 1.1797 0.95091 1.1797 1.9707v1h4v-1c0-1.0198 0.40476-1.2513 1.1797-1.9707 0.77493-0.71939 1.8203-1.8966 1.8203-3.8633 0-2.82-2.2279-5.166-5-5.166zm0 1c2.2091 0 4 1.8648 4 4.166 0 3.3333-3 3.0706-3 5.834h-2c0-2.7633-3-2.5007-3-5.834 0-2.3012 1.7909-4.166 4-4.166zm-2 12v1h4v-1zm1 2v1h2v-1z" fill="currentColor" opacity=".35"/>
 </g>
 <g id="16-16-redshift-status-on">
  <rect x="-56" y="10" width="16" height="16" fill="none"/>
  <path class="ColorScheme-Text" d="m-48 10c-2.7721 0-5 2.346-5 5.166 0 1.9667 1.0454 3.1439 1.8203 3.8633 0.77493 0.71939 1.1797 0.95091 1.1797 1.9707v1h4v-1c0-1.0198 0.40476-1.2513 1.1797-1.9707 0.77493-0.71939 1.8203-1.8966 1.8203-3.8633 0-2.82-2.2279-5.166-5-5.166zm0 1c2.2091 0 4 1.8648 4 4.166 0 3.3333-3 3.0706-3 5.834h-2c0-2.7633-3-2.5007-3-5.834 0-2.3012 1.7909-4.166 4-4.166zm-2 12v1h4v-1zm1 2v1h2v-1z" fill="currentColor"/>
 </g>
 <g id="16-16-redshift-status-off">
  <rect x="-83" y="10" width="16" height="16" fill="none"/>
  <path class="ColorScheme-Text" d="m-75 10c-2.7721 0-5 2.346-5 5.166 0 1.9667 1.0454 3.1439 1.8203 3.8633 0.77493 0.71939 1.1797 0.95091 1.1797 1.9707v1h4v-1c0-1.0198 0.40476-1.2513 1.1797-1.9707 0.77493-0.71939 1.8203-1.8966 1.8203-3.8633 0-2.82-2.2279-5.166-5-5.166zm0 1c2.2091 0 4 1.8648 4 4.166 0 3.3333-3 3.0706-3 5.834h-2c0-2.7633-3-2.5007-3-5.834 0-2.3012 1.7909-4.166 4-4.166zm-2 12v1h4v-1zm1 2v1h2v-1z" fill="currentColor" opacity=".35"/>
 </g>
</svg>
