<svg version="1.1" viewBox="0 0 54 32" xmlns="http://www.w3.org/2000/svg">
 <defs>
  <style id="current-color-scheme" type="text/css">.ColorScheme-Text { color:#5c616c }
    .ColorScheme-Highlight { color:#3498db }
    .ColorScheme-NegativeText { color:#e74c3c }</style>
 </defs>
 <g id="22-22-start-here-kde">
  <rect y="10" width="22" height="22" fill="none"/>
  <path class="ColorScheme-Text" d="m17.455 25h-7.9999l4.4444-7.111z" fill="currentColor" opacity=".5"/>
  <path class="ColorScheme-Text" d="m14.454 25h-9.9999l4.5455-9.9999z" fill="currentColor"/>
  <path class="ColorScheme-Text" d="m10.99 12a9 9 0 0 0-8.9902 9 9 9 0 0 0 9 9 9 9 0 0 0 9-9 9 9 0 0 0-9-9 9 9 0 0 0-0.009766 0zm0.009766 1a8 8 0 0 1 8 8 8 8 0 0 1-8 8 8 8 0 0 1-8-8 8 8 0 0 1 8-8z" fill="currentColor"/>
 </g>
 <g id="16-16-start-here-kde" transform="translate(4,4)">
  <rect x="-25" y="10" width="16" height="16" fill="none"/>
  <path class="ColorScheme-Text" d="m-12.461 21h-5.5385l3.077-4.9231z" fill="currentColor" opacity=".5"/>
  <path class="ColorScheme-Text" d="m-14.539 21h-6.9231l3.1469-6.9231z" fill="currentColor"/>
  <path class="ColorScheme-Text" d="m-17.094 11a7 7 0 0 0-6.9062 7 7 7 0 0 0 7 7 7 7 0 0 0 7-7 7 7 0 0 0-7-7 7 7 0 0 0-0.09375 0zm0.09375 1a6 6 0 0 1 6 6 6 6 0 0 1-6 6 6 6 0 0 1-6-6 6 6 0 0 1 6-6z" fill="currentColor"/>
 </g>
 <g id="start-here-kde">
  <rect x="22" width="32" height="32" fill="none"/>
  <g class="ColorScheme-Text" transform="translate(-.5 -1)" fill="currentColor">
   <path class="ColorScheme-Text" d="m46 21h-10l4.6667-8.6667z" opacity=".5"/>
   <path class="ColorScheme-Text" d="m42.51 21h-11.51l5.4164-10.832z"/>
  </g>
  <path class="ColorScheme-Text" d="m38 5a11 11 0 0 0-11 11 11 11 0 0 0 11 11 11 11 0 0 0 11-11 11 11 0 0 0-11-11zm0 1a10 10 0 0 1 10 10 10 10 0 0 1-10 10 10 10 0 0 1-10-10 10 10 0 0 1 10-10z" fill="currentColor"/>
 </g>
</svg>
