<?xml version="1.0" encoding="UTF-8" standalone="no"?>
<svg
   version="1.1"
   viewBox="0 0 54 128"
   id="svg194"
   sodipodi:docname="system.svg"
   inkscape:version="1.2.2 (b0a8486541, 2022-12-01)"
   xmlns:inkscape="http://www.inkscape.org/namespaces/inkscape"
   xmlns:sodipodi="http://sodipodi.sourceforge.net/DTD/sodipodi-0.dtd"
   xmlns="http://www.w3.org/2000/svg"
   xmlns:svg="http://www.w3.org/2000/svg">
  <defs
     id="defs198" />
  <sodipodi:namedview
     id="namedview196"
     pagecolor="#ffffff"
     bordercolor="#666666"
     borderopacity="1.0"
     inkscape:showpageshadow="2"
     inkscape:pageopacity="0.0"
     inkscape:pagecheckerboard="0"
     inkscape:deskcolor="#d1d1d1"
     showgrid="false"
     inkscape:zoom="83.4386"
     inkscape:cx="42.372475"
     inkscape:cy="-61.734018"
     inkscape:window-width="3840"
     inkscape:window-height="2036"
     inkscape:window-x="0"
     inkscape:window-y="64"
     inkscape:window-maximized="1"
     inkscape:current-layer="svg194" />
  <style
     id="current-color-scheme"
     type="text/css">.ColorScheme-Text {
            color:#5c616c;
        }</style>
  <g
     id="22-22-system-log-out">
    <path
       class="ColorScheme-Text"
       d="m11 13c-4.432 0-8 3.568-8 8s3.568 8 8 8 8-3.568 8-8-3.568-8-8-8zm0 1c3.878 0 7 3.122 7 7s-3.122 7-7 7-7-3.122-7-7 3.122-7 7-7zm1.293 3-4 4 4 4 0.70703-0.70703-3.293-3.293 3.293-3.293z"
       fill="currentColor"
       id="path3" />
    <path
       d="m0 10v22h22v-22z"
       fill="none"
       id="path5" />
  </g>
  <g
     id="22-22-system-lock-screen"
     transform="translate(54 96)">
    <path
       class="ColorScheme-Text"
       d="m11 13c-2.216 0-4 1.784-4 4v4h-2v8h12v-8h-2v-4c0-2.216-1.784-4-4-4zm0 1c1.662 0 3 1.561 3 3.5v3.5h-6v-3.5c0-1.939 1.338-3.5 3-3.5zm-5 8h10v6h-10z"
       fill="currentColor"
       id="path8" />
    <path
       d="m0 10v22h22v-22z"
       fill="none"
       id="path10" />
  </g>
  <g
     id="22-22-system-reboot"
     transform="matrix(0,-1,-1,0,86,96)">
    <path
       class="ColorScheme-Text"
       d="m11 13c-1.4417 0-2.803 0.36915-3.9688 1.0312l0.71875 0.6875 0.0625 0.0625 2.75 2.7812 0.71875-0.71875-2.5-2.4688c0.69833-0.2346 1.4391-0.375 2.2188-0.375 3.878 0 7 3.122 7 7 0 1.1625-0.28387 2.2559-0.78125 3.2188l0.75 0.75c0.66205-1.1658 1.0312-2.5271 1.0312-3.9688 0-4.432-3.568-8-8-8zm-6.9688 4.0312c-0.66205 1.1658-1.0312 2.5271-1.0312 3.9688 0 4.432 3.568 8 8 8 1.4417 0 2.803-0.36915 3.9688-1.0312l-3.5312-3.5312-0.6875 0.71875 2.4688 2.4688c-0.69833 0.2346-1.4391 0.375-2.2188 0.375-3.878 0-7-3.122-7-7 0-1.1625 0.28388-2.2559 0.78125-3.2188z"
       fill="currentColor"
       id="path13" />
    <path
       d="m0 10v22h22v-22z"
       fill="none"
       id="path15" />
  </g>
  <g
     id="22-22-system-save-session"
     transform="translate(112 32)">
    <path
       class="ColorScheme-Text"
       d="m3 13.004v16h16v-12.699h-7e-3l7e-3 -0.015-3.293-3.293-8e-3 0.015v-0.015h-12.699zm1 1.0018h3v5.0001h8v-5.0001h0.29298l2.707 2.707v11.293h-2v-7h-10v7h-2zm4 0h3.9004v4h-3.9004zm-1 8.0001h8v6h-8z"
       fill="currentColor"
       id="path18" />
    <path
       d="m0 10v22h22v-22z"
       fill="none"
       id="path20" />
  </g>
  <g
     id="system-save-session"
     transform="translate(112 32)">
    <path
       class="ColorScheme-Text"
       d="m26 4v24h24v-18l-6-6h-12zm1 1h5v8h11v-8h0.58594l5.4141 5.4141v16.586h-4v-8h-14v8h-4zm6 0h6v7h-6zm-1 15h12v7h-12z"
       fill="currentColor"
       id="path23" />
    <path
       d="m22 0v32h32v-32z"
       fill="none"
       id="path25" />
  </g>
  <g
     id="22-22-system-shutdown"
     transform="translate(0 32)">
    <path
       class="ColorScheme-Text"
       d="m10 13v7h2v-7zm-1 0.26564c-3.4555 0.88458-6 3.9954-6 7.7343 0 4.432 3.568 8 8 8s8-3.568 8-8c0-3.739-2.5444-6.8498-6-7.7343v1.0371c2.895 0.85718 5 3.5169 5 6.6972 0 3.878-3.122 7-7 7s-7-3.122-7-7c0-3.1804 2.105-5.8401 5-6.6972z"
       fill="currentColor"
       id="path28" />
    <path
       d="m0 10v22h22v-22z"
       fill="none"
       id="path30" />
  </g>
  <g
     id="22-22-system-suspend-hibernate"
     transform="translate(0 64)">
    <path
       d="m0 10v22h22v-22z"
       fill="none"
       id="path33" />
    <g
       class="ColorScheme-Text"
       fill="currentColor"
       id="g41">
      <path
         transform="translate(0 -64)"
         d="m6.7891 77.707-0.86719 0.5 1.6465 2.8496-2.248-0.60156-0.25977 0.9668 3.2148 0.86133 1.5703 2.7168h-3.1387l-2.3535-2.3535-0.70703 0.70703 1.6465 1.6465h-3.293v1h3.293l-1.6465 1.6465 0.70703 0.70703 2.3535-2.3535h3.1328l-1.5664 2.7129-3.2148 0.86133 0.25781 0.9668 2.25-0.60352-1.6465 2.8516 0.86523 0.5 1.6465-2.8516 0.60352 2.25 0.96484-0.25977-0.86133-3.2168 1.8555-3.2109h0.005859l1.8574 3.2188-0.86133 3.2148 0.9668 0.25781 0.60156-2.248 1.6465 2.8516 0.86719-0.5-1.6465-2.8516 2.248 0.60156 0.25976-0.96484-3.2148-0.86133-1.5703-2.7188h3.1387l2.3535 2.3535 0.70703-0.70703-1.6465-1.6465h3.293v-1h-3.293l1.6465-1.6465-0.050782-0.058594h-1.3027l-1.707 1.7051h-4.293v-0.001953l-0.003906-0.001953-1.8535-3.2129 0.86133-3.2148-0.9668-0.25976-0.60156 2.25z"
         id="path35" />
      <path
         d="m16 13v1h2.293l-2.293 2.293v0.70703h4v-1h-2.293l2.293-2.293v-0.70703h-0.70703z"
         id="path37" />
      <path
         d="m11 15v1h2.293l-2.293 2.293v0.70703h4v-1h-2.293l2.293-2.293v-0.70703h-0.70703z"
         id="path39" />
    </g>
  </g>
  <g
     id="22-22-system-suspend"
     transform="translate(0 96)">
    <path
       d="m0 10v22h22v-22z"
       fill="none"
       id="path44" />
    <g
       class="ColorScheme-Text"
       fill="currentColor"
       id="g52">
      <path
         transform="translate(0 -96)"
         d="m7.0469 110.05a7.995 8 0 0 0-4.0469 6.9512 7.995 8 0 0 0 7.9941 8 7.995 8 0 0 0 6.9375-4.043 7.995 8 0 0 0 0.009765-0.00586l-0.73828-0.73828a6.9956 7 0 0 1-0.003906 0.00586 6.9956 7 0 0 1-3.207 0.78125 6.9956 7 0 0 1-6.9941-7 6.9956 7 0 0 1 0.78516-3.2129zm-0.74414 1.7715a7.995 8 0 0 0-0.30469 2.1797 7.995 8 0 0 0 7.9941 8 7.995 8 0 0 0 2.1875-0.3125 6.9956 7 0 0 1-5.1855 2.3125 6.9956 7 0 0 1-6.9941-7 6.9956 7 0 0 1 2.3027-5.1797z"
         id="path46" />
      <path
         d="m10 16v1h2.293l-2.293 2.293v0.70703h4v-1h-2.293l2.293-2.293v-0.70703h-0.70703z"
         id="path48" />
      <path
         d="m15 13v1h2.293l-2.293 2.293v0.70703h4v-1h-2.293l2.293-2.293v-0.70703h-0.70703z"
         id="path50" />
    </g>
  </g>
  <g
     id="22-22-system-switch-user"
     transform="translate(54)">
    <path
       class="ColorScheme-Text"
       d="m11.398 12.388c-1.9895 0-3.2206 1.2635-3.3977 2.799v1.018l-2.151-1.5202-0.84897 0.66304 3.3959 2.6521 3.3959-2.6521-0.84897-0.66304-1.9428 1.5202v-1.018c0-1.0356 1.0646-1.7986 2.3975-1.799 1.3329 3.63e-4 2.621 0.76358 2.6025 1.799v0.813h1v-0.81333c0-1.5457-1.6128-2.7987-3.6023-2.7987zm2.6023 4.612c-1.1046 0-2 0.89543-2 2 0 1.1046 0.89543 2 2 2 1.1046 0 2-0.89543 2-2 0-1.1046-0.89543-2-2-2zm-6 2a2 2 0 0 0-2 2 2 2 0 0 0 2 2 2 2 0 0 0 2-2 2 2 0 0 0-2-2zm6.0156 3c-1.5188 0-2.7642 1.1631-2.9785 2.6719 0.58287 0.66214 0.96289 1.3281 0.96289 2.3281h4.4297c0.39322-0.54062 0.60674-1.1986 0.60742-1.875 1e-6 -1.7259-1.3522-3.125-3.0215-3.125zm-0.04883 1c1.1026 0 1.9961 0.83947 1.9961 1.875-4.5e-4 0.40586-0.14066 0.80063-0.40039 1.125h-2.8203c-0.085645-0.53851-0.35719-1.0199-0.74219-1.3984 0.14153-0.90529 0.9636-1.6016 1.9668-1.6016zm-5.9668 1a3 3.125 0 0 0-3 3.125 3 3.125 0 0 0 0.60547 1.875h4.793a3 3.125 0 0 0 0.60156-1.875 3 3.125 0 0 0-3-3.125zm0 1a2 2.25 0 0 1 2 2.25 2 2.25 0 0 1-0.11719 0.75h-3.7656a2 2.25 0 0 1-0.11719-0.75 2 2.25 0 0 1 2-2.25z"
       fill="currentColor"
       id="path55" />
    <path
       d="m0 10v22h22v-22z"
       fill="none"
       id="path57" />
  </g>
  <g
     id="22-22-system-users"
     transform="translate(54 32)">
    <path
       class="ColorScheme-Text"
       d="m14 13c-1.662 0-3 1.338-3 3s1.338 3 3 3 3-1.338 3-3-1.338-3-3-3zm-6 3c-1.662 0-3 1.338-3 3s1.338 3 3 3 3-1.338 3-3-1.338-3-3-3zm6 4c-0.64635 0-1.256 0.13409-1.8184 0.36133l0.45508 0.91406c0.42782-0.1605 0.87776-0.27539 1.3633-0.27539 2.216 0 4 1.784 4 4h-3.5l0.5 1h4v-1c0-2.77-2.23-5-5-5zm-6 3c-2.77 0-5 2.23-5 5v1h10v-1c0-2.77-2.23-5-5-5zm0 1c2.216 0 4 1.784 4 4h-8c0-2.216 1.784-4 4-4z"
       fill="currentColor"
       id="path60" />
    <path
       d="m0 10v22h22v-22z"
       fill="none"
       id="path62" />
  </g>
  <g
     id="system-users"
     transform="translate(54 32)">
    <path
       class="ColorScheme-Text"
       d="m42.5 4a4.5 4.5 0 0 0-4.5 4.5 4.5 4.5 0 0 0 4.5 4.5 4.5 4.5 0 0 0 4.5-4.5 4.5 4.5 0 0 0-4.5-4.5zm0 1a3.5 3.5 0 0 1 3.5 3.5 3.5 3.5 0 0 1-3.5 3.5 3.5 3.5 0 0 1-3.5-3.5 3.5 3.5 0 0 1 3.5-3.5zm-9 4c-2.4853 0-4.5 2.0147-4.5 4.5s2.0147 4.5 4.5 4.5 4.5-2.0147 4.5-4.5-2.0147-4.5-4.5-4.5zm0 1a3.5 3.5 0 0 1 3.5 3.5 3.5 3.5 0 0 1-3.5 3.5 3.5 3.5 0 0 1-3.5-3.5 3.5 3.5 0 0 1 3.5-3.5zm9 4c-0.88285 3e-3 -1.7583 0.17228-2.5859 0.5-0.06618 0.42368-0.17413 0.83977-0.32226 1.2422 0.90271-0.48731 1.8984-0.74142 2.9082-0.74219 3.5899 0 6.5 3.134 6.5 7h-8.3418c0.17032 0.32329 0.3255 0.65711 0.46484 1h8.877v-1c0-4.4183-3.3579-8-7.5-8zm-9 5c-4.1421 0-7.5 3.5817-7.5 8v1h15v-1c0-4.4183-3.3579-8-7.5-8zm0 1c3.5899 0 6.5 3.134 6.5 7h-13c0-3.866 2.9101-7 6.5-7z"
       fill="currentColor"
       id="path65" />
    <path
       d="m22 0v32h32v-32z"
       fill="none"
       id="path67" />
  </g>
  <g
     id="22-22-system-search"
     transform="translate(0 -32)">
    <path
       class="ColorScheme-Text"
       d="m9 13c-3.324 0-6 2.676-6 6s2.676 6 6 6c1.4812 0 2.8306-0.53468 3.875-1.418l5.418 5.418 0.70703-0.70703-5.418-5.418c0.88329-1.0444 1.418-2.3938 1.418-3.875 0-3.324-2.676-6-6-6zm0 1c2.77 0 5 2.23 5 5s-2.23 5-5 5-5-2.23-5-5 2.23-5 5-5z"
       fill="currentColor"
       id="path70" />
    <path
       d="m0 10v22h22v-22z"
       fill="none"
       id="path72" />
  </g>
  <g
     id="system-search"
     transform="translate(0 -32)">
    <path
       class="ColorScheme-Text"
       d="m35 4a9 9 0 0 0-9 9 9 9 0 0 0 9 9 9 9 0 0 0 5.9941-2.2988l8.2988 8.2988 0.70703-0.70703-8.3008-8.3008a9 9 0 0 0 2.3008-5.9922 9 9 0 0 0-9-9zm0 1a8 8 0 0 1 8 8 8 8 0 0 1-8 8 8 8 0 0 1-8-8 8 8 0 0 1 8-8z"
       fill="currentColor"
       id="path75" />
    <path
       d="m22 0v32h32v-32z"
       fill="none"
       id="path77" />
  </g>
  <g
     id="system-user-list"
     transform="translate(108)">
    <path
       class="ColorScheme-Text"
       d="m45 9c-0.58947 0-1.133 0.17457-1.5938 0.46875 0.04318 0.46425 0.0075 0.92267-8e-3 1.3359 0.37711-0.50585 0.9708-0.80409 1.6018-0.80463 1.1046 0 2 0.89543 2 2s-0.89543 2-2 2c-1.0405-5.56e-4 -1.9068-0.7989-1.9922-1.8359-0.18434 0.41948-0.46466 0.77032-0.6956 1.0996-1e-3 0.0013-3e-3 0.0026-4e-3 0.0039 0.476 1.0197 1.4888 1.7324 2.6918 1.7324 1.6612 0 2.998-1.338 2.998-3s-1.3369-3-2.998-3zm-7 9c4.432 0 8 3.568 8 8h-16c0-4.432 3.568-8 8-8zm1e-5 -1c-4.9856 0-9 3.7166-9 8.3333v1.6667h18v-1.6667c0-4.6167-4.0144-8.3333-9-8.3333zm6.9765-1c-1.2619 4.88e-4 -2.3962 0.47884-3.2754 1.2402 0.38003 0.15615 0.76608 0.33575 1.1424 0.50783 5e-3 0.0025 9e-3 0.0052 0.0137 0.0078 0.61531-0.44993 1.3332-0.75586 2.1173-0.75586 2.2269 5e-5 4.0234 2.338 4.0234 4h-2.7285c0.19616 0.3391 0.30158 0.64811 0.449 1h3.2815v-1c0-2.7694-2.2402-4.9989-5.0215-5zm-6.9766-10c2.2092 0 4 1.7909 4 4s-1.7908 4-4 4-4-1.7909-4-4 1.7908-4 4-4zm0-1c-2.7614 0-5 2.2386-5 5s2.2386 5 5 5c2.3508 0 4.3227-1.6223 4.8571-3.8084 0.093361-0.38187 0.14286-0.78094 0.14286-1.1916 0-2.7614-2.2386-5-5-5zm-6.9766 11c1.2619 4.88e-4 2.3962 0.47884 3.2754 1.2402-0.40446 0.16292-0.80548 0.35541-1.1561 0.51561-0.61531-0.44991-1.3332-0.75584-2.1173-0.75584-2.2269 5e-5 -4.0234 2.338-4.0234 4h2.7285c-0.18697 0.33326-0.31833 0.6897-0.449 1h-3.2815v-1c0-2.7694 2.2402-4.9989 5.0215-5zm-0.02539-7c0.58947 0 1.133 0.17457 1.5938 0.46875-0.04841 0.46007-0.0093 0.92754 8e-3 1.3359-0.37711-0.50585-0.9708-0.80409-1.6018-0.80463-1.1046 0-2 0.89543-2 2s0.89543 2 2 2c1.0405-5.56e-4 1.9068-0.7989 1.9922-1.8359 0.18831 0.40268 0.47165 0.77011 0.6956 1.0996 1e-3 0.0013 3e-3 0.0026 4e-3 0.0039-0.476 1.0197-1.4888 1.7324-2.6918 1.7324-1.6612 0-2.998-1.338-2.998-3s1.3369-3 2.998-3z"
       fill="currentColor"
       id="path80" />
    <path
       d="m22 0v32h32v-32z"
       fill="none"
       id="path82" />
  </g>
  <g
     id="system-user-prompt"
     transform="translate(112 64)">
    <path
       d="m22 0v32h32v-32z"
       fill="none"
       id="path85" />
    <path
       class="ColorScheme-Text"
       d="m37 10.75v1.5h5v-1.5zm-4 0v1.5h3v-1.5zm-6 0v1.5h5v-1.5zm-1-1.75h24v5h-24zm-1-1v7h26v-7zm1 10h24v5h-24zm-1-1v7h26v-7zm3.5 2c-.828427 0-1.5.671573-1.5 1.5s.671573 1.5 1.5 1.5 1.5-.671573 1.5-1.5-.671573-1.5-1.5-1.5zm4 0c-.828427 0-1.5.671573-1.5 1.5s.671573 1.5 1.5 1.5 1.5-.671573 1.5-1.5-.671573-1.5-1.5-1.5zm4 0c-.828427 0-1.5.671573-1.5 1.5s.671573 1.5 1.5 1.5 1.5-.671573 1.5-1.5-.671573-1.5-1.5-1.5zm4 0c-.828427 0-1.5.671573-1.5 1.5s.671573 1.5 1.5 1.5 1.5-.671573 1.5-1.5-.671573-1.5-1.5-1.5z"
       fill="currentColor"
       id="path87" />
  </g>
  <g
     id="22-22-system-user-prompt"
     transform="matrix(.6875 0 0 .6875 96.875 74)"
     stroke-width="1.4545">
    <path
       class="ColorScheme-Text"
       d="m35.818 21.091a0.72727 0.72727 0 0 1-0.72727 0.72727 0.72727 0.72727 0 0 1-0.72727-0.72727 0.72727 0.72727 0 0 1 0.72727-0.72727 0.72727 0.72727 0 0 1 0.72727 0.72727zm-2.1818 0a0.72727 0.72727 0 0 1-0.72727 0.72727 0.72727 0.72727 0 0 1-0.72727-0.72727 0.72727 0.72727 0 0 1 0.72727-0.72727 0.72727 0.72727 0 0 1 0.72727 0.72727zm-2.1818 0a0.72727 0.72727 0 0 1-0.72727 0.72727 0.72727 0.72727 0 0 1-0.72727-0.72727 0.72727 0.72727 0 0 1 0.72727-0.72727 0.72727 0.72727 0 0 1 0.72727 0.72727zm-2.1818 0a0.72727 0.72727 0 0 1-0.72727 0.72727 0.72727 0.72727 0 0 1-0.72727-0.72727 0.72727 0.72727 0 0 1 0.72727-0.72727 0.72727 0.72727 0 0 1 0.72727 0.72727zm5.8182-10.909h2.9091v1.4545h-2.9091zm-2.9091 0h1.4545v1.4545h-1.4545zm-4.3636 0h2.9091v1.4545h-2.9091zm-2.9091 7.2727v7.2727h26.182v-7.2727zm1.4545 1.4545h23.273v4.3636h-23.273zm-1.4545-11.636v7.2727h26.182v-7.2727zm1.4545 1.4545h23.273v4.3636h-23.273z"
       fill="currentColor"
       id="path90" />
    <path
       d="m22 0v32h32v-32z"
       fill="none"
       id="path92" />
  </g>
  <g
     id="22-22-system-user-list"
     transform="matrix(.6875 0 0 .6875 92.875 10)"
     stroke-width="1.4545">
    <path
       class="ColorScheme-Text"
       d="m44.552 10.182c-0.37453 0-0.72044 0.10364-1.0284 0.26989 1.89e-4 0.0019-0.09527 0.05843-0.09498 0.06047 0.11476 1.4527-0.24945 2.3769-0.66509 3.0986 0.39606 0.5635 1.0484 0.93468 1.7885 0.93468 1.0258 0 1.8861-0.70799 2.1193-1.6619 0.04073-0.16664 0.06255-0.3407 0.06255-0.51989-1.4e-5 -1.205-0.97684-2.1818-2.1818-2.1818zm-13.098 0c0.37453 0 0.72044 0.10364 1.0284 0.26989-1.89e-4 0.0019 0.09527 0.05843 0.09498 0.06047-0.11476 1.4527 0.24946 2.3769 0.66509 3.0986-0.39606 0.5635-1.0484 0.93468-1.7885 0.93468-1.0258 0-1.8861-0.70799-2.1193-1.6619-0.04073-0.16664-0.06254-0.3407-0.06254-0.51989 1.4e-5 -1.205 0.97684-2.1818 2.1818-2.1818zm-4.4e-5 5.8182c1.2265 0 2.3022 0.56552 2.9602 1.4773-0.36926 0.19574-0.745 0.43622-1.071 0.63066-0.35836-0.42266-1.025-0.65339-1.8893-0.65339-1.3095 0-2.1818 0.9608-2.1818 2.9091h1.8182l-0.72727 1.4545h-2.5455l1e-6 -2.2102c1e-6 -2.093 1.622-3.608 3.6364-3.608zm13.091 1.4e-5c-1.2265 0-2.3022 0.56552-2.9602 1.4773 0.36926 0.19574 0.745 0.43622 1.071 0.63066 0.35836-0.42266 1.025-0.65339 1.8893-0.65339 1.3095 0 2.1818 0.99389 2.1818 2.9091h-1.8182l0.72727 1.4545h2.5455l2e-6 -2.2102c2e-6 -2.093-1.622-3.608-3.6364-3.608zm-6.5455 2.9091c2.9091 0 5.8182 1.4545 5.8182 5.8182h-11.636c0-4.3636 2.9091-5.8182 5.8182-5.8182zm0-1.4545c-4.2302 0-7.2612 2.9743-7.2698 7.2727l-0.0029 1.4545h14.545l-0.0029-1.4545c-0.00866-4.3213-3.0396-7.2727-7.2698-7.2727zm7.5e-5 -11.636c-2.8117 0-5.091 2.2793-5.091 5.0909s2.2793 5.0909 5.091 5.0909c2.3936 0 4.4013-1.6518 4.9455-3.8777 0.09498-0.38881 0.14547-0.79514 0.14547-1.2133 0-2.8116-2.2793-5.0909-5.091-5.0909z"
       fill="currentColor"
       id="path95" />
    <path
       d="m22 0v32h32v-32z"
       fill="none"
       id="path97" />
  </g>
  <g
     id="16-16-system-switch-user"
     transform="translate(3.4375 6)">
    <path
       d="m54-22v16h16v-16z"
       fill="none"
       stroke-width=".72727"
       id="path100" />
    <path
       class="ColorScheme-Text"
       d="m65-20c-1.1046 0-2 0.89543-2 2 0 1.1046 0.89543 2 2 2 1.1046 0 2-0.89543 2-2 0-1.1046-0.89543-2-2-2zm-6 2c-1.1046-1e-6 -2 0.89543-2 2s0.89543 2 2 2c1.1046 1e-6 2-0.89543 2-2s-0.89543-2-2-2zm6.0156 3c-1.5188 0-2.7642 1.1631-2.9785 2.6719 0.58287 0.66214 0.96289 1.3281 0.96289 2.3281h4.4297c0.39322-0.54062 0.60674-1.1986 0.60742-1.875 1e-6 -1.7259-1.3522-3.125-3.0215-3.125zm-0.04883 1c1.1026 0 1.9961 0.83947 1.9961 1.875-4.5e-4 0.40586-0.14066 0.80063-0.40039 1.125h-2.8203c-0.08564-0.53851-0.35719-1.0199-0.74219-1.3984 0.14153-0.90529 0.9636-1.6016 1.9668-1.6016zm-5.9668 1c-1.6569-1e-6 -3 1.3991-3 3.125 0.0016 0.67681 0.21405 1.3348 0.60547 1.875h4.793c0.39002-0.54072 0.60111-1.1987 0.60156-1.875 1e-6 -1.7259-1.3431-3.125-3-3.125zm0 1c1.1046 1e-6 2 1.0074 2 2.25-9.01e-4 0.25567-0.04053 0.50931-0.11719 0.75h-3.7656c-0.07666-0.24069-0.11629-0.49433-0.11719-0.75 0-1.2426 0.89543-2.25 2-2.25z"
       fill="currentColor"
       id="path102" />
  </g>
  <g
     id="system-suspend"
     transform="translate(82,164.11)">
    <rect
       x="-60"
       y="-98"
       width="32"
       height="32"
       rx="0"
       ry="0"
       opacity="0"
       stroke-width="2"
       style="paint-order:fill markers stroke"
       id="rect105" />
    <g
       transform="translate(-60,-98)"
       id="g115">
      <path
         d="m16 2c-7.7241 0-14 6.2759-14 14s6.2759 14 14 14 14-6.2759 14-14-6.2759-14-14-14z"
         color="#000000"
         fill="#64728a"
         overflow="visible"
         stroke="#566072"
         stroke-width="2"
         id="path107" />
      <path
         d="m16 2c-7.7241 0-14 6.2759-14 14s6.2759 14 14 14 14-6.2759 14-14-6.2759-14-14-14z"
         color="#000000"
         fill="#64728a"
         overflow="visible"
         id="path109" />
      <path
         d="m16 1.5c-8 0-14.5 6.5-14.5 14.5s6.5 14.5 14.5 14.5 14.5-6.5 14.5-14.5-6.5-14.5-14.5-14.5z"
         color="#000000"
         fill="none"
         opacity=".5"
         overflow="visible"
         solid-color="#000000"
         style="isolation:auto;mix-blend-mode:normal"
         id="path111" />
      <path
         d="m16 6.5a9.5 9.5 0 1 0 0 19 9.5 9.5 0 0 0 0-19zm0 2a7.5 7.5 0 0 1 7.438 6.5h-14.875a7.5 7.5 0 0 1 7.437-6.5zm-7.438 8.5h14.876a7.5 7.5 0 0 1-7.438 6.5 7.5 7.5 0 0 1-7.438-6.5z"
         color="#000000"
         fill="#ffffff"
         overflow="visible"
         id="path113" />
    </g>
  </g>
  <g
     id="system-reboot"
     transform="translate(95.616,164.71)">
    <rect
       x="-20"
       y="-98"
       width="32"
       height="32"
       rx="0"
       ry="0"
       opacity="0"
       stroke-width="2"
       style="paint-order:fill markers stroke"
       id="rect118" />
    <g
       transform="translate(-20.002,-97.998)"
       id="g128">
      <path
         d="m16.002 1.998c-7.725 0-14 6.275-14 14s6.275 14 14 14c7.724 0 14-6.275 14-14 0-7.724-6.275-14-14-14z"
         color="#000000"
         fill="#4da2f3"
         fill-opacity=".992"
         opacity=".99"
         overflow="visible"
         stroke="#1e88ea"
         stroke-width="2"
         id="path120" />
      <path
         d="m16.002 1.998c-7.725 0-14 6.275-14 14s6.275 14 14 14c7.724 0 14-6.275 14-14 0-7.724-6.275-14-14-14z"
         color="#000000"
         fill="#4da2f3"
         fill-opacity=".992"
         opacity=".99"
         overflow="visible"
         id="path122" />
      <path
         d="m16.002 1.498c-8 0-14.5 6.5-14.5 14.5s6.5 14.5 14.5 14.5 14.5-6.5 14.5-14.5-6.5-14.5-14.5-14.5z"
         color="#000000"
         fill="none"
         opacity=".5"
         overflow="visible"
         solid-color="#000000"
         style="isolation:auto;mix-blend-mode:normal"
         id="path124" />
      <path
         d="m16 6.5v2.429a7.286 7.286 0 1 0 7.286 7.285h-2.429a4.857 4.857 0 1 1-4.857-4.857v2.429l6.071-3.643z"
         color="#bebebe"
         fill="#ffffff"
         overflow="visible"
         id="path126" />
    </g>
  </g>
  <g
     id="system-shutdown"
     transform="translate(2,130)">
    <rect
       x="20"
       y="-98"
       width="32"
       height="32"
       rx="0"
       ry="0"
       opacity="0"
       stroke-width="2"
       style="paint-order:fill markers stroke"
       id="rect131" />
    <g
       transform="translate(20,-98)"
       id="g141">
      <path
         d="m16 2c-7.725 0-14 6.275-14 14s6.275 14 14 14 14-6.275 14-14-6.275-14-14-14z"
         color="#000000"
         fill="#d93c3f"
         fill-opacity=".992"
         overflow="visible"
         stroke="#be2a2d"
         stroke-width="2"
         id="path133" />
      <path
         d="m16 2c-7.725 0-14 6.275-14 14s6.275 14 14 14 14-6.275 14-14-6.275-14-14-14z"
         color="#000000"
         fill="#d93c3f"
         fill-opacity=".992"
         overflow="visible"
         id="path135" />
      <path
         d="m16 1.5c-8 0-14.5 6.5-14.5 14.5s6.5 14.5 14.5 14.5 14.5-6.5 14.5-14.5-6.5-14.5-14.5-14.5z"
         color="#000000"
         fill="none"
         opacity=".5"
         overflow="visible"
         id="path137" />
      <path
         d="m11.877 8.776c-0.204 0-0.394 0.08-0.566 0.162l-0.405 0.243c-1.984 1.309-3.382 3.331-3.8 5.7 0 2e-3 -0.04-3e-3 -0.04 0-0.011 0.065 0.01 0.136 0 0.202-0.06 0.4-0.121 0.795-0.121 1.213 0 4.822 4.054 8.732 9.055 8.732s9.055-3.91 9.055-8.732c0-0.371-0.033-0.733-0.08-1.092-0.015-0.111-0.062-0.213-0.081-0.323-0.418-2.369-1.816-4.391-3.8-5.7l-0.405-0.243c-0.172-0.081-0.362-0.162-0.566-0.162-0.736 0-1.334 0.598-1.334 1.335 0 0.419 0.223 0.806 0.526 1.05 0.096 0.078 0.208 0.154 0.323 0.203a6.32 6.32 0 0 1 2.588 3.517c7e-3 0.027 0.033 0.053 0.04 0.08 0.135 0.495 0.202 1 0.202 1.537 0 3.445-2.896 6.226-6.468 6.226s-6.468-2.781-6.468-6.226c0-0.536 0.068-1.042 0.202-1.536 8e-3 -0.03 0.032-0.053 0.04-0.081a6.32 6.32 0 0 1 2.588-3.517c0.115-0.05 0.227-0.125 0.323-0.202 0.303-0.245 0.526-0.632 0.526-1.051 0-0.737-0.598-1.335-1.334-1.335zm4.123-3.153a1.29 1.29 0 0 1 1.294 1.294v7.762a1.29 1.29 0 0 1-1.294 1.293 1.29 1.29 0 0 1-1.294-1.293v-7.762a1.29 1.29 0 0 1 1.294-1.294z"
         color="#000000"
         fill="#ffffff"
         overflow="visible"
         id="path139" />
    </g>
  </g>
  <g
     id="system-suspend-hibernate"
     transform="translate(-38,196.11)">
    <rect
       x="60"
       y="-98"
       width="32"
       height="32"
       rx="0"
       ry="0"
       opacity="0"
       stroke-width="2"
       style="paint-order:fill markers stroke"
       id="rect144" />
    <g
       transform="translate(60,-1188.5)"
       id="g152">
      <circle
         cx="16"
         cy="1106.5"
         r="14"
         fill="#9575cd"
         stroke="#7b5cb8"
         stroke-width="2"
         id="circle146" />
      <circle
         cx="16"
         cy="1106.5"
         r="14"
         fill="#9575cd"
         id="circle148" />
      <path
         d="m16.667 1100.5a0.665 0.665 0 0 0-0.667 0.666v2c0 0.37 0.297 0.667 0.667 0.667h3.333l-4 3.333v2.667c0 0.37 0.297 0.667 0.667 0.667h6.666c0.37 0 0.667-0.298 0.667-0.667v-2a0.665 0.665 0 0 0-0.667-0.667h-3.333l4-3.333v-2.667a0.665 0.665 0 0 0-0.667-0.666zm-8 6a0.665 0.665 0 0 0-0.667 0.666v0.667c0 0.37 0.298 0.685 0.667 0.667h1.333l-2 2v1.333c0 0.37 0.297 0.667 0.667 0.667h3.333c0.37 0 0.667-0.298 0.667-0.667v-0.667a0.665 0.665 0 0 0-0.667-0.666h-1.333l2-2v-1.334a0.665 0.665 0 0 0-0.667-0.666z"
         fill="#ffffff"
         stroke-linecap="round"
         stroke-linejoin="round"
         stroke-opacity=".528"
         stroke-width="2"
         id="path150" />
    </g>
  </g>
  <g
     id="system-log-out"
     transform="translate(-76,98)">
    <rect
       x="98"
       y="-98"
       width="32"
       height="32"
       rx="0"
       ry="0"
       opacity="0"
       stroke-width="2"
       style="paint-order:fill markers stroke"
       id="rect155" />
    <g
       transform="translate(98,-98)"
       id="g165">
      <path
         d="m16 2c-7.7241 0-14 6.2759-14 14s6.2759 14 14 14 14-6.2759 14-14-6.2759-14-14-14z"
         color="#000000"
         fill="#f88230"
         overflow="visible"
         stroke="#e66b15"
         stroke-width="2"
         id="path157" />
      <path
         d="m16 2c-7.7241 0-14 6.2759-14 14s6.2759 14 14 14 14-6.2759 14-14-6.2759-14-14-14z"
         color="#000000"
         fill="#f88230"
         overflow="visible"
         id="path159" />
      <path
         d="m16 1.5c-8 0-14.5 6.5-14.5 14.5s6.5 14.5 14.5 14.5 14.5-6.5 14.5-14.5-6.5-14.5-14.5-14.5z"
         color="#000000"
         fill="none"
         opacity=".35"
         overflow="visible"
         id="path161" />
      <path
         d="m17 9 8 7.027-8 6.973v-5h-9v-3.928h9z"
         fill="#ffffff"
         overflow="visible"
         id="path163" />
    </g>
  </g>
  <g
     id="system-lock-screen"
     transform="translate(-63.041,199.21)">
    <rect
       x="140"
       y="-98"
       width="32"
       height="32"
       rx="0"
       ry="0"
       opacity="0"
       stroke-width="2"
       style="paint-order:fill markers stroke"
       id="rect168" />
    <g
       transform="translate(-2.5,-46.5)"
       id="g178">
      <path
         d="m158.5-49.5c-7.7241 0-14 6.2759-14 14s6.2759 14 14 14 14-6.2759 14-14-6.2759-14-14-14z"
         color="#000000"
         fill="#77cb75"
         overflow="visible"
         stroke="#5bb759"
         stroke-width="2"
         id="path170" />
      <path
         d="m158.5-49.5c-7.7241 0-14 6.2759-14 14s6.2759 14 14 14 14-6.2759 14-14-6.2759-14-14-14z"
         color="#000000"
         fill="#77cb75"
         overflow="visible"
         id="path172" />
      <path
         d="m158.5-50c-8 0-14.5 6.5-14.5 14.5s6.5 14.5 14.5 14.5 14.5-6.5 14.5-14.5-6.5-14.5-14.5-14.5z"
         color="#000000"
         fill="none"
         opacity=".5"
         overflow="visible"
         solid-color="#000000"
         style="isolation:auto;mix-blend-mode:normal"
         id="path174" />
      <path
         d="m158-44c-2.216 0-4 1.8119-4 4.0625v2.9375h-1c-0.554 0-1 0.446-1 1v7c0 0.554 0.446 1 1 1h11c0.554 0 1-0.446 1-1v-7c0-0.554-0.446-1-1-1h-1v-2.9375c0-2.2506-1.784-4.0625-4-4.0625zm0 2h1c1.108 0 2 0.892 2 2v3h-5v-3c0-1.108 0.892-2 2-2z"
         fill="#ffffff"
         fill-rule="evenodd"
         style="paint-order:fill markers stroke"
         id="path176" />
    </g>
  </g>
  <g
     id="system-switch-user"
     transform="translate(-107,98)">
    <rect
       x="183"
       y="-98"
       width="32"
       height="32"
       rx="0"
       ry="0"
       opacity="0"
       stroke-width="2"
       style="paint-order:fill markers stroke"
       id="rect181" />
    <g
       transform="translate(183,-1188.5)"
       id="g191">
      <circle
         cx="16"
         cy="1106.5"
         r="14"
         fill="#81c784"
         stroke="#62b266"
         stroke-width="2"
         id="circle183" />
      <circle
         cx="16"
         cy="1106.5"
         r="14"
         fill="#81c784"
         id="circle185" />
      <g
         fill="#ffffff"
         stroke-linecap="round"
         stroke-linejoin="round"
         stroke-width="2"
         id="g189">
        <path
           d="m14.52 1107a0.5 0.5 0 0 1 0.48 0.5v2h7c0.277 0 0.5 0.223 0.5 0.5v2c0 0.276-0.223 0.5-0.5 0.5h-7v2a0.5 0.5 0 0 1-0.806 0.394l-4.5-3.5a0.5 0.5 0 0 1 0-0.79l4.5-3.499a0.503 0.503 0 0 1 0.326-0.105zm2.96-9a0.5 0.5 0 0 0-0.48 0.5v2h-7c-0.277 0-0.5 0.223-0.5 0.5v2c0 0.277 0.223 0.5 0.5 0.5h7v2a0.5 0.5 0 0 0 0.806 0.394l4.5-3.5a0.5 0.5 0 0 0 0-0.789l-4.5-3.5a0.503 0.503 0 0 0-0.326-0.105z"
           id="path187" />
      </g>
    </g>
  </g>
  <g
     id="22-22-system-run"
     transform="translate(22.704723,-76.936109)">
    <rect
       width="22"
       height="22"
       fill="currentColor"
       opacity="0.00100002"
       id="rect1558"
       x="-22"
       y="0" />
    <path
       id="path1560"
       class="ColorScheme-Text"
       d="m -16,3 c -1.661993,0 -3,1.3380074 -3,3 v 10 c 0,1.661992 1.338007,3 3,3 h 10 c 1.6619926,0 3,-1.338008 3,-3 V 6 C -3,4.3380074 -4.3380074,3 -6,3 Z m 0,1 h 10 c 1.1079989,0 2,0.8920011 2,2 v 10 c 0,1.107999 -0.8920011,2 -2,2 h -10 c -1.107999,0 -2,-0.892001 -2,-2 V 6 c 0,-1.1079989 0.892001,-2 2,-2 z"
       fill="currentColor" />
    <path
       id="path528"
       class="ColorScheme-Text"
       d="m -13,8 v 6 l 5,-3 z"
       fill="currentColor"
       sodipodi:nodetypes="cccc" />
  </g>
  <g
     id="system-run"
     transform="translate(-145.79527,-85.936109)">
    <rect
       width="32"
       height="32"
       fill="currentColor"
       opacity="0.00100002"
       id="rect437"
       x="168.5"
       y="9"
       style="stroke-width:1.45455" />
    <path
       id="rect507"
       class="ColorScheme-Text"
       d="m 181.5,20.5 v 9 L 189,25 Z"
       fill="currentColor"
       sodipodi:nodetypes="cccc" />
    <path
       id="rect634"
       class="ColorScheme-Text"
       d="m 176.5,13 c -2.216,0 -4,1.784004 -4,4 v 16 c 0,2.215996 1.784,4 4,4 h 16 c 2.216,0 4,-1.784004 4,-4 V 17 c 0,-2.215996 -1.784,-4 -4,-4 z m 0,1 h 16 c 1.662,0 3,1.338002 3,3 v 16 c 0,1.661998 -1.338,3 -3,3 h -16 c -1.662,0 -3,-1.338002 -3,-3 V 17 c 0,-1.661998 1.338,-3 3,-3 z"
       fill="currentColor" />
  </g>
</svg>
