<?xml version="1.0" encoding="UTF-8" standalone="no"?>
<svg
   id="svg4153"
   version="1.1"
   width="22"
   height="22"
   sodipodi:docname="user.svg"
   inkscape:version="1.1.2 (0a00cf5339, 2022-02-04, custom)"
   xmlns:inkscape="http://www.inkscape.org/namespaces/inkscape"
   xmlns:sodipodi="http://sodipodi.sourceforge.net/DTD/sodipodi-0.dtd"
   xmlns="http://www.w3.org/2000/svg"
   xmlns:svg="http://www.w3.org/2000/svg">
  <sodipodi:namedview
     id="namedview46"
     pagecolor="#ffffff"
     bordercolor="#666666"
     borderopacity="1.0"
     inkscape:pageshadow="2"
     inkscape:pageopacity="0.0"
     inkscape:pagecheckerboard="0"
     showgrid="false"
     inkscape:zoom="5.4772727"
     inkscape:cx="-215.9834"
     inkscape:cy="14.788382"
     inkscape:window-width="1368"
     inkscape:window-height="706"
     inkscape:window-x="0"
     inkscape:window-y="0"
     inkscape:window-maximized="1"
     inkscape:current-layer="svg4153" />
  <defs
     id="defs4157">
    <style
       type="text/css"
       id="current-color-scheme">.ColorScheme-Text{color:#5c616c}.ColorScheme-Background{color:#eff0f1}</style>
  </defs>
  <g
     id="user-away"
     fill-opacity="1"
     stroke="none">
    <path
       id="rect4562"
       opacity=".97"
       fill="none"
       d="M-44 0h22v22h-22z" />
    <path
       id="path4149"
       d="M-33 3a4 4 0 0 0-4 4 4 4 0 0 0 4 4 4 4 0 0 0 4-4 4 4 0 0 0-4-4zm0 1a3 3 0 0 1 3 3 3 3 0 0 1-3 3 3 3 0 0 1-3-3 3 3 0 0 1 3-3z"
       opacity="1"
       fill="#fdbc4b" />
    <path
       id="ellipse4156"
       d="M-33 12a8 8 0 0 0-7.928 7h1.008A7 7 0 0 1-33 13a7 7 0 0 1 1 .08v-1.01a8 8 0 0 0-1-.07z"
       opacity="1"
       fill="#fdbc4b" />
    <path
       id="path4227"
       d="M-25 11l-8 4 2 1 1 3 1-2 2 1z"
       fill="#fdbc4b"
       fill-rule="evenodd"
       stroke-width="1"
       stroke-linecap="butt"
       stroke-linejoin="miter"
       stroke-opacity="1" />
  </g>
  <g
     id="user-busy">
    <path
       id="rect4560"
       opacity=".97"
       fill="none"
       fill-opacity="1"
       stroke="none"
       d="M-66 0h22v22h-22z" />
    <path
       id="path4149-4"
       d="M-55 3a4 4 0 0 0-4 4 4 4 0 0 0 4 4 4 4 0 0 0 4-4 4 4 0 0 0-4-4zm0 1a3 3 0 0 1 3 3 3 3 0 0 1-3 3 3 3 0 0 1-3-3 3 3 0 0 1 3-3z"
       opacity="1"
       fill="#f47750"
       fill-opacity="1"
       stroke="none" />
    <path
       id="ellipse4156-7"
       d="M-55 12a8 8 0 0 0-7.928 7h1.008A7 7 0 0 1-55 13a7 7 0 0 1 1 .08v-1.01a8 8 0 0 0-1-.07z"
       opacity="1"
       fill="#f47750"
       fill-opacity="1"
       stroke="none" />
    <path
       id="path4169"
       d="M-50.5 12a3.5 3.5 0 0 0-3.5 3.5 3.5 3.5 0 0 0 3.5 3.5 3.5 3.5 0 0 0 3.5-3.5 3.5 3.5 0 0 0-3.5-3.5z"
       opacity="1"
       fill="#f47750"
       fill-opacity="1"
       stroke="none" />
    <path
       id="rect4146"
       d="M-51 13v3h2v-1h-1v-2z"
       class="ColorScheme-Background"
       opacity="1"
       fill="currentColor"
       fill-opacity="1"
       stroke="none" />
  </g>
  <g
     id="user-invisible">
    <path
       id="rect4556"
       opacity=".97"
       fill="none"
       fill-opacity="1"
       stroke="none"
       d="M22 0h22v22H22z" />
    <path
       id="path4149-7"
       d="M33 3a4 4 0 0 0-4 4 4 4 0 0 0 4 4 4 4 0 0 0 4-4 4 4 0 0 0-4-4zm0 1a3 3 0 0 1 3 3 3 3 0 0 1-3 3 3 3 0 0 1-3-3 3 3 0 0 1 3-3z"
       class="ColorScheme-Text"
       opacity="1"
       fill="currentColor"
       fill-opacity="1"
       stroke="none" />
    <path
       id="ellipse4156-0"
       d="M33 12a8 8 0 0 0-7.928 7h1.008A7 7 0 0 1 33 13a7 7 0 0 1 1 .08v-1.01a8 8 0 0 0-1-.07z"
       class="ColorScheme-Text"
       opacity="1"
       fill="currentColor"
       fill-opacity="1"
       stroke="none" />
    <circle
       r="3.5"
       cy="15.5"
       cx="37.5"
       id="path4167"
       opacity="1"
       fill="#666"
       fill-opacity="1"
       stroke="none" />
    <path
       transform="rotate(45)"
       id="rect4152"
       class="ColorScheme-Background"
       opacity="1"
       fill="currentColor"
       fill-opacity="1"
       stroke="none"
       d="M36.977-17.885h1v4.657h-1z" />
  </g>
  <g
     id="user-offline">
    <path
       id="rect4564"
       opacity=".97"
       fill="none"
       fill-opacity="1"
       stroke="none"
       d="M-22 0H0v22h-22z" />
    <ellipse
       ry="3.25"
       rx="3.25"
       cy="15.5"
       cx="-6.5"
       id="path4146"
       class="ColorScheme-Background"
       opacity="1"
       fill="currentColor"
       fill-opacity="1"
       stroke="none" />
    <path
       id="path4149-3"
       d="M-11 3a4 4 0 0 0-4 4 4 4 0 0 0 4 4 4 4 0 0 0 4-4 4 4 0 0 0-4-4zm0 1a3 3 0 0 1 3 3 3 3 0 0 1-3 3 3 3 0 0 1-3-3 3 3 0 0 1 3-3z"
       class="ColorScheme-Text"
       opacity="1"
       fill="#bdc3c7"
       fill-opacity="1"
       stroke="none" />
    <path
       id="ellipse4156-75"
       d="M-11 12a8 8 0 0 0-7.928 7h1.008A7 7 0 0 1-11 13a7 7 0 0 1 1 .08v-1.01a8 8 0 0 0-1-.07z"
       class="ColorScheme-Text"
       opacity="1"
       fill="#bdc3c7"
       fill-opacity="1"
       stroke="none" />
    <path
       id="path4167-8"
       d="M-6.5 12a3.5 3.5 0 0 0-3.5 3.5A3.5 3.5 0 0 0-6.5 19 3.5 3.5 0 0 0-3 15.5 3.5 3.5 0 0 0-6.5 12zm0 1A2.5 2.5 0 0 1-4 15.5 2.5 2.5 0 0 1-6.5 18 2.5 2.5 0 0 1-9 15.5 2.5 2.5 0 0 1-6.5 13z"
       opacity="1"
       fill="#bdc3c7"
       fill-opacity="1"
       stroke="none" />
    <path
       transform="rotate(90)"
       id="rect4152-8"
       opacity="1"
       fill="#bdc3c7"
       fill-opacity="1"
       stroke="none"
       d="M15 5h1v3h-1z" />
  </g>
  <g
     id="user-online">
    <path
       id="rect4554"
       opacity=".97"
       fill="none"
       fill-opacity="1"
       stroke="none"
       d="M0 0h22v22H0z" />
    <path
       id="path4149-8"
       d="M10.964 3a4 4 0 0 0-4 4 4 4 0 0 0 4 4 4 4 0 0 0 4-4 4 4 0 0 0-4-4zm0 1a3 3 0 0 1 3 3 3 3 0 0 1-3 3 3 3 0 0 1-3-3 3 3 0 0 1 3-3z"
       opacity="1"
       fill="#43be80"
       fill-opacity="1"
       stroke="none" />
    <path
       id="ellipse4156-8"
       d="M10.964 12a8 8 0 0 0-7.928 7h1.008a7 7 0 0 1 6.92-6 7 7 0 0 1 1 .08v-1.01a8 8 0 0 0-1-.07z"
       opacity="1"
       fill="#43be80"
       fill-opacity="1"
       stroke="none" />
    <circle
       r="3.5"
       cy="15.5"
       cx="15.464"
       id="path4144"
       opacity="1"
       fill="#43be80"
       fill-opacity="1"
       stroke="none" />
    <path
       id="path4166"
       d="M16.964 14l1 1-3 3-2-2 1-1 1 1z"
       class="ColorScheme-Background"
       fill="currentColor"
       fill-rule="evenodd"
       stroke="none"
       stroke-width="1"
       stroke-linecap="butt"
       stroke-linejoin="miter"
       stroke-opacity="1" />
  </g>
  <g
     id="user-identity">
    <path
       id="rect4585"
       opacity=".97"
       fill="none"
       fill-opacity="1"
       stroke="none"
       d="M-88 0h22v22h-22z" />
    <path
       id="path4149-2"
       d="M-77 3a4 4 0 0 0-4 4 4 4 0 0 0 4 4 4 4 0 0 0 4-4 4 4 0 0 0-4-4zm0 1a3 3 0 0 1 3 3 3 3 0 0 1-3 3 3 3 0 0 1-3-3 3 3 0 0 1 3-3zm0 8a8 8 0 0 0-7.928 7h1.008A7 7 0 0 1-77 13a7 7 0 0 1 6.922 6h1.008A8 8 0 0 0-77 12z"
       class="ColorScheme-Text"
       opacity="1"
       fill="currentColor"
       fill-opacity="1"
       stroke="none" />
  </g>
  <g
     id="user-away-extended">
    <path
       id="rect4649"
       opacity=".97"
       fill="none"
       fill-opacity="1"
       stroke="none"
       d="M44 0h22v22H44z" />
    <circle
       id="circle4653"
       cx="59.5"
       cy="15.5"
       r="3.5"
       opacity="1"
       fill="#9b59b6"
       fill-opacity="1"
       stroke="none" />
    <path
       d="M55 3a4 4 0 0 0-4 4 4 4 0 0 0 4 4 4 4 0 0 0 4-4 4 4 0 0 0-4-4zm0 1a3 3 0 0 1 3 3 3 3 0 0 1-3 3 3 3 0 0 1-3-3 3 3 0 0 1 3-3z"
       id="path4655"
       opacity="1"
       fill="#9b59b6"
       fill-opacity="1"
       stroke="none" />
    <path
       d="M55 12a8 8 0 0 0-7.928 7h1.008A7 7 0 0 1 55 13a7 7 0 0 1 1 .08v-1.01a8 8 0 0 0-1-.07z"
       id="path4657"
       opacity="1"
       fill="#9b59b6"
       fill-opacity="1"
       stroke="none" />
    <circle
       r=".5"
       cy="-57.5"
       cx="15.5"
       id="circle4659"
       transform="rotate(90)"
       class="ColorScheme-Background"
       opacity=".7"
       fill="currentColor"
       fill-opacity="1"
       stroke="none" />
    <circle
       id="circle4661"
       cx="59.5"
       cy="15.5"
       r=".5"
       class="ColorScheme-Background"
       opacity=".4"
       fill="currentColor"
       fill-opacity="1"
       stroke="none" />
    <circle
       id="circle4663"
       cx="61.5"
       cy="15.5"
       r=".5"
       class="ColorScheme-Background"
       opacity=".3"
       fill="currentColor"
       fill-opacity="1"
       stroke="none" />
  </g>
  <g
     id="22-22-user-desktop"
     transform="translate(-287)">
    <rect
       id="rect853"
       width="22"
       height="22"
       x="0"
       y="0"
       style="fill:none" />
    <path
       id="path855"
       class="ColorScheme-Text"
       d="m -282,4 c -1.662,0 -3,1.338 -3,3 v 8 c 0,1.662 1.338,3 3,3 h 12 c 1.662,0 3,-1.338 3,-3 V 7 c 0,-1.662 -1.338,-3 -3,-3 z m 0,1 h 12 c 1.108,0 2,0.892 2,2 v 8 c 0,1.108 -0.892,2 -2,2 h -12 c -1.108,0 -2,-0.892 -2,-2 V 7 c 0,-1.108 0.892,-2 2,-2 z"
       transform="translate(287)"
       fill="currentColor" />
    <rect
       id="rect857"
       width="10"
       height="1"
       x="6"
       y="14"
       rx="0.5"
       ry="0.5"
       class="ColorScheme-Text"
       fill="currentColor" />
  </g>
  <g
     id="16-16-user-desktop"
     transform="translate(-287,-2)">
    <rect
       id="rect845"
       width="16"
       height="16"
       x="-21"
       y="5"
       rx="0"
       ry="0"
       style="fill:none" />
    <path
       id="path847"
       class="ColorScheme-Text"
       d="m -305,5 c -1.108,0 -2,0.892 -2,2 v 8 c 0,1.108 0.892,2 2,2 h 10 c 1.108,0 2,-0.892 2,-2 V 7 c 0,-1.108 -0.892,-2 -2,-2 z m 0,1 h 10 c 0.554,0 1,0.446 1,1 v 8 c 0,0.554 -0.446,1 -1,1 h -10 c -0.554,0 -1,-0.446 -1,-1 V 7 c 0,-0.554 0.446,-1 1,-1 z"
       transform="translate(287,2)"
       fill="currentColor" />
    <rect
       id="rect849"
       width="8"
       height="1"
       x="-17"
       y="15"
       rx="0.5"
       ry="0.5"
       class="ColorScheme-Text"
       fill="currentColor"
       style="opacity:1;stroke-width:0.816497" />
  </g>
  <g
     id="32-32-user-desktop"
     transform="translate(-287)">
    <rect
       id="rect837"
       width="32"
       height="32"
       x="25"
       y="-5"
       rx="0"
       ry="0"
       style="fill:none;stroke-width:0.914286" />
    <path
       id="path839"
       class="ColorScheme-Text"
       d="m -255,1 c -2.216,0 -4,1.784 -4,4 v 12 c 0,2.216 1.784,4 4,4 h 18 c 2.216,0 4,-1.784 4,-4 V 5 c 0,-2.216 -1.784,-4 -4,-4 z m 0,1 h 18 c 1.662,0 3,1.338 3,3 v 12 c 0,1.662 -1.338,3 -3,3 h -18 c -1.662,0 -3,-1.338 -3,-3 V 5 c 0,-1.662 1.338,-3 3,-3 z"
       transform="translate(287)"
       fill="currentColor" />
    <rect
       id="rect841"
       width="18"
       height="1"
       x="32"
       y="16"
       rx="0.5"
       ry="0.5"
       class="ColorScheme-Text"
       fill="currentColor" />
  </g>
  <g
     id="48-48-user-desktop">
    <path
       id="rect846"
       d="m -218,-16 h 48 v 48 h -48 z"
       fill="none" />
    <g
       id="g1632"
       fill="currentColor"
       class="ColorScheme-Text">
      <path
         id="rect1026"
         d="m -209,-6 c -2.77,0 -5,2.23 -5,5 v 18 c 0,2.77 2.23,5 5,5 h 30 c 2.77,0 5,-2.23 5,-5 V -1 c 0,-2.77 -2.23,-5 -5,-5 z m 0,2 h 30 c 1.662,0 3,1.338 3,3 v 18 c 0,1.662 -1.338,3 -3,3 h -30 c -1.662,0 -3,-1.338 -3,-3 V -1 c 0,-1.662 1.338,-3 3,-3 z" />
      <rect
         id="rect1331"
         width="28"
         height="2"
         x="-208"
         y="15"
         ry="1"
         rx="1" />
    </g>
  </g>
  <g
     id="user-desktop"
     transform="matrix(2,0,0,2,-214,-17)">
    <g
       id="g2242">
      <rect
         id="rect1906"
         width="32"
         height="32"
         x="25"
         y="-5"
         rx="0"
         ry="0"
         style="fill:none;stroke-width:0.914286" />
      <path
         id="path1908"
         class="ColorScheme-Text"
         d="m -150,42 c -4.432,0 -8,3.568 -8,8 v 24 c 0,4.432 3.568,8 8,8 h 36 c 4.432,0 8,-3.568 8,-8 V 50 c 0,-4.432 -3.568,-8 -8,-8 z m 0,2 h 36 c 3.324,0 6,2.676 6,6 v 24 c 0,3.324 -2.676,6 -6,6 h -36 c -3.324,0 -6,-2.676 -6,-6 V 50 c 0,-3.324 2.676,-6 6,-6 z"
         transform="matrix(0.5,0,0,0.5,107,-20)"
         fill="currentColor" />
      <rect
         id="rect1910"
         width="18"
         height="1"
         x="32"
         y="17"
         rx="0.5"
         ry="0.5"
         class="ColorScheme-Text"
         fill="currentColor" />
    </g>
  </g>
</svg>
