<?xml version="1.0" encoding="UTF-8" standalone="no"?>
<svg
   id="svg"
   version="1.1"
   viewBox="0 0 22 22"
   sodipodi:docname="video.svg"
   inkscape:version="1.1.2 (0a00cf5339, 2022-02-04, custom)"
   xmlns:inkscape="http://www.inkscape.org/namespaces/inkscape"
   xmlns:sodipodi="http://sodipodi.sourceforge.net/DTD/sodipodi-0.dtd"
   xmlns="http://www.w3.org/2000/svg"
   xmlns:svg="http://www.w3.org/2000/svg">
  <sodipodi:namedview
     id="namedview22"
     pagecolor="#ffffff"
     bordercolor="#666666"
     borderopacity="1.0"
     inkscape:pageshadow="2"
     inkscape:pageopacity="0.0"
     inkscape:pagecheckerboard="0"
     showgrid="true"
     inkscape:zoom="8.4659091"
     inkscape:cx="11.516779"
     inkscape:cy="-1.8899329"
     inkscape:window-width="1920"
     inkscape:window-height="1003"
     inkscape:window-x="0"
     inkscape:window-y="0"
     inkscape:window-maximized="1"
     inkscape:current-layer="svg">
    <inkscape:grid
       type="xygrid"
       id="grid847" />
  </sodipodi:namedview>
  <defs
     id="defs3">
    <style
       id="current-color-scheme"
       type="text/css">.ColorScheme-Text{color:#5c616c}</style>
  </defs>
  <g
     id="video-display-brightness"
     transform="matrix(1.0000313,0,0,1.0000313,3.6532392e-7,0.00106294)">
    <path
       d="m -0.01169,-34.013 h 31.999 v 31.999 h -31.999 z"
       opacity="0.01"
       id="path5"
       style="opacity:1;fill:none" />
    <path
       d="M 3.9879324,-29 C 2.8799699,-29 1.988,-28.10803 1.988,-27.000068 v 13.999527 c 0,1.107963 0.8919699,1.999933 1.9999324,1.999933 h 9.0055956 v 4.1404597 l -2.544814,0.1835838 h -0.01172 c -0.259991,0 -0.4492044,0.1832438 -0.4492044,0.4062362 v 0.2695209 H 21.987384 v -0.2695209 c 0,-0.2229924 -0.189214,-0.4062362 -0.449205,-0.4062362 h -0.01367 l -2.542914,-0.1835838 v -4.1404597 h 9.005595 c 1.107963,0 1.999933,-0.89197 1.999933,-1.999933 V -27.000068 C 29.987124,-28.10803 29.095154,-29 27.987191,-29 Z m 0,0.999966 H 27.987121 c 0.553982,0 0.999966,0.445985 0.999966,0.999966 v 13.999527 c 0,0.553981 -0.445984,0.999966 -0.999966,0.999966 H 3.9879324 c -0.5539813,0 -0.9999662,-0.445985 -0.9999662,-0.999966 v -13.999527 c 0,-0.553981 0.4459849,-0.999966 0.9999662,-0.999966 z"
       class="ColorScheme-Text"
       fill="currentColor"
       id="path7"
       style="stroke-width:0.999966" />
    <g
       transform="matrix(0.39546,0,0,0.39546,10.43,-542.51)"
       id="g11">
      <path
         class="ColorScheme-Text"
         fill="currentColor"
         d="m 14,1313.7 c 4.166,0 7.527,3.377 7.527,7.542 0,4.166 -3.361,7.543 -7.527,7.543 v -7.543 z m -4.853,-7.58 0.563,5.188 a 10.857,10.857 0 0 0 -3.75,2.719 l -4.781,-2.125 3.5,3.906 a 10.888,10.888 0 0 0 -1.47,4.437 l -5.093,1.094 5.125,1.094 c 0.079,0.738 0.23,1.485 0.469,2.219 0.239,0.736 0.534,1.448 0.906,2.094 l -3.5,3.906 4.781,-2.125 c 1.035,1.162 2.317,2.06 3.719,2.687 l -0.562,5.25 2.656,-4.562 c 1.492,0.332 3.059,0.37 4.625,0.03 l 2.625,4.5 -0.531,-5.187 a 10.832,10.832 0 0 0 3.687,-2.656 l 4.844,2.125 -3.531,-3.938 a 10.97,10.97 0 0 0 1.406,-4.343 l 5.156,-1.094 -5.125,-1.125 a 10.879,10.879 0 0 0 -0.469,-2.281 10.81,10.81 0 0 0 -0.968,-2.125 l 3.5,-3.907 -4.813,2.125 a 10.904,10.904 0 0 0 -3.719,-2.656 l 0.563,-5.25 -2.625,4.563 a 10.849,10.849 0 0 0 -4.563,-0.031 z m 4.782,6 a 9.178,9.178 0 0 1 8.843,6.344 c 1.568,4.825 -1.08,9.995 -5.906,11.563 -4.825,1.568 -9.963,-1.081 -11.531,-5.906 a 9.126,9.126 0 0 1 5.875,-11.532 9.198,9.198 0 0 1 2.719,-0.469 z"
         id="path9" />
    </g>
  </g>
  <g
     id="22-22-video-display-brightness">
    <path
       d="m-5e-3 0h22v22h-22z"
       opacity=".01"
       id="path14"
       style="opacity:1;fill:none" />
    <path
       class="ColorScheme-Text"
       fill="currentColor"
       d="m10.998 7a3.5002 3.5002 0 1 0 0 7.0005 3.5002 3.5002 0 0 0 0-7.0005zm0 1.0005v4.9995a2.4998 2.4998 0 1 1 0-4.9995z"
       id="path16" />
    <path
       d="m4 4c-0.554 0-1 0.446-1 1v10c0 0.554 0.446 1 1 1h5v1s0 1-1 1v1h6v-1c-1 0-1-1-1-1v-1h5c0.554 0 1-0.446 1-1v-10c0-0.554-0.446-1-1-1zm0.5 0.996h13s0.5 0 0.5 0.5v9c0 0.5-0.5 0.5-0.5 0.5h-13c-0.5 0-0.5-0.5-0.5-0.5v-9s0-0.5 0.5-0.5z"
       class="ColorScheme-Text"
       fill="currentColor"
       id="path18" />
  </g>
  <g
     id="16-16-video-display-brightness">
    <path
       d="m -28,3 h 16 v 16 h -16 z"
       opacity="0.01"
       id="path839"
       style="opacity:1;stroke-width:0.727273;fill:none" />
    <path
       class="ColorScheme-Text"
       fill="currentColor"
       d="m -20.002,7 a 3.50025,3.50025 0 1 0 0,7.0005 3.50025,3.50025 0 0 0 0,-7.0005 z m 0,1.0005 V 13 a 2.4998,2.4998 0 1 1 0,-4.9995 z"
       id="path841" />
    <path
       d="m -27,4 c -0.554,0 -1,0.446 -1,1 v 10 c 0,0.554 0.446,1 1,1 h 5 v 1 c 0,0 0,1 -1,1 v 1 h 6 v -1 c -1,0 -1,-1 -1,-1 v -1 h 5 c 0.554,0 1,-0.446 1,-1 V 5 c 0,-0.554 -0.446,-1 -1,-1 z m 0.5,0.996 h 13 c 0,0 0.5,0 0.5,0.5 v 9 c 0,0.5 -0.5,0.5 -0.5,0.5 h -13 c -0.5,0 -0.5,-0.5 -0.5,-0.5 v -9 c 0,0 0,-0.5 0.5,-0.5 z"
       class="ColorScheme-Text"
       fill="currentColor"
       id="path843" />
  </g>
</svg>
