<?xml version="1.0" encoding="UTF-8" standalone="no"?>
<svg
   id="window"
   version="1.1"
   viewBox="0 0 32 16"
   sodipodi:docname="window.svg"
   inkscape:version="1.2.1 (9c6d41e410, 2022-07-14)"
   xmlns:inkscape="http://www.inkscape.org/namespaces/inkscape"
   xmlns:sodipodi="http://sodipodi.sourceforge.net/DTD/sodipodi-0.dtd"
   xmlns="http://www.w3.org/2000/svg"
   xmlns:svg="http://www.w3.org/2000/svg">
  <defs
     id="defs39" />
  <sodipodi:namedview
     id="namedview37"
     pagecolor="#ffffff"
     bordercolor="#000000"
     borderopacity="0.25"
     inkscape:showpageshadow="2"
     inkscape:pageopacity="0.0"
     inkscape:pagecheckerboard="0"
     inkscape:deskcolor="#d1d1d1"
     showgrid="true"
     inkscape:zoom="3.6875"
     inkscape:cx="24.542373"
     inkscape:cy="34.305085"
     inkscape:window-width="1368"
     inkscape:window-height="712"
     inkscape:window-x="0"
     inkscape:window-y="30"
     inkscape:window-maximized="1"
     inkscape:current-layer="window">
    <inkscape:grid
       type="xygrid"
       id="grid8717" />
  </sodipodi:namedview>
  <style
     id="current-color-scheme"
     type="text/css">.ColorScheme-Text {
            color:#5c616c;
        }
        .ColorScheme-ButtonFocus{
            color:#3daee9;
        }</style>
  <g
     id="window-list"
     transform="translate(-286 -545.36)">
    <path
       d="m286 561.36h32v32h-32z"
       fill="#333"
       opacity="0"
       id="path3" />
    <path
       class="ColorScheme-Text"
       d="m290 565.36v10h10v-10zm1 1h8v8h-8z"
       fill="currentColor"
       id="path5" />
    <path
       class="ColorScheme-Text"
       d="m304 565.36v10h10v-10zm1 1h8v8h-8z"
       fill="currentColor"
       id="path7" />
    <path
       class="ColorScheme-Text"
       d="m290 579.36v10h10v-10zm1 1h8v8h-8z"
       fill="currentColor"
       id="path9" />
    <path
       class="ColorScheme-Text"
       d="m304 579.36v10h10v-10zm1 1h8v8h-8z"
       fill="currentColor"
       id="path11" />
  </g>
  <g
     id="16-16-window-pin">
    <path
       d="m0 0h16v16h-16z"
       fill="none"
       id="path14" />
    <path
       class="ColorScheme-Text"
       d="m10.5 1.793-0.70703 0.70703 0.20703 0.79297-3.3379 3.3379c-0.82695-0.41249-1.738-0.62839-2.6621-0.63086l-0.35352 0.35352 2.6465 2.6465-3.293 3.293v0.70703h0.70703l3.293-3.293 2.6465 2.6465 0.35352-0.35352c-0.0024726-0.92411-0.21837-1.8352-0.63086-2.6621l3.3379-3.3379 0.79297 0.20703 0.70703-0.70703z"
       fill="currentColor"
       id="path16" />
  </g>
  <g
     id="window-pin"
     transform="translate(-22 -6)">
    <path
       class="ColorScheme-Text"
       d="m14.5 2.793-0.70703 0.70703 0.5 1.5-4.7051 4.7051c-0.8904-0.46119-1.8781-0.70293-2.8809-0.70508h-0.70703l-0.35352 0.35352 3.1465 3.1465-5.793 5.793v0.70703h0.70703l5.793-5.793 3.1465 3.1465 0.35352-0.35352v-0.70703c-0.0021-1.0027-0.24388-1.9905-0.70508-2.8809l4.7051-4.7051 1.5 0.5 0.70703-0.70703z"
       fill="currentColor"
       stroke-linecap="square"
       stroke-miterlimit="0"
       id="path19" />
    <path
       d="m0 0h22v22h-22z"
       fill="none"
       id="path21" />
  </g>
  <g
     id="16-16-window-unpin"
     transform="translate(16)">
    <path
       d="m0 0h16v16h-16z"
       fill="none"
       id="path24" />
    <path
       class="ColorScheme-ButtonFocus"
       d="m10.5 1.793-0.70703 0.70703 0.20703 0.79297-3.3379 3.3379c-0.82695-0.41249-1.738-0.62839-2.6621-0.63086l-0.35352 0.35352 2.6465 2.6465-3.293 3.293v0.70703h0.70703l3.293-3.293 2.6465 2.6465 0.35352-0.35352c-0.0024726-0.92411-0.21837-1.8352-0.63086-2.6621l3.3379-3.3379 0.79297 0.20703 0.70703-0.70703z"
       fill="currentColor"
       id="path26" />
  </g>
  <g
     id="window-unpin"
     transform="translate(32 -6)">
    <path
       class="ColorScheme-ButtonFocus"
       d="m14.5 2.793-0.70703 0.70703 0.5 1.5-4.7051 4.7051c-0.8904-0.46119-1.8781-0.70293-2.8809-0.70508h-0.70703l-0.35352 0.35352 3.1465 3.1465-5.793 5.793v0.70703h0.70703l5.793-5.793 3.1465 3.1465 0.35352-0.35352v-0.70703c-0.0021-1.0027-0.24388-1.9905-0.70508-2.8809l4.7051-4.7051 1.5 0.5 0.70703-0.70703z"
       fill="currentColor"
       stroke-linecap="square"
       stroke-miterlimit="0"
       id="path29" />
    <path
       d="m0 0h22v22h-22z"
       fill="none"
       id="path31" />
  </g>
  <path
     id="8-8-window-pin"
     class="ColorScheme-Text"
     d="m5.293-8-0.29297 0.29297 0.29297 0.70703-2 2-1.5859-1-0.70703 0.70703 1.793 1.793-2.793 2.793v0.70703h0.70703l2.793-2.793 1.793 1.793 0.70703-0.70703-1-1.5859 2-2 0.70703 0.29297 0.29297-0.29297v-0.41406l-2.293-2.293z"
     fill="currentColor"
     stroke-miterlimit="0" />
  <path
     id="8-8-window-unpin"
     class="ColorScheme-ButtonFocus"
     d="m24.293-8-0.29297 0.29297 0.29297 0.70703-2 2-1.5859-1-0.70703 0.70703 1.793 1.793-2.793 2.793v0.70703h0.70703l2.793-2.793 1.793 1.793 0.70703-0.70703-1-1.5859 2-2 0.70703 0.29297 0.29297-0.29297v-0.41406l-2.293-2.293z"
     fill="currentColor"
     stroke-miterlimit="0" />
  <g
     id="window-close">
    <rect
       class="ColorScheme-Text"
       width="22"
       height="22"
       fill-opacity="0"
       id="rect26"
       style="color:#333333"
       x="41.942371"
       y="19.101694" />
    <path
       id="rect8719"
       d="m 47.993152,24.445444 -0.707031,0.707031 4.949219,4.949219 -4.949218,4.949219 0.707031,0.707031 4.949218,-4.949218 4.949219,4.949218 0.707031,-0.707031 -4.949218,-4.949219 4.949218,-4.949218 -0.707031,-0.707032 -4.949219,4.949219 z"
       class="ColorScheme-Text"
       fill="currentColor" />
  </g>
  <g
     id="16-16-window-close">
    <rect
       x="71.142372"
       y="22.2917"
       width="16"
       height="16"
       fill="none"
       id="rect37" />
    <path
       id="rect11690"
       d="m 75.253701,25.695997 -0.707032,0.707031 3.888672,3.888672 -3.888672,3.888672 0.707032,0.707032 3.888672,-3.888672 3.888671,3.888671 0.707031,-0.707031 -3.888671,-3.888671 3.888671,-3.888672 -0.707031,-0.707032 -3.888672,3.888672 z"
       class="ColorScheme-Text"
       fill="currentColor" />
  </g>
</svg>
