<svg width="32" height="32" version="1" xmlns="http://www.w3.org/2000/svg">
 <defs id="materia">
  <style id="current-color-scheme" type="text/css">.ColorScheme-Background {color:#181818; } .ColorScheme-ButtonBackground { color:#343434; } .ColorScheme-Highlight { color:#1a73e8; } .ColorScheme-Text { color:#dfdfdf; } .ColorScheme-ViewBackground { color:#242424; } .ColorScheme-NegativeText { color:#ff4747; }</style>
 </defs>
 <g id="22-22-yakuake" transform="translate(32,10)">
  <rect width="22" height="22" opacity=".001"/>
  <path class="ColorScheme-Text" d="m2.5012 5.5496v0.033482h16.998v-0.033482zm16.998 0.033482v11.833h-16.998v-11.833h-0.66825v12.5h18.334v-12.5zm-7.9008 2.8907-2.5 2.5 0.88451 0.88451 2.5-2.5z" fill="currentColor" fill-opacity=".3"/>
  <path class="ColorScheme-Text" d="m1.4167 3.9168h19.167c0.23084 0 0.41667 0.18584 0.41667 0.41667v0.83336c0 0.23084-0.18584 0.41667-0.41667 0.41667h-19.167c-0.23084 0-0.41667-0.18584-0.41667-0.41667v-0.83336c0-0.23084 0.18584-0.41667 0.41667-0.41667zm6.0665 4.5575-0.88422 0.88422 2.0597 2.0579-2.0597 2.0579 0.88422 0.88422 2.9422-2.9422zm3.5175 6.2767v1.25h4.5827v-1.25z" fill="currentColor"/>
 </g>
 <g id="yakuake">
  <rect width="32" height="32" opacity=".001"/>
  <path class="ColorScheme-Text" d="m4.1016 8.3691v0.046875h23.797v-0.046875h-23.797zm23.797 0.046875v16.566h-23.797v-16.566h-0.93555v17.5h25.668v-17.5h-0.93555zm-11.061 4.0469-3.5 3.5 1.2383 1.2383 3.5-3.5-1.2383-1.2383z" fill="currentColor" fill-opacity=".3"/>
  <path d="m17.458 13.083-3.5 3.5" color="#000000" fill="#2980b9" stroke-width="1.75" style="-inkscape-stroke:none"/>
  <path class="ColorScheme-Text" d="m2.5833 6.0833h26.833c0.32317 0 0.58333 0.26017 0.58333 0.58333v1.1667c0 0.32317-0.26017 0.58333-0.58333 0.58333h-26.833c-0.32317 0-0.58333-0.26017-0.58333-0.58333v-1.1667c0-0.32317 0.26017-0.58333 0.58333-0.58333zm8.493 6.3804-1.2379 1.2379 2.8835 2.881-2.8835 2.881 1.2379 1.2379 4.119-4.119zm4.9244 8.7873v1.75h6.4158v-1.75z" fill="currentColor"/>
 </g>
</svg>
