<?xml version="1.0" encoding="UTF-8" standalone="no"?>
<svg
   width="173"
   height="56"
   version="1.1"
   viewBox="0 0 173 56"
   id="svg139"
   sodipodi:docname="panel-background.svg"
   inkscape:version="1.1.1 (3bf5ae0d25, 2021-09-20, custom)"
   xmlns:inkscape="http://www.inkscape.org/namespaces/inkscape"
   xmlns:sodipodi="http://sodipodi.sourceforge.net/DTD/sodipodi-0.dtd"
   xmlns:xlink="http://www.w3.org/1999/xlink"
   xmlns="http://www.w3.org/2000/svg"
   xmlns:svg="http://www.w3.org/2000/svg"
   xmlns:rdf="http://www.w3.org/1999/02/22-rdf-syntax-ns#"
   xmlns:cc="http://creativecommons.org/ns#"
   xmlns:dc="http://purl.org/dc/elements/1.1/">
  <metadata
     id="metadata143">
    <rdf:RDF>
      <cc:Work
         rdf:about="">
        <dc:format>image/svg+xml</dc:format>
        <dc:type
           rdf:resource="http://purl.org/dc/dcmitype/StillImage" />
      </cc:Work>
    </rdf:RDF>
  </metadata>
  <sodipodi:namedview
     pagecolor="#ffffff"
     bordercolor="#666666"
     borderopacity="1"
     objecttolerance="10"
     gridtolerance="10"
     guidetolerance="10"
     inkscape:pageopacity="0"
     inkscape:pageshadow="2"
     inkscape:window-width="1447"
     inkscape:window-height="894"
     id="namedview141"
     showgrid="false"
     inkscape:zoom="7.1560691"
     inkscape:cx="33.887319"
     inkscape:cy="21.380453"
     inkscape:window-x="471"
     inkscape:window-y="34"
     inkscape:window-maximized="0"
     inkscape:current-layer="svg139"
     inkscape:pagecheckerboard="0">
    <inkscape:grid
       type="xygrid"
       id="grid1069" />
  </sodipodi:namedview>
  <defs
     id="defs13">
    <style
       id="current-color-scheme"
       type="text/css">.ColorScheme-Text {
        color:#31363b;
        stop-color:#31363b;
      }
      .ColorScheme-Background {
        color:#eff0f1;
        stop-color:#eff0f1;
      }
      .ColorScheme-Highlight {
        color:#3daee9;
        stop-color:#3daee9;
      }
      .ColorScheme-ViewText {
        color:#31363b;
        stop-color:#31363b;
      }
      .ColorScheme-ViewBackground {
        color:#fcfcfc;
        stop-color:#fcfcfc;
      }
      .ColorScheme-ViewHover {
        color:#93cee9;
        stop-color:#93cee9;
      }
      .ColorScheme-ViewFocus{
        color:#3daee9;
        stop-color:#3daee9;
      }
      .ColorScheme-ButtonText {
        color:#31363b;
        stop-color:#31363b;
      }
      .ColorScheme-ButtonBackground {
        color:#eff0f1;
        stop-color:#eff0f1;
      }
      .ColorScheme-ButtonHover {
        color:#93cee9;
        stop-color:#93cee9;
      }
      .ColorScheme-ButtonFocus{
        color:#3daee9;
        stop-color:#3daee9;
      }</style>
    <linearGradient
       id="linearGradient4950"
       x1="51"
       x2="69"
       y1="932.36"
       y2="932.36"
       gradientUnits="userSpaceOnUse"
       xlink:href="#linearGradient4270" />
    <linearGradient
       id="linearGradient4270">
      <stop
         stop-color="#000000"
         stop-opacity=".66663"
         offset="0"
         id="stop4" />
      <stop
         stop-color="#000000"
         stop-opacity="0"
         offset="1"
         id="stop6" />
    </linearGradient>
    <linearGradient
       id="linearGradient4948"
       x1="-15.571"
       x2="-7.8571"
       y1="932.36"
       y2="932.36"
       gradientTransform="matrix(2.3333,0,0,1,17.333,0)"
       gradientUnits="userSpaceOnUse"
       xlink:href="#linearGradient4270" />
    <linearGradient
       id="linearGradient4934"
       x1="951.79"
       x2="960.36"
       y1="-35"
       y2="-35"
       gradientTransform="matrix(2.3333,0,0,1,-1272.5,0)"
       gradientUnits="userSpaceOnUse"
       xlink:href="#linearGradient4270" />
    <linearGradient
       id="linearGradient4920"
       x1="-912.93"
       x2="-905.22"
       y1="-35"
       y2="-35"
       gradientTransform="matrix(2.3333,0,0,1,1213.8,0)"
       gradientUnits="userSpaceOnUse"
       xlink:href="#linearGradient4270" />
    <radialGradient
       id="radialGradient1805"
       cx="77"
       cy="12"
       r="10"
       gradientTransform="matrix(0,-1.8,1.8,0,55.4,150.6)"
       gradientUnits="userSpaceOnUse"
       xlink:href="#linearGradient4270" />
  </defs>
  <rect
     id="hint-tile-center"
     y="-1.4648437e-05"
     width="5"
     height="5"
     fill="#ff6600"
     x="0" />
  <g
     id="top"
     transform="translate(0,-904.36)">
    <rect
       class="ColorScheme-Background"
       transform="matrix(0,-1,-1,0,0,0)"
       x="-916.35999"
       y="-51"
       width="6"
       height="32"
       fill="currentColor"
       id="rect16" />
  </g>
  <g
     id="topleft"
     transform="translate(0,-904.36)">
    <path
       transform="translate(0,904.36)"
       d="m 18,6 c -2.77,0 -5,2.23 -5,5 v 1 h 4 1 1 V 11 7 6 Z"
       fill="currentColor"
       id="path19"
       class="ColorScheme-Background" />
  </g>
  <g
     id="topright"
     transform="translate(0,-904.36)">
    <path
       transform="translate(0,904.36)"
       d="m 51,6 v 1 4 1 h 1 1 3 1 V 11 C 57,8.23 54.77,6 52,6 Z"
       fill="currentColor"
       id="path22"
       class="ColorScheme-Background" />
  </g>
  <g
     id="bottom"
     transform="translate(0,-904.36)">
    <rect
       class="ColorScheme-Background"
       transform="rotate(90)"
       x="948.35999"
       y="-51"
       width="6"
       height="32"
       fill="currentColor"
       id="rect25" />
  </g>
  <g
     id="bottomleft"
     transform="translate(0,-904.36)">
    <path
       transform="translate(0,904.36)"
       d="m 13,44 v 1 c 0,2.77 2.23,5 5,5 h 1 v -1 -4 -1 h -1 -1 -3 z"
       fill="currentColor"
       id="path28"
       class="ColorScheme-Background" />
  </g>
  <g
     id="bottomright"
     transform="translate(0,-904.36)">
    <path
       transform="translate(0,904.36)"
       d="m 51,44 v 1 4 1 h 1 c 2.77,0 5,-2.23 5,-5 v -1 h -1 -3 -1 z"
       fill="currentColor"
       id="path31"
       class="ColorScheme-Background" />
  </g>
  <g
     id="left"
     transform="translate(0,-904.36)">
    <rect
       class="ColorScheme-Background"
       transform="scale(-1,1)"
       x="-19"
       y="916.35999"
       width="6"
       height="32"
       fill="currentColor"
       id="rect34" />
  </g>
  <g
     id="right"
     transform="translate(0,-904.36)">
    <rect
       class="ColorScheme-Background"
       x="51"
       y="916.35999"
       width="6"
       height="32"
       fill="currentColor"
       id="rect37" />
  </g>
  <g
     id="center"
     transform="translate(0,-904.36)">
    <rect
       x="19"
       y="916.35999"
       width="32"
       height="32"
       fill="none"
       id="rect40" />
    <rect
       class="ColorScheme-Background"
       x="19"
       y="916.35999"
       width="32"
       height="32"
       fill="currentColor"
       id="rect42" />
  </g>
  <rect
     id="hint-top-inset"
     x="33"
     y="3"
     width="4"
     height="0.1"
     fill="#ff00ff" />
  <rect
     id="hint-bottom-inset"
     x="33"
     y="53"
     width="4"
     height="0.1"
     fill="#ff00ff" />
  <rect
     id="hint-right-inset"
     transform="rotate(90)"
     x="21"
     y="-60"
     width="4"
     height="0.1"
     fill="#ff00ff" />
  <rect
     id="hint-left-inset"
     transform="rotate(90)"
     x="26"
     y="-10.1"
     width="4"
     height="0.1"
     fill="#ff00ff" />
  <g
     id="mask-top"
     transform="translate(116,-904.36)">
    <rect
       transform="matrix(0,-1,-1,0,0,0)"
       x="-915.35999"
       y="-51"
       width="5"
       height="32"
       fill="#000000"
       opacity="0.97"
       id="rect49" />
  </g>
  <g
     id="mask-topleft"
     transform="translate(116,-904.36)">
    <path
       transform="translate(-116,904.36)"
       d="m 134,6 c -2.77,0 -5,2.23 -5,5 h 5 z"
       fill="#000000"
       opacity="0.97"
       id="path52" />
  </g>
  <g
     id="mask-topright"
     transform="translate(116,-904.36)">
    <path
       transform="translate(-116,904.36)"
       d="m 168,6 v 5 h 5 c 0,-2.77 -2.23,-5 -5,-5 z"
       fill="#000000"
       opacity="0.97"
       id="path55" />
  </g>
  <g
     id="mask-bottom"
     transform="translate(116,-904.36)">
    <rect
       transform="rotate(90)"
       x="949.35999"
       y="-51"
       width="5"
       height="32"
       fill="#000000"
       opacity="0.97"
       id="rect58" />
  </g>
  <g
     id="mask-bottomleft"
     transform="translate(116,-904.36)">
    <path
       transform="translate(-116,904.36)"
       d="m 129,45 c 0,2.77 2.23,5 5,5 v -5 z"
       fill="#000000"
       opacity="0.97"
       id="path61" />
  </g>
  <g
     id="mask-bottomright"
     transform="translate(116,-904.36)">
    <path
       transform="translate(-116,904.36)"
       d="m 168,45 v 5 c 2.77,0 5,-2.23 5,-5 z"
       fill="#000000"
       opacity="0.97"
       id="path64" />
  </g>
  <g
     id="mask-left"
     transform="translate(116,-904.36)">
    <rect
       transform="scale(-1,1)"
       x="-18"
       y="916.35999"
       width="5"
       height="32"
       fill="#000000"
       opacity="0.97"
       id="rect67" />
  </g>
  <g
     id="mask-right"
     transform="translate(116,-904.36)">
    <rect
       x="52"
       y="916.35999"
       width="5"
       height="32"
       fill="#000000"
       opacity="0.97"
       id="rect70" />
  </g>
  <g
     id="mask-center"
     transform="translate(116,-904.36)">
    <rect
       x="19"
       y="916.35999"
       width="32"
       height="32"
       fill="none"
       id="rect73" />
    <rect
       x="19"
       y="916.35999"
       width="32"
       height="32"
       fill="#000000"
       opacity="0.97"
       id="rect75" />
  </g>
  <g
     id="shadow-top"
     transform="translate(58,-904.36)">
    <rect
       transform="matrix(0,-1,-1,0,0,0)"
       x="-916.35999"
       y="-51"
       width="6"
       height="32"
       fill="none"
       id="rect78" />
    <rect
       transform="matrix(0,-1,-1,0,0,0)"
       x="-910.35999"
       y="-51"
       width="14"
       height="32"
       fill="url(#linearGradient4920)"
       opacity="0.15"
       id="rect80"
       style="fill:url(#linearGradient4920)" />
    <rect
       transform="matrix(0,-1,-1,0,0,0)"
       x="-911.35999"
       y="-51"
       width="0.99997997"
       height="32"
       fill="none"
       id="rect82" />
    <rect
       transform="matrix(0,-1,-1,0,0,0)"
       x="-910.35999"
       y="-51"
       width="1"
       height="32"
       fill="#000000"
       opacity="0.15"
       id="rect84" />
  </g>
  <g
     id="shadow-topleft"
     transform="translate(58,-904.36)">
    <path
       transform="translate(-58,904.36)"
       d="m 57,-8 v 20 c 4.6667,6e-6 9.3333,9e-6 14,0 v -1 c 0,-2.77 2.23,-5 5,-5 h 1 V -8 Z"
       fill="url(#radialGradient1805)"
       fill-rule="evenodd"
       opacity="0.15"
       id="path87"
       style="fill:url(#radialGradient1805)" />
    <rect
       transform="scale(-1,1)"
       x="-19"
       y="910.35999"
       width="6"
       height="6"
       ry="0.99997997"
       fill="none"
       id="rect89" />
    <rect
       transform="scale(-1,1)"
       x="-19"
       y="910.35999"
       width="2"
       height="6"
       ry="0"
       fill="none"
       id="rect91" />
    <rect
       transform="scale(-1,1)"
       x="-18"
       y="914.35999"
       width="5"
       height="2"
       fill="none"
       id="rect93" />
    <path
       transform="translate(-58,904.36)"
       d="m 76,5 c -3.324,0 -6,2.676 -6,6 v 1 h 1 v -1 c 0,-2.77 2.23,-5 5,-5 h 1 V 5 Z"
       fill="#000000"
       opacity="0.15"
       id="path95"
       fill-rule="evenodd" />
  </g>
  <g
     id="shadow-bottom"
     transform="translate(58,-904.36)">
    <rect
       transform="rotate(90)"
       x="948.35999"
       y="-51"
       width="6"
       height="32"
       fill="none"
       id="rect98" />
    <rect
       transform="rotate(90)"
       x="954.35999"
       y="-51"
       width="14"
       height="32"
       fill="url(#linearGradient4934)"
       opacity="0.15"
       id="rect100"
       style="fill:url(#linearGradient4934)" />
    <rect
       transform="rotate(90)"
       x="953.35999"
       y="-51"
       width="1"
       height="32"
       fill="none"
       id="rect102" />
    <rect
       transform="rotate(90)"
       x="954.35999"
       y="-51"
       width="0.99997997"
       height="32"
       fill="#000000"
       opacity="0.15"
       id="rect104" />
  </g>
  <g
     id="shadow-left"
     transform="translate(58,-904.36)">
    <rect
       transform="scale(-1,1)"
       x="-19"
       y="916.35999"
       width="6"
       height="32"
       fill="none"
       id="rect107" />
    <rect
       transform="scale(-1,1)"
       x="-13"
       y="916.35999"
       width="14"
       height="32"
       fill="url(#linearGradient4948)"
       opacity="0.15"
       id="rect109"
       style="fill:url(#linearGradient4948)" />
    <rect
       transform="scale(-1,1)"
       x="-14"
       y="916.35999"
       width="1"
       height="32"
       fill="none"
       id="rect111" />
    <rect
       transform="scale(-1,1)"
       x="-13"
       y="916.35999"
       width="1"
       height="32"
       fill="#000000"
       opacity="0.15"
       id="rect113" />
  </g>
  <g
     id="shadow-right"
     transform="translate(58,-904.36)">
    <rect
       x="51"
       y="916.35999"
       width="6"
       height="32"
       fill="none"
       id="rect116" />
    <rect
       x="57"
       y="916.35999"
       width="14"
       height="32"
       fill="url(#linearGradient4950)"
       opacity="0.15"
       id="rect118"
       style="fill:url(#linearGradient4950)" />
    <rect
       x="56"
       y="916.35999"
       width="1"
       height="32"
       fill="none"
       id="rect120" />
    <rect
       x="57"
       y="916.35999"
       width="1"
       height="32"
       fill="#000000"
       opacity="0.15"
       id="rect122" />
  </g>
  <g
     id="shadow-center"
     transform="translate(58,-904.36)"
     fill="none">
    <rect
       x="19"
       y="916.35999"
       width="32"
       height="32"
       id="rect125" />
    <rect
       x="19"
       y="916.35999"
       width="32"
       height="32"
       id="rect127" />
  </g>
  <rect
     id="shadow-hint-top-inset"
     x="91"
     y="-8.0000143"
     width="4"
     height="14"
     fill="#ff00ff" />
  <rect
     id="shadow-hint-bottom-inset"
     x="91"
     y="49.999985"
     width="4"
     height="14"
     fill="#ff00ff" />
  <rect
     id="shadow-hint-right-inset"
     transform="rotate(90)"
     x="25.999985"
     y="-129"
     width="4"
     height="14"
     fill="#ff00ff" />
  <rect
     id="shadow-hint-left-inset"
     transform="rotate(90)"
     x="25.999985"
     y="-71"
     width="4"
     height="14"
     fill="#ff00ff" />
  <rect
     id="shadow-hint-top-margin"
     x="86"
     y="-8"
     width="3.9999998"
     height="14"
     fill="#ff00ff"
     style="fill:#00ff00;stroke-width:1.52753" />
  <rect
     id="shadow-hint-bottom-margin"
     x="96"
     y="50"
     width="3.9999998"
     height="14"
     fill="#ff00ff"
     style="fill:#00ff00;stroke-width:1.52752" />
  <rect
     id="shadow-hint-right-margin"
     transform="rotate(90)"
     x="21"
     y="-129"
     width="3.9999769"
     height="14"
     fill="#ff00ff"
     style="fill:#00ff00;stroke-width:1.52753" />
  <rect
     id="shadow-hint-left-margin"
     transform="rotate(90)"
     x="31"
     y="-71"
     width="4.0000229"
     height="14"
     fill="#ff00ff"
     style="fill:#00ff00;stroke-width:1.52753" />
  <use
     id="shadow-topright"
     transform="rotate(90,93,28)"
     width="100%"
     height="100%"
     xlink:href="#shadow-topleft"
     x="0"
     y="0" />
  <use
     id="shadow-bottomleft"
     transform="rotate(-90,93,28)"
     width="100%"
     height="100%"
     xlink:href="#shadow-topleft"
     x="0"
     y="0" />
  <use
     id="shadow-bottomright"
     transform="rotate(180,93,28)"
     width="100%"
     height="100%"
     xlink:href="#shadow-topleft"
     x="0"
     y="0" />
  <rect
     id="thick-hint-top-margin"
     x="34"
     y="6"
     width="4"
     height="6"
     fill="#ff00ff" />
  <rect
     id="thick-hint-bottom-margin"
     x="30"
     y="44"
     width="4"
     height="6"
     fill="#ff00ff" />
  <rect
     id="thick-right-margin"
     transform="rotate(90)"
     x="28"
     y="-57"
     width="4"
     height="6"
     fill="#ff00ff" />
  <rect
     id="thick-hint-left-margin"
     transform="rotate(90)"
     x="24"
     y="-19"
     width="4"
     height="6"
     fill="#ff00ff" />
  <rect
     id="hint-bottom-margin"
     x="34"
     y="44"
     height="6"
     fill="#800080"
     width="4" />
  <rect
     id="hint-left-margin"
     transform="rotate(90)"
     x="28"
     y="-19"
     width="4"
     height="6"
     fill="#800080" />
  <rect
     id="hint-top-margin"
     x="30"
     y="6"
     width="4"
     height="6"
     fill="#800080" />
  <rect
     id="hint-right-margin"
     transform="rotate(90)"
     x="24"
     y="-57"
     width="4"
     height="6"
     fill="#800080" />
</svg>
