<?xml version="1.0" encoding="UTF-8" standalone="no"?>
<svg
   xmlns:dc="http://purl.org/dc/elements/1.1/"
   xmlns:cc="http://creativecommons.org/ns#"
   xmlns:rdf="http://www.w3.org/1999/02/22-rdf-syntax-ns#"
   xmlns:svg="http://www.w3.org/2000/svg"
   xmlns="http://www.w3.org/2000/svg"
   xmlns:sodipodi="http://sodipodi.sourceforge.net/DTD/sodipodi-0.dtd"
   xmlns:inkscape="http://www.inkscape.org/namespaces/inkscape"
   version="1.1"
   id="svg2"
   viewBox="0 0 32.808331 13.758333"
   height="52"
   width="124"
   sodipodi:docname="configuration-icons.svgz"
   inkscape:version="0.92.4 5da689c313, 2019-01-14">
  <sodipodi:namedview
     pagecolor="#ffffff"
     bordercolor="#666666"
     borderopacity="1"
     objecttolerance="10"
     gridtolerance="10"
     guidetolerance="10"
     inkscape:pageopacity="0"
     inkscape:pageshadow="2"
     inkscape:window-width="1366"
     inkscape:window-height="705"
     id="namedview96"
     showgrid="false"
     inkscape:zoom="3.8726199"
     inkscape:cx="46.774845"
     inkscape:cy="18.22195"
     inkscape:window-x="0"
     inkscape:window-y="34"
     inkscape:window-maximized="1"
     inkscape:current-layer="svg2" />
  <defs
     id="defs4">
    <style
       id="current-color-scheme"
       type="text/css">
      .ColorScheme-Text {
        color:#31363b;
        stop-color:#31363b;
      }
      .ColorScheme-Background {
        color:#eff0f1;
        stop-color:#eff0f1;
      }
      .ColorScheme-Highlight {
        color:#3daee9;
        stop-color:#3daee9;
      }
      .ColorScheme-ViewText {
        color:#31363b;
        stop-color:#31363b;
      }
      .ColorScheme-ViewBackground {
        color:#fcfcfc;
        stop-color:#fcfcfc;
      }
      .ColorScheme-ViewHover {
        color:#93cee9;
        stop-color:#93cee9;
      }
      .ColorScheme-ViewFocus{
        color:#3daee9;
        stop-color:#3daee9;
      }
      .ColorScheme-ButtonText {
        color:#31363b;
        stop-color:#31363b;
      }
      .ColorScheme-ButtonBackground {
        color:#eff0f1;
        stop-color:#eff0f1;
      }
      .ColorScheme-ButtonHover {
        color:#93cee9;
        stop-color:#93cee9;
      }
      .ColorScheme-ButtonFocus{
        color:#3daee9;
        stop-color:#3daee9;
      }
      </style>
    <filter
       id="a"
       color-interpolation-filters="sRGB">
      <feBlend
         mode="darken"
         in2="BackgroundImage"
         id="feBlend926" />
    </filter>
  </defs>
  <metadata
     id="metadata7">
    <rdf:RDF>
      <cc:Work
         rdf:about="">
        <dc:format>image/svg+xml</dc:format>
        <dc:type
           rdf:resource="http://purl.org/dc/dcmitype/StillImage" />
        <dc:title />
      </cc:Work>
    </rdf:RDF>
  </metadata>
  <g
     id="menu"
     transform="translate(0.5291667,-249.37493)">
    <rect
       y="249.37497"
       x="-0.52916771"
       height="4.2333322"
       width="4.2333336"
       id="rect4152"
       style="opacity:1;fill:none;fill-opacity:1;stroke:none" />
    <rect
       style="opacity:1;fill:none;fill-opacity:1;stroke:none"
       id="rect4154"
       width="3.1750002"
       height="3.1749992"
       x="-1.0174132e-06"
       y="249.90414" />
    <path
       inkscape:connector-curvature="0"
       id="rect4167"
       d="m 4.5328302e-8,250.16875 v 0.52917 H 3.1750002 v -0.52917 z m 0,1.05833 v 0.52917 H 3.1750002 v -0.52917 z m 0,1.05834 v 0.52916 H 3.1750002 v -0.52916 z"
       style="color:#31363b;opacity:1;fill:#d3dae3;fill-opacity:1;stroke:none;stroke-opacity:1"
       class="ColorScheme-Text" />
  </g>
  <g
     id="rotate"
     transform="translate(0.5291667,-249.37493)">
    <rect
       y="249.37497"
       x="8.9958344"
       height="4.2333322"
       width="4.2333336"
       id="rect4176"
       style="opacity:1;fill:none;fill-opacity:1;stroke:none" />
    <rect
       style="opacity:1;fill:none;fill-opacity:1;stroke:none"
       id="rect4178"
       width="3.1750002"
       height="3.1749992"
       x="9.5250006"
       y="249.90414" />
    <path
       inkscape:connector-curvature="0"
       style="color:#31363b;text-decoration:none;text-decoration-line:none;display:inline;overflow:visible;visibility:visible;fill:#d3dae3;fill-opacity:1;fill-rule:nonzero;stroke:none;enable-background:accumulate"
       d="M 44.171875,1.671875 43.464844,2.3789062 44.414062,3.328125 45.085938,4 H 41 v 1 h 4.085938 L 44.414062,5.671875 43.464844,6.6210938 44.171875,7.328125 45.121094,6.3789062 47,4.5 45.121094,2.6210938 Z M 39.5,5 C 39.22386,5 39,5.2237543 39,5.5 39,5.7762835 39.223861,6 39.5,6 39.77614,6 40,5.7762457 40,5.5 40,5.2237165 39.776139,5 39.5,5 Z M 46.46875,6.5625 42.5625,10.46875 46.09375,14 50,10.09375 Z M 38.5,8 C 38.22386,8 38,8.2237543 38,8.5 38,8.7762835 38.223862,9 38.5,9 38.77614,9 39,8.7762457 39,8.5 39,8.2237165 38.776139,8 38.5,8 Z m 1,3 C 39.22386,11 39,11.223754 39,11.5 39,11.776283 39.223861,12 39.5,12 39.77614,12 40,11.776246 40,11.5 40,11.223717 39.776139,11 39.5,11 Z m 3,1 C 42.223868,12 42,12.223754 42,12.5 42,12.776283 42.22386,13 42.5,13 42.776132,13 43,12.776246 43,12.5 43,12.223717 42.77614,12 42.5,12 Z"
       transform="matrix(0.26458333,0,0,0.26458333,-0.52916771,249.37493)"
       id="rect4144-9"
       class="ColorScheme-Text" />
  </g>
  <g
     id="move"
     transform="translate(0.5291667,-249.37493)">
    <rect
       style="opacity:1;fill:none;fill-opacity:1;stroke:none"
       id="rect4213"
       width="4.2333336"
       height="4.2333322"
       x="13.758335"
       y="249.37497" />
    <rect
       y="249.90414"
       x="14.287501"
       height="3.1749992"
       width="3.1750002"
       id="rect4215"
       style="opacity:1;fill:none;fill-opacity:1;stroke:none" />
    <path
       inkscape:connector-curvature="0"
       id="path4404"
       d="m 15.875001,249.90414 -0.529166,0.79375 h 1.058333 z m -0.79375,1.05833 -0.79375,0.52917 0.79375,0.52916 z m 1.5875,0 v 1.05833 l 0.79375,-0.52916 z m -0.79375,0.26458 c -0.146125,0 -0.264583,0.11846 -0.264583,0.26459 0,0.14612 0.118458,0.26458 0.264583,0.26458 0.146126,0 0.264584,-0.11846 0.264584,-0.26458 0,-0.14613 -0.118458,-0.26459 -0.264584,-0.26459 z m -0.529166,1.05834 0.529166,0.79375 0.529167,-0.79375 z"
       style="color:#31363b;fill:#d3dae3;fill-opacity:1;stroke:none"
       class="ColorScheme-Text" />
  </g>
  <g
     id="size-vertical"
     transform="translate(0.5291667,-249.37493)">
    <rect
       y="249.37497"
       x="18.520834"
       height="4.2333322"
       width="4.2333336"
       id="rect4257"
       style="opacity:1;fill:none;fill-opacity:1;stroke:none" />
    <rect
       style="opacity:1;fill:none;fill-opacity:1;stroke:none"
       id="rect4259"
       width="3.1750002"
       height="3.1749992"
       x="19.050001"
       y="249.90414" />
    <path
       inkscape:connector-curvature="0"
       style="color:#31363b;fill:#d3dae3;fill-opacity:1;stroke:none"
       d="m 20.637501,249.90414 -0.529166,0.79375 h 1.058333 z m 0,1.32291 c -0.146125,0 -0.264583,0.11846 -0.264583,0.26459 0,0.14612 0.118458,0.26458 0.264583,0.26458 0.146126,0 0.264584,-0.11846 0.264584,-0.26458 0,-0.14613 -0.118458,-0.26459 -0.264584,-0.26459 z m -0.529166,1.05834 0.529166,0.79375 0.529167,-0.79375 z"
       id="path4263"
       class="ColorScheme-Text" />
  </g>
  <g
     id="size-horizontal"
     transform="translate(0.5291667,-249.37493)">
    <rect
       style="opacity:1;fill:none;fill-opacity:1;stroke:none"
       id="rect4265"
       width="4.2333336"
       height="4.2333322"
       x="23.283333"
       y="249.37497" />
    <rect
       y="249.90414"
       x="23.8125"
       height="3.1749992"
       width="3.1750002"
       id="rect4267"
       style="opacity:1;fill:none;fill-opacity:1;stroke:none" />
    <path
       inkscape:connector-curvature="0"
       id="path4269"
       d="m 26.987502,251.49164 -0.79375,-0.52917 v 1.05834 z m -1.32291,0 c 0,-0.14613 -0.11846,-0.26458 -0.26459,-0.26458 -0.14612,0 -0.26458,0.11845 -0.26458,0.26458 0,0.14613 0.11846,0.26458 0.26458,0.26458 0.14613,0 0.26459,-0.11845 0.26459,-0.26458 z m -1.05834,-0.52917 -0.79375,0.52917 0.79375,0.52917 z"
       style="color:#31363b;fill:#d3dae3;fill-opacity:1;stroke:none"
       class="ColorScheme-Text" />
  </g>
  <g
     id="size-diagonal-tr2bl"
     transform="translate(0.5291667,-249.37493)">
    <rect
       y="249.37497"
       x="28.045832"
       height="4.2333322"
       width="4.2333336"
       id="rect4271"
       style="opacity:1;fill:none;fill-opacity:1;stroke:none" />
    <rect
       style="opacity:1;fill:none;fill-opacity:1;stroke:none"
       id="rect4273"
       width="3.1750002"
       height="3.1749992"
       x="28.574999"
       y="249.90414" />
    <path
       inkscape:connector-curvature="0"
       id="rect3354"
       d="m 29.368751,253.07915 v -0.26458 h -0.606682 l 0.871265,-0.87127 -0.187068,-0.18706 -0.871265,0.87126 v -0.60668 h -0.264584 v 1.05833 h 0.264584 z"
       style="color:#31363b;fill:#d3dae3;fill-opacity:1;stroke:none"
       class="ColorScheme-Text" />
    <path
       inkscape:connector-curvature="0"
       id="rect3378"
       transform="matrix(0.26458334,0,0,0.26458334,-0.52916664,249.37498)"
       d="m 109,2 v 1 1 3 1 h 1 V 7 4 3 h 1 4 2 V 2 h -2 -4 -1 z m 13,6 v 1 3 1 h -2 -3 -2 v 1 h 2 3 2 1 V 12 9 8 Z"
       style="color:#31363b;fill:#d3dae3;fill-opacity:1;stroke:none"
       class="ColorScheme-Text" />
    <path
       inkscape:connector-curvature="0"
       style="color:#31363b;fill:#d3dae3;fill-opacity:1;stroke:none"
       d="m 30.95625,249.90415 v 0.26458 h 0.606682 L 30.691667,251.04 30.878735,251.22706 31.75,250.3558 v 0.60668 h 0.264584 v -1.05833 H 31.75 Z"
       id="path4303"
       class="ColorScheme-Text" />
  </g>
  <g
     id="size-diagonal-tl2br"
     transform="translate(0.5291667,-249.37493)">
    <rect
       style="opacity:1;fill:none;fill-opacity:1;stroke:none"
       id="rect4308"
       width="4.2333336"
       height="4.2333322"
       x="-0.52916676"
       y="254.13741" />
    <rect
       y="254.66658"
       x="8.4756147e-07"
       height="3.1749992"
       width="3.1750002"
       id="rect4310"
       style="opacity:1;fill:none;fill-opacity:1;stroke:none" />
    <path
       inkscape:connector-curvature="0"
       style="color:#31363b;fill:#d3dae3;fill-opacity:1;stroke:none"
       d="m 2.3812496,257.84168 v -0.26458 h 0.6066819 l -0.8712649,-0.87127 0.187068,-0.18706 0.8712649,0.87126 v -0.60668 h 0.264584 v 1.05833 h -0.264584 z"
       id="path4312"
       class="ColorScheme-Text" />
    <path
       inkscape:connector-curvature="0"
       style="color:#31363b;fill:#d3dae3;fill-opacity:1;stroke:none"
       d="m 3.4395835,254.66667 v 0.26459 0.26458 0.79375 0.26458 h -0.264584 v -0.26458 -0.79375 -0.26458 H 2.9104166 1.8520836 1.3229166 v -0.26459 h 0.529167 1.058333 0.2645829 z M -4e-7,256.25417 v 0.26459 0.79375 0.26458 h 0.529167 0.79375 0.529167 v 0.26458 H 1.3229166 0.5291666 -4e-7 -0.2645834 v -0.52916 -0.79375 -0.26459 z"
       id="path4314"
       class="ColorScheme-Text" />
    <path
       inkscape:connector-curvature="0"
       id="path4316"
       d="m 0.7937506,254.66668 v 0.26458 h -0.606682 l 0.871265,0.87127 -0.187068,0.18706 L 6e-7,255.11833 v 0.60668 h -0.264584 v -1.05833 H 6e-7 Z"
       style="color:#31363b;fill:#d3dae3;fill-opacity:1;stroke:none"
       class="ColorScheme-Text" />
  </g>
  <g
     id="maximize"
     transform="translate(0.5291667,-249.37493)">
    <rect
       y="254.13741"
       x="4.2333331"
       height="4.2333322"
       width="4.2333336"
       id="rect4318"
       style="opacity:1;fill:none;fill-opacity:1;stroke:none" />
    <rect
       style="opacity:1;fill:none;fill-opacity:1;stroke:none"
       id="rect4320"
       width="3.1750002"
       height="3.1749992"
       x="4.7625008"
       y="254.66658" />
    <path
       inkscape:connector-curvature="0"
       id="path4322"
       d="m 7.1437499,254.66667 v 0.26458 h 0.6066819 l -0.8712649,0.87127 0.187068,0.18706 0.8712649,-0.87126 v 0.60668 h 0.264584 v -1.05833 h -0.264584 z"
       style="color:#31363b;fill:#d3dae3;fill-opacity:1;stroke:none"
       class="ColorScheme-Text" />
    <path
       inkscape:connector-curvature="0"
       id="path4324"
       transform="matrix(0.26458333,0,0,0.26458334,-0.52916771,249.37497)"
       d="m 19,20 v 2 3 1 5 1 h 1 5 2 4 1 1 v -1 -1 -3 -1 h -1 v 1 3 1 h -1 -4 -2 -5 v -5 -1 -3 -1 h 2 3 2 v -1 h -2 -3 -2 z"
       style="color:#31363b;fill:#d3dae3;fill-opacity:1;stroke:none"
       class="ColorScheme-Text" />
  </g>
  <g
     id="unmaximize"
     transform="translate(0.5291667,-249.37493)">
    <rect
       style="opacity:1;fill:none;fill-opacity:1;stroke:none"
       id="rect4333"
       width="4.2333336"
       height="4.2333322"
       x="8.9958324"
       y="254.13741" />
    <rect
       y="254.66658"
       x="9.5249996"
       height="3.1749992"
       width="3.1750002"
       id="rect4335"
       style="opacity:1;fill:none;fill-opacity:1;stroke:none" />
    <path
       inkscape:connector-curvature="0"
       style="color:#31363b;fill:#d3dae3;fill-opacity:1;stroke:none"
       d="M 12.700003,255.98958 V 255.725 h -0.606682 l 0.871265,-0.87127 -0.187068,-0.18706 -0.871266,0.87126 v -0.60668 h -0.264584 v 1.05833 h 0.264584 z"
       id="path4337"
       class="ColorScheme-Text" />
    <path
       inkscape:connector-curvature="0"
       style="color:#31363b;fill:#d3dae3;fill-opacity:1;stroke:none"
       d="m 9.2604158,254.66664 v 0.52916 0.79375 0.26459 1.32291 0.26459 h 0.2645833 1.3229169 0.529167 1.058334 0.264584 0.264583 v -0.26459 -0.26458 -0.79375 -0.26458 h -0.264583 v 0.26458 0.79375 0.26458 H 12.435417 11.377083 10.847916 9.5249991 v -1.32291 -0.26459 -0.79375 -0.26458 h 0.5291669 0.79375 0.529167 v -0.26458 h -0.529167 -0.79375 -0.5291669 z"
       id="path4339"
       class="ColorScheme-Text" />
  </g>
  <g
     id="status"
     transform="translate(0.5291667,-249.37493)">
    <rect
       y="254.13741"
       x="13.758333"
       height="4.2333322"
       width="4.2333336"
       id="rect4341"
       style="opacity:1;fill:none;fill-opacity:1;stroke:none" />
    <rect
       style="opacity:1;fill:none;fill-opacity:1;stroke:none"
       id="rect4343"
       width="3.1750002"
       height="3.1749992"
       x="14.2875"
       y="254.66658" />
    <g
       id="layer1-70"
       transform="matrix(0.26458333,0,0,0.26458334,-97.820237,113.43444)">
      <path
         inkscape:connector-curvature="0"
         id="rect4083"
         transform="translate(367.71428,513.79097)"
         d="m 56,20 v 3 3 1 5 H 57 60.970703 68 V 31 21 20 H 63.148438 57 Z m 1,3 h 7.345703 L 62.628906,29.408203 60.662109,26 H 60.369141 57.505859 57 Z m 8.382812,0 H 67 v 8 H 63.238281 Z M 57,27 h 3.083984 l 2.308594,4 H 57 Z"
         style="color:#31363b;fill:#d3dae3;fill-opacity:1;stroke:none"
         class="ColorScheme-Text" />
    </g>
  </g>
  <g
     id="collapse"
     transform="translate(0.5291667,-249.37493)">
    <rect
       y="254.13741"
       x="23.283337"
       height="4.2333322"
       width="4.2333336"
       id="rect4397"
       style="opacity:1;fill:none;fill-opacity:1;stroke:none" />
    <rect
       style="opacity:1;fill:none;fill-opacity:1;stroke:none"
       id="rect4399"
       width="3.1750002"
       height="3.1749992"
       x="23.812504"
       y="254.66658" />
    <path
       inkscape:connector-curvature="0"
       style="color:#31363b;opacity:1;fill:#d3dae3;fill-opacity:1;stroke:none"
       d="m 24.870835,254.66664 0.529166,0.52916 0.529167,-0.52916 z m -1.058334,1.32291 v 0.52917 h 3.175 v -0.52917 z m 1.5875,1.32292 -0.529166,0.52917 h 1.058333 z"
       id="path4401"
       class="ColorScheme-Text" />
  </g>
  <g
     id="return-to-source"
     transform="translate(0.5291667,-249.37493)">
    <rect
       style="opacity:1;fill:none;fill-opacity:1;stroke:none"
       id="rect4380"
       width="4.2333336"
       height="4.2333322"
       x="18.520832"
       y="254.13741" />
    <rect
       y="254.66658"
       x="19.049999"
       height="3.1749992"
       width="3.1750002"
       id="rect4382"
       style="opacity:1;fill:none;fill-opacity:1;stroke:none" />
    <path
       inkscape:connector-curvature="0"
       id="rect4403"
       transform="matrix(0.26458333,0,0,0.26458334,-0.52916771,249.37497)"
       d="M 74,20 V 32 H 86 V 20 Z m 4,1 h 4 l -2,2 z m -3,4 h 10 v 2 H 75 Z m 5,4 2,2 h -4 z"
       style="color:#31363b;opacity:1;fill:#d3dae3;fill-opacity:1;stroke:none"
       class="ColorScheme-Text" />
  </g>
  <g
     id="restore"
     transform="translate(0.5291667,-249.37493)">
    <rect
       style="opacity:1;fill:none;fill-opacity:1;stroke:none"
       id="rect4414"
       width="4.2333336"
       height="4.2333322"
       x="28.045841"
       y="254.13741" />
    <rect
       y="254.66658"
       x="28.575008"
       height="3.1749992"
       width="3.1750002"
       id="rect4416"
       style="opacity:1;fill:none;fill-opacity:1;stroke:none" />
    <path
       inkscape:connector-curvature="0"
       id="path4418"
       d="m 29.633338,255.1958 0.529166,-0.52916 0.529167,0.52916 z m -1.058334,0.79375 v 0.52917 h 3.175 v -0.52917 z m 1.5875,1.85209 -0.529166,-0.52917 h 1.058333 z"
       style="color:#31363b;opacity:1;fill:#d3dae3;fill-opacity:1;stroke:none"
       class="ColorScheme-Text" />
  </g>
  <g
     id="help"
     transform="translate(0.5291667,-249.37493)">
    <rect
       y="258.89993"
       x="-0.52916676"
       height="4.2333322"
       width="4.2333336"
       id="rect4420"
       style="opacity:1;fill:none;fill-opacity:1;stroke:none" />
    <rect
       style="opacity:1;fill:none;fill-opacity:1;stroke:none"
       id="rect4422"
       width="3.1750002"
       height="3.1749992"
       x="8.4756147e-07"
       y="259.42911" />
    <path
       inkscape:connector-curvature="0"
       style="color:#31363b;opacity:1;fill:#d3dae3;fill-opacity:1;stroke:none;stroke-opacity:1"
       d="M 1.5875009,259.42911 A 1.5875,1.5875001 0 0 0 9.929289e-7,261.01661 1.5875,1.5875001 0 0 0 1.5875009,262.60411 a 1.5875,1.5875001 0 0 0 1.5875,-1.5875 1.5875,1.5875001 0 0 0 -1.5875,-1.5875 z M 9.929289e-7,259.69369 v 0.52917 L 0.52916759,259.69369 Z m 1.5874999070711,0 a 1.3229166,1.3229167 0 0 1 0.6325195,0.16123 l -0.4025594,0.40256 a 0.79374998,0.79375003 0 0 0 -0.2299601,-0.0346 0.79374998,0.79375003 0 0 0 -0.2299601,0.0346 l -0.40152591,-0.40153 a 1.3229166,1.3229167 0 0 1 0.63148601,-0.16226 z m 1.0583333,0 0.5291667,0.52917 v -0.52917 z m -2.22001941,0.6904 0.4025594,0.40256 a 0.79374998,0.79375003 0 0 0 -0.034623,0.22996 0.79374998,0.79375003 0 0 0 0.034623,0.22996 l -0.4015259,0.40152 a 1.3229166,1.3229167 0 0 1 -0.162264,-0.63148 1.3229166,1.3229167 0 0 1 0.1612305,-0.63252 z m 2.32233881,10e-4 a 1.3229166,1.3229167 0 0 1 0.1622639,0.63149 1.3229166,1.3229167 0 0 1 -0.1612304,0.63252 l -0.4025593,-0.40253 a 0.79374998,0.79375003 0 0 0 0.034623,-0.22996 0.79374998,0.79375003 0 0 0 -0.034623,-0.22996 l 0.4015258,-0.40153 z m -1.1606527,0.10232 a 0.52916665,0.52916669 0 0 1 0.5291667,0.52917 0.52916665,0.52916669 0 0 1 -0.5291667,0.52916 0.52916665,0.52916669 0 0 1 -0.5291667,-0.52916 0.52916665,0.52916669 0 0 1 0.5291667,-0.52917 z m -0.2299601,1.28829 a 0.79374998,0.79375003 0 0 0 0.2299601,0.0346 0.79374998,0.79375003 0 0 0 0.2299601,-0.0346 l 0.4015259,0.40153 a 1.3229166,1.3229167 0 0 1 -0.631486,0.16226 1.3229166,1.3229167 0 0 1 -0.63251951,-0.16123 z M 9.929289e-7,261.8103 v 0.52916 H 0.52916759 Z m 3.1749999070711,0 -0.5291667,0.52916 h 0.5291667 z"
       id="path59"
       class="ColorScheme-Text" />
  </g>
  <g
     id="add"
     transform="translate(0.5291667,-249.37493)">
    <rect
       y="258.89993"
       x="8.9958324"
       height="4.2333322"
       width="4.2333336"
       id="rect4488"
       style="opacity:1;fill:none;fill-opacity:1;stroke:none" />
    <rect
       style="opacity:1;fill:none;fill-opacity:1;stroke:none"
       id="rect4490"
       width="3.1750002"
       height="3.1749992"
       x="9.5249996"
       y="259.42911" />
    <path
       inkscape:connector-curvature="0"
       style="color:#31363b;opacity:1;fill:#d3dae3;fill-opacity:1;stroke:none"
       d="m 43,38 v 5 h -5 v 2 h 5 v 5 h 2 v -5 h 5 v -2 h -5 v -5 z"
       transform="matrix(0.26458333,0,0,0.26458333,-0.52916771,249.37493)"
       id="rect4498"
       class="ColorScheme-Text" />
  </g>
  <g
     id="remove"
     transform="translate(0.5291667,-249.37493)">
    <rect
       style="opacity:1;fill:none;fill-opacity:1;stroke:none"
       id="rect4502"
       width="4.2333336"
       height="4.2333322"
       x="13.758328"
       y="258.89993" />
    <rect
       y="259.42911"
       x="14.287497"
       height="3.1749992"
       width="3.1750002"
       id="rect4504"
       style="opacity:1;fill:none;fill-opacity:1;stroke:none" />
    <rect
       y="-17.462498"
       x="260.75204"
       height="3.175"
       width="0.5291667"
       id="rect4508"
       style="color:#31363b;opacity:1;fill:#d3dae3;fill-opacity:1;stroke:none"
       transform="rotate(90)"
       class="ColorScheme-Text" />
  </g>
  <g
     id="filter"
     transform="translate(0.5291667,-249.37493)">
    <rect
       y="258.89993"
       x="18.520828"
       height="4.2333322"
       width="4.2333336"
       id="rect4527"
       style="opacity:1;fill:none;fill-opacity:1;stroke:none" />
    <rect
       style="opacity:1;fill:none;fill-opacity:1;stroke:none"
       id="rect4529"
       width="3.1750002"
       height="3.1749992"
       x="19.049997"
       y="259.42911" />
    <path
       inkscape:connector-curvature="0"
       id="path4545"
       transform="matrix(0.26458333,0,0,0.26458334,-0.52916771,249.37497)"
       d="m 76,38 -1,1 v 1 l 3,5.259766 V 48 48.002 l 3,1.996094 v 0.002 h 1 V 49.461032 45.25986 L 85,40 v -1 l -1,-1 z m 0,1 h 8 v 0.734375 l -3,5.263672 v 0.002 1 2.794922 L 79,47.464844 V 45 44.998 l -3,-5.263672 z m 1,1 2,2 v -1 l 1,-1 z"
       style="color:#31363b;fill:#d3dae3;fill-opacity:1;fill-rule:evenodd;stroke:none;stroke-width:0.26458335px;stroke-linecap:butt;stroke-linejoin:miter;stroke-opacity:1"
       class="ColorScheme-Text" />
  </g>
  <g
     id="close"
     transform="translate(0.5291667,-249.37493)">
    <path
       inkscape:connector-curvature="0"
       id="path4142"
       d="m 25.400004,259.42911 a 1.5875,1.5875 0 0 0 -1.5875,1.5875 1.5875,1.5875 0 0 0 1.5875,1.5875 1.5875,1.5875 0 0 0 1.5875,-1.5875 1.5875,1.5875 0 0 0 -1.5875,-1.5875 z m -0.606682,0.79375 0.606682,0.60668 0.606681,-0.60668 0.187069,0.18707 -0.606682,0.60668 0.606682,0.60668 -0.187069,0.18707 -0.606681,-0.60668 -0.606682,0.60668 -0.187068,-0.18707 0.606681,-0.60668 -0.606681,-0.60668 z"
       style="opacity:1;fill:#ed5059;fill-opacity:1;stroke:none" />
    <rect
       y="258.89993"
       x="23.283339"
       height="4.2333322"
       width="4.2333336"
       id="rect4253"
       style="opacity:1;fill:none;fill-opacity:1;stroke:none" />
    <rect
       style="opacity:1;fill:none;fill-opacity:1;stroke:none"
       id="rect4255"
       width="3.1750002"
       height="3.1749992"
       x="23.812508"
       y="259.42911" />
  </g>
  <g
     id="configure"
     transform="translate(0.5291667,-249.37493)">
    <rect
       style="opacity:1;fill:none;fill-opacity:1;stroke:none"
       id="rect4156"
       width="4.2333336"
       height="4.2333322"
       x="4.2333336"
       y="249.37497" />
    <path
       inkscape:connector-curvature="0"
       style="fill:#d3dae3;fill-opacity:1;stroke-width:0.26458332"
       d="m 6.2917438,249.6401 c -0.034396,0.003 -0.079375,0.009 -0.1156229,0.0249 0,0 -0.023548,0.0783 -0.04154,0.27278 -0.02196,0.23813 -0.1132416,0.29898 -0.1817687,0.3474 -0.068792,0.0484 -0.089958,0.0627 -0.1158875,0.0744 -0.1344084,0.0225 -0.2542646,0.037 -0.43815,-0.11562 -0.1502833,-0.12489 -0.2148417,-0.16537 -0.2148417,-0.16537 -0.074083,0.0291 -0.1407583,0.10742 -0.1407583,0.10742 0,0 -0.078052,0.0661 -0.1074208,0.1405 0,0 0.040481,0.0648 0.1653646,0.2151 0.1526645,0.18362 0.138377,0.30374 0.1158874,0.43815 -0.011642,0.0257 -0.025929,0.0471 -0.074613,0.11563 -0.048419,0.0688 -0.1092729,0.16007 -0.3471333,0.18203 -0.1944687,0.018 -0.2645833,0.0413 -0.2645833,0.0413 -0.03175,0.0733 -0.033073,0.17357 -0.033073,0.17357 0,0 0.00132,0.10054 0.033073,0.17383 0,0 0.070115,0.0233 0.2645833,0.0413 0.2378604,0.022 0.29845,0.11324 0.3471333,0.18177 0.048683,0.0688 0.062971,0.0899 0.074613,0.11588 0.02249,0.13441 0.037042,0.25453 -0.1158874,0.43815 -0.1248834,0.15029 -0.1653646,0.21511 -0.1653646,0.21511 0.029369,0.0741 0.1074208,0.14023 0.1074208,0.14023 0,0 0.066146,0.0786 0.1407583,0.10768 0,0 0.064558,-0.0405 0.2148417,-0.16536 0.1838854,-0.15267 0.3037416,-0.13811 0.43815,-0.11562 0.025665,0.0116 0.047096,0.0257 0.1158875,0.0741 0.068792,0.0487 0.1598083,0.10954 0.1817687,0.3474 0.017992,0.19447 0.04154,0.26458 0.04154,0.26458 0.07329,0.0318 0.1735667,0.0331 0.1735667,0.0331 0,0 0.1005416,-0.001 0.1735666,-0.0331 0,0 0.023548,-0.0699 0.041275,-0.26458 0.02196,-0.23786 0.1124479,-0.3011 0.2233083,-0.38021 v -0.008 c 0.026458,-0.01 0.048683,-0.0214 0.074348,-0.0331 0.1344082,-0.0228 0.2545292,-0.037 0.4384142,0.11562 0.150019,0.12488 0.214842,0.16536 0.214842,0.16536 0.07435,-0.0291 0.140494,-0.10742 0.140494,-0.10742 0,0 0.07832,-0.0661 0.107685,-0.14049 0,0 -0.04048,-0.0648 -0.165364,-0.21511 -0.15293,-0.18362 -0.138378,-0.30374 -0.115888,-0.43815 0.01164,-0.0257 0.02328,-0.0481 0.03307,-0.0743 h 0.0082 c 0.07937,-0.11112 0.14261,-0.20108 0.380471,-0.2233 0.194469,-0.018 0.272785,-0.0413 0.272785,-0.0413 0.03175,-0.0733 0.02487,-0.17383 0.02487,-0.17383 0,0 0.0069,-0.10054 -0.02487,-0.17357 0,0 -0.07832,-0.0233 -0.272785,-0.0413 -0.238125,-0.022 -0.301096,-0.11218 -0.380471,-0.22331 -0.0098,-0.0265 -0.02963,-0.0487 -0.04128,-0.0743 -0.02249,-0.13441 -0.03704,-0.25453 0.115888,-0.43815 0.124618,-0.15028 0.165364,-0.2151 0.165364,-0.2151 -0.02937,-0.0741 -0.107685,-0.1405 -0.107685,-0.1405 0,0 -0.06615,-0.0783 -0.140229,-0.10742 0,0 -0.06482,0.0405 -0.215107,0.16537 -0.183885,0.15266 -0.298979,0.13758 -0.4630205,0.0661 -0.1640416,-0.0714 -0.2510896,-0.13414 -0.27305,-0.37227 -0.017992,-0.19447 -0.041275,-0.27252 -0.041275,-0.27252 -0.073025,-0.0323 -0.1735666,-0.0254 -0.1735666,-0.0254 0,0 -0.023813,-0.003 -0.057944,0 z m 0.057944,1.32291 a 0.52917,0.52917 0 1 1 0,1.05834 0.52917,0.52917 0 0 1 0,-1.05834 z"
       id="path908" />
  </g>
  <g
     id="delete"
     transform="translate(0.5291667,-249.37493)">
    <rect
       style="opacity:1;fill:none;fill-opacity:1;stroke:none"
       id="rect4456"
       width="4.2333336"
       height="4.2333322"
       x="4.2333331"
       y="258.89993" />
    <g
       transform="matrix(0.26458332,0,0,0.26458332,4.2333331,258.90178)"
       id="g945"
       style="fill:#ed5059;fill-opacity:1;enable-background:new">
      <g
         style="color:#000000;font-weight:400;font-family:Sans;fill:#ed5059;fill-opacity:1"
         font-weight="400"
         id="g933">
        <path
           inkscape:connector-curvature="0"
           style="line-height:normal;-inkscape-font-specification:Sans;text-indent:0;text-align:start;text-decoration:none;text-decoration-line:none;text-transform:none;overflow:visible;fill:#ed5059;fill-opacity:1;marker:none;enable-background:accumulate"
           d="m 2,3.993 v 10 c 0,0.524 0.476,1 1,1 h 9 c 0.524,0 1,-0.476 1,-1 v -10 h -1 v 10 H 3 v -10 z m -0.938,-1 H 14 c 0,-1 -1,-1 -1,-1 h -3 c 0,0 0,-1 -1,-1 H 6 c -1,0 -1,1 -1,1 H 2 c 0,0 -0.938,0 -0.938,1 z"
           overflow="visible"
           id="path931" />
      </g>
    </g>
  </g>
</svg>
