<?xml version="1.0" encoding="UTF-8" standalone="no"?>
<!-- Created with Inkscape (http://www.inkscape.org/) -->

<svg
   xmlns:dc="http://purl.org/dc/elements/1.1/"
   xmlns:cc="http://creativecommons.org/ns#"
   xmlns:rdf="http://www.w3.org/1999/02/22-rdf-syntax-ns#"
   xmlns:svg="http://www.w3.org/2000/svg"
   xmlns="http://www.w3.org/2000/svg"
   xmlns:sodipodi="http://sodipodi.sourceforge.net/DTD/sodipodi-0.dtd"
   xmlns:inkscape="http://www.inkscape.org/namespaces/inkscape"
   width="128"
   height="128"
   id="svg2"
   sodipodi:version="0.32"
   inkscape:version="0.92.4 5da689c313, 2019-01-14"
   version="1.0"
   sodipodi:docname="slider.svgz"
   inkscape:output_extension="org.inkscape.output.svgz.inkscape"
   inkscape:export-filename="arrow-up.png"
   inkscape:export-xdpi="11.25"
   inkscape:export-ydpi="11.25">
  <sodipodi:namedview
     id="base"
     pagecolor="#eff0f1"
     bordercolor="#666666"
     borderopacity="1.0"
     gridtolerance="10000"
     guidetolerance="10"
     objecttolerance="10"
     inkscape:pageopacity="1"
     inkscape:pageshadow="2"
     inkscape:zoom="8.2604168"
     inkscape:cx="-0.28189808"
     inkscape:cy="114.14123"
     inkscape:document-units="px"
     inkscape:current-layer="layer1"
     width="128px"
     height="128px"
     showgrid="true"
     inkscape:window-width="1366"
     inkscape:window-height="711"
     inkscape:window-x="0"
     inkscape:window-y="27"
     inkscape:snap-nodes="true"
     inkscape:snap-global="true"
     inkscape:window-maximized="1"
     inkscape:snap-page="true">
    <inkscape:grid
       id="GridFromPre046Settings"
       type="xygrid"
       originx="0"
       originy="0"
       spacingx="1"
       spacingy="1"
       color="#0000ff"
       empcolor="#0000ff"
       opacity="0.01960784"
       empopacity="0.03921569"
       empspacing="2"
       visible="true"
       enabled="true"
       snapvisiblegridlinesonly="true" />
  </sodipodi:namedview>
  <defs
     id="defs4">
    <style
       id="current-color-scheme"
       type="text/css">
      .ColorScheme-Text {
        color:#31363b;
        stop-color:#31363b;
      }
      .ColorScheme-Background {
        color:#eff0f1;
        stop-color:#eff0f1;
      }
      .ColorScheme-Highlight {
        color:#3daee9;
        stop-color:#3daee9;
      }
      .ColorScheme-ViewText {
        color:#31363b;
        stop-color:#31363b;
      }
      .ColorScheme-ViewBackground {
        color:#fcfcfc;
        stop-color:#fcfcfc;
      }
      .ColorScheme-ViewHover {
        color:#93cee9;
        stop-color:#93cee9;
      }
      .ColorScheme-ViewFocus{
        color:#3daee9;
        stop-color:#3daee9;
      }
      .ColorScheme-ButtonText {
        color:#31363b;
        stop-color:#31363b;
      }
      .ColorScheme-ButtonBackground {
        color:#eff0f1;
        stop-color:#eff0f1;
      }
      .ColorScheme-ButtonHover {
        color:#93cee9;
        stop-color:#93cee9;
      }
      .ColorScheme-ButtonFocus{
        color:#3daee9;
        stop-color:#3daee9;
      }
      </style>
  </defs>
  <metadata
     id="metadata7">
    <rdf:RDF>
      <cc:Work
         rdf:about="">
        <dc:format>image/svg+xml</dc:format>
        <dc:type
           rdf:resource="http://purl.org/dc/dcmitype/StillImage" />
      </cc:Work>
    </rdf:RDF>
  </metadata>
  <g
     inkscape:label="Layer 1"
     inkscape:groupmode="layer"
     id="layer1">
    <path
       class="ColorScheme-Text"
       inkscape:connector-curvature="0"
       style="opacity:0.3;fill:#000000;fill-opacity:1"
       d="m 10,7 0,3 3,0 0,-3 -3,0 z"
       id="groove-top" />
    <path
       class="ColorScheme-Text"
       style="opacity:0.3;fill:#000000;fill-opacity:1"
       d="M 9,7 C 7.31784,7 6,8.31784 6,10 l 3,0 z"
       id="groove-topleft"
       sodipodi:nodetypes="cccc"
       inkscape:connector-curvature="0" />
    <rect
       ry="2.077126"
       rx="0"
       y="4.6594176"
       x="2.2599621"
       height="2.077126"
       width="2.0329318"
       id="hint-tile-center"
       style="fill:#4e9a06;fill-opacity:1;fill-rule:nonzero;stroke:none" />
    <path
       class="ColorScheme-Text"
       inkscape:connector-curvature="0"
       sodipodi:nodetypes="cccc"
       id="groove-topright"
       d="M 17,10 C 17,8.31784 15.68216,7 14,7 l 0,3 z"
       style="opacity:0.3;fill:#000000;fill-opacity:1" />
    <path
       class="ColorScheme-Text"
       id="groove-bottom"
       d="m 10,18 0,-3 3,0 0,3 -3,0 z"
       style="opacity:0.3;fill:#000000;fill-opacity:1"
       inkscape:connector-curvature="0" />
    <path
       class="ColorScheme-Text"
       inkscape:connector-curvature="0"
       sodipodi:nodetypes="cccc"
       id="groove-bottomleft"
       d="M 9,18 C 7.31784,18 6,16.68216 6,15 l 3,0 z"
       style="opacity:0.3;fill:#000000;fill-opacity:1" />
    <path
       class="ColorScheme-Text"
       style="opacity:0.3;fill:#000000;fill-opacity:1"
       d="m 17,15 c 0,1.68216 -1.31784,3 -3,3 l 0,-3 z"
       id="groove-bottomright"
       sodipodi:nodetypes="cccc"
       inkscape:connector-curvature="0" />
    <path
       class="ColorScheme-Text"
       id="groove-center"
       d="m 10,11 0,3 3,0 0,-3 -3,0 z"
       style="opacity:0.3;fill:#000000;fill-opacity:1"
       inkscape:connector-curvature="0" />
    <path
       class="ColorScheme-Text"
       inkscape:connector-curvature="0"
       style="opacity:0.3;fill:#000000;fill-opacity:1"
       d="m 6,11 0,3 3,0 0,-3 -3,0 z"
       id="groove-left" />
    <path
       class="ColorScheme-Text"
       inkscape:connector-curvature="0"
       style="opacity:0.3;fill:#000000;fill-opacity:1"
       d="m 14,11 0,3 3,0 0,-3 -3,0 z"
       id="groove-right" />
    <path
       id="groove-highlight-top"
       d="m 28,7 0,3 3,0 0,-3 -3,0 z"
       style="fill:#2eb398;fill-opacity:1"
       inkscape:connector-curvature="0"
       class="ColorScheme-ButtonHover" />
    <path
       inkscape:connector-curvature="0"
       sodipodi:nodetypes="cccc"
       id="groove-highlight-topleft"
       d="m 27,7 c -1.68216,0 -3,1.31784 -3,3 l 3,0 z"
       style="fill:#2eb398;fill-opacity:1"
       class="ColorScheme-ButtonHover" />
    <path
       style="fill:#2eb398;fill-opacity:1"
       d="M 35,10 C 35,8.31784 33.68216,7 32,7 l 0,3 z"
       id="groove-highlight-topright"
       sodipodi:nodetypes="cccc"
       inkscape:connector-curvature="0"
       class="ColorScheme-ButtonHover" />
    <path
       inkscape:connector-curvature="0"
       style="fill:#2eb398;fill-opacity:1"
       d="m 28,18 0,-3 3,0 0,3 -3,0 z"
       id="groove-highlight-bottom"
       class="ColorScheme-ButtonHover" />
    <path
       style="fill:#2eb398;fill-opacity:1"
       d="m 27,18 c -1.68216,0 -3,-1.31784 -3,-3 l 3,0 z"
       id="groove-highlight-bottomleft"
       sodipodi:nodetypes="cccc"
       inkscape:connector-curvature="0"
       class="ColorScheme-ButtonHover" />
    <path
       inkscape:connector-curvature="0"
       sodipodi:nodetypes="cccc"
       id="groove-highlight-bottomright"
       d="m 35,15 c 0,1.68216 -1.31784,3 -3,3 l 0,-3 z"
       style="fill:#2eb398;fill-opacity:1"
       class="ColorScheme-ButtonHover" />
    <path
       inkscape:connector-curvature="0"
       style="fill:#2eb398;fill-opacity:1"
       d="m 28,11 0,3 3,0 0,-3 -3,0 z"
       id="groove-highlight-center"
       class="ColorScheme-ButtonHover" />
    <path
       id="groove-highlight-left"
       d="m 24,11 0,3 3,0 0,-3 -3,0 z"
       style="fill:#2eb398;fill-opacity:1"
       inkscape:connector-curvature="0"
       class="ColorScheme-ButtonHover" />
    <path
       id="groove-highlight-right"
       d="m 32,11 0,3 3,0 0,-3 -3,0 z"
       style="fill:#2eb398;fill-opacity:1"
       inkscape:connector-curvature="0"
       class="ColorScheme-ButtonHover" />
    <g
       id="horizontal-slider-hover"
       transform="translate(24,2)">
      <rect
         y="96"
         x="14"
         height="24"
         width="24"
         id="rect3075"
         style="opacity:0.00100002;fill:#000000;fill-opacity:0.00392157;stroke:none" />
      <path
         class="ColorScheme-ButtonHover"
         style="fill:#2eb398;fill-opacity:1"
         d="m 26,98.000001 c -5.522847,0 -10,4.477149 -10,9.999999 0,5.52285 4.477153,10 10,10 5.522847,0 10,-4.47715 10,-10 0,-5.52285 -4.477153,-9.999999 -10,-9.999999 z m 0,1 c 4.970563,0 9,4.029439 9,8.999999 0,4.97056 -4.029437,9 -9,9 -4.970563,0 -9,-4.02944 -9,-9 0,-4.97056 4.029437,-8.999999 9,-8.999999 z"
         id="path3077"
         inkscape:connector-curvature="0" />
      <path
         inkscape:connector-curvature="0"
         class="ColorScheme-ButtonHover"
         id="path3088"
         d="m 26,97 c -6.075132,0 -11,4.92487 -11,11 0,6.07513 4.924868,11 11,11 6.075132,0 11,-4.92487 11,-11 0,-6.07513 -4.924868,-11 -11,-11 z m 0,1 c 5.522847,0 10,4.47715 10,10 0,5.52285 -4.477153,10 -10,10 -5.522847,0 -10,-4.47715 -10,-10 0,-5.52285 4.477153,-10 10,-10 z"
         style="opacity:0.3;fill:#2eb398;fill-opacity:1" />
    </g>
    <g
       id="horizontal-slider-focus"
       transform="translate(52,2)">
      <rect
         style="opacity:0.00100002;fill:#000000;fill-opacity:0.00392157;stroke:none"
         id="rect3104"
         width="24"
         height="24"
         x="14"
         y="96" />
      <path
         inkscape:connector-curvature="0"
         id="path3106"
         d="m 26,98.000001 c -5.522847,0 -10,4.477149 -10,9.999999 0,5.52285 4.477153,10 10,10 5.522847,0 10,-4.47715 10,-10 0,-5.52285 -4.477153,-9.999999 -10,-9.999999 z m 0,1 c 4.970563,0 9,4.029439 9,8.999999 0,4.97056 -4.029437,9 -9,9 -4.970563,0 -9,-4.02944 -9,-9 0,-4.97056 4.029437,-8.999999 9,-8.999999 z"
         style="fill:#2eb398;fill-opacity:1"
         class="ColorScheme-ButtonFocus" />
      <path
         style="opacity:0.3;fill:#2eb398;fill-opacity:1"
         d="m 26,97 c -6.075132,0 -11,4.92487 -11,11 0,6.07513 4.924868,11 11,11 6.075132,0 11,-4.92487 11,-11 0,-6.07513 -4.924868,-11 -11,-11 z m 0,1 c 5.522847,0 10,4.47715 10,10 0,5.52285 -4.477153,10 -10,10 -5.522847,0 -10,-4.47715 -10,-10 0,-5.52285 4.477153,-10 10,-10 z"
         id="path3108"
         class="ColorScheme-ButtonFocus"
         inkscape:connector-curvature="0" />
    </g>
    <g
       transform="matrix(1.2,0,0,1.2,-2.2,63.2)"
       id="horizontal-slider-handle"
       inkscape:label="horizontal-slider-handle">
      <rect
         style="opacity:0.00100002;fill:#000000;fill-opacity:0.00392157;stroke:none"
         id="rect3785-4"
         width="24"
         height="24"
         x="14"
         y="42"
         transform="matrix(0.83333333,0,0,0.83333333,-5.6666667,-6)" />
      <path
         sodipodi:type="arc"
         style="opacity:0.5;fill:currentColor"
         id="path3921-2"
         sodipodi:cx="14"
         sodipodi:cy="40"
         sodipodi:rx="4"
         sodipodi:ry="4"
         d="m 18,40 a 4,4 0 0 1 -4,4 4,4 0 0 1 -4,-4 4,4 0 0 1 4,-4 4,4 0 0 1 4,4 z"
         transform="matrix(2.0833333,0,0,2.0833333,-13.166666,-44.333332)"
         class="ColorScheme-ButtonText" />
      <circle
         transform="matrix(1.875,0,0,1.875,-10.25,-36)"
         id="path3923-4"
         style="fill:currentColor"
         class="ColorScheme-ButtonBackground"
         cx="14"
         cy="40"
         r="4" />
    </g>
    <g
       transform="translate(24,-34)"
       id="vertical-slider-hover">
      <rect
         style="opacity:0.00100002;fill:#000000;fill-opacity:0.00392157;stroke:none"
         id="rect3900"
         width="24"
         height="24"
         x="14"
         y="96" />
      <path
         inkscape:connector-curvature="0"
         id="path3902"
         d="m 26,98.000001 c -5.522847,0 -10,4.477149 -10,9.999999 0,5.52285 4.477153,10 10,10 5.522847,0 10,-4.47715 10,-10 0,-5.52285 -4.477153,-9.999999 -10,-9.999999 z m 0,1 c 4.970563,0 9,4.029439 9,8.999999 0,4.97056 -4.029437,9 -9,9 -4.970563,0 -9,-4.02944 -9,-9 0,-4.97056 4.029437,-8.999999 9,-8.999999 z"
         style="fill:#2eb398;fill-opacity:1"
         class="ColorScheme-ButtonHover" />
      <path
         style="opacity:0.3;fill:#2eb398;fill-opacity:1"
         d="m 26,97 c -6.075132,0 -11,4.92487 -11,11 0,6.07513 4.924868,11 11,11 6.075132,0 11,-4.92487 11,-11 0,-6.07513 -4.924868,-11 -11,-11 z m 0,1 c 5.522847,0 10,4.47715 10,10 0,5.52285 -4.477153,10 -10,10 -5.522847,0 -10,-4.47715 -10,-10 0,-5.52285 4.477153,-10 10,-10 z"
         id="path3904"
         class="ColorScheme-ButtonHover"
         inkscape:connector-curvature="0" />
    </g>
    <g
       transform="translate(52,-34)"
       id="vertical-slider-focus">
      <rect
         y="96"
         x="14"
         height="24"
         width="24"
         id="rect3908"
         style="opacity:0.00100002;fill:#000000;fill-opacity:0.00392157;stroke:none" />
      <path
         class="ColorScheme-ButtonFocus"
         style="fill:#2eb398;fill-opacity:1"
         d="m 26,98.000001 c -5.522847,0 -10,4.477149 -10,9.999999 0,5.52285 4.477153,10 10,10 5.522847,0 10,-4.47715 10,-10 0,-5.52285 -4.477153,-9.999999 -10,-9.999999 z m 0,1 c 4.970563,0 9,4.029439 9,8.999999 0,4.97056 -4.029437,9 -9,9 -4.970563,0 -9,-4.02944 -9,-9 0,-4.97056 4.029437,-8.999999 9,-8.999999 z"
         id="path3910"
         inkscape:connector-curvature="0" />
      <path
         inkscape:connector-curvature="0"
         class="ColorScheme-ButtonFocus"
         id="path3912"
         d="m 26,97 c -6.075132,0 -11,4.92487 -11,11 0,6.07513 4.924868,11 11,11 6.075132,0 11,-4.92487 11,-11 0,-6.07513 -4.924868,-11 -11,-11 z m 0,1 c 5.522847,0 10,4.47715 10,10 0,5.52285 -4.477153,10 -10,10 -5.522847,0 -10,-4.47715 -10,-10 0,-5.52285 4.477153,-10 10,-10 z"
         style="opacity:0.3;fill:#2eb398;fill-opacity:1" />
    </g>
    <g
       inkscape:label="horizontal-slider-handle"
       id="vertical-slider-handle"
       transform="matrix(1.2,0,0,1.2,-2.2,27.2)">
      <rect
         transform="matrix(0.83333333,0,0,0.83333333,-5.6666667,-6)"
         y="42"
         x="14"
         height="24"
         width="24"
         id="rect3922"
         style="opacity:0.00100002;fill:#000000;fill-opacity:0.00392157;stroke:none" />
      <path
         class="ColorScheme-ButtonText"
         transform="matrix(2.0833333,0,0,2.0833333,-13.166666,-44.333332)"
         d="m 18,40 a 4,4 0 0 1 -4,4 4,4 0 0 1 -4,-4 4,4 0 0 1 4,-4 4,4 0 0 1 4,4 z"
         sodipodi:ry="4"
         sodipodi:rx="4"
         sodipodi:cy="40"
         sodipodi:cx="14"
         id="path3924"
         style="opacity:0.5;fill:currentColor"
         sodipodi:type="arc" />
      <circle
         class="ColorScheme-ButtonBackground"
         style="fill:currentColor"
         id="path3926"
         transform="matrix(1.875,0,0,1.875,-10.25,-36)"
         cx="14"
         cy="40"
         r="4" />
    </g>
    <g
       id="horizontal-slider-shadow">
      <rect
         y="98"
         x="96"
         height="24"
         width="24"
         id="rect3114"
         style="opacity:0.00100002;fill:#000000;fill-opacity:0.00392157;stroke:none" />
      <path
         inkscape:connector-curvature="0"
         id="path3118"
         d="m 108,99 c -6.07513,0 -11,4.92487 -11,11 0,6.07513 4.92487,11 11,11 6.07513,0 11,-4.92487 11,-11 0,-6.07513 -4.92487,-11 -11,-11 z m 0,1 c 5.52285,0 10,4.47715 10,10 0,5.52285 -4.47715,10 -10,10 -5.52285,0 -10,-4.47715 -10,-10 0,-5.52285 4.47715,-10 10,-10 z"
         style="opacity:0.05;color:#3daee9;fill:#000000;fill-opacity:1" />
    </g>
    <g
       id="vertical-slider-shadow"
       transform="translate(3,-36)">
      <rect
         style="opacity:0.00100002;fill:#000000;fill-opacity:0.00392157;stroke:none"
         id="rect3824"
         width="24"
         height="24"
         x="96"
         y="98" />
      <path
         style="opacity:0.05;color:#3daee9;fill:#000000;fill-opacity:1"
         d="m 108,99 c -6.07513,0 -11,4.92487 -11,11 0,6.07513 4.92487,11 11,11 6.07513,0 11,-4.92487 11,-11 0,-6.07513 -4.92487,-11 -11,-11 z m 0,1 c 5.52285,0 10,4.47715 10,10 0,5.52285 -4.47715,10 -10,10 -5.52285,0 -10,-4.47715 -10,-10 0,-5.52285 4.47715,-10 10,-10 z"
         id="path3826"
         inkscape:connector-curvature="0" />
    </g>
    <circle
       style="fill:#31363b;fill-opacity:1;stroke:none;stroke-opacity:1"
       id="hint-handle-size"
       cx="52"
       cy="16"
       r="10" />
  </g>
</svg>
