<?xml version="1.0" encoding="UTF-8" standalone="no"?>
<svg
   id="svg4306"
   width="38"
   height="30"
   version="1.1"
   style="enable-background:new"
   sodipodi:docname="close.svg"
   inkscape:version="1.2.2 (b0a8486541, 2022-12-01)"
   xmlns:inkscape="http://www.inkscape.org/namespaces/inkscape"
   xmlns:sodipodi="http://sodipodi.sourceforge.net/DTD/sodipodi-0.dtd"
   xmlns="http://www.w3.org/2000/svg"
   xmlns:svg="http://www.w3.org/2000/svg"
   xmlns:rdf="http://www.w3.org/1999/02/22-rdf-syntax-ns#"
   xmlns:cc="http://creativecommons.org/ns#"
   xmlns:dc="http://purl.org/dc/elements/1.1/">
  <metadata
     id="metadata31">
    <rdf:RDF>
      <cc:Work
         rdf:about="">
        <dc:format>image/svg+xml</dc:format>
        <dc:type
           rdf:resource="http://purl.org/dc/dcmitype/StillImage" />
      </cc:Work>
    </rdf:RDF>
  </metadata>
  <defs
     id="defs29" />
  <sodipodi:namedview
     pagecolor="#303030"
     bordercolor="#666666"
     borderopacity="1"
     objecttolerance="10"
     gridtolerance="10"
     guidetolerance="10"
     inkscape:pageopacity="0"
     inkscape:pageshadow="2"
     inkscape:window-width="1484"
     inkscape:window-height="680"
     id="namedview27"
     showgrid="false"
     inkscape:zoom="2.6818182"
     inkscape:cx="-92.661016"
     inkscape:cy="-0.74576271"
     inkscape:window-x="0"
     inkscape:window-y="32"
     inkscape:window-maximized="0"
     inkscape:current-layer="svg4306"
     inkscape:snap-bbox="true"
     inkscape:bbox-nodes="true"
     inkscape:snap-nodes="false"
     inkscape:showpageshadow="2"
     inkscape:pagecheckerboard="0"
     inkscape:deskcolor="#303030">
    <inkscape:grid
       type="xygrid"
       id="grid892"
       originx="0"
       originy="0" />
  </sodipodi:namedview>
  <g
     style="opacity:0.35"
     id="inactive-center"
     transform="matrix(3.7795,0,0,3.7795,-164.99785,-613.51423)">
    <rect
       x="43.655998"
       y="141.16"
       width="10.05424"
       height="7.9375"
       ry="3.7990001e-06"
       style="opacity:0;stroke-width:0.402175;paint-order:stroke fill markers"
       id="rect956" />
    <path
       inkscape:connector-curvature="0"
       d="m 47.454,143.71 -0.18707,0.18706 1.2294,1.2294 -1.2294,1.2289 0.18707,0.18707 1.2294,-1.2289 1.2289,1.2289 0.18707,-0.18707 -1.2289,-1.2289 1.2289,-1.2294 -0.18707,-0.18706 -1.2289,1.2294 z"
       style="opacity:1;fill:#ffffff;fill-opacity:1;paint-order:stroke fill markers"
       id="path958" />
  </g>
  <g
     id="active-center"
     transform="matrix(3.7795,0,0,3.7795,-164.99785,-572.51423)"
     style="opacity:0.75">
    <rect
       x="43.655998"
       y="141.16"
       width="10.05424"
       height="7.9375"
       ry="3.7990001e-06"
       style="opacity:0;stroke-width:0.402175;paint-order:stroke fill markers"
       id="rect976" />
    <path
       inkscape:connector-curvature="0"
       d="m 47.454,143.71 -0.18707,0.18706 1.2294,1.2294 -1.2294,1.2289 0.18707,0.18707 1.2294,-1.2289 1.2289,1.2289 0.18707,-0.18707 -1.2289,-1.2289 1.2289,-1.2294 -0.18707,-0.18706 -1.2289,1.2294 z"
       style="fill:#ffffff;fill-opacity:1;paint-order:stroke fill markers"
       id="path978" />
  </g>
  <g
     id="hover-center"
     transform="matrix(3.7795,0,0,3.7795,-164.99785,-533.51423)">
    <rect
       x="43.655998"
       y="141.16"
       width="10.05424"
       height="7.9375"
       ry="3.7990001e-06"
       style="fill:#d7787d"
       id="rect996" />
    <path
       inkscape:connector-curvature="0"
       d="m 47.454,143.71 -0.18707,0.18706 1.2294,1.2294 -1.2294,1.2289 0.18707,0.18707 1.2294,-1.2289 1.2289,1.2289 0.18707,-0.18707 -1.2289,-1.2289 1.2289,-1.2294 -0.18707,-0.18706 -1.2289,1.2294 z"
       style="fill:#ffffff;fill-opacity:1;paint-order:stroke fill markers"
       id="path998" />
  </g>
  <g
     id="pressed-center"
     transform="matrix(3.7795,0,0,3.7795,-164.99785,-493.51423)">
    <rect
       x="43.655998"
       y="141.16"
       width="10.05424"
       height="7.9375"
       ry="3.7990001e-06"
       style="fill:#ae4a4f;fill-opacity:1"
       id="rect1016" />
    <path
       inkscape:connector-curvature="0"
       d="m 47.454,143.71 -0.18707,0.18706 1.2294,1.2294 -1.2294,1.2289 0.18707,0.18707 1.2294,-1.2289 1.2289,1.2289 0.18707,-0.18707 -1.2289,-1.2289 1.2289,-1.2294 -0.18707,-0.18706 -1.2289,1.2294 z"
       style="fill:#ffffff;fill-opacity:1;paint-order:stroke fill markers"
       id="path1018" />
  </g>
  <g
     transform="matrix(3.7795,0,0,3.7795,-164.99785,-652.51402)"
     id="deactivated-center"
     style="opacity:0.35">
    <rect
       id="rect880"
       style="opacity:0;stroke-width:0.402175;paint-order:stroke fill markers"
       ry="3.7990001e-06"
       height="7.9375"
       width="10.05424"
       y="141.16"
       x="43.655998" />
    <path
       id="path882"
       style="opacity:1;fill:#ffffff;fill-opacity:1;paint-order:stroke fill markers"
       d="m 47.454,143.71 -0.18707,0.18706 1.2294,1.2294 -1.2294,1.2289 0.18707,0.18707 1.2294,-1.2289 1.2289,1.2289 0.18707,-0.18707 -1.2289,-1.2289 1.2289,-1.2294 -0.18707,-0.18706 -1.2289,1.2294 z"
       inkscape:connector-curvature="0" />
  </g>
</svg>
