<?xml version="1.0" encoding="UTF-8" standalone="no"?>
<svg
   xmlns:osb="http://www.openswatchbook.org/uri/2009/osb"
   xmlns:dc="http://purl.org/dc/elements/1.1/"
   xmlns:cc="http://creativecommons.org/ns#"
   xmlns:rdf="http://www.w3.org/1999/02/22-rdf-syntax-ns#"
   xmlns:svg="http://www.w3.org/2000/svg"
   xmlns="http://www.w3.org/2000/svg"
   xmlns:xlink="http://www.w3.org/1999/xlink"
   xmlns:sodipodi="http://sodipodi.sourceforge.net/DTD/sodipodi-0.dtd"
   xmlns:inkscape="http://www.inkscape.org/namespaces/inkscape"
   id="svg4306"
   width="23"
   height="23"
   version="1.1"
   style="enable-background:new"
   sodipodi:docname="restore.svg"
   inkscape:version="0.92.4 (5da689c313, 2019-01-14)">
  <metadata
     id="metadata24">
    <rdf:RDF>
      <cc:Work
         rdf:about="">
        <dc:format>image/svg+xml</dc:format>
        <dc:type
           rdf:resource="http://purl.org/dc/dcmitype/StillImage" />
        <dc:title />
      </cc:Work>
    </rdf:RDF>
  </metadata>
  <defs
     id="defs22">
    <linearGradient
       id="fg_color"
       osb:paint="solid">
      <stop
         style="stop-color:#d3dae3;stop-opacity:1;"
         offset="0"
         id="stop1387" />
    </linearGradient>
    <linearGradient
       id="b"
       x1="65.087997"
       x2="67.733002"
       y1="145.11"
       y2="145.11"
       gradientUnits="userSpaceOnUse"
       xlink:href="#selected_fg_color" />
    <linearGradient
       id="selected_fg_color"
       osb:paint="solid">
      <stop
         stop-color="#ffffffgit"
         offset="0"
         id="stop11" />
    </linearGradient>
  </defs>
  <sodipodi:namedview
     pagecolor="#3c3c3c"
     bordercolor="#666666"
     borderopacity="1"
     objecttolerance="10"
     gridtolerance="10"
     guidetolerance="10"
     inkscape:pageopacity="0"
     inkscape:pageshadow="2"
     inkscape:window-width="1366"
     inkscape:window-height="704"
     id="namedview20"
     showgrid="true"
     inkscape:zoom="3.7926636"
     inkscape:cx="-36.282969"
     inkscape:cy="43.106592"
     inkscape:window-x="0"
     inkscape:window-y="28"
     inkscape:window-maximized="1"
     inkscape:current-layer="svg4306">
    <inkscape:grid
       type="xygrid"
       id="grid883" />
  </sodipodi:namedview>
  <g
     style="opacity:0.35"
     id="inactive-center"
     transform="matrix(3.7795,0,0,3.7795,-238.99943,-577.45432)">
    <rect
       x="61.382999"
       y="141.14"
       width="10.054"
       height="7.9375"
       ry="3.7990001e-06"
       style="opacity:0;stroke-width:0.40217;paint-order:stroke fill markers"
       id="rect961" />
    <path
       inkscape:connector-curvature="0"
       d="m 65.617,143.79 v 0.52917 h -0.52917 v 2.1167 h 2.1167 V 145.9067 H 67.7337 V 143.79 Z m 0.26458,0.26459 h 1.5875 v 1.5875 H 67.2045 v -1.3229 h -1.3229 z m -0.52917,0.52916 h 1.5875 v 1.5875 h -1.5875 z"
       style="opacity:1;fill:#ffffff;fill-opacity:1;paint-order:stroke fill markers"
       id="path963" />
  </g>
  <g
     id="active-center"
     transform="matrix(3.7795,0,0,3.7795,-238.99943,-536.45432)"
     style="opacity:0.75">
    <rect
       x="61.382999"
       y="141.14"
       width="10.054"
       height="7.9375"
       ry="3.7990001e-06"
       style="opacity:0;stroke-width:0.40217;paint-order:stroke fill markers"
       id="rect981" />
    <path
       inkscape:connector-curvature="0"
       d="m 65.617,143.79 v 0.52917 h -0.52917 v 2.1167 h 2.1167 V 145.9067 H 67.7337 V 143.79 Z m 0.26458,0.26459 h 1.5875 v 1.5875 H 67.2045 v -1.3229 h -1.3229 z m -0.52917,0.52916 h 1.5875 v 1.5875 h -1.5875 z"
       style="fill:#ffffff;fill-opacity:1;paint-order:stroke fill markers"
       id="path983" />
  </g>
  <g
     id="hover-center"
     transform="matrix(3.7795,0,0,3.7795,-238.99943,-497.45432)">
    <rect
       x="61.382999"
       y="141.14"
       width="10.054"
       height="7.9375"
       ry="3.7990001e-06"
       style="opacity:0.1;fill:#ffffff;paint-order:stroke fill markers"
       id="rect1001" />
    <path
       inkscape:connector-curvature="0"
       d="m 65.617,143.79 v 0.52917 h -0.52917 v 2.1167 h 2.1167 V 145.9067 H 67.7337 V 143.79 Z m 0.26458,0.26459 h 1.5875 v 1.5875 H 67.2045 v -1.3229 h -1.3229 z m -0.52917,0.52916 h 1.5875 v 1.5875 h -1.5875 z"
       style="fill:#ffffff;fill-opacity:1;paint-order:stroke fill markers"
       id="path1003" />
  </g>
  <g
     id="pressed-center"
     transform="matrix(3.7795,0,0,3.7795,-238.99943,-457.45432)">
    <rect
       x="61.382999"
       y="141.14"
       width="10.054"
       height="7.9375"
       ry="3.7990001e-06"
       style="opacity:0.25;fill:#ffffff;paint-order:stroke fill markers"
       id="rect1021" />
    <path
       inkscape:connector-curvature="0"
       d="m 65.617,143.79 v 0.52917 h -0.52917 v 2.1167 h 2.1167 V 145.9067 H 67.7337 V 143.79 Z m 0.26458,0.26459 h 1.5875 v 1.5875 H 67.2045 v -1.3229 h -1.3229 z m -0.52917,0.52916 h 1.5875 v 1.5875 h -1.5875 z"
       style="fill:#ffffff;fill-opacity:1;paint-order:stroke fill markers"
       id="path1023" />
  </g>
  <g
     transform="matrix(3.7795,0,0,3.7795,-238.99943,-615.45427)"
     id="deactivated-center"
     style="opacity:0.35">
    <rect
       id="rect73"
       style="opacity:0;stroke-width:0.40217;paint-order:stroke fill markers"
       ry="3.7990001e-06"
       height="7.9375"
       width="10.054"
       y="141.14"
       x="61.382999" />
    <path
       id="path75"
       style="opacity:1;fill:#ffffff;fill-opacity:1;paint-order:stroke fill markers"
       d="m 65.617,143.79 v 0.52917 h -0.52917 v 2.1167 h 2.1167 V 145.9067 H 67.7337 V 143.79 Z m 0.26458,0.26459 h 1.5875 v 1.5875 H 67.2045 v -1.3229 h -1.3229 z m -0.52917,0.52916 h 1.5875 v 1.5875 h -1.5875 z"
       inkscape:connector-curvature="0" />
  </g>
</svg>
