<?xml version="1.0" encoding="UTF-8" standalone="no"?>
<!-- Created with Inkscape (http://www.inkscape.org/) -->

<svg
   xmlns:osb="http://www.openswatchbook.org/uri/2009/osb"
   xmlns:dc="http://purl.org/dc/elements/1.1/"
   xmlns:cc="http://creativecommons.org/ns#"
   xmlns:rdf="http://www.w3.org/1999/02/22-rdf-syntax-ns#"
   xmlns:svg="http://www.w3.org/2000/svg"
   xmlns="http://www.w3.org/2000/svg"
   xmlns:sodipodi="http://sodipodi.sourceforge.net/DTD/sodipodi-0.dtd"
   xmlns:inkscape="http://www.inkscape.org/namespaces/inkscape"
   width="128"
   height="128"
   id="svg2"
   sodipodi:version="0.32"
   inkscape:version="0.92.4 (5da689c313, 2019-01-14)"
   version="1.0"
   sodipodi:docname="actionbutton.svgz"
   inkscape:output_extension="org.inkscape.output.svgz.inkscape"
   inkscape:export-filename="arrow-up.png"
   inkscape:export-xdpi="11.25"
   inkscape:export-ydpi="11.25">
  <sodipodi:namedview
     id="base"
     pagecolor="#9ca3a9"
     bordercolor="#666666"
     borderopacity="1.0"
     gridtolerance="10000"
     guidetolerance="10"
     objecttolerance="10"
     inkscape:pageopacity="1"
     inkscape:pageshadow="2"
     inkscape:zoom="4"
     inkscape:cx="10.992178"
     inkscape:cy="111.36161"
     inkscape:document-units="px"
     inkscape:current-layer="layer1"
     width="128px"
     height="128px"
     showgrid="true"
     inkscape:window-width="1366"
     inkscape:window-height="707"
     inkscape:window-x="0"
     inkscape:window-y="0"
     inkscape:snap-nodes="true"
     inkscape:snap-global="true"
     inkscape:window-maximized="1"
     inkscape:snap-bbox="true"
     inkscape:bbox-nodes="true"
     inkscape:snap-bbox-edge-midpoints="true">
    <inkscape:grid
       enabled="true"
       visible="true"
       empspacing="2"
       empopacity="0.03921569"
       opacity="0.01960784"
       empcolor="#0000ff"
       color="#0000ff"
       spacingy="1"
       spacingx="1"
       originy="0"
       originx="0"
       type="xygrid"
       id="GridFromPre046Settings"
       snapvisiblegridlinesonly="true" />
  </sodipodi:namedview>
  <defs
     id="defs4">
    <linearGradient
       osb:paint="solid"
       id="linearGradient6476">
      <stop
         id="stop6478"
         offset="0"
         style="stop-color:#ffffff;stop-opacity:1;" />
    </linearGradient>
    <style
       id="current-color-scheme"
       type="text/css">      .ColorScheme-Text {
        color:#31363b;
      }
      .ColorScheme-Background{
        color:#eff0f1;
      }
      .ColorScheme-ViewText {
        color:#31363b;
      }
      .ColorScheme-ViewBackground{
        color:#fcfcfc;
      }
      .ColorScheme-ViewHover {
        color:#3daee9;
      }
      .ColorScheme-ViewFocus{
        color:#3daee9;
      }
      .ColorScheme-ButtonText {
        color:#31363b;
      }
      .ColorScheme-ButtonBackground{
        color:#eff0f1;
      }
      .ColorScheme-ButtonHover {
        color:#3daee9;
      }
      .ColorScheme-ButtonFocus{
        color:#3daee9;
      }</style>
    <linearGradient
       id="selected_bg_color"
       osb:paint="solid">
      <stop
         style="stop-color:#fb8441;stop-opacity:1;"
         offset="0"
         id="stop5956" />
    </linearGradient>
  </defs>
  <metadata
     id="metadata7">
    <rdf:RDF>
      <cc:Work
         rdf:about="">
        <dc:format>image/svg+xml</dc:format>
        <dc:type
           rdf:resource="http://purl.org/dc/dcmitype/StillImage" />
      </cc:Work>
    </rdf:RDF>
  </metadata>
  <g
     id="layer1"
     inkscape:groupmode="layer"
     inkscape:label="Layer 1">
    <g
       id="normal"
       inkscape:label="#g3805"
       transform="matrix(1.6,0,0,1.6,78.344238,4.0559999)">
      <rect
         y="-1.91"
         x="-42.090149"
         height="20"
         width="20"
         id="rect3803"
         style="fill:#000000;fill-opacity:0.00392157;stroke:none" />
      <circle
         style="color:#eff0f1;fill:#000000;fill-opacity:1;stroke:none;stroke-width:1.01562488;opacity:0.2"
         id="path885"
         class="ColorScheme-ButtonBackground"
         cx="-32.090149"
         cy="8.0900002"
         r="8.75" />
      <path
         class="ColorScheme-ButtonBackground"
         d="m -24,8 a 8,8 0 1 1 -16,0 8,8 0 1 1 16,0 z"
         sodipodi:ry="8"
         sodipodi:rx="8"
         sodipodi:cy="8"
         sodipodi:cx="-32"
         id="path3031"
         style="fill:#282a33;fill-opacity:1;stroke:none"
         sodipodi:type="arc"
         transform="matrix(1.015625,0,0,1.015625,0.4098513,-0.0349999)" />
    </g>
    <g
       id="hover"
       transform="matrix(1.0666667,0,0,1.0666667,55.896159,26.904)">
      <rect
         style="fill:#000000;fill-opacity:0.00392157;stroke:none"
         id="rect3803-1"
         width="30"
         height="30"
         x="-42.090149"
         y="30.09" />
      <path
         style="fill:#fb8441;fill-opacity:1;stroke:none"
         d="m -27.090148,31.964999 c -7.233478,0 -13.125,5.891523 -13.125,13.124999 0,7.233477 5.891522,13.125 13.125,13.125 7.233476,0 13.124999,-5.891523 13.124999,-13.125 0,-7.233476 -5.891523,-13.124999 -13.124999,-13.124999 z m 0,1.009615 c 6.666723,0 12.115384,5.448662 12.115384,12.115385 0,6.666722 -5.448661,12.115384 -12.115384,12.115384 -6.666722,0 -12.115385,-5.448662 -12.115385,-12.115384 0,-6.666723 5.448663,-12.115385 12.115385,-12.115385 z"
         id="path3033-2"
         inkscape:connector-curvature="0"
         class="ColorScheme-ButtonHover"
         sodipodi:nodetypes="ssssssssss" />
    </g>
    <g
       id="focus"
       transform="matrix(1.0666667,0,0,1.0666667,55.89616,59.903998)"
       inkscape:label="#g3840">
      <rect
         y="30.09"
         x="-42.090149"
         height="30"
         width="30"
         id="rect3842"
         style="fill:#000000;fill-opacity:0.00392157;stroke:none" />
      <path
         transform="matrix(1.5820312,0,0,1.5820312,23.534849,32.433751)"
         sodipodi:type="arc"
         style="color:#3daee9;fill:none;stroke:#fb8441;stroke-width:0.5925926;stroke-miterlimit:4;stroke-opacity:1;stroke-dasharray:none"
         id="path3844"
         sodipodi:cx="-32"
         sodipodi:cy="8"
         sodipodi:rx="8"
         sodipodi:ry="8"
         d="m -24,8 a 8,8 0 1 1 -16,0 8,8 0 1 1 16,0 z"
         class="ColorScheme-ButtonHover" />
      <path
         class="ColorScheme-ButtonHover"
         d="m -24,8 a 8,8 0 1 1 -16,0 8,8 0 1 1 16,0 z"
         sodipodi:ry="8"
         sodipodi:rx="8"
         sodipodi:cy="8"
         sodipodi:cx="-32"
         id="path3846"
         style="opacity:0.4;color:#3daee9;fill:none;stroke:#fb8441;stroke-width:1.0666666;stroke-miterlimit:4;stroke-opacity:1;stroke-dasharray:none"
         sodipodi:type="arc"
         transform="matrix(1.7578124,0,0,1.7578125,29.159847,31.0275)" />
    </g>
    <g
       transform="matrix(1.6,0,0,1.6,78.344238,34.056)"
       inkscape:label="#g3805"
       id="pressed">
      <rect
         style="fill:#000000;fill-opacity:0.00392157;stroke:none"
         id="rect3870"
         width="20"
         height="20"
         x="-42.090149"
         y="-1.91" />
      <path
         sodipodi:type="arc"
         style="fill:#fb8441;fill-opacity:1;stroke:none"
         id="path3872"
         sodipodi:cx="-32"
         sodipodi:cy="8"
         sodipodi:rx="8"
         sodipodi:ry="8"
         d="m -24,8 a 8,8 0 1 1 -16,0 8,8 0 1 1 16,0 z"
         class="ColorScheme-ButtonFocus"
         transform="matrix(1.09375,0,0,1.09375,2.9098513,-0.66)" />
    </g>
    <g
       transform="matrix(1.1,0,0,1.1,103.29917,13.101)"
       inkscape:label="#g3805"
       id="22-22-normal">
      <rect
         style="fill:#000000;fill-opacity:0.00392157;stroke:none"
         id="rect3042"
         width="20"
         height="20"
         x="-42.090149"
         y="-1.91" />
      <circle
         class="ColorScheme-ButtonBackground"
         id="path887"
         style="color:#eff0f1;fill:#000000;fill-opacity:1;stroke:none;stroke-width:1.02272725;opacity:0.2"
         cx="-32.090157"
         cy="8.0900002"
         r="9.09091" />
      <path
         sodipodi:type="arc"
         style="fill:#282a33;fill-opacity:1;stroke:none"
         id="path3044"
         sodipodi:cx="-32"
         sodipodi:cy="8"
         sodipodi:rx="8"
         sodipodi:ry="8"
         d="m -24,8 a 8,8 0 1 1 -16,0 8,8 0 1 1 16,0 z"
         class="ColorScheme-ButtonBackground"
         transform="matrix(1.0227273,0,0,1.0227273,0.63711821,-0.0918182)" />
    </g>
    <g
       transform="matrix(0.73333333,0,0,0.73333333,87.866109,46.934)"
       id="22-22-hover">
      <rect
         y="30.09"
         x="-42.090149"
         height="30"
         width="30"
         id="rect3050"
         style="fill:#000000;fill-opacity:0.00392157;stroke:none" />
      <path
         class="ColorScheme-ButtonHover"
         inkscape:connector-curvature="0"
         id="path3052"
         d="m -27.090149,31.453637 c -7.515301,0 -13.636363,6.121063 -13.636363,13.636364 0,7.5153 6.121062,13.636363 13.636363,13.636363 7.515301,0 13.636364,-6.121063 13.636364,-13.636363 0,-7.515301 -6.121063,-13.636364 -13.636364,-13.636364 z m 0,1.515151 c 6.524701,0 12.121212,5.596512 12.121212,12.121213 0,6.658621 -5.56303,12.121211 -12.121212,12.121211 -6.524699,0 -12.121212,-5.563032 -12.121212,-12.121212 0,-6.524701 5.496072,-12.121212 12.121212,-12.121212 z"
         style="fill:#fb8441;fill-opacity:1;stroke:none"
         sodipodi:nodetypes="ssssssssss" />
    </g>
    <g
       inkscape:label="#g3840"
       transform="matrix(0.73333333,0,0,0.73333333,87.866109,79.934)"
       id="22-22-focus">
      <rect
         style="fill:#000000;fill-opacity:0.00392157;stroke:none"
         id="rect3056"
         width="30"
         height="30"
         x="-42.090149"
         y="30.09" />
      <path
         style="opacity:0.4;fill:#fb8441;fill-opacity:1"
         d="m -27.090148,30.09 c -8.279441,0 -15.000001,6.720559 -15.000001,14.999999 0,8.279442 6.72056,15.000001 15.000001,15.000001 8.27944,0 14.999999,-6.720559 14.999999,-15.000001 0,-8.27944 -6.720559,-14.999999 -14.999999,-14.999999 z m 0,2.957747 c 6.655583,0 12.042254,5.386669 12.042254,12.042252 0,6.655585 -5.386671,12.042255 -12.042254,12.042255 -6.655585,0 -12.042254,-5.38667 -12.042254,-12.042255 0,-6.655583 5.386669,-12.042252 12.042254,-12.042252 z"
         id="path3060"
         inkscape:connector-curvature="0"
         class="ColorScheme-ButtonHover" />
      <path
         style="fill:#fb8441;fill-opacity:1"
         d="m -27.090148,31.453637 c -7.523817,0 -13.636364,6.112548 -13.636364,13.636363 0,7.523816 6.112547,13.636364 13.636364,13.636364 7.523816,0 13.636363,-6.112548 13.636363,-13.636364 0,-7.523815 -6.112547,-13.636363 -13.636363,-13.636363 z m 0,1.509561 c 6.704789,0 12.126803,5.422015 12.126803,12.126802 0,6.704789 -5.422014,12.126804 -12.126803,12.126804 -6.704788,0 -12.126803,-5.422015 -12.126803,-12.126804 0,-6.704787 5.422015,-12.126802 12.126803,-12.126802 z"
         id="path3058"
         inkscape:connector-curvature="0"
         class="ColorScheme-ButtonHover" />
    </g>
    <g
       id="22-22-pressed"
       inkscape:label="#g3805"
       transform="matrix(1.1,0,0,1.1,103.29917,43.101)">
      <rect
         y="-1.91"
         x="-42.090149"
         height="20"
         width="20"
         id="rect3064"
         style="fill:#000000;fill-opacity:0.00392157;stroke:none" />
      <path
         class="ColorScheme-ButtonFocus"
         d="m -24,8 a 8,8 0 1 1 -16,0 8,8 0 1 1 16,0 z"
         sodipodi:ry="8"
         sodipodi:rx="8"
         sodipodi:cy="8"
         sodipodi:cx="-32"
         id="path3066"
         style="fill:#fb8441;fill-opacity:1;stroke:none"
         sodipodi:type="arc"
         transform="matrix(1.1363636,0,0,1.1363636,4.2734818,-1.0009091)" />
    </g>
  </g>
</svg>
