<?xml version="1.0" encoding="UTF-8" standalone="no"?>
<svg
   xmlns:dc="http://purl.org/dc/elements/1.1/"
   xmlns:cc="http://creativecommons.org/ns#"
   xmlns:rdf="http://www.w3.org/1999/02/22-rdf-syntax-ns#"
   xmlns:svg="http://www.w3.org/2000/svg"
   xmlns="http://www.w3.org/2000/svg"
   xmlns:sodipodi="http://sodipodi.sourceforge.net/DTD/sodipodi-0.dtd"
   xmlns:inkscape="http://www.inkscape.org/namespaces/inkscape"
   width="48"
   height="98"
   version="1.0"
   id="svg252"
   sodipodi:docname="scrollbar.svg.svgz"
   inkscape:version="0.92.4 5da689c313, 2019-01-14">
  <metadata
     id="metadata256">
    <rdf:RDF>
      <cc:Work
         rdf:about="">
        <dc:format>image/svg+xml</dc:format>
        <dc:type
           rdf:resource="http://purl.org/dc/dcmitype/StillImage" />
        <dc:title></dc:title>
      </cc:Work>
    </rdf:RDF>
  </metadata>
  <sodipodi:namedview
     pagecolor="#3e3e3e"
     bordercolor="#666666"
     borderopacity="1"
     objecttolerance="10"
     gridtolerance="10"
     guidetolerance="10"
     inkscape:pageopacity="0"
     inkscape:pageshadow="2"
     inkscape:window-width="1366"
     inkscape:window-height="705"
     id="namedview254"
     showgrid="false"
     inkscape:zoom="4.8445472"
     inkscape:cx="24"
     inkscape:cy="65.513411"
     inkscape:window-x="0"
     inkscape:window-y="34"
     inkscape:window-maximized="1"
     inkscape:current-layer="svg252" />
  <defs
     id="defs3">
    <style
       id="current-color-scheme"
       type="text/css">.ColorScheme-Text {
        color:#dfdfdf;
        stop-color:#dfdfdf;
      }
      .ColorScheme-Background {
        color:#31363b;
        stop-color:#31363b;
      }
      .ColorScheme-Highlight {
        color:#3daee9;
        stop-color:#3daee9;
      }
      .ColorScheme-ViewText {
        color:#31363b;
        stop-color:#31363b;
      }
      .ColorScheme-ViewBackground {
        color:#31363b;
        stop-color:#31363b;
      }
      .ColorScheme-ViewHover {
        color:#93cee9;
        stop-color:#93cee9;
      }
      .ColorScheme-ViewFocus{
        color:#3daee9;
        stop-color:#3daee9;
      }
      .ColorScheme-ButtonText {
        color:#dfdfdf;
        stop-color:#dfdfdf;
      }
      .ColorScheme-ButtonBackground {
        color:#31363b;
        stop-color:#31363b;
      }
      .ColorScheme-ButtonHover {
        color:#93cee9;
        stop-color:#93cee9;
      }
      .ColorScheme-ButtonFocus{
        color:#3daee9;
        stop-color:#3daee9;
      }</style>
  </defs>
  <rect
     id="slider-center"
     class="ColorScheme-Text"
     x="24"
     y="20"
     width="1"
     height="10"
     color="#31363b"
     fill="#fff"
     fill-rule="evenodd"
     opacity=".2" />
  <g
     id="slider-right"
     transform="matrix(.75 0 0 1 19.25 13)">
    <path
       class="ColorScheme-Text"
       d="m9 7v10h4v-10z"
       color="#31363b"
       fill="#fff"
       fill-rule="evenodd"
       opacity=".2"
       id="path6" />
    <rect
       transform="matrix(1.3333,0,0,1,-25.667,-13)"
       x="29"
       y="20"
       width="1"
       height="10"
       opacity=".01"
       id="rect8" />
  </g>
  <g
     id="slider-topright"
     transform="matrix(.75 0 0 .75 19.25 13.75)">
    <rect
       transform="matrix(1.3333,0,0,1.3333,-25.667,-18.333)"
       x="26"
       y="15"
       width="4"
       height="4"
       opacity=".01"
       id="rect11" />
    <path
       class="ColorScheme-Text"
       d="m9 3v4h4c0-2.216-1.784-4-4-4z"
       color="#31363b"
       fill="#fff"
       fill-rule="evenodd"
       opacity=".2"
       id="path13" />
  </g>
  <g
     id="slider-bottomright"
     transform="matrix(.75 0 0 .75 19.25 18.25)">
    <rect
       transform="matrix(1.3333,0,0,1.3333,-25.667,-24.333)"
       x="26"
       y="31"
       width="4"
       height="4"
       opacity=".01"
       id="rect16" />
    <path
       class="ColorScheme-Text"
       d="m9 21v-4h4c0 2.216-1.784 4-4 4z"
       color="#31363b"
       fill="#fff"
       fill-rule="evenodd"
       opacity=".2"
       id="path18" />
  </g>
  <g
     id="slider-left"
     transform="matrix(-.75 0 0 1 29.75 13)">
    <path
       class="ColorScheme-Text"
       d="m9 7v10h4v-10z"
       color="#31363b"
       fill="#fff"
       fill-rule="evenodd"
       opacity=".2"
       id="path21" />
    <rect
       transform="matrix(-1.3333,0,0,1,39.667,-13)"
       x="19"
       y="20"
       width="1"
       height="10"
       opacity=".01"
       id="rect23" />
  </g>
  <g
     id="slider-topleft"
     transform="matrix(-.75 0 0 .75 29.75 13.75)">
    <rect
       transform="matrix(-1.3333,0,0,1.3333,39.667,-18.333)"
       x="19"
       y="15"
       width="4"
       height="4"
       opacity=".01"
       id="rect26" />
    <path
       class="ColorScheme-Text"
       d="m9 3v4h4c0-2.216-1.784-4-4-4z"
       color="#31363b"
       fill="#fff"
       fill-rule="evenodd"
       opacity=".2"
       id="path28" />
  </g>
  <g
     id="slider-bottomleft"
     transform="matrix(-.75 0 0 .75 29.75 18.25)">
    <rect
       transform="matrix(-1.3333,0,0,1.3333,39.667,-24.333)"
       x="19"
       y="31"
       width="4"
       height="4"
       opacity=".01"
       id="rect31" />
    <path
       class="ColorScheme-Text"
       d="m9 21v-4h4c0 2.216-1.784 4-4 4z"
       color="#31363b"
       fill="#fff"
       fill-rule="evenodd"
       opacity=".2"
       id="path33" />
  </g>
  <g
     id="slider-top"
     transform="matrix(0 -.75 -.1 0 25.7 25.75)">
    <rect
       transform="matrix(0,-10,-1.3333,0,34.333,257)"
       x="24"
       y="15"
       width="1"
       height="4"
       opacity=".01"
       id="rect36" />
    <path
       class="ColorScheme-Text"
       d="m9 7v10h4v-10z"
       color="#31363b"
       fill="#fff"
       fill-rule="evenodd"
       opacity=".2"
       id="path38" />
  </g>
  <g
     id="slider-bottom"
     transform="matrix(0 .75 -.1 0 25.7 24.25)">
    <rect
       transform="matrix(0,-10,1.3333,0,-32.333,257)"
       x="24"
       y="31"
       width="1"
       height="4"
       opacity=".01"
       id="rect41" />
    <path
       class="ColorScheme-Text"
       d="m9 7v10h4v-10z"
       color="#31363b"
       fill="#fff"
       fill-rule="evenodd"
       opacity=".2"
       id="path43" />
  </g>
  <rect
     id="hint-scrollbar-size"
     x="4"
     y="25"
     width="8"
     height="8"
     rx="0"
     ry="8"
     fill="#4e9a06" />
  <rect
     id="hint-tile-center"
     x="7.26"
     y="11.659"
     width="2.0329"
     height="2.0771"
     rx="0"
     ry="2.0771"
     fill="#4e9a06" />
  <g
     id="background-vertical-right"
     transform="matrix(.75 0 0 1 33.25 13)">
    <path
       class="ColorScheme-Text"
       d="m9 7v10h4v-10z"
       color="#31363b"
       fill="currentColor"
       fill-rule="evenodd"
       opacity=".4"
       id="path48" />
    <rect
       transform="matrix(1.3333,0,0,1,-44.333,-13)"
       x="43"
       y="20"
       width="1"
       height="10"
       opacity=".01"
       id="rect50" />
    <path
       class="ColorScheme-ViewBackground"
       d="m9 7v10h4v-10z"
       color="#fcfcfc"
       fill-rule="evenodd"
       opacity=".2"
       id="path52" />
  </g>
  <g
     id="background-vertical-topright"
     transform="matrix(.75 0 0 .75 33.25 13.75)">
    <rect
       transform="matrix(1.3333,0,0,1.3333,-44.333,-18.333)"
       x="40"
       y="15"
       width="4"
       height="4"
       opacity=".01"
       id="rect55" />
    <path
       class="ColorScheme-Text"
       d="m9 3v4h4c0-2.216-1.784-4-4-4z"
       color="#31363b"
       fill="currentColor"
       fill-rule="evenodd"
       opacity=".4"
       id="path57" />
    <path
       class="ColorScheme-ViewBackground"
       d="m9 3v4h4c0-2.216-1.784-4-4-4z"
       color="#fcfcfc"
       fill-rule="evenodd"
       opacity=".2"
       id="path59" />
  </g>
  <g
     id="background-vertical-bottomright"
     transform="matrix(.75 0 0 .75 33.25 18.25)">
    <rect
       transform="matrix(1.3333,0,0,1.3333,-44.333,-24.333)"
       x="40"
       y="31"
       width="4"
       height="4"
       opacity=".01"
       id="rect62" />
    <path
       class="ColorScheme-Text"
       d="m9 21v-4h4c0 2.216-1.784 4-4 4z"
       color="#31363b"
       fill="currentColor"
       fill-rule="evenodd"
       opacity=".4"
       id="path64" />
    <path
       class="ColorScheme-ViewBackground"
       d="m9 21v-4h4c0 2.216-1.784 4-4 4z"
       color="#fcfcfc"
       fill-rule="evenodd"
       opacity=".2"
       id="path66" />
  </g>
  <g
     id="background-vertical-left"
     transform="matrix(-.75 0 0 1 43.75 13)">
    <path
       class="ColorScheme-Text"
       d="m9 7v10h4v-10z"
       color="#31363b"
       fill="currentColor"
       fill-rule="evenodd"
       opacity=".4"
       id="path69" />
    <rect
       transform="matrix(-1.3333,0,0,1,58.333,-13)"
       x="33"
       y="20"
       width="1"
       height="10"
       opacity=".01"
       id="rect71" />
    <path
       class="ColorScheme-ViewBackground"
       d="m9 7v10h4v-10z"
       color="#fcfcfc"
       fill-rule="evenodd"
       opacity=".2"
       id="path73" />
  </g>
  <g
     id="background-vertical-topleft"
     transform="matrix(-.75 0 0 .75 43.75 13.75)">
    <rect
       transform="matrix(-1.3333,0,0,1.3333,58.333,-18.333)"
       x="33"
       y="15"
       width="4"
       height="4"
       opacity=".01"
       id="rect76" />
    <path
       class="ColorScheme-Text"
       d="m9 3v4h4c0-2.216-1.784-4-4-4z"
       color="#31363b"
       fill="currentColor"
       fill-rule="evenodd"
       opacity=".4"
       id="path78" />
    <path
       class="ColorScheme-ViewBackground"
       d="m9 3v4h4c0-2.216-1.784-4-4-4z"
       color="#fcfcfc"
       fill-rule="evenodd"
       opacity=".2"
       id="path80" />
  </g>
  <g
     id="background-vertical-bottomleft"
     transform="matrix(-.75 0 0 .75 43.75 18.25)">
    <rect
       transform="matrix(-1.3333,0,0,1.3333,58.333,-24.333)"
       x="33"
       y="31"
       width="4"
       height="4"
       opacity=".01"
       id="rect83" />
    <path
       class="ColorScheme-Text"
       d="m9 21v-4h4c0 2.216-1.784 4-4 4z"
       color="#31363b"
       fill="currentColor"
       fill-rule="evenodd"
       opacity=".4"
       id="path85" />
    <path
       class="ColorScheme-ViewBackground"
       d="m9 21v-4h4c0 2.216-1.784 4-4 4z"
       color="#fcfcfc"
       fill-rule="evenodd"
       opacity=".2"
       id="path87" />
  </g>
  <g
     id="background-vertical-top"
     transform="matrix(0 -.75 -.1 0 39.7 25.75)">
    <rect
       transform="matrix(0,-10,-1.3333,0,34.333,397)"
       x="38"
       y="15"
       width="1"
       height="4"
       opacity=".01"
       id="rect90" />
    <path
       class="ColorScheme-Text"
       d="m9 7v10h4v-10z"
       color="#31363b"
       fill="currentColor"
       fill-rule="evenodd"
       opacity=".4"
       id="path92" />
    <path
       class="ColorScheme-ViewBackground"
       d="m9 7v10h4v-10z"
       color="#fcfcfc"
       fill-rule="evenodd"
       opacity=".2"
       id="path94" />
  </g>
  <g
     id="background-vertical-bottom"
     transform="matrix(0 .75 -.1 0 39.7 24.25)">
    <rect
       transform="matrix(0,-10,1.3333,0,-32.333,397)"
       x="38"
       y="31"
       width="1"
       height="4"
       opacity=".01"
       id="rect97" />
    <path
       class="ColorScheme-Text"
       d="m9 7v10h4v-10z"
       color="#31363b"
       fill="currentColor"
       fill-rule="evenodd"
       opacity=".4"
       id="path99" />
    <path
       class="ColorScheme-ViewBackground"
       d="m9 7v10h4v-10z"
       color="#fcfcfc"
       fill-rule="evenodd"
       opacity=".2"
       id="path101" />
  </g>
  <rect
     id="sunken-slider-center"
     class="ColorScheme-ButtonHover"
     x="24"
     y="64"
     width="1"
     height="10"
     color="#93cee9"
     fill="#fb8441"
     fill-rule="evenodd" />
  <g
     id="sunken-slider-right"
     transform="matrix(.75 0 0 1 19.25 57)">
    <path
       class="ColorScheme-ButtonHover"
       d="m9 7v10h4v-10z"
       color="#93cee9"
       fill="#fb8441"
       fill-rule="evenodd"
       id="path105" />
    <rect
       transform="matrix(1.3333,0,0,1,-25.667,-57)"
       x="29"
       y="64"
       width="1"
       height="10"
       opacity=".01"
       id="rect107" />
  </g>
  <g
     id="sunken-slider-topright"
     transform="matrix(.75 0 0 .75 19.25 57.75)">
    <rect
       transform="matrix(1.3333,0,0,1.3333,-25.667,-77)"
       x="26"
       y="59"
       width="4"
       height="4"
       opacity=".01"
       id="rect110" />
    <path
       class="ColorScheme-ButtonHover"
       d="m9 3v4h4c0-2.216-1.784-4-4-4z"
       color="#93cee9"
       fill="#fb8441"
       fill-rule="evenodd"
       id="path112" />
  </g>
  <g
     id="sunken-slider-bottomright"
     transform="matrix(.75 0 0 .75 19.25 62.25)">
    <rect
       transform="matrix(1.3333,0,0,1.3333,-25.667,-83)"
       x="26"
       y="75"
       width="4"
       height="4"
       opacity=".01"
       id="rect115" />
    <path
       class="ColorScheme-ButtonHover"
       d="m9 21v-4h4c0 2.216-1.784 4-4 4z"
       color="#93cee9"
       fill="#fb8441"
       fill-rule="evenodd"
       id="path117" />
  </g>
  <g
     id="sunken-slider-left"
     transform="matrix(-.75 0 0 1 29.75 57)">
    <path
       class="ColorScheme-ButtonHover"
       d="m9 7v10h4v-10z"
       color="#93cee9"
       fill="#fb8441"
       fill-rule="evenodd"
       id="path120" />
    <rect
       transform="matrix(-1.3333,0,0,1,39.667,-57)"
       x="19"
       y="64"
       width="1"
       height="10"
       opacity=".01"
       id="rect122" />
  </g>
  <g
     id="sunken-slider-topleft"
     transform="matrix(-.75 0 0 .75 29.75 57.75)">
    <rect
       transform="matrix(-1.3333,0,0,1.3333,39.667,-77)"
       x="19"
       y="59"
       width="4"
       height="4"
       opacity=".01"
       id="rect125" />
    <path
       class="ColorScheme-ButtonHover"
       d="m9 3v4h4c0-2.216-1.784-4-4-4z"
       color="#93cee9"
       fill="#fb8441"
       fill-rule="evenodd"
       id="path127" />
  </g>
  <g
     id="sunken-slider-bottomleft"
     transform="matrix(-.75 0 0 .75 29.75 62.25)">
    <rect
       transform="matrix(-1.3333,0,0,1.3333,39.667,-83)"
       x="19"
       y="75"
       width="4"
       height="4"
       opacity=".01"
       id="rect130" />
    <path
       class="ColorScheme-ButtonHover"
       d="m9 21v-4h4c0 2.216-1.784 4-4 4z"
       color="#93cee9"
       fill="#fb8441"
       fill-rule="evenodd"
       id="path132" />
  </g>
  <g
     id="sunken-slider-top"
     transform="matrix(0 -.75 -.1 0 25.7 69.75)">
    <rect
       transform="matrix(0,-10,-1.3333,0,93,257)"
       x="24"
       y="59"
       width="1"
       height="4"
       opacity=".01"
       id="rect135" />
    <path
       class="ColorScheme-ButtonHover"
       d="m9 7v10h4v-10z"
       color="#93cee9"
       fill="#fb8441"
       fill-rule="evenodd"
       id="path137" />
  </g>
  <g
     id="sunken-slider-bottom"
     transform="matrix(0 .75 -.1 0 25.7 68.25)">
    <rect
       transform="matrix(0,-10,1.3333,0,-91,257)"
       x="24"
       y="75"
       width="1"
       height="4"
       opacity=".01"
       id="rect140" />
    <path
       class="ColorScheme-ButtonHover"
       d="m9 7v10h4v-10z"
       color="#93cee9"
       fill="#fb8441"
       fill-rule="evenodd"
       id="path142" />
  </g>
  <rect
     id="mouseover-slider-center"
     class="ColorScheme-ButtonHover"
     x="24"
     y="42"
     width="1"
     height="10"
     color="#93cee9"
     fill="#fb8441"
     fill-rule="evenodd"
     opacity=".6" />
  <g
     id="mouseover-slider-right"
     transform="matrix(.75 0 0 1 19.25 35)">
    <path
       class="ColorScheme-ButtonHover"
       d="m9 7v10h4v-10z"
       color="#93cee9"
       fill="#fb8441"
       fill-rule="evenodd"
       opacity=".6"
       id="path146" />
    <rect
       transform="matrix(1.3333,0,0,1,-25.667,-57)"
       x="29"
       y="64"
       width="1"
       height="10"
       opacity=".01"
       id="rect148" />
  </g>
  <g
     id="mouseover-slider-topright"
     transform="matrix(.75 0 0 .75 19.25 35.75)">
    <rect
       transform="matrix(1.3333,0,0,1.3333,-25.667,-77)"
       x="26"
       y="59"
       width="4"
       height="4"
       opacity=".01"
       id="rect151" />
    <path
       class="ColorScheme-ButtonHover"
       d="m9 3v4h4c0-2.216-1.784-4-4-4z"
       color="#93cee9"
       fill="#fb8441"
       fill-rule="evenodd"
       opacity=".6"
       id="path153" />
  </g>
  <g
     id="mouseover-slider-bottomright"
     transform="matrix(.75 0 0 .75 19.25 40.25)">
    <rect
       transform="matrix(1.3333,0,0,1.3333,-25.667,-83)"
       x="26"
       y="75"
       width="4"
       height="4"
       opacity=".01"
       id="rect156" />
    <path
       class="ColorScheme-ButtonHover"
       d="m9 21v-4h4c0 2.216-1.784 4-4 4z"
       color="#93cee9"
       fill="#fb8441"
       fill-rule="evenodd"
       opacity=".6"
       id="path158" />
  </g>
  <g
     id="mouseover-slider-left"
     transform="matrix(-.75 0 0 1 29.75 35)">
    <path
       class="ColorScheme-ButtonHover"
       d="m9 7v10h4v-10z"
       color="#93cee9"
       fill="#fb8441"
       fill-rule="evenodd"
       opacity=".6"
       id="path161" />
    <rect
       transform="matrix(-1.3333,0,0,1,39.667,-57)"
       x="19"
       y="64"
       width="1"
       height="10"
       opacity=".01"
       id="rect163" />
  </g>
  <g
     id="mouseover-slider-topleft"
     transform="matrix(-.75 0 0 .75 29.75 35.75)">
    <rect
       transform="matrix(-1.3333,0,0,1.3333,39.667,-77)"
       x="19"
       y="59"
       width="4"
       height="4"
       opacity=".01"
       id="rect166" />
    <path
       class="ColorScheme-ButtonHover"
       d="m9 3v4h4c0-2.216-1.784-4-4-4z"
       color="#93cee9"
       fill="#fb8441"
       fill-rule="evenodd"
       opacity=".6"
       id="path168" />
  </g>
  <g
     id="mouseover-slider-bottomleft"
     transform="matrix(-.75 0 0 .75 29.75 40.25)">
    <rect
       transform="matrix(-1.3333,0,0,1.3333,39.667,-83)"
       x="19"
       y="75"
       width="4"
       height="4"
       opacity=".01"
       id="rect171" />
    <path
       class="ColorScheme-ButtonHover"
       d="m9 21v-4h4c0 2.216-1.784 4-4 4z"
       color="#93cee9"
       fill="#fb8441"
       fill-rule="evenodd"
       opacity=".6"
       id="path173" />
  </g>
  <g
     id="mouseover-slider-top"
     transform="matrix(0 -.75 -.1 0 25.7 47.75)">
    <rect
       transform="matrix(0,-10,-1.3333,0,93,257)"
       x="24"
       y="59"
       width="1"
       height="4"
       opacity=".01"
       id="rect176" />
    <path
       class="ColorScheme-ButtonHover"
       d="m9 7v10h4v-10z"
       color="#93cee9"
       fill="#fb8441"
       fill-rule="evenodd"
       opacity=".6"
       id="path178" />
  </g>
  <g
     id="mouseover-slider-bottom"
     transform="matrix(0 .75 -.1 0 25.7 46.25)">
    <rect
       transform="matrix(0,-10,1.3333,0,-91,257)"
       x="24"
       y="75"
       width="1"
       height="4"
       opacity=".01"
       id="rect181" />
    <path
       class="ColorScheme-ButtonHover"
       d="m9 7v10h4v-10z"
       color="#93cee9"
       fill="#fb8441"
       fill-rule="evenodd"
       opacity=".6"
       id="path183" />
  </g>
  <g
     id="background-vertical-center"
     fill-rule="evenodd">
    <rect
       class="ColorScheme-Text"
       x="38"
       y="20"
       width="1"
       height="10"
       color="#31363b"
       fill="currentColor"
       opacity=".4"
       id="rect186" />
    <rect
       class="ColorScheme-ViewBackground"
       x="38"
       y="20"
       width="1"
       height="10"
       color="#fcfcfc"
       opacity=".2"
       id="rect188" />
  </g>
  <g
     id="background-horizontal-right"
     transform="matrix(.75 0 0 1 33.25 35)">
    <path
       class="ColorScheme-Text"
       d="m9 7v10h4v-10z"
       color="#31363b"
       fill="currentColor"
       fill-rule="evenodd"
       opacity=".4"
       id="path191" />
    <rect
       transform="matrix(1.3333,0,0,1,-44.333,-13)"
       x="43"
       y="20"
       width="1"
       height="10"
       opacity=".01"
       id="rect193" />
    <path
       class="ColorScheme-ViewBackground"
       d="m9 7v10h4v-10z"
       color="#fcfcfc"
       fill-rule="evenodd"
       opacity=".2"
       id="path195" />
  </g>
  <g
     id="background-horizontal-topright"
     transform="matrix(.75 0 0 .75 33.25 35.75)">
    <rect
       transform="matrix(1.3333,0,0,1.3333,-44.333,-18.333)"
       x="40"
       y="15"
       width="4"
       height="4"
       opacity=".01"
       id="rect198" />
    <path
       class="ColorScheme-Text"
       d="m9 3v4h4c0-2.216-1.784-4-4-4z"
       color="#31363b"
       fill="currentColor"
       fill-rule="evenodd"
       opacity=".4"
       id="path200" />
    <path
       class="ColorScheme-ViewBackground"
       d="m9 3v4h4c0-2.216-1.784-4-4-4z"
       color="#fcfcfc"
       fill-rule="evenodd"
       opacity=".2"
       id="path202" />
  </g>
  <g
     id="background-horizontal-bottomright"
     transform="matrix(.75 0 0 .75 33.25 40.25)">
    <rect
       transform="matrix(1.3333,0,0,1.3333,-44.333,-24.333)"
       x="40"
       y="31"
       width="4"
       height="4"
       opacity=".01"
       id="rect205" />
    <path
       class="ColorScheme-Text"
       d="m9 21v-4h4c0 2.216-1.784 4-4 4z"
       color="#31363b"
       fill="currentColor"
       fill-rule="evenodd"
       opacity=".4"
       id="path207" />
    <path
       class="ColorScheme-ViewBackground"
       d="m9 21v-4h4c0 2.216-1.784 4-4 4z"
       color="#fcfcfc"
       fill-rule="evenodd"
       opacity=".2"
       id="path209" />
  </g>
  <g
     id="background-horizontal-left"
     transform="matrix(-.75 0 0 1 43.75 35)">
    <path
       class="ColorScheme-Text"
       d="m9 7v10h4v-10z"
       color="#31363b"
       fill="currentColor"
       fill-rule="evenodd"
       opacity=".4"
       id="path212" />
    <rect
       transform="matrix(-1.3333,0,0,1,58.333,-13)"
       x="33"
       y="20"
       width="1"
       height="10"
       opacity=".01"
       id="rect214" />
    <path
       class="ColorScheme-ViewBackground"
       d="m9 7v10h4v-10z"
       color="#fcfcfc"
       fill-rule="evenodd"
       opacity=".2"
       id="path216" />
  </g>
  <g
     id="background-horizontal-topleft"
     transform="matrix(-.75 0 0 .75 43.75 35.75)">
    <rect
       transform="matrix(-1.3333,0,0,1.3333,58.333,-18.333)"
       x="33"
       y="15"
       width="4"
       height="4"
       opacity=".01"
       id="rect219" />
    <path
       class="ColorScheme-Text"
       d="m9 3v4h4c0-2.216-1.784-4-4-4z"
       color="#31363b"
       fill="currentColor"
       fill-rule="evenodd"
       opacity=".4"
       id="path221" />
    <path
       class="ColorScheme-ViewBackground"
       d="m9 3v4h4c0-2.216-1.784-4-4-4z"
       color="#fcfcfc"
       fill-rule="evenodd"
       opacity=".2"
       id="path223" />
  </g>
  <g
     id="background-horizontal-bottomleft"
     transform="matrix(-.75 0 0 .75 43.75 40.25)">
    <rect
       transform="matrix(-1.3333,0,0,1.3333,58.333,-24.333)"
       x="33"
       y="31"
       width="4"
       height="4"
       opacity=".01"
       id="rect226" />
    <path
       class="ColorScheme-Text"
       d="m9 21v-4h4c0 2.216-1.784 4-4 4z"
       color="#31363b"
       fill="currentColor"
       fill-rule="evenodd"
       opacity=".4"
       id="path228" />
    <path
       class="ColorScheme-ViewBackground"
       d="m9 21v-4h4c0 2.216-1.784 4-4 4z"
       color="#fcfcfc"
       fill-rule="evenodd"
       opacity=".2"
       id="path230" />
  </g>
  <g
     id="background-horizontal-top"
     transform="matrix(0 -.75 -.1 0 39.7 47.75)">
    <rect
       transform="matrix(0,-10,-1.3333,0,34.333,397)"
       x="38"
       y="15"
       width="1"
       height="4"
       opacity=".01"
       id="rect233" />
    <path
       class="ColorScheme-Text"
       d="m9 7v10h4v-10z"
       color="#31363b"
       fill="currentColor"
       fill-rule="evenodd"
       opacity=".4"
       id="path235" />
    <path
       class="ColorScheme-ViewBackground"
       d="m9 7v10h4v-10z"
       color="#fcfcfc"
       fill-rule="evenodd"
       opacity=".2"
       id="path237" />
  </g>
  <g
     id="background-horizontal-bottom"
     transform="matrix(0 .75 -.1 0 39.7 46.25)">
    <rect
       transform="matrix(0,-10,1.3333,0,-32.333,397)"
       x="38"
       y="31"
       width="1"
       height="4"
       opacity=".01"
       id="rect240" />
    <path
       class="ColorScheme-Text"
       d="m9 7v10h4v-10z"
       color="#31363b"
       fill="currentColor"
       fill-rule="evenodd"
       opacity=".4"
       id="path242" />
    <path
       class="ColorScheme-ViewBackground"
       d="m9 7v10h4v-10z"
       color="#fcfcfc"
       fill-rule="evenodd"
       opacity=".2"
       id="path244" />
  </g>
  <g
     id="background-horizontal-center"
     transform="translate(9.35e-7,22)"
     fill-rule="evenodd">
    <rect
       class="ColorScheme-Text"
       x="38"
       y="20"
       width="1"
       height="10"
       color="#31363b"
       fill="currentColor"
       opacity=".4"
       id="rect247" />
    <rect
       class="ColorScheme-ViewBackground"
       x="38"
       y="20"
       width="1"
       height="10"
       color="#fcfcfc"
       opacity=".2"
       id="rect249" />
  </g>
</svg>
