<?xml version="1.0" encoding="UTF-8" standalone="no"?><!-- Generator: Gravit.io --><svg xmlns="http://www.w3.org/2000/svg" xmlns:xlink="http://www.w3.org/1999/xlink" style="isolation:isolate" viewBox="0 0 1920 1080" width="1920pt" height="1080pt"><defs><clipPath id="_clipPath_1HwWuAY8Kkxh06G8KbYUqP4fywVY383c"><rect width="1920" height="1080"/></clipPath></defs><g clip-path="url(#_clipPath_1HwWuAY8Kkxh06G8KbYUqP4fywVY383c)"><rect x="0" y="0" width="1920" height="1080" transform="matrix(1,0,0,1,0,0)" fill="rgb(34,35,36)"/><rect x="-126.452" y="-782.152" width="812.328" height="812.328" transform="matrix(0.707,0.707,-0.707,0.707,-183.938,-307.911)" fill="rgb(44,45,47)" vector-effect="non-scaling-stroke" stroke-width="2" stroke="rgb(34,34,34)" stroke-linejoin="miter" stroke-linecap="square" stroke-miterlimit="2"/><rect x="167.825" y="-662.657" width="637.948" height="637.948" transform="matrix(0.707,0.707,-0.707,0.707,-100.44,-444.881)" fill="rgb(53,54,57)" vector-effect="non-scaling-stroke" stroke-width="2" stroke="rgb(34,34,34)" stroke-linejoin="miter" stroke-linecap="square" stroke-miterlimit="2"/><rect x="1170.741" y="1034.859" width="774.696" height="774.696" transform="matrix(0.707,0.707,-0.707,0.707,1462.006,-685.18)" fill="rgb(63,117,183)" vector-effect="non-scaling-stroke" stroke-width="2" stroke="rgb(0,0,0)" stroke-opacity="0.35" stroke-linejoin="miter" stroke-linecap="square" stroke-miterlimit="2"/><rect x="1410.864" y="942.864" width="803.687" height="803.687" transform="matrix(0.707,0.707,-0.707,0.707,1481.781,-887.922)" fill="rgb(82,148,226)" vector-effect="non-scaling-stroke" stroke-width="2" stroke="rgb(0,0,0)" stroke-opacity="0.35" stroke-linejoin="miter" stroke-linecap="square" stroke-miterlimit="2"/><g style="opacity:0.05;"><path d="M -17.002 210.58 L 146.752 210.58 C 148.765 210.58 150.4 212.215 150.4 214.23 L 150.4 214.4 C 150.4 216.415 148.765 218.05 146.752 218.05 L -17.002 218.05 C -19.015 218.05 -20.65 216.415 -20.65 214.4 L -20.65 214.23 C -20.65 212.215 -19.015 210.58 -17.002 210.58 Z" style="stroke:none;fill:#FFFFFF;stroke-miterlimit:10;"/><path d=" M 94.713 177.018 L 94.713 177.018 C 106.035 177.018 115.228 186.211 115.228 197.533 C 115.228 208.856 106.035 218.048 94.713 218.048 L 94.713 210.588 C 101.918 210.588 107.768 204.739 107.768 197.533 C 107.768 190.328 101.918 184.478 94.713 184.478 L 94.713 184.478 L 94.713 177.018 Z " fill-rule="evenodd" fill="rgb(255,255,255)"/><path d=" M -15.589 210.582 L -15.589 210.582 C -26.911 210.582 -36.104 219.774 -36.104 231.097 C -36.104 242.42 -26.911 251.612 -15.589 251.612 L -15.589 244.152 C -22.794 244.152 -28.644 238.302 -28.644 231.097 C -28.644 223.892 -22.794 218.042 -15.589 218.042 L -15.589 218.042 L -15.589 210.582 Z " fill-rule="evenodd" fill="rgb(255,255,255)"/><path d=" M 72.589 177.018 L 72.589 177.018 C 83.911 177.018 93.104 186.211 93.104 197.533 C 93.104 208.856 83.911 218.048 72.589 218.048 L 72.589 210.588 C 79.794 210.588 85.644 204.739 85.644 197.533 C 85.644 190.328 79.794 184.478 72.589 184.478 L 72.589 184.478 L 72.589 177.018 Z " fill-rule="evenodd" fill="rgb(255,255,255)"/><path d=" M 6.535 210.582 L 6.535 210.582 C -4.787 210.582 -13.98 219.774 -13.98 231.097 C -13.98 242.42 -4.787 251.612 6.535 251.612 L 6.535 244.152 C -0.67 244.152 -6.52 238.302 -6.52 231.097 C -6.52 223.892 -0.67 218.042 6.535 218.042 L 6.535 218.042 L 6.535 210.582 Z " fill-rule="evenodd" fill="rgb(255,255,255)"/><path d=" M 50.465 177.018 L 50.465 177.018 C 61.787 177.018 70.98 186.211 70.98 197.533 C 70.98 208.856 61.787 218.048 50.465 218.048 L 50.465 210.588 C 57.67 210.588 63.52 204.739 63.52 197.533 C 63.52 190.328 57.67 184.478 50.465 184.478 L 50.465 184.478 L 50.465 177.018 Z " fill-rule="evenodd" fill="rgb(255,255,255)"/><path d=" M 28.659 210.582 L 28.659 210.582 C 17.337 210.582 8.144 219.774 8.144 231.097 C 8.144 242.42 17.337 251.612 28.659 251.612 L 28.659 244.152 C 21.454 244.152 15.604 238.302 15.604 231.097 C 15.604 223.892 21.454 218.042 28.659 218.042 L 28.659 218.042 L 28.659 210.582 Z " fill-rule="evenodd" fill="rgb(255,255,255)"/><path d="M -16.718 244.49 L 123.568 244.49 C 125.738 244.49 127.5 246.164 127.5 248.225 L 127.5 248.225 C 127.5 250.286 125.738 251.96 123.568 251.96 L -16.718 251.96 C -18.888 251.96 -20.65 250.286 -20.65 248.225 L -20.65 248.225 C -20.65 246.164 -18.888 244.49 -16.718 244.49 Z" style="stroke:none;fill:#FFFFFF;stroke-miterlimit:10;"/><path d="M -10.989 177.02 L 95.999 177.02 C 98.097 177.02 99.8 178.691 99.8 180.75 L 99.8 180.75 C 99.8 182.809 98.097 184.48 95.999 184.48 L -10.989 184.48 C -13.087 184.48 -14.79 182.809 -14.79 180.75 L -14.79 180.75 C -14.79 178.691 -13.087 177.02 -10.989 177.02 Z" style="stroke:none;fill:#FFFFFF;stroke-miterlimit:10;"/><path d="M 187.879 312.04 L 73.551 312.04 C 71.862 312.04 70.49 313.412 70.49 315.103 L 70.49 316.447 C 70.49 318.138 71.862 319.51 73.551 319.51 L 187.879 319.51 C 189.568 319.51 190.94 318.138 190.94 316.447 L 190.94 315.103 C 190.94 313.412 189.568 312.04 187.879 312.04 Z" style="stroke:none;fill:#FFFFFF;stroke-miterlimit:10;"/><path d=" M 75.578 278.477 L 75.578 278.477 C 64.255 278.477 55.063 287.67 55.063 298.992 C 55.063 310.315 64.255 319.507 75.578 319.507 L 75.578 312.047 C 68.372 312.047 62.523 306.198 62.523 298.992 C 62.523 291.787 68.372 285.937 75.578 285.937 L 75.578 285.937 L 75.578 278.477 Z " fill-rule="evenodd" fill="rgb(255,255,255)"/><path d=" M 185.879 312.041 L 185.879 312.041 C 197.201 312.041 206.394 321.233 206.394 332.556 C 206.394 343.879 197.201 353.071 185.879 353.071 L 185.879 345.611 C 193.084 345.611 198.934 339.761 198.934 332.556 C 198.934 325.351 193.084 319.501 185.879 319.501 L 185.879 319.501 L 185.879 312.041 Z " fill-rule="evenodd" fill="rgb(255,255,255)"/><path d=" M 97.701 278.477 L 97.701 278.477 C 86.379 278.477 77.187 287.67 77.187 298.992 C 77.187 310.315 86.379 319.507 97.701 319.507 L 97.701 312.047 C 90.496 312.047 84.646 306.198 84.646 298.992 C 84.646 291.787 90.496 285.937 97.701 285.937 L 97.701 285.937 L 97.701 278.477 Z " fill-rule="evenodd" fill="rgb(255,255,255)"/><path d=" M 163.755 312.041 L 163.755 312.041 C 175.077 312.041 184.27 321.233 184.27 332.556 C 184.27 343.879 175.077 353.071 163.755 353.071 L 163.755 345.611 C 170.96 345.611 176.81 339.761 176.81 332.556 C 176.81 325.351 170.96 319.501 163.755 319.501 L 163.755 319.501 L 163.755 312.041 Z " fill-rule="evenodd" fill="rgb(255,255,255)"/><path d=" M 119.825 319.507 L 119.825 319.507 L 119.825 319.507 L 119.825 319.507 C 108.503 319.507 99.31 310.315 99.31 298.992 C 99.31 287.67 108.503 278.477 119.825 278.477 L 119.825 285.937 L 119.825 285.937 C 112.62 285.937 106.77 291.787 106.77 298.992 C 106.77 306.198 112.62 312.047 119.825 312.047 L 119.825 319.507 Z " fill-rule="evenodd" fill="rgb(255,255,255)"/><path d=" M 121.245 285.688 L 121.245 285.688 L 121.245 285.688 L 121.245 285.688 C 132.568 285.688 141.76 276.495 141.76 265.173 C 141.76 253.85 132.568 244.658 121.245 244.658 L 121.245 252.118 L 121.245 252.118 C 128.45 252.118 134.3 257.967 134.3 265.173 C 134.3 272.378 128.45 278.228 121.245 278.228 L 121.245 285.688 Z " fill-rule="evenodd" fill="rgb(255,255,255)"/><path d=" M 141.631 312.041 L 141.631 312.041 C 152.953 312.041 162.146 321.233 162.146 332.556 C 162.146 343.879 152.953 353.071 141.631 353.071 L 141.631 345.611 C 148.836 345.611 154.686 339.761 154.686 332.556 C 154.686 325.351 148.836 319.501 141.631 319.501 L 141.631 319.501 L 141.631 312.041 Z " fill-rule="evenodd" fill="rgb(255,255,255)"/><path d="M 188.043 345.95 L 113.377 345.95 C 111.778 345.95 110.48 347.247 110.48 348.845 L 110.48 350.515 C 110.48 352.113 111.778 353.41 113.377 353.41 L 188.043 353.41 C 189.642 353.41 190.94 352.113 190.94 350.515 L 190.94 348.845 C 190.94 347.247 189.642 345.95 188.043 345.95 Z" style="stroke:none;fill:#FFFFFF;stroke-miterlimit:10;"/><path d="M 251.065 278.48 L 75.325 278.48 C 72.656 278.48 70.49 280.151 70.49 282.21 L 70.49 282.21 C 70.49 284.269 72.656 285.94 75.325 285.94 L 251.065 285.94 C 253.734 285.94 255.9 284.269 255.9 282.21 L 255.9 282.21 C 255.9 280.151 253.734 278.48 251.065 278.48 Z" style="stroke:none;fill:#FFFFFF;stroke-miterlimit:10;"/></g><g style="opacity:0.05;"><path d="M 1915.033 665.78 L 1698.577 665.78 C 1696.046 665.78 1693.99 667.785 1693.99 670.255 L 1693.99 670.255 C 1693.99 672.725 1696.046 674.73 1698.577 674.73 L 1915.033 674.73 C 1917.564 674.73 1919.62 672.725 1919.62 670.255 L 1919.62 670.255 C 1919.62 667.785 1917.564 665.78 1915.033 665.78 Z" style="stroke:none;fill:#FFFFFF;stroke-miterlimit:10;"/><path d=" M 1781.316 625.537 L 1781.316 625.537 C 1767.742 625.537 1756.721 636.558 1756.721 650.132 C 1756.721 663.706 1767.742 674.727 1781.316 674.727 L 1781.316 665.783 C 1772.678 665.783 1765.665 658.77 1765.665 650.132 C 1765.665 641.494 1772.678 634.481 1781.316 634.481 L 1781.316 634.481 L 1781.316 625.537 Z " fill-rule="evenodd" fill="rgb(255,255,255)"/><path d=" M 1913.554 665.776 L 1913.554 665.776 C 1927.129 665.776 1938.149 676.796 1938.149 690.371 C 1938.149 703.945 1927.129 714.966 1913.554 714.966 L 1913.554 706.022 C 1922.193 706.022 1929.206 699.009 1929.206 690.371 C 1929.206 681.733 1922.193 674.719 1913.554 674.719 L 1913.554 674.719 L 1913.554 665.776 Z " fill-rule="evenodd" fill="rgb(255,255,255)"/><path d=" M 1807.84 625.537 L 1807.84 625.537 C 1794.266 625.537 1783.245 636.558 1783.245 650.132 C 1783.245 663.706 1794.266 674.727 1807.84 674.727 L 1807.84 665.783 C 1799.202 665.783 1792.189 658.77 1792.189 650.132 C 1792.189 641.494 1799.202 634.481 1807.84 634.481 L 1807.84 634.481 L 1807.84 625.537 Z " fill-rule="evenodd" fill="rgb(255,255,255)"/><path d=" M 1887.03 665.776 L 1887.03 665.776 C 1900.605 665.776 1911.625 676.796 1911.625 690.371 C 1911.625 703.945 1900.605 714.966 1887.03 714.966 L 1887.03 706.022 C 1895.669 706.022 1902.682 699.009 1902.682 690.371 C 1902.682 681.733 1895.669 674.719 1887.03 674.719 L 1887.03 674.719 L 1887.03 665.776 Z " fill-rule="evenodd" fill="rgb(255,255,255)"/><path d=" M 1834.364 625.537 L 1834.364 625.537 C 1820.79 625.537 1809.769 636.558 1809.769 650.132 C 1809.769 663.706 1820.79 674.727 1834.364 674.727 L 1834.364 665.783 C 1825.726 665.783 1818.713 658.77 1818.713 650.132 C 1818.713 641.494 1825.726 634.481 1834.364 634.481 L 1834.364 634.481 L 1834.364 625.537 Z " fill-rule="evenodd" fill="rgb(255,255,255)"/><path d=" M 1860.506 665.776 L 1860.506 665.776 C 1874.081 665.776 1885.101 676.796 1885.101 690.371 C 1885.101 703.945 1874.081 714.966 1860.506 714.966 L 1860.506 706.022 C 1869.144 706.022 1876.158 699.009 1876.158 690.371 C 1876.158 681.733 1869.144 674.719 1860.506 674.719 L 1860.506 674.719 L 1860.506 665.776 Z " fill-rule="evenodd" fill="rgb(255,255,255)"/><path d="M 1915.68 706.43 L 1799.48 706.43 C 1797.305 706.43 1795.54 708.195 1795.54 710.369 L 1795.54 711.441 C 1795.54 713.615 1797.305 715.38 1799.48 715.38 L 1915.68 715.38 C 1917.855 715.38 1919.62 713.615 1919.62 711.441 L 1919.62 710.369 C 1919.62 708.195 1917.855 706.43 1915.68 706.43 Z" style="stroke:none;fill:#FFFFFF;stroke-miterlimit:10;"/><path d="M 1926.049 625.54 L 1780.071 625.54 C 1777.394 625.54 1775.22 627.545 1775.22 630.015 L 1775.22 630.015 C 1775.22 632.485 1777.394 634.49 1780.071 634.49 L 1926.049 634.49 C 1928.726 634.49 1930.9 632.485 1930.9 630.015 L 1930.9 630.015 C 1930.9 627.545 1928.726 625.54 1926.049 625.54 Z" style="stroke:none;fill:#FFFFFF;stroke-miterlimit:10;"/><path d="M 1950.569 598.04 L 1835.121 598.04 C 1832.731 598.04 1830.79 599.98 1830.79 602.37 L 1830.79 602.66 C 1830.79 605.05 1832.731 606.99 1835.121 606.99 L 1950.569 606.99 C 1952.959 606.99 1954.9 605.05 1954.9 602.66 L 1954.9 602.37 C 1954.9 599.98 1952.959 598.04 1950.569 598.04 Z" style="stroke:none;fill:#FFFFFF;stroke-miterlimit:10;"/><path d="M 1945.837 580.41 L 1786.383 580.41 C 1783.588 580.41 1781.32 582.417 1781.32 584.89 L 1781.32 584.89 C 1781.32 587.363 1783.588 589.37 1786.383 589.37 L 1945.837 589.37 C 1948.632 589.37 1950.9 587.363 1950.9 584.89 L 1950.9 584.89 C 1950.9 582.417 1948.632 580.41 1945.837 580.41 Z" style="stroke:none;fill:#FFFFFF;stroke-miterlimit:10;"/></g><g style="opacity:0.05;"><path d=" M 960 472 C 922.445 472 892 502.445 892 540 C 892 577.555 922.445 608 960 608 C 997.555 608 1028 577.555 1028 540 C 1028 502.445 997.555 472 960 472 Z  M 960 476.945 C 976.723 476.945 992.761 483.589 1004.586 495.414 C 1016.411 507.239 1023.055 523.277 1023.055 540 C 1023.055 556.723 1016.411 572.761 1004.586 584.586 C 992.761 596.411 976.723 603.055 960 603.055 C 943.277 603.055 927.239 596.411 915.414 584.586 C 903.589 572.761 896.945 556.723 896.945 540 C 896.945 523.277 903.589 507.239 915.414 495.414 C 927.239 483.589 943.277 476.945 960 476.945 L 960 476.945 Z " fill-rule="evenodd" fill="rgb(255,255,255)"/><g opacity="0.5"><path d=" M 1010.691 567.2 L 941.455 567.2 L 973.6 507.855 L 1010.691 567.2 Z " fill="rgb(255,255,255)"/></g><path d=" M 987.2 567.2 L 909.309 567.2 L 946.4 494.255 L 987.2 567.2 Z " fill="rgb(255,255,255)"/></g></g></svg>