<?xml version="1.0" encoding="UTF-8" standalone="no"?><!-- Generator: Gravit.io --><svg xmlns="http://www.w3.org/2000/svg" xmlns:xlink="http://www.w3.org/1999/xlink" style="isolation:isolate" viewBox="0 0 1920 1080" width="1920pt" height="1080pt"><defs><clipPath id="_clipPath_FvW8VqMlbjEOcD0XL4Dl3E7Dip1LVJkY"><rect width="1920" height="1080"/></clipPath></defs><g clip-path="url(#_clipPath_FvW8VqMlbjEOcD0XL4Dl3E7Dip1LVJkY)"><rect x="0" y="0" width="1920" height="1080" transform="matrix(1,0,0,1,0,0)" fill="rgb(209,209,209)" vector-effect="non-scaling-stroke" stroke-width="1" stroke="rgb(0,0,0)" stroke-opacity="0.15" stroke-linejoin="miter" stroke-linecap="square" stroke-miterlimit="2"/><rect x="-126.348" y="-782.566" width="812.328" height="812.328" transform="matrix(0.707,0.707,-0.707,0.707,-184.201,-308.105)" fill="rgb(225,225,225)" vector-effect="non-scaling-stroke" stroke-width="2" stroke="rgb(185,185,185)" stroke-linejoin="miter" stroke-linecap="square" stroke-miterlimit="2"/><rect x="167.928" y="-663.072" width="637.948" height="637.948" transform="matrix(0.707,0.707,-0.707,0.707,-100.703,-445.076)" fill="rgb(232,232,232)" vector-effect="non-scaling-stroke" stroke-width="2" stroke="rgb(185,185,185)" stroke-linejoin="miter" stroke-linecap="square" stroke-miterlimit="2"/><rect x="1170.845" y="1034.445" width="774.696" height="774.696" transform="matrix(0.707,0.707,-0.707,0.707,1461.743,-685.375)" fill="rgb(72,129,200)" vector-effect="non-scaling-stroke" stroke-width="2" stroke="rgb(56,106,168)" stroke-linejoin="miter" stroke-linecap="square" stroke-miterlimit="2"/><rect x="1410.967" y="942.449" width="803.687" height="803.687" transform="matrix(0.707,0.707,-0.707,0.707,1481.518,-888.117)" fill="rgb(82,148,226)" vector-effect="non-scaling-stroke" stroke-width="2" stroke="rgb(61,115,202)" stroke-linejoin="miter" stroke-linecap="square" stroke-miterlimit="2"/><g><path d="M -16.902 210.17 L 146.852 210.17 C 148.865 210.17 150.5 211.803 150.5 213.815 L 150.5 213.985 C 150.5 215.997 148.865 217.63 146.852 217.63 L -16.902 217.63 C -18.915 217.63 -20.55 215.997 -20.55 213.985 L -20.55 213.815 C -20.55 211.803 -18.915 210.17 -16.902 210.17 Z" style="stroke:none;fill:#B9B9B9;stroke-miterlimit:10;"/><path d=" M 94.816 176.604 L 94.816 176.604 C 106.139 176.604 115.331 185.796 115.331 197.119 C 115.331 208.441 106.139 217.634 94.816 217.634 L 94.816 210.174 C 102.022 210.174 107.871 204.324 107.871 197.119 C 107.871 189.913 102.022 184.064 94.816 184.064 L 94.816 184.064 L 94.816 176.604 Z " fill-rule="evenodd" fill="rgb(185,185,185)"/><path d=" M -15.485 210.167 L -15.485 210.167 C -26.808 210.167 -36 219.36 -36 230.682 C -36 242.005 -26.808 251.197 -15.485 251.197 L -15.485 243.737 C -22.69 243.737 -28.54 237.888 -28.54 230.682 C -28.54 223.477 -22.69 217.627 -15.485 217.627 L -15.485 217.627 L -15.485 210.167 Z " fill-rule="evenodd" fill="rgb(185,185,185)"/><path d=" M 72.692 176.604 L 72.692 176.604 C 84.015 176.604 93.207 185.796 93.207 197.119 C 93.207 208.441 84.015 217.634 72.692 217.634 L 72.692 210.174 C 79.898 210.174 85.747 204.324 85.747 197.119 C 85.747 189.913 79.898 184.064 72.692 184.064 L 72.692 184.064 L 72.692 176.604 Z " fill-rule="evenodd" fill="rgb(185,185,185)"/><path d=" M 6.639 210.167 L 6.639 210.167 C -4.684 210.167 -13.876 219.36 -13.876 230.682 C -13.876 242.005 -4.684 251.197 6.639 251.197 L 6.639 243.737 C -0.566 243.737 -6.416 237.888 -6.416 230.682 C -6.416 223.477 -0.566 217.627 6.639 217.627 L 6.639 217.627 L 6.639 210.167 Z " fill-rule="evenodd" fill="rgb(185,185,185)"/><path d=" M 50.568 176.604 L 50.568 176.604 C 61.891 176.604 71.083 185.796 71.083 197.119 C 71.083 208.441 61.891 217.634 50.568 217.634 L 50.568 210.174 C 57.774 210.174 63.623 204.324 63.623 197.119 C 63.623 189.913 57.774 184.064 50.568 184.064 L 50.568 184.064 L 50.568 176.604 Z " fill-rule="evenodd" fill="rgb(185,185,185)"/><path d=" M 28.763 210.167 L 28.763 210.167 C 17.44 210.167 8.248 219.36 8.248 230.682 C 8.248 242.005 17.44 251.197 28.763 251.197 L 28.763 243.737 C 21.558 243.737 15.708 237.888 15.708 230.682 C 15.708 223.477 21.558 217.627 28.763 217.627 L 28.763 217.627 L 28.763 210.167 Z " fill-rule="evenodd" fill="rgb(185,185,185)"/><path d="M -16.618 244.07 L 123.678 244.07 C 125.848 244.07 127.61 245.744 127.61 247.805 L 127.61 247.805 C 127.61 249.866 125.848 251.54 123.678 251.54 L -16.618 251.54 C -18.788 251.54 -20.55 249.866 -20.55 247.805 L -20.55 247.805 C -20.55 245.744 -18.788 244.07 -16.618 244.07 Z" style="stroke:none;fill:#B9B9B9;stroke-miterlimit:10;"/><path d="M -10.889 176.6 L 96.099 176.6 C 98.197 176.6 99.9 178.274 99.9 180.335 L 99.9 180.335 C 99.9 182.396 98.197 184.07 96.099 184.07 L -10.889 184.07 C -12.987 184.07 -14.69 182.396 -14.69 180.335 L -14.69 180.335 C -14.69 178.274 -12.987 176.6 -10.889 176.6 Z" style="stroke:none;fill:#B9B9B9;stroke-miterlimit:10;"/><path d="M 187.979 311.63 L 73.661 311.63 C 71.972 311.63 70.6 313.001 70.6 314.689 L 70.6 316.031 C 70.6 317.719 71.972 319.09 73.661 319.09 L 187.979 319.09 C 189.668 319.09 191.04 317.719 191.04 316.031 L 191.04 314.689 C 191.04 313.001 189.668 311.63 187.979 311.63 Z" style="stroke:none;fill:#B9B9B9;stroke-miterlimit:10;"/><path d=" M 75.681 278.063 L 75.681 278.063 C 64.359 278.063 55.166 287.255 55.166 298.578 C 55.166 309.9 64.359 319.093 75.681 319.093 L 75.681 311.633 C 68.476 311.633 62.626 305.783 62.626 298.578 C 62.626 291.372 68.476 285.523 75.681 285.523 L 75.681 285.523 L 75.681 278.063 Z " fill-rule="evenodd" fill="rgb(185,185,185)"/><path d=" M 185.982 311.626 L 185.982 311.626 C 197.305 311.626 206.497 320.819 206.497 332.141 C 206.497 343.464 197.305 352.656 185.982 352.656 L 185.982 345.196 C 193.188 345.196 199.037 339.347 199.037 332.141 C 199.037 324.936 193.188 319.086 185.982 319.086 L 185.982 319.086 L 185.982 311.626 Z " fill-rule="evenodd" fill="rgb(185,185,185)"/><path d=" M 97.805 278.063 L 97.805 278.063 C 86.482 278.063 77.29 287.255 77.29 298.578 C 77.29 309.9 86.482 319.093 97.805 319.093 L 97.805 311.633 C 90.6 311.633 84.75 305.783 84.75 298.578 C 84.75 291.372 90.6 285.523 97.805 285.523 L 97.805 285.523 L 97.805 278.063 Z " fill-rule="evenodd" fill="rgb(185,185,185)"/><path d=" M 163.858 311.626 L 163.858 311.626 C 175.181 311.626 184.373 320.819 184.373 332.141 C 184.373 343.464 175.181 352.656 163.858 352.656 L 163.858 345.196 C 171.064 345.196 176.913 339.347 176.913 332.141 C 176.913 324.936 171.064 319.086 163.858 319.086 L 163.858 319.086 L 163.858 311.626 Z " fill-rule="evenodd" fill="rgb(185,185,185)"/><path d=" M 119.929 319.093 L 119.929 319.093 L 119.929 319.093 L 119.929 319.093 C 108.606 319.093 99.414 309.9 99.414 298.578 C 99.414 287.255 108.606 278.063 119.929 278.063 L 119.929 285.523 L 119.929 285.523 C 112.724 285.523 106.874 291.372 106.874 298.578 C 106.874 305.783 112.724 311.633 119.929 311.633 L 119.929 319.093 Z " fill-rule="evenodd" fill="rgb(185,185,185)"/><path d=" M 121.349 285.273 L 121.349 285.273 L 121.349 285.273 L 121.349 285.273 C 132.671 285.273 141.864 276.08 141.864 264.758 C 141.864 253.435 132.671 244.243 121.349 244.243 L 121.349 251.703 L 121.349 251.703 C 128.554 251.703 134.404 257.553 134.404 264.758 C 134.404 271.963 128.554 277.813 121.349 277.813 L 121.349 285.273 Z " fill-rule="evenodd" fill="rgb(185,185,185)"/><path d=" M 141.734 311.626 L 141.734 311.626 C 153.057 311.626 162.249 320.819 162.249 332.141 C 162.249 343.464 153.057 352.656 141.734 352.656 L 141.734 345.196 C 148.94 345.196 154.789 339.347 154.789 332.141 C 154.789 324.936 148.94 319.086 141.734 319.086 L 141.734 319.086 L 141.734 311.626 Z " fill-rule="evenodd" fill="rgb(185,185,185)"/><path d="M 188.143 345.53 L 113.477 345.53 C 111.878 345.53 110.58 346.829 110.58 348.429 L 110.58 350.101 C 110.58 351.701 111.878 353 113.477 353 L 188.143 353 C 189.742 353 191.04 351.701 191.04 350.101 L 191.04 348.429 C 191.04 346.829 189.742 345.53 188.143 345.53 Z" style="stroke:none;fill:#B9B9B9;stroke-miterlimit:10;"/><path d="M 251.165 278.06 L 75.435 278.06 C 72.766 278.06 70.6 279.734 70.6 281.795 L 70.6 281.795 C 70.6 283.856 72.766 285.53 75.435 285.53 L 251.165 285.53 C 253.834 285.53 256 283.856 256 281.795 L 256 281.795 C 256 279.734 253.834 278.06 251.165 278.06 Z" style="stroke:none;fill:#B9B9B9;stroke-miterlimit:10;"/></g><g><path d="M 1915.143 665.36 L 1698.687 665.36 C 1696.156 665.36 1694.1 667.365 1694.1 669.835 L 1694.1 669.835 C 1694.1 672.305 1696.156 674.31 1698.687 674.31 L 1915.143 674.31 C 1917.674 674.31 1919.73 672.305 1919.73 669.835 L 1919.73 669.835 C 1919.73 667.365 1917.674 665.36 1915.143 665.36 Z" style="stroke:none;fill:#B9B9B9;stroke-miterlimit:10;"/><path d=" M 1781.42 625.122 L 1781.42 625.122 C 1767.845 625.122 1756.825 636.143 1756.825 649.717 C 1756.825 663.292 1767.845 674.312 1781.42 674.312 L 1781.42 665.369 C 1772.781 665.369 1765.768 658.355 1765.768 649.717 C 1765.768 641.079 1772.781 634.066 1781.42 634.066 L 1781.42 634.066 L 1781.42 625.122 Z " fill-rule="evenodd" fill="rgb(185,185,185)"/><path d=" M 1913.658 665.361 L 1913.658 665.361 C 1927.232 665.361 1938.253 676.382 1938.253 689.956 C 1938.253 703.53 1927.232 714.551 1913.658 714.551 L 1913.658 705.607 C 1922.296 705.607 1929.309 698.594 1929.309 689.956 C 1929.309 681.318 1922.296 674.305 1913.658 674.305 L 1913.658 674.305 L 1913.658 665.361 Z " fill-rule="evenodd" fill="rgb(185,185,185)"/><path d=" M 1807.944 625.122 L 1807.944 625.122 C 1794.369 625.122 1783.349 636.143 1783.349 649.717 C 1783.349 663.292 1794.369 674.312 1807.944 674.312 L 1807.944 665.369 C 1799.305 665.369 1792.292 658.355 1792.292 649.717 C 1792.292 641.079 1799.305 634.066 1807.944 634.066 L 1807.944 634.066 L 1807.944 625.122 Z " fill-rule="evenodd" fill="rgb(185,185,185)"/><path d=" M 1887.134 665.361 L 1887.134 665.361 C 1900.708 665.361 1911.729 676.382 1911.729 689.956 C 1911.729 703.53 1900.708 714.551 1887.134 714.551 L 1887.134 705.607 C 1895.772 705.607 1902.785 698.594 1902.785 689.956 C 1902.785 681.318 1895.772 674.305 1887.134 674.305 L 1887.134 674.305 L 1887.134 665.361 Z " fill-rule="evenodd" fill="rgb(185,185,185)"/><path d=" M 1834.468 625.122 L 1834.468 625.122 C 1820.893 625.122 1809.873 636.143 1809.873 649.717 C 1809.873 663.292 1820.893 674.312 1834.468 674.312 L 1834.468 665.369 C 1825.829 665.369 1818.816 658.355 1818.816 649.717 C 1818.816 641.079 1825.829 634.066 1834.468 634.066 L 1834.468 634.066 L 1834.468 625.122 Z " fill-rule="evenodd" fill="rgb(185,185,185)"/><path d=" M 1860.61 665.361 L 1860.61 665.361 C 1874.184 665.361 1885.205 676.382 1885.205 689.956 C 1885.205 703.53 1874.184 714.551 1860.61 714.551 L 1860.61 705.607 C 1869.248 705.607 1876.261 698.594 1876.261 689.956 C 1876.261 681.318 1869.248 674.305 1860.61 674.305 L 1860.61 674.305 L 1860.61 665.361 Z " fill-rule="evenodd" fill="rgb(185,185,185)"/><path d="M 1915.79 706.01 L 1799.59 706.01 C 1797.415 706.01 1795.65 707.775 1795.65 709.949 L 1795.65 711.021 C 1795.65 713.195 1797.415 714.96 1799.59 714.96 L 1915.79 714.96 C 1917.965 714.96 1919.73 713.195 1919.73 711.021 L 1919.73 709.949 C 1919.73 707.775 1917.965 706.01 1915.79 706.01 Z" style="stroke:none;fill:#B9B9B9;stroke-miterlimit:10;"/><path d="M 1926.149 625.12 L 1780.181 625.12 C 1777.503 625.12 1775.33 627.125 1775.33 629.595 L 1775.33 629.595 C 1775.33 632.065 1777.503 634.07 1780.181 634.07 L 1926.149 634.07 C 1928.827 634.07 1931 632.065 1931 629.595 L 1931 629.595 C 1931 627.125 1928.827 625.12 1926.149 625.12 Z" style="stroke:none;fill:#B9B9B9;stroke-miterlimit:10;"/><path d="M 1950.669 597.63 L 1835.221 597.63 C 1832.831 597.63 1830.89 599.57 1830.89 601.96 L 1830.89 602.25 C 1830.89 604.64 1832.831 606.58 1835.221 606.58 L 1950.669 606.58 C 1953.059 606.58 1955 604.64 1955 602.25 L 1955 601.96 C 1955 599.57 1953.059 597.63 1950.669 597.63 Z" style="stroke:none;fill:#B9B9B9;stroke-miterlimit:10;"/><path d="M 1945.937 580 L 1786.483 580 C 1783.688 580 1781.42 582.005 1781.42 584.475 L 1781.42 584.475 C 1781.42 586.945 1783.688 588.95 1786.483 588.95 L 1945.937 588.95 C 1948.732 588.95 1951 586.945 1951 584.475 L 1951 584.475 C 1951 582.005 1948.732 580 1945.937 580 Z" style="stroke:none;fill:#B9B9B9;stroke-miterlimit:10;"/></g><g><path d=" M 960 472 C 922.445 472 892 502.445 892 540 C 892 577.555 922.445 608 960 608 C 997.555 608 1028 577.555 1028 540 C 1028 502.445 997.555 472 960 472 Z  M 960 476.945 C 976.723 476.945 992.761 483.589 1004.586 495.414 C 1016.411 507.239 1023.055 523.277 1023.055 540 C 1023.055 556.723 1016.411 572.761 1004.586 584.586 C 992.761 596.411 976.723 603.055 960 603.055 C 943.277 603.055 927.239 596.411 915.414 584.586 C 903.589 572.761 896.945 556.723 896.945 540 C 896.945 523.277 903.589 507.239 915.414 495.414 C 927.239 483.589 943.277 476.945 960 476.945 L 960 476.945 Z " fill-rule="evenodd" fill="rgb(185,185,185)"/><g opacity="0.5"><path d=" M 1010.691 567.2 L 941.455 567.2 L 973.6 507.855 L 1010.691 567.2 Z " fill="rgb(185,185,185)"/></g><path d=" M 987.2 567.2 L 909.309 567.2 L 946.4 494.255 L 987.2 567.2 Z " fill="rgb(185,185,185)"/></g></g></svg>