<?xml version="1.0" encoding="UTF-8" standalone="no"?>
<!-- Created with Inkscape (http://www.inkscape.org/) -->

<svg
   xmlns:dc="http://purl.org/dc/elements/1.1/"
   xmlns:cc="http://creativecommons.org/ns#"
   xmlns:rdf="http://www.w3.org/1999/02/22-rdf-syntax-ns#"
   xmlns:svg="http://www.w3.org/2000/svg"
   xmlns="http://www.w3.org/2000/svg"
   xmlns:xlink="http://www.w3.org/1999/xlink"
   xmlns:sodipodi="http://sodipodi.sourceforge.net/DTD/sodipodi-0.dtd"
   xmlns:inkscape="http://www.inkscape.org/namespaces/inkscape"
   id="svg2"
   sodipodi:version="0.32"
   inkscape:version="0.92.4 5da689c313, 2019-01-14"
   width="17"
   height="57"
   sodipodi:docname="lineedit.svgz"
   inkscape:output_extension="org.inkscape.output.svgz.inkscape"
   inkscape:export-filename="/home/pinheiro/Documents/pics/estilo/plasma/wether.png"
   inkscape:export-xdpi="90"
   inkscape:export-ydpi="90"
   version="1.0">
  <sodipodi:namedview
     inkscape:window-height="707"
     inkscape:window-width="1358"
     inkscape:pageshadow="2"
     inkscape:pageopacity="1"
     guidetolerance="10.0"
     gridtolerance="10.0"
     objecttolerance="10.0"
     borderopacity="1.0"
     bordercolor="#666666"
     pagecolor="#eff0f1"
     id="base"
     inkscape:zoom="5.656854"
     inkscape:cx="88.231605"
     inkscape:cy="82.712708"
     inkscape:window-x="0"
     inkscape:window-y="0"
     inkscape:current-layer="svg2"
     showgrid="true"
     showguides="true"
     inkscape:guide-bbox="true"
     inkscape:snap-guide="false"
     inkscape:snap-bbox="true"
     inkscape:object-paths="true"
     inkscape:bbox-nodes="false"
     inkscape:snap-global="true"
     inkscape:object-nodes="true"
     inkscape:window-maximized="0">
    <inkscape:grid
       type="xygrid"
       id="grid5592"
       visible="true"
       enabled="true"
       empspacing="5"
       snapvisiblegridlinesonly="true"
       color="#0000ff"
       opacity="0.01960784"
       empcolor="#0000ff"
       empopacity="0.03921569" />
  </sodipodi:namedview>
  <metadata
     id="metadata7">
    <rdf:RDF>
      <cc:Work
         rdf:about="">
        <dc:format>image/svg+xml</dc:format>
        <dc:type
           rdf:resource="http://purl.org/dc/dcmitype/StillImage" />
        <dc:title />
      </cc:Work>
      <cc:Work
         rdf:about="">
        <dc:format>image/svg+xml</dc:format>
        <dc:type
           rdf:resource="http://purl.org/dc/dcmitype/StillImage" />
      </cc:Work>
    </rdf:RDF>
  </metadata>
  <defs
     id="defs5">
    <linearGradient
       id="linearGradient4119">
      <stop
         style="stop-color:#3daee9;stop-opacity:0.40000001;"
         offset="0"
         id="stop4121" />
      <stop
         style="stop-color:#3daee9;stop-opacity:0;"
         offset="1"
         id="stop4123" />
    </linearGradient>
    <linearGradient
       id="linearGradient4079">
      <stop
         id="stop4081"
         offset="0"
         style="stop-color:#3daee9;stop-opacity:0.80000001;" />
      <stop
         id="stop4083"
         offset="1"
         style="stop-color:#3daee9;stop-opacity:0;" />
    </linearGradient>
    <linearGradient
       id="linearGradient3990">
      <stop
         style="stop-color:#232629;stop-opacity:0.2;"
         offset="0"
         id="stop3992" />
      <stop
         style="stop-color:#232629;stop-opacity:0;"
         offset="1"
         id="stop3994" />
    </linearGradient>
    <linearGradient
       id="linearGradient6038">
      <stop
         style="stop-color:#0626a8;stop-opacity:0.79607844;"
         offset="0"
         id="stop6040" />
      <stop
         style="stop-color:#0626a8;stop-opacity:0;"
         offset="1"
         id="stop6042" />
    </linearGradient>
    <linearGradient
       id="linearGradient5085">
      <stop
         id="stop5087"
         offset="0"
         style="stop-color:#71dbff;stop-opacity:0.58823532;" />
      <stop
         id="stop5089"
         offset="1"
         style="stop-color:#71dbff;stop-opacity:0;" />
    </linearGradient>
    <linearGradient
       id="linearGradient4932">
      <stop
         style="stop-color:#000000;stop-opacity:0.00392157;"
         offset="0"
         id="stop4934" />
      <stop
         style="stop-color:#000000;stop-opacity:0;"
         offset="1"
         id="stop4936" />
    </linearGradient>
    <linearGradient
       id="linearGradient8746">
      <stop
         id="stop8748"
         offset="0"
         style="stop-color:#ffffff;stop-opacity:0.83464569;" />
      <stop
         id="stop8750"
         offset="1"
         style="stop-color:#ffffff;stop-opacity:0.43307087;" />
    </linearGradient>
    <linearGradient
       id="linearGradient8734"
       inkscape:collect="always">
      <stop
         id="stop8736"
         offset="0"
         style="stop-color:#ffffff;stop-opacity:1;" />
      <stop
         id="stop8738"
         offset="1"
         style="stop-color:#ffffff;stop-opacity:0;" />
    </linearGradient>
    <radialGradient
       inkscape:collect="always"
       xlink:href="#linearGradient8734"
       id="radialGradient4717"
       gradientUnits="userSpaceOnUse"
       gradientTransform="matrix(0.9448618,0,0,0.2065601,-7.370926,65.82164)"
       cx="354.30826"
       cy="132.71753"
       fx="356.92679"
       fy="134.42079"
       r="70" />
    <radialGradient
       inkscape:collect="always"
       xlink:href="#linearGradient8734"
       id="radialGradient4729"
       gradientUnits="userSpaceOnUse"
       gradientTransform="matrix(3.6063428e-2,0,0,0.2065601,253.64233,65.82164)"
       cx="354.30826"
       cy="132.71753"
       fx="356.92679"
       fy="134.42079"
       r="70" />
    <mask
       maskUnits="userSpaceOnUse"
       id="mask3902">
      <rect
         rx="2.077126"
         ry="2.077126"
         y="10"
         x="-55"
         height="17"
         width="32"
         id="rect3904"
         style="fill:#ffffff;fill-opacity:1;fill-rule:nonzero;stroke:none" />
    </mask>
    <linearGradient
       y2="210.10277"
       x2="333.51367"
       y1="149.98631"
       x1="333.51367"
       gradientTransform="translate(-285,-161)"
       gradientUnits="userSpaceOnUse"
       id="linearGradient5007"
       xlink:href="#linearGradient8746"
       inkscape:collect="always" />
    <radialGradient
       r="70"
       fy="231.10249"
       fx="355.5"
       cy="231.10249"
       cx="355.5"
       gradientTransform="matrix(1.7796094,-1.5772391e-7,2.5458663e-8,0.2845765,-562.13461,-41.27396)"
       gradientUnits="userSpaceOnUse"
       id="radialGradient5009"
       xlink:href="#linearGradient8734"
       inkscape:collect="always" />
    <radialGradient
       r="70"
       fy="134.42079"
       fx="356.92679"
       cy="132.71753"
       cx="354.30826"
       gradientTransform="matrix(0.9448618,0,0,0.2065601,-266.37093,-33.17836)"
       gradientUnits="userSpaceOnUse"
       id="radialGradient5011"
       xlink:href="#linearGradient8734"
       inkscape:collect="always" />
    <linearGradient
       inkscape:collect="always"
       xlink:href="#linearGradient5085"
       id="linearGradient5614"
       gradientUnits="userSpaceOnUse"
       x1="34"
       y1="27"
       x2="34"
       y2="36" />
    <linearGradient
       inkscape:collect="always"
       xlink:href="#linearGradient5085"
       id="linearGradient5616"
       gradientUnits="userSpaceOnUse"
       x1="34"
       y1="27"
       x2="34"
       y2="36" />
    <linearGradient
       inkscape:collect="always"
       xlink:href="#linearGradient4932"
       id="linearGradient4077"
       gradientUnits="userSpaceOnUse"
       x1="186"
       y1="-35"
       x2="186"
       y2="-33"
       gradientTransform="matrix(1,0,0,1.5,0,16.5)" />
    <linearGradient
       inkscape:collect="always"
       xlink:href="#linearGradient4119"
       id="linearGradient4117"
       gradientUnits="userSpaceOnUse"
       x1="186"
       y1="-35"
       x2="186"
       y2="-33" />
    <style
       id="current-color-scheme"
       type="text/css">      .ColorScheme-Text {
        color:#31363b;
      }
      .ColorScheme-Background{
        color:#eff0f1;
      }
      .ColorScheme-ViewText {
        color:#31363b;
      }
      .ColorScheme-ViewBackground{
        color:#fcfcfc;
      }
      .ColorScheme-ViewHover {
        color:#3daee9;
      }
      .ColorScheme-ViewFocus{
        color:#3daee9;
      }
      .ColorScheme-ButtonText {
        color:#31363b;
      }
      .ColorScheme-ButtonBackground{
        color:#eff0f1;
      }
      .ColorScheme-ButtonHover {
        color:#3daee9;
      }
      .ColorScheme-ButtonFocus{
        color:#3daee9;
      }</style>
    <linearGradient
       inkscape:collect="always"
       xlink:href="#linearGradient4932"
       id="linearGradient3877"
       x1="116"
       y1="8"
       x2="116"
       y2="11"
       gradientUnits="userSpaceOnUse" />
    <linearGradient
       inkscape:collect="always"
       xlink:href="#linearGradient4932-7"
       id="linearGradient3877-9"
       x1="116"
       y1="8"
       x2="116"
       y2="11"
       gradientUnits="userSpaceOnUse" />
    <linearGradient
       id="linearGradient4932-7">
      <stop
         style="stop-color:#000000;stop-opacity:0.25098041;"
         offset="0"
         id="stop4934-5" />
      <stop
         style="stop-color:#000000;stop-opacity:0;"
         offset="1"
         id="stop4936-1" />
    </linearGradient>
    <linearGradient
       inkscape:collect="always"
       xlink:href="#linearGradient4932"
       id="linearGradient3877-7"
       x1="116"
       y1="8"
       x2="116"
       y2="11"
       gradientUnits="userSpaceOnUse" />
    <linearGradient
       id="linearGradient4932-6">
      <stop
         style="stop-color:#000000;stop-opacity:0.25098041;"
         offset="0"
         id="stop4934-1" />
      <stop
         style="stop-color:#000000;stop-opacity:0;"
         offset="1"
         id="stop4936-2" />
    </linearGradient>
  </defs>
  <rect
     style="fill:currentColor;fill-opacity:1;stroke:none;opacity:0.6"
     id="base-center"
     width="80"
     height="20"
     x="35"
     y="-35"
     inkscape:label="#rect3214"
     class="ColorScheme-ViewBackground" />
  <g
     id="base-top"
     transform="translate(-115,-2)"
     inkscape:label="#g4030">
    <rect
       y="-35"
       x="150"
       height="2"
       width="80"
       id="rect3984"
       style="fill:currentColor;fill-opacity:1;stroke:none;opacity:0.6"
       class="ColorScheme-ViewBackground" />
    <rect
       style="opacity:0.25;fill:currentColor;fill-opacity:1;stroke:none"
       id="rect3986"
       width="80"
       height="1"
       x="150"
       y="-36"
       class="ColorScheme-Text" />
    <rect
       class="ColorScheme-Text"
       y="-37"
       x="150"
       height="1"
       width="80"
       id="rect3916"
       style="opacity:0.01000000000000000;color:#31363b;fill:#eff0f1;fill-opacity:0.00392157;stroke:none" />
  </g>
  <g
     id="base-topleft"
     transform="translate(-115,-2)"
     inkscape:label="#g4039">
    <rect
       y="-34"
       x="149"
       height="1"
       width="1"
       id="rect4014"
       style="fill:currentColor;fill-opacity:1;stroke:none;opacity:0.6"
       class="ColorScheme-ViewBackground" />
    <path
       style="color:#31363b;opacity:0.25;fill:currentColor;fill-opacity:1;stroke:none;stroke-width:2"
       d="M 35 -38 A 2 2 0 0 0 33 -36 L 34 -36 A 1 1 0 0 1 35 -37 L 35 -38 z "
       transform="translate(115,2)"
       id="path3920" />
    <path
       style="color:#31363b;opacity:0.01000001;fill:#eff0f1;fill-opacity:0.00392157;stroke:none;stroke-width:3"
       d="m 149.0201,-37.282843 a 3,3 0 0 0 -3,3 h 2 a 1,1 0 0 1 0.006,-0.09961 1,1 0 0 1 0.99414,-0.900391 z"
       id="path3081"
       inkscape:connector-curvature="0" />
    <path
       sodipodi:end="4.712389"
       sodipodi:start="3.1415927"
       d="m 149,-35 c 0,-0.552285 0.44772,-1 1,-1 l 0,1 z"
       sodipodi:ry="1"
       sodipodi:rx="1"
       sodipodi:cy="-35"
       sodipodi:cx="150"
       id="path4016"
       style="fill:currentColor;fill-opacity:1;stroke:none;opacity:0.6"
       sodipodi:type="arc"
       class="ColorScheme-ViewBackground"
       transform="translate(0,1)" />
    <rect
       class="ColorScheme-Text"
       style="opacity:0.25;fill:currentColor;fill-opacity:1;stroke:none"
       id="rect3851"
       width="1"
       height="1"
       x="148"
       y="-34" />
    <rect
       y="-34"
       x="147"
       height="1"
       width="1"
       id="rect3918"
       style="opacity:0.01000000000000000;color:#31363b;fill:#eff0f1;fill-opacity:0.00392157;stroke:none"
       class="ColorScheme-Text" />
  </g>
  <rect
     y="11"
     x="35"
     height="20"
     width="80"
     id="focus-center"
     style="fill:currentColor;fill-opacity:1;stroke:none;opacity:0.01"
     inkscape:label="#rect4043"
     class="ColorScheme-ViewBackground" />
  <g
     id="focus-top"
     transform="translate(-115,44)"
     inkscape:label="#g4045">
    <rect
       y="-37"
       x="150"
       height="1"
       width="80"
       id="rect4049"
       style="fill:#fb8441;fill-opacity:1;stroke:none"
       class="ColorScheme-ViewFocus" />
    <rect
       y="-36"
       x="150"
       height="3"
       width="80"
       id="rect4051"
       style="fill:url(#linearGradient4077);fill-opacity:1;stroke:none" />
    <rect
       class="ColorScheme-ViewFocus"
       style="fill:currentColor;fill-opacity:1;stroke:none;opacity:0"
       id="rect4015"
       width="80"
       height="1"
       x="150"
       y="-38" />
  </g>
  <g
     id="focus-topright"
     transform="translate(-115,44)"
     inkscape:label="#g4067">
    <path
       style="opacity:0;fill:currentColor;fill-opacity:1;stroke:none"
       d="m 115,6 0,1 c 1.10457,0 2,0.8954305 2,2 l 1,0 c 0,-1.6568542 -1.34315,-3 -3,-3 z"
       transform="translate(115,-44)"
       id="path3948-61"
       class="ColorScheme-ViewFocus"
       inkscape:connector-curvature="0" />
    <path
       style="fill:#fb8441;fill-opacity:1;stroke:none"
       d="m 115,7 0,1 c 0.55228,0 1,0.4477153 1,1 l 1,0 c 0,-1.1045695 -0.89543,-2 -2,-2 z"
       transform="translate(115,-44)"
       id="path3863"
       class="ColorScheme-ViewFocus"
       inkscape:connector-curvature="0" />
    <path
       style="color:#3daee9;fill:url(#linearGradient3877);fill-opacity:1;stroke:none"
       d="M 115 8 L 115 9 L 115 11 L 116 11 L 116 9 C 116 8.4477153 115.55228 8 115 8 z "
       transform="translate(115,-44)"
       id="rect4069" />
    <rect
       class="ColorScheme-ViewFocus"
       transform="scale(-1,1)"
       style="fill:#fb8441;fill-opacity:1;stroke:none"
       id="rect3861"
       width="1"
       height="2"
       x="-232"
       y="-35" />
    <rect
       y="-35"
       x="-233"
       height="2"
       width="1"
       id="rect4038"
       style="fill:currentColor;fill-opacity:1;stroke:none;opacity:0"
       transform="scale(-1,1)"
       class="ColorScheme-ViewFocus" />
  </g>
  <rect
     style="fill:currentColor;fill-opacity:1;stroke:none;opacity:0.01"
     id="hover-center"
     width="80"
     height="20"
     x="35"
     y="57"
     inkscape:label="#rect4085"
     class="ColorScheme-ViewBackground" />
  <g
     transform="translate(-115,90)"
     id="hover-top"
     inkscape:label="#g4087">
    <rect
       y="-34"
       x="150"
       height="1"
       width="80"
       id="rect4089"
       style="opacity:0.01000001;fill:currentColor;fill-opacity:1;stroke:none"
       class="ColorScheme-ViewBackground" />
    <rect
       style="opacity:1;fill:#78abe8;fill-opacity:1;stroke:none"
       id="rect4091"
       width="80"
       height="1"
       x="150"
       y="-35"
       class="ColorScheme-ViewHover" />
    <rect
       class="ColorScheme-ViewHover"
       y="-36"
       x="150"
       height="1"
       width="80"
       id="rect3924"
       style="color:#3daee9;fill:#eff0f1;fill-opacity:0.00392157;stroke:none;opacity:0.01000000000000000" />
  </g>
  <g
     transform="translate(-115,90)"
     id="hover-topright"
     inkscape:label="#g4109">
    <path
       transform="matrix(-1,0,0,1,380,2)"
       sodipodi:type="arc"
       style="opacity:0.01;fill:currentColor;fill-opacity:1;stroke:none"
       id="path4113"
       sodipodi:cx="150"
       sodipodi:cy="-35"
       sodipodi:rx="1"
       sodipodi:ry="1"
       d="m 149,-35 c 0,-0.552285 0.44772,-1 1,-1 l 0,1 z"
       sodipodi:start="3.1415927"
       sodipodi:end="4.712389"
       class="ColorScheme-ViewHover" />
    <path
       class="ColorScheme-ViewFocus"
       id="path3927"
       d="m 230,-36 0,1.5 c 0.82842,0 1.5,0.671573 1.5,1.5 l 1.5,0 c 0,-1.656853 -1.34315,-3 -3,-3 z"
       style="color:#3daee9;fill:#eff0f1;fill-opacity:0.00392157;stroke:none;opacity:0.01000000000000000"
       inkscape:connector-curvature="0" />
    <path
       inkscape:connector-curvature="0"
       style="fill:#78abe8;fill-opacity:1;stroke:none"
       d="m 230,-35 0,1 c 0.55228,0 1,0.447715 1,1 l 1,0 c 0,-1.104569 -0.89543,-2 -2,-2 z"
       id="path3863-2"
       class="ColorScheme-ViewFocus" />
  </g>
  <rect
     ry="2.077126"
     rx="0"
     y="-1.3405813"
     x="-2.7400386"
     height="2.077126"
     width="2.0329318"
     id="hint-tile-center"
     style="opacity:1;fill:#4e9a06;fill-opacity:1;fill-rule:nonzero;stroke:none;stroke-width:6;stroke-linecap:round;stroke-linejoin:round;stroke-miterlimit:4;stroke-dasharray:none;stroke-dashoffset:0;stroke-opacity:1" />
  <rect
     style="fill:#4e9a06;fill-opacity:1;fill-rule:nonzero;stroke:none"
     id="base-hint-top-margin"
     width="2"
     height="6.0000038"
     x="73"
     y="-39" />
  <rect
     y="11.99"
     x="73"
     height="0.0099999998"
     width="2"
     id="focus-hint-top-margin"
     style="fill:#4e9a06;fill-opacity:1;fill-rule:nonzero;stroke:none" />
  <rect
     style="fill:#4e9a06;fill-opacity:1;fill-rule:nonzero;stroke:none"
     id="focus-hint-bottom-margin"
     width="2"
     height="0.0099999998"
     x="73"
     y="31.99" />
  <rect
     style="fill:#4e9a06;fill-opacity:1;fill-rule:nonzero;stroke:none"
     id="hover-hint-top-margin"
     width="2"
     height="0.0099999998"
     x="73"
     y="57.990002" />
  <rect
     y="65"
     x="34"
     height="1.9999999"
     width="0.0099999998"
     id="hover-hint-left-margin"
     style="fill:#4e9a06;fill-opacity:1;fill-rule:nonzero;stroke:none" />
  <rect
     style="fill:#4e9a06;fill-opacity:1;fill-rule:nonzero;stroke:none"
     id="hover-hint-right-margin"
     width="0.0099999998"
     height="1.9999999"
     x="112"
     y="65" />
  <rect
     style="fill:#4e9a06;fill-opacity:1;fill-rule:nonzero;stroke:none"
     id="focus-hint-left-margin"
     width="0.0099999998"
     height="1.9999999"
     x="34"
     y="18" />
  <rect
     y="18"
     x="112"
     height="1.9999999"
     width="0.0099999998"
     id="focus-hint-right-margin"
     style="fill:#4e9a06;fill-opacity:1;fill-rule:nonzero;stroke:none" />
  <rect
     y="77.989998"
     x="73"
     height="0.0099999998"
     width="2"
     id="hover-hint-bottom-margin"
     style="fill:#4e9a06;fill-opacity:1;fill-rule:nonzero;stroke:none" />
  <rect
     width="2.0329318"
     height="2.077126"
     rx="0"
     ry="2.077126"
     x="1.7897357"
     y="10.922874"
     id="hint-focus-over-base"
     style="opacity:0.98999999;fill:#4e9a06;fill-opacity:1;fill-rule:nonzero;stroke:none" />
  <g
     id="base-left">
    <rect
       class="ColorScheme-ViewBackground"
       inkscape:label="#rect4010"
       style="fill:currentColor;fill-opacity:1;stroke:none;opacity:0.6"
       id="rect3869"
       width="1"
       height="20"
       x="34"
       y="-35" />
    <rect
       y="-35"
       x="33"
       height="20"
       width="1"
       id="rect3853"
       style="opacity:0.25;fill:currentColor;fill-opacity:1;stroke:none"
       inkscape:label="#rect4010"
       class="ColorScheme-Text" />
    <rect
       class="ColorScheme-Text"
       inkscape:label="#rect4010"
       style="opacity:0.01000000000000000;color:#31363b;fill:#eff0f1;fill-opacity:0.00392157;stroke:none"
       id="rect3132"
       width="1"
       height="20"
       x="32"
       y="-35" />
  </g>
  <rect
     y="-27"
     x="32"
     height="1.9999999"
     width="6"
     id="base-hint-left-margin"
     style="fill:#4e9a06;fill-opacity:1;fill-rule:nonzero;stroke:none" />
  <g
     id="base-topright">
    <path
       class="ColorScheme-Text"
       sodipodi:type="arc"
       style="opacity:0.01000000000000000;color:#31363b;fill:#eff0f1;fill-opacity:0.00392157;stroke:none"
       id="path3914"
       sodipodi:cx="150"
       sodipodi:cy="-35"
       sodipodi:rx="1"
       sodipodi:ry="1"
       d="m 149,-35 a 1,1 0 0 1 1,-1 l 0,1 z"
       sodipodi:start="3.1415927"
       sodipodi:end="4.712389"
       transform="matrix(-2.9999999,0,0,2.9999999,564.99999,68.999998)" />
    <rect
       transform="scale(-1,1)"
       class="ColorScheme-ViewBackground"
       style="fill:currentColor;fill-opacity:1;stroke:none;opacity:0.6"
       id="rect3857"
       width="1"
       height="1"
       x="-116"
       y="-36" />
    <path
       style="color:#31363b;opacity:0.25;fill:currentColor;fill-opacity:1;stroke:none;stroke-width:2"
       d="M 115 -38 L 115 -37 A 1 1 0 0 1 116 -36 L 117 -36 A 2 2 0 0 0 115 -38 z "
       id="path3859" />
    <path
       transform="matrix(-1,0,0,1,265,-1)"
       class="ColorScheme-ViewBackground"
       sodipodi:type="arc"
       style="fill:currentColor;fill-opacity:1;stroke:none;opacity:0.6"
       id="path3861"
       sodipodi:cx="150"
       sodipodi:cy="-35"
       sodipodi:rx="1"
       sodipodi:ry="1"
       d="m 149,-35 a 1,1 0 0 1 1,-1 l 0,1 z"
       sodipodi:start="3.1415927"
       sodipodi:end="4.712389" />
    <rect
       transform="scale(-1,1)"
       y="-36"
       x="-117"
       height="1"
       width="1"
       id="rect3863"
       style="opacity:0.25;fill:currentColor;fill-opacity:1;stroke:none"
       class="ColorScheme-Text" />
    <rect
       class="ColorScheme-Text"
       style="opacity:0.01000000000000000;color:#31363b;fill:#eff0f1;fill-opacity:0.00392157;stroke:none"
       id="rect3912"
       width="1"
       height="1"
       x="-118"
       y="-36"
       transform="scale(-1,1)" />
  </g>
  <g
     id="base-bottomright"
     transform="matrix(-1,0,0,1,265,-2)">
    <path
       class="ColorScheme-Text"
       sodipodi:type="arc"
       style="opacity:0.01000000000000000;color:#31363b;fill:#eff0f1;fill-opacity:0.00392157;stroke:none"
       id="path3908"
       sodipodi:cx="150"
       sodipodi:cy="-35"
       sodipodi:rx="1"
       sodipodi:ry="1"
       d="m 149,-35 c 0,-0.552285 0.44772,-1 1,-1 l 0,1 z"
       sodipodi:start="3.1415927"
       sodipodi:end="4.712389"
       transform="matrix(3,0,0,-3,-300,-118)" />
    <path
       style="color:#31363b;opacity:0.25;fill:currentColor;fill-opacity:1;stroke:none;stroke-width:2"
       d="M 116 -15 A 1 1 0 0 1 115 -14 L 115 -13 A 2 2 0 0 0 117 -15 L 116 -15 z "
       transform="matrix(-1,0,0,1,265,2)"
       id="path3859-0" />
    <path
       transform="matrix(1,0,0,-1,-3.9230599e-8,-48)"
       class="ColorScheme-ViewBackground"
       sodipodi:type="arc"
       style="fill:currentColor;fill-opacity:1;stroke:none;opacity:0.6"
       id="path3861-9"
       sodipodi:cx="150"
       sodipodi:cy="-35"
       sodipodi:rx="1"
       sodipodi:ry="1"
       d="m 149,-35 c 0,-0.552285 0.44772,-1 1,-1 l 0,1 z"
       sodipodi:start="3.1415927"
       sodipodi:end="4.712389" />
  </g>
  <g
     id="base-right"
     transform="matrix(-1,0,0,1,150,0)">
    <rect
       y="-35"
       x="34"
       height="20"
       width="1"
       id="rect3873"
       style="fill:currentColor;fill-opacity:1;stroke:none;opacity:0.6"
       inkscape:label="#rect4010"
       class="ColorScheme-ViewBackground" />
    <rect
       class="ColorScheme-Text"
       inkscape:label="#rect4010"
       style="opacity:0.25;fill:currentColor;fill-opacity:1;stroke:none"
       id="rect3875"
       width="1"
       height="20"
       x="33"
       y="-35" />
    <rect
       y="-35"
       x="32"
       height="20"
       width="1"
       id="rect3910"
       style="opacity:0.01000000000000000;color:#31363b;fill:#eff0f1;fill-opacity:0.00392157;stroke:none"
       inkscape:label="#rect4010"
       class="ColorScheme-Text" />
  </g>
  <rect
     style="fill:#4e9a06;fill-opacity:1;fill-rule:nonzero;stroke:none"
     id="base-hint-right-margin"
     width="5.9999914"
     height="2"
     x="112"
     y="-27" />
  <g
     inkscape:label="#g4030"
     transform="matrix(1,0,0,-1,-115,-49)"
     id="base-bottom">
    <rect
       class="ColorScheme-ViewBackground"
       style="fill:currentColor;fill-opacity:1;stroke:none;opacity:0.6"
       id="rect3905"
       width="80"
       height="1"
       x="150"
       y="-35" />
    <rect
       class="ColorScheme-Text"
       y="-36"
       x="150"
       height="1"
       width="80"
       id="rect3907"
       style="opacity:0.25;fill:currentColor;fill-opacity:1;stroke:none" />
    <rect
       style="opacity:0.01000000000000000;color:#31363b;fill:#eff0f1;fill-opacity:0.00392157;stroke:none"
       id="rect3906"
       width="80"
       height="1"
       x="150"
       y="-37"
       class="ColorScheme-Text" />
  </g>
  <rect
     y="-18"
     x="73"
     height="6.0000062"
     width="2"
     id="base-hint-bottom-margin"
     style="fill:#4e9a06;fill-opacity:1;fill-rule:nonzero;stroke:none" />
  <g
     transform="translate(-115,-2)"
     id="base-bottomleft">
    <path
       transform="matrix(2.9999999,0,0,-3,-299.99999,-118)"
       sodipodi:end="4.712389"
       sodipodi:start="3.1415927"
       d="m 149,-35 c 0,-0.552285 0.44772,-1 1,-1 l 0,1 z"
       sodipodi:ry="1"
       sodipodi:rx="1"
       sodipodi:cy="-35"
       sodipodi:cx="150"
       id="path3902"
       style="opacity:0.01000000000000000;color:#31363b;fill:#eff0f1;fill-opacity:0.00392157;stroke:none"
       sodipodi:type="arc"
       class="ColorScheme-Text" />
    <path
       style="color:#31363b;opacity:0.25;fill:currentColor;fill-opacity:1;stroke:none;stroke-width:2"
       d="M 33 -15 A 2 2 0 0 0 35 -13 L 35 -14 A 1 1 0 0 1 34 -15 L 33 -15 z "
       transform="translate(115,2)"
       id="path3924" />
    <path
       sodipodi:end="4.712389"
       sodipodi:start="3.1415927"
       d="m 149,-35 c 0,-0.552285 0.44772,-1 1,-1 l 0,1 z"
       sodipodi:ry="1"
       sodipodi:rx="1"
       sodipodi:cy="-35"
       sodipodi:cx="150"
       id="path3926"
       style="fill:currentColor;fill-opacity:1;stroke:none;opacity:0.6"
       sodipodi:type="arc"
       class="ColorScheme-ViewBackground"
       transform="matrix(1,0,0,-1,-3.9230599e-8,-48)" />
  </g>
  <g
     id="focus-right"
     inkscape:label="#g3918">
    <rect
       class="ColorScheme-ViewFocus"
       inkscape:label="#rect4065"
       style="opacity:0.01000001;fill:currentColor;fill-opacity:1;stroke:none"
       id="rect4065"
       width="1"
       height="20"
       x="-116"
       y="11"
       transform="scale(-1,1)" />
    <rect
       transform="scale(-1,1)"
       y="11"
       x="-117"
       height="20"
       width="1"
       id="rect3865"
       style="fill:#fb8441;fill-opacity:1;stroke:none"
       inkscape:label="#rect4065"
       class="ColorScheme-ViewFocus" />
    <rect
       class="ColorScheme-ViewFocus"
       inkscape:label="#rect4065"
       style="fill:currentColor;fill-opacity:1;stroke:none;opacity:0"
       id="rect4040"
       width="1"
       height="20"
       x="-118"
       y="11"
       transform="scale(-1,1)" />
  </g>
  <g
     transform="matrix(-1,0,0,1,150,0)"
     id="focus-left"
     inkscape:label="#g3918">
    <rect
       class="ColorScheme-ViewFocus"
       inkscape:label="#rect4065"
       style="opacity:0.01000001;fill:currentColor;fill-opacity:1;stroke:none"
       id="rect4065-5"
       width="1"
       height="20"
       x="-116"
       y="11"
       transform="scale(-1,1)" />
    <rect
       transform="scale(-1,1)"
       y="11"
       x="-117"
       height="20"
       width="1"
       id="rect3865-0"
       style="fill:#fb8441;fill-opacity:1;stroke:none"
       inkscape:label="#rect4065"
       class="ColorScheme-ViewFocus" />
    <rect
       class="ColorScheme-ViewFocus"
       inkscape:label="#rect4065"
       style="fill:currentColor;fill-opacity:1;stroke:none;opacity:0"
       id="rect4070"
       width="1"
       height="20"
       x="-118"
       y="11"
       transform="scale(-1,1)" />
  </g>
  <g
     id="focus-bottomright"
     inkscape:label="#g3951">
    <path
       id="path3946"
       d="m 116,31 c 0,0.552285 -0.44772,1 -1,1 l 0,1 c 1.10457,0 2,-0.895431 2,-2 l -1,0 z"
       style="fill:#fb8441;fill-opacity:1;stroke:none"
       class="ColorScheme-ViewFocus"
       inkscape:connector-curvature="0" />
    <path
       sodipodi:end="4.712389"
       sodipodi:start="3.1415927"
       d="m 149,-35 a 1,1 0 0 1 1,-1 l 0,1 z"
       sodipodi:ry="1"
       sodipodi:rx="1"
       sodipodi:cy="-35"
       sodipodi:cx="150"
       id="path3948"
       style="fill:currentColor;fill-opacity:1;stroke:none;opacity:0.01"
       sodipodi:type="arc"
       transform="matrix(-1,0,0,-1,265,-4)"
       inkscape:label="#path4073"
       class="ColorScheme-ViewFocus" />
    <path
       inkscape:connector-curvature="0"
       style="opacity:0;fill:currentColor;fill-opacity:1;stroke:none"
       d="m 115,34 0,-1 c 1.10457,0 2,-0.895431 2,-2 l 1,0 c 0,1.656854 -1.34315,3 -3,3 z"
       id="path3948-61-5"
       class="ColorScheme-ViewFocus" />
  </g>
  <g
     id="focus-bottom"
     inkscape:label="#g3975">
    <rect
       class="ColorScheme-ViewFocus"
       inkscape:label="#rect4063"
       style="fill:currentColor;fill-opacity:1;stroke:none;opacity:0.01"
       id="rect4063"
       width="80"
       height="1"
       x="35"
       y="31" />
    <rect
       class="ColorScheme-ViewFocus"
       inkscape:label="#rect4063"
       style="fill:#fb8441;fill-opacity:1;stroke:none"
       id="rect4063-1"
       width="80"
       height="1"
       x="35"
       y="32" />
    <rect
       y="33"
       x="35"
       height="1"
       width="80"
       id="rect4060"
       style="fill:currentColor;fill-opacity:1;stroke:none;opacity:0"
       inkscape:label="#rect4063"
       class="ColorScheme-ViewFocus" />
  </g>
  <g
     transform="matrix(-1,0,0,1,150,0)"
     id="focus-bottomleft"
     inkscape:label="#g3951">
    <path
       inkscape:connector-curvature="0"
       id="path3946-0"
       d="m 116,31 c 0,0.552285 -0.44772,1 -1,1 l 0,1 c 1.10457,0 2,-0.895431 2,-2 l -1,0 z"
       style="fill:#fb8441;fill-opacity:1;stroke:none"
       class="ColorScheme-ViewFocus" />
    <path
       sodipodi:end="4.712389"
       sodipodi:start="3.1415927"
       d="m 149,-35 c 0,-0.552285 0.44772,-1 1,-1 l 0,1 z"
       sodipodi:ry="1"
       sodipodi:rx="1"
       sodipodi:cy="-35"
       sodipodi:cx="150"
       id="path3948-6"
       style="opacity:0.01000001;fill:currentColor;fill-opacity:1;stroke:none"
       sodipodi:type="arc"
       transform="matrix(-1,0,0,-1,265,-4)"
       inkscape:label="#path4073"
       class="ColorScheme-ViewFocus" />
    <path
       inkscape:connector-curvature="0"
       style="opacity:0;fill:currentColor;fill-opacity:1;stroke:none"
       d="m 115,34 0,-1 c 1.10457,0 2,-0.895431 2,-2 l 1,0 c 0,1.656854 -1.34315,3 -3,3 z"
       id="path3948-61-50"
       class="ColorScheme-ViewFocus" />
  </g>
  <g
     id="focus-topleft"
     transform="matrix(-1,0,0,1,265,44)"
     inkscape:label="#g4067">
    <path
       inkscape:connector-curvature="0"
       style="opacity:0;fill:currentColor;fill-opacity:1;stroke:none"
       d="m 115,6 0,1 c 1.10457,0 2,0.8954305 2,2 l 1,0 c 0,-1.6568542 -1.34315,-3 -3,-3 z"
       transform="translate(115,-44)"
       id="path3948-61-7"
       class="ColorScheme-ViewFocus" />
    <path
       inkscape:connector-curvature="0"
       style="fill:#fb8441;fill-opacity:1;stroke:none"
       d="m 115,7 0,1 c 0.55228,0 1,0.4477153 1,1 l 1,0 c 0,-1.1045695 -0.89543,-2 -2,-2 z"
       transform="translate(115,-44)"
       id="path3863-9"
       class="ColorScheme-ViewFocus" />
    <path
       inkscape:connector-curvature="0"
       style="color:#3daee9;fill:url(#linearGradient3877-7);fill-opacity:1.0;stroke:none"
       d="m 115,8 0,1 0,2 1,0 0,-2 c 0,-0.5522847 -0.44772,-1 -1,-1 z"
       transform="translate(115,-44)"
       id="rect4069-3" />
    <rect
       class="ColorScheme-ViewFocus"
       transform="scale(-1,1)"
       style="fill:#fb8441;fill-opacity:1;stroke:none"
       id="rect3861-8"
       width="1"
       height="2"
       x="-232"
       y="-35" />
    <rect
       y="-35"
       x="-233"
       height="2"
       width="1"
       id="rect4038-0"
       style="opacity:0;fill:currentColor;fill-opacity:1;stroke:none"
       transform="scale(-1,1)"
       class="ColorScheme-ViewFocus" />
  </g>
  <g
     transform="matrix(-1,0,0,1,265,90)"
     id="hover-topleft"
     inkscape:label="#g4109">
    <path
       transform="matrix(-1,0,0,1,380,2)"
       sodipodi:type="arc"
       style="opacity:0.01000001;fill:currentColor;fill-opacity:1;stroke:none"
       id="path4113-9"
       sodipodi:cx="150"
       sodipodi:cy="-35"
       sodipodi:rx="1"
       sodipodi:ry="1"
       d="m 149,-35 c 0,-0.552285 0.44772,-1 1,-1 l 0,1 z"
       sodipodi:start="3.1415927"
       sodipodi:end="4.712389"
       class="ColorScheme-ViewHover" />
    <path
       class="ColorScheme-ViewFocus"
       id="path3922"
       d="m 230,-36 0,1.5 c 0.82842,0 1.5,0.671573 1.5,1.5 l 1.5,0 c 0,-1.656853 -1.34315,-3 -3,-3 z"
       style="color:#3daee9;fill:#eff0f1;fill-opacity:0.00392157;stroke:none;opacity:0.01000000000000000"
       inkscape:connector-curvature="0" />
    <path
       inkscape:connector-curvature="0"
       style="fill:#78abe8;fill-opacity:1;stroke:none"
       d="m 230,-35 0,1 c 0.55228,0 1,0.447715 1,1 l 1,0 c 0,-1.104569 -0.89543,-2 -2,-2 z"
       id="path3863-2-7"
       class="ColorScheme-ViewFocus" />
  </g>
  <g
     id="hover-right"
     inkscape:label="#g4161">
    <rect
       class="ColorScheme-ViewHover"
       inkscape:label="#rect4107"
       transform="scale(-1,1)"
       y="57"
       x="-116"
       height="20"
       width="1"
       id="rect4107"
       style="opacity:0.01;fill:currentColor;fill-opacity:1;stroke:none" />
    <rect
       style="opacity:1;fill:#78abe8;fill-opacity:1;stroke:none"
       id="rect4159"
       width="1"
       height="20"
       x="-117"
       y="57"
       transform="scale(-1,1)"
       inkscape:label="#rect4107"
       class="ColorScheme-ViewHover" />
    <rect
       class="ColorScheme-ViewHover"
       inkscape:label="#rect4107"
       transform="scale(-1,1)"
       y="57"
       x="-118"
       height="20"
       width="1"
       id="rect3929"
       style="color:#3daee9;fill:#eff0f1;fill-opacity:0.00392157;stroke:none;opacity:0.01000000000000000" />
  </g>
  <g
     id="hover-left"
     inkscape:label="#g4167">
    <rect
       class="ColorScheme-ViewHover"
       inkscape:label="#rect4095"
       style="opacity:0.01;fill:currentColor;fill-opacity:1;stroke:none"
       id="rect4095"
       width="1"
       height="20"
       x="34"
       y="57" />
    <rect
       y="57"
       x="33"
       height="20"
       width="1"
       id="rect4165"
       style="opacity:1;fill:#78abe8;fill-opacity:1;stroke:none"
       inkscape:label="#rect4095"
       class="ColorScheme-ViewHover" />
    <rect
       class="ColorScheme-ViewHover"
       inkscape:label="#rect4095"
       style="color:#3daee9;fill:#eff0f1;fill-opacity:0.00392157;stroke:none;opacity:0.01000000000000000"
       id="rect3937"
       width="1"
       height="20"
       x="32.00256"
       y="57" />
  </g>
  <g
     transform="matrix(1,0,0,-1,-115,44)"
     id="hover-bottomright"
     inkscape:label="#g4109">
    <path
       class="ColorScheme-ViewFocus"
       id="path3931"
       d="m 230,-36 0,1.5 c 0.82842,0 1.5,0.671573 1.5,1.5 l 1.5,0 c 0,-1.656853 -1.34315,-3 -3,-3 z"
       style="color:#3daee9;fill:#eff0f1;fill-opacity:0.00392157;stroke:none;opacity:0.01000000000000000"
       inkscape:connector-curvature="0" />
    <path
       transform="matrix(-1,0,0,1,380,2)"
       sodipodi:type="arc"
       style="opacity:0.01000001;fill:currentColor;fill-opacity:1;stroke:none"
       id="path4113-5"
       sodipodi:cx="150"
       sodipodi:cy="-35"
       sodipodi:rx="1"
       sodipodi:ry="1"
       d="m 149,-35 c 0,-0.552285 0.44772,-1 1,-1 l 0,1 z"
       sodipodi:start="3.1415927"
       sodipodi:end="4.712389"
       class="ColorScheme-ViewHover" />
    <path
       inkscape:connector-curvature="0"
       style="fill:#78abe8;fill-opacity:1;stroke:none"
       d="m 230,-35 0,1 c 0.55228,0 1,0.447715 1,1 l 1,0 c 0,-1.104569 -0.89543,-2 -2,-2 z"
       id="path3863-2-5"
       class="ColorScheme-ViewFocus" />
  </g>
  <g
     id="hover-bottom"
     inkscape:label="#g4221">
    <rect
       class="ColorScheme-ViewHover"
       inkscape:label="#rect4105"
       y="78"
       x="35"
       height="1"
       width="80"
       id="rect4105"
       style="opacity:1;fill:#78abe8;fill-opacity:1;stroke:none" />
    <rect
       style="opacity:0.01;fill:currentColor;fill-opacity:1;stroke:none"
       id="rect4195"
       width="80"
       height="1"
       x="35"
       y="77"
       inkscape:label="#rect4105"
       class="ColorScheme-ViewHover" />
    <rect
       style="color:#3daee9;fill:#eff0f1;fill-opacity:0.00392157;stroke:none;opacity:0.01000000000000000"
       id="rect3933"
       width="80"
       height="1"
       x="35"
       y="78.997444"
       inkscape:label="#rect4105"
       class="ColorScheme-ViewHover" />
  </g>
  <g
     transform="matrix(-1,0,0,-1,265,44)"
     id="hover-bottomleft"
     inkscape:label="#g4109">
    <path
       class="ColorScheme-ViewFocus"
       id="path3935"
       d="m 230,-35.997444 0,1.498722 c 0.82771,0 1.49872,0.671 1.49872,1.498722 l 1.49872,0 c 0,-1.655442 -1.342,-2.997444 -2.99744,-2.997444 z"
       style="color:#3daee9;fill:#eff0f1;fill-opacity:0.00392157;stroke:none;opacity:0.01000000000000000"
       inkscape:connector-curvature="0" />
    <path
       transform="matrix(-1,0,0,1,380,2)"
       sodipodi:type="arc"
       style="opacity:0.01000001;fill:currentColor;fill-opacity:1;stroke:none"
       id="path4113-5-9"
       sodipodi:cx="150"
       sodipodi:cy="-35"
       sodipodi:rx="1"
       sodipodi:ry="1"
       d="m 149,-35 c 0,-0.552285 0.44772,-1 1,-1 l 0,1 z"
       sodipodi:start="3.1415927"
       sodipodi:end="4.712389"
       class="ColorScheme-ViewHover" />
    <path
       inkscape:connector-curvature="0"
       style="fill:#78abe8;fill-opacity:1;stroke:none"
       d="m 230,-35 0,1 c 0.55228,0 1,0.447715 1,1 l 1,0 c 0,-1.104569 -0.89543,-2 -2,-2 z"
       id="path3863-2-5-8"
       class="ColorScheme-ViewFocus" />
  </g>
</svg>
