<?xml version="1.0" encoding="UTF-8" standalone="no"?>
<svg
   xmlns:dc="http://purl.org/dc/elements/1.1/"
   xmlns:cc="http://creativecommons.org/ns#"
   xmlns:rdf="http://www.w3.org/1999/02/22-rdf-syntax-ns#"
   xmlns:svg="http://www.w3.org/2000/svg"
   xmlns="http://www.w3.org/2000/svg"
   xmlns:xlink="http://www.w3.org/1999/xlink"
   xmlns:sodipodi="http://sodipodi.sourceforge.net/DTD/sodipodi-0.dtd"
   xmlns:inkscape="http://www.inkscape.org/namespaces/inkscape"
   sodipodi:docname="panel-background.svg"
   inkscape:version="1.0 (4035a4fb49, 2020-05-01)"
   version="1.1"
   id="svg2"
   viewBox="0 0 173 56.000004"
   height="56.000004"
   width="173">
  <defs
     id="defs4">
    <style
       id="current-color-scheme"
       type="text/css">
      .ColorScheme-Text {
        color:#31363b;
        stop-color:#31363b;
      }
      .ColorScheme-Background {
        color:#eff0f1;
        stop-color:#eff0f1;
      }
      .ColorScheme-Highlight {
        color:#3daee9;
        stop-color:#3daee9;
      }
      .ColorScheme-ViewText {
        color:#31363b;
        stop-color:#31363b;
      }
      .ColorScheme-ViewBackground {
        color:#fcfcfc;
        stop-color:#fcfcfc;
      }
      .ColorScheme-ViewHover {
        color:#93cee9;
        stop-color:#93cee9;
      }
      .ColorScheme-ViewFocus{
        color:#3daee9;
        stop-color:#3daee9;
      }
      .ColorScheme-ButtonText {
        color:#31363b;
        stop-color:#31363b;
      }
      .ColorScheme-ButtonBackground {
        color:#eff0f1;
        stop-color:#eff0f1;
      }
      .ColorScheme-ButtonHover {
        color:#93cee9;
        stop-color:#93cee9;
      }
      .ColorScheme-ButtonFocus{
        color:#3daee9;
        stop-color:#3daee9;
      }
      </style>
    <linearGradient
       y2="932.36218"
       x2="69"
       y1="932.36218"
       x1="51"
       gradientUnits="userSpaceOnUse"
       id="linearGradient4950"
       xlink:href="#linearGradient4270"
       inkscape:collect="always" />
    <linearGradient
       inkscape:collect="always"
       id="linearGradient4270">
      <stop
         style="stop-color:#000000;stop-opacity:0.66663194"
         offset="0"
         id="stop4272" />
      <stop
         style="stop-color:#000000;stop-opacity:0;"
         offset="1"
         id="stop4274" />
    </linearGradient>
    <linearGradient
       gradientTransform="matrix(2.3333338,0,0,1,17.333342,0)"
       y2="932.36218"
       x2="-7.8571448"
       y1="932.36218"
       x1="-15.571429"
       gradientUnits="userSpaceOnUse"
       id="linearGradient4948"
       xlink:href="#linearGradient4270"
       inkscape:collect="always" />
    <linearGradient
       gradientTransform="matrix(2.3333296,0,0,1,-1272.4793,0)"
       y2="-35"
       x2="960.36218"
       y1="-35"
       x1="951.79071"
       gradientUnits="userSpaceOnUse"
       id="linearGradient4934"
       xlink:href="#linearGradient4270"
       inkscape:collect="always" />
    <linearGradient
       gradientTransform="matrix(2.3333371,0,0,1,1213.8197,0)"
       y2="-35"
       x2="-905.21936"
       y1="-35"
       x1="-912.93359"
       gradientUnits="userSpaceOnUse"
       id="linearGradient4920"
       xlink:href="#linearGradient4270"
       inkscape:collect="always" />
    <radialGradient
       r="10"
       fy="11.99998"
       fx="77"
       cy="11.99998"
       cx="77"
       gradientTransform="matrix(0,-1.8,1.8,0,55.400036,150.59998)"
       gradientUnits="userSpaceOnUse"
       id="radialGradient1805"
       xlink:href="#linearGradient4270"
       inkscape:collect="always" />
  </defs>
  <sodipodi:namedview
     inkscape:document-rotation="0"
     inkscape:snap-bbox-edge-midpoints="true"
     inkscape:bbox-nodes="true"
     inkscape:snap-bbox="true"
     inkscape:guide-bbox="true"
     fit-margin-bottom="0"
     fit-margin-right="0"
     fit-margin-left="0"
     fit-margin-top="0"
     showguides="true"
     inkscape:window-maximized="1"
     inkscape:window-y="32"
     inkscape:window-x="0"
     inkscape:window-height="1019"
     inkscape:window-width="1920"
     units="px"
     borderlayer="true"
     inkscape:showpageshadow="false"
     showgrid="true"
     inkscape:current-layer="layer1"
     inkscape:document-units="px"
     inkscape:cy="42.319486"
     inkscape:cx="105.49339"
     inkscape:zoom="19.84745"
     inkscape:pageshadow="2"
     inkscape:pageopacity="0"
     borderopacity="1"
     bordercolor="#cc0000"
     pagecolor="#bdbdbd"
     id="base">
    <inkscape:grid
       originy="-91.999976"
       originx="0"
       empspacing="2"
       id="grid3336"
       type="xygrid" />
    <sodipodi:guide
       inkscape:locked="false"
       id="guide1808"
       orientation="0,1"
       position="93,64.000024" />
  </sodipodi:namedview>
  <metadata
     id="metadata7">
    <rdf:RDF>
      <cc:Work
         rdf:about="">
        <dc:format>image/svg+xml</dc:format>
        <dc:type
           rdf:resource="http://purl.org/dc/dcmitype/StillImage" />
        <dc:title />
      </cc:Work>
    </rdf:RDF>
  </metadata>
  <g
     transform="translate(0,-904.36218)"
     id="layer1"
     inkscape:groupmode="layer"
     inkscape:label="Layer 1">
    <rect
       y="904.36218"
       x="0"
       height="5"
       width="5"
       id="hint-tile-center"
       style="opacity:1;fill:#ff6600;fill-opacity:1;stroke:none" />
    <g
       id="top">
      <rect
         class="ColorScheme-Background"
         transform="matrix(0,-1,-1,0,0,0)"
         style="opacity:0.8;fill:#fafbfc;fill-opacity:1;stroke:none"
         id="rect4152"
         width="6"
         height="32"
         x="-916.36218"
         y="-50.999985" />
    </g>
    <g
       id="topleft">
      <path
         id="rect4159"
         transform="translate(0,904.36218)"
         d="M 18 6 C 15.230013 6 13 8.2300127 13 11 L 13 12 L 17 12 L 18 12 L 19 12 L 19 11 L 19 7 L 19 6 L 18 6 z "
         style="opacity:0.8;fill:#fafbfc;fill-opacity:1" />
    </g>
    <g
       id="topright">
      <path
         id="rect4177"
         transform="translate(0,904.36218)"
         d="M 51 6 L 51 7 L 51 11 L 51 12 L 52 12 L 53 12 L 56 12 L 57 12 L 57 11 C 57 8.2300127 54.769987 6 52 6 L 51 6 z "
         style="opacity:0.8;fill:#fafbfc;fill-opacity:1" />
    </g>
    <g
       id="bottom">
      <rect
         class="ColorScheme-Background"
         y="-50.999985"
         x="948.36218"
         height="32"
         width="6"
         id="rect4148"
         style="opacity:0.8;fill:#fafbfc;fill-opacity:1;stroke:none"
         transform="matrix(0,1,-1,0,0,0)" />
    </g>
    <g
       id="bottomleft">
      <path
         id="path5048"
         transform="translate(0,904.36218)"
         d="M 13 44 L 13 45 C 13 47.769987 15.230013 50 18 50 L 19 50 L 19 49 L 19 45 L 19 44 L 18 44 L 17 44 L 14 44 L 13 44 z "
         style="opacity:0.8;fill:#fafbfc;fill-opacity:1" />
    </g>
    <g
       id="bottomright">
      <path
         id="rect4177-6"
         transform="translate(0,904.36218)"
         d="M 51 44 L 51 45 L 51 49 L 51 50 L 52 50 C 54.769987 50 57 47.769987 57 45 L 57 44 L 56 44 L 53 44 L 52 44 L 51 44 z "
         style="opacity:0.8;fill:#fafbfc;fill-opacity:1" />
    </g>
    <g
       id="left">
      <rect
         class="ColorScheme-Background"
         y="916.36218"
         x="-19.000004"
         height="32"
         width="5.9999995"
         id="rect4144"
         style="opacity:0.8;fill:#fafbfc;fill-opacity:1;stroke:none"
         transform="scale(-1,1)" />
    </g>
    <g
       id="right">
      <rect
         class="ColorScheme-Background"
         style="opacity:0.8;fill:#fafbfc;fill-opacity:1;stroke:none"
         id="rect4140"
         width="5.9999995"
         height="32"
         x="50.999985"
         y="916.36218" />
    </g>
    <g
       id="center">
      <rect
         style="opacity:1;fill:none;fill-opacity:1;stroke:none"
         id="rect4401"
         width="32"
         height="32"
         x="19.000004"
         y="916.36218" />
      <rect
         class="ColorScheme-Background"
         y="916.36218"
         x="19.000004"
         height="32"
         width="32"
         id="rect4138"
         style="opacity:0.8;fill:#fafbfc;fill-opacity:1;stroke:none" />
    </g>
    <rect
       y="910.36218"
       x="33"
       height="1.9999769"
       width="4"
       id="hint-top-margin"
       style="fill:#ff00ff;fill-opacity:1;stroke:none" />
    <rect
       style="fill:#ff00ff;fill-opacity:1;stroke:none"
       id="hint-bottom-margin"
       width="4"
       height="2.0000231"
       x="33"
       y="952.36218" />
    <rect
       transform="matrix(0,1,-1,0,0,0)"
       style="fill:#ff00ff;fill-opacity:1;stroke:none"
       id="hint-right-margin"
       width="3.9999769"
       height="1.9999847"
       x="930.36218"
       y="-56.999985" />
    <rect
       transform="matrix(0,1,-1,0,0,0)"
       y="-14.999996"
       x="930.36218"
       height="2.0000019"
       width="4"
       id="hint-left-margin"
       style="fill:#ff00ff;fill-opacity:1;stroke:none" />
    <g
       transform="translate(116,0)"
       id="mask-top">
      <rect
         y="-51"
         x="-915.36218"
         height="32.000015"
         width="4.9999771"
         id="rect4265"
         style="opacity:0.97000002;fill:#000000;fill-opacity:1;stroke:none"
         transform="matrix(0,-1,-1,0,0,0)" />
    </g>
    <g
       transform="translate(116,0)"
       id="mask-topleft">
      <path
         id="path4277"
         transform="translate(-116,904.36218)"
         d="M 134 6 C 131.23001 6 129 8.2300127 129 11 L 134 11 L 134 6 z "
         style="opacity:0.97000002;fill:#000000;fill-opacity:1" />
    </g>
    <g
       transform="translate(116,0)"
       id="mask-topright">
      <path
         id="path4287"
         transform="translate(-116,904.36218)"
         d="M 168 6 L 168 11 L 173 11 C 173 8.2300127 170.76999 6 168 6 z "
         style="opacity:0.97000002;fill:#000000;fill-opacity:1" />
    </g>
    <g
       transform="translate(116,0)"
       id="mask-bottom">
      <rect
         transform="matrix(0,1,-1,0,0,0)"
         style="opacity:0.97000002;fill:#000000;fill-opacity:1;stroke:none"
         id="rect4291"
         width="5.0000229"
         height="32.000015"
         x="949.36218"
         y="-51" />
    </g>
    <g
       transform="translate(116,0)"
       id="mask-bottomleft">
      <path
         id="path4303"
         transform="translate(-116,904.36218)"
         d="M 129 45 C 129 47.769987 131.23001 50 134 50 L 134 45 L 129 45 z "
         style="opacity:0.97000002;fill:#000000;fill-opacity:1" />
    </g>
    <g
       transform="translate(116,0)"
       id="mask-bottomright">
      <path
         id="path4313"
         transform="translate(-116,904.36218)"
         d="M 168 45 L 168 50 C 170.76999 50 173 47.769987 173 45 L 168 45 z "
         style="opacity:0.97000002;fill:#000000;fill-opacity:1" />
    </g>
    <g
       transform="translate(116,0)"
       id="mask-left">
      <rect
         transform="scale(-1,1)"
         style="opacity:0.97000002;fill:#000000;fill-opacity:1;stroke:none"
         id="rect4317"
         width="4.9999962"
         height="32.000023"
         x="-18"
         y="916.36218" />
    </g>
    <g
       transform="translate(116,0)"
       id="mask-right">
      <rect
         y="916.36218"
         x="52"
         height="32.000023"
         width="4.9999847"
         id="rect4323"
         style="opacity:0.97000002;fill:#000000;fill-opacity:1;stroke:none" />
    </g>
    <g
       transform="translate(116,0)"
       id="mask-center">
      <rect
         y="916.36218"
         x="19.000004"
         height="32"
         width="32"
         id="rect4329"
         style="opacity:1;fill:none;fill-opacity:1;stroke:none" />
      <rect
         style="opacity:0.97000002;fill:#000000;fill-opacity:1;stroke:none"
         id="rect4331"
         width="32"
         height="32"
         x="19.000004"
         y="916.36218" />
    </g>
    <g
       transform="translate(58,-1.8530272e-7)"
       id="shadow-top">
      <rect
         y="-50.999985"
         x="-916.36218"
         height="32"
         width="6"
         id="rect4820"
         style="opacity:1;fill:none;fill-opacity:1;stroke:none"
         transform="matrix(0,-1,-1,0,0,0)" />
      <rect
         y="-50.999985"
         x="-910.36218"
         height="32"
         width="14.000023"
         id="rect4822"
         style="opacity:0.15;fill:url(#linearGradient4920);fill-opacity:1;stroke:none;stroke-width:1.5275265"
         transform="matrix(0,-1,-1,0,0,0)" />
      <rect
         transform="matrix(0,-1,-1,0,0,0)"
         style="opacity:1;fill:none;fill-opacity:1;stroke:none"
         id="rect4824"
         width="0.99997741"
         height="32"
         x="-911.36218"
         y="-50.999985" />
      <rect
         transform="matrix(0,-1,-1,0,0,0)"
         style="opacity:0.15;fill:#000000;fill-opacity:1;stroke:none;stroke-width:0.40825289"
         id="rect907"
         width="1.0000226"
         height="32"
         x="-910.36218"
         y="-50.999985" />
    </g>
    <g
       transform="translate(58,-1.8530272e-7)"
       id="shadow-topleft">
      <path
         id="path4830"
         transform="translate(-58,904.36218)"
         d="M 57 -8 L 57 12 C 61.666667 12.000006 66.333333 12.000009 71 12 L 71 11 C 71 8.2300127 73.230013 6 76 6 L 77 6 L 77 -8 L 57 -8 z "
         style="opacity:0.15;fill:url(#radialGradient1805);fill-opacity:1;fill-rule:evenodd;stroke:none;stroke-width:2.85713816px;stroke-linecap:butt;stroke-linejoin:miter;stroke-opacity:1" />
      <rect
         transform="scale(-1,1)"
         style="fill:none;fill-opacity:1"
         id="rect4834"
         width="5.9999919"
         height="6.0000224"
         x="-19.000004"
         y="910.36218"
         ry="0.9999752" />
      <rect
         transform="scale(-1,1)"
         style="fill:none;fill-opacity:1"
         id="rect4836"
         width="2.0000038"
         height="5.9999752"
         x="-19.000004"
         y="910.36218"
         ry="0" />
      <rect
         transform="scale(-1,1)"
         style="fill:none;fill-opacity:1"
         id="rect4838"
         width="4.9999924"
         height="2.0000248"
         x="-18"
         y="914.36218" />
      <path
         id="path898"
         transform="translate(-58,904.36218)"
         d="M 76 5 C 72.676013 5 70 7.6760127 70 11 L 70 12 L 71 12 L 71 11 C 71 8.2300127 73.230013 6 76 6 L 77 6 L 77 5 L 76 5 z "
         style="opacity:0.15;fill:#000000;fill-opacity:1;fill-rule:evenodd;stroke:none;stroke-width:1.71428287px;stroke-linecap:butt;stroke-linejoin:miter;stroke-opacity:1" />
    </g>
    <g
       transform="translate(58,-1.8530272e-7)"
       id="shadow-bottom">
      <rect
         transform="matrix(0,1,-1,0,0,0)"
         style="opacity:1;fill:none;fill-opacity:1;stroke:none"
         id="rect4856"
         width="6"
         height="32"
         x="948.36218"
         y="-50.999985" />
      <rect
         transform="rotate(90)"
         style="opacity:0.15;fill:url(#linearGradient4934);fill-opacity:1;stroke:none;stroke-width:1.52752399"
         id="rect4858"
         width="13.999977"
         height="32"
         x="954.36218"
         y="-50.999985" />
      <rect
         y="-50.999985"
         x="953.36218"
         height="31.999971"
         width="1.0000226"
         id="rect4860"
         style="opacity:1;fill:none;fill-opacity:1;stroke:none"
         transform="matrix(0,1,-1,0,0,0)" />
      <rect
         y="-50.999985"
         x="954.36218"
         height="32"
         width="0.99997741"
         id="rect915"
         style="opacity:0.15;fill:#000000;fill-opacity:1;stroke:none;stroke-width:0.40824369"
         transform="rotate(90)" />
    </g>
    <g
       transform="translate(58,-1.8530272e-7)"
       id="shadow-left">
      <rect
         transform="scale(-1,1)"
         style="opacity:1;fill:none;fill-opacity:1;stroke:none"
         id="rect4892"
         width="5.9999995"
         height="32"
         x="-19.000004"
         y="916.36218" />
      <rect
         transform="scale(-1,1)"
         style="opacity:0.15;fill:url(#linearGradient4948);fill-opacity:1;stroke:none;stroke-width:1.52752542"
         id="rect4894"
         width="14.000002"
         height="32"
         x="-13.000002"
         y="916.36218" />
      <rect
         y="916.36218"
         x="-14.000002"
         height="32.000023"
         width="1.0000019"
         id="rect4896"
         style="opacity:1;fill:none;fill-opacity:1;stroke:none"
         transform="scale(-1,1)" />
      <rect
         y="916.36218"
         x="-13.000002"
         height="32"
         width="1.0000019"
         id="rect903"
         style="opacity:0.15;fill:#000000;fill-opacity:1;stroke:none;stroke-width:0.40824869"
         transform="scale(-1,1)" />
    </g>
    <g
       transform="translate(58,-1.8530272e-7)"
       id="shadow-right">
      <rect
         y="916.36218"
         x="50.999985"
         height="32"
         width="5.9999995"
         id="rect4900"
         style="opacity:1;fill:none;fill-opacity:1;stroke:none" />
      <rect
         y="916.36218"
         x="56.999985"
         height="31.999977"
         width="14.000015"
         id="rect4902"
         style="opacity:0.15;fill:url(#linearGradient4950);fill-opacity:1;stroke:none" />
      <rect
         style="opacity:1;fill:none;fill-opacity:1;stroke:none"
         id="rect4904"
         width="1"
         height="32.000023"
         x="55.999985"
         y="916.36218" />
      <rect
         style="opacity:0.15;fill:#000000;fill-opacity:1;stroke:none;stroke-width:0.40825143"
         id="rect911"
         width="1.0000153"
         height="32"
         x="56.999985"
         y="916.36218" />
    </g>
    <g
       transform="translate(58,-1.8530272e-7)"
       id="shadow-center">
      <rect
         y="916.36218"
         x="19.000004"
         height="32"
         width="32"
         id="rect4908"
         style="opacity:1;fill:none;fill-opacity:1;stroke:none" />
      <rect
         style="opacity:1;fill:none;fill-opacity:1;stroke:none"
         id="rect4910"
         width="32"
         height="32"
         x="19.000004"
         y="916.36218" />
    </g>
    <rect
       style="fill:#ff00ff;fill-opacity:1;stroke:none;stroke-width:1.52752817"
       id="shadow-hint-top-margin"
       width="4"
       height="14"
       x="91"
       y="896.36218" />
    <rect
       y="954.36218"
       x="91"
       height="13.999977"
       width="4"
       id="shadow-hint-bottom-margin"
       style="fill:#ff00ff;fill-opacity:1;stroke:none;stroke-width:1.52752113" />
    <rect
       y="-129"
       x="930.36218"
       height="14"
       width="3.9999769"
       id="shadow-hint-right-margin"
       style="fill:#ff00ff;fill-opacity:1;stroke:none;stroke-width:1.52752817"
       transform="rotate(90)" />
    <rect
       style="fill:#ff00ff;fill-opacity:1;stroke:none;stroke-width:1.52752519"
       id="shadow-hint-left-margin"
       width="4.0000229"
       height="14"
       x="930.36218"
       y="-71"
       transform="rotate(90)" />
    <use
       height="100%"
       width="100%"
       transform="rotate(90,93.000017,932.36217)"
       id="shadow-topright"
       xlink:href="#shadow-topleft"
       y="0"
       x="0" />
    <use
       height="100%"
       width="100%"
       transform="rotate(-90,92.99999,932.36217)"
       id="shadow-bottomleft"
       xlink:href="#shadow-topleft"
       y="0"
       x="0" />
    <use
       x="0"
       y="0"
       xlink:href="#shadow-topleft"
       id="shadow-bottomright"
       transform="rotate(-180,93.000006,932.36217)"
       width="100%"
       height="100%" />
  </g>
</svg>
