<?xml version="1.0"?>
<!-- Created with Inkscape (http://www.inkscape.org/) -->
<svg xmlns:dc="http://purl.org/dc/elements/1.1/" xmlns:cc="http://creativecommons.org/ns#" xmlns:rdf="http://www.w3.org/1999/02/22-rdf-syntax-ns#" xmlns:svg="http://www.w3.org/2000/svg" xmlns="http://www.w3.org/2000/svg" xmlns:sodipodi="http://sodipodi.sourceforge.net/DTD/sodipodi-0.dtd" xmlns:inkscape="http://www.inkscape.org/namespaces/inkscape" id="svg2" sodipodi:version="0.32" inkscape:version="0.48.4 r9939" width="17" height="57" sodipodi:docname="toolbar.svgz" inkscape:output_extension="org.inkscape.output.svgz.inkscape" inkscape:export-filename="/home/pinheiro/Documents/pics/estilo/plasma/wether.png" inkscape:export-xdpi="90" inkscape:export-ydpi="90" version="1.0">
  <sodipodi:namedview inkscape:window-height="830" inkscape:window-width="1408" inkscape:pageshadow="2" inkscape:pageopacity="1" guidetolerance="10.0" gridtolerance="10.0" objecttolerance="10.0" borderopacity="1.0" bordercolor="#666666" pagecolor="#b5b5b5" id="base" inkscape:zoom="13.153057" inkscape:cx="34.875467" inkscape:cy="61.853553" inkscape:window-x="264" inkscape:window-y="138" inkscape:current-layer="svg2" showgrid="true" showguides="true" inkscape:guide-bbox="true" inkscape:snap-guide="false" inkscape:snap-bbox="true" inkscape:object-paths="true" inkscape:bbox-nodes="false" inkscape:snap-global="true" inkscape:object-nodes="true" inkscape:window-maximized="0">
    <inkscape:grid snapvisiblegridlinesonly="true" empspacing="5" enabled="true" visible="true" id="grid5592" type="xygrid"/>
  </sodipodi:namedview>
  <metadata id="metadata7">
    <rdf:RDF>
      <cc:Work rdf:about="">
        <dc:format>image/svg+xml</dc:format>
        <dc:type rdf:resource="http://purl.org/dc/dcmitype/StillImage"/>
      </cc:Work>
      <cc:Work rdf:about="">
        <dc:format>image/svg+xml</dc:format>
        <dc:type rdf:resource="http://purl.org/dc/dcmitype/StillImage"/>
      </cc:Work>
    </rdf:RDF>
  </metadata>
  <defs id="defs5">
    <style id="current-color-scheme" type="text/css">
      .ColorScheme-Text {
        color:#31363b;
        stop-color:#31363b;
      }
      .ColorScheme-Background {
        color:#eff0f1;
        stop-color:#eff0f1;
      }
      .ColorScheme-Highlight {
        color:#3daee9;
        stop-color:#3daee9;
      }
      .ColorScheme-ViewText {
        color:#31363b;
        stop-color:#31363b;
      }
      .ColorScheme-ViewBackground {
        color:#fcfcfc;
        stop-color:#fcfcfc;
      }
      .ColorScheme-ViewHover {
        color:#93cee9;
        stop-color:#93cee9;
      }
      .ColorScheme-ViewFocus{
        color:#3daee9;
        stop-color:#3daee9;
      }
      .ColorScheme-ButtonText {
        color:#31363b;
        stop-color:#31363b;
      }
      .ColorScheme-ButtonBackground {
        color:#eff0f1;
        stop-color:#eff0f1;
      }
      .ColorScheme-ButtonHover {
        color:#93cee9;
        stop-color:#93cee9;
      }
      .ColorScheme-ButtonFocus{
        color:#3daee9;
        stop-color:#3daee9;
      }
      </style>
  </defs>
  <rect style="opacity:1;fill:#4e9a06;fill-opacity:1;fill-rule:nonzero;stroke:none;stroke-width:6;stroke-linecap:round;stroke-linejoin:round;stroke-miterlimit:4;stroke-dasharray:none;stroke-dashoffset:0;stroke-opacity:1" id="hint-tile-center" width="2.0329318" height="2.077126" x="-2.7400386" y="-1.3405813" rx="0" ry="2.077126"/>
  <path inkscape:connector-curvature="0" id="center" d="m 2.9997,6.0000048 0,11.0000002 10.999999,0 0,-11.0000002 -10.999999,0 z" style="opacity:0.4;fill:currentColor;fill-opacity:1;fill-rule:nonzero;stroke:none" class="ColorScheme-ViewBackground" inkscape:label="#normal-center-8"/>
  <path inkscape:connector-curvature="0" id="right" d="m 13.9997,6.0000048 0,11.0000002 2,0 c 6.68e-4,-0.0183 0,-0.0344 0,-0.0529 l 0,-10.8942302 c 0,-0.0185 6.68e-4,-0.03453 0,-0.05288 l -2,0 z" style="opacity:0.4;fill:currentColor;fill-opacity:1;fill-rule:nonzero;stroke:none" class="ColorScheme-ViewBackground" inkscape:label="#normal-right-4"/>
  <path sodipodi:nodetypes="ccccsscc" inkscape:connector-curvature="0" id="top" d="m 2.9997,3.9999578 0,2.000047 10.999999,0 0,-2.000047 c -0.0041,-6.7e-4 0.0042,0 1e-6,0 l -10.98814,0 c -0.004,0 -0.008,-6.7e-4 -0.0119,0 z" style="opacity:0.4;fill:currentColor;fill-opacity:1;fill-rule:nonzero;stroke:none" inkscape:label="#plain-top" class="ColorScheme-ViewBackground"/>
  <path inkscape:connector-curvature="0" id="left" d="m 1,6.0000048 c -6.7e-4,0.01835 0,0.03439 0,0.05288 L 1,16.947115 c 0,0.0185 -6.7e-4,0.0345 0,0.0529 l 2,0 0,-11.0000002 -2,0 z" style="opacity:0.4;fill:currentColor;fill-opacity:1;fill-rule:nonzero;stroke:none" class="ColorScheme-ViewBackground" inkscape:label="#normal-left-0"/>
  <path sodipodi:nodetypes="ccccc" inkscape:connector-curvature="0" id="bottom" d="m 2.9997,16.999665 0,2 11,0 0,-1.99966 z" style="opacity:0.4;fill:currentColor;fill-opacity:1;fill-rule:nonzero;stroke:none" inkscape:label="#plain-bottom" class="ColorScheme-ViewBackground"/>
  <path style="opacity:0.4;fill:currentColor;fill-opacity:1;fill-rule:nonzero;stroke:none" d="m 0.999667,3.9999578 0,2.000047 1.999771,0 0,-2.000047 c -7.46e-4,-6.7e-4 7.63e-4,0 0,0 l -1.997614,0 c -7.28e-4,0 -0.0015,-6.7e-4 -0.0022,0 z" id="topleft" inkscape:connector-curvature="0" sodipodi:nodetypes="ccccsscc" inkscape:label="#path3112" class="ColorScheme-ViewBackground"/>
  <path style="opacity:0.4;fill:currentColor;fill-opacity:1;fill-rule:nonzero;stroke:none" d="m 13.999707,4.0003028 0,1.999702 1.999771,0 0,-1.999702 c -7.46e-4,-6.7e-4 7.63e-4,0 0,0 l -1.997614,0 c -7.28e-4,0 -0.0015,-6.7e-4 -0.0022,0 z" id="topright" inkscape:connector-curvature="0" sodipodi:nodetypes="ccccsscc" inkscape:label="#path3118" class="ColorScheme-ViewBackground"/>
  <path sodipodi:nodetypes="ccccsscc" inkscape:connector-curvature="0" id="bottomright" d="m 13.999707,16.999955 0,1.99971 1.999771,0 0,-1.99971 c -7.46e-4,-6.7e-4 7.63e-4,0 0,0 l -1.997614,0 c -7.28e-4,0 -0.0015,-6.7e-4 -0.0022,0 z" style="opacity:0.4;fill:currentColor;fill-opacity:1;fill-rule:nonzero;stroke:none" inkscape:label="#path3130" class="ColorScheme-ViewBackground"/>
  <path style="opacity:0.4;fill:currentColor;fill-opacity:1;fill-rule:nonzero;stroke:none" d="m 0.999707,16.999955 0,1.99971 1.999771,0 0,-1.99971 c -7.46e-4,-6.7e-4 7.63e-4,0 0,0 l -1.997614,0 c -7.28e-4,0 -0.0015,-6.7e-4 -0.0022,0 z" id="bottomleft" inkscape:connector-curvature="0" sodipodi:nodetypes="ccccsscc" inkscape:label="#path3136" class="ColorScheme-ViewBackground"/>
</svg>
