<svg xmlns="http://www.w3.org/2000/svg" version="1.1" id="svg2" viewBox="0 0 54 32"><defs id="defs3051"><style id="current-color-scheme" type="text/css">.ColorScheme-Text{color:#dfdfdf}</style></defs><g id="22-22-akonadi"><path id="path7" class="ColorScheme-Text" d="M11 13c-4.418 0-8 .895-8 2v12c0 1.105 3.582 2 8 2s8-.895 8-2V15c0-1.105-3.582-2-8-2zm0 1c3.866 0 7 .448 7 1s-3.134 1-7 1-7-.448-7-1 3.134-1 7-1zm7 1.963V19c0 .552-3.134 1-7 1s-7-.448-7-1v-3.033C5.407 16.604 8.088 17 11 17c2.915-.001 5.597-.398 7-1.037zm0 4V23c0 .552-3.134 1-7 1s-7-.448-7-1v-3.033c2.045.798 4.255.965 6.434 1.027a32.356 32.356 0 0 0 1.365-.004c2.032-.108 4.3-.19 6.193-1.023l.008-.004zm0 4V27c0 .552-3.134 1-7 1s-7-.448-7-1v-3.033c.13.058.27.115.422.17 1.934.643 3.985.8 6.012.857a32.356 32.356 0 0 0 1.365-.004c2.032-.108 4.3-.19 6.193-1.023l.008-.004z" fill="currentColor" fill-opacity="1" stroke="none"/><path id="path9" d="M0 10v22h22V10H0z" opacity="1" fill="none"/></g><g id="akonadi"><path id="path12" class="ColorScheme-Text" d="M38 4a12 3 0 0 0-12 3v18a12 3 0 0 0 12 3 12 3 0 0 0 12-3V7a12 3 0 0 0-12-3zm0 1a11 2 0 0 1 11 2 11 2 0 0 1-11 2 11 2 0 0 1-11-2 11 2 0 0 1 11-2zm11 3.191V13a11 2 0 0 1-11 2 11 2 0 0 1-11-2V8.195A12 3 0 0 0 38 10a12 3 0 0 0 11-1.809zm0 6V19a11 2 0 0 1-11 2 11 2 0 0 1-11-2v-4.805A12 3 0 0 0 38 16a12 3 0 0 0 11-1.809zm0 6V25a11 2 0 0 1-11 2 11 2 0 0 1-11-2v-4.805A12 3 0 0 0 38 22a12 3 0 0 0 11-1.809z" fill="currentColor" fill-opacity="1" stroke="none"/><path id="path14" d="M22 0v32h32V0H22z" opacity="1" fill="none"/></g></svg>