<svg xmlns="http://www.w3.org/2000/svg" width="54" height="32" id="svg3613" version="1.1"><defs id="defs3615"><style type="text/css" id="current-color-scheme">.ColorScheme-Text{color:#dfdfdf}</style></defs><g transform="translate(-420.716 -516.791)" id="22-22-applications-other"><path id="rect3028" transform="matrix(1 0 0 1 420.714 524.79)" opacity=".01" fill="#000" fill-opacity=".004" stroke="none" d="M0 2h22v22H0z"/><path d="M423.714 529.79v7h7v-7h-7zm9 0v7h7v-7h-7zm-8 1h5v5h-5v-5zm9 0h5v5h-5v-5zm-10 8v7h7v-7h-7zm9 0v7h7v-7h-7zm-8 1h5v5h-5v-5zm9 0h5v5h-5v-5z" id="rect4298" class="ColorScheme-Text" fill="currentColor" fill-opacity="1" stroke="none"/></g><g transform="translate(-398.716 -516.791)" id="applications-other"><path id="rect2994" transform="matrix(1 0 0 1 420.714 524.79)" opacity=".01" fill="#000" fill-opacity=".004" stroke="none" d="M0-8h32v32H0z"/><path d="M424.714 520.79v10h10v-10zm14 0v10h10v-10zm-13 1h8v8h-8zm14 0h8v8h-8zm-15 13v10h10v-10zm14 0v10h10v-10h-8zm-13 1h8v8h-8zm14 0h8v8h-8z" id="path2996" class="ColorScheme-Text" fill="currentColor" fill-opacity="1" stroke="none"/></g></svg>