<svg xmlns="http://www.w3.org/2000/svg" version="1.1" id="svg2" viewBox="0 0 54 32"><defs id="defs3051"><style id="current-color-scheme" type="text/css">.ColorScheme-Text{color:#dfdfdf}</style></defs><g id="22-22-apport"><path id="path7" class="ColorScheme-Text" d="M3 13v16h16V13H3zm1 1h14v14H4V14zm1 1v1h1v-1H5zm1 1v2h2v-2H6zm2 0h1v-1H8v1zm0 2v1h1v-1H8zm-2 0H5v1h1v-1zm7-3v1h1v-1h-1zm1 1v2h2v-2h-2zm2 0h1v-1h-1v1zm0 2v1h1v-1h-1zm-2 0h-1v1h1v-1zm-5 3v2h4v-2H9zm4 2v2h2v-2h-2zm2 2v2h2v-2h-2zm-6-2H7v2h2v-2zm-2 2H5v2h2v-2z" fill="currentColor" fill-opacity="1" stroke="none"/><path id="path9" d="M0 10v22h22V10H0z" opacity="1" fill="none"/></g><g id="apport"><path id="path12" class="ColorScheme-Text" d="M26 4v24h24V4H26zm1 1h22v22H27V5zm2 2v2h2V7h-2zm2 2v3h3V9h-3zm3 0h2V7h-2v2zm0 3v2h2v-2h-2zm-3 0h-2v2h2v-2zm9-5v2h2V7h-2zm2 2v3h3V9h-3zm3 0h2V7h-2v2zm0 3v2h2v-2h-2zm-3 0h-2v2h2v-2zm-8 5v2h8v-2h-8zm8 2v2h2v-2h-2zm2 2v2h2v-2h-2zm-10-2h-2v2h2v-2zm-2 2h-2v2h2v-2z" fill="currentColor" fill-opacity="1" stroke="none"/><path id="path14" d="M22 0v32h32V0H22z" opacity="1" fill="none"/></g></svg>