<svg xmlns="http://www.w3.org/2000/svg" width="22" height="22" id="svg7229" version="1.0"><defs id="defs7231"><style id="current-color-scheme" type="text/css">.ColorScheme-Text{color:#dfdfdf}</style><style type="text/css" id="style5">.ColorScheme-Text{color:#dfdfdf}</style></defs><g id="layer1" transform="translate(-214.536 -404.505)"><g id="audio-volume-high"><path id="rect4208" opacity="1" fill="none" fill-opacity=".433" stroke="none" stroke-width=".1" stroke-linecap="square" stroke-linejoin="miter" stroke-miterlimit="4" stroke-dasharray="none" stroke-dashoffset="0" stroke-opacity="1" d="M214.536 404.505h22v22h-22z"/><path d="M10.988 3L6 7.99v6.02L10.988 19H12V3h-1.012zM3 8v6h2V8H3z" transform="translate(214.536 404.505)" id="path4226" class="ColorScheme-Text" opacity="1" fill="currentColor" fill-opacity="1" stroke="none"/><path d="M14.324 7.281l-.539.862A4 4 0 0 1 15 11a4 4 0 0 1-1.21 2.861l.538.864A5 5 0 0 0 16 11a5 5 0 0 0-1.676-3.719z" transform="translate(214.536 404.505)" id="path4183" class="ColorScheme-Text" opacity="1" fill="currentColor" fill-opacity="1" stroke="none"/><path d="M13.865 3.537l-.244.977A7 7 0 0 1 18 11a7 7 0 0 1-4.38 6.479l.243.974A8 8 0 0 0 19 11a8 8 0 0 0-5.135-7.463z" transform="translate(214.536 404.505)" id="path4188" class="ColorScheme-Text" opacity="1" fill="currentColor" fill-opacity="1" stroke="none"/></g><g id="audio-volume-medium" transform="translate(22)"><path id="rect4167" opacity="1" fill="none" fill-opacity=".433" stroke="none" stroke-width=".1" stroke-linecap="square" stroke-linejoin="miter" stroke-miterlimit="4" stroke-dasharray="none" stroke-dashoffset="0" stroke-opacity="1" d="M214.536 404.505h22v22h-22z"/><path id="path4169" transform="translate(214.536 404.505)" d="M10.988 3L6 7.99v6.02L10.988 19H12V3h-1.012zM3 8v6h2V8H3z" class="ColorScheme-Text" opacity="1" fill="currentColor" fill-opacity="1" stroke="none"/><path id="path4171" transform="translate(214.536 404.505)" d="M14.324 7.281l-.539.862A4 4 0 0 1 15 11a4 4 0 0 1-1.21 2.861l.538.864A5 5 0 0 0 16 11a5 5 0 0 0-1.676-3.719z" class="ColorScheme-Text" opacity="1" fill="currentColor" fill-opacity="1" stroke="none"/><path id="path4173" transform="translate(214.536 404.505)" d="M13.865 3.537l-.244.977A7 7 0 0 1 18 11a7 7 0 0 1-4.38 6.479l.243.974A8 8 0 0 0 19 11a8 8 0 0 0-5.135-7.463z" class="ColorScheme-Text" opacity=".25" fill="currentColor" fill-opacity="1" stroke="none"/></g><g transform="translate(44)" id="audio-volume-low"><path id="rect4177" opacity="1" fill="none" fill-opacity=".433" stroke="none" stroke-width=".1" stroke-linecap="square" stroke-linejoin="miter" stroke-miterlimit="4" stroke-dasharray="none" stroke-dashoffset="0" stroke-opacity="1" d="M214.536 404.505h22v22h-22z"/><path d="M10.988 3L6 7.99v6.02L10.988 19H12V3h-1.012zM3 8v6h2V8H3z" transform="translate(214.536 404.505)" id="path4179" class="ColorScheme-Text" opacity="1" fill="currentColor" fill-opacity="1" stroke="none"/><path d="M14.324 7.281l-.539.862A4 4 0 0 1 15 11a4 4 0 0 1-1.21 2.861l.538.864A5 5 0 0 0 16 11a5 5 0 0 0-1.676-3.719z" transform="translate(214.536 404.505)" id="path4181" class="ColorScheme-Text" opacity=".25" fill="currentColor" fill-opacity="1" stroke="none"/><path d="M13.865 3.537l-.244.977A7 7 0 0 1 18 11a7 7 0 0 1-4.38 6.479l.243.974A8 8 0 0 0 19 11a8 8 0 0 0-5.135-7.463z" transform="translate(214.536 404.505)" id="path4184" class="ColorScheme-Text" opacity=".25" fill="currentColor" fill-opacity="1" stroke="none"/></g><g id="audio-volume-muted" transform="translate(66)"><path id="rect4188" opacity="1" fill="none" fill-opacity=".433" stroke="none" stroke-width=".1" stroke-linecap="square" stroke-linejoin="miter" stroke-miterlimit="4" stroke-dasharray="none" stroke-dashoffset="0" stroke-opacity="1" d="M214.536 404.505h22v22h-22z"/><path id="path4190" transform="translate(214.536 404.505)" d="M10.988 3L6 7.99v6.02L10.988 19H12V3h-1.012zM3 8v6h2V8H3z" class="ColorScheme-Text" opacity="1" fill="currentColor" fill-opacity="1" stroke="none"/><path style="isolation:auto;mix-blend-mode:normal;solid-color:#000;solid-opacity:1" id="rect4165" color="#4d4d4d" clip-rule="nonzero" display="inline" overflow="visible" visibility="visible" opacity="1" color-interpolation="sRGB" color-interpolation-filters="linearRGB" fill="#da4453" fill-opacity="1" fill-rule="nonzero" stroke="none" stroke-width="1" stroke-linecap="square" stroke-linejoin="miter" stroke-miterlimit="4" stroke-dasharray="none" stroke-dashoffset="0" stroke-opacity="1" color-rendering="auto" image-rendering="auto" shape-rendering="auto" text-rendering="auto" d="M227.536 414.505h6v2h-6z"/></g></g></svg>