<svg id="svg571" width="22" height="22" version="1.0" xmlns="http://www.w3.org/2000/svg">
 <defs id="defs5">
  <style id="current-color-scheme" type="text/css">.ColorScheme-Text{color:#dfdfdf}.ColorScheme-Background{color:#eff0f1}</style>
  <style id="style3" type="text/css">.ColorScheme-Text{color:#dfdfdf}.ColorScheme-Background{color:#eff0f1}</style>
 </defs>
 <rect id="rect1098" x="-90" y="63" width="32" height="32" fill="none" style="paint-order:stroke fill markers"/>
 <path id="path7" d="m-55.01 20.17v-22h22v22z" fill="none" stroke-linecap="square" stroke-width=".1"/>
 <g id="g20" transform="translate(-97,-84)">
  <rect id="rect12" x="95" y="28" width="16" height="16" fill="none" style="paint-order:stroke fill markers"/>
  <g id="g18" transform="translate(-1)" fill="#dfdfdf">
   <path id="path14" d="m100 30c-0.554 0-1 0.446-1 1v12c0 0.554 0.446 1 1 1h8c0.554 0 1-0.446 1-1v-12c0-0.554-0.446-1-1-1zm0 1h8v12h-8z" style="paint-order:stroke fill markers"/>
   <rect id="rect16" x="102" y="28" width="4" height="1" style="paint-order:stroke fill markers"/>
  </g>
 </g>
 <g id="g32" transform="translate(-81,-84)">
  <rect id="rect22" x="95" y="28" width="16" height="16" fill="none" style="paint-order:stroke fill markers"/>
  <g id="g30" transform="translate(-1)" fill="#dfdfdf">
   <path id="path24" d="m100 30c-0.554 0-1 0.446-1 1v12c0 0.554 0.446 1 1 1h8c0.554 0 1-0.446 1-1v-12c0-0.554-0.446-1-1-1zm0 1h8v12h-8z" style="paint-order:stroke fill markers"/>
   <rect id="rect26" x="102" y="28" width="4" height="1" style="paint-order:stroke fill markers"/>
   <rect id="rect28" x="101" y="32" width="6" height="10" style="paint-order:stroke fill markers"/>
  </g>
 </g>
 <g id="g46" transform="translate(-65,-84)">
  <rect id="rect34" x="95" y="28" width="16" height="16" fill="none" style="paint-order:stroke fill markers"/>
  <g id="g44" transform="translate(-1)" fill="#dfdfdf">
   <rect id="rect36" x="101" y="32" width="6" height="10" opacity=".35" style="paint-order:stroke fill markers"/>
   <path id="path38" d="m100 30c-0.554 0-1 0.446-1 1v12c0 0.554 0.446 1 1 1h8c0.554 0 1-0.446 1-1v-12c0-0.554-0.446-1-1-1zm0 1h8v12h-8z" style="paint-order:stroke fill markers"/>
   <rect id="rect40" x="102" y="28" width="4" height="1" style="paint-order:stroke fill markers"/>
   <rect id="rect42" x="101" y="33" width="6" height="9" style="paint-order:stroke fill markers"/>
  </g>
 </g>
 <g id="g60" transform="translate(-49,-84)">
  <rect id="rect48" x="95" y="28" width="16" height="16" fill="none" style="paint-order:stroke fill markers"/>
  <g id="g58" transform="translate(-1)" fill="#dfdfdf">
   <rect id="rect50" x="101" y="32" width="6" height="10" opacity=".35" style="paint-order:stroke fill markers"/>
   <path id="path52" d="m100 30c-0.554 0-1 0.446-1 1v12c0 0.554 0.446 1 1 1h8c0.554 0 1-0.446 1-1v-12c0-0.554-0.446-1-1-1zm0 1h8v12h-8z" style="paint-order:stroke fill markers"/>
   <rect id="rect54" x="102" y="28" width="4" height="1" style="paint-order:stroke fill markers"/>
   <rect id="rect56" x="101" y="34" width="6" height="8" style="paint-order:stroke fill markers"/>
  </g>
 </g>
 <g id="g74" transform="translate(-33,-84)">
  <rect id="rect62" x="95" y="28" width="16" height="16" fill="none" style="paint-order:stroke fill markers"/>
  <g id="g72" transform="translate(-1)" fill="#dfdfdf">
   <rect id="rect64" x="101" y="32" width="6" height="10" opacity=".35" style="paint-order:stroke fill markers"/>
   <path id="path66" d="m100 30c-0.554 0-1 0.446-1 1v12c0 0.554 0.446 1 1 1h8c0.554 0 1-0.446 1-1v-12c0-0.554-0.446-1-1-1zm0 1h8v12h-8z" style="paint-order:stroke fill markers"/>
   <rect id="rect68" x="102" y="28" width="4" height="1" style="paint-order:stroke fill markers"/>
   <rect id="rect70" x="101" y="35" width="6" height="7" style="paint-order:stroke fill markers"/>
  </g>
 </g>
 <g id="g88" transform="translate(-17,-84)">
  <rect id="rect76" x="95" y="28" width="16" height="16" fill="none" style="paint-order:stroke fill markers"/>
  <g id="g86" transform="translate(-1)" fill="#dfdfdf">
   <rect id="rect78" x="101" y="32" width="6" height="10" opacity=".35" style="paint-order:stroke fill markers"/>
   <path id="path80" d="m100 30c-0.554 0-1 0.446-1 1v12c0 0.554 0.446 1 1 1h8c0.554 0 1-0.446 1-1v-12c0-0.554-0.446-1-1-1zm0 1h8v12h-8z" style="paint-order:stroke fill markers"/>
   <rect id="rect82" x="102" y="28" width="4" height="1" style="paint-order:stroke fill markers"/>
   <rect id="rect84" x="101" y="36" width="6" height="6" style="paint-order:stroke fill markers"/>
  </g>
 </g>
 <g id="g102" transform="translate(-1,-84)">
  <rect id="rect90" x="95" y="28" width="16" height="16" fill="none" style="paint-order:stroke fill markers"/>
  <g id="g100" transform="translate(-1)" fill="#dfdfdf">
   <rect id="rect92" x="101" y="32" width="6" height="10" opacity=".35" style="paint-order:stroke fill markers"/>
   <path id="path94" d="m100 30c-0.554 0-1 0.446-1 1v12c0 0.554 0.446 1 1 1h8c0.554 0 1-0.446 1-1v-12c0-0.554-0.446-1-1-1zm0 1h8v12h-8z" style="paint-order:stroke fill markers"/>
   <rect id="rect96" x="102" y="28" width="4" height="1" style="paint-order:stroke fill markers"/>
   <rect id="rect98" x="101" y="37" width="6" height="5" style="paint-order:stroke fill markers"/>
  </g>
 </g>
 <g id="g116" transform="translate(15,-84)">
  <rect id="rect104" x="95" y="28" width="16" height="16" fill="none" style="paint-order:stroke fill markers"/>
  <g id="g114" transform="translate(-1)" fill="#dfdfdf">
   <rect id="rect106" x="101" y="32" width="6" height="10" opacity=".35" style="paint-order:stroke fill markers"/>
   <path id="path108" d="m100 30c-0.554 0-1 0.446-1 1v12c0 0.554 0.446 1 1 1h8c0.554 0 1-0.446 1-1v-12c0-0.554-0.446-1-1-1zm0 1h8v12h-8z" style="paint-order:stroke fill markers"/>
   <rect id="rect110" x="102" y="28" width="4" height="1" style="paint-order:stroke fill markers"/>
   <rect id="rect112" x="101" y="38" width="6" height="4" style="paint-order:stroke fill markers"/>
  </g>
 </g>
 <g id="g130" transform="translate(31,-84)">
  <rect id="rect118" x="95" y="28" width="16" height="16" fill="none" style="paint-order:stroke fill markers"/>
  <g id="g128" transform="translate(-1)" fill="#dfdfdf">
   <rect id="rect120" x="101" y="32" width="6" height="10" opacity=".35" style="paint-order:stroke fill markers"/>
   <path id="path122" d="m100 30c-0.554 0-1 0.446-1 1v12c0 0.554 0.446 1 1 1h8c0.554 0 1-0.446 1-1v-12c0-0.554-0.446-1-1-1zm0 1h8v12h-8z" style="paint-order:stroke fill markers"/>
   <rect id="rect124" x="102" y="28" width="4" height="1" style="paint-order:stroke fill markers"/>
   <rect id="rect126" x="101" y="39" width="6" height="3" style="paint-order:stroke fill markers"/>
  </g>
 </g>
 <g id="g144" transform="translate(47,-84)">
  <rect id="rect132" x="95" y="28" width="16" height="16" fill="none" style="paint-order:stroke fill markers"/>
  <g id="g142" transform="translate(-1)" fill="#dfdfdf">
   <rect id="rect134" x="101" y="32" width="6" height="10" opacity=".35" style="paint-order:stroke fill markers"/>
   <path id="path136" d="m100 30c-0.554 0-1 0.446-1 1v12c0 0.554 0.446 1 1 1h8c0.554 0 1-0.446 1-1v-12c0-0.554-0.446-1-1-1zm0 1h8v12h-8z" style="paint-order:stroke fill markers"/>
   <rect id="rect138" x="102" y="28" width="4" height="1" style="paint-order:stroke fill markers"/>
   <rect id="rect140" x="101" y="40" width="6" height="2" style="paint-order:stroke fill markers"/>
  </g>
 </g>
 <g id="g158" transform="translate(63,-84)">
  <rect id="rect146" x="95" y="28" width="16" height="16" fill="none" style="paint-order:stroke fill markers"/>
  <g id="g156" transform="translate(-1)" fill="#da4453">
   <rect id="rect148" x="101" y="32" width="6" height="10" opacity=".35" style="paint-order:stroke fill markers"/>
   <path id="path150" d="m100 30c-0.554 0-1 0.446-1 1v12c0 0.554 0.446 1 1 1h8c0.554 0 1-0.446 1-1v-12c0-0.554-0.446-1-1-1zm0 1h8v12h-8z" style="paint-order:stroke fill markers"/>
   <rect id="rect152" x="102" y="28" width="4" height="1" style="paint-order:stroke fill markers"/>
   <rect id="rect154" x="101" y="41" width="6" height="1" style="paint-order:stroke fill markers"/>
  </g>
 </g>
 <g id="g170" transform="translate(-7,-127)">
  <rect id="rect160" x="181" y="71" width="16" height="16" fill="none" style="paint-order:stroke fill markers"/>
  <g id="g166" transform="translate(85,43)" fill="#da4453">
   <path id="path162" d="m100 30c-0.554 0-1 0.446-1 1v12c0 0.554 0.446 1 1 1h8c0.554 0 1-0.446 1-1v-12c0-0.554-0.446-1-1-1zm0 1h8v12h-8z" style="paint-order:stroke fill markers"/>
   <rect id="rect164" x="102" y="28" width="4" height="1" style="paint-order:stroke fill markers"/>
  </g>
  <rect id="rect168" x="186" y="75" width="6" height="10" fill="#da4453" opacity=".35" style="paint-order:stroke fill markers"/>
 </g>
 <g id="22-22-Battery" transform="translate(5,-123)">
  <rect id="rect172" x="-5" y="123" width="22" height="22" fill="none" style="paint-order:stroke fill markers"/>
  <g id="g182" transform="translate(-97,98)">
   <rect id="rect174" x="95" y="28" width="16" height="16" fill="none" style="paint-order:stroke fill markers"/>
   <g id="g180" transform="translate(-1)" fill="#dfdfdf">
    <path id="path176" d="m100 30c-0.554 0-1 0.446-1 1v12c0 0.554 0.446 1 1 1h8c0.554 0 1-0.446 1-1v-12c0-0.554-0.446-1-1-1zm0 1h8v12h-8z" style="paint-order:stroke fill markers"/>
    <rect id="rect178" x="102" y="28" width="4" height="1" style="paint-order:stroke fill markers"/>
   </g>
  </g>
 </g>
 <g id="22-22-Fill100" transform="translate(5,-123)">
  <rect id="rect185" x="17" y="123" width="22" height="22" fill="none" style="paint-order:stroke fill markers"/>
  <g id="g197" transform="translate(-75 98)">
   <rect id="rect187" x="95" y="28" width="16" height="16" fill="none" style="paint-order:stroke fill markers"/>
   <g id="g195" transform="translate(-1)" fill="#dfdfdf">
    <rect id="rect193" x="101" y="32" width="6" height="10" style="paint-order:stroke fill markers"/>
   </g>
  </g>
 </g>
 <g id="22-22-Fill90" transform="translate(5,-123)">
  <rect id="rect201" x="39" y="123" width="22" height="22" fill="none" style="paint-order:stroke fill markers"/>
  <g id="g215" transform="translate(-53 98)">
   <rect id="rect203" x="95" y="28" width="16" height="16" fill="none" style="paint-order:stroke fill markers"/>
   <g id="g213" transform="translate(-1)" fill="#dfdfdf">
    <rect id="rect205" x="101" y="32" width="6" height="10" opacity=".35" style="paint-order:stroke fill markers"/>
    <rect id="rect211" x="101" y="33" width="6" height="9" style="paint-order:stroke fill markers"/>
   </g>
  </g>
 </g>
 <g id="22-22-Fill80" transform="translate(5,-123)">
  <rect id="rect219" x="61" y="123" width="22" height="22" fill="none" style="paint-order:stroke fill markers"/>
  <g id="g233" transform="translate(-31 98)">
   <rect id="rect221" x="95" y="28" width="16" height="16" fill="none" style="paint-order:stroke fill markers"/>
   <g id="g231" transform="translate(-1)" fill="#dfdfdf">
    <rect id="rect223" x="101" y="32" width="6" height="10" opacity=".35" style="paint-order:stroke fill markers"/>
    <rect id="rect229" x="101" y="34" width="6" height="8" style="paint-order:stroke fill markers"/>
   </g>
  </g>
 </g>
 <g id="22-22-Fill70" transform="translate(5,-123)">
  <rect id="rect237" x="83" y="123" width="22" height="22" fill="none" style="paint-order:stroke fill markers"/>
  <g id="g251" transform="translate(-9 98)">
   <rect id="rect239" x="95" y="28" width="16" height="16" fill="none" style="paint-order:stroke fill markers"/>
   <g id="g249" transform="translate(-1)" fill="#dfdfdf">
    <rect id="rect241" x="101" y="32" width="6" height="10" opacity=".35" style="paint-order:stroke fill markers"/>
    <rect id="rect247" x="101" y="35" width="6" height="7" style="paint-order:stroke fill markers"/>
   </g>
  </g>
 </g>
 <g id="22-22-Fill60" transform="translate(5,-123)">
  <rect id="rect255" x="105" y="123" width="22" height="22" fill="none" style="paint-order:stroke fill markers"/>
  <g id="g269" transform="translate(13 98)">
   <rect id="rect257" x="95" y="28" width="16" height="16" fill="none" style="paint-order:stroke fill markers"/>
   <g id="g267" transform="translate(-1)" fill="#dfdfdf">
    <rect id="rect259" x="101" y="32" width="6" height="10" opacity=".35" style="paint-order:stroke fill markers"/>
    <rect id="rect265" x="101" y="36" width="6" height="6" style="paint-order:stroke fill markers"/>
   </g>
  </g>
 </g>
 <g id="22-22-Fill50" transform="translate(5,-123)">
  <rect id="rect273" x="127" y="123" width="22" height="22" fill="none" style="paint-order:stroke fill markers"/>
  <g id="g287" transform="translate(35,98)">
   <rect id="rect275" x="95" y="28" width="16" height="16" fill="none" style="paint-order:stroke fill markers"/>
   <g id="g285" transform="translate(-1)" fill="#dfdfdf">
    <rect id="rect277" x="101" y="32" width="6" height="10" opacity=".35" style="paint-order:stroke fill markers"/>
    <rect id="rect283" x="101" y="37" width="6" height="5" style="paint-order:stroke fill markers"/>
   </g>
  </g>
 </g>
 <g id="22-22-Fill40" transform="translate(5,-123)">
  <rect id="rect291" x="149" y="123" width="22" height="22" fill="none" style="paint-order:stroke fill markers"/>
  <g id="g305" transform="translate(57 98)">
   <rect id="rect293" x="95" y="28" width="16" height="16" fill="none" style="paint-order:stroke fill markers"/>
   <g id="g303" transform="translate(-1)" fill="#dfdfdf">
    <rect id="rect295" x="101" y="32" width="6" height="10" opacity=".35" style="paint-order:stroke fill markers"/>
    <rect id="rect301" x="101" y="38" width="6" height="4" style="paint-order:stroke fill markers"/>
   </g>
  </g>
 </g>
 <g id="22-22-Fill30" transform="translate(5,-123)">
  <rect id="rect309" x="171" y="123" width="22" height="22" fill="none" style="paint-order:stroke fill markers"/>
  <g id="g323" transform="translate(79 98)">
   <rect id="rect311" x="95" y="28" width="16" height="16" fill="none" style="paint-order:stroke fill markers"/>
   <g id="g321" transform="translate(-1)" fill="#dfdfdf">
    <rect id="rect313" x="101" y="32" width="6" height="10" opacity=".35" style="paint-order:stroke fill markers"/>
    <rect id="rect319" x="101" y="39" width="6" height="3" style="paint-order:stroke fill markers"/>
   </g>
  </g>
 </g>
 <g id="22-22-Fill20" transform="translate(5,-123)">
  <rect id="rect327" x="193" y="123" width="22" height="22" fill="none" style="paint-order:stroke fill markers"/>
  <g id="g341" transform="translate(101 98)">
   <rect id="rect329" x="95" y="28" width="16" height="16" fill="none" style="paint-order:stroke fill markers"/>
   <g id="g339" transform="translate(-1)" fill="#dfdfdf">
    <rect id="rect331" x="101" y="32" width="6" height="10" opacity=".35" style="paint-order:stroke fill markers"/>
    <rect id="rect337" x="101" y="40" width="6" height="2" style="paint-order:stroke fill markers"/>
   </g>
  </g>
 </g>
 <g id="22-22-Fill10" transform="translate(5,-123)">
  <rect id="rect345" x="215" y="123" width="22" height="22" fill="none" style="paint-order:stroke fill markers"/>
  <g id="g359" transform="translate(123 98)">
   <rect id="rect347" x="95" y="28" width="16" height="16" fill="none" style="paint-order:stroke fill markers"/>
   <g id="g357" transform="translate(-1)" fill="#da4453">
    <rect id="rect349" x="101" y="32" width="6" height="10" opacity=".35" style="paint-order:stroke fill markers"/>
    <path id="path351" d="m100 30c-0.554 0-1 0.446-1 1v12c0 0.554 0.446 1 1 1h8c0.554 0 1-0.446 1-1v-12c0-0.554-0.446-1-1-1zm0 1h8v12h-8z" style="paint-order:stroke fill markers"/>
    <rect id="rect353" x="102" y="28" width="4" height="1" style="paint-order:stroke fill markers"/>
    <rect id="rect355" x="101" y="41" width="6" height="1" style="paint-order:stroke fill markers"/>
   </g>
  </g>
 </g>
 <g id="22-22-Fill0" transform="translate(5,-123)">
  <rect id="rect363" x="237" y="123" width="22" height="22" fill="none" style="paint-order:stroke fill markers"/>
  <g id="g375" transform="translate(59,55)">
   <rect id="rect365" x="181" y="71" width="16" height="16" fill="none" style="paint-order:stroke fill markers"/>
   <g id="g371" transform="translate(85,43)" fill="#da4453">
    <path id="path367" d="m100 30c-0.554 0-1 0.446-1 1v12c0 0.554 0.446 1 1 1h8c0.554 0 1-0.446 1-1v-12c0-0.554-0.446-1-1-1zm0 1h8v12h-8z" style="paint-order:stroke fill markers"/>
    <rect id="rect369" x="102" y="28" width="4" height="1" style="paint-order:stroke fill markers"/>
   </g>
   <rect id="rect373" x="186" y="75" width="6" height="10" fill="#da4453" opacity=".35" style="paint-order:stroke fill markers"/>
  </g>
 </g>
 <g id="22-22-Unavailable" transform="translate(-339.24 -426.5)">
  <path id="path379" d="m258.54 426.5h22v22h-22z" fill="none"/>
  <rect id="rect381" x="269.54" y="439.5" width="8" height="8" ry=".8" fill="#ff5571"/>
  <path id="path383" class="ColorScheme-Background" d="m271.24 440.5-0.707 0.707 2.293 2.293-2.293 2.293 0.707 0.707 2.293-2.293 2.293 2.293 0.707-0.707-2.293-2.293 2.293-2.293-0.707-0.707-2.293 2.293z" color="#eff0f1" fill="#fff"/>
 </g>
 <g id="22-22-battery-ups" transform="translate(-86,-27)">
  <rect id="rect386" x="59" y="27" width="22" height="22" fill="none" style="paint-order:stroke fill markers"/>
  <g id="g394" transform="translate(-34,2)" fill="#dfdfdf">
   <path id="path392" transform="translate(34,-2)" d="m67 34v10h6v-10zm3 1v3h2l-2 5v-3h-2z" style="paint-order:stroke fill markers"/>
  </g>
 </g>
 <g id="Battery" transform="translate(-19,-18)">
  <path id="path397" d="m4 87c-1.108 0-2 0.892-2 2v18c0 1.108 0.892 2 2 2h12c1.108 0 2-0.892 2-2v-18c0-1.108-0.892-2-2-2zm0 1h12c0.554 0 1 0.446 1 1v18c0 0.554-0.446 1-1 1h-12c-0.554 0-1-0.446-1-1v-18c0-0.554 0.446-1 1-1z" fill="#dfdfdf" style="paint-order:stroke fill markers"/>
  <rect id="rect399" x="-6" y="81" width="32" height="32" fill="none" style="paint-order:stroke fill markers"/>
  <rect id="rect401" x="7" y="85" width="6" height="1" fill="#dfdfdf" style="paint-order:stroke fill markers"/>
 </g>
 <g id="Fill100" transform="translate(13,-18)">
  <rect id="rect406" x="-6" y="81" width="32" height="32" fill="none" style="paint-order:stroke fill markers"/>
  <rect id="rect410" x="4" y="89" width="12" height="18" fill="#dfdfdf" style="paint-order:stroke fill markers"/>
 </g>
 <g id="Fill90" transform="translate(45,-18)">
  <rect id="rect416" x="-6" y="81" width="32" height="32" fill="none" style="paint-order:stroke fill markers"/>
  <g id="g424" fill="#dfdfdf">
   <rect id="rect418" x="4" y="89" width="12" height="18" opacity=".35" style="paint-order:stroke fill markers"/>
   <rect id="rect422" x="4" y="91" width="12" height="16" style="paint-order:stroke fill markers"/>
  </g>
 </g>
 <g id="Fill80" transform="translate(77,-18)">
  <rect id="rect430" x="-6" y="81" width="32" height="32" fill="none" style="paint-order:stroke fill markers"/>
  <g id="g438" fill="#dfdfdf">
   <rect id="rect432" x="4" y="89" width="12" height="18" opacity=".35" style="paint-order:stroke fill markers"/>
   <rect id="rect436" x="4" y="93" width="12" height="14" style="paint-order:stroke fill markers"/>
  </g>
 </g>
 <g id="Fill70" transform="translate(109,-18)">
  <rect id="rect444" x="-6" y="81" width="32" height="32" fill="none" style="paint-order:stroke fill markers"/>
  <g id="g452" fill="#dfdfdf">
   <rect id="rect446" x="4" y="89" width="12" height="18" opacity=".35" style="paint-order:stroke fill markers"/>
   <rect id="rect450" x="4" y="95" width="12" height="12" style="paint-order:stroke fill markers"/>
  </g>
 </g>
 <g id="Fill60" transform="translate(141,-18)">
  <rect id="rect458" x="-6" y="81" width="32" height="32" fill="none" style="paint-order:stroke fill markers"/>
  <g id="g466" fill="#dfdfdf">
   <rect id="rect460" x="4" y="89" width="12" height="18" opacity=".35" style="paint-order:stroke fill markers"/>
   <rect id="rect464" x="4" y="97" width="12" height="10" style="paint-order:stroke fill markers"/>
  </g>
 </g>
 <g id="Fill50" transform="translate(173,-18)">
  <rect id="rect472" x="-6" y="81" width="32" height="32" fill="none" style="paint-order:stroke fill markers"/>
  <g id="g480" fill="#dfdfdf">
   <rect id="rect474" x="4" y="89" width="12" height="18" opacity=".35" style="paint-order:stroke fill markers"/>
   <rect id="rect478" x="4" y="99" width="12" height="8" style="paint-order:stroke fill markers"/>
  </g>
 </g>
 <g id="Fill40" transform="translate(205,-18)">
  <rect id="rect486" x="-6" y="81" width="32" height="32" fill="none" style="paint-order:stroke fill markers"/>
  <g id="g494" fill="#dfdfdf">
   <rect id="rect488" x="4" y="89" width="12" height="18" opacity=".35" style="paint-order:stroke fill markers"/>
   <rect id="rect492" x="4" y="101" width="12" height="6" style="paint-order:stroke fill markers"/>
  </g>
 </g>
 <g id="Fill30" transform="translate(237,-18)">
  <rect id="rect500" x="-6" y="81" width="32" height="32" fill="none" style="paint-order:stroke fill markers"/>
  <g id="g508" fill="#dfdfdf">
   <rect id="rect502" x="4" y="89" width="12" height="18" opacity=".35" style="paint-order:stroke fill markers"/>
   <rect id="rect506" x="4" y="103" width="12" height="4" style="paint-order:stroke fill markers"/>
  </g>
 </g>
 <g id="Fill20" transform="translate(269,-18)">
  <rect id="rect514" x="-6" y="81" width="32" height="32" fill="none" style="paint-order:stroke fill markers"/>
  <g id="g522" fill="#dfdfdf">
   <rect id="rect516" x="4" y="89" width="12" height="18" opacity=".35" style="paint-order:stroke fill markers"/>
   <rect id="rect520" x="4" y="105" width="12" height="2" style="paint-order:stroke fill markers"/>
  </g>
 </g>
 <g id="Fill10" transform="translate(301,-18)">
  <path id="path526" d="m4 87c-1.108 0-2 0.892-2 2v18c0 1.108 0.892 2 2 2h12c1.108 0 2-0.892 2-2v-18c0-1.108-0.892-2-2-2zm0 1h12c0.554 0 1 0.446 1 1v18c0 0.554-0.446 1-1 1h-12c-0.554 0-1-0.446-1-1v-18c0-0.554 0.446-1 1-1z" fill="#da4453" style="paint-order:stroke fill markers"/>
  <rect id="rect528" x="-6" y="81" width="32" height="32" fill="none" style="paint-order:stroke fill markers"/>
  <g id="g536" fill="#da4453">
   <rect id="rect530" x="4" y="89" width="12" height="18" opacity=".35" style="paint-order:stroke fill markers"/>
   <rect id="rect532" x="7" y="85" width="6" height="1" style="paint-order:stroke fill markers"/>
   <rect id="rect534" x="4" y="106" width="12" height="1" style="paint-order:stroke fill markers"/>
  </g>
 </g>
 <g id="Fill0" transform="translate(333,-18)">
  <path id="path540" d="m4 87c-1.108 0-2 0.892-2 2v18c0 1.108 0.892 2 2 2h12c1.108 0 2-0.892 2-2v-18c0-1.108-0.892-2-2-2zm0 1h12c0.554 0 1 0.446 1 1v18c0 0.554-0.446 1-1 1h-12c-0.554 0-1-0.446-1-1v-18c0-0.554 0.446-1 1-1z" fill="#da4453" style="paint-order:stroke fill markers"/>
  <rect id="rect542" x="-6" y="81" width="32" height="32" fill="none" style="paint-order:stroke fill markers"/>
  <rect id="rect544" x="4" y="89" width="12" height="18" fill="#da4453" opacity=".35" style="paint-order:stroke fill markers"/>
  <rect id="rect546" x="7" y="85" width="6" height="1" fill="#da4453" style="paint-order:stroke fill markers"/>
 </g>
 <g id="battery-ups" transform="translate(-51,-18)">
  <rect id="rect552" x="-6" y="81" width="32" height="32" fill="none" style="paint-order:stroke fill markers"/>
  <path id="path556" transform="translate(19,-30)" d="m-15 119v18h12v-18zm6 4v4h3l-3 7v-4h-3z" fill="#dfdfdf" style="paint-order:stroke fill markers"/>
 </g>
 <g id="Unavailable" transform="translate(-255.54 -371.5)">
  <path id="path564" d="m118.54 428.5h32v32h-32z" fill="none"/>
  <rect id="rect566" x="135.54" y="448.5" width="10" height="10" ry="1" fill="#ff5571"/>
  <path id="path568" class="ColorScheme-Background" d="m138.24 450.5-0.707 0.707 2.293 2.293-2.293 2.293 0.707 0.707 2.293-2.293 2.293 2.293 0.707-0.707-2.293-2.293 2.293-2.293-0.707-0.707-2.293 2.293z" color="#eff0f1" fill="#fff"/>
 </g>
 <g id="22-22-AcAdapter" transform="translate(2,-25)">
  <path id="path1092" d="m-41 34v3h2l-2 5v-3h-2z" fill="#2abb9b" style="paint-order:stroke fill markers"/>
  <rect id="rect1123" x="-52" y="26" width="22" height="22" fill="none" style="paint-order:stroke fill markers"/>
 </g>
 <g id="AcAdapter" transform="translate(1,-35)">
  <path id="path1100" d="m-74 113v4h3l-3 7v-4h-3z" fill="#2abb9b" style="paint-order:stroke fill markers"/>
  <rect id="rect1161" x="-90" y="101" width="32" height="32" fill="none" style="paint-order:stroke fill markers"/>
 </g>
</svg>
