<svg xmlns="http://www.w3.org/2000/svg" width="22" height="22" id="svg7229" version="1.0"><defs id="defs7231"><style id="current-color-scheme" type="text/css">.ColorScheme-Text{color:#dfdfdf}.ColorScheme-Background{color:#eff0f1}</style><style type="text/css" id="style5">.ColorScheme-Text{color:#dfdfdf}.ColorScheme-Background{color:#eff0f1}</style></defs><g id="layer1" transform="translate(-214.536 -404.505)"><path d="M237.536 431.505v12h19v-4h.5c.277 0 .5-.223.5-.5v-3c0-.277-.223-.5-.5-.5h-.5v-4h-16zm1 1h17v10h-17z" id="path4191-3-5" class="ColorScheme-Text" opacity="1" fill="currentColor" fill-opacity="1" stroke="none" stroke-width=".1" stroke-linecap="square" stroke-linejoin="miter" stroke-miterlimit="4" stroke-dasharray="none" stroke-dashoffset="0" stroke-opacity="1"/><path id="path4199-4-2" d="M239.536 441.505v-8h15v8z" class="ColorScheme-Text" fill="currentColor" fill-opacity="1" fill-rule="evenodd" stroke="none" stroke-width="1" stroke-linecap="butt" stroke-linejoin="miter" stroke-opacity="1"/><path id="path4635" d="M153.536 438.505v12h25v-3c.554 0 1-.446 1-1v-4c0-.554-.446-1-1-1v-3zm1 1h23v10h-23z" class="ColorScheme-Text" opacity="1" fill="currentColor" fill-opacity="1" stroke="none"/><path id="rect4637" class="ColorScheme-Text" opacity="1" fill="currentColor" fill-opacity="1" stroke="none" d="M155.536 440.505h21v8h-21z"/><g id="22-22-Battery"><path id="rect4185" opacity="1" fill="none" fill-opacity="1" stroke="none" stroke-width=".1" stroke-linecap="square" stroke-linejoin="miter" stroke-miterlimit="4" stroke-dasharray="none" stroke-dashoffset="0" stroke-opacity="1" d="M214.536 404.505h22v22h-22z"/><path d="M215.536 409.505v12h19v-4h.5c.277 0 .5-.223.5-.5v-3c0-.277-.223-.5-.5-.5h-.5v-4h-16zm1 1h17v10h-17z" id="rect4168" class="ColorScheme-Text" opacity="1" fill="currentColor" fill-opacity="1" stroke="none" stroke-width=".1" stroke-linecap="square" stroke-linejoin="miter" stroke-miterlimit="4" stroke-dasharray="none" stroke-dashoffset="0" stroke-opacity="1"/></g><g id="22-22-Fill100"><path id="rect4193" opacity="1" fill="none" fill-opacity="1" stroke="none" stroke-width=".1" stroke-linecap="square" stroke-linejoin="miter" stroke-miterlimit="4" stroke-dasharray="none" stroke-dashoffset="0" stroke-opacity="1" d="M236.536 404.505h22v22h-22z"/><path d="M237.536 409.505v12h19v-4h.5c.277 0 .5-.223.5-.5v-3c0-.277-.223-.5-.5-.5h-.5v-4h-17zm1 1h17v10h-17z" id="path4191" class="ColorScheme-Text" opacity="1" fill="currentColor" fill-opacity="1" stroke="none" stroke-width=".1" stroke-linecap="square" stroke-linejoin="miter" stroke-miterlimit="4" stroke-dasharray="none" stroke-dashoffset="0" stroke-opacity="1"/><path id="path4199" d="M239.536 419.505v-8h15v8z" class="ColorScheme-Text" fill="currentColor" fill-opacity="1" fill-rule="evenodd" stroke="none" stroke-width="1" stroke-linecap="butt" stroke-linejoin="miter" stroke-opacity="1"/></g><g id="22-22-Fill90"><path id="rect4197" opacity="1" fill="none" fill-opacity="1" stroke="none" stroke-width=".1" stroke-linecap="square" stroke-linejoin="miter" stroke-miterlimit="4" stroke-dasharray="none" stroke-dashoffset="0" stroke-opacity="1" d="M258.536 404.505h22v22h-22z"/><path d="M259.536 409.505v12h19v-4h.5c.277 0 .5-.223.5-.5v-3c0-.277-.223-.5-.5-.5h-.5v-4h-17zm1 1h17v10h-17z" id="path4195" class="ColorScheme-Text" opacity="1" fill="currentColor" fill-opacity="1" stroke="none" stroke-width=".1" stroke-linecap="square" stroke-linejoin="miter" stroke-miterlimit="4" stroke-dasharray="none" stroke-dashoffset="0" stroke-opacity="1"/><path id="path4201" d="M261.536 411.505v8h14l-2-8z" class="ColorScheme-Text" fill="currentColor" fill-opacity="1" fill-rule="evenodd" stroke="none" stroke-width="1" stroke-linecap="butt" stroke-linejoin="miter" stroke-opacity="1"/></g><g id="22-22-Fill80"><path id="rect4203" opacity="1" fill="none" fill-opacity="1" stroke="none" stroke-width=".1" stroke-linecap="square" stroke-linejoin="miter" stroke-miterlimit="4" stroke-dasharray="none" stroke-dashoffset="0" stroke-opacity="1" d="M280.536 404.505h22v22h-22z"/><path d="M281.536 409.505v12h19v-4h.5c.277 0 .5-.223.5-.5v-3c0-.277-.223-.5-.5-.5h-.5v-4h-16zm1 1h17v10h-17z" id="path4205" class="ColorScheme-Text" opacity="1" fill="currentColor" fill-opacity="1" stroke="none" stroke-width=".1" stroke-linecap="square" stroke-linejoin="miter" stroke-miterlimit="4" stroke-dasharray="none" stroke-dashoffset="0" stroke-opacity="1"/><path d="M283.536 411.505v8h12v-8z" id="path4207" class="ColorScheme-Text" fill="currentColor" fill-opacity="1" fill-rule="evenodd" stroke="none" stroke-width="1" stroke-linecap="butt" stroke-linejoin="miter" stroke-opacity="1"/></g><g id="22-22-Fill70"><path id="rect4209" opacity="1" fill="none" fill-opacity="1" stroke="none" stroke-width=".1" stroke-linecap="square" stroke-linejoin="miter" stroke-miterlimit="4" stroke-dasharray="none" stroke-dashoffset="0" stroke-opacity="1" d="M302.536 404.505h22v22h-22z"/><path d="M303.536 409.505v12h19v-4h.5c.277 0 .5-.223.5-.5v-3c0-.277-.223-.5-.5-.5h-.5v-4h-16zm1 1h17v10h-17z" id="path4211" class="ColorScheme-Text" opacity="1" fill="currentColor" fill-opacity="1" stroke="none" stroke-width=".1" stroke-linecap="square" stroke-linejoin="miter" stroke-miterlimit="4" stroke-dasharray="none" stroke-dashoffset="0" stroke-opacity="1"/><path id="path4213" d="M305.536 411.505v8h11l-2-8z" class="ColorScheme-Text" fill="currentColor" fill-opacity="1" fill-rule="evenodd" stroke="none" stroke-width="1" stroke-linecap="butt" stroke-linejoin="miter" stroke-opacity="1"/></g><g id="22-22-Fill60"><path id="rect4215" opacity="1" fill="none" fill-opacity="1" stroke="none" stroke-width=".1" stroke-linecap="square" stroke-linejoin="miter" stroke-miterlimit="4" stroke-dasharray="none" stroke-dashoffset="0" stroke-opacity="1" d="M324.536 404.505h22v22h-22z"/><path d="M325.536 409.505v12h19v-4h.5c.277 0 .5-.223.5-.5v-3c0-.277-.223-.5-.5-.5h-.5v-4h-16zm1 1h17v10h-17z" id="path4217" class="ColorScheme-Text" opacity="1" fill="currentColor" fill-opacity="1" stroke="none" stroke-width=".1" stroke-linecap="square" stroke-linejoin="miter" stroke-miterlimit="4" stroke-dasharray="none" stroke-dashoffset="0" stroke-opacity="1"/><path d="M327.536 411.505v8h9v-8z" id="path4219" class="ColorScheme-Text" fill="currentColor" fill-opacity="1" fill-rule="evenodd" stroke="none" stroke-width="1" stroke-linecap="butt" stroke-linejoin="miter" stroke-opacity="1"/></g><g id="22-22-Fill50"><path id="rect4221" opacity="1" fill="none" fill-opacity="1" stroke="none" stroke-width=".1" stroke-linecap="square" stroke-linejoin="miter" stroke-miterlimit="4" stroke-dasharray="none" stroke-dashoffset="0" stroke-opacity="1" d="M346.536 404.505h22v22h-22z"/><path d="M347.536 409.505v12h19v-4h.5c.277 0 .5-.223.5-.5v-3c0-.277-.223-.5-.5-.5h-.5v-4h-16zm1 1h17v10h-17z" id="path4223" class="ColorScheme-Text" opacity="1" fill="currentColor" fill-opacity="1" stroke="none" stroke-width=".1" stroke-linecap="square" stroke-linejoin="miter" stroke-miterlimit="4" stroke-dasharray="none" stroke-dashoffset="0" stroke-opacity="1"/><path id="path4225" d="M349.536 411.505v8h8l-2-8z" class="ColorScheme-Text" fill="currentColor" fill-opacity="1" fill-rule="evenodd" stroke="none" stroke-width="1" stroke-linecap="butt" stroke-linejoin="miter" stroke-opacity="1"/></g><g id="22-22-Fill40"><path id="rect4227" opacity="1" fill="none" fill-opacity="1" stroke="none" stroke-width=".1" stroke-linecap="square" stroke-linejoin="miter" stroke-miterlimit="4" stroke-dasharray="none" stroke-dashoffset="0" stroke-opacity="1" d="M368.536 404.505h22v22h-22z"/><path d="M369.536 409.505v12h19v-4h.5c.277 0 .5-.223.5-.5v-3c0-.277-.223-.5-.5-.5h-.5v-4h-16zm1 1h17v10h-17z" id="path4229" class="ColorScheme-Text" opacity="1" fill="currentColor" fill-opacity="1" stroke="none" stroke-width=".1" stroke-linecap="square" stroke-linejoin="miter" stroke-miterlimit="4" stroke-dasharray="none" stroke-dashoffset="0" stroke-opacity="1"/><path d="M371.536 411.505v8h6v-8z" id="path4231" class="ColorScheme-Text" fill="currentColor" fill-opacity="1" fill-rule="evenodd" stroke="none" stroke-width="1" stroke-linecap="butt" stroke-linejoin="miter" stroke-opacity="1"/></g><g id="22-22-Fill30"><path id="rect4233" opacity="1" fill="none" fill-opacity="1" stroke="none" stroke-width=".1" stroke-linecap="square" stroke-linejoin="miter" stroke-miterlimit="4" stroke-dasharray="none" stroke-dashoffset="0" stroke-opacity="1" d="M390.536 404.505h22v22h-22z"/><path d="M391.536 409.505v12h19v-4h.5c.277 0 .5-.223.5-.5v-3c0-.277-.223-.5-.5-.5h-.5v-4h-16zm1 1h17v10h-17z" id="path4235" class="ColorScheme-Text" opacity="1" fill="currentColor" fill-opacity="1" stroke="none" stroke-width=".1" stroke-linecap="square" stroke-linejoin="miter" stroke-miterlimit="4" stroke-dasharray="none" stroke-dashoffset="0" stroke-opacity="1"/><path id="path4237" d="M393.536 411.505v8h5l-2-8z" class="ColorScheme-Text" fill="currentColor" fill-opacity="1" fill-rule="evenodd" stroke="none" stroke-width="1" stroke-linecap="butt" stroke-linejoin="miter" stroke-opacity="1"/></g><g id="22-22-Fill20"><path id="rect4239" opacity="1" fill="none" fill-opacity="1" stroke="none" stroke-width=".1" stroke-linecap="square" stroke-linejoin="miter" stroke-miterlimit="4" stroke-dasharray="none" stroke-dashoffset="0" stroke-opacity="1" d="M412.536 404.505h22v22h-22z"/><path d="M413.536 409.505v12h19v-4h.5c.277 0 .5-.223.5-.5v-3c0-.277-.223-.5-.5-.5h-.5v-4h-16zm1 1h17v10h-17z" id="path4241" class="ColorScheme-Text" fill="currentColor" fill-opacity="1" stroke="none"/><path d="M415.536 411.505v8h3v-8z" id="path4243" class="ColorScheme-Text" fill="currentColor" fill-opacity="1" stroke="none"/></g><g id="22-22-Fill10" transform="translate(22)" fill-opacity="1" stroke="none" stroke-linejoin="miter" stroke-opacity="1"><path id="rect4336" opacity="1" fill="none" stroke-width=".1" stroke-linecap="square" stroke-miterlimit="4" stroke-dasharray="none" stroke-dashoffset="0" d="M412.536 404.505h22v22h-22z"/><path d="M413.536 409.505v12h19v-4h.5c.277 0 .5-.223.5-.5v-3c0-.277-.223-.5-.5-.5h-.5v-4h-16zm1 1h17v10h-17z" id="path4338" opacity="1" fill="#da4453" stroke-width=".1" stroke-linecap="square" stroke-miterlimit="4" stroke-dasharray="none" stroke-dashoffset="0"/><path id="path4340" d="M415.536 411.505v8h3l-2-8z" fill="#da4453" fill-rule="evenodd" stroke-width="1" stroke-linecap="butt"/></g><g transform="translate(44)" id="22-22-Fill0" fill-opacity="1" stroke="none" stroke-width=".1" stroke-linecap="square" stroke-linejoin="miter" stroke-miterlimit="4" stroke-dasharray="none" stroke-dashoffset="0" stroke-opacity="1"><path id="rect4344" opacity="1" fill="none" d="M412.536 404.505h22v22h-22z"/><path d="M413.536 409.505v12h19v-4h.5c.277 0 .5-.223.5-.5v-3c0-.277-.223-.5-.5-.5h-.5v-4h-16zm1 1h17v10h-17z" id="path4346" opacity="1" fill="#da4453"/></g><g id="22-22-battery-ups"><path id="rect4416" opacity="1" fill="none" fill-opacity="1" stroke="none" stroke-width=".1" stroke-linecap="square" stroke-linejoin="miter" stroke-miterlimit="4" stroke-dasharray="none" stroke-dashoffset="0" stroke-opacity="1" d="M214.536 426.505h22v22h-22z"/><path id="rect4552" transform="translate(214.536 404.505)" d="M5 25v16h12V25H5zm1 1h10v14H6V26zm5 1l-2 5h2v3l2-5h-2v-3zM7 37v2h1v-2H7zm2 0v2h1v-2H9zm2 0v2h1v-2h-1zm3 0a1 1 0 0 0-1 1 1 1 0 0 0 1 1 1 1 0 0 0 1-1 1 1 0 0 0-1-1z" class="ColorScheme-Text" opacity="1" fill="currentColor" fill-opacity="1" stroke="none" stroke-width=".1" stroke-linecap="square" stroke-linejoin="miter" stroke-miterlimit="4" stroke-dasharray="none" stroke-dashoffset="0" stroke-opacity="1"/></g><path d="M259.536 431.505v12h19v-4h.5c.277 0 .5-.223.5-.5v-3c0-.277-.223-.5-.5-.5h-.5v-4h-16zm1 1h17v10h-17z" id="path4191-3" class="ColorScheme-Text" opacity="1" fill="currentColor" fill-opacity="1" stroke="none" stroke-width=".1" stroke-linecap="square" stroke-linejoin="miter" stroke-miterlimit="4" stroke-dasharray="none" stroke-dashoffset="0" stroke-opacity="1"/><path id="path4199-4" d="M261.536 441.505v-8h15v8z" class="ColorScheme-Text" fill="currentColor" fill-opacity="1" fill-rule="evenodd" stroke="none" stroke-width="1" stroke-linecap="butt" stroke-linejoin="miter" stroke-opacity="1"/><g id="22-22-Unavailable"><path id="rect4614" opacity="1" fill="none" fill-opacity="1" stroke="none" stroke-width=".1" stroke-linecap="square" stroke-linejoin="miter" stroke-miterlimit="4" stroke-dasharray="none" stroke-dashoffset="0" stroke-opacity="1" d="M258.536 426.505h22v22h-22z"/><g id="g4631"><rect ry=".8" y="440.505" x="273.536" height="8" width="8" id="rect4577-9-1" opacity="1" fill="#da4453" fill-opacity="1" stroke="none"/><path d="M275.243 441.505l-.707.707 2.293 2.293-2.293 2.293.707.707 2.293-2.293 2.293 2.293.707-.707-2.293-2.293 2.293-2.293-.707-.707-2.293 2.293-2.293-2.293z" id="rect4622" class="ColorScheme-Background" opacity="1" fill="currentColor" fill-opacity="1" stroke="none" stroke-width=".112" stroke-linecap="square" stroke-linejoin="miter" stroke-miterlimit="4" stroke-dasharray="none" stroke-dashoffset="0" stroke-opacity="1"/></g></g><g id="Battery"><rect ry="0" y="396.505" x="182.536" height="32" width="32" id="rect4246" opacity="1" fill="none" fill-opacity="1" stroke="none"/><path id="rect4238" d="M185.536 406.505v12h25v-3c.554 0 1-.446 1-1v-4c0-.554-.446-1-1-1v-3zm1 1h23v10h-23z" class="ColorScheme-Text" opacity="1" fill="currentColor" fill-opacity="1" stroke="none"/></g><g id="Fill100"><rect id="rect4248" width="32" height="32" x="150.536" y="396.505" ry="0" opacity="1" fill="none" fill-opacity="1" stroke="none"/><path d="M153.536 406.505v12h25v-3c.554 0 1-.446 1-1v-4c0-.554-.446-1-1-1v-3zm1 1h23v10h-23z" id="path4250" class="ColorScheme-Text" opacity="1" fill="currentColor" fill-opacity="1" stroke="none"/><path id="rect4254" class="ColorScheme-Text" opacity="1" fill="currentColor" fill-opacity="1" stroke="none" d="M155.536 408.505h21v8h-21z"/></g><g id="Fill90"><rect ry="0" y="396.505" x="118.536" height="32" width="32" id="rect4256" opacity="1" fill="none" fill-opacity="1" stroke="none"/><path id="path4260" d="M121.536 406.505v12h25v-3c.554 0 1-.446 1-1v-4c0-.554-.446-1-1-1v-3zm1 1h23v10h-23z" class="ColorScheme-Text" opacity="1" fill="currentColor" fill-opacity="1" stroke="none"/><path id="rect4262" d="M123.536 408.505h19l2 8h-21z" class="ColorScheme-Text" opacity="1" fill="currentColor" fill-opacity="1" stroke="none"/></g><g id="Fill80"><rect id="rect4265" width="32" height="32" x="86.536" y="396.505" ry="0" opacity="1" fill="none" fill-opacity="1" stroke="none"/><path d="M89.536 406.505v12h25v-3c.554 0 1-.446 1-1v-4c0-.554-.446-1-1-1v-3zm1 1h23v10h-23z" id="path4269" class="ColorScheme-Text" opacity="1" fill="currentColor" fill-opacity="1" stroke="none"/><path d="M91.536 408.505h17l2 8h-19z" id="path4271" class="ColorScheme-Text" opacity="1" fill="currentColor" fill-opacity="1" stroke="none"/></g><g id="Fill70"><rect ry="0" y="396.505" x="56.536" height="32" width="32" id="rect4273" opacity="1" fill="none" fill-opacity="1" stroke="none"/><path id="path4277" d="M59.536 406.505v12h25v-3c.554 0 1-.446 1-1v-4c0-.554-.446-1-1-1v-3zm1 1h23v10h-23z" class="ColorScheme-Text" opacity="1" fill="currentColor" fill-opacity="1" stroke="none"/><path id="path4279" d="M61.536 408.505h15l2 8h-17z" class="ColorScheme-Text" opacity="1" fill="currentColor" fill-opacity="1" stroke="none"/></g><g id="Fill60"><rect id="rect4281" width="32" height="32" x="24.536" y="396.505" ry="0" opacity="1" fill="none" fill-opacity="1" stroke="none"/><path d="M27.536 406.505v12h25v-3c.554 0 1-.446 1-1v-4c0-.554-.446-1-1-1v-3zm1 1h23v10h-23z" id="path4285" class="ColorScheme-Text" opacity="1" fill="currentColor" fill-opacity="1" stroke="none"/><path d="M29.536 408.505h13l2 8h-15z" id="path4287" class="ColorScheme-Text" opacity="1" fill="currentColor" fill-opacity="1" stroke="none"/></g><g id="Fill50"><rect ry="0" y="396.505" x="-7.464" height="32" width="32" id="rect4289" opacity="1" fill="none" fill-opacity="1" stroke="none"/><path id="path4293" d="M-4.464 406.505v12h25v-3c.554 0 1-.446 1-1v-4c0-.554-.446-1-1-1v-3zm1 1h23v10h-23z" class="ColorScheme-Text" opacity="1" fill="currentColor" fill-opacity="1" stroke="none"/><path id="path4295" d="M-2.464 408.505h11l2 8h-13z" class="ColorScheme-Text" opacity="1" fill="currentColor" fill-opacity="1" stroke="none"/></g><g id="Fill40"><rect id="rect4297" width="32" height="32" x="-39.464" y="396.505" ry="0" opacity="1" fill="none" fill-opacity="1" stroke="none"/><path d="M-36.464 406.505v12h25v-3c.554 0 1-.446 1-1v-4c0-.554-.446-1-1-1v-3zm1 1h23v10h-23z" id="path4301" class="ColorScheme-Text" opacity="1" fill="currentColor" fill-opacity="1" stroke="none"/><path d="M-34.464 408.505h9l2 8h-11z" id="path4303" class="ColorScheme-Text" opacity="1" fill="currentColor" fill-opacity="1" stroke="none"/></g><g id="Fill30"><rect ry="0" y="396.505" x="-71.464" height="32" width="32" id="rect4321" opacity="1" fill="none" fill-opacity="1" stroke="none"/><path id="path4325" d="M-68.464 406.505v12h25v-3c.554 0 1-.446 1-1v-4c0-.554-.446-1-1-1v-3zm1 1h23v10h-23z" class="ColorScheme-Text" fill="currentColor" fill-opacity="1" stroke="none"/><path id="path4327" d="M-66.464 408.505h5l2 8h-7z" class="ColorScheme-Text" fill="currentColor" fill-opacity="1" stroke="none"/></g><g id="Fill20"><rect id="rect4329" width="32" height="32" x="-103.464" y="396.505" ry="0" opacity="1" fill="none" fill-opacity="1" stroke="none"/><path d="M-100.464 406.505v12h25v-3c.554 0 1-.446 1-1v-4c0-.554-.446-1-1-1v-3zm1 1h23v10h-23z" id="path4333" class="ColorScheme-Text" fill="currentColor" fill-opacity="1" stroke="none"/><path d="M-98.464 408.505h3l2 8h-5z" id="path4335" class="ColorScheme-Text" fill="currentColor" fill-opacity="1" stroke="none"/></g><g id="Fill10" fill-opacity="1" stroke="none"><rect ry="0" y="396.505" x="-135.464" height="32" width="32" id="rect4337" opacity="1" fill="none"/><path id="path4341" d="M-132.464 406.505v12h25v-3c.554 0 1-.446 1-1v-4c0-.554-.446-1-1-1v-3zm1 1h23v10h-23z" opacity="1" fill="#da4453"/><path id="path4343" d="M-130.464 408.505h1l2 8h-3z" opacity="1" fill="#da4453"/></g><g id="Fill0" fill-opacity="1" stroke="none"><rect id="rect4345" width="32" height="32" x="-167.464" y="396.505" ry="0" opacity="1" fill="none"/><path d="M-164.464 406.505v12h25v-3c.554 0 1-.446 1-1v-4c0-.554-.446-1-1-1v-3zm1 1h23v10h-23z" id="path4349" opacity="1" fill="#da4453"/></g><g id="battery-ups"><path id="rect4447" opacity="1" fill="none" fill-opacity="1" stroke="none" d="M182.536 428.505h32v32h-32z"/><path id="rect4411" d="M190.536 432.505v24h16v-24h-16zm1 1h14v22h-14v-22zm7 2l-3 7h3v4l3-7h-3v-4zm-6 15v3h1v-3h-1zm2 0v3h1v-3h-1zm2 0v3h1v-3h-1zm2 0v3h1v-3h-1zm4.5 0a1.5 1.5 0 0 0-1.5 1.5 1.5 1.5 0 0 0 1.5 1.5 1.5 1.5 0 0 0 1.5-1.5 1.5 1.5 0 0 0-1.5-1.5z" class="ColorScheme-Text" opacity="1" fill="currentColor" fill-opacity="1" stroke="none"/></g><g id="AcAdapter"><path id="rect4470" opacity="1" fill="none" fill-opacity="1" stroke="none" stroke-width=".1" stroke-linecap="square" stroke-linejoin="miter" stroke-miterlimit="4" stroke-dasharray="none" stroke-dashoffset="0" stroke-opacity="1" d="M150.536 428.505h32v32h-32z"/><g id="g4600"><path d="M-48 37a3 3 0 0 0-2.826 2H-52v2h1.176A3 3 0 0 0-48 43v-1h2v-1h-2v-2h2v-1h-2v-1z" transform="translate(214.536 404.505)" id="path4472" opacity="1" fill="#2abb9b" fill-opacity="1" stroke="none" stroke-width=".1" stroke-linecap="square" stroke-linejoin="miter" stroke-miterlimit="4" stroke-dasharray="none" stroke-dashoffset="0" stroke-opacity="1"/></g></g><path d="M88.536 438.505v12h25v-3c.554 0 1-.446 1-1v-4c0-.554-.446-1-1-1v-3zm1 1h23v10h-23z" id="path4250-0" class="ColorScheme-Text" opacity="1" fill="currentColor" fill-opacity="1" stroke="none"/><path id="rect4254-4" class="ColorScheme-Text" opacity="1" fill="currentColor" fill-opacity="1" stroke="none" d="M90.536 440.505h21v8h-21z"/><g id="Unavailable" transform="translate(-33)"><path id="rect4480" opacity="1" fill="none" fill-opacity="1" stroke="none" stroke-width=".1" stroke-linecap="square" stroke-linejoin="miter" stroke-miterlimit="4" stroke-dasharray="none" stroke-dashoffset="0" stroke-opacity="1" d="M118.536 428.505h32v32h-32z"/><g id="g4580"><rect ry="1" y="446.505" x="141.536" height="10" width="10" id="rect4577" opacity="1" fill="#da4453" fill-opacity="1" stroke="none"/><path id="rect4622-0" d="M144.243 448.505l-.707.707 2.293 2.293-2.293 2.293.707.707 2.293-2.293 2.293 2.293.707-.707-2.293-2.293 2.293-2.293-.707-.707-2.293 2.293-2.293-2.293z" class="ColorScheme-Background" opacity="1" fill="currentColor" fill-opacity="1" stroke="none" stroke-width=".112" stroke-linecap="square" stroke-linejoin="miter" stroke-miterlimit="4" stroke-dasharray="none" stroke-dashoffset="0" stroke-opacity="1"/></g></g><g id="22-22-AcAdapter" fill-opacity="1" stroke="none" stroke-width=".1" stroke-linecap="square" stroke-linejoin="miter" stroke-miterlimit="4" stroke-dasharray="none" stroke-dashoffset="0" stroke-opacity="1"><path id="rect4185-5" opacity="1" fill="none" d="M236.536 426.505h22v22h-22z"/><path id="path4600" transform="translate(214.536 404.505)" d="M34 30a3 3 0 0 0-2.826 2H30v2h1.176A3 3 0 0 0 34 36v-1h2v-1h-2v-2h2v-1h-2v-1z" opacity="1" fill="#2abb9b"/></g></g></svg>