<svg xmlns="http://www.w3.org/2000/svg" width="54" height="32" id="svg3613" version="1.1"><defs id="defs3615"><style type="text/css" id="current-color-scheme">.ColorScheme-Text{color:#dfdfdf}</style></defs><g transform="translate(-420.716 -516.791)" id="22-22-bookmarks"><path id="rect3028" transform="matrix(1 0 0 1 420.714 524.79)" opacity=".01" fill="#000" fill-opacity=".004" stroke="none" d="M0 2h22v22H0z"/><path d="M426.714 529.79v16l5-2 5 2v-16h-10m1 1h8v13.6l-4-1.6-4 1.6v-13.6" id="rect4298" class="ColorScheme-Text" fill="currentColor" fill-opacity="1" stroke="none"/></g><g transform="translate(-398.716 -516.791)" id="bookmarks"><path id="rect2994" transform="matrix(1 0 0 1 420.714 524.79)" opacity=".01" fill="#000" fill-opacity=".004" stroke="none" d="M0-8h32v32H0z"/><path d="M428.714 520.79v24l8-4 8 4v-24zm1 1h14v21.558l-7-3.557-7 3.557z" id="path2996" class="ColorScheme-Text" fill="currentColor" fill-opacity="1" stroke="none"/></g></svg>