<svg xmlns="http://www.w3.org/2000/svg" version="1.1" id="svg2" viewBox="0 0 54 32"><defs id="defs3051"><style id="current-color-scheme" type="text/css">.ColorScheme-Text{color:#dfdfdf}</style></defs><g id="22-22-cantata"><path id="path7" class="ColorScheme-Text" d="M11 13a8 8 0 0 0-8 8 8 8 0 0 0 8 8 8 8 0 0 0 8-8 8 8 0 0 0-8-8zm0 1a7 7 0 0 1 7 7 7 7 0 0 1-7 7 7 7 0 0 1-7-7 7 7 0 0 1 7-7z" fill="currentColor" fill-opacity=".6" stroke="none"/><path id="path9" class="ColorScheme-Text" d="M10 13v11.045c-.837-.361-1.81-.264-2.846.166-1.734.718-2.73 2.293-2.222 3.517.506 1.225 2.325 1.637 4.06.918 1.369-.568 2.207-2.045 2.207-2.935V17s3.201.4 3.201 3.6c0 2.4-.8 3.2-2.8 5.2 2-1.2 3.6-2.8 3.6-5.2 0-3.2-2.47-4.64-3.102-5.272-.4-.4-.899-1.928-.899-1.928L10 13z" fill="currentColor" fill-opacity="1" stroke="none"/><path id="path11" d="M0 10v22h22V10H0z" opacity="1" fill="none"/></g><g id="cantata"><path id="path13" class="ColorScheme-Text" d="M38 4a12 12 0 0 0-12 12 12 12 0 0 0 12 12 12 12 0 0 0 12-12A12 12 0 0 0 38 4zm0 1a11 11 0 0 1 11 11 11 11 0 0 1-11 11 11 11 0 0 1-11-11A11 11 0 0 1 38 5z" fill="currentColor" fill-opacity=".6" stroke="none"/><path id="path15" class="ColorScheme-Text" d="M37.002 4v16.994c-1.256-.542-3.214-.828-4.768-.184-2.602 1.077-3.765 3.472-3.005 5.308.76 1.836 3.159 2.42 5.762 1.343 2.053-.852 3.045-3.114 3.042-4.448l-.03-13.015s5.1.599 5.1 5.397c0 3.599-1.1 4.6-4.1 7.598 3-1.8 5.298-4 5.298-7.598 0-4.798-3.704-6.956-4.652-7.904-.6-.6-1.348-2.89-1.348-2.89z" fill="currentColor" fill-opacity="1" stroke="none"/><path id="path18" d="M22 0v32h32V0H22z" opacity="1" fill="none"/></g></svg>