<svg xmlns="http://www.w3.org/2000/svg" id="svg2" width="70" height="64" version="1.0"><defs id="defs5"><style id="current-color-scheme" type="text/css">.ColorScheme-Text{color:#dfdfdf}</style></defs><g id="22-22-computer" transform="matrix(.75 0 0 .75 -273.429 -345.6)"><path id="rect3074" opacity=".01" fill="#00000f" fill-opacity=".004" stroke="none" d="M385.905 516.798h29.333v29.333h-29.333z"/><path class="ColorScheme-Text" d="M17 45v14h7v2h-2v1h10v-1h-2v-2h7V45zm1 1h18v11H18zm7 13h4v2h-4z" transform="translate(364.571 460.798) scale(1.33333)" id="rect7235" fill="currentColor" fill-opacity="1" stroke="none"/></g><g transform="matrix(.75 0 0 .75 -168 -765.272)" id="22-22-computer-laptop"><path id="rect7292" opacity=".01" fill="#dfdfdf" fill-opacity=".004" stroke="none" d="M245.333 1033.696h29.333v29.333h-29.333z"/><path class="ColorScheme-Text" d="M18 13v14h-1a2 2 0 0 0 2 2h16a2 2 0 0 0 2-2h-1V13H18zm1 1h16v12H19V14z" transform="matrix(1.33333 0 0 1.33333 224 1020.362)" id="rect7296" fill="currentColor" fill-opacity="1" stroke="none"/></g><g transform="translate(-382.987 -531.78) scale(1.09091)" id="computer"><path id="rect3018" opacity=".01" fill="#00000f" fill-opacity=".004" stroke="none" d="M385.905 516.798h29.333v29.333h-29.333z"/><path d="M40 36.012V56h11v3h-3v1h12v-1h-3v-3h11V36.012zm1 1h26V54H41zM52 56h4v3h-4z" transform="matrix(.91667 0 0 .91667 351.071 487.465)" id="path3020" class="ColorScheme-Text" fill="currentColor" fill-opacity="1" stroke="none"/></g><g id="computer-laptop" transform="translate(-229.637 -1127.67) scale(1.09091)"><path id="rect3026" opacity=".01" fill="#dfdfdf" fill-opacity=".004" stroke="none" d="M245.333 1033.696h29.333v29.333h-29.333z"/><path class="ColorScheme-Text" d="M40 4v19h-1v1a2 2 0 0 0 2 2h26a2 2 0 0 0 2-2v-1h-1V4zm1 1h26v17H41zm-1 19h28a1 1 0 0 1-1 1H41a1 1 0 0 1-1-1z" transform="matrix(.91667 0 0 .91667 210.5 1033.696)" id="path3028" fill="currentColor" fill-opacity="1" stroke="none"/></g><g id="16-16-computer" transform="matrix(.54507 0 0 .54507 -210.345 -233.68)"><path id="rect3034" opacity=".01" fill="#00000f" fill-opacity=".004" stroke="none" d="M385.905 516.798h29.333v29.333h-29.333z"/><path id="path3036" d="M393.243 540.64h14.677v1.843h-14.677zm4.662-1.826h5.333v1.826h-5.333zm-10.167-18.339v18.339h25.667v-18.339zm1.836 1.827h22.016v12.842h-22.016z" class="ColorScheme-Text" fill="currentColor" fill-opacity="1" stroke="none"/></g><g transform="matrix(.54546 0 0 .54546 -133.819 -547.836)" id="16-16-computer-laptop"><path id="rect3042" opacity=".01" fill="#dfdfdf" fill-opacity=".004" stroke="none" d="M245.333 1033.696h29.333v29.333h-29.333z"/><path class="ColorScheme-Text" id="path3044" d="M250.983 1041.029v12.833h-3.733c0 2 2.417 3.667 2.417 3.667h20.666s2.417-1.667 2.417-3.667h-3.434v-12.833zm1.833 1.833h14.667v9.167h-14.667z" fill="currentColor" fill-opacity="1" stroke="none"/></g></svg>