<svg xmlns="http://www.w3.org/2000/svg" version="1.1" id="svg2" viewBox="0 0 54 32"><defs id="defs3051"><style id="current-color-scheme" type="text/css">.ColorScheme-Text{color:#dfdfdf}</style></defs><g id="22-22-configure"><path id="path7" class="ColorScheme-Text" d="M11.5 13c-1.213 0-2.22.857-2.451 2H3v1h6.049c.23 1.144 1.237 2 2.451 2a2.492 2.492 0 0 0 2.45-2H19v-1h-5.05a2.494 2.494 0 0 0-2.45-2zm-6 11A2.495 2.495 0 0 0 3 26.5C3 27.885 4.115 29 5.5 29a2.492 2.492 0 0 0 2.45-2H19v-1H7.95a2.494 2.494 0 0 0-2.45-2zm0 1c.831 0 1.5.669 1.5 1.5S6.331 28 5.5 28 4 27.331 4 26.5 4.669 25 5.5 25z" fill="currentColor" fill-opacity="1" stroke="none"/><path id="path9" d="M0 10v22h22V10H0z" opacity="1" fill="none"/></g><g id="configure"><path id="path11" class="ColorScheme-Text" d="M40.5 6a3.5 3.5 0 0 0-3.459 3H26v1h11.04a3.5 3.5 0 0 0 3.46 3 3.5 3.5 0 0 0 3.459-3H50V9h-6.04a3.5 3.5 0 0 0-3.46-3zm-11 13a3.5 3.5 0 0 0-3.5 3.5 3.5 3.5 0 0 0 3.5 3.5 3.5 3.5 0 0 0 3.46-3H50v-1H32.959a3.5 3.5 0 0 0-3.459-3zm0 1a2.5 2.5 0 0 1 2.5 2.5 2.5 2.5 0 0 1-2.5 2.5 2.5 2.5 0 0 1-2.5-2.5 2.5 2.5 0 0 1 2.5-2.5z" fill="currentColor" fill-opacity="1" stroke="none"/><path id="path14" d="M22 0v32h32V0H22z" opacity="1" fill="none"/></g></svg>