<svg xmlns="http://www.w3.org/2000/svg" width="32" height="32" id="svg3869" version="1.1"><defs id="defs3871"><style type="text/css" id="current-color-scheme">.ColorScheme-Text{color:#dfdfdf}</style></defs><g id="layer1" transform="translate(-321 -529.362)"><g id="device-notifier"><path id="rect4196" transform="translate(321 529.362)" d="M9 2v14H7v14h18V16h-2V2H9zm1 3h2v8h-2V5zm10 0h2v8h-2V5zm-7 3h2v5h-2V8zm4 0h2v5h-2V8zm-9 9h16v12H8V17zm8 1l-2 2h4l-2-2zm-6 7v1h12v-1H10zm1 2v1h10v-1H11z" class="ColorScheme-Text" opacity="1" fill="currentColor" fill-opacity="1" stroke="none" stroke-width=".1" stroke-linecap="square" stroke-linejoin="miter" stroke-miterlimit="4" stroke-dasharray="none" stroke-dashoffset="0" stroke-opacity="1"/><path id="rect4151" opacity=".2" fill="none" fill-opacity="1" stroke="none" d="M321 529.362h32v32h-32z"/></g><g id="22-22-device-notifier"><path id="rect4157" opacity=".2" fill="none" fill-opacity="1" stroke="none" d="M358 534.362h22v22h-22z"/><path id="rect4159" d="M365 537.362v8h-1v8h10v-8h-1v-8h-8zm1 2h1v4h-1v-4zm5 0h1v4h-1v-4zm-3 2h2v2h-2v-2zm-3 5h8v6h-8v-6zm4 1l-1 1h2l-1-1zm-3 3v1h6v-1h-6z" class="ColorScheme-Text" opacity="1" fill="currentColor" fill-opacity="1" stroke="none"/></g><g id="16-16-device-notifier"><path id="rect4182" opacity=".2" fill="none" fill-opacity="1" stroke="none" d="M387 537.362h16v16h-16z"/><path id="rect4188" transform="translate(321 529.362)" d="M71 10v6h-1v6h8v-6h-1v-6h-6zm1 2h1v3h-1v-3zm3 0h1v3h-1v-3zm-4 5h6v4h-6v-4zm1 2v1h4v-1h-4z" class="ColorScheme-Text" opacity="1" fill="currentColor" fill-opacity="1" stroke="none"/></g></g></svg>