<svg id="svg3869" width="32" height="32" version="1.1" xmlns="http://www.w3.org/2000/svg">
 <defs id="defs3871">
  <style id="current-color-scheme" type="text/css">.ColorScheme-Text{color:#dfdfdf}</style>
  <style id="current-color-scheme-3" type="text/css"/>
 </defs>
 <g id="device-notifier">
  <path id="rect4196" class="ColorScheme-Text" d="m16 17-2 2h4zm-6 7v1h12v-1zm1 2v1h10v-1z" color="#dfdfdf" fill="currentColor"/>
  <path id="rect4151" d="m0 0h32v32h-32z" fill="none" opacity=".2"/>
  <path id="rect911" d="m8 1v7h-1.5879l-0.13476 0.8418c-0.38197 2.3882-0.26172 4.8487-0.26172 6.7305 0 4.8564 0.16168 8.877 1.8711 11.855 1.705 2.9707 4.8455 4.5723 8.1133 4.5723s6.4083-1.6015 8.1133-4.5723c1.7094-2.9784 1.8711-6.9991 1.8711-11.855 0-1.8818 0.12025-4.3423-0.26172-6.7305l-0.13476-0.8418h-1.5879v-7zm1 1h14v6h-14zm2 2v2h3v-2zm7 0v2h3v-2zm-10.734 5h17.469c0.35936 2.2469 0.25 4.6523 0.25 6.5723 0 4.8263-0.21852 8.7114-1.7383 11.359-1.5198 2.648-4.2999 4.0684-7.2461 4.0684s-5.7263-1.4204-7.2461-4.0684-1.7383-6.5331-1.7383-11.359c0-1.92-0.10936-4.3254 0.25-6.5723z" fill="#dfdfdf" stroke-width=".8585" style="paint-order:fill markers stroke"/>
 </g>
 <g id="22-22-device-notifier">
  <path id="rect839" d="m44 12c-1.108 0-2 0.892-2 2v8c0 1.108 0.892 2 2 2h8c1.108 0 2-0.892 2-2v-8c0-1.108-0.892-2-2-2h-8zm0 1h8c0.554 0 1 0.446 1 1v8c0 0.554-0.446 1-1 1h-8c-0.554 0-1-0.446-1-1v-8c0-0.554 0.446-1 1-1z" fill="#dfdfdf" style="paint-order:stroke fill markers"/>
  <path id="rect4157" d="m37 5h22v22h-22z" fill="none" opacity=".2"/>
  <path id="rect4159" d="m44 8v0.5 3.4922h1v-2.9922h6.0156v2.9922h1v-3.9922h-8.0156zm2.0078 1.9922v1h1v-1h-1zm3 0v1h1v-1h-1z" color="#dfdfdf" fill="currentColor"/>
  <path id="path832" d="m48 17-1 1h2zm-2 3v1h4v-1z" color="#dfdfdf" fill="currentColor"/>
 </g>
 <g id="16-16-device-notifier">
  <path id="rect4182" d="m65.007 8h16v16h-16z" fill="none" opacity=".2"/>
  <path id="path848" d="m69.007 8v3.9922h1v-2.9922h6.0156v2.9922h1v-3.9922zm2.0078 1.9922v1h1v-1zm3 0v1h1v-1zm-5.0078 2.0078c-1.108 0-2 0.892-2 2v8c0 1.108 0.892 2 2 2h8c1.108 0 2-0.892 2-2v-8c0-1.108-0.892-2-2-2zm0 1h8c0.554 0 1 0.446 1 1v8c0 0.554-0.446 1-1 1h-8c-0.554 0-1-0.446-1-1v-8c0-0.554 0.446-1 1-1zm4 4-1 1h2zm-2 3v1h4v-1z" fill="#dfdfdf" style="paint-order:stroke fill markers"/>
 </g>
</svg>
