<svg xmlns="http://www.w3.org/2000/svg" version="1.1" id="svg2" viewBox="0 0 54 32"><defs id="defs3051"><style id="current-color-scheme" type="text/css">.ColorScheme-Text{color:#dfdfdf}</style></defs><g id="22-22-drive"><path id="path7" class="ColorScheme-Text" d="M4 13v16h14V13H4zm1 1h12v12H5V14zm2.5 1a.5.5 0 0 0-.5.5.5.5 0 0 0 .5.5.5.5 0 0 0 .5-.5.5.5 0 0 0-.5-.5zM9 15l-1 1 1 1-1 1 1 1 1-1 1-1-1-1-1-1zm-2.5 2a.5.5 0 0 0-.5.5.5.5 0 0 0 .5.5.5.5 0 0 0 .5-.5.5.5 0 0 0-.5-.5zm1 2a.5.5 0 0 0-.5.5.5.5 0 0 0 .5.5.5.5 0 0 0 .5-.5.5.5 0 0 0-.5-.5zm3.5 3v1h5v-1h-5zm0 2v1h5v-1h-5zm-5 3h10v1H6v-1z" fill="currentColor" fill-opacity="1" stroke="none"/><path id="path9" d="M0 10v22h22V10H0z" opacity="1" fill="none"/></g><g id="drive"><path id="path11" class="ColorScheme-Text" d="M27 4v24h22V4H27zm1 1h20v19H28V5zm3.5 2a.5.5 0 1 0 0 1 .5.5 0 0 0 0-1zM33 7l-1 1 1 1-1 1 1 1 1-1 1-1-1-1-1-1zm-2.5 2a.5.5 0 1 0 0 1 .5.5 0 0 0 0-1zm1 2a.5.5 0 1 0 0 1 .5.5 0 0 0 0-1zm7.5 6v1h7v-1h-7zm0 2v1h7v-1h-7zm0 2v1h7v-1h-7zm-10 4h18v2H29v-2z" fill="currentColor" fill-opacity="1" stroke="none"/><path id="path14" d="M22 0v32h32V0H22z" opacity="1" fill="none"/></g><g transform="translate(0 13)" id="16-16-drive"><path id="path15" class="ColorScheme-Text" d="M-14 5v12h12V5h-12zm1 1h10v8h-5v1h-2v-1h-3V6zm1 1v6h8V7h-8zm1 1h1v2h4V8h1v4h-6V8zm-2 7h2v1h-2v-1zm6 0h3v1h-3v-1z" fill="currentColor" fill-opacity="1" stroke="none"/><path id="path17" d="M-16 3v16H0V3h-16z" opacity="1" fill="none"/></g></svg>