<svg id="svg221" width="242" height="154" version="1.1" xmlns="http://www.w3.org/2000/svg">
 <defs id="defs3">
  <style id="current-color-scheme" type="text/css">.ColorScheme-Text{color:#dfdfdf}</style>
 </defs>
 <g id="fcitx-bopomofo-libpinyin" transform="translate(66 22)" style="">
  <path id="path5" d="M0 0h22v22H0z" fill="none" fill-rule="evenodd" style=""/>
  <path id="path7" transform="translate(-66,-22)" d="m69 25v16h16v-16h-16zm8.3008 1.5996 2 1.5-0.60156 0.80078-2-1.5 0.60156-0.80078zm-5.9473 0.046875 2 2-0.70703 0.70703-2-2 0.70703-0.70703zm2.6465 2.3535h9v1h-4v3h3v1h-3v4h4v1h-9v-1h4v-4h-3v-1h3v-3h-4v-1zm-2.6465 0.64648 2 2-0.70703 0.70703-2-2 0.70703-0.70703zm1.1719 3.1953 0.94922 0.31641-2 6-0.94922-0.31641 2-6z" fill="#dfdfdf"/>
 </g>
 <g id="fcitx-pinyin">
  <path id="path10" class="ColorScheme-Text" d="M3 3.002V19h16V3.002H3zM4 4h14v14H4V4zm6.9.701l-.8.6L11.375 7H10v1h1v3H9.117l.106-.053-.446-.894L8 10.44V8h1V7H8V5H7v2H5v1h2v2.941l-2.223 1.112.446.894L7 12.06V16H5v1h3v-5.441l1-.5V12h1.96c-.088.895-.39 1.612-.792 2.307-.497.86-1.51 1.83-1.51 1.83l.684.728s1.07-.983 1.691-2.058c.449-.778.83-1.688.926-2.807H14v5h1v-5h2v-1h-2V8h2V7h-2.375L15.9 5.3l-.8-.599-1.5 2 .398.299h-1.996l.398-.299-1.5-2zM12 8h2v3h-2V8z" fill="currentColor"/>
  <path id="path12" d="M0 0h22v22H0z" fill="none"/>
 </g>
 <g id="fcitx-shuangpin" transform="translate(44)">
  <path id="path15" class="ColorScheme-Text" d="M3 3.002V19h16V3.002H3zM4 4h14v14H4V4zm1 1v1h4.428c-.071.643-.318 2.737-.87 4.643-.694-.963-1.486-1.981-2.667-3.456l-.782.627c1.418 1.77 2.287 2.884 3.053 3.99-1.293 3.343-3.264 4.657-3.264 4.657l.557.832s1.97-1.363 3.365-4.488c.437.686.883 1.421 1.422 2.375l.87-.49a45.784 45.784 0 0 0-1.839-3.012c.897-2.608 1.225-6.13 1.225-6.13l.05-.548H5zm6 0v1h.59c.102.592.552 3.137 1.31 5.094.266.685.55 1.343.887 1.992-1.288 2.042-3.068 3.143-3.068 3.143l.517.855s1.71-1.05 3.104-3.037c.656 1.024 1.521 2.03 2.803 3.064l.627-.779c-1.384-1.117-2.22-2.147-2.844-3.23.125-.228.256-.448.367-.694C16.167 10.468 17 7.647 17 5.5V5h-6zm1.607 1h3.317c-.109 1.853-.786 4.318-1.543 5.998l-.008.016a24.198 24.198 0 0 1-.539-1.282C13.176 9.033 12.747 6.765 12.607 6z" fill="currentColor"/>
  <path id="path17" d="M0 0h22v22H0z" fill="none"/>
 </g>
 <g id="fcitx-wubi" transform="translate(154)">
  <path id="path20" class="ColorScheme-Text" d="M3 3.002V19h16V3.002zM4 4h14v14H4zm2 2v1h3.877l-.666 3H7v1h1.988L8.1 15H6v1h10v-1h-2v-5h-3.764l.666-3H15V6zm4.014 5H13v4H9.123z" fill="currentColor"/>
  <path id="path22" d="M0 0h22v22H0z" fill="none"/>
 </g>
 <g id="fcitx-googlepinyin" transform="translate(0 44)">
  <path id="path25" class="ColorScheme-Text" d="M3 3.002V19h16V3.002H3zM4 4h14v14H4V4zm6.898 1.504a5.49 5.49 0 0 0-3.597 1.424 5.513 5.513 0 0 0-.826 7.199A5.512 5.512 0 0 0 13.5 15.9c2.19-1.117 3.332-3.545 2.898-5.9h-2.056l.002.008H11v2h3.336a3.458 3.458 0 0 1-1.746 2.111c-1.57.8-3.47.321-4.47-1.129a3.49 3.49 0 0 1 .526-4.582 3.487 3.487 0 0 1 4.61-.084l1.29-1.53a5.492 5.492 0 0 0-3.648-1.29z" fill="currentColor"/>
  <path id="path27" d="M0 0h22v22H0z" fill="none"/>
 </g>
 <g id="fcitx-pinyin-libpinyin" transform="translate(0 22)">
  <path id="path30" class="ColorScheme-Text" d="M3 3v16h16V3H3zm7.9 1.701l1.5 2-.398.299h1.996l-.398-.299 1.5-2 .8.6L14.625 7H17v1h-2v3h2v1h-2v5h-1v-5h-2.041c-.096 1.119-.477 2.03-.926 2.807-.62 1.075-1.691 2.058-1.691 2.058l-.684-.728s1.013-.97 1.51-1.83c.401-.695.704-1.412.793-2.307H9v-.941l-1 .5V17H5v-1h2v-3.941l-1.777.888-.446-.894L7 10.94V8H5V7h2V5h1v2h1v1H8v2.441l.777-.388.446.894-.106.053H11V8h-1V7h1.375L10.1 5.3l.8-.599zM12 8v3h2V8h-2z" fill="currentColor"/>
  <path id="path32" d="M0 0h22v22H0z" fill="none"/>
 </g>
 <g id="fcitx-shuangpin-libpinyin" transform="translate(44 22)">
  <path id="path35" class="ColorScheme-Text" d="M3 3v16h16V3H3zm2 2h5.549l-.051.549s-.328 3.52-1.225 6.129a45.785 45.785 0 0 1 1.838 3.011l-.869.49a51.03 51.03 0 0 0-1.422-2.374c-1.394 3.125-3.365 4.488-3.365 4.488l-.557-.832s1.97-1.314 3.264-4.656c-.766-1.107-1.635-2.222-3.053-3.99l.782-.628c1.18 1.475 1.973 2.493 2.668 3.456.55-1.906.798-4 .869-4.643H5V5zm6 0h6v.5c0 2.147-.833 4.968-1.707 6.908-.111.247-.242.466-.367.694.624 1.083 1.46 2.113 2.844 3.23l-.627.78c-1.282-1.035-2.147-2.042-2.803-3.065-1.393 1.987-3.104 3.037-3.104 3.037l-.517-.855s1.78-1.101 3.068-3.143a19.584 19.584 0 0 1-.887-1.992C12.142 9.137 11.692 6.592 11.59 6H11V5zm1.607 1c.14.765.569 3.033 1.227 4.732.173.448.351.868.539 1.282.003-.006.005-.006.008-.016.757-1.68 1.434-4.145 1.543-5.998h-3.317z" fill="currentColor"/>
  <path id="path37" d="M0 0h22v22H0z" fill="none"/>
 </g>
 <g id="fcitx-sunpinyin" transform="translate(22 44)">
  <path id="path40" class="ColorScheme-Text" d="M11 1.514c-.256 0-.511.099-.707.295L8.102 4H5c-.554 0-1 .446-1 1v3.1l-2.193 2.193a.998.998 0 0 0 0 1.414L4 13.9V17c0 .554.446 1 1 1h3.1l2.193 2.193a.998.998 0 0 0 1.414 0L13.9 18H17c.554 0 1-.446 1-1v-3.102l2.191-2.191a.998.998 0 0 0 0-1.414L18 8.102V5c0-.554-.446-1-1-1h-3.102l-2.191-2.191A.998.998 0 0 0 11 1.514zM10.9 4.7l1.5 2-.398.299h1.996l-.398-.299 1.5-2 .8.6L14.625 7H17v1h-2v3h2v1h-2v5h-1v-5h-2.041c-.096 1.119-.477 2.03-.926 2.807-.62 1.075-1.691 2.058-1.691 2.058l-.684-.728s1.013-.97 1.51-1.83c.401-.695.704-1.412.793-2.307H9v-.941l-1 .5V17H5v-1h2v-3.941l-1.777.888-.446-.894L7 10.94V8H5V7h2V5h1v2h1v1H8v2.441l.777-.388.446.894-.106.053H11V8h-1V7h1.375L10.1 5.3l.8-.599zM12 8v3h2V8h-2z" fill="currentColor"/>
  <path id="path42" d="M0 0h22v22H0z" fill="none"/>
 </g>
 <g id="fcitx-emoji" transform="translate(0 -38)">
  <path id="path45" d="M0 170h22v22H0z" fill="none"/>
  <path id="path47" class="ColorScheme-Text" transform="translate(0 26)" d="M3.223 150.053l-.446.894 4 2 .446-.894-4-2zm15.554 0l-4 2 .446.894 4-2-.446-.894zM4 153a1 1 0 0 0-1 1 1 1 0 0 0 1 1 1 1 0 0 0 1-1 1 1 0 0 0-1-1zm14 0a1 1 0 0 0-1 1 1 1 0 0 0 1 1 1 1 0 0 0 1-1 1 1 0 0 0-1-1zm-9.9 1.7c-.81 1.08-1.235 2.288-1.16 3.335.037.524.21 1.022.568 1.39.358.37.888.575 1.492.575.961 0 1.639-.68 2-1.457.361.776 1.039 1.457 2 1.457.604 0 1.134-.205 1.492-.574.359-.37.531-.867.569-1.39.074-1.048-.35-2.257-1.16-3.337l-.801.602c.69.92 1.015 1.961.964 2.664-.025.351-.133.603-.29.765-.158.163-.378.27-.774.27-.528 0-.84-.307-1.107-.895-.268-.587-.393-1.41-.393-2.105h-1c0 .694-.125 1.518-.393 2.105-.267.588-.58.895-1.107.895-.396 0-.616-.107-.773-.27-.158-.162-.266-.414-.291-.765-.05-.703.274-1.744.964-2.664l-.8-.602z" fill="currentColor"/>
 </g>
 <g id="fcitx-erbi" transform="translate(132)">
  <path id="path50" class="ColorScheme-Text" d="M3 3v16h16V3H3zm1 1h14v14H4V4zm2 3v1h10V7H6zm-1 7v1h12v-1H5z" fill="currentColor"/>
  <path id="path52" d="M0 0h22v22H0z" fill="none"/>
 </g>
 <g id="fcitx-ziranma" transform="translate(198)">
  <path id="path55" class="ColorScheme-Text" d="M3 3v16h16V3H3zm1 1h14v14H4V4zm5.68.615L6.818 7H6v10h10V7H8.383l1.937-1.615-.64-.77zM7 8h8v8H7v-2h6v-1H7v-2h6v-1H7V8z" fill="currentColor"/>
  <path id="path57" d="M0 0h22v22H0z" fill="none"/>
 </g>
 <g id="fcitx-quanpin" transform="translate(22)">
  <path id="path60" class="ColorScheme-Text" d="M3 3v16h16V3H3zm1 1h14v14H4V4zm6.51.902c-.186.93-1.548 2.061-2.944 2.85C6.171 8.54 4.83 9.029 4.83 9.029l.34.942S5.97 9.677 7 9.176V10h3.5v2H8v1h2.5v3H6v1h10v-1h-4.5v-3H14v-1h-2.5v-2H15v-.87c1.016.517 1.824.839 1.824.839l.352-.938s-3.856-1.498-5.733-3.787c.013-.05.037-.096.047-.146l-.98-.196zm.49 1.33C12.116 7.447 13.543 8.37 14.734 9H7.338c.237-.121.473-.237.72-.377 1.096-.619 2.274-1.394 2.942-2.39z" fill="currentColor"/>
  <path id="path62" d="M0 0h22v22H0z" fill="none"/>
 </g>
 <g id="fcitx-cangjie" transform="translate(220)">
  <path id="path65" class="ColorScheme-Text" transform="translate(-176 -12)" d="M179 15v16h16V15h-16zm1 1h14v14h-14V16zm6.584.723c-1.844 2.765-5.647 3.28-5.647 3.28l.125.993s.834-.124 1.938-.535V24.5c0 .833-.454 1.913-.934 2.752-.48.84-.957 1.436-.957 1.436l.782.625s.522-.654 1.043-1.565c.022-.039.044-.085.066-.125V29h8v-3h-7.275a5.32 5.32 0 0 0 .22-1H191v-4.54c1.104.412 1.938.536 1.938.536l.125-.992s-3.803-.516-5.647-3.281h-.832zm.416.98c.859 1.07 1.933 1.799 2.934 2.297H187.5l.277-.416-1.5-1-.554.832.875.584h-2.532c1-.498 2.075-1.227 2.934-2.297zM184 21h6v3h-6v-1h5v-1h-5v-1zm0 6h6v1h-6v-1z" fill="currentColor"/>
  <path id="path67" d="M0 0h22v22H0z" fill="none"/>
 </g>
 <g id="fcitx-wbpy" transform="translate(176)">
  <path id="path70" class="ColorScheme-Text" transform="translate(-25 -95)" d="M28 98.002V114h9v1h8v-10h-1v-6.998zM29 99h14v6h-7.764l.666-3H40v-1h-9v1h3.877l-.666 3H32v1h1.988l-.888 4H31v1h6v2h-8zm6.014 7H37v4h-2.877zM39 107h.5c.75 0 1.532-.017 2.22.213.345.115.677.305.917.613S43 108.542 43 109c0 .458-.124.866-.363 1.174-.24.308-.572.498-.916.613-.534.178-1.134.16-1.721.164V113h-1zm1 1.043v1.914c.528-.012 1.083-.012 1.404-.12.218-.072.355-.163.444-.276.088-.114.152-.27.152-.561 0-.292-.064-.447-.152-.56-.089-.114-.226-.205-.444-.278-.321-.107-.876-.107-1.404-.119z" fill="currentColor"/>
  <path id="path72" d="M0 0h22v22H0z" fill="none"/>
 </g>
 <g id="fcitx-quanpin-libpinyin" transform="translate(22 22)">
  <path id="path75" class="ColorScheme-Text" transform="translate(25.5 18)" d="M-22.5-15V1h16v-16h-16zm7.51 1.902l.98.196c-.01.05-.034.096-.047.146 1.877 2.29 5.733 3.787 5.733 3.787l-.352.938s-.808-.322-1.824-.838V-8H-14v2h2.5v1H-14v3h4.5v1h-10v-1h4.5v-3h-2.5v-1h2.5v-2h-3.5v-.824c-1.029.501-1.83.795-1.83.795l-.34-.942s1.341-.489 2.736-1.277c1.396-.789 2.758-1.92 2.944-2.85zm.49 1.33c-.668.997-1.846 1.772-2.941 2.391-.248.14-.484.256-.721.377h7.396c-1.191-.63-2.618-1.553-3.734-2.768z" fill="currentColor"/>
  <path id="path77" d="M0 0h22v22H0z" fill="none"/>
 </g>
 <g id="fcitx-bopomofo" transform="translate(66)">
  <path id="path80" d="M0 0h22v22H0z" fill="none" fill-rule="evenodd"/>
  <path id="path82" class="ColorScheme-Text" transform="translate(-88 -34)" d="M91 37v16h16V37H91zm1 1h14v14H92V38zm7.3.6l-.6.8 2 1.5.6-.8-2-1.5zm-5.946.046l-.708.708 2 2 .708-.708-2-2zM96 41v1h4v3h-3v1h3v4h-4v1h9v-1h-4v-4h3v-1h-3v-3h4v-1h-9zm-2.646.646l-.708.708 2 2 .708-.708-2-2zm1.171 3.196l-2 6 .95.316 2-6-.95-.316z" fill="currentColor"/>
 </g>
 <g id="fcitx-chewing" transform="translate(88)">
  <path id="path85" class="ColorScheme-Text" transform="translate(-88 -34)" d="M91 37v16h16V37H91zm1 1h14v14H92V38zm1 1v1h1v3h-1v8h6v-8h-2v-3h2v-1h-6zm6 4l.4.3s.399-.51.797-1.3H102v2h-2v1h5v-1h-2v-2h2v-1h-2v-2h-1v2h-1.383c.218-.611.383-1.291.383-2h-1c0 1.75-1.4 3.7-1.4 3.7l.4.3zm-4-3h1v3h-1v-3zm0 4h1v3h1v-3h1v6h-4v-1h3v-1h-3v-1h1v-3zm5 2v5h5v-5h-5zm1 1h3v3h-3v-3z" fill="currentColor"/>
  <path id="path87" d="M0 0h22v22H0z" fill="none"/>
 </g>
 <g id="fcitx-chewing-libpinyin" transform="translate(88 22)">
  <path id="path90" class="ColorScheme-Text" transform="translate(-88 -34)" d="M91 37v16h16V37H91zm2 2h6v1h-2v3h2l-.4-.3s1.4-1.95 1.4-3.7h1c0 .709-.165 1.389-.383 2H102v-2h1v2h2v1h-2v2h2v1h-5v-1h2v-2h-1.803c-.398.79-.797 1.3-.797 1.3L99 43v8h-6v-8h1v-3h-1v-1zm2 1v3h1v-3h-1zm0 4v3h-1v1h3v1h-3v1h4v-6h-1v3h-1v-3h-1zm5 2h5v5h-5v-5zm1 1v3h3v-3h-3z" fill="currentColor"/>
  <path id="path92" d="M0 0h22v22H0z" fill="none"/>
 </g>
 <g id="fcitx-rime" transform="translate(110)">
  <path id="path95" class="ColorScheme-Text" transform="translate(-110 -12)" d="M113 15v16h16V15h-16zm1 1h14v14h-14V16zm6 1v6.982c-1.811-.081-2.72-.606-3.262-1.492-.59-.965-.738-2.51-.738-4.49h-1c0 2.02.102 3.725.887 5.01.726 1.189 2.063 1.874 4.113 1.97V28h-5v1h11v-1h-5v-3.02c2.05-.096 3.387-.781 4.113-1.97.785-1.285.887-2.99.887-5.01h-1c0 1.98-.148 3.525-.738 4.49-.541.886-1.451 1.41-3.262 1.492V17h-1z" fill="currentColor"/>
  <path id="path97" d="M0 0h22v22H0z" fill="none"/>
 </g>
 <g id="fcitx-unikey" transform="translate(0 -60)">
  <path id="path100" d="M0 170h22v22H0z" fill="none"/>
  <path id="path102" class="ColorScheme-Text" transform="translate(0 48)" d="M4 126v8h3v7h8v-7h3v-8h-7zm1 1h6v6H5zm7 0h5v6h-5zm-6 1v1.5c0 .806.123 1.423.484 1.875.362.452.933.625 1.516.625s1.154-.173 1.516-.625c.361-.452.484-1.07.484-1.875V128H9v1.5c0 .694-.127 1.077-.266 1.25-.138.173-.317.25-.734.25s-.596-.077-.734-.25c-.139-.173-.266-.556-.266-1.25V128zm8 0v4h1v-4zm-6 6h6v6H8zm2 1H9v4h1v-2.498L12 139h1v-4h-1v2.498z" fill="currentColor"/>
 </g>
 <g id="fcitx-anthy" transform="translate(0 -104)">
  <path id="path105" d="M0 170h22v22H0z" fill="none"/>
  <path id="path107" class="ColorScheme-Text" d="M11 173c-1.099 0-2 .901-2 2v.002c.001.609.333 1.122.795 1.496-.145.976-.373 2.233-.77 3.256-.211.546-.467 1.014-.734 1.316-.267.302-.507.43-.791.43-.298 0-.54-.111-.793-.348-.253-.236-.495-.6-.701-1.037-.38-.804-.608-1.815-.762-2.644.44-.375.756-.88.756-1.471 0-1.099-.901-2-2-2s-2 .901-2 2c.001.821.564 1.455 1.299 1.758L5.08 188h11.84l1.781-10.24c.736-.303 1.3-.938 1.299-1.76 0-1.099-.901-2-2-2s-2 .901-2 2c0 .592.316 1.096.756 1.47-.154.83-.382 1.841-.762 2.645-.206.436-.448.801-.701 1.037-.254.237-.495.348-.793.348-.284 0-.524-.128-.791-.43-.267-.301-.523-.77-.734-1.316-.397-1.022-.625-2.278-.77-3.254.462-.374.795-.89.795-1.5 0-1.099-.901-2-2-2zm0 1c.558 0 1 .442 1 1 0 .384-.218.73-.563.898l-.326.159.05.361c.144 1.034.406 2.47.882 3.697.238.614.527 1.178.918 1.62.39.44.92.765 1.539.765.575 0 1.085-.252 1.475-.615.39-.363.683-.834.923-1.344.404-.855.596-1.788.76-2.615L16.08 187H5.92l-1.576-9.072c.164.827.355 1.76.758 2.613.24.51.534.98.923 1.344.39.363.9.615 1.475.615.619 0 1.15-.326 1.541-.768.39-.44.68-1.003.918-1.617.476-1.227.736-2.665.88-3.699l.05-.361-.326-.159A1 1 0 0 1 10 175v-.002a.992.992 0 0 1 1-.998zm-7 1c.558 0 1 .442 1 1a.995.995 0 0 1-.541.887l-.293.152-.328-.055A.993.993 0 0 1 3 176c0-.558.442-1 1-1zm14 0c.558 0 1 .442 1 1 0 .493-.35.907-.838.986l-.326.055-.295-.154A.995.995 0 0 1 17 176c0-.558.442-1 1-1z" fill="currentColor"/>
 </g>
 <g id="fcitx-libkkc" transform="translate(22 -104)">
  <path id="path110" d="M0 170h22v22H0z" fill="none"/>
  <path id="path112" class="ColorScheme-Text" transform="translate(-22 92)" d="M25 81v16h16V81H25zm1 1h14v14H26V82zm1 3v8h1v-2.293L30.293 93H32v-2.293L34.293 93h1.414l-3-3 3-3h-1.414L32 89.293V85h-1v2h-.707L28 89.293V85h-1zm10 2c-.583 0-1.11.154-1.479.521-.367.368-.521.896-.521 1.479v2c0 .583.154 1.11.521 1.479.368.367.896.521 1.479.521.583 0 1.11-.154 1.479-.521.367-.368.521-.896.521-1.479h-1c0 .417-.096.64-.229.771-.132.133-.354.229-.771.229-.417 0-.64-.096-.771-.229C36.096 91.64 36 91.417 36 91v-2c0-.417.096-.64.229-.771.132-.133.354-.229.771-.229.417 0 .64.096.771.229.133.132.229.354.229.771h1c0-.583-.154-1.11-.521-1.479C38.11 87.154 37.583 87 37 87zm-6 .707v4.586L28.707 90 31 87.707z" fill="currentColor"/>
 </g>
 <g id="fcitx-libskk" transform="translate(44.021 -103.98)">
  <path id="path115" d="M0 170h22v22H0z" fill="none"/>
  <path id="path117" class="ColorScheme-Text" transform="translate(-44.021 91.979)" d="M47.021 81.021v16h16v-16h-16zm1 1h14v14h-14v-14zM53 85v8h1v-2.293L56.293 93H58v-2.293L60.293 93h1.414l-3-3 3-3h-1.414L58 89.293V85h-1v2h-.707L54 89.293V85h-1zm0 6c0-.583-.154-1.11-.521-1.479C52.11 89.154 51.583 89 51 89c-.417 0-.64-.096-.771-.229C50.096 88.64 50 88.417 50 88c0-.417.096-.64.229-.771.132-.133.354-.229.771-.229.417 0 .64.096.771.229.133.132.229.354.229.771h1c0-.583-.154-1.11-.521-1.479C52.11 86.154 51.583 86 51 86c-.583 0-1.11.154-1.479.521-.367.368-.521.896-.521 1.479 0 .583.154 1.11.521 1.479.368.367.896.521 1.479.521.417 0 .64.096.771.229.133.132.229.354.229.771 0 .417-.096.64-.229.771-.132.133-.354.229-.771.229-.417 0-.64-.096-.771-.229C50.096 91.64 50 91.417 50 91h-1c0 .583.154 1.11.521 1.479.368.367.896.521 1.479.521.583 0 1.11-.154 1.479-.521.367-.368.521-.896.521-1.479zm4-3.293v4.586L54.707 90 57 87.707z" fill="currentColor"/>
 </g>
 <g id="fcitx-hangul" transform="translate(0 -82)">
  <path id="path120" d="M0 170h22v22H0z" fill="none"/>
  <path id="path122" class="ColorScheme-Text" transform="translate(0 70)" d="M3 103v16h16v-16H3zm1 1h14v14H4v-14zm4 1v1h2v-1H8zm6 1v8h1v-4h2v-1h-2v-3h-1zm-8 1v1h6v-1H6zm3 2c-1.597 0-3 1.058-3 2.5s1.403 2.5 3 2.5 3-1.058 3-2.5-1.403-2.5-3-2.5zm0 1c1.165 0 2 .733 2 1.5s-.835 1.5-2 1.5-2-.733-2-1.5.835-1.5 2-1.5zm-1 5v2h8v-1H9v-1H8z" fill="currentColor"/>
 </g>
 <g id="fcitx-fullwidth-active" transform="translate(132 -82)">
  <path id="path125" d="M0 170h22v22H0z" fill="none"/>
  <ellipse id="ellipse127" class="ColorScheme-Text" cx="11" cy="181" rx="8" ry="8" fill="currentColor"/>
 </g>
 <g id="fcitx-fullwidth-inactive" transform="translate(154 -82)">
  <path id="path130" d="M0 170h22v22H0z" fill="none"/>
  <path id="path132" class="ColorScheme-Text" transform="translate(-154 82)" d="M167.566 91.432A8 8 0 0 1 168 94a8 8 0 0 1-8 8 8 8 0 0 1-2.566-.432A8 8 0 0 0 165 107a8 8 0 0 0 8-8 8 8 0 0 0-5.434-7.568z" fill="currentColor"/>
 </g>
 <g id="fcitx-punc-inactive" transform="translate(154 -60)">
  <path id="path135" d="M0 170h22v22H0z" fill="none"/>
  <circle id="circle137" class="ColorScheme-Text" cx="7.5" cy="180.5" r="1.5" fill="currentColor"/>
  <path id="path139" class="ColorScheme-Text" d="M14.5 179a1.5 1.5 0 0 0-1.5 1.5 1.5 1.5 0 0 0 1.5 1.5 1.5 1.5 0 0 0 .047-.002c-.533.94-1.348 1.602-1.348 1.602l.602.8s1.967-1.426 2.162-3.572A1.5 1.5 0 0 0 16 180.5a1.5 1.5 0 0 0-1.5-1.5z" fill="currentColor"/>
 </g>
 <g id="fcitx-punc-active" transform="translate(132 -60)">
  <path id="path142" class="ColorScheme-Text" d="M7.5 178a2.508 2.508 0 0 0-2.5 2.5c0 1.375 1.125 2.5 2.5 2.5s2.5-1.125 2.5-2.5-1.125-2.5-2.5-2.5zm0 1c.834 0 1.5.666 1.5 1.5s-.666 1.5-1.5 1.5-1.5-.666-1.5-1.5.666-1.5 1.5-1.5z" fill="currentColor"/>
  <path id="path144" d="M0 170h22v22H0z" fill="none"/>
  <path id="path146" class="ColorScheme-Text" transform="translate(-198 82)" d="M212.5 96a2.508 2.508 0 0 0-2.5 2.5c0 1.375 1.125 2.5 2.5 2.5.365 0 .71-.084 1.023-.227a3.874 3.874 0 0 1-1.306 1.502c-.895.616-1.78.729-1.78.729l.125.992s1.116-.137 2.221-.896c1.105-.76 2.217-2.202 2.217-4.6 0-1.375-1.125-2.5-2.5-2.5zm0 1c.834 0 1.5.666 1.5 1.5s-.666 1.5-1.5 1.5-1.5-.666-1.5-1.5.666-1.5 1.5-1.5z" fill="currentColor"/>
 </g>
 <g id="fcitx-chttrans-inactive" transform="translate(132 -38)">
  <path id="path149" d="M0 170h22v22H0z" fill="none"/>
  <path id="path151" class="ColorScheme-Text" transform="translate(-132 60)" d="M138.81 113.406c-.507 1.367-1.347 2.598-2.519 3.692l.996.761c.195-.039.742-.722 1.64-2.05h.762c.43.625.801 1.27 1.114 1.933l1.172-.644-.938-1.29h2.05v-1.113h-3.632l.469-.937-1.113-.352zm6.036 0c-.47 1.328-1.27 2.54-2.403 3.633l.996.762c.665-.625 1.172-1.29 1.524-1.992h.996c.43.586.8 1.21 1.113 1.875l1.055-.645c-.273-.43-.566-.84-.879-1.23h2.461v-1.114h-4.16c.156-.312.293-.625.41-.937l-1.113-.352zm-5.45 4.102l-.996.586c.547.547.957 1.094 1.23 1.64l1.114-.586a7.528 7.528 0 0 0-1.348-1.64zm1.993.527v.996h6.386v6.035c0 .547-.136.82-.41.82-.39 0-.898-.019-1.523-.058l.293 1.113c.547.04 1.015.059 1.406.059.469 0 .82-.137 1.055-.41.234-.274.351-.664.351-1.172v-7.383h-7.558zm-3.985 1.582V127h1.172v-7.383h-1.172zm2.871.645v5.039h5.391v-5.04h-5.39zm1.114.996h3.164v.996h-3.164v-.996zm0 1.933h3.164v1.114h-3.164v-1.114zM135 128v1h16v-1h-16z" fill="currentColor"/>
 </g>
 <g id="fcitx-chttrans-active" transform="translate(154 -38)">
  <path id="path154" d="M0 170h22v22H0z" fill="none"/>
  <path id="path156" class="ColorScheme-Text" transform="translate(-154 60)" d="M160.02 113.465c-.313.703-.899 1.387-1.758 2.05l.82.645c.39-.273.762-.644 1.113-1.113h5.45v-.879h-4.864c.04-.117.098-.254.176-.41l-.937-.293zm7.148 0a9.114 9.114 0 0 1-1.875 3.34l.703.761.586-.703a6.784 6.784 0 0 0 1.23 1.524c-.625.508-1.367.957-2.226 1.347l.82.88a14.66 14.66 0 0 0 2.227-1.466 14.006 14.006 0 0 0 2.344 1.465l.761-.937c-.937-.39-1.738-.82-2.402-1.29a6.443 6.443 0 0 0 1.406-2.519h.82v-.996h-3.867l.47-1.113-.997-.293zm-7.266 2.285l-.351 1.7h-1.172v.937h.996l-.352 1.758h4.395v.351h.996l.059-.351H165v-.88h-.469l.117-.878h.938v-.938h-.82l.234-1.699h-5.098zm7.325.117h2.402c-.195.664-.547 1.29-1.055 1.875a10.674 10.674 0 0 1-1.406-1.758c.04-.039.059-.078.059-.117zm-6.446.703h.762c.195.235.39.528.586.88h-1.524l.176-.88zm1.7 0h1.464l-.117.88h-.762l-.586-.88zm-1.993 1.817h.762c.195.234.41.527.645.879h-1.583l.176-.88zm1.758 0h1.465l-.176.879h-.762a6.542 6.542 0 0 0-.527-.88zm5.684 1.933c-1.25.742-2.11 1.153-2.578 1.23-.704.118-1.954.196-3.75.235a8.109 8.109 0 0 0 1.875-.879l-.762-.527c-.781.547-1.758.976-2.93 1.289l.117.82c1.172 0 2.364-.039 3.575-.117-1.25.469-2.774.879-4.57 1.23l.175.938c1.758 0 3.535-.059 5.332-.176v1.23c0 .313-.117.47-.351.47-.43 0-.86-.06-1.29-.176l.176 1.054c.352.079.723.118 1.114.118.625 0 1.035-.098 1.23-.293.195-.196.293-.528.293-.996v-1.524a69.146 69.146 0 0 0 3.984-.469c.313.313.586.645.82.996l1.114-.527a14.92 14.92 0 0 0-2.813-2.578l-1.054.469c.43.273.82.586 1.172.937-1.563.313-3.965.528-7.207.645 2.617-.586 5.039-1.504 7.265-2.754l-.937-.645zm-.88 4.278l-.468.937c1.29.313 2.578.742 3.867 1.29l.469-.997c-1.211-.469-2.5-.879-3.867-1.23zm-4.687.117c-1.133.469-2.383.84-3.75 1.113l.703.996c1.485-.39 2.754-.898 3.809-1.523l-.762-.586zM157 128v1h16v-1h-16z" fill="currentColor"/>
 </g>
 <g id="fcitx-remind-active">
  <path id="path159" class="ColorScheme-Text" d="M209 91c-3.308 0-6 2.692-6 6a.5.5 0 0 0 .002.057c.014 2.321.86 3.509 1.62 4.394.764.893 1.378 1.442 1.378 3.049v2.5h2v1h2v-1h2v-2.5c0-1.607.634-2.304 1.39-3.25.75-.936 1.589-2.104 1.606-4.188A.5.5 0 0 0 215 97c0-3.308-2.692-6-6-6zm0 1c2.767 0 5 2.233 5 5 0 1.875-.647 2.696-1.39 3.625-.663.828-1.337 1.843-1.495 3.375h-4.234c-.164-1.504-.85-2.44-1.502-3.201-.735-.857-1.379-1.66-1.379-3.799 0-2.767 2.233-5 5-5zm-1.854 5.146l-1.5 1.5.708.708 1.146-1.147 1.146 1.147h.708l1.146-1.147 1.146 1.147.708-.708-1.5-1.5h-.708L209 98.293l-1.146-1.147h-.708z" fill="currentColor"/>
  <path id="path161" d="m198 88h22v22h-22z" fill="none"/>
  <ellipse id="ellipse163" cx="202.5" cy="92.5" rx="2.5" ry="2.5" fill="#11d116" stroke-linecap="round"/>
 </g>
 <g id="fcitx-remind-inactive" transform="translate(22)">
  <path id="path166" d="m198 88h22v22h-22z" fill="none"/>
  <path id="path168" class="ColorScheme-Text" d="M209 91c-3.308 0-6 2.692-6 6a.5.5 0 0 0 .002.057c.014 2.321.86 3.509 1.62 4.394.764.893 1.378 1.442 1.378 3.049v2.5h2v1h2v-1h2v-2.5c0-1.607.634-2.304 1.39-3.25.75-.936 1.589-2.104 1.606-4.187A.5.5 0 0 0 215 97c0-3.308-2.692-6-6-6zm0 1c2.767 0 5 2.233 5 5 0 1.875-.647 2.696-1.39 3.625-.663.828-1.337 1.843-1.495 3.375h-4.234c-.164-1.504-.85-2.44-1.502-3.201-.735-.857-1.379-1.66-1.379-3.799 0-2.767 2.233-5 5-5zm-1.854 5.146l-1.5 1.5.708.708 1.146-1.147 1.146 1.147h.708l1.146-1.147 1.146 1.147.708-.708-1.5-1.5h-.708L209 98.293l-1.146-1.147h-.708z" fill="currentColor"/>
 </g>
 <g id="fcitx-handwriting-active">
  <path id="path171" class="ColorScheme-Text" d="M213.137 112.568l-3.272 12.207 1.07 3.739 2.795-2.703 3.27-12.207-.482-.131-3.381-.905zm.707 1.223l1.931.518-.26.968-1.931-.52.26-.966zm-.518 1.934l1.932.517-2.422 9.043-1.397 1.352-.535-1.87 2.422-9.042zm-11.004 3.726a5.65 5.65 0 0 0-.644.057.5.5 0 1 0 .136.992c.42-.058.71-.056.872-.03.16.027.164.058.152.042-.012-.017.006-.01-.006.092a2.344 2.344 0 0 1-.125.45c-.134.374-.351.824-.41 1.327-.03.251-.015.54.133.806.147.268.42.468.738.575.153.05.213.04.309.045.095.004.2.005.316.005.231 0 .504-.003.758.004.032.001.047.006.078.008-.09.056-.146.098-.252.158-.533.301-1.218.645-1.781 1.022-.282.188-.536.383-.737.621-.2.238-.37.576-.287.95.083.372.37.631.73.825.361.195.834.352 1.481.498 1.051.238 2.36.169 3.543.221 1.183.052 2.169.26 2.553.703a.5.5 0 1 0 .754-.656c-.756-.871-2.016-.992-3.262-1.047-1.246-.055-2.55-.01-3.367-.195-.596-.135-1-.28-1.227-.403-.227-.122-.235-.195-.228-.162.007.033-.019.023.076-.09a2.75 2.75 0 0 1 .527-.433c.482-.322 1.152-.663 1.717-.982a6.18 6.18 0 0 0 .752-.479c.214-.166.466-.33.477-.752.006-.246-.165-.47-.305-.564a1.105 1.105 0 0 0-.397-.16 4.22 4.22 0 0 0-.818-.083c-.282-.008-.562-.004-.783-.004-.11 0-.206 0-.272-.003a.45.45 0 0 1-.064-.008c.012.004.013.007.027.011-.05-.016-.047-.015-.027-.011-.114-.043-.142-.077-.154-.098-.013-.023-.03-.08-.016-.205.03-.25.206-.675.36-1.105.076-.216.148-.436.175-.678.028-.242.006-.535-.176-.787-.181-.252-.478-.39-.798-.444a2.832 2.832 0 0 0-.528-.033z" fill="currentColor"/>
  <g id="g179" stroke-linecap="round">
   <path id="path173" d="m198 110h22v22h-22z" fill="none"/>
   <path id="path175" d="m198 110h22v22h-22z" fill="none"/>
   <ellipse id="ellipse177" cx="202.5" cy="114.5" rx="2.5" ry="2.5" fill="#11d116"/>
  </g>
 </g>
 <g id="fcitx-handwriting-inactive" transform="translate(22)">
  <path id="path182" class="ColorScheme-Text" transform="translate(-22)" d="M235.137 112.568l-3.272 12.207 1.07 3.739 2.795-2.703 3.27-12.207-.482-.131-3.381-.905zm.707 1.223l1.931.518-.26.968-1.931-.52.26-.966zm-.518 1.934l1.932.517-2.422 9.043-1.397 1.352-.535-1.87 2.422-9.042zm-11.004 3.726a5.65 5.65 0 0 0-.644.057.5.5 0 0 0 .115.994.5.5 0 0 0 .021-.002c.42-.058.71-.056.872-.03.16.027.164.058.152.042-.012-.017.006-.01-.006.092a2.344 2.344 0 0 1-.125.45c-.134.374-.351.824-.41 1.327-.03.251-.015.54.133.806.147.268.42.468.738.575.153.05.213.04.309.045.095.004.2.005.316.005.231 0 .504-.003.758.004.032.001.047.006.078.008-.09.056-.146.098-.252.158-.533.301-1.218.645-1.781 1.022-.282.188-.536.383-.737.621-.2.238-.37.576-.287.95.083.372.37.631.73.825.361.195.834.352 1.481.498 1.051.238 2.36.169 3.543.221 1.183.052 2.169.26 2.553.703a.5.5 0 1 0 .754-.656c-.756-.871-2.016-.992-3.262-1.047-1.246-.055-2.55-.01-3.367-.195-.596-.135-1-.28-1.227-.403-.227-.122-.235-.195-.228-.162.007.033-.019.023.076-.09a2.75 2.75 0 0 1 .527-.433c.482-.322 1.152-.663 1.717-.982a6.18 6.18 0 0 0 .752-.479c.214-.166.466-.33.477-.752.006-.246-.165-.47-.305-.564a1.105 1.105 0 0 0-.397-.16 4.22 4.22 0 0 0-.818-.083c-.282-.008-.562-.004-.783-.004-.11 0-.206 0-.272-.003a.45.45 0 0 1-.064-.008c.012.004.013.007.027.011-.05-.016-.047-.015-.027-.011-.114-.043-.142-.077-.154-.098-.013-.023-.03-.08-.016-.205.03-.25.206-.675.36-1.105.076-.216.148-.436.175-.678.028-.242.006-.535-.176-.787-.181-.252-.478-.39-.798-.444a2.832 2.832 0 0 0-.528-.033z" fill="currentColor"/>
  <path id="path184" d="m198 110h22v22h-22z" fill="none" stroke-linecap="round"/>
  <path id="path186" d="m198 110h22v22h-22z" fill="none" stroke-linecap="round"/>
 </g>
 <g id="fcitx" transform="translate(132 88)">
  <path id="path189" d="M0-22h22V0H0z" fill="none"/>
  <path id="path191" class="ColorScheme-Text" d="M9.57-19c-.937-.017-1.837.536-2.184 1.438-.414 1.077-.296 2.244-.279 3.368.006.364-.092.696-.24 1.009a3.431 3.431 0 0 1-.21.223c-.736.813-2.565 2.95-1.983 5.14-.146.064-.317.072-.503.093-.219.026-.463.082-.657.312-.173.2-.199.474-.219.732-.02.259-.035.506-.125.659-.263.408-.352.709-.293.955.06.246.266.4.515.519.497.238 1.217.381 1.71.824h.001c.525.465 1.106.724 1.614.728.423.003.796-.187 1.01-.571.19.034.387.03.587-.027a4.355 4.355 0 0 1 2.08-.06c.413.086.826.054 1.218-.065.167.316.45.53.793.623.496.133 1.11.025 1.697-.333h.001c.57-.354 1.3-.323 1.827-.437.264-.057.495-.161.59-.396.095-.235.05-.556-.148-1.038-.067-.167-.04-.416-.011-.678.028-.262.055-.543-.08-.777-.148-.268-.379-.372-.59-.442-.212-.07-.406-.115-.548-.253-.156-.16-.309-.375-.503-.546l-.005-.005c-.008-.3-.057-.609-.137-.917.426-.566.858-1.2 1.179-1.818h.003l.24-.034-.063-.3.038-.03.786-1.478c.43.022.9-.187 1.176-.686a25.336 25.336 0 0 1 1.283-2.058c-1.886.269-3.349.242-3.43 1.686-.008.164.017.31.066.44l-1.087 1.274-.01.042-.334.053.1.236c-.24.282-.472.595-.69.918-.055-.097-.11-.193-.167-.286-.318-.648-.731-1.248-1.137-1.842-.487-.716-.575-1.59-.583-2.462-.016-1.813-.21-3.693-2.298-3.733zm.895 2.267c.165-.01.334.074.461.251.127.178.21.514.21.706.002.261-.092.523-.198.714a.692.692 0 0 1-.096.13l-.262-.152-.06-.035a.326.594 8.727 0 0 .227-.475.326.594 8.727 0 0-.262-.63.326.594 8.727 0 0-.386.547.326.594 8.727 0 0 .002.293.98.98 0 0 0-.179-.058l-.057-.01a1.439 1.439 0 0 1-.04-.25c-.014-.26.039-.427.145-.618.106-.191.33-.403.495-.413zm-2.14.161a.93.707 82.237 0 1 .03.001.93.707 82.237 0 1 .72.806.93.707 82.237 0 1-.053.57 2.028 2.028 0 0 0-.117.092 1.173 1.173 0 0 1-.26.16.553.348 80.266 0 0 .16-.593.553.348 80.266 0 0-.384-.473.553.348 80.266 0 0-.295.623.553.348 80.266 0 0 .477.464c-.07.036-.15.077-.254.14-.024.013-.045.028-.066.043a.93.707 82.237 0 1-.601-.786.93.707 82.237 0 1 .644-1.047zm1.384 1.208a.811.811 0 0 1 .192.018c.24.052.413.202.52.283.02.015.046.028.11.065l.3.173a.292.292 0 0 1 .152.322c-.023.139-.13.308-.342.468h-.001c-.13.104-.213.23-.313.336a.712.712 0 0 1-.418.23.976.976 0 0 1-.594-.078c-.168-.072-.314-.167-.472-.198-.325-.06-.572-.233-.666-.417a.353.353 0 0 1-.04-.214c.06.01.138.042.23.088.11.056.24.132.383.206.284.15.618.297.96.28.34-.017.603-.192.791-.36.094-.085.17-.168.228-.229.029-.03.054-.056.072-.072.02-.016.034-.02.028-.02l-.004-.074c-.031.001-.05.018-.072.038-.023.02-.048.046-.078.077-.058.062-.132.143-.223.224-.181.163-.428.326-.746.342-.318.016-.641-.124-.922-.271-.14-.074-.27-.149-.384-.206a.94.94 0 0 0-.243-.094.52.52 0 0 1 .241-.25H8.4c.286-.172.416-.198.57-.33.289-.247.534-.332.74-.337zm1.262 1.133c.036.087.067.18.088.285.188.98.396 1.585 1.344 3.2.098.247.172.423.256.628a3.772 3.772 0 0 0-.392-1.185c-.58-1.225-.002-.47.258.077.19.355.414.966.548 1.65A23.216 23.216 0 0 0 12.11-7.7a.743.743 0 0 0-.127.405c.002.087.031.17.077.242-.516.38-.54 1.126.002 1.396-.055.078-.107.153-.16.233a5.01 5.01 0 0 0-.216.355c-1.139.809-2.958.912-4.309-.557-.127-.276-.243-.539-.286-.741v-.001c-.098-.482-.2-.926-.35-1.285a2.491 2.491 0 0 0-.08-.17c.106-.25.158-.511.139-.67-.072-.423-.384-.509-1.086-.348-.596.144-.957.428-.808.858-.027.023-.054.043-.08.064-.198-.504.21-.837.896-1.006-.1-.931.444-1.876.962-2.491.015.02-.022.13-.155.402-.294.504-.582 1.325-.45 2.022.098-.013.191-.023.272-.023.047-.506.172-.983.386-1.367.409-.87 1.462-2.337 1.492-3.554.141.136.349.242.596.288.13.026.275.116.452.192.177.075.389.134.65.085a.827.827 0 0 0 .472-.26c.108-.114.188-.235.302-.325.118-.09.207-.182.27-.275zm5.077 1.411a.994.994 0 0 0 .182.12l-.69 1.299-.163.128c-.054-.028-.109-.052-.164-.094-.073-.055-.093-.104-.15-.167l.043-.182.942-1.104zm-1.33 1.62a2.1 2.1 0 0 0 .486.366c-.882 1.622-2.581 3.44-2.596 3.456-.104.09-.17.073-.172.075v-.002c0-.021.01-.082.067-.171l.01-.015.007-.016s1.037-2.277 2.198-3.693zm-.422 2.54zm-9.307.857c.238.421.753.772 1.163.595.158-.067.294-.217.4-.396l.012.025c.14.336.242.77.339 1.25.08.371.326.822.521 1.269.195.446.329.88.231 1.172v.002c-.153.491-.493.698-.936.695-.444-.003-.99-.239-1.49-.68-.545-.489-1.298-.635-1.755-.853-.228-.11-.37-.226-.41-.392-.041-.167.017-.42.268-.81l.001-.002v-.001c.128-.216.133-.488.153-.741.02-.254.052-.484.173-.623.155-.185.328-.222.534-.246.207-.024.443-.025.66-.162l.002-.001c.047-.032.09-.066.134-.101zm9.642.06c.125.134.245.29.376.424h.001l.001.002c.188.182.422.232.621.297.2.066.366.138.485.354v.001h.001c.095.165.083.404.055.662-.028.259-.072.532.024.77.19.464.21.74.148.895-.063.155-.213.23-.453.282-.481.103-1.254.066-1.888.46-.551.336-1.116.427-1.548.311-.431-.116-.736-.427-.8-.944v-.002c-.047-.312.15-.699.406-1.087.06-.092.124-.18.187-.271.264.065.62.04 1.071-.131.896-.513 1.264-1.234 1.313-2.023zm-1.187.116zm-.318.357l-.198.215.198-.215zm-1.02.28z" fill="currentColor"/>
 </g>
 <g id="fcitx-vk-active">
  <g id="g1050" transform="translate(22)">
   <path id="path1046" d="m154 66h22v22h-22z" fill="none"/>
   <path id="path1048" transform="translate(-22)" d="m182 70c-1.108 0-2 0.892-2 2v10c0 1.108 0.892 2 2 2h8.1758a3 3 0 0 1-0.17578-1 3 3 0 0 1 0.17383-1h-8.1738c-0.554 0-1-0.446-1-1v-9c0-0.554 0.446-1 1-1h10c0.554 0 1 0.446 1 1v8a3 3 0 0 1 1 0.17383v-8.1738c0-1.108-0.892-2-2-2h-10zm6.6562 4.9941c-0.79 0-1.5473 0.257-2.2793 0.75l0.37305 0.84961c0.312-0.21 0.61625-0.35975 0.90625-0.46875 0.298-0.116 0.57-0.15625 0.875-0.15625 0.449 0 0.79225 0.10375 1.0312 0.34375 0.24 0.232 0.4375 0.54875 0.4375 0.96875v0.30664c-0.21-0.08-0.52025-0.1435-0.78125-0.1875a4.015 4.015 0 0 0-0.78125-0.0625c-0.356 0-0.67175 0.038-0.96875 0.125-0.29 0.087-0.56425 0.215-0.78125 0.375-0.21 0.16-0.35275 0.3455-0.46875 0.5625-0.116 0.218-0.1875 0.54936-0.1875 0.81836 0 0.254 0.06225 0.50075 0.15625 0.71875 0.101 0.217 0.208 0.4025 0.375 0.5625 0.174 0.16 0.393 0.28 0.625 0.375 0.239 0.087 0.50525 0.125 0.78125 0.125a2.73 2.73 0 0 0 1.1875-0.25c0.377-0.181 0.6835-0.44825 0.9375-0.78125l0.03125 0.34375a0.743 0.743 0 0 0 0.21875 0.4375c0.11402 0.10104 0.27883 0.15917 0.48633 0.17969a3 3 0 0 1 0.63867-0.50586v-0.54883c-0.124-7e-3 -0.30352-0.03575-0.35352-0.09375a0.497 0.497 0 0 1-0.11523-0.3125v-2.1309c0-0.747-0.09625-1.3198-0.53125-1.7188s-1.0295-0.625-1.8125-0.625zm-0.15625 3.0703a1.67 1.67 0 0 1 0.06641 0c0.218 0 0.60703 0.04975 0.83203 0.09375 0.232 0.044 0.39856 0.10555 0.60156 0.18555v0.75c0 0.145-0.12925 0.3075-0.28125 0.4375-0.427 0.38-0.9395 0.42975-1.4375 0.46875-0.326 0-0.73336 0.017125-0.94336-0.17188-0.21-0.196-0.33789-0.42012-0.33789-0.70312 0-0.305 0.2945-0.569 0.5625-0.75a1.67 1.67 0 0 1 0.9375-0.31055z" color="#000000" fill="#dfdfdf"/>
  </g>
  <path id="path201" class="ColorScheme-PositiveText" d="m193 81a2 2 0 0 0-2 2 2 2 0 0 0 2 2 2 2 0 0 0 2-2 2 2 0 0 0-2-2z" fill="#11d116" stroke-width=".8"/>
 </g>
 <g id="fcitx-sogoupinyin" transform="translate(-3)">
  <path id="path211" d="m116 25v16h16v-16zm7.6211 2.002c0.44601-0.0075 0.89899 0.0031 1.25 0.03516 1.7636 0.167 3.299 0.716 4.623 1.666 0.445 0.31551 0.45401 0.2771-0.35352 1.2031-0.65752 0.75201-0.75745 0.81643-0.91992 0.77344-0.0415-0.0085-0.22931-0.09806-0.42382-0.20508-1.009-0.56451-2.1524-0.97253-3.043-1.082-0.47798-0.058-0.84756 0.01157-1.0391 0.20508-0.0975 0.097-0.13531 0.35405-0.0703 0.49805 0.11749 0.27051 0.57544 0.53012 1.793 1.0156 1.7425 0.69802 2.4676 1.0698 3.1836 1.6309 0.71352 0.56051 1.1568 1.224 1.3223 1.959 0.10017 0.45351 0.0638 1.202-0.0723 1.582-0.13852 0.39101-0.31829 0.66959-0.61328 0.99609-0.82503 0.91952-2.3919 1.5486-4.3144 1.7031-0.35099 0.026-1.3489 0.02349-1.6289 0-1.2285-0.105-1.883-0.22562-2.6641-0.51562-0.46551-0.1715-0.74325-0.30827-1.1562-0.55078-0.38052-0.2215-1.0728-0.73401-1.3203-0.97852-0.25057-0.24501-0.24531-0.31737 0.11719-0.67188 0.55701-0.54351 1.3124-1.2155 1.416-1.2715 0.13698-0.0735 0.17424-0.06277 0.63672 0.24023 0.45954 0.30301 1.0171 0.57594 1.5801 0.77344 0.79851 0.28551 1.3728 0.40761 2.0273 0.41211 0.35701 2e-3 0.42477-0.01944 0.61328-0.08594 0.283-0.103 0.40538-0.22189 0.42578-0.46289 0.0119-0.152-0.0188-0.21725-0.0957-0.34375-0.19698-0.31151-0.61836-0.56253-2.0039-1.1855-1.1555-0.52151-1.5566-0.72374-2.0762-1.0312-1.2235-0.72502-1.8725-1.4477-2.1465-2.3887-0.0823-0.26701-0.0556-0.96843 0.0234-1.2734 0.14401-0.50501 0.36194-0.8929 0.73047-1.2539 0.67301-0.66602 1.716-1.1247 3.0195-1.3242 0.29102-0.0435 0.73367-0.06026 1.1797-0.06836z" color="#dfdfdf" fill="currentColor"/>
  <path id="path213" d="m113 22h22v22h-22z" fill="none"/>
 </g>
 <g id="fcitx-sogouwubi">
  <path id="path216" d="m135 25v15.998h9v1h8v-10h-1v-6.998h-16zm1 0.99805h14v6h-7.7637l0.66601-3h4.0977v-1h-9v1h3.877l-0.66601 3h-2.2109v1h1.9883l-0.88867 4h-2.0996v1h6v2h-8v-14zm6.0137 7h1.9863v4h-2.877l0.89062-4zm5.7969 1.002c0.22329-0.00359 0.44975 0.001428 0.625 0.017578 0.88215 0.083531 1.6502 0.35882 2.3125 0.83398 0.22251 0.1578 0.22601 0.13836-0.17774 0.60156-0.32839 0.37611-0.37758 0.40825-0.45898 0.38672-0.02094-0.00425-0.11539-0.050286-0.21289-0.10352-0.50472-0.28233-1.0759-0.48598-1.5215-0.54102-0.23927-0.029009-0.42383 0.006736-0.51953 0.10352-0.0479 0.048569-0.06505 0.17603-0.03515 0.24805 0.05874 0.1353 0.28751 0.26497 0.89648 0.50781 0.87163 0.34913 1.2335 0.53582 1.5918 0.81641 0.35692 0.28036 0.57765 0.61285 0.66015 0.98047 0.0496 0.22683 0.03305 0.60092-0.03515 0.79102-0.06939 0.19553-0.1589 0.33475-0.30664 0.49805-0.41266 0.45997-1.1966 0.77428-2.1582 0.85156-0.17556 0.013159-0.67448 0.01196-0.81445 0-0.61447-0.052518-0.94339-0.11276-1.334-0.25781-0.23268-0.085774-0.37177-0.15409-0.57813-0.27539-0.19003-0.11078-0.53635-0.36791-0.66016-0.49023-0.12444-0.12256-0.12069-0.15865 0.06055-0.33594 0.27891-0.27187 0.65313-0.60666 0.70703-0.63476 0.06878-0.036786 0.08687-0.03243 0.31836 0.11914 0.2298 0.15157 0.5093 0.28791 0.79102 0.38672 0.39945 0.14284 0.68648 0.20473 1.0137 0.20703 0.17885 0.001199 0.21409-0.009469 0.30859-0.042969 0.14174-0.0515 0.19894-0.1119 0.21094-0.23242 6e-3 -0.076027-0.01097-0.1086-0.04687-0.17188-0.09858-0.15582-0.31091-0.28212-1.0039-0.59375-0.57823-0.26085-0.77751-0.36178-1.0371-0.51562-0.6119-0.36264-0.93725-0.72463-1.0742-1.1953-0.0418-0.13358-0.03008-0.48218 0.01172-0.63476 0.07178-0.25259 0.181-0.44833 0.36523-0.62891 0.33664-0.33316 0.85968-0.56234 1.5117-0.66211 0.14535-0.02154 0.36674-0.029203 0.58985-0.033203z" color="#dfdfdf" fill="currentColor"/>
  <path id="path218" d="m132 21.998h22v22h-22z" fill="none"/>
 </g>
 <g id="fcitx-kbd">
  <path id="path206" d="m154 66h22v22h-22z" fill="none"/>
  <path id="path2" d="m160 70c-1.108 0-2 0.892-2 2v10c0 1.108 0.892 2 2 2h10c1.108 0 2-0.892 2-2v-10c0-1.108-0.892-2-2-2zm0 1h10c0.554 0 1 0.446 1 1v9c0 0.554-0.446 1-1 1h-10c-0.554 0-1-0.446-1-1v-9c0-0.554 0.446-1 1-1zm6.656 3.994c-0.79 0-1.548 0.257-2.28 0.75l0.374 0.85c0.312-0.21 0.616-0.36 0.906-0.469 0.298-0.116 0.571-0.156 0.876-0.156 0.449 0 0.791 0.104 1.03 0.344 0.24 0.232 0.438 0.548 0.438 0.968v0.307c-0.21-0.08-0.52-0.144-0.781-0.188a4.015 4.015 0 0 0-0.781-0.062c-0.356 0-0.672 0.038-0.969 0.125-0.29 0.087-0.564 0.215-0.781 0.375-0.21 0.16-0.353 0.345-0.469 0.562-0.116 0.218-0.188 0.55-0.188 0.819 0 0.254 0.063 0.501 0.157 0.719 0.101 0.217 0.208 0.402 0.375 0.562 0.174 0.16 0.393 0.28 0.625 0.375 0.239 0.087 0.505 0.125 0.781 0.125a2.73 2.73 0 0 0 1.188-0.25c0.377-0.181 0.683-0.448 0.937-0.781l0.031 0.344a0.743 0.743 0 0 0 0.219 0.437c0.123 0.109 0.299 0.173 0.531 0.188 0.08 0 0.187 6e-3 0.281 0 0.102-8e-3 0.197-0.01 0.313-0.032v-1.031c-0.124-7e-3 -0.304-0.036-0.354-0.094a0.497 0.497 0 0 1-0.115-0.312v-2.131c0-0.747-0.096-1.32-0.531-1.719s-1.03-0.625-1.813-0.625zm-0.09 3.07c0.218 0 0.608 0.05 0.833 0.094 0.232 0.044 0.398 0.106 0.601 0.186v0.75c0 0.145-0.129 0.307-0.281 0.437-0.427 0.38-0.94 0.43-1.438 0.469-0.326 0-0.734 0.018-0.944-0.171-0.21-0.196-0.337-0.421-0.337-0.704 0-0.305 0.295-0.569 0.563-0.75a1.67 1.67 0 0 1 1.004-0.31z" color="#000000" fill="#dfdfdf" overflow="visible"/>
 </g>
 <g id="fcitx-vk-inactive" transform="translate(47)">
  <path id="path1066" d="m154 66h22v22h-22z" fill="none"/>
  <path id="path1068" d="m160 70c-1.108 0-2 0.892-2 2v10c0 1.108 0.892 2 2 2h10c1.108 0 2-0.892 2-2v-10c0-1.108-0.892-2-2-2zm0 1h10c0.554 0 1 0.446 1 1v9c0 0.554-0.446 1-1 1h-10c-0.554 0-1-0.446-1-1v-9c0-0.554 0.446-1 1-1z" color="#000000" fill="#dfdfdf" overflow="visible"/>
 </g>
</svg>
