<svg xmlns="http://www.w3.org/2000/svg" width="70" height="256" id="svg3869" version="1.1"><defs id="defs3871"><style type="text/css" id="current-color-scheme">.ColorScheme-Text{color:#dfdfdf}</style></defs><g transform="translate(-310 -300.362)" id="22-22-input-mouse-battery"><rect width="22" height="22" x="326" y="534.362" ry="0" id="rect8" opacity="1" fill="none"/><path class="ColorScheme-Text" d="M13.5 3C10.453 3 8 5.676 8 9v4c0 3.324 2.453 6 5.5 6s5.5-2.676 5.5-6V9c0-3.324-2.453-6-5.5-6zm0 1A4.49 4.49 0 0 1 18 8.5v5a4.49 4.49 0 0 1-4.5 4.5A4.49 4.49 0 0 1 9 13.5v-5A4.49 4.49 0 0 1 13.5 4zm0 2c-.277 0-.5.223-.5.5v2a.499.499 0 1 0 1 0v-2c0-.277-.223-.5-.5-.5z" transform="translate(326 534.362)" id="path10" fill="currentColor" fill-opacity="1" stroke="none"/><path class="ColorScheme-Text" d="M331 537.362l-2 5h2v3l2-5h-2z" id="path12" fill="currentColor" fill-opacity="1" stroke="none"/></g><g transform="translate(-332 -396.362)" id="22-22-input-keyboard-battery"><rect width="22" height="22" x="348" y="534.362" ry="0" id="rect15" opacity="1" fill="none"/><path class="ColorScheme-Text" d="M20 141v14l7 2 7-2v-5h-1v2H21v-10h8v-1h-9zm12 0l-2 5h2v3l2-5h-2v-3zm-5.563 3L24 150h1.074l.406-1h3.04l.406 1H30l-2.44-6h-.537l-.023.01-.023-.01h-.54zm.563 1.258L28.113 148h-2.226L27 145.258zM21 153h12v1H21v-1z" transform="translate(332 396.362)" id="path17" fill="currentColor" fill-opacity="1" stroke="none"/></g><g transform="translate(-354 -428.362)" id="22-22-input-keyboard-brightness"><rect ry="0" y="534.362" x="370" height="22" width="22" id="rect20" opacity="1" fill="none"/><path class="ColorScheme-Text" d="M20 109v14l7 2 7-2v-9h-1v6H21v-10h8v-1h-9zm12 0a2 2 0 1 0 0 4 2 2 0 0 0 0-4zm0 1v2a1 1 0 1 1 0-2zm-5.563 2L24 118h1.074l.406-1h3.04l.406 1H30l-2.44-6h-.537l-.023.01-.023-.01h-.54zm.563 1.258L28.113 116h-2.226L27 113.258zM21 121h12v1H21v-1z" transform="translate(354 428.362)" id="path4344" fill="currentColor" fill-opacity="1" stroke="none"/></g><g id="input-keyboard-battery" transform="translate(-332 -428.362)"><rect id="rect4378" width="32" height="32" x="370" y="556.362" ry="0" opacity="1" fill="none"/><path class="ColorScheme-Text" d="M44 132v20l10 4 10-4v-11h-1v8H45v-16h14v-1H44zm18 0l-2 5h2v3l2-5h-2v-3zm-8.594 4L49 146h1.3l1.323-3h4.723l1.35 3H59l-4.5-10h-1.094zm.553 1.695L55.896 142h-3.834l1.897-4.305zM45 150h18v1H45v-1z" transform="translate(332 428.362)" id="rect4223" fill="currentColor" fill-opacity="1" stroke="none"/></g><g id="input-keyboard-brightness" transform="translate(-364 -460.362)"><rect ry="0" y="556.362" x="402" height="32" width="32" id="rect4266" opacity="1" fill="none"/><path class="ColorScheme-Text" d="M44 100v20l10 4 10-4v-10h-1v7H45v-16h12v-1H44zm9.406 4L49 114h1.3l1.323-3h4.723l1.35 3H59l-4.5-10h-1.094zm.553 1.695L55.896 110h-3.834l1.897-4.305zM45 118h18v1H45v-1z" transform="translate(364 460.362)" id="path4270" fill="currentColor" fill-opacity="1" stroke="none"/><path class="ColorScheme-Text" d="M100 25c-.277 0-.5.223-.5.5v1a.499.499 0 1 0 1 0v-1c0-.277-.223-.5-.5-.5zm-3.182 1.318a.499.499 0 0 0-.354.854l.708.707a.499.499 0 1 0 .707-.707l-.707-.707a.498.498 0 0 0-.354-.147zm6.364 0a.498.498 0 0 0-.354.147l-.707.707a.499.499 0 1 0 .707.707l.707-.707a.499.499 0 0 0-.353-.854zM100 28a2 2 0 1 0 0 4 2 2 0 0 0 0-4zm0 1v2a1 1 0 1 1 0-2zm-4.5.5a.499.499 0 1 0 0 1h1a.499.499 0 1 0 0-1zm8 0a.499.499 0 1 0 0 1h1a.499.499 0 1 0 0-1zm-5.975 2.475a.498.498 0 0 0-.353.146l-.707.707a.499.499 0 1 0 .707.707l.707-.707a.499.499 0 0 0-.354-.853zm4.95 0a.499.499 0 0 0-.354.854l.707.706a.499.499 0 1 0 .707-.707l-.707-.707a.498.498 0 0 0-.353-.146zM100 33c-.277 0-.5.223-.5.5v1a.499.499 0 1 0 1 0v-1c0-.277-.223-.5-.5-.5z" transform="translate(326 534.362)" id="path4274" fill="currentColor" fill-opacity="1" stroke="none"/></g><g id="input-mouse-battery" transform="translate(-332 -332.362)"><path id="path26" class="ColorScheme-Text" d="M386 560.362a8 9 0 0 0-8 9v6a8 9 0 0 0 8 9 8 9 0 0 0 8-9v-6a8 9 0 0 0-8-9zm0 1a7 8 0 0 1 7 8v6a7 8 0 0 1-7 8 7 8 0 0 1-7-8v-6a7 8 0 0 1 7-8zm0 3a1 1 0 0 0-1 1v3a1 1 0 0 0 1 1 1 1 0 0 0 1-1v-3a1 1 0 0 0-1-1zm0 8l-2 5h2v3l2-5h-2z" fill="currentColor" fill-opacity="1" stroke="none"/><rect id="rect4378-6" width="32" height="32" x="370" y="556.362" ry="0" opacity="1" fill="none"/></g><g id="16-16-input-mouse-battery" transform="translate(-303 -297.362)"><path id="path4196" class="ColorScheme-Text" transform="translate(319 457.362)" d="M-8 82a4 4 0 0 0-4 4v4a4 4 0 0 0 4 4 4 4 0 0 0 4-4v-4a4 4 0 0 0-4-4zm0 1a3 3 0 0 1 3 3v4a3 3 0 0 1-3 3 3 3 0 0 1-3-3v-4a3 3 0 0 1 3-3zm0 1l-2 5h2v3l2-5h-2z" fill="currentColor" fill-opacity="1" stroke="none"/><path id="rect4442" opacity="1" fill="none" d="M303 537.362h16v16h-16z"/></g><g id="22-22-input-keyboard" transform="translate(16 10)"><path id="rect4147" fill="none" fill-rule="evenodd" stroke="none" stroke-width="1" stroke-linecap="butt" stroke-linejoin="miter" stroke-opacity="1" d="M0 0h22v22H0z"/><path id="path6" class="ColorScheme-Text" transform="translate(0 -1030.362)" d="M13 1033.362v2c0 .554-.446 1-1 1-1.108 0-2 .892-2 2H2v11h18v-11h-9c0-.554.446-1 1-1 1.108 0 2-.892 2-2v-2zm-10 6h16v1H3zm0 2h16v7H3zm1 1v1h2v-1zm3 0v1h2v-1zm3 0v1h2v-1zm3 0v1h2v-1zm3 0v1h2v-1zm-12 2v1h2v-1zm3 0v1h2v-1zm3 0v1h2v-1zm3 0v1h2v-1zm3 0v1h2v-1zm-12 2v1h2v-1zm3 0v1h8v-1zm9 0v1h2v-1z" fill="currentColor" fill-opacity="1" stroke="none"/></g><g transform="matrix(1.45455 0 0 1.45455 38 0)" id="input-keyboard"><path id="rect4196" fill="none" fill-rule="evenodd" stroke="none" stroke-width="1" stroke-linecap="butt" stroke-linejoin="miter" stroke-opacity="1" d="M0 0h22v22H0z"/><path class="ColorScheme-Text" d="M47-28c0 .84-.093 1.44-.248 1.846-.155.406-.348.62-.629.785C45.561-25.041 44.5-25 43-25c-1.5 0-2.936-.027-4.1.555a3.102 3.102 0 0 0-1.408 1.408c-.273.546-.425 1.222-.47 2.037H25v17h26v-17H38.021c.044-.685.171-1.207.362-1.588.235-.47.549-.758.967-.967C40.186-23.973 41.5-24 43-24s2.689.041 3.627-.506c.469-.273.838-.714 1.059-1.293.22-.578.314-1.29.314-2.201zm-21 8h24v2H26zm0 3h24v12H26zm1 2v2h1v-2zm2 0v2h2v-2zm3 0v2h2v-2zm3 0v2h2v-2zm3 0v2h2v-2zm3 0v2h2v-2zm3 0v2h2v-2zm3 0v2h2v-2zm-20 3v2h3v-2zm4 0v2h2v-2zm3 0v2h2v-2zm3 0v2h2v-2zm3 0v2h2v-2zm3 0v2h2v-2zm3 0v2h3v-2zM27-9v2h2v-2zm3 0v2h2v-2zm3 0v2h10v-2zm11 0v2h2v-2zm3 0v2h2v-2z" transform="matrix(.6875 0 0 .6875 -15.125 22)" id="path4285" fill="currentColor" fill-opacity="1" stroke="none"/></g><g id="22-22-input-keyboard-virtual-on" transform="translate(16 42)"><path id="path6-6" class="ColorScheme-Text" transform="translate(0 -1030.362)" d="M2 1038.362v11h18v-11zm1 1h16v1H3zm0 2h16v7H3zm1 1v1h2v-1zm3 0v1h2v-1zm3 0v1h2v-1zm3 0v1h2v-1zm3 0v1h2v-1zm-12 2v1h2v-1zm3 0v1h2v-1zm3 0v1h2v-1zm3 0v1h2v-1zm3 0v1h2v-1zm-12 2v1h2v-1zm3 0v1h8v-1zm9 0v1h2v-1z" fill="currentColor" fill-opacity="1" stroke="none"/><path id="path8" d="M4.5 2A2.5 2.5 0 0 0 2 4.5 2.5 2.5 0 0 0 4.5 7 2.5 2.5 0 0 0 7 4.5 2.5 2.5 0 0 0 4.5 2z" fill="#11d116" fill-opacity="1" stroke="none"/><path id="rect4140" fill="none" fill-opacity="1" stroke="none" stroke-linejoin="bevel" d="M0 0h22v22H0z"/></g><g transform="matrix(1.45455 0 0 1.45455 38 32)" id="input-keyboard-virtual-on"><path id="rect4192" fill="none" fill-rule="evenodd" stroke="none" stroke-width="1" stroke-linecap="butt" stroke-linejoin="miter" stroke-opacity="1" d="M0 0h22v22H0z"/><path transform="matrix(.6875 0 0 .6875 -15.125 22)" class="ColorScheme-Text" d="M25-21v17h26v-17zm1 1h24v2H26zm0 3h24v12H26zm1 2v2h1v-2zm2 0v2h2v-2zm3 0v2h2v-2zm3 0v2h2v-2zm3 0v2h2v-2zm3 0v2h2v-2zm3 0v2h2v-2zm3 0v2h2v-2zm-20 3v2h3v-2zm4 0v2h2v-2zm3 0v2h2v-2zm3 0v2h2v-2zm3 0v2h2v-2zm3 0v2h2v-2zm3 0v2h3v-2zM27-9v2h2v-2zm3 0v2h2v-2zm3 0v2h10v-2zm11 0v2h2v-2zm3 0v2h2v-2z" id="path4194" fill="currentColor" fill-opacity="1" stroke="none"/><path id="path8-9" d="M3.781 2.75a1.719 1.719 0 0 0-1.719 1.719 1.719 1.719 0 0 0 1.72 1.719A1.719 1.719 0 0 0 5.5 4.468 1.719 1.719 0 0 0 3.781 2.75z" fill="#11d116" fill-opacity="1" stroke="none"/></g><g transform="translate(16 74)" id="22-22-input-keyboard-virtual-off"><path d="M2 1038.362v11h18v-11zm1 1h16v1H3zm0 2h16v7H3zm1 1v1h2v-1zm3 0v1h2v-1zm3 0v1h2v-1zm3 0v1h2v-1zm3 0v1h2v-1zm-12 2v1h2v-1zm3 0v1h2v-1zm3 0v1h2v-1zm3 0v1h2v-1zm3 0v1h2v-1zm-12 2v1h2v-1zm3 0v1h8v-1zm9 0v1h2v-1z" transform="translate(0 -1030.362)" class="ColorScheme-Text" id="path4170" fill="currentColor" fill-opacity="1" stroke="none"/><path id="rect4172" fill="none" fill-opacity="1" stroke="none" stroke-linejoin="bevel" d="M0 0h22v22H0z"/></g><g transform="matrix(1.45455 0 0 1.45455 38 64)" id="input-keyboard-virtual-off"><path id="rect4176" fill="none" fill-rule="evenodd" stroke="none" stroke-width="1" stroke-linecap="butt" stroke-linejoin="miter" stroke-opacity="1" d="M0 0h22v22H0z"/><path transform="matrix(.6875 0 0 .6875 -15.125 22)" class="ColorScheme-Text" d="M25-21v17h26v-17zm1 1h24v2H26zm0 3h24v12H26zm1 2v2h1v-2zm2 0v2h2v-2zm3 0v2h2v-2zm3 0v2h2v-2zm3 0v2h2v-2zm3 0v2h2v-2zm3 0v2h2v-2zm3 0v2h2v-2zm-20 3v2h3v-2zm4 0v2h2v-2zm3 0v2h2v-2zm3 0v2h2v-2zm3 0v2h2v-2zm3 0v2h2v-2zm3 0v2h3v-2zM27-9v2h2v-2zm3 0v2h2v-2zm3 0v2h10v-2zm11 0v2h2v-2zm3 0v2h2v-2z" id="path4178" fill="currentColor" fill-opacity="1" stroke="none"/></g><g id="22-22-input-caps-on" transform="translate(59.241 23.259)"><path id="rect964" opacity=".001" fill="#000" fill-opacity="1" stroke="none" stroke-width=".491" stroke-linecap="round" stroke-linejoin="round" stroke-miterlimit="4" stroke-dasharray="none" stroke-opacity="1" d="M-43.241 146.741h22v22h-22z"/><path id="path870" d="M-39.241 149.741v14l7 2 7-2v-14zm1 1h12v10h-12zm5.437 2l-2.437 6h1.074l.406-1h3.04l.405 1h1.075l-2.44-6h-.537l-.023.01-.024-.01zm.563 1.258l1.113 2.742h-2.227zm-6 7.742h12v1h-12z" class="ColorScheme-Text" fill="currentColor" fill-opacity="1" stroke="none"/></g><g id="22-22-input-num-on" transform="translate(-8 85)"><path id="rect972" opacity=".001" fill="#000" fill-opacity="1" stroke="none" stroke-width=".491" stroke-linecap="round" stroke-linejoin="round" stroke-miterlimit="4" stroke-dasharray="none" stroke-opacity="1" d="M24 117h22v22H24z"/><path id="path879" d="M28 120v14l7 2 7-2v-14zm1 1h12v10H29zm6 2v1h-1v1h1v3h-1v1h3v-1h-1v-5zm-6 9h12v1H29z" class="ColorScheme-Text" fill="currentColor" fill-opacity="1" stroke="none"/></g><g id="input-caps-on" transform="translate(19 48)"><path id="rect978" opacity=".001" fill="#000" fill-opacity="1" stroke="none" stroke-width=".714" stroke-linecap="round" stroke-linejoin="round" stroke-miterlimit="4" stroke-dasharray="none" stroke-opacity="1" d="M19 112h32v32H19z"/><path id="path880" d="M25 116v20l10 4 10-4v-20h-1zm1 1h18v16H26zm8.406 3L30 130h1.3l1.323-3h4.723l1.35 3H40l-4.5-10zm.553 1.695L36.896 126h-3.834zM26 134h18v1H26z" class="ColorScheme-Text" fill="currentColor" fill-opacity="1" stroke="none"/></g><g id="input-num-on" transform="translate(19 80)"><path id="rect984" opacity=".001" fill="#000" fill-opacity="1" stroke="none" stroke-width=".714" stroke-linecap="round" stroke-linejoin="round" stroke-miterlimit="4" stroke-dasharray="none" stroke-opacity="1" d="M19 112h32v32H19z"/><path id="path896" d="M25 116v20l10 4 10-4v-20h-1zm1 1h18v16H26zm9 3v2h-2v1h2v6h-2v1h5v-1h-2v-9zm-9 14h18v1H26z" class="ColorScheme-Text" fill="currentColor" fill-opacity="1" stroke="none"/></g></svg>