<svg id="svg3869" width="70" height="256" version="1.1" xmlns="http://www.w3.org/2000/svg">
 <defs id="defs3871">
  <style id="current-color-scheme" type="text/css">.ColorScheme-Text{color:#dfdfdf}</style>
 </defs>
 <g id="22-22-input-mouse-battery" transform="translate(-310 -300.36)">
  <rect id="rect8" x="326" y="534.36" width="22" height="22" ry="0" fill="none"/>
  <path id="path10" class="ColorScheme-Text" transform="translate(326 534.36)" d="M13.5 3C10.453 3 8 5.676 8 9v4c0 3.324 2.453 6 5.5 6s5.5-2.676 5.5-6V9c0-3.324-2.453-6-5.5-6zm0 1A4.49 4.49 0 0 1 18 8.5v5a4.49 4.49 0 0 1-4.5 4.5A4.49 4.49 0 0 1 9 13.5v-5A4.49 4.49 0 0 1 13.5 4zm0 2c-.277 0-.5.223-.5.5v2a.499.499 0 1 0 1 0v-2c0-.277-.223-.5-.5-.5z" fill="currentColor"/>
  <path id="path12" class="ColorScheme-Text" d="m331 537.36-2 5h2v3l2-5h-2z" fill="currentColor"/>
 </g>
 <g id="22-22-input-keyboard-battery" transform="translate(-332 -396.36)">
  <rect id="rect15" x="348" y="534.36" width="22" height="22" ry="0" fill="none"/>
  <path id="path17" class="ColorScheme-Text" transform="translate(332 396.36)" d="M20 141v14l7 2 7-2v-5h-1v2H21v-10h8v-1h-9zm12 0l-2 5h2v3l2-5h-2v-3zm-5.563 3L24 150h1.074l.406-1h3.04l.406 1H30l-2.44-6h-.537l-.023.01-.023-.01h-.54zm.563 1.258L28.113 148h-2.226L27 145.258zM21 153h12v1H21v-1z" fill="currentColor"/>
 </g>
 <g id="22-22-input-keyboard-brightness" transform="translate(-354 -428.36)">
  <rect id="rect20" x="370" y="534.36" width="22" height="22" ry="0" fill="none"/>
  <path id="path4344" class="ColorScheme-Text" transform="translate(354 428.36)" d="M20 109v14l7 2 7-2v-9h-1v6H21v-10h8v-1h-9zm12 0a2 2 0 1 0 0 4 2 2 0 0 0 0-4zm0 1v2a1 1 0 1 1 0-2zm-5.563 2L24 118h1.074l.406-1h3.04l.406 1H30l-2.44-6h-.537l-.023.01-.023-.01h-.54zm.563 1.258L28.113 116h-2.226L27 113.258zM21 121h12v1H21v-1z" fill="currentColor"/>
 </g>
 <g id="input-keyboard-battery" transform="translate(-332 -428.36)">
  <rect id="rect4378" x="370" y="556.36" width="32" height="32" ry="0" fill="none"/>
  <path id="rect4223" class="ColorScheme-Text" transform="translate(332 428.36)" d="M44 132v20l10 4 10-4v-11h-1v8H45v-16h14v-1H44zm18 0l-2 5h2v3l2-5h-2v-3zm-8.594 4L49 146h1.3l1.323-3h4.723l1.35 3H59l-4.5-10h-1.094zm.553 1.695L55.896 142h-3.834l1.897-4.305zM45 150h18v1H45v-1z" fill="currentColor"/>
 </g>
 <g id="input-keyboard-brightness" transform="translate(-364 -460.36)">
  <rect id="rect4266" x="402" y="556.36" width="32" height="32" ry="0" fill="none"/>
  <path id="path4270" class="ColorScheme-Text" transform="translate(364 460.36)" d="M44 100v20l10 4 10-4v-10h-1v7H45v-16h12v-1H44zm9.406 4L49 114h1.3l1.323-3h4.723l1.35 3H59l-4.5-10h-1.094zm.553 1.695L55.896 110h-3.834l1.897-4.305zM45 118h18v1H45v-1z" fill="currentColor"/>
  <path id="path4274" class="ColorScheme-Text" transform="translate(326 534.36)" d="M100 25c-.277 0-.5.223-.5.5v1a.499.499 0 1 0 1 0v-1c0-.277-.223-.5-.5-.5zm-3.182 1.318a.499.499 0 0 0-.354.854l.708.707a.499.499 0 1 0 .707-.707l-.707-.707a.498.498 0 0 0-.354-.147zm6.364 0a.498.498 0 0 0-.354.147l-.707.707a.499.499 0 1 0 .707.707l.707-.707a.499.499 0 0 0-.353-.854zM100 28a2 2 0 1 0 0 4 2 2 0 0 0 0-4zm0 1v2a1 1 0 1 1 0-2zm-4.5.5a.499.499 0 1 0 0 1h1a.499.499 0 1 0 0-1zm8 0a.499.499 0 1 0 0 1h1a.499.499 0 1 0 0-1zm-5.975 2.475a.498.498 0 0 0-.353.146l-.707.707a.499.499 0 1 0 .707.707l.707-.707a.499.499 0 0 0-.354-.853zm4.95 0a.499.499 0 0 0-.354.854l.707.706a.499.499 0 1 0 .707-.707l-.707-.707a.498.498 0 0 0-.353-.146zM100 33c-.277 0-.5.223-.5.5v1a.499.499 0 1 0 1 0v-1c0-.277-.223-.5-.5-.5z" fill="currentColor"/>
 </g>
 <g id="input-mouse-battery" transform="translate(-332 -332.36)">
  <path id="path26" class="ColorScheme-Text" d="m386 560.36a8 9 0 0 0-8 9v6a8 9 0 0 0 8 9 8 9 0 0 0 8-9v-6a8 9 0 0 0-8-9zm0 1a7 8 0 0 1 7 8v6a7 8 0 0 1-7 8 7 8 0 0 1-7-8v-6a7 8 0 0 1 7-8zm0 3a1 1 0 0 0-1 1v3a1 1 0 0 0 1 1 1 1 0 0 0 1-1v-3a1 1 0 0 0-1-1zm0 8-2 5h2v3l2-5h-2z" fill="currentColor"/>
  <rect id="rect4378-6" x="370" y="556.36" width="32" height="32" ry="0" fill="none"/>
 </g>
 <g id="16-16-input-mouse-battery" transform="translate(-303 -297.36)">
  <path id="path4196" class="ColorScheme-Text" transform="translate(319 457.36)" d="m-8 82a4 4 0 0 0-4 4v4a4 4 0 0 0 4 4 4 4 0 0 0 4-4v-4a4 4 0 0 0-4-4zm0 1a3 3 0 0 1 3 3v4a3 3 0 0 1-3 3 3 3 0 0 1-3-3v-4a3 3 0 0 1 3-3zm0 1-2 5h2v3l2-5h-2z" fill="currentColor"/>
  <path id="rect4442" d="m303 537.36h16v16h-16z" fill="none"/>
 </g>
 <g id="input-keyboard" transform="matrix(1.4546 0 0 1.4546 38 0)">
  <path id="rect4196" d="M0 0h22v22H0z" fill="none" fill-rule="evenodd"/>
  <path id="path4285" class="ColorScheme-Text" transform="matrix(.6875 0 0 .6875 -15.125 22)" d="M47-28c0 .84-.093 1.44-.248 1.846-.155.406-.348.62-.629.785C45.561-25.041 44.5-25 43-25c-1.5 0-2.936-.027-4.1.555a3.102 3.102 0 0 0-1.408 1.408c-.273.546-.425 1.222-.47 2.037H25v17h26v-17H38.021c.044-.685.171-1.207.362-1.588.235-.47.549-.758.967-.967C40.186-23.973 41.5-24 43-24s2.689.041 3.627-.506c.469-.273.838-.714 1.059-1.293.22-.578.314-1.29.314-2.201zm-21 8h24v2H26zm0 3h24v12H26zm1 2v2h1v-2zm2 0v2h2v-2zm3 0v2h2v-2zm3 0v2h2v-2zm3 0v2h2v-2zm3 0v2h2v-2zm3 0v2h2v-2zm3 0v2h2v-2zm-20 3v2h3v-2zm4 0v2h2v-2zm3 0v2h2v-2zm3 0v2h2v-2zm3 0v2h2v-2zm3 0v2h2v-2zm3 0v2h3v-2zM27-9v2h2v-2zm3 0v2h2v-2zm3 0v2h10v-2zm11 0v2h2v-2zm3 0v2h2v-2z" fill="currentColor"/>
 </g>
 <g id="input-keyboard-virtual-on" transform="matrix(1.4546 0 0 1.4546 38 32)">
  <path id="rect4192" d="M0 0h22v22H0z" fill="none" fill-rule="evenodd"/>
  <path id="path4194" class="ColorScheme-Text" transform="matrix(.6875 0 0 .6875 -15.125 22)" d="M25-21v17h26v-17zm1 1h24v2H26zm0 3h24v12H26zm1 2v2h1v-2zm2 0v2h2v-2zm3 0v2h2v-2zm3 0v2h2v-2zm3 0v2h2v-2zm3 0v2h2v-2zm3 0v2h2v-2zm3 0v2h2v-2zm-20 3v2h3v-2zm4 0v2h2v-2zm3 0v2h2v-2zm3 0v2h2v-2zm3 0v2h2v-2zm3 0v2h2v-2zm3 0v2h3v-2zM27-9v2h2v-2zm3 0v2h2v-2zm3 0v2h10v-2zm11 0v2h2v-2zm3 0v2h2v-2z" fill="currentColor"/>
  <path id="path8-9" d="M3.781 2.75a1.719 1.719 0 0 0-1.719 1.719 1.719 1.719 0 0 0 1.72 1.719A1.719 1.719 0 0 0 5.5 4.468 1.719 1.719 0 0 0 3.781 2.75z" fill="#11d116"/>
 </g>
 <g id="input-keyboard-virtual-off" transform="matrix(1.4546 0 0 1.4546 38 64)">
  <path id="rect4176" d="M0 0h22v22H0z" fill="none" fill-rule="evenodd"/>
  <path id="path4178" class="ColorScheme-Text" transform="matrix(.6875 0 0 .6875 -15.125 22)" d="M25-21v17h26v-17zm1 1h24v2H26zm0 3h24v12H26zm1 2v2h1v-2zm2 0v2h2v-2zm3 0v2h2v-2zm3 0v2h2v-2zm3 0v2h2v-2zm3 0v2h2v-2zm3 0v2h2v-2zm3 0v2h2v-2zm-20 3v2h3v-2zm4 0v2h2v-2zm3 0v2h2v-2zm3 0v2h2v-2zm3 0v2h2v-2zm3 0v2h2v-2zm3 0v2h3v-2zM27-9v2h2v-2zm3 0v2h2v-2zm3 0v2h10v-2zm11 0v2h2v-2zm3 0v2h2v-2z" fill="currentColor"/>
 </g>
 <g id="22-22-input-caps-on" transform="translate(59.241 23.259)">
  <path id="rect964" d="m-43.241 146.74h22v22h-22z" opacity=".001" stroke-linecap="round" stroke-linejoin="round" stroke-width=".491"/>
  <path id="path870" class="ColorScheme-Text" d="M-39.241 149.741v14l7 2 7-2v-14zm1 1h12v10h-12zm5.437 2l-2.437 6h1.074l.406-1h3.04l.405 1h1.075l-2.44-6h-.537l-.023.01-.024-.01zm.563 1.258l1.113 2.742h-2.227zm-6 7.742h12v1h-12z" fill="currentColor"/>
 </g>
 <g id="22-22-input-num-on" transform="translate(-8 85)">
  <path id="rect972" d="M24 117h22v22H24z" opacity=".001" stroke-linecap="round" stroke-linejoin="round" stroke-width=".491"/>
  <path id="path879" class="ColorScheme-Text" d="M28 120v14l7 2 7-2v-14zm1 1h12v10H29zm6 2v1h-1v1h1v3h-1v1h3v-1h-1v-5zm-6 9h12v1H29z" fill="currentColor"/>
 </g>
 <g id="input-caps-on" transform="translate(19 48)">
  <path id="rect978" d="M19 112h32v32H19z" opacity=".001" stroke-linecap="round" stroke-linejoin="round" stroke-width=".714"/>
  <path id="path880" class="ColorScheme-Text" d="M25 116v20l10 4 10-4v-20h-1zm1 1h18v16H26zm8.406 3L30 130h1.3l1.323-3h4.723l1.35 3H40l-4.5-10zm.553 1.695L36.896 126h-3.834zM26 134h18v1H26z" fill="currentColor"/>
 </g>
 <g id="input-num-on" transform="translate(19 80)">
  <path id="rect984" d="M19 112h32v32H19z" opacity=".001" stroke-linecap="round" stroke-linejoin="round" stroke-width=".714"/>
  <path id="path896" class="ColorScheme-Text" d="M25 116v20l10 4 10-4v-20h-1zm1 1h18v16H26zm9 3v2h-2v1h2v6h-2v1h5v-1h-2v-9zm-9 14h18v1H26z" fill="currentColor"/>
 </g>
 <g id="22-22-input-keyboard-virtual-on" transform="translate(-165.31 -24.823)">
  <g id="g1050" transform="translate(22)">
   <path id="path1046" d="m154 66h22v22h-22z" fill="none"/>
   <path id="path1048" transform="translate(-22)" d="m182 70c-1.108 0-2 0.892-2 2v10c0 1.108 0.892 2 2 2h8.1758a3 3 0 0 1-0.17578-1 3 3 0 0 1 0.17383-1h-8.1738c-0.554 0-1-0.446-1-1v-9c0-0.554 0.446-1 1-1h10c0.554 0 1 0.446 1 1v8a3 3 0 0 1 1 0.17383v-8.1738c0-1.108-0.892-2-2-2zm6.6562 4.9941c-0.79 0-1.5473 0.257-2.2793 0.75l0.37305 0.84961c0.312-0.21 0.61625-0.35975 0.90625-0.46875 0.298-0.116 0.57-0.15625 0.875-0.15625 0.449 0 0.79225 0.10375 1.0312 0.34375 0.24 0.232 0.4375 0.54875 0.4375 0.96875v0.30664c-0.21-0.08-0.52025-0.1435-0.78125-0.1875a4.015 4.015 0 0 0-0.78125-0.0625c-0.356 0-0.67175 0.038-0.96875 0.125-0.29 0.087-0.56425 0.215-0.78125 0.375-0.21 0.16-0.35275 0.3455-0.46875 0.5625-0.116 0.218-0.1875 0.54936-0.1875 0.81836 0 0.254 0.0623 0.50075 0.15625 0.71875 0.101 0.217 0.208 0.4025 0.375 0.5625 0.174 0.16 0.393 0.28 0.625 0.375 0.239 0.087 0.50525 0.125 0.78125 0.125a2.73 2.73 0 0 0 1.1875-0.25c0.377-0.181 0.6835-0.44825 0.9375-0.78125l0.0312 0.34375a0.743 0.743 0 0 0 0.21875 0.4375c0.11402 0.10104 0.27883 0.15917 0.48633 0.17969a3 3 0 0 1 0.63867-0.50586v-0.54883c-0.124-7e-3 -0.30352-0.03575-0.35352-0.09375a0.497 0.497 0 0 1-0.11518-0.3125v-2.1309c0-0.747-0.0962-1.3198-0.53125-1.7188-0.435-0.399-1.0295-0.625-1.8125-0.625zm-0.15625 3.0703a1.67 1.67 0 0 1 0.0664 0c0.218 0 0.60703 0.04975 0.83203 0.09375 0.232 0.044 0.39856 0.10555 0.60156 0.18555v0.75c0 0.145-0.12925 0.3075-0.28125 0.4375-0.427 0.38-0.9395 0.42975-1.4375 0.46875-0.326 0-0.73336 0.01712-0.94336-0.17188-0.20999-0.196-0.33788-0.42012-0.33788-0.70312 0-0.305 0.2945-0.569 0.5625-0.75a1.67 1.67 0 0 1 0.9375-0.31055z" color="#000000" fill="#dfdfdf"/>
  </g>
  <path id="path201" class="ColorScheme-PositiveText" d="m193 81a2 2 0 0 0-2 2 2 2 0 0 0 2 2 2 2 0 0 0 2-2 2 2 0 0 0-2-2z" fill="#11d116" stroke-width=".8"/>
 </g>
 <g id="22-22-input-keyboard" transform="translate(-143.47 -56.9)">
  <path id="path206" d="m154 66h22v22h-22z" fill="none"/>
  <path id="path2" d="m160 70c-1.108 0-2 0.892-2 2v10c0 1.108 0.892 2 2 2h10c1.108 0 2-0.892 2-2v-10c0-1.108-0.892-2-2-2zm0 1h10c0.554 0 1 0.446 1 1v9c0 0.554-0.446 1-1 1h-10c-0.554 0-1-0.446-1-1v-9c0-0.554 0.446-1 1-1zm6.656 3.994c-0.79 0-1.548 0.257-2.28 0.75l0.374 0.85c0.312-0.21 0.616-0.36 0.906-0.469 0.298-0.116 0.571-0.156 0.876-0.156 0.449 0 0.791 0.104 1.03 0.344 0.24 0.232 0.438 0.548 0.438 0.968v0.307c-0.21-0.08-0.52-0.144-0.781-0.188a4.015 4.015 0 0 0-0.781-0.062c-0.356 0-0.672 0.038-0.969 0.125-0.29 0.087-0.564 0.215-0.781 0.375-0.21 0.16-0.353 0.345-0.469 0.562-0.116 0.218-0.188 0.55-0.188 0.819 0 0.254 0.063 0.501 0.157 0.719 0.101 0.217 0.208 0.402 0.375 0.562 0.174 0.16 0.393 0.28 0.625 0.375 0.239 0.087 0.505 0.125 0.781 0.125a2.73 2.73 0 0 0 1.188-0.25c0.377-0.181 0.683-0.448 0.937-0.781l0.031 0.344a0.743 0.743 0 0 0 0.219 0.437c0.123 0.109 0.299 0.173 0.531 0.188 0.08 0 0.187 6e-3 0.281 0 0.102-8e-3 0.197-0.01 0.313-0.032v-1.031c-0.124-7e-3 -0.304-0.036-0.354-0.094a0.497 0.497 0 0 1-0.115-0.312v-2.131c0-0.747-0.096-1.32-0.531-1.719s-1.03-0.625-1.813-0.625zm-0.09 3.07c0.218 0 0.608 0.05 0.833 0.094 0.232 0.044 0.398 0.106 0.601 0.186v0.75c0 0.145-0.129 0.307-0.281 0.437-0.427 0.38-0.94 0.43-1.438 0.469-0.326 0-0.734 0.018-0.944-0.171-0.21-0.196-0.337-0.421-0.337-0.704 0-0.305 0.295-0.569 0.563-0.75a1.67 1.67 0 0 1 1.004-0.31z" color="#000000" fill="#dfdfdf" overflow="visible"/>
 </g>
 <g id="22-22-input-keyboard-virtual-off" transform="translate(-141.23 6.4517)">
  <path id="path1066" d="m154 66h22v22h-22z" fill="none"/>
  <path id="path1068" d="m160 70c-1.108 0-2 0.892-2 2v10c0 1.108 0.892 2 2 2h10c1.108 0 2-0.892 2-2v-10c0-1.108-0.892-2-2-2zm0 1h10c0.554 0 1 0.446 1 1v9c0 0.554-0.446 1-1 1h-10c-0.554 0-1-0.446-1-1v-9c0-0.554 0.446-1 1-1z" color="#000000" fill="#dfdfdf" overflow="visible"/>
 </g>
</svg>
