<svg xmlns="http://www.w3.org/2000/svg" width="32" height="32" id="svg3869" version="1.1"><defs id="defs3871"><style type="text/css" id="current-color-scheme">.ColorScheme-Text{color:#dfdfdf}</style></defs><g id="layer1" transform="translate(-321 -529.362)"><g id="kdeconnect"><path id="rect4436" opacity="1" fill="none" fill-opacity="1" stroke="none" stroke-width=".1" stroke-linecap="square" stroke-linejoin="miter" stroke-miterlimit="4" stroke-dasharray="none" stroke-dashoffset="0" stroke-opacity="1" d="M321 529.362h32v32h-32z"/><path d="M8 2v28h16V2H8zm5 1h6v1h-6V3zM9 5h14v23H9V5zm6.5 7l-.277 1.107a3 3 0 0 0-.721.297l-.977-.586-.707.707.586.977a3 3 0 0 0-.3.723L12 15.5v1l1.107.277a3 3 0 0 0 .297.721l-.586.977.707.707.977-.586a3 3 0 0 0 .723.3L15.5 20h1l.277-1.107a3 3 0 0 0 .721-.297l.977.586.707-.707-.586-.977a3 3 0 0 0 .3-.723L20 16.5v-1l-1.107-.277a3 3 0 0 0-.297-.721l.586-.977-.707-.707-.977.586a3 3 0 0 0-.723-.3L16.5 12h-1zm.5 2a1.9 1.9 0 0 1 .592.09 2.011 2.011 0 0 1 .974.666 2.003 2.003 0 0 1-.66 3.027 2.005 2.005 0 0 1-.37.145 2.001 2.001 0 0 1-.395.066l-.084.01h-.137a1.877 1.877 0 0 1-.7-.158 1.99 1.99 0 0 1-.51-.313 2.001 2.001 0 0 1-.087-.082l-.088-.088a2.003 2.003 0 0 1 .559-3.143 2.005 2.005 0 0 1 .37-.144 2.001 2.001 0 0 1 .395-.066c.047-.005.094-.008.141-.01z" transform="translate(321 529.362)" id="path4241" class="ColorScheme-Text" opacity="1" fill="currentColor" fill-opacity="1" stroke="none"/></g><g id="16-16-kdeconnect"><path id="rect4442" opacity="1" fill="none" fill-opacity="1" stroke="none" stroke-width=".101" stroke-linecap="square" stroke-linejoin="miter" stroke-miterlimit="4" stroke-dasharray="none" stroke-dashoffset="0" stroke-opacity="1" d="M303 537.362h16v16h-16z"/><path d="M-14 10v12h2v-2h-1v-7h6v1h1v-4h-8zm3 1h2v1h-2v-1zm2.5 3l-.277 1.107a3 3 0 0 0-.721.297l-.977-.586-.707.707.586.977a3 3 0 0 0-.3.723L-12 17.5v1l1.107.277a3 3 0 0 0 .297.721l-.586.977.707.707.977-.586a3 3 0 0 0 .723.3L-8.5 22h1l.277-1.107a3 3 0 0 0 .721-.297l.977.586.707-.707-.586-.977a3 3 0 0 0 .3-.723L-4 18.5v-1l-1.107-.277a3 3 0 0 0-.297-.721l.586-.977-.707-.707-.977.586a3 3 0 0 0-.723-.3L-7.5 14h-1zm.5 2a2 2 0 0 1 .2.01 2 2 0 0 1 .196.03 2 2 0 0 1 .196.05 2 2 0 0 1 .187.068 2 2 0 0 1 .18.086 2 2 0 0 1 .17.106 2 2 0 0 1 .16.12 2 2 0 0 1 .147.137 2 2 0 0 1 .13.149 2 2 0 0 1 .118.164 2 2 0 0 1 .1.174 2 2 0 0 1 .08.181 2 2 0 0 1 .064.19 2 2 0 0 1 .043.195 2 2 0 0 1 .023.2A2 2 0 0 1-6 18a2 2 0 0 1-.01.2 2 2 0 0 1-.03.196 2 2 0 0 1-.05.196 2 2 0 0 1-.068.187 2 2 0 0 1-.086.18 2 2 0 0 1-.106.17 2 2 0 0 1-.12.16 2 2 0 0 1-.137.147 2 2 0 0 1-.149.13 2 2 0 0 1-.164.118 2 2 0 0 1-.174.1 2 2 0 0 1-.181.08 2 2 0 0 1-.19.064 2 2 0 0 1-.195.043 2 2 0 0 1-.2.023 2 2 0 0 1-.083.01h-.137a2 2 0 0 1-.12-.01 2 2 0 0 1-.196-.03 2 2 0 0 1-.196-.05 2 2 0 0 1-.187-.068 2 2 0 0 1-.18-.086 2 2 0 0 1-.17-.106 2 2 0 0 1-.16-.12 2 2 0 0 1-.088-.083l-.088-.088a2 2 0 0 1-.101-.115 2 2 0 0 1-.118-.164 2 2 0 0 1-.1-.174 2 2 0 0 1-.08-.181 2 2 0 0 1-.064-.19 2 2 0 0 1-.043-.195 2 2 0 0 1-.023-.2 2 2 0 0 1-.006-.14 2 2 0 0 1 .01-.2 2 2 0 0 1 .03-.197 2 2 0 0 1 .05-.195 2 2 0 0 1 .068-.187 2 2 0 0 1 .086-.18 2 2 0 0 1 .106-.17 2 2 0 0 1 .12-.16 2 2 0 0 1 .137-.147 2 2 0 0 1 .149-.13 2 2 0 0 1 .164-.118 2 2 0 0 1 .174-.1 2 2 0 0 1 .181-.08 2 2 0 0 1 .19-.064 2 2 0 0 1 .195-.043 2 2 0 0 1 .2-.023A2 2 0 0 1-8 16z" transform="translate(321 529.362)" id="rect4148" class="ColorScheme-Text" opacity="1" fill="currentColor" fill-opacity="1" stroke="none"/></g><g id="22-22-kdeconnect" transform="translate(-1)"><path id="rect4444" opacity="1" fill="none" fill-opacity="1" stroke="none" stroke-width=".139" stroke-linecap="square" stroke-linejoin="miter" stroke-miterlimit="4" stroke-dasharray="none" stroke-dashoffset="0" stroke-opacity="1" d="M356 534.362h22v22h-22z"/><path d="M40 8v16h10V8zm3 1h4v1h-4zm-2 2h8v5.5l-1.107-.277a3 3 0 0 0-.297-.721l.586-.977-.707-.707-.977.586a3 3 0 0 0-.723-.3L45.5 13h-1l-.277 1.107a3 3 0 0 0-.721.297l-.977-.586-.707.707.586.977a3 3 0 0 0-.3.723L41 16.5zm4 4a1.99 1.99 0 0 1 1.436.607 2.002 2.002 0 0 1 .492.858A2.001 2.001 0 0 1 47 17a1.99 1.99 0 0 1-.607 1.436 2 2 0 0 1-1.053.535 2.001 2.001 0 0 1-.283.03h-.137l-.12-.007a2.006 2.006 0 0 1-.759-.234 2 2 0 0 1-.418-.309l-.088-.088a1.998 1.998 0 0 1-.377-2.139 1.996 1.996 0 0 1 .313-.51 2.002 2.002 0 0 1 1.388-.704c.047-.005.094-.008.141-.01zm-4 2.5l1.107.277a3 3 0 0 0 .297.721l-.586.977.707.707.977-.586a3 3 0 0 0 .723.3L44.5 21h1l.277-1.107a3 3 0 0 0 .721-.297l.977.586.707-.707-.586-.977a3 3 0 0 0 .3-.723L49 17.5V22h-8v-1z" transform="translate(322 529.362)" id="rect4403" class="ColorScheme-Text" opacity="1" fill="currentColor" fill-opacity="1" stroke="none" stroke-width=".1" stroke-linecap="square" stroke-linejoin="miter" stroke-miterlimit="4" stroke-dasharray="none" stroke-dashoffset="0" stroke-opacity="1"/></g></g></svg>