<svg xmlns="http://www.w3.org/2000/svg" version="1.1" width="54" height="32" id="svg2"><defs id="defs4"><style type="text/css" id="current-color-scheme">.ColorScheme-Text{color:#dfdfdf}</style></defs><g transform="translate(0 10)" id="22-22-keyboard-layout"><path id="rect4209" fill="none" fill-rule="evenodd" stroke="none" stroke-width="1" stroke-linecap="butt" stroke-linejoin="miter" stroke-opacity="1" d="M0 0h22v22H0z"/><path d="M13 1033.362v2c0 .554-.446 1-1 1-1.108 0-2 .892-2 2H2v11h18v-11h-9c0-.554.446-1 1-1 1.108 0 2-.892 2-2v-2h-1zm-10 6h16v1H3v-1zm0 2h16v7H3v-7zm1 1v1h2v-1H4zm3 0v1h2v-1H7zm3 0v1h2v-1h-2zm3 0v1h2v-1h-2zm3 0v1h2v-1h-2zm-12 2v1h2v-1H4zm3 0v1h2v-1H7zm3 0v1h2v-1h-2zm3 0v1h2v-1h-2zm3 0v1h2v-1h-2zm-12 2v1h2v-1H4zm3 0v1h8v-1H7zm9 0v1h2v-1h-2z" transform="translate(0 -1030.362)" class="ColorScheme-Text" id="path4211" fill="currentColor" fill-opacity="1" stroke="none"/></g><g id="keyboard-layout" transform="matrix(1.45455 0 0 1.45455 22 0)"><path id="rect4215" fill="none" fill-rule="evenodd" stroke="none" stroke-width="1" stroke-linecap="butt" stroke-linejoin="miter" stroke-opacity="1" d="M0 0h22v22H0z"/><path id="path4217" transform="matrix(.6875 0 0 .6875 -15.125 22)" d="M47-28c0 .84-.093 1.44-.248 1.846-.155.406-.348.62-.629.785C45.561-25.041 44.5-25 43-25c-1.5 0-2.936-.027-4.1.555a3.102 3.102 0 0 0-1.408 1.408c-.273.546-.425 1.222-.47 2.037H25v17h26v-17H38.021c.044-.685.171-1.207.362-1.588.235-.47.549-.758.967-.967C40.186-23.973 41.5-24 43-24s2.689.041 3.627-.506c.469-.273.838-.714 1.059-1.293.22-.578.314-1.29.314-2.201h-1zm-21 8h24v2H26v-2zm0 3h24v12H26v-12zm1 2v2h1v-2h-1zm2 0v2h2v-2h-2zm3 0v2h2v-2h-2zm3 0v2h2v-2h-2zm3 0v2h2v-2h-2zm3 0v2h2v-2h-2zm3 0v2h2v-2h-2zm3 0v2h2v-2h-2zm-20 3v2h3v-2h-3zm4 0v2h2v-2h-2zm3 0v2h2v-2h-2zm3 0v2h2v-2h-2zm3 0v2h2v-2h-2zm3 0v2h2v-2h-2zm3 0v2h3v-2h-3zM27-9v2h2v-2h-2zm3 0v2h2v-2h-2zm3 0v2h10v-2H33zm11 0v2h2v-2h-2zm3 0v2h2v-2h-2z" class="ColorScheme-Text" fill="currentColor" fill-opacity="1" stroke="none"/></g></svg>