<svg xmlns="http://www.w3.org/2000/svg" id="svg4153" version="1.1" width="32" height="32"><defs id="defs4157"><style type="text/css" id="current-color-scheme">.ColorScheme-Text{color:#dfdfdf}</style></defs><g id="22-22-klipper" transform="translate(49 5)"><path d="M7 3v2H4v14h14V5h-3V3H7zM5 6h1v2h10V6h1v12H5V6zm2 3v1h8V9H7zm0 3v1h6v-1H7zm0 3v1h3v-1H7z" id="path4146" class="ColorScheme-Text" opacity="1" fill="currentColor" fill-opacity="1" stroke="none"/><path id="rect4148" opacity="1" fill="none" fill-opacity="1" stroke="none" stroke-width=".1" stroke-linecap="square" stroke-linejoin="miter" stroke-miterlimit="4" stroke-dasharray="none" stroke-dashoffset="0" stroke-opacity="1" d="M0 0h22v22H0z"/></g><g id="klipper"><path id="rect4202" d="M13 4v2h-2v1H6v21h20V7h-5V6h-2V4zM7 8h4v1.3h10V8h4v19H7zm3 3v1h12v-1zm0 3v1h12v-1zm0 4v1h5v-1zm0 3v1h5v-1zm0 3v1h11v-1z" class="ColorScheme-Text" opacity="1" fill="currentColor" fill-opacity="1" stroke="none"/><path id="rect4230" opacity="1" fill="none" fill-opacity="1" stroke="none" d="M0 0h32v32H0z"/></g></svg>