<svg xmlns="http://www.w3.org/2000/svg" id="svg4153" version="1.1" width="22" height="22"><defs id="defs4157"><style type="text/css" id="current-color-scheme"></style></defs><g id="kmail" fill-opacity="1" stroke="none" stroke-miterlimit="4" stroke-dasharray="none"><path id="rect4144" d="M1 3v16h20V3H1zm1 1h.049l.222.223 5.752 5.754L6 12l-4 4V4zm1.463 0h15.074L11 11.537 3.463 4zM19.95 4H20v12l-4-4-2.023-2.023 5.752-5.754L19.95 4zm-11.22 6.684l1.453 1.45.814.815H11l.816-.814 1.454-1.451L14.586 12l4.951 4.951.463.463V18H2v-.586l.463-.463L7.414 12l1.316-1.316z" opacity="1" fill="currentColor" stroke-width="2.8" stroke-opacity=".55" color="#dfdfdf"/><path id="rect4193" opacity="1" fill="none" stroke-width=".1" stroke-linecap="square" stroke-linejoin="miter" stroke-dashoffset="0" stroke-opacity="1" d="M0 0h22v22H0z"/></g></svg>