<svg xmlns="http://www.w3.org/2000/svg" id="svg4153" version="1.1" width="22" height="22"><defs id="defs4157"><style type="text/css" id="current-color-scheme">.ColorScheme-Text{color:#dfdfdf}</style></defs><g id="kpackagekit-important"><g id="g4216"><path d="M51 7l-3 3v9h14.1v-9l-3-3h-6zm.3 1h7.4l2 2H49.3zm1.7 3h4v5l-1-1-1 1-1-1-1 1z" id="path4198" class="ColorScheme-Text" fill="currentColor" fill-rule="evenodd" stroke="none" stroke-width="1" stroke-linecap="butt" stroke-linejoin="miter" stroke-opacity="1"/><path d="M60 3l3 5h-6z" id="path4202" fill="#fdbc4b" fill-opacity="1" fill-rule="evenodd" stroke="none" stroke-width="1" stroke-linecap="butt" stroke-linejoin="miter" stroke-opacity="1"/></g><path id="rect4206" opacity="1" fill="none" fill-opacity=".599" stroke="none" d="M44 0h22v22H44z"/></g><g id="kpackagekit-security"><g id="g4225"><path id="path4185" d="M29 7l-3 3v9h14.1v-9l-3-3h-6zm.3 1h7.4l2 2H27.3zm1.7 3h4v5l-1-1-1 1-1-1-1 1z" class="ColorScheme-Text" fill="currentColor" fill-rule="evenodd" stroke="none" stroke-width="1" stroke-linecap="butt" stroke-linejoin="miter" stroke-opacity="1"/><path d="M38 3c0 1-2 1-2 1v3c0 1 1 1 2 2 1-1 2-1 2-2V4s-2 0-2-1z" id="path4191" fill="#fdbc4b" fill-opacity="1" fill-rule="evenodd" stroke="none" stroke-width="1" stroke-linecap="butt" stroke-linejoin="miter" stroke-opacity="1"/></g><path id="rect4208" opacity="1" fill="none" fill-opacity=".599" stroke="none" d="M22 0h22v22H22z"/></g><g id="kpackagekit-updates"><g id="g4220"><path d="M7 7l-3 3v9h14.1v-9l-3-3h-6zm.3 1h7.4l2 2H5.3zM9 11h4v5l-1-1-1 1-1-1-1 1z" id="path4149" class="ColorScheme-Text" fill="currentColor" fill-rule="evenodd" stroke="none" stroke-width="1" stroke-linecap="butt" stroke-linejoin="miter" stroke-opacity="1"/><path d="M16 3a3 3 0 0 0-3 3 3 3 0 0 0 3 3 3 3 0 0 0 3-3 3 3 0 0 0-3-3z" id="path4180" opacity="1" fill="#2ecc71" fill-opacity="1" stroke="none"/><path d="M16 4l2 2h-1v2h-2V6h-1l1-1 1-1z" id="path4167" opacity="1" fill="currentColor" fill-opacity="1" stroke="none" color="#eff0f1"/></g><path id="rect4212" opacity="1" fill="none" fill-opacity=".599" stroke="none" d="M0 0h22v22H0z"/></g><g id="kpackagekit-inactive"><path d="M-15 7l-3 3v9h14.1v-9l-3-3h-6zm.3 1h7.4l2 2h-11.4zm1.7 3h4v5l-1-1-1 1-1-1-1 1z" id="path4204" class="ColorScheme-Text" fill="currentColor" fill-rule="evenodd" stroke="none" stroke-width="1" stroke-linecap="butt" stroke-linejoin="miter" stroke-opacity="1"/><path id="rect4214" opacity="1" fill="none" fill-opacity=".599" stroke="none" d="M-22 0H0v22h-22z"/></g></svg>