<svg xmlns="http://www.w3.org/2000/svg" id="svg4153" version="1.1" width="22" height="22"><defs id="defs4157"><style type="text/css" id="current-color-scheme"></style></defs><g id="kteatime" stroke="none"><path id="rect3825" fill="#566060" fill-opacity="0" d="M0 0h22v22H0z"/><path d="M10 2v2h1V2h-1zM7 3v1h1V3H7zm6 0v1h1V3h-1zM5 5v12h12v-3h1c1.108 0 2-.892 2-2V8c0-1.108-.892-2-2-2h-1V5H5zm1 1h3v1H8c-.554 0-1 .446-1 1v5c0 .554.446 1 1 1h3c.554 0 1-.446 1-1V8c0-.554-.446-1-1-1h-1V6h6v10H6V6zm11 1h1c.554 0 1 .446 1 1v4c0 .554-.446 1-1 1h-1V7zM8 9h3v4H8V9zm-5 9v1h16v-1H3z" id="rect4168" opacity="1" fill="currentColor" fill-opacity="1" color="#dfdfdf"/></g></svg>