<svg xmlns="http://www.w3.org/2000/svg" viewBox="0 0 22 22" id="svg" version="1.1" width="100%" height="100%"><defs id="defs81"><style id="current-color-scheme" type="text/css"></style></defs><g id="list-add" stroke="none"><path d="M10 3v7H3v2.1h7V19h2v-6.9h7V10h-7V3z" id="rect2991" fill="currentColor" fill-opacity="1" color="#D3DAE3"/><path id="rect3763" fill="#566060" fill-opacity="0" d="M0 0h22v22H0z"/></g><g id="list-remove" transform="translate(22)" stroke="none"><path id="path3775" d="M11 3a8 8 0 1 0 0 16 8 8 0 0 0 0-16zm0 1a7 7 0 0 1 7 7 6.947 6.947 0 0 1-1.719 4.594L6.406 5.719A6.947 6.947 0 0 1 11 4zM5.719 6.406l9.875 9.875A6.947 6.947 0 0 1 11 18a7 7 0 0 1-7-7c0-1.762.644-3.363 1.719-4.594z" style="line-height:normal;-inkscape-font-specification:Sans;text-indent:0;text-align:start;text-decoration-line:none;text-transform:none;block-progression:tb;marker:none" color="#000" font-style="normal" font-variant="normal" font-weight="400" font-stretch="normal" font-size="medium" font-family="Sans" text-decoration="none" letter-spacing="normal" word-spacing="normal" direction="ltr" writing-mode="lr-tb" baseline-shift="baseline" text-anchor="start" display="inline" overflow="visible" visibility="visible" fill="#e74c3c" fill-opacity="1" stroke-width="1"/><path id="rect3783" fill="#566060" fill-opacity="0" d="M0 0h22v22H0z"/></g></svg>