<svg xmlns="http://www.w3.org/2000/svg" id="svg4153" version="1.1" width="22" height="22"><defs id="defs4157"><style type="text/css" id="current-color-scheme">.ColorScheme-Text{color:#dfdfdf}</style></defs><g id="mail-unread"><path id="rect4144" d="M1 3v16h20V3H1zm1 1h.049l.222.223 5.752 5.754L6 12l-4 4V4zm1.463 0h15.074L11 11.537 3.463 4zM19.95 4H20v12l-4-4-2.023-2.023 5.752-5.754L19.95 4zm-11.22 6.684l1.453 1.45.814.815H11l.816-.814 1.454-1.451L14.586 12l4.951 4.951.463.463V18H2v-.586l.463-.463L7.414 12l1.316-1.316z" class="ColorScheme-Text" fill="currentColor"/><path id="rect4193" opacity="1" fill="none" fill-opacity="1" stroke="none" stroke-width=".1" stroke-linecap="square" stroke-linejoin="miter" stroke-miterlimit="4" stroke-dasharray="none" stroke-dashoffset="0" stroke-opacity="1" d="M0 0h22v22H0z"/></g><g id="mail-unread-new"><path id="rect4178" opacity="1" fill="none" fill-opacity="1" stroke="none" d="M27 0h22v22H27z"/><path d="M28 3v16h13v-1H29v-.586l.463-.463 6.267-6.267 1.454 1.45.814.815H38l.816-.814 1.454-1.451L41.586 12H43l-2.023-2.023 5.752-5.754L46.95 4H47v8h1V3H28zm1 1h.049l.222.223 5.752 5.754L29 16V4zm1.463 0h15.074L38 11.537 30.463 4zM45 13l-.574 1.613-1.547-.734.734 1.547L42 16l1.613.574-.734 1.547 1.547-.734L45 19l.574-1.613 1.547.734-.734-1.547L48 16l-1.613-.574.734-1.547-1.547.734L45 13z" id="rect4144-0" class="ColorScheme-Text" fill="currentColor"/></g></svg>