<svg xmlns="http://www.w3.org/2000/svg" version="1.0" id="svg7229" height="22" width="22"><defs id="defs7231"><style type="text/css" id="current-color-scheme">.ColorScheme-Text{color:#dfdfdf}</style></defs><g transform="translate(-214.536 -404.505)" id="layer1"><g class="ColorScheme-Text" id="media-playback-pause" transform="matrix(1.49998 0 0 1.49998 209.036 -1146.514)" fill="currentColor"><path id="rect3003-0" opacity=".01" fill="#ed1515" fill-opacity=".004" stroke="none" d="M3.667 1034.029h14.667v14.667H3.667z"/><path class="ColorScheme-Text" d="M12.778 1036.046h3.555v10.632h-3.555zm-7.111 0h3.555v10.632H5.667z" id="rect3287-9" fill="currentColor"/></g><g class="ColorScheme-Text" id="media-playback-start" transform="matrix(1.49998 0 0 1.49998 233.035 -1146.514)" fill="currentColor"><path id="rect3003-1" opacity=".01" fill="#ed1515" fill-opacity=".004" stroke="none" d="M3.667 1034.029h14.667v14.667H3.667z"/><path class="ColorScheme-Text" d="M6.341 1046.692l9.318-5.33-9.318-5.33z" id="path3357-8" fill="currentColor"/></g><g id="media-playback-stop" transform="matrix(1.49998 0 0 1.49998 257.035 -1146.514)" fill="#dfdfdf"><path id="rect3003-3" opacity=".01" fill="#ed1515" fill-opacity=".004" stroke="none" d="M3.667 1034.029h14.667v14.667H3.667z"/><path class="ColorScheme-Text" d="M5.667 1036.032h10.666v10.66H5.667z" id="rect3274-5" fill="currentColor"/></g><g id="media-record" transform="matrix(1.49998 0 0 1.49998 281.034 -1146.514)"><path id="rect3003-03" opacity=".01" fill="#ed1515" fill-opacity=".004" stroke="none" d="M3.668 1034.029h14.667v14.667H3.668z"/><rect id="rect3274-0" width="10.661" height="10.665" x="5.669" y="1036.03" ry="5.332" fill="#da4453"/></g><g class="ColorScheme-Text" id="media-seek-backward" transform="matrix(1.49998 0 0 1.49998 305.034 -1146.514)" fill="currentColor"><path id="rect3003-07" opacity=".01" fill="#ed1515" fill-opacity=".004" stroke="none" d="M3.668 1034.029h14.667v14.667H3.668z"/><path class="ColorScheme-Text" d="M11 1046.693l-5.332-5.33 5.332-5.331zm5.332 0l-5.332-5.33 5.332-5.331z" id="path4148-6" fill="currentColor"/></g><g class="ColorScheme-Text" id="media-seek-forward" transform="matrix(1.49998 0 0 1.49998 329.088 -1146.514)" fill="currentColor"><path id="rect3003-2" opacity=".01" fill="#ed1515" fill-opacity=".004" stroke="none" d="M3.632 1034.029h14.667v14.667H3.632z"/><path class="ColorScheme-Text" d="M11 1046.696l5.362-5.334L11 1036.03zm-5.362 0l5.362-5.334-5.362-5.333z" id="path4148-8" fill="currentColor"/></g><g class="ColorScheme-Text" id="media-skip-backward" transform="matrix(1.49998 0 0 1.49998 353.033 -1146.514)" fill="currentColor"><path id="rect3003-9" opacity=".01" fill="#ed1515" fill-opacity=".004" stroke="none" d="M3.669 1034.029h14.667v14.667H3.669z"/><path class="ColorScheme-Text" id="rect3356-04" d="M5.66 1036.032v10.66h3.562v-10.66zm3.562 5.33l7.122 5.33v-10.66z" fill="currentColor"/></g><g class="ColorScheme-Text" id="media-skip-forward" transform="matrix(1.49998 0 0 1.49998 377.032 -1146.514)" fill="currentColor"><path id="rect3003-7" opacity=".01" fill="#ed1515" fill-opacity=".004" stroke="none" d="M3.669 1034.029h14.667v14.667H3.669z"/><path class="ColorScheme-Text" d="M12.774 1036.031h3.549v10.662h-3.549zm-7.097 10.662l7.097-5.33-7.097-5.332z" id="rect3402-4" fill="currentColor"/></g><g id="media-eject" transform="matrix(1.24997 0 0 1.24997 404.286 -886.171)"><path id="rect3003" opacity=".01" fill="#ed1515" fill-opacity=".004" stroke="none" d="M1.8 1032.562h17.6v17.6H1.8z"/><path id="path6" class="ColorScheme-Text" d="M10.6 1034.96l-7.196 8.537h14.392l-7.196-8.538zm-7.196 10.565v2.24h14.392v-2.24H3.404z" fill="currentColor"/></g><g class="ColorScheme-Text" id="media-playback-paused" transform="matrix(1.49998 0 0 1.49998 209.036 -1122.514)" fill="currentColor"><path id="rect3003-0-3" opacity=".01" fill="#ed1515" fill-opacity=".004" stroke="none" d="M3.667 1034.029h14.667v14.667H3.667z"/><path class="ColorScheme-Text" d="M11.667 1039.362H13v4h-1.333zm-2.667 0h1.333v4H9zm2-3.333a5.322 5.322 0 0 0-5.334 5.333 5.322 5.322 0 0 0 5.334 5.334 5.322 5.322 0 0 0 5.334-5.334A5.322 5.322 0 0 0 11 1036.03zm0 .666a4.657 4.657 0 0 1 4.667 4.667A4.657 4.657 0 0 1 11 1046.03a4.657 4.657 0 0 1-4.667-4.667 4.657 4.657 0 0 1 4.667-4.667z" id="rect3287-9-5" fill="currentColor" fill-opacity="1" stroke="none"/></g><g class="ColorScheme-Text" id="media-playback-playing" transform="matrix(1.49998 0 0 1.49998 233.035 -1122.514)" fill="currentColor"><path id="rect3003-1-2" opacity=".01" fill="#ed1515" fill-opacity=".004" stroke="none" d="M3.667 1034.029h14.667v14.667H3.667z"/><path class="ColorScheme-Text" d="M9.667 1043.362l2.666-2-2.666-2zm1.333-7.334a5.322 5.322 0 0 0-5.334 5.334 5.322 5.322 0 0 0 5.334 5.334 5.322 5.322 0 0 0 5.334-5.334 5.322 5.322 0 0 0-5.334-5.334zm0 .667a4.657 4.657 0 0 1 4.667 4.667A4.657 4.657 0 0 1 11 1046.03a4.657 4.657 0 0 1-4.667-4.667 4.657 4.657 0 0 1 4.667-4.667z" id="path3357-8-9" fill="currentColor" fill-opacity="1" stroke="none"/></g><g class="ColorScheme-Text" id="media-playback-stopped" transform="matrix(1.49998 0 0 1.49998 257.035 -1122.514)" fill="currentColor"><path id="rect3003-3-2" opacity=".01" fill="#ed1515" fill-opacity=".004" stroke="none" d="M3.667 1034.029h14.667v14.667H3.667z"/><path id="path41" d="M9 1039.362h4v4H9zm2-3.333a5.322 5.322 0 0 0-5.334 5.333 5.322 5.322 0 0 0 5.334 5.334 5.322 5.322 0 0 0 5.334-5.334A5.322 5.322 0 0 0 11 1036.03zm0 .666a4.657 4.657 0 0 1 4.667 4.667A4.657 4.657 0 0 1 11 1046.03a4.657 4.657 0 0 1-4.667-4.667 4.657 4.657 0 0 1 4.667-4.667z" class="ColorScheme-Text" fill="currentColor"/></g></g></svg>