<svg xmlns="http://www.w3.org/2000/svg" version="1.1" id="svg2" viewBox="0 0 54 32"><defs id="defs3051"><style type="text/css" id="current-color-scheme">.ColorScheme-Text{color:#dfdfdf}</style></defs><g id="22-22-nepomuk"><path id="path7" class="ColorScheme-Text" d="M9 13c-3.324 0-6 2.676-6 6s2.676 6 6 6c1.481 0 2.83-.535 3.875-1.418L18.293 29l.707-.707-5.418-5.418A5.975 5.975 0 0 0 15 19c0-3.324-2.676-6-6-6zm0 1c2.77 0 5 2.23 5 5s-2.23 5-5 5-5-2.23-5-5 2.23-5 5-5z" fill="currentColor" fill-opacity="1" stroke="none"/><path id="path9" d="M0 10v22h22V10H0z" opacity="1" fill="none"/></g><g id="nepomuk"><path id="path12" class="ColorScheme-Text" d="M35 4a9 9 0 0 0-9 9 9 9 0 0 0 9 9 9 9 0 0 0 5.994-2.299L49.293 28l.707-.707-8.3-8.3A9 9 0 0 0 44 13a9 9 0 0 0-9-9zm0 1a8 8 0 0 1 8 8 8 8 0 0 1-8 8 8 8 0 0 1-8-8 8 8 0 0 1 8-8z" fill="currentColor" fill-opacity="1" stroke="none"/><path id="path14" d="M22 0v32h32V0H22z" opacity="1" fill="none"/></g></svg>