<svg id="svg2" version="1.1" viewBox="0 0 54 32" xmlns="http://www.w3.org/2000/svg">
 <defs id="defs3051">
  <style id="current-color-scheme" type="text/css">.ColorScheme-Text{color:#dfdfdf}</style>
 </defs>
 <g id="nepomuk">
  <path id="path12" class="ColorScheme-Text" d="M35 4a9 9 0 0 0-9 9 9 9 0 0 0 9 9 9 9 0 0 0 5.994-2.299L49.293 28l.707-.707-8.3-8.3A9 9 0 0 0 44 13a9 9 0 0 0-9-9zm0 1a8 8 0 0 1 8 8 8 8 0 0 1-8 8 8 8 0 0 1-8-8 8 8 0 0 1 8-8z" fill="currentColor"/>
  <path id="path14" d="M22 0v32h32V0H22z" fill="none"/>
 </g>
 <g id="22-22-nepomuk">
  <path id="path9" d="m0 10v22h22v-22z" fill="none"/>
  <g id="g836" transform="matrix(-1 0 0 1 19 13)" enable-background="new" fill="#dfdfdf">
   <path id="path825" d="m9.51 0.997c-3.028 0-5.53 2.475-5.53 5.5 0 1.15 0.389 2.208 1 3.094l-3.688 3.687a1.0056 1.0056 0 1 0 1.406 1.438l3.688-3.688c0.887 0.611 1.973 0.97 3.125 0.97 3.029 0 5.5-2.475 5.5-5.5 0-3.026-2.471-5.5-5.5-5.5zm0 2c1.948 0 3.5 1.555 3.5 3.5s-1.552 3.5-3.5 3.5a3.483 3.483 0 0 1-3.5-3.5c0-1.945 1.553-3.5 3.5-3.5z" color="#000000" enable-background="new" fill="#dfdfdf" font-weight="400" overflow="visible" style="text-decoration-line:none;text-indent:0;text-transform:none"/>
  </g>
 </g>
</svg>
