<svg id="svg4153" width="22" height="22" version="1.1" xmlns="http://www.w3.org/2000/svg">
 <defs id="defs4157">
  <style id="current-color-scheme" type="text/css">.ColorScheme-Text{color:#dfdfdf}.ColorScheme-Highlight{color:#3498db}.ColorScheme-NegativeText{color:#e74c3c}</style>
 </defs>
 <g id="showinfo" transform="translate(50,57)">
  <path id="rect4400" d="m-22 109h22v22h-22z" fill="none"/>
  <g id="layer1-8" transform="translate(-22 -921.36)" fill="#dfdfdf">
   <path id="rect4120" class="ColorScheme-Text" d="m10 1036.4h2v2h-2z" color="#dfdfdf"/>
   <path id="rect4124" class="ColorScheme-Text" d="m10 1039.4h2v7h-2z" color="#dfdfdf"/>
   <path id="rect4129" class="ColorScheme-Text" transform="translate(0 1030.4)" d="m11 3c-4.432 0-8 3.568-8 8s3.568 8 8 8 8-3.568 8-8-3.568-8-8-8zm0 1c3.878 0 7 3.122 7 7s-3.122 7-7 7-7-3.122-7-7 3.122-7 7-7z" color="#dfdfdf"/>
  </g>
 </g>
 <g id="showinfo-hover" transform="translate(77,57)">
  <path id="rect4411" d="m-22 109h22v22h-22z" fill="none"/>
  <g id="g4413" transform="translate(-22 -921.36)" fill="#dfdfdf">
   <path id="rect4415" class="ColorScheme-Highlight" d="m10 1036.4h2v2h-2z" color="#3498db"/>
   <path id="rect4417" class="ColorScheme-Highlight" d="m10 1039.4h2v7h-2z" color="#3498db"/>
   <path id="path4419" class="ColorScheme-Highlight" transform="translate(0 1030.4)" d="m11 3c-4.432 0-8 3.568-8 8s3.568 8 8 8 8-3.568 8-8-3.568-8-8-8zm0 1c3.878 0 7 3.122 7 7s-3.122 7-7 7-7-3.122-7-7 3.122-7 7-7z" color="#3498db"/>
  </g>
 </g>
 <g id="flightmode-on" transform="translate(-21)">
  <path id="rect4528" d="m-45 0h22v22h-22z" fill="none"/>
  <path id="path4467" class="ColorScheme-Text" transform="translate(21)" d="m-55 3s-1 0-1 3v2.5l-1.1 0.55v-0.05h-0.8v0.3h-0.1v0.2l-2 1v-0.5h-0.1v-0.3h-0.8v0.3h-0.1v1l-2 1v1l2.191-0.273 0.11 0.273h0.148l0.393-0.355 2.752-0.344h0.105l6e-3 -0.014 1.295-0.162v2.875c0 0.488 0.24 0.972 0.484 1.344l-2.484 1.656v1l3-1 3 1v-1l-2.484-1.656c0.243-0.372 0.484-0.856 0.484-1.344v-2.875l1.295 0.162 6e-3 0.014h0.105l2.752 0.344 0.143 0.355h0.398l0.11-0.273 2.191 0.273v-1l-2-1v-1h-0.1v-0.3h-0.8v0.3h-0.1v0.5l-2-1v-0.2h-0.1v-0.3h-0.8v0.05l-1.1-0.55v-2.5c0-3-1-3-1-3z" color="#dfdfdf" fill="currentColor" fill-rule="evenodd"/>
 </g>
 <g id="network-mobile-available" transform="translate(-22)">
  <path id="rect4662" d="M-22-22H0V0h-22z" fill="none" opacity=".55" stroke-width="3.567"/>
  <path id="path4664" class="ColorScheme-Highlight" d="m-19-3 16-16v16z" fill="currentColor" fill-rule="evenodd"/>
 </g>
 <g id="network-mobile-100">
  <path id="rect4198" d="M-22-22H0V0h-22z" fill="none" opacity=".55" stroke-width="3.567"/>
  <path id="path4220" class="ColorScheme-Text" d="m-19-3 16-16v16z" fill="currentColor" fill-rule="evenodd"/>
 </g>
 <g id="network-mobile-80">
  <path id="rect4196" d="M0-22h22V0H0z" fill="none" opacity=".55" stroke-width="3.567"/>
  <path id="path4227" class="ColorScheme-Text" d="m3-3 16-16v16z" fill="currentColor" fill-rule="evenodd" opacity=".5"/>
  <path id="path4222" class="ColorScheme-Text" d="M17-17L3-3h14z" fill="currentColor" fill-rule="evenodd"/>
 </g>
 <g id="network-mobile-60">
  <path id="rect4200" d="M22-22h22V0H22z" fill="none" opacity=".55" stroke-width="3.567"/>
  <path id="path4229" class="ColorScheme-Text" d="m25-3 16-16v16z" fill="currentColor" fill-rule="evenodd" opacity=".5"/>
  <path id="path4231" class="ColorScheme-Text" d="M37-15L25-3h12z" fill="currentColor" fill-rule="evenodd"/>
 </g>
 <g id="network-mobile-40">
  <path id="rect4202" d="M44-22h22V0H44z" fill="none" opacity=".55" stroke-width="3.567"/>
  <path id="path4233" class="ColorScheme-Text" d="m47-3 16-16v16z" fill="currentColor" fill-rule="evenodd" opacity=".5"/>
  <path id="path4235" class="ColorScheme-Text" d="M57-13L47-3h10z" fill="currentColor" fill-rule="evenodd"/>
 </g>
 <g id="network-mobile-20">
  <path id="rect4293" d="M66-22h22V0H66z" fill="none" opacity=".55" stroke-width="3.567"/>
  <path id="path4315" class="ColorScheme-Text" d="m69-3 16-16v16z" fill="currentColor" fill-rule="evenodd" opacity=".5"/>
  <path id="path4317" class="ColorScheme-Text" d="m76-10-7 7h7z" fill="currentColor" fill-rule="evenodd"/>
 </g>
 <g id="network-mobile-0" transform="translate(-22)">
  <path id="rect4295" d="M110-22h22V0h-22z" fill="none" opacity=".55" stroke-width="3.567"/>
  <path id="path4330" class="ColorScheme-Text" d="m113-3 16-16v16z" fill="currentColor" fill-rule="evenodd" opacity=".5"/>
 </g>
 <g id="network-mobile-100-locked">
  <path id="rect4230" d="M-22-44H0v22h-22z" fill="none" opacity=".55" stroke-width="3.567"/>
  <path id="path4238" class="ColorScheme-Text" d="m-3-41-16 16h11v-3l1-1v-2l2-2h2v-8z" fill="currentColor" fill-rule="evenodd"/>
  <path id="path4340-4" class="ColorScheme-Text" d="M-4-32c-1.108 0-2 .892-2 2v2h-1v3h6v-3h-1v-2c0-1.108-.892-2-2-2zm0 1c.554 0 1 .446 1 1v2h-2v-2c0-.554.446-1 1-1z" fill="currentColor" stroke-width=".1"/>
 </g>
 <g id="network-mobile-80-locked">
  <path id="rect4760" d="M0-44h22v22H0z" fill="none" opacity=".55" stroke-width="3.567"/>
  <path id="path4762" class="ColorScheme-Text" d="m19-41-16 16h11v-3l1-1v-2l2-2h2v-8z" fill="currentColor" fill-rule="evenodd" opacity=".5"/>
  <path id="path4764" class="ColorScheme-Text" d="M18-32c-1.108 0-2 .892-2 2v2h-1v3h6v-3h-1v-2c0-1.108-.892-2-2-2zm0 1c.554 0 1 .446 1 1v2h-2v-2c0-.554.446-1 1-1z" fill="currentColor" stroke-width=".1"/>
  <path id="path4790" class="ColorScheme-Text" d="m17-39-14 14h11v-3l1-1v-2l2-2v-6z" fill="currentColor" fill-rule="evenodd"/>
 </g>
 <g id="network-mobile-60-locked">
  <path id="rect4766" d="M22-44h22v22H22z" fill="none" opacity=".55" stroke-width="3.567"/>
  <path id="path4768" class="ColorScheme-Text" d="m41-41-16 16h11v-3l1-1v-2l2-2h2v-8z" fill="currentColor" fill-rule="evenodd" opacity=".5"/>
  <path id="path4770" class="ColorScheme-Text" d="M40-32c-1.108 0-2 .892-2 2v2h-1v3h6v-3h-1v-2c0-1.108-.892-2-2-2zm0 1c.554 0 1 .446 1 1v2h-2v-2c0-.554.446-1 1-1z" fill="currentColor" stroke-width=".1"/>
  <path id="path4792" class="ColorScheme-Text" d="m37-37-12 12h11v-3l1-1v-8z" fill="currentColor" fill-rule="evenodd"/>
 </g>
 <g id="network-mobile-40-locked">
  <path id="rect4772" d="M44-44h22v22H44z" fill="none" opacity=".55" stroke-width="3.567"/>
  <path id="path4774" class="ColorScheme-Text" d="m63-41-16 16h11v-3l1-1v-2l2-2h2v-8z" fill="currentColor" fill-rule="evenodd" opacity=".5"/>
  <path id="path4776" class="ColorScheme-Text" d="M62-32c-1.108 0-2 .892-2 2v2h-1v3h6v-3h-1v-2c0-1.108-.892-2-2-2zm0 1c.554 0 1 .446 1 1v2h-2v-2c0-.554.446-1 1-1z" fill="currentColor" stroke-width=".1"/>
  <path id="path4794" class="ColorScheme-Text" d="m57-35-10 10h10v-10z" fill="currentColor" fill-rule="evenodd"/>
 </g>
 <g id="network-mobile-20-locked">
  <path id="rect4778" d="M66-44h22v22H66z" fill="none" opacity=".55" stroke-width="3.567"/>
  <path id="path4780" class="ColorScheme-Text" d="m85-41-16 16h11v-3l1-1v-2l2-2h2v-8z" fill="currentColor" fill-rule="evenodd" opacity=".5"/>
  <path id="path4782" class="ColorScheme-Text" d="M84-32c-1.108 0-2 .892-2 2v2h-1v3h6v-3h-1v-2c0-1.108-.892-2-2-2zm0 1c.554 0 1 .446 1 1v2h-2v-2c0-.554.446-1 1-1z" fill="currentColor" stroke-width=".1"/>
  <path id="path4796" class="ColorScheme-Text" d="m76-32-7 7h7v-7z" fill="currentColor" fill-rule="evenodd"/>
 </g>
 <g id="network-mobile-0-locked">
  <path id="rect4784" d="M88-44h22v22H88z" fill="none" opacity=".55" stroke-width="3.567"/>
  <path id="path4786" class="ColorScheme-Text" d="m107-41-16 16h11v-3l1-1v-2l2-2h2v-8z" fill="currentColor" fill-rule="evenodd" opacity=".5"/>
  <path id="path4788" class="ColorScheme-Text" d="M106-32c-1.108 0-2 .892-2 2v2h-1v3h6v-3h-1v-2c0-1.108-.892-2-2-2zm0 1c.554 0 1 .446 1 1v2h-2v-2c0-.554.446-1 1-1z" fill="currentColor" stroke-width=".1"/>
 </g>
 <g id="network-mobile-100-gprs">
  <path id="rect4814" d="M-22-66H0v22h-22z" fill="none" opacity=".55" stroke-width="3.567"/>
  <path id="path4816" class="ColorScheme-Text" d="m-19-47 16-16v16z" fill="currentColor" fill-rule="evenodd"/>
  <path id="rect4976-4" class="ColorScheme-Text" d="m-19-63v5h4v-3h-2v1h1v1h-2v-3h3v-1h-4z" fill="currentColor"/>
 </g>
 <g id="network-mobile-80-gprs">
  <path id="rect4820" d="M0-66h22v22H0z" fill="none" opacity=".55" stroke-width="3.567"/>
  <path id="path4822" class="ColorScheme-Text" d="m3-47 16-16v16z" fill="currentColor" fill-rule="evenodd" opacity=".5"/>
  <path id="path4824" class="ColorScheme-Text" d="M17-61L3-47h14z" fill="currentColor" fill-rule="evenodd"/>
  <path id="path5058" class="ColorScheme-Text" d="M3-63v5h4v-3H5v1h1v1H4v-3h3v-1H3z" fill="currentColor"/>
 </g>
 <g id="network-mobile-60-gprs">
  <path id="rect4828" d="M22-66h22v22H22z" fill="none" opacity=".55" stroke-width="3.567"/>
  <path id="path4830" class="ColorScheme-Text" d="m25-47 16-16v16z" fill="currentColor" fill-rule="evenodd" opacity=".5"/>
  <path id="path4832" class="ColorScheme-Text" d="m37-59-12 12h12z" fill="currentColor" fill-rule="evenodd"/>
  <path id="path5060" class="ColorScheme-Text" d="m25-63v5h4v-3h-2v1h1v1h-2v-3h3v-1h-4z" fill="currentColor"/>
 </g>
 <g id="network-mobile-40-gprs">
  <path id="rect4836" d="M44-66h22v22H44z" fill="none" opacity=".55" stroke-width="3.567"/>
  <path id="path4838" class="ColorScheme-Text" d="m47-47 16-16v16z" fill="currentColor" fill-rule="evenodd" opacity=".5"/>
  <path id="path4840" class="ColorScheme-Text" d="m57-57-10 10h10z" fill="currentColor" fill-rule="evenodd"/>
  <path id="path5062" class="ColorScheme-Text" d="m47-63v5h4v-3h-2v1h1v1h-2v-3h3v-1h-4z" fill="currentColor"/>
 </g>
 <g id="network-mobile-20-gprs">
  <path id="rect4844" d="M66-66h22v22H66z" fill="none" opacity=".55" stroke-width="3.567"/>
  <path id="path4846" class="ColorScheme-Text" d="m69-47 16-16v16z" fill="currentColor" fill-rule="evenodd" opacity=".5"/>
  <path id="path4848" class="ColorScheme-Text" d="m76-54-7 7h7z" fill="currentColor" fill-rule="evenodd"/>
  <path id="path5064" class="ColorScheme-Text" d="m69-63v5h4v-3h-2v1h1v1h-2v-3h3v-1h-4z" fill="currentColor"/>
 </g>
 <g id="network-mobile-0-gprs">
  <path id="rect4852" d="M88-66h22v22H88z" fill="none" opacity=".55" stroke-width="3.567"/>
  <path id="path4854" class="ColorScheme-Text" d="m91-47 16-16v16z" fill="currentColor" fill-rule="evenodd" opacity=".5"/>
  <path id="path5066" class="ColorScheme-Text" d="m91-63v5h4v-3h-2v1h1v1h-2v-3h3v-1h-4z" fill="currentColor"/>
 </g>
 <g id="network-mobile-100-gprs-locked">
  <path id="rect4856" d="M-22-88H0v22h-22z" fill="none" opacity=".55" stroke-width="3.567"/>
  <path id="path4858" class="ColorScheme-Text" d="m-3-85-16 16h11v-3l1-1v-2l2-2h2v-8z" fill="currentColor" fill-rule="evenodd"/>
  <path id="path4860" class="ColorScheme-Text" d="M-4-76c-1.108 0-2 .892-2 2v2h-1v3h6v-3h-1v-2c0-1.108-.892-2-2-2zm0 1c.554 0 1 .446 1 1v2h-2v-2c0-.554.446-1 1-1z" fill="currentColor" stroke-width=".1"/>
  <path id="path5068" class="ColorScheme-Text" d="m-19-85v5h4v-3h-2v1h1v1h-2v-3h3v-1h-4z" fill="currentColor"/>
 </g>
 <g id="network-mobile-80-gprs-locked">
  <path id="rect4862" d="M0-88h22v22H0z" fill="none" opacity=".55" stroke-width="3.567"/>
  <path id="path4864" class="ColorScheme-Text" d="m19-85-16 16h11v-3l1-1v-2l2-2h2v-8z" fill="currentColor" fill-rule="evenodd" opacity=".5"/>
  <path id="path4866" class="ColorScheme-Text" d="M18-76c-1.108 0-2 .892-2 2v2h-1v3h6v-3h-1v-2c0-1.108-.892-2-2-2zm0 1c.554 0 1 .446 1 1v2h-2v-2c0-.554.446-1 1-1z" fill="currentColor" stroke-width=".1"/>
  <path id="path4892" class="ColorScheme-Text" d="m17-83-14 14h11v-3l1-1v-2l2-2v-6z" fill="currentColor" fill-rule="evenodd"/>
  <path id="path5070" class="ColorScheme-Text" d="M3-85v5h4v-3H5v1h1v1H4v-3h3v-1H3z" fill="currentColor"/>
 </g>
 <g id="network-mobile-60-gprs-locked">
  <path id="rect4868" d="M22-88h22v22H22z" fill="none" opacity=".55" stroke-width="3.567"/>
  <path id="path4870" class="ColorScheme-Text" d="m41-85-16 16h11v-3l1-1v-2l2-2h2v-8z" fill="currentColor" fill-rule="evenodd" opacity=".5"/>
  <path id="path4872" class="ColorScheme-Text" d="M40-76c-1.108 0-2 .892-2 2v2h-1v3h6v-3h-1v-2c0-1.108-.892-2-2-2zm0 1c.554 0 1 .446 1 1v2h-2v-2c0-.554.446-1 1-1z" fill="currentColor" stroke-width=".1"/>
  <path id="path4894" class="ColorScheme-Text" d="m37-81-12 12h11v-3l1-1v-8z" fill="currentColor" fill-rule="evenodd"/>
  <path id="path5072" class="ColorScheme-Text" d="m25-85v5h4v-3h-2v1h1v1h-2v-3h3v-1h-4z" fill="currentColor"/>
 </g>
 <g id="network-mobile-40-gprs-locked">
  <path id="rect4874" d="M44-88h22v22H44z" fill="none" opacity=".55" stroke-width="3.567"/>
  <path id="path4876" class="ColorScheme-Text" d="m63-85-16 16h11v-3l1-1v-2l2-2h2v-8z" fill="currentColor" fill-rule="evenodd" opacity=".5"/>
  <path id="path4878" class="ColorScheme-Text" d="M62-76c-1.108 0-2 .892-2 2v2h-1v3h6v-3h-1v-2c0-1.108-.892-2-2-2zm0 1c.554 0 1 .446 1 1v2h-2v-2c0-.554.446-1 1-1z" fill="currentColor" stroke-width=".1"/>
  <path id="path4896" class="ColorScheme-Text" d="m57-79-10 10h10v-10z" fill="currentColor" fill-rule="evenodd"/>
  <path id="path5074" class="ColorScheme-Text" d="m47-85v5h4v-3h-2v1h1v1h-2v-3h3v-1h-4z" fill="currentColor"/>
 </g>
 <g id="network-mobile-20-gprs-locked">
  <path id="rect4880" d="M66-88h22v22H66z" fill="none" opacity=".55" stroke-width="3.567"/>
  <path id="path4882" class="ColorScheme-Text" d="m85-85-16 16h11v-3l1-1v-2l2-2h2v-8z" fill="currentColor" fill-rule="evenodd" opacity=".5"/>
  <path id="path4884" class="ColorScheme-Text" d="M84-76c-1.108 0-2 .892-2 2v2h-1v3h6v-3h-1v-2c0-1.108-.892-2-2-2zm0 1c.554 0 1 .446 1 1v2h-2v-2c0-.554.446-1 1-1z" fill="currentColor" stroke-width=".1"/>
  <path id="path4898" class="ColorScheme-Text" d="m76-76-7 7h7v-7z" fill="currentColor" fill-rule="evenodd"/>
  <path id="path5076" class="ColorScheme-Text" d="m69-85v5h4v-3h-2v1h1v1h-2v-3h3v-1h-4z" fill="currentColor"/>
 </g>
 <g id="network-mobile-0-gprs-locked">
  <path id="rect4886" d="M88-88h22v22H88z" fill="none" opacity=".55" stroke-width="3.567"/>
  <path id="path4888" class="ColorScheme-Text" d="m107-85-16 16h11v-3l1-1v-2l2-2h2v-8z" fill="currentColor" fill-rule="evenodd" opacity=".5"/>
  <path id="path4890" class="ColorScheme-Text" d="M106-76c-1.108 0-2 .892-2 2v2h-1v3h6v-3h-1v-2c0-1.108-.892-2-2-2zm0 1c.554 0 1 .446 1 1v2h-2v-2c0-.554.446-1 1-1z" fill="currentColor" stroke-width=".1"/>
  <path id="path5078" class="ColorScheme-Text" d="m91-85v5h4v-3h-2v1h1v1h-2v-3h3v-1h-4z" fill="currentColor"/>
 </g>
 <g id="network-mobile-100-edge">
  <path id="rect5082" d="M-22-110H0v22h-22z" fill="none" opacity=".55" stroke-width="3.567"/>
  <path id="path5084" class="ColorScheme-Text" d="m-19-91 16-16v16z" fill="currentColor" fill-rule="evenodd"/>
  <path id="rect5000" class="ColorScheme-Text" d="m-19-107v5h4v-1h-3v-1h2v-1h-2v-1h3v-1h-4z" fill="currentColor"/>
 </g>
 <g id="network-mobile-80-edge">
  <path id="rect5088" d="M0-110h22v22H0z" fill="none" opacity=".55" stroke-width="3.567"/>
  <path id="path5090" class="ColorScheme-Text" d="m3-91 16-16v16z" fill="currentColor" fill-rule="evenodd" opacity=".5"/>
  <path id="path5092" class="ColorScheme-Text" d="M17-105L3-91h14z" fill="currentColor" fill-rule="evenodd"/>
  <path id="path5196" class="ColorScheme-Text" d="M3-107v5h4v-1H4v-1h2v-1H4v-1h3v-1H3z" fill="currentColor"/>
 </g>
 <g id="network-mobile-60-edge">
  <path id="rect5096" d="M22-110h22v22H22z" fill="none" opacity=".55" stroke-width="3.567"/>
  <path id="path5098" class="ColorScheme-Text" d="m25-91 16-16v16z" fill="currentColor" fill-rule="evenodd" opacity=".5"/>
  <path id="path5100" class="ColorScheme-Text" d="m37-103-12 12h12z" fill="currentColor" fill-rule="evenodd"/>
  <path id="path5198" class="ColorScheme-Text" d="m25-107v5h4v-1h-3v-1h2v-1h-2v-1h3v-1h-4z" fill="currentColor"/>
 </g>
 <g id="network-mobile-40-edge">
  <path id="rect5104" d="M44-110h22v22H44z" fill="none" opacity=".55" stroke-width="3.567"/>
  <path id="path5106" class="ColorScheme-Text" d="m47-91 16-16v16z" fill="currentColor" fill-rule="evenodd" opacity=".5"/>
  <path id="path5108" class="ColorScheme-Text" d="m57-101-10 10h10z" fill="currentColor" fill-rule="evenodd"/>
  <path id="path5200" class="ColorScheme-Text" d="m47-107v5h4v-1h-3v-1h2v-1h-2v-1h3v-1h-4z" fill="currentColor"/>
 </g>
 <g id="network-mobile-20-edge">
  <path id="rect5112" d="M66-110h22v22H66z" fill="none" opacity=".55" stroke-width="3.567"/>
  <path id="path5114" class="ColorScheme-Text" d="m69-91 16-16v16z" fill="currentColor" fill-rule="evenodd" opacity=".5"/>
  <path id="path5116" class="ColorScheme-Text" d="m76-98-7 7h7z" fill="currentColor" fill-rule="evenodd"/>
  <path id="path5202" class="ColorScheme-Text" d="m69-107v5h4v-1h-3v-1h2v-1h-2v-1h3v-1h-4z" fill="currentColor"/>
 </g>
 <g id="network-mobile-0-edge">
  <path id="rect5120" d="M88-110h22v22H88z" fill="none" opacity=".55" stroke-width="3.567"/>
  <path id="path5122" class="ColorScheme-Text" d="m91-91 16-16v16z" fill="currentColor" fill-rule="evenodd" opacity=".5"/>
  <path id="path5204" class="ColorScheme-Text" d="m91-107v5h4v-1h-3v-1h2v-1h-2v-1h3v-1h-4z" fill="currentColor"/>
 </g>
 <g id="network-mobile-100-edge-locked">
  <path id="rect5124" d="M-22-132H0v22h-22z" fill="none" opacity=".55" stroke-width="3.567"/>
  <path id="path5126" class="ColorScheme-Text" d="m-3-129-16 16h11v-3l1-1v-2l2-2h2v-8z" fill="currentColor" fill-rule="evenodd"/>
  <path id="path5128" class="ColorScheme-Text" d="M-4-120c-1.108 0-2 .892-2 2v2h-1v3h6v-3h-1v-2c0-1.108-.892-2-2-2zm0 1c.554 0 1 .446 1 1v2h-2v-2c0-.554.446-1 1-1z" fill="currentColor" stroke-width=".1"/>
  <path id="path5206" class="ColorScheme-Text" d="m-19-129v5h4v-1h-3v-1h2v-1h-2v-1h3v-1h-4z" fill="currentColor"/>
 </g>
 <g id="network-mobile-80-edge-locked">
  <path id="rect5130" d="M0-132h22v22H0z" fill="none" opacity=".55" stroke-width="3.567"/>
  <path id="path5132" class="ColorScheme-Text" d="m19-129-16 16h11v-3l1-1v-2l2-2h2v-8z" fill="currentColor" fill-rule="evenodd" opacity=".5"/>
  <path id="path5134" class="ColorScheme-Text" d="M18-120c-1.108 0-2 .892-2 2v2h-1v3h6v-3h-1v-2c0-1.108-.892-2-2-2zm0 1c.554 0 1 .446 1 1v2h-2v-2c0-.554.446-1 1-1z" fill="currentColor" stroke-width=".1"/>
  <path id="path5160" class="ColorScheme-Text" d="m17-127-14 14h11v-3l1-1v-2l2-2v-6z" fill="currentColor" fill-rule="evenodd"/>
  <path id="path5208" class="ColorScheme-Text" d="M3-129v5h4v-1H4v-1h2v-1H4v-1h3v-1H3z" fill="currentColor"/>
 </g>
 <g id="network-mobile-60-edge-locked">
  <path id="rect5136" d="M22-132h22v22H22z" fill="none" opacity=".55" stroke-width="3.567"/>
  <path id="path5138" class="ColorScheme-Text" d="m41-129-16 16h11v-3l1-1v-2l2-2h2v-8z" fill="currentColor" fill-rule="evenodd" opacity=".5"/>
  <path id="path5140" class="ColorScheme-Text" d="M40-120c-1.108 0-2 .892-2 2v2h-1v3h6v-3h-1v-2c0-1.108-.892-2-2-2zm0 1c.554 0 1 .446 1 1v2h-2v-2c0-.554.446-1 1-1z" fill="currentColor" stroke-width=".1"/>
  <path id="path5162" class="ColorScheme-Text" d="m37-125-12 12h11v-3l1-1v-8z" fill="currentColor" fill-rule="evenodd"/>
  <path id="path5210" class="ColorScheme-Text" d="m25-129v5h4v-1h-3v-1h2v-1h-2v-1h3v-1h-4z" fill="currentColor"/>
 </g>
 <g id="network-mobile-40-edge-locked">
  <path id="rect5142" d="M44-132h22v22H44z" fill="none" opacity=".55" stroke-width="3.567"/>
  <path id="path5144" class="ColorScheme-Text" d="m63-129-16 16h11v-3l1-1v-2l2-2h2v-8z" fill="currentColor" fill-rule="evenodd" opacity=".5"/>
  <path id="path5146" class="ColorScheme-Text" d="M62-120c-1.108 0-2 .892-2 2v2h-1v3h6v-3h-1v-2c0-1.108-.892-2-2-2zm0 1c.554 0 1 .446 1 1v2h-2v-2c0-.554.446-1 1-1z" fill="currentColor" stroke-width=".1"/>
  <path id="path5164" class="ColorScheme-Text" d="m57-123-10 10h10v-10z" fill="currentColor" fill-rule="evenodd"/>
  <path id="path5212" class="ColorScheme-Text" d="m47-129v5h4v-1h-3v-1h2v-1h-2v-1h3v-1h-4z" fill="currentColor"/>
 </g>
 <g id="network-mobile-20-edge-locked">
  <path id="rect5148" d="M66-132h22v22H66z" fill="none" opacity=".55" stroke-width="3.567"/>
  <path id="path5150" class="ColorScheme-Text" d="m85-129-16 16h11v-3l1-1v-2l2-2h2v-8z" fill="currentColor" fill-rule="evenodd" opacity=".5"/>
  <path id="path5152" class="ColorScheme-Text" d="M84-120c-1.108 0-2 .892-2 2v2h-1v3h6v-3h-1v-2c0-1.108-.892-2-2-2zm0 1c.554 0 1 .446 1 1v2h-2v-2c0-.554.446-1 1-1z" fill="currentColor" stroke-width=".1"/>
  <path id="path5166" class="ColorScheme-Text" d="m76-120-7 7h7v-7z" fill="currentColor" fill-rule="evenodd"/>
  <path id="path5214" class="ColorScheme-Text" d="m69-129v5h4v-1h-3v-1h2v-1h-2v-1h3v-1h-4z" fill="currentColor"/>
 </g>
 <g id="network-mobile-0-edge-locked">
  <path id="rect5154" d="M88-132h22v22H88z" fill="none" opacity=".55" stroke-width="3.567"/>
  <path id="path5156" class="ColorScheme-Text" d="m107-129-16 16h11v-3l1-1v-2l2-2h2v-8z" fill="currentColor" fill-rule="evenodd" opacity=".5"/>
  <path id="path5158" class="ColorScheme-Text" d="M106-120c-1.108 0-2 .892-2 2v2h-1v3h6v-3h-1v-2c0-1.108-.892-2-2-2zm0 1c.554 0 1 .446 1 1v2h-2v-2c0-.554.446-1 1-1z" fill="currentColor" stroke-width=".1"/>
  <path id="path5216" class="ColorScheme-Text" d="m91-129v5h4v-1h-3v-1h2v-1h-2v-1h3v-1h-4z" fill="currentColor"/>
 </g>
 <g id="network-mobile-100-umts">
  <path id="rect5218" d="M-22-154H0v22h-22z" fill="none" opacity=".55" stroke-width="3.567"/>
  <path id="path5220" class="ColorScheme-Text" d="m-19-135 16-16v16z" fill="currentColor" fill-rule="evenodd"/>
  <path id="rect4990" class="ColorScheme-Text" d="m-19-151v5h4v-5h-1v4h-2v-4h-1z" fill="currentColor"/>
 </g>
 <g id="network-mobile-80-umts">
  <path id="rect5222" d="M0-154h22v22H0z" fill="none" opacity=".55" stroke-width="3.567"/>
  <path id="path5224" class="ColorScheme-Text" d="m3-135 16-16v16z" fill="currentColor" fill-rule="evenodd" opacity=".5"/>
  <path id="path5226" class="ColorScheme-Text" d="m17-149-14 14h14z" fill="currentColor" fill-rule="evenodd"/>
  <path id="path5335" class="ColorScheme-Text" d="M3-151v5h4v-5H6v4H4v-4H3z" fill="currentColor"/>
 </g>
 <g id="network-mobile-60-umts">
  <path id="rect5230" d="M22-154h22v22H22z" fill="none" opacity=".55" stroke-width="3.567"/>
  <path id="path5232" class="ColorScheme-Text" d="m25-135 16-16v16z" fill="currentColor" fill-rule="evenodd" opacity=".5"/>
  <path id="path5234" class="ColorScheme-Text" d="m37-147-12 12h12z" fill="currentColor" fill-rule="evenodd"/>
  <path id="path5351" class="ColorScheme-Text" d="m25-151v5h4v-5h-1v4h-2v-4h-1z" fill="currentColor"/>
 </g>
 <g id="network-mobile-40-umts">
  <path id="rect5236" d="M44-154h22v22H44z" fill="none" opacity=".55" stroke-width="3.567"/>
  <path id="path5238" class="ColorScheme-Text" d="m47-135 16-16v16z" fill="currentColor" fill-rule="evenodd" opacity=".5"/>
  <path id="path5240" class="ColorScheme-Text" d="m57-145-10 10h10z" fill="currentColor" fill-rule="evenodd"/>
  <path id="path5353" class="ColorScheme-Text" d="m47-151v5h4v-5h-1v4h-2v-4h-1z" fill="currentColor"/>
 </g>
 <g id="network-mobile-20-umts">
  <path id="rect5242" d="M66-154h22v22H66z" fill="none" opacity=".55" stroke-width="3.567"/>
  <path id="path5244" class="ColorScheme-Text" d="m69-135 16-16v16z" fill="currentColor" fill-rule="evenodd" opacity=".5"/>
  <path id="path5246" class="ColorScheme-Text" d="m76-142-7 7h7z" fill="currentColor" fill-rule="evenodd"/>
  <path id="path5359" class="ColorScheme-Text" d="m69-151v5h4v-5h-1v4h-2v-4h-1z" fill="currentColor"/>
 </g>
 <g id="network-mobile-0-umts">
  <path id="rect5248" d="M88-154h22v22H88z" fill="none" opacity=".55" stroke-width="3.567"/>
  <path id="path5250" class="ColorScheme-Text" d="m91-135 16-16v16z" fill="currentColor" fill-rule="evenodd" opacity=".5"/>
  <path id="path5361" class="ColorScheme-Text" d="m91-151v5h4v-5h-1v4h-2v-4h-1z" fill="currentColor"/>
 </g>
 <g id="network-mobile-100-umts-locked">
  <path id="rect5252" d="M-22-176H0v22h-22z" fill="none" opacity=".55" stroke-width="3.567"/>
  <path id="path5254" class="ColorScheme-Text" d="m-3-173-16 16h11v-3l1-1v-2l2-2h2v-8z" fill="currentColor" fill-rule="evenodd"/>
  <path id="path5256" class="ColorScheme-Text" d="M-4-164c-1.108 0-2 .892-2 2v2h-1v3h6v-3h-1v-2c0-1.108-.892-2-2-2zm0 1c.554 0 1 .446 1 1v2h-2v-2c0-.554.446-1 1-1z" fill="currentColor" stroke-width=".1"/>
  <path id="path5347" class="ColorScheme-Text" d="m-19-173v5h4v-5h-1v4h-2v-4h-1z" fill="currentColor"/>
 </g>
 <g id="network-mobile-80-umts-locked">
  <path id="rect5258" d="M0-176h22v22H0z" fill="none" opacity=".55" stroke-width="3.567"/>
  <path id="path5260" class="ColorScheme-Text" d="m19-173-16 16h11v-3l1-1v-2l2-2h2v-8z" fill="currentColor" fill-rule="evenodd" opacity=".5"/>
  <path id="path5262" class="ColorScheme-Text" d="M18-164c-1.108 0-2 .892-2 2v2h-1v3h6v-3h-1v-2c0-1.108-.892-2-2-2zm0 1c.554 0 1 .446 1 1v2h-2v-2c0-.554.446-1 1-1z" fill="currentColor" stroke-width=".1"/>
  <path id="path5288" class="ColorScheme-Text" d="m17-171-14 14h11v-3l1-1v-2l2-2v-6z" fill="currentColor" fill-rule="evenodd"/>
  <path id="path5349" class="ColorScheme-Text" d="M3-173v5h4v-5H6v4H4v-4H3z" fill="currentColor"/>
 </g>
 <g id="network-mobile-60-umts-locked">
  <path id="rect5264" d="M22-176h22v22H22z" fill="none" opacity=".55" stroke-width="3.567"/>
  <path id="path5266" class="ColorScheme-Text" d="m41-173-16 16h11v-3l1-1v-2l2-2h2v-8z" fill="currentColor" fill-rule="evenodd" opacity=".5"/>
  <path id="path5268" class="ColorScheme-Text" d="M40-164c-1.108 0-2 .892-2 2v2h-1v3h6v-3h-1v-2c0-1.108-.892-2-2-2zm0 1c.554 0 1 .446 1 1v2h-2v-2c0-.554.446-1 1-1z" fill="currentColor" stroke-width=".1"/>
  <path id="path5290" class="ColorScheme-Text" d="m37-169-12 12h11v-3l1-1v-8z" fill="currentColor" fill-rule="evenodd"/>
  <path id="path5355" class="ColorScheme-Text" d="m25-173v5h4v-5h-1v4h-2v-4h-1z" fill="currentColor"/>
 </g>
 <g id="network-mobile-40-umts-locked">
  <path id="rect5270" d="M44-176h22v22H44z" fill="none" opacity=".55" stroke-width="3.567"/>
  <path id="path5272" class="ColorScheme-Text" d="m63-173-16 16h11v-3l1-1v-2l2-2h2v-8z" fill="currentColor" fill-rule="evenodd" opacity=".5"/>
  <path id="path5274" class="ColorScheme-Text" d="M62-164c-1.108 0-2 .892-2 2v2h-1v3h6v-3h-1v-2c0-1.108-.892-2-2-2zm0 1c.554 0 1 .446 1 1v2h-2v-2c0-.554.446-1 1-1z" fill="currentColor" stroke-width=".1"/>
  <path id="path5292" class="ColorScheme-Text" d="m57-167-10 10h10v-10z" fill="currentColor" fill-rule="evenodd"/>
  <path id="path5357" class="ColorScheme-Text" d="m47-173v5h4v-5h-1v4h-2v-4h-1z" fill="currentColor"/>
 </g>
 <g id="network-mobile-20-umts-locked">
  <path id="rect5276" d="M66-176h22v22H66z" fill="none" opacity=".55" stroke-width="3.567"/>
  <path id="path5278" class="ColorScheme-Text" d="m85-173-16 16h11v-3l1-1v-2l2-2h2v-8z" fill="currentColor" fill-rule="evenodd" opacity=".5"/>
  <path id="path5280" class="ColorScheme-Text" d="M84-164c-1.108 0-2 .892-2 2v2h-1v3h6v-3h-1v-2c0-1.108-.892-2-2-2zm0 1c.554 0 1 .446 1 1v2h-2v-2c0-.554.446-1 1-1z" fill="currentColor" stroke-width=".1"/>
  <path id="path5294" class="ColorScheme-Text" d="m76-164-7 7h7v-7z" fill="currentColor" fill-rule="evenodd"/>
  <path id="path5363" class="ColorScheme-Text" d="m69-173v5h4v-5h-1v4h-2v-4h-1z" fill="currentColor"/>
 </g>
 <g id="network-mobile-0-umts-locked">
  <path id="rect5282" d="M88-176h22v22H88z" fill="none" opacity=".55" stroke-width="3.567"/>
  <path id="path5284" class="ColorScheme-Text" d="m107-173-16 16h11v-3l1-1v-2l2-2h2v-8z" fill="currentColor" fill-rule="evenodd" opacity=".5"/>
  <path id="path5286" class="ColorScheme-Text" d="M106-164c-1.108 0-2 .892-2 2v2h-1v3h6v-3h-1v-2c0-1.108-.892-2-2-2zm0 1c.554 0 1 .446 1 1v2h-2v-2c0-.554.446-1 1-1z" fill="currentColor" stroke-width=".1"/>
  <path id="path5365" class="ColorScheme-Text" d="m91-173v5h4v-5h-1v4h-2v-4h-1z" fill="currentColor"/>
 </g>
 <g id="network-mobile-100-hspa">
  <path id="rect5369" d="M-22-198H0v22h-22z" fill="none" opacity=".55" stroke-width="3.567"/>
  <path id="path5371" class="ColorScheme-Text" d="m-19-179 16-16v16z" fill="currentColor" fill-rule="evenodd"/>
  <path id="rect5018" class="ColorScheme-Text" d="m-19-195v5h1v-2h2v2h1v-5h-1v2h-2v-2h-1z" fill="currentColor"/>
 </g>
 <g id="network-mobile-80-hspa">
  <path id="rect5375" d="M0-198h22v22H0z" fill="none" opacity=".55" stroke-width="3.567"/>
  <path id="path5377" class="ColorScheme-Text" d="m3-179 16-16v16z" fill="currentColor" fill-rule="evenodd" opacity=".5"/>
  <path id="path5379" class="ColorScheme-Text" d="m17-193-14 14h14z" fill="currentColor" fill-rule="evenodd"/>
  <path id="path5495" class="ColorScheme-Text" d="M3-195v5h1v-2h2v2h1v-5H6v2H4v-2H3z" fill="currentColor"/>
 </g>
 <g id="network-mobile-60-hspa">
  <path id="rect5383" d="M22-198h22v22H22z" fill="none" opacity=".55" stroke-width="3.567"/>
  <path id="path5385" class="ColorScheme-Text" d="m25-179 16-16v16z" fill="currentColor" fill-rule="evenodd" opacity=".5"/>
  <path id="path5387" class="ColorScheme-Text" d="m37-191-12 12h12z" fill="currentColor" fill-rule="evenodd"/>
  <path id="path5501" class="ColorScheme-Text" d="m25-195v5h1v-2h2v2h1v-5h-1v2h-2v-2h-1z" fill="currentColor"/>
 </g>
 <g id="network-mobile-40-hspa">
  <path id="rect5391" d="M44-198h22v22H44z" fill="none" opacity=".55" stroke-width="3.567"/>
  <path id="path5393" class="ColorScheme-Text" d="m47-179 16-16v16z" fill="currentColor" fill-rule="evenodd" opacity=".5"/>
  <path id="path5395" class="ColorScheme-Text" d="m57-189-10 10h10z" fill="currentColor" fill-rule="evenodd"/>
  <path id="path5503" class="ColorScheme-Text" d="m47-195v5h1v-2h2v2h1v-5h-1v2h-2v-2h-1z" fill="currentColor"/>
 </g>
 <g id="network-mobile-20-hspa">
  <path id="rect5399" d="M66-198h22v22H66z" fill="none" opacity=".55" stroke-width="3.567"/>
  <path id="path5401" class="ColorScheme-Text" d="m69-179 16-16v16z" fill="currentColor" fill-rule="evenodd" opacity=".5"/>
  <path id="path5403" class="ColorScheme-Text" d="m76-186-7 7h7z" fill="currentColor" fill-rule="evenodd"/>
  <path id="path5509" class="ColorScheme-Text" d="m69-195v5h1v-2h2v2h1v-5h-1v2h-2v-2h-1z" fill="currentColor"/>
 </g>
 <g id="network-mobile-0-hspa">
  <path id="rect5407" d="M88-198h22v22H88z" fill="none" opacity=".55" stroke-width="3.567"/>
  <path id="path5409" class="ColorScheme-Text" d="m91-179 16-16v16z" fill="currentColor" fill-rule="evenodd" opacity=".5"/>
  <path id="path5511" class="ColorScheme-Text" d="m91-195v5h1v-2h2v2h1v-5h-1v2h-2v-2h-1z" fill="currentColor"/>
 </g>
 <g id="network-mobile-100-hspa-locked">
  <path id="rect5411" d="M-22-220H0v22h-22z" fill="none" opacity=".55" stroke-width="3.567"/>
  <path id="path5413" class="ColorScheme-Text" d="m-3-217-16 16h11v-3l1-1v-2l2-2h2v-8z" fill="currentColor" fill-rule="evenodd"/>
  <path id="path5415" class="ColorScheme-Text" d="M-4-208c-1.108 0-2 .892-2 2v2h-1v3h6v-3h-1v-2c0-1.108-.892-2-2-2zm0 1c.554 0 1 .446 1 1v2h-2v-2c0-.554.446-1 1-1z" fill="currentColor" stroke-width=".1"/>
  <path id="path5497" class="ColorScheme-Text" d="m-19-217v5h1v-2h2v2h1v-5h-1v2h-2v-2h-1z" fill="currentColor"/>
 </g>
 <g id="network-mobile-80-hspa-locked">
  <path id="rect5417" d="M0-220h22v22H0z" fill="none" opacity=".55" stroke-width="3.567"/>
  <path id="path5419" class="ColorScheme-Text" d="m19-217-16 16h11v-3l1-1v-2l2-2h2v-8z" fill="currentColor" fill-rule="evenodd" opacity=".5"/>
  <path id="path5421" class="ColorScheme-Text" d="M18-208c-1.108 0-2 .892-2 2v2h-1v3h6v-3h-1v-2c0-1.108-.892-2-2-2zm0 1c.554 0 1 .446 1 1v2h-2v-2c0-.554.446-1 1-1z" fill="currentColor" stroke-width=".1"/>
  <path id="path5447" class="ColorScheme-Text" d="m17-215-14 14h11v-3l1-1v-2l2-2v-6z" fill="currentColor" fill-rule="evenodd"/>
  <path id="path5499" class="ColorScheme-Text" d="M3-217v5h1v-2h2v2h1v-5H6v2H4v-2H3z" fill="currentColor"/>
 </g>
 <g id="network-mobile-60-hspa-locked">
  <path id="rect5423" d="M22-220h22v22H22z" fill="none" opacity=".55" stroke-width="3.567"/>
  <path id="path5425" class="ColorScheme-Text" d="m41-217-16 16h11v-3l1-1v-2l2-2h2v-8z" fill="currentColor" fill-rule="evenodd" opacity=".5"/>
  <path id="path5427" class="ColorScheme-Text" d="M40-208c-1.108 0-2 .892-2 2v2h-1v3h6v-3h-1v-2c0-1.108-.892-2-2-2zm0 1c.554 0 1 .446 1 1v2h-2v-2c0-.554.446-1 1-1z" fill="currentColor" stroke-width=".1"/>
  <path id="path5449" class="ColorScheme-Text" d="m37-213-12 12h11v-3l1-1v-8z" fill="currentColor" fill-rule="evenodd"/>
  <path id="path5505" class="ColorScheme-Text" d="m25-217v5h1v-2h2v2h1v-5h-1v2h-2v-2h-1z" fill="currentColor"/>
 </g>
 <g id="network-mobile-40-hspa-locked">
  <path id="rect5429" d="M44-220h22v22H44z" fill="none" opacity=".55" stroke-width="3.567"/>
  <path id="path5431" class="ColorScheme-Text" d="m63-217-16 16h11v-3l1-1v-2l2-2h2v-8z" fill="currentColor" fill-rule="evenodd" opacity=".5"/>
  <path id="path5433" class="ColorScheme-Text" d="M62-208c-1.108 0-2 .892-2 2v2h-1v3h6v-3h-1v-2c0-1.108-.892-2-2-2zm0 1c.554 0 1 .446 1 1v2h-2v-2c0-.554.446-1 1-1z" fill="currentColor" stroke-width=".1"/>
  <path id="path5451" class="ColorScheme-Text" d="m57-211-10 10h10v-10z" fill="currentColor" fill-rule="evenodd"/>
  <path id="path5507" class="ColorScheme-Text" d="m47-217v5h1v-2h2v2h1v-5h-1v2h-2v-2h-1z" fill="currentColor"/>
 </g>
 <g id="network-mobile-20-hspa-locked">
  <path id="rect5435" d="M66-220h22v22H66z" fill="none" opacity=".55" stroke-width="3.567"/>
  <path id="path5437" class="ColorScheme-Text" d="m85-217-16 16h11v-3l1-1v-2l2-2h2v-8z" fill="currentColor" fill-rule="evenodd" opacity=".5"/>
  <path id="path5439" class="ColorScheme-Text" d="M84-208c-1.108 0-2 .892-2 2v2h-1v3h6v-3h-1v-2c0-1.108-.892-2-2-2zm0 1c.554 0 1 .446 1 1v2h-2v-2c0-.554.446-1 1-1z" fill="currentColor" stroke-width=".1"/>
  <path id="path5453" class="ColorScheme-Text" d="m76-208-7 7h7v-7z" fill="currentColor" fill-rule="evenodd"/>
  <path id="path5513" class="ColorScheme-Text" d="m69-217v5h1v-2h2v2h1v-5h-1v2h-2v-2h-1z" fill="currentColor"/>
 </g>
 <g id="network-mobile-0-hspa-locked">
  <path id="rect5441" d="M88-220h22v22H88z" fill="none" opacity=".55" stroke-width="3.567"/>
  <path id="path5443" class="ColorScheme-Text" d="m107-217-16 16h11v-3l1-1v-2l2-2h2v-8z" fill="currentColor" fill-rule="evenodd" opacity=".5"/>
  <path id="path5445" class="ColorScheme-Text" d="M106-208c-1.108 0-2 .892-2 2v2h-1v3h6v-3h-1v-2c0-1.108-.892-2-2-2zm0 1c.554 0 1 .446 1 1v2h-2v-2c0-.554.446-1 1-1z" fill="currentColor" stroke-width=".1"/>
  <path id="path5515" class="ColorScheme-Text" d="m91-217v5h1v-2h2v2h1v-5h-1v2h-2v-2h-1z" fill="currentColor"/>
 </g>
 <g id="network-mobile-100-hsupa">
  <path id="rect5517" d="M-22-242H0v22h-22z" fill="none" opacity=".55" stroke-width="3.567"/>
  <path id="path5519" class="ColorScheme-Text" d="m-19-223 16-16v16z" fill="currentColor" fill-rule="evenodd"/>
  <path id="path5033" class="ColorScheme-Text" d="m-19-239v5h1v-2h2v2h1v-5h-1v2h-2v-2h-1zm6 0-1 2h2l-1-2z" fill="currentColor"/>
 </g>
 <g id="network-mobile-80-hsupa">
  <path id="rect5521" d="M0-242h22v22H0z" fill="none" opacity=".55" stroke-width="3.567"/>
  <path id="path5523" class="ColorScheme-Text" d="m3-223 16-16v16z" fill="currentColor" fill-rule="evenodd" opacity=".5"/>
  <path id="path5525" class="ColorScheme-Text" d="m17-237-14 14h14z" fill="currentColor" fill-rule="evenodd"/>
  <path id="path5641" class="ColorScheme-Text" d="M3-239v5h1v-2h2v2h1v-5H6v2H4v-2H3zm6 0l-1 2h2l-1-2z" fill="currentColor"/>
 </g>
 <g id="network-mobile-60-hsupa">
  <path id="rect5527" d="M22-242h22v22H22z" fill="none" opacity=".55" stroke-width="3.567"/>
  <path id="path5529" class="ColorScheme-Text" d="m25-223 16-16v16z" fill="currentColor" fill-rule="evenodd" opacity=".5"/>
  <path id="path5531" class="ColorScheme-Text" d="m37-235-12 12h12z" fill="currentColor" fill-rule="evenodd"/>
  <path id="path5645" class="ColorScheme-Text" d="m25-239v5h1v-2h2v2h1v-5h-1v2h-2v-2h-1zm6 0-1 2h2l-1-2z" fill="currentColor"/>
 </g>
 <g id="network-mobile-40-hsupa">
  <path id="rect5533" d="M44-242h22v22H44z" fill="none" opacity=".55" stroke-width="3.567"/>
  <path id="path5535" class="ColorScheme-Text" d="m47-223 16-16v16z" fill="currentColor" fill-rule="evenodd" opacity=".5"/>
  <path id="path5537" class="ColorScheme-Text" d="m57-233-10 10h10z" fill="currentColor" fill-rule="evenodd"/>
  <path id="path5649" class="ColorScheme-Text" d="m47-239v5h1v-2h2v2h1v-5h-1v2h-2v-2h-1zm6 0-1 2h2l-1-2z" fill="currentColor"/>
 </g>
 <g id="network-mobile-20-hsupa">
  <path id="rect5539" d="M66-242h22v22H66z" fill="none" opacity=".55" stroke-width="3.567"/>
  <path id="path5541" class="ColorScheme-Text" d="m69-223 16-16v16z" fill="currentColor" fill-rule="evenodd" opacity=".5"/>
  <path id="path5543" class="ColorScheme-Text" d="m76-230-7 7h7z" fill="currentColor" fill-rule="evenodd"/>
  <path id="path5653" class="ColorScheme-Text" d="m69-239v5h1v-2h2v2h1v-5h-1v2h-2v-2h-1zm6 0-1 2h2l-1-2z" fill="currentColor"/>
 </g>
 <g id="network-mobile-0-hsupa">
  <path id="rect5545" d="M88-242h22v22H88z" fill="none" opacity=".55" stroke-width="3.567"/>
  <path id="path5547" class="ColorScheme-Text" d="m91-223 16-16v16z" fill="currentColor" fill-rule="evenodd" opacity=".5"/>
  <path id="path5657" class="ColorScheme-Text" d="m91-239v5h1v-2h2v2h1v-5h-1v2h-2v-2h-1zm6 0-1 2h2l-1-2z" fill="currentColor"/>
 </g>
 <g id="network-mobile-100-hsupa-locked">
  <path id="rect5549" d="M-22-264H0v22h-22z" fill="none" opacity=".55" stroke-width="3.567"/>
  <path id="path5551" class="ColorScheme-Text" d="m-3-261-16 16h11v-3l1-1v-2l2-2h2v-8z" fill="currentColor" fill-rule="evenodd"/>
  <path id="path5553" class="ColorScheme-Text" d="M-4-252c-1.108 0-2 .892-2 2v2h-1v3h6v-3h-1v-2c0-1.108-.892-2-2-2zm0 1c.554 0 1 .446 1 1v2h-2v-2c0-.554.446-1 1-1z" fill="currentColor" stroke-width=".1"/>
  <path id="path5639" class="ColorScheme-Text" d="m-19-261v5h1v-2h2v2h1v-5h-1v2h-2v-2h-1zm6 0-1 2h2l-1-2z" fill="currentColor"/>
 </g>
 <g id="network-mobile-80-hsupa-locked">
  <path id="rect5555" d="M0-264h22v22H0z" fill="none" opacity=".55" stroke-width="3.567"/>
  <path id="path5557" class="ColorScheme-Text" d="m19-261-16 16h11v-3l1-1v-2l2-2h2v-8z" fill="currentColor" fill-rule="evenodd" opacity=".5"/>
  <path id="path5559" class="ColorScheme-Text" d="M18-252c-1.108 0-2 .892-2 2v2h-1v3h6v-3h-1v-2c0-1.108-.892-2-2-2zm0 1c.554 0 1 .446 1 1v2h-2v-2c0-.554.446-1 1-1z" fill="currentColor" stroke-width=".1"/>
  <path id="path5585" class="ColorScheme-Text" d="m17-259-14 14h11v-3l1-1v-2l2-2v-6z" fill="currentColor" fill-rule="evenodd"/>
  <path id="path5643" class="ColorScheme-Text" d="M3-261v5h1v-2h2v2h1v-5H6v2H4v-2H3zm6 0l-1 2h2l-1-2z" fill="currentColor"/>
 </g>
 <g id="network-mobile-60-hsupa-locked">
  <path id="rect5561" d="M22-264h22v22H22z" fill="none" opacity=".55" stroke-width="3.567"/>
  <path id="path5563" class="ColorScheme-Text" d="m41-261-16 16h11v-3l1-1v-2l2-2h2v-8z" fill="currentColor" fill-rule="evenodd" opacity=".5"/>
  <path id="path5565" class="ColorScheme-Text" d="M40-252c-1.108 0-2 .892-2 2v2h-1v3h6v-3h-1v-2c0-1.108-.892-2-2-2zm0 1c.554 0 1 .446 1 1v2h-2v-2c0-.554.446-1 1-1z" fill="currentColor" stroke-width=".1"/>
  <path id="path5587" class="ColorScheme-Text" d="m37-257-12 12h11v-3l1-1v-8z" fill="currentColor" fill-rule="evenodd"/>
  <path id="path5647" class="ColorScheme-Text" d="m25-261v5h1v-2h2v2h1v-5h-1v2h-2v-2h-1zm6 0-1 2h2l-1-2z" fill="currentColor"/>
 </g>
 <g id="network-mobile-40-hsupa-locked">
  <path id="rect5567" d="M44-264h22v22H44z" fill="none" opacity=".55" stroke-width="3.567"/>
  <path id="path5569" class="ColorScheme-Text" d="m63-261-16 16h11v-3l1-1v-2l2-2h2v-8z" fill="currentColor" fill-rule="evenodd" opacity=".5"/>
  <path id="path5571" class="ColorScheme-Text" d="M62-252c-1.108 0-2 .892-2 2v2h-1v3h6v-3h-1v-2c0-1.108-.892-2-2-2zm0 1c.554 0 1 .446 1 1v2h-2v-2c0-.554.446-1 1-1z" fill="currentColor" stroke-width=".1"/>
  <path id="path5589" class="ColorScheme-Text" d="m57-255-10 10h10v-10z" fill="currentColor" fill-rule="evenodd"/>
  <path id="path5651" class="ColorScheme-Text" d="m47-261v5h1v-2h2v2h1v-5h-1v2h-2v-2h-1zm6 0-1 2h2l-1-2z" fill="currentColor"/>
 </g>
 <g id="network-mobile-20-hsupa-locked">
  <path id="rect5573" d="M66-264h22v22H66z" fill="none" opacity=".55" stroke-width="3.567"/>
  <path id="path5575" class="ColorScheme-Text" d="m85-261-16 16h11v-3l1-1v-2l2-2h2v-8z" fill="currentColor" fill-rule="evenodd" opacity=".5"/>
  <path id="path5577" class="ColorScheme-Text" d="M84-252c-1.108 0-2 .892-2 2v2h-1v3h6v-3h-1v-2c0-1.108-.892-2-2-2zm0 1c.554 0 1 .446 1 1v2h-2v-2c0-.554.446-1 1-1z" fill="currentColor" stroke-width=".1"/>
  <path id="path5591" class="ColorScheme-Text" d="m76-252-7 7h7v-7z" fill="currentColor" fill-rule="evenodd"/>
  <path id="path5655" class="ColorScheme-Text" d="m69-261v5h1v-2h2v2h1v-5h-1v2h-2v-2h-1zm6 0-1 2h2l-1-2z" fill="currentColor"/>
 </g>
 <g id="network-mobile-0-hsupa-locked">
  <path id="rect5579" d="M88-264h22v22H88z" fill="none" opacity=".55" stroke-width="3.567"/>
  <path id="path5581" class="ColorScheme-Text" d="m107-261-16 16h11v-3l1-1v-2l2-2h2v-8z" fill="currentColor" fill-rule="evenodd" opacity=".5"/>
  <path id="path5583" class="ColorScheme-Text" d="M106-252c-1.108 0-2 .892-2 2v2h-1v3h6v-3h-1v-2c0-1.108-.892-2-2-2zm0 1c.554 0 1 .446 1 1v2h-2v-2c0-.554.446-1 1-1z" fill="currentColor" stroke-width=".1"/>
  <path id="path5659" class="ColorScheme-Text" d="m91-261v5h1v-2h2v2h1v-5h-1v2h-2v-2h-1zm6 0-1 2h2l-1-2z" fill="currentColor"/>
 </g>
 <g id="network-mobile-100-hsdpa">
  <path id="rect5661" d="M-22-286H0v22h-22z" fill="none" opacity=".55" stroke-width="3.567"/>
  <path id="path5663" class="ColorScheme-Text" d="m-19-267 16-16v16z" fill="currentColor" fill-rule="evenodd"/>
  <path id="path5037" class="ColorScheme-Text" d="m-19-283v5h1v-2h2v2h1v-5h-1v2h-2v-2h-1zm5 0 1 2 1-2h-2z" fill="currentColor"/>
 </g>
 <g id="network-mobile-80-hsdpa">
  <path id="rect5665" d="M0-286h22v22H0z" fill="none" opacity=".55" stroke-width="3.567"/>
  <path id="path5667" class="ColorScheme-Text" d="m3-267 16-16v16z" fill="currentColor" fill-rule="evenodd" opacity=".5"/>
  <path id="path5669" class="ColorScheme-Text" d="m17-281-14 14h14z" fill="currentColor" fill-rule="evenodd"/>
  <path id="path5936" class="ColorScheme-Text" d="m6.5-283v5h1v-2h2v2h1v-5h-1v2h-2v-2h-1zm5 0 1 2 1-2h-2z" fill="currentColor"/>
 </g>
 <g id="network-mobile-60-hsdpa">
  <path id="rect5671" d="M22-286h22v22H22z" fill="none" opacity=".55" stroke-width="3.567"/>
  <path id="path5673" class="ColorScheme-Text" d="m25-267 16-16v16z" fill="currentColor" fill-rule="evenodd" opacity=".5"/>
  <path id="path5675" class="ColorScheme-Text" d="m37-279-12 12h12z" fill="currentColor" fill-rule="evenodd"/>
  <path id="path5940" class="ColorScheme-Text" d="m25-283v5h1v-2h2v2h1v-5h-1v2h-2v-2h-1zm5 0 1 2 1-2h-2z" fill="currentColor"/>
 </g>
 <g id="network-mobile-40-hsdpa">
  <path id="rect5677" d="M44-286h22v22H44z" fill="none" opacity=".55" stroke-width="3.567"/>
  <path id="path5679" class="ColorScheme-Text" d="m47-267 16-16v16z" fill="currentColor" fill-rule="evenodd" opacity=".5"/>
  <path id="path5681" class="ColorScheme-Text" d="m57-277-10 10h10z" fill="currentColor" fill-rule="evenodd"/>
  <path id="path5944" class="ColorScheme-Text" d="m50.5-283v5h1v-2h2v2h1v-5h-1v2h-2v-2h-1zm5 0 1 2 1-2h-2z" fill="currentColor"/>
 </g>
 <g id="network-mobile-20-hsdpa">
  <path id="rect5683" d="M66-286h22v22H66z" fill="none" opacity=".55" stroke-width="3.567"/>
  <path id="path5685" class="ColorScheme-Text" d="m69-267 16-16v16z" fill="currentColor" fill-rule="evenodd" opacity=".5"/>
  <path id="path5687" class="ColorScheme-Text" d="m76-274-7 7h7z" fill="currentColor" fill-rule="evenodd"/>
  <path id="path5948" class="ColorScheme-Text" d="m69-283v5h1v-2h2v2h1v-5h-1v2h-2v-2h-1zm5 0 1 2 1-2h-2z" fill="currentColor"/>
 </g>
 <g id="network-mobile-0-hsdpa">
  <path id="rect5689" d="M88-286h22v22H88z" fill="none" opacity=".55" stroke-width="3.567"/>
  <path id="path5691" class="ColorScheme-Text" d="m91-267 16-16v16z" fill="currentColor" fill-rule="evenodd" opacity=".5"/>
  <path id="path5952" class="ColorScheme-Text" d="m94.5-283v5h1v-2h2v2h1v-5h-1v2h-2v-2h-1zm5 0 1 2 1-2h-2z" fill="currentColor"/>
 </g>
 <g id="network-mobile-100-hsdpa-locked">
  <path id="rect5693" d="M-22-308H0v22h-22z" fill="none" opacity=".55" stroke-width="3.567"/>
  <path id="path5695" class="ColorScheme-Text" d="m-3-305-16 16h11v-3l1-1v-2l2-2h2v-8z" fill="currentColor" fill-rule="evenodd"/>
  <path id="path5697" class="ColorScheme-Text" d="M-4-296c-1.108 0-2 .892-2 2v2h-1v3h6v-3h-1v-2c0-1.108-.892-2-2-2zm0 1c.554 0 1 .446 1 1v2h-2v-2c0-.554.446-1 1-1z" fill="currentColor" stroke-width=".1"/>
  <path id="path5934" class="ColorScheme-Text" d="m-19-305v5h1v-2h2v2h1v-5h-1v2h-2v-2h-1zm5 0 1 2 1-2h-2z" fill="currentColor"/>
 </g>
 <g id="network-mobile-80-hsdpa-locked">
  <path id="rect5699" d="M0-308h22v22H0z" fill="none" opacity=".55" stroke-width="3.567"/>
  <path id="path5701" class="ColorScheme-Text" d="m19-305-16 16h11v-3l1-1v-2l2-2h2v-8z" fill="currentColor" fill-rule="evenodd" opacity=".5"/>
  <path id="path5703" class="ColorScheme-Text" d="M18-296c-1.108 0-2 .892-2 2v2h-1v3h6v-3h-1v-2c0-1.108-.892-2-2-2zm0 1c.554 0 1 .446 1 1v2h-2v-2c0-.554.446-1 1-1z" fill="currentColor" stroke-width=".1"/>
  <path id="path5729" class="ColorScheme-Text" d="m17-303-14 14h11v-3l1-1v-2l2-2v-6z" fill="currentColor" fill-rule="evenodd"/>
  <path id="path5938" class="ColorScheme-Text" d="m6.5-305v5h1v-2h2v2h1v-5h-1v2h-2v-2h-1zm5 0 1 2 1-2h-2z" fill="currentColor"/>
 </g>
 <g id="network-mobile-60-hsdpa-locked">
  <path id="rect5705" d="M22-308h22v22H22z" fill="none" opacity=".55" stroke-width="3.567"/>
  <path id="path5707" class="ColorScheme-Text" d="m41-305-16 16h11v-3l1-1v-2l2-2h2v-8z" fill="currentColor" fill-rule="evenodd" opacity=".5"/>
  <path id="path5709" class="ColorScheme-Text" d="M40-296c-1.108 0-2 .892-2 2v2h-1v3h6v-3h-1v-2c0-1.108-.892-2-2-2zm0 1c.554 0 1 .446 1 1v2h-2v-2c0-.554.446-1 1-1z" fill="currentColor" stroke-width=".1"/>
  <path id="path5731" class="ColorScheme-Text" d="m37-301-12 12h11v-3l1-1v-8z" fill="currentColor" fill-rule="evenodd"/>
  <path id="path5942" class="ColorScheme-Text" d="m25-305v5h1v-2h2v2h1v-5h-1v2h-2v-2h-1zm5 0 1 2 1-2h-2z" fill="currentColor"/>
 </g>
 <g id="network-mobile-40-hsdpa-locked">
  <path id="rect5711" d="M44-308h22v22H44z" fill="none" opacity=".55" stroke-width="3.567"/>
  <path id="path5713" class="ColorScheme-Text" d="m63-305-16 16h11v-3l1-1v-2l2-2h2v-8z" fill="currentColor" fill-rule="evenodd" opacity=".5"/>
  <path id="path5715" class="ColorScheme-Text" d="M62-296c-1.108 0-2 .892-2 2v2h-1v3h6v-3h-1v-2c0-1.108-.892-2-2-2zm0 1c.554 0 1 .446 1 1v2h-2v-2c0-.554.446-1 1-1z" fill="currentColor" stroke-width=".1"/>
  <path id="path5733" class="ColorScheme-Text" d="m57-299-10 10h10v-10z" fill="currentColor" fill-rule="evenodd"/>
  <path id="path5946" class="ColorScheme-Text" d="m50.5-305v5h1v-2h2v2h1v-5h-1v2h-2v-2h-1zm5 0 1 2 1-2h-2z" fill="currentColor"/>
 </g>
 <g id="network-mobile-20-hsdpa-locked">
  <path id="rect5717" d="M66-308h22v22H66z" fill="none" opacity=".55" stroke-width="3.567"/>
  <path id="path5719" class="ColorScheme-Text" d="m85-305-16 16h11v-3l1-1v-2l2-2h2v-8z" fill="currentColor" fill-rule="evenodd" opacity=".5"/>
  <path id="path5721" class="ColorScheme-Text" d="M84-296c-1.108 0-2 .892-2 2v2h-1v3h6v-3h-1v-2c0-1.108-.892-2-2-2zm0 1c.554 0 1 .446 1 1v2h-2v-2c0-.554.446-1 1-1z" fill="currentColor" stroke-width=".1"/>
  <path id="path5735" class="ColorScheme-Text" d="m76-296-7 7h7v-7z" fill="currentColor" fill-rule="evenodd"/>
  <path id="path5950" class="ColorScheme-Text" d="m69-305v5h1v-2h2v2h1v-5h-1v2h-2v-2h-1zm5 0 1 2 1-2h-2z" fill="currentColor"/>
 </g>
 <g id="network-mobile-0-hsdpa-locked">
  <path id="rect5723" d="M88-308h22v22H88z" fill="none" opacity=".55" stroke-width="3.567"/>
  <path id="path5725" class="ColorScheme-Text" d="m107-305-16 16h11v-3l1-1v-2l2-2h2v-8z" fill="currentColor" fill-rule="evenodd" opacity=".5"/>
  <path id="path5727" class="ColorScheme-Text" d="M106-296c-1.108 0-2 .892-2 2v2h-1v3h6v-3h-1v-2c0-1.108-.892-2-2-2zm0 1c.554 0 1 .446 1 1v2h-2v-2c0-.554.446-1 1-1z" fill="currentColor" stroke-width=".1"/>
  <path id="path5954" class="ColorScheme-Text" d="m94.5-305v5h1v-2h2v2h1v-5h-1v2h-2v-2h-1zm5 0 1 2 1-2h-2z" fill="currentColor"/>
 </g>
 <g id="network-mobile-100-lte" transform="translate(0 44)">
  <path id="rect5858" d="M-22-374H0v22h-22z" fill="none" opacity=".55" stroke-width="3.567"/>
  <path id="path5860" class="ColorScheme-Text" d="m-19-355 16-16v16z" fill="currentColor" fill-rule="evenodd"/>
  <path id="rect5010" class="ColorScheme-Text" d="m-19-371v5h4v-1h-3v-4h-1z" fill="currentColor"/>
 </g>
 <g id="network-mobile-80-lte" transform="translate(0 44)">
  <path id="rect5862" d="M0-374h22v22H0z" fill="none" opacity=".55" stroke-width="3.567"/>
  <path id="path5864" class="ColorScheme-Text" d="m3-355 16-16v16z" fill="currentColor" fill-rule="evenodd" opacity=".5"/>
  <path id="path5866" class="ColorScheme-Text" d="m17-369-14 14h14z" fill="currentColor" fill-rule="evenodd"/>
  <path id="path6017" class="ColorScheme-Text" d="M3-371v5h4v-1H4v-4H3z" fill="currentColor"/>
 </g>
 <g id="network-mobile-60-lte" transform="translate(0 44)">
  <path id="rect5868" d="M22-374h22v22H22z" fill="none" opacity=".55" stroke-width="3.567"/>
  <path id="path5870" class="ColorScheme-Text" d="m25-355 16-16v16z" fill="currentColor" fill-rule="evenodd" opacity=".5"/>
  <path id="path5872" class="ColorScheme-Text" d="m37-367-12 12h12z" fill="currentColor" fill-rule="evenodd"/>
  <path id="path6019" class="ColorScheme-Text" d="m25-371v5h4v-1h-3v-4h-1z" fill="currentColor"/>
 </g>
 <g id="network-mobile-40-lte" transform="translate(0 44)">
  <path id="rect5874" d="M44-374h22v22H44z" fill="none" opacity=".55" stroke-width="3.567"/>
  <path id="path5876" class="ColorScheme-Text" d="m47-355 16-16v16z" fill="currentColor" fill-rule="evenodd" opacity=".5"/>
  <path id="path5878" class="ColorScheme-Text" d="m57-365-10 10h10z" fill="currentColor" fill-rule="evenodd"/>
  <path id="path6021" class="ColorScheme-Text" d="m47-371v5h4v-1h-3v-4h-1z" fill="currentColor"/>
 </g>
 <g id="network-mobile-20-lte" transform="translate(0 44)">
  <path id="rect5880" d="M66-374h22v22H66z" fill="none" opacity=".55" stroke-width="3.567"/>
  <path id="path5882" class="ColorScheme-Text" d="m69-355 16-16v16z" fill="currentColor" fill-rule="evenodd" opacity=".5"/>
  <path id="path5884" class="ColorScheme-Text" d="m76-362-7 7h7z" fill="currentColor" fill-rule="evenodd"/>
  <path id="path6023" class="ColorScheme-Text" d="m69-371v5h4v-1h-3v-4h-1z" fill="currentColor"/>
 </g>
 <g id="network-mobile-0-lte" transform="translate(0 44)">
  <path id="rect5886" d="M88-374h22v22H88z" fill="none" opacity=".55" stroke-width="3.567"/>
  <path id="path5888" class="ColorScheme-Text" d="m91-355 16-16v16z" fill="currentColor" fill-rule="evenodd" opacity=".5"/>
  <path id="path6025" class="ColorScheme-Text" d="m91-371v5h4v-1h-3v-4h-1z" fill="currentColor"/>
 </g>
 <g id="network-mobile-100-lte-locked" transform="translate(0 44)">
  <path id="rect5890" d="M-22-396H0v22h-22z" fill="none" opacity=".55" stroke-width="3.567"/>
  <path id="path5892" class="ColorScheme-Text" d="m-3-393-16 16h11v-3l1-1v-2l2-2h2v-8z" fill="currentColor" fill-rule="evenodd"/>
  <path id="path5894" class="ColorScheme-Text" d="M-4-384c-1.108 0-2 .892-2 2v2h-1v3h6v-3h-1v-2c0-1.108-.892-2-2-2zm0 1c.554 0 1 .446 1 1v2h-2v-2c0-.554.446-1 1-1z" fill="currentColor" stroke-width=".1"/>
  <path id="path6027" class="ColorScheme-Text" d="m-19-393v5h4v-1h-3v-4h-1z" fill="currentColor"/>
 </g>
 <g id="network-mobile-80-lte-locked" transform="translate(0 44)">
  <path id="rect5896" d="M0-396h22v22H0z" fill="none" opacity=".55" stroke-width="3.567"/>
  <path id="path5898" class="ColorScheme-Text" d="m19-393-16 16h11v-3l1-1v-2l2-2h2v-8z" fill="currentColor" fill-rule="evenodd" opacity=".5"/>
  <path id="path5900" class="ColorScheme-Text" d="M18-384c-1.108 0-2 .892-2 2v2h-1v3h6v-3h-1v-2c0-1.108-.892-2-2-2zm0 1c.554 0 1 .446 1 1v2h-2v-2c0-.554.446-1 1-1z" fill="currentColor" stroke-width=".1"/>
  <path id="path5926" class="ColorScheme-Text" d="m17-391-14 14h11v-3l1-1v-2l2-2v-6z" fill="currentColor" fill-rule="evenodd"/>
  <path id="path6029" class="ColorScheme-Text" d="M3-393v5h4v-1H4v-4H3z" fill="currentColor"/>
 </g>
 <g id="network-mobile-60-lte-locked" transform="translate(0 44)">
  <path id="rect5902" d="M22-396h22v22H22z" fill="none" opacity=".55" stroke-width="3.567"/>
  <path id="path5904" class="ColorScheme-Text" d="m41-393-16 16h11v-3l1-1v-2l2-2h2v-8z" fill="currentColor" fill-rule="evenodd" opacity=".5"/>
  <path id="path5906" class="ColorScheme-Text" d="M40-384c-1.108 0-2 .892-2 2v2h-1v3h6v-3h-1v-2c0-1.108-.892-2-2-2zm0 1c.554 0 1 .446 1 1v2h-2v-2c0-.554.446-1 1-1z" fill="currentColor" stroke-width=".1"/>
  <path id="path5928" class="ColorScheme-Text" d="m37-389-12 12h11v-3l1-1v-8z" fill="currentColor" fill-rule="evenodd"/>
  <path id="path6031" class="ColorScheme-Text" d="m25-393v5h4v-1h-3v-4h-1z" fill="currentColor"/>
 </g>
 <g id="network-mobile-40-lte-locked" transform="translate(0 44)">
  <path id="rect5908" d="M44-396h22v22H44z" fill="none" opacity=".55" stroke-width="3.567"/>
  <path id="path5910" class="ColorScheme-Text" d="m63-393-16 16h11v-3l1-1v-2l2-2h2v-8z" fill="currentColor" fill-rule="evenodd" opacity=".5"/>
  <path id="path5912" class="ColorScheme-Text" d="M62-384c-1.108 0-2 .892-2 2v2h-1v3h6v-3h-1v-2c0-1.108-.892-2-2-2zm0 1c.554 0 1 .446 1 1v2h-2v-2c0-.554.446-1 1-1z" fill="currentColor" stroke-width=".1"/>
  <path id="path5930" class="ColorScheme-Text" d="m57-387-10 10h10v-10z" fill="currentColor" fill-rule="evenodd"/>
  <path id="path6033" class="ColorScheme-Text" d="m47-393v5h4v-1h-3v-4h-1z" fill="currentColor"/>
 </g>
 <g id="network-mobile-20-lte-locked" transform="translate(0 44)">
  <path id="rect5914" d="M66-396h22v22H66z" fill="none" opacity=".55" stroke-width="3.567"/>
  <path id="path5916" class="ColorScheme-Text" d="m85-393-16 16h11v-3l1-1v-2l2-2h2v-8z" fill="currentColor" fill-rule="evenodd" opacity=".5"/>
  <path id="path5918" class="ColorScheme-Text" d="M84-384c-1.108 0-2 .892-2 2v2h-1v3h6v-3h-1v-2c0-1.108-.892-2-2-2zm0 1c.554 0 1 .446 1 1v2h-2v-2c0-.554.446-1 1-1z" fill="currentColor" stroke-width=".1"/>
  <path id="path5932" class="ColorScheme-Text" d="m76-384-7 7h7v-7z" fill="currentColor" fill-rule="evenodd"/>
  <path id="path6035" class="ColorScheme-Text" d="m69-393v5h4v-1h-3v-4h-1z" fill="currentColor"/>
 </g>
 <g id="network-mobile-0-lte-locked" transform="translate(0 44)">
  <path id="rect5920" d="M88-396h22v22H88z" fill="none" opacity=".55" stroke-width="3.567"/>
  <path id="path5922" class="ColorScheme-Text" d="m107-393-16 16h11v-3l1-1v-2l2-2h2v-8z" fill="currentColor" fill-rule="evenodd" opacity=".5"/>
  <path id="path5924" class="ColorScheme-Text" d="M106-384c-1.108 0-2 .892-2 2v2h-1v3h6v-3h-1v-2c0-1.108-.892-2-2-2zm0 1c.554 0 1 .446 1 1v2h-2v-2c0-.554.446-1 1-1z" fill="currentColor" stroke-width=".1"/>
  <path id="path6037" class="ColorScheme-Text" d="m91-393v5h4v-1h-3v-4h-1z" fill="currentColor"/>
 </g>
 <g id="network-vpn" transform="translate(62,38.423)">
  <path id="rect6813" d="m22 128h22v22h-22z" fill="none"/>
  <path id="path4943-9-4-1-2" class="ColorScheme-Text" d="m33 131s-2 2.658-8 3.324c0 0 0 9.334 8 12.676 8-3.342 8-12.676 8-12.676-6-0.666-8-3.324-8-3.324zm0 1.377c1.587 1.345 3.877 2.242 6.846 2.693-0.162 1.446-0.316 2.533-0.69 3.584-0.785 2.21-1.7 3.553-2.521 4.52-1.272 1.498-2.428 2.104-3.635 2.707-1.207-0.603-2.363-1.21-3.635-2.707-0.82-0.967-1.736-2.31-2.521-4.52-0.374-1.05-0.528-2.138-0.69-3.584 2.969-0.551 5.259-1.348 6.846-2.693zm0 1.2c-1.743 1.21-3.702 1.822-5.668 2.24 0.93 5.281 2.936 7.54 5.668 8.954 2.732-1.414 4.737-3.673 5.668-8.955-1.966-0.417-3.925-1.03-5.668-2.24z" color="#dfdfdf" fill="currentColor"/>
 </g>
 <g id="network-mobile-on" transform="translate(-44)">
  <path id="rect4198-0" d="M-22-22H0V0h-22z" fill="none" opacity=".55" stroke-width="3.567"/>
  <path id="path4220-4" class="ColorScheme-Text" d="m-19-3 16-16v16z" fill="currentColor" fill-rule="evenodd"/>
 </g>
 <g id="network-flightmode-on" transform="translate(-65)">
  <path id="rect4528-3" d="m-45 0h22v22h-22z" fill="none"/>
  <path id="path4467-5" class="ColorScheme-Text" transform="translate(21)" d="m-55 3s-1 0-1 3v2.5l-1.1 0.55v-0.05h-0.8v0.55h-0.1v0.2l-2 1v-0.5h-0.1v-0.55h-0.8v0.55h-0.1v1l-2 1v1l2.191-0.273 0.11 0.273h0.398l0.143-0.355 2.752-0.344h0.105l6e-3 -0.014 1.295-0.412v2.875c0 0.488 0.24 0.972 0.484 1.344l-2.484 1.656v1l3-1 3 1v-1l-2.484-1.656c0.243-0.372 0.484-0.856 0.484-1.344v-2.875l1.295 0.162 6e-3 0.014h0.105l2.752 0.344 0.143 0.355h0.398l0.11-0.273 2.191 0.273v-1l-2-1v-1h-0.1v-0.55h-0.8v0.55h-0.1v0.5l-2-1v-0.2h-0.1v-0.55h-0.8v0.05l-1.1-0.3v-2.5c0-3-1-3-1-3z" color="#dfdfdf" fill="currentColor" fill-rule="evenodd"/>
 </g>
 <g id="network-mobile-off" transform="translate(-36 -74)">
  <path id="rect4437-6" d="m146 52h22v22h-22z" fill="none" opacity=".2" stroke-width="3.567"/>
  <path id="path4439-7" class="ColorScheme-Text" d="M165 55l-16 16h12.902l-.853-.854 2.152-2.15-2.152-2.152 1.308-1.307.46-.46 2.152 2.152.031-.032z" fill="currentColor" fill-rule="evenodd" opacity=".5"/>
  <path id="path6" class="ColorScheme-NegativeText" d="M162.817 64.996l-.848.848 2.151 2.152-2.151 2.151.848.849 2.152-2.152 2.151 2.152.849-.849-2.152-2.151 2.152-2.152-.849-.848-2.151 2.151z" fill="currentColor" stroke-width="1.2"/>
 </g>
 <path id="rect1603" d="m158.62 35.04h22v22h-22z" fill="none" opacity=".2" stroke-width="3.567"/>
 <g id="network-flightmode-off" transform="translate(10 -34)">
  <path id="path1607" class="ColorScheme-NegativeText" d="M-127.152 48l-.848.848 2.152 2.152L-128 53.15l.848.849 2.152-2.152 2.152 2.152.848-.849-2.152-2.151 2.152-2.152-.848-.848L-125 50.15z" fill="currentColor" stroke-width="1.2"/>
  <path id="rect1646" d="m-142 34h22v22h-22z" fill="none"/>
  <path id="path1648" class="ColorScheme-Text" d="m-131 37s-1 0-1 3v2.5l-1.1 0.55v-0.05h-0.8v0.55h-0.1v0.2l-2 1v-0.5h-0.1v-0.55h-0.8v0.55h-0.1v1l-2 1v1l2.191-0.273 0.11 0.273h0.398l0.143-0.355 2.752-0.344h0.105l6e-3 -0.014 1.295-0.412v2.875c0 0.488 0.24 0.972 0.484 1.344l-2.484 1.656v1l3-1 2 0.672v-1.344l-1.484-0.984c0.243-0.372 0.484-0.856 0.484-1.344v-2.875l1.295 0.162 6e-3 0.014h0.105l2.752 0.344 0.143 0.355h0.398l0.11-0.273 2.191 0.273v-1l-2-1v-1h-0.1v-0.55h-0.8v0.55h-0.1v0.5l-2-1v-0.2h-0.1v-0.55h-0.8v0.05l-1.1-0.3v-2.5c0-3-1-3-1-3z" color="#dfdfdf" fill="currentColor" fill-rule="evenodd" opacity=".5"/>
 </g>
 <g id="flightmode-off" transform="translate(54 -34)">
  <path id="path1816" class="ColorScheme-NegativeText" d="M-127.152 48l-.848.848 2.152 2.152L-128 53.15l.848.849 2.152-2.152 2.152 2.152.848-.849-2.152-2.151 2.152-2.152-.848-.848L-125 50.15z" fill="currentColor" stroke-width="1.2"/>
  <path id="rect1818" d="m-142 34h22v22h-22z" fill="none"/>
  <path id="path1820" class="ColorScheme-Text" d="m-131 37s-1 0-1 3v2.5l-1.1 0.55v-0.05h-0.8v0.55h-0.1v0.2l-2 1v-0.5h-0.1v-0.55h-0.8v0.55h-0.1v1l-2 1v1l2.191-0.273 0.11 0.273h0.398l0.143-0.355 2.752-0.344h0.105l6e-3 -0.014 1.295-0.412v2.875c0 0.488 0.24 0.972 0.484 1.344l-2.484 1.656v1l3-1 2 0.672v-1.344l-1.484-0.984c0.243-0.372 0.484-0.856 0.484-1.344v-2.875l1.295 0.162 6e-3 0.014h0.105l2.752 0.344 0.143 0.355h0.398l0.11-0.273 2.191 0.273v-1l-2-1v-1h-0.1v-0.55h-0.8v0.55h-0.1v0.5l-2-1v-0.2h-0.1v-0.55h-0.8v0.05l-1.1-0.3v-2.5c0-3-1-3-1-3z" color="#dfdfdf" fill="currentColor" fill-rule="evenodd" opacity=".5"/>
 </g>
 <g id="network-wired-activated-limited" transform="translate(33,-204)">
  <rect id="rect2426" x="48" y="204" width="22" height="22" fill="none" style="paint-order:stroke fill markers"/>
  <g id="g1583" transform="translate(51,207)" enable-background="new">
   <path id="path1566" d="m10 0.469v2.531h-3v1h4v-1.469l3.564 2.969-0.564 0.563v1.25l2-1.813-5.187-4.375zm-2 6.531v1h2v-1z" fill="#dfdfdf" opacity=".35"/>
   <path id="path1568" d="M 6,4.469 5.188,5.125 0,9.5 5.188,13.875 6,14.531 V 12 H 9 V 11 H 5 v 1.469 L 1.594,9.5 5,6.531 V 8 H 8 V 7 H 6 V 5.5 Z" fill="#dfdfdf" opacity=".35"/>
   <path id="path1570" d="m11 6v4l0.25 2h1.5l0.25-2v-4zm0 7v2h2v-2z" color="#dfdfdf" fill="#fdbc4b"/>
  </g>
 </g>
 <g id="network-wired-available" transform="translate(33,-204)">
  <rect id="rect2420" x="-33" y="204" width="22" height="22" fill="none" style="paint-order:stroke fill markers"/>
  <g id="g1631" transform="translate(-30,207)" enable-background="new">
   <g id="g1618" color="#000000" fill="#dfdfdf">
    <path id="path1614" d="m10 0.469v2.531h-3v1h4v-1.469l3.406 2.969-3.406 2.969v-1.469h-3v1h2v2.531l0.813-0.656 5.187-4.375-5.188-4.375z"/>
    <path id="path1616" d="M 6,4.469 5.187,5.125 0,9.5 5.188,13.875 6,14.531 V 12 H 9 V 11 H 5 v 1.469 L 1.594,9.5 5,6.531 V 8 H 8 V 7 H 6 V 5.5 Z" fill="#3498db"/>
   </g>
  </g>
 </g>
 <g id="network-wired-activated" transform="translate(33,-204)">
  <rect id="rect2422" x="-6" y="204" width="22" height="22" fill="none" style="paint-order:stroke fill markers"/>
  <g id="g1655" transform="translate(-3,207)" enable-background="new">
   <g id="g1642" color="#000000" fill="#dfdfdf">
    <path id="path1638" d="m10 0.469v2.531h-3v1h4v-1.469l3.406 2.969-3.406 2.969v-1.469h-3v1h2v2.531l0.813-0.656 5.187-4.375-5.188-4.375z"/>
    <path id="path1640" d="M 6,4.469 5.187,5.125 0,9.5 5.188,13.875 6,14.531 V 12 H 9 V 11 H 5 v 1.469 L 1.594,9.5 5,6.531 V 8 H 8 V 7 H 6 V 5.5 Z"/>
   </g>
  </g>
 </g>
 <g id="network-wired-activated-locked" transform="translate(33,-204)">
  <rect id="rect2424" x="21" y="204" width="22" height="22" fill="none" style="paint-order:stroke fill markers"/>
  <g id="g1721" transform="translate(24,207)" enable-background="new">
   <path id="path1710" d="m10 0.469v2.531h-3v1h4v-1.469l3.406 2.969-3.406 2.969v-1.469h-5v-2.531l-0.813 0.656-5.187 4.375 5.188 4.375 0.812 0.656v-2.531h3v-1h-4v1.469l-3.406-2.969 3.406-2.969v1.469h5v2.531l0.063-0.031c0.253-1.402 1.464-2.5 2.937-2.5 0.043 0 0.083-2e-3 0.125 0l2.875-2.5-5.188-4.375zm3 8.531c-1.108 0-2 0.91-2 2.031v0.969h-1v4h6v-4h-1v-0.969c0-1.12-0.892-2.031-2-2.031zm0 1c0.554 0 1 0.442 1 1v1h-2v-1c0-0.558 0.446-1 1-1z" fill="#dfdfdf"/>
  </g>
 </g>
 <g id="network-unavailable" transform="translate(33,-204)">
  <rect id="rect2418" x="-60" y="204" width="22" height="22" fill="none" style="paint-order:stroke fill markers"/>
  <g id="g1772" transform="translate(-57,207)" enable-background="new">
   <g id="g1758" fill="#dfdfdf">
    <path id="path1752" d="m10 0.469v2.531h-3v1h4v-1.469l3.406 2.969-3.406 2.969v-1.469h-3v1h2v2.531l0.812-0.656 5.188-4.375-5.188-4.375z" color="#000000" opacity=".35"/>
    <path id="path1754" d="M 6,4.469 5.187,5.125 0,9.5 5.187,13.875 6,14.531 V 12 H 9 V 11 H 5 v 1.469 L 1.594,9.5 5,6.531 V 8 H 8 V 7 H 6 V 5.5 Z" color="#000000" opacity=".35"/>
    <path id="path1756" d="m11 11v1c0 0.276 0.1 0.538 0.281 0.719l0.781 0.781-0.78 0.781a1.015 1.015 0 0 0-0.282 0.719v1h1c0.276 0 0.538-0.1 0.719-0.281l0.781-0.781 0.781 0.78c0.181 0.182 0.443 0.282 0.719 0.282h1v-1c0-0.276-0.1-0.538-0.281-0.719l-0.782-0.781 0.782-0.781c0.18-0.181 0.281-0.443 0.281-0.719v-1h-1c-0.276 0-0.538 0.1-0.719 0.281l-0.781 0.781-0.781-0.78a1.015 1.015 0 0 0-0.719-0.282z" enable-background="new"/>
   </g>
  </g>
 </g>
 <g id="network-wireless-off" transform="translate(33,-204)">
  <rect id="rect2270" x="-60" y="260" width="22" height="22" fill="none" style="paint-order:stroke fill markers"/>
  <g id="g1876" transform="translate(-57 263)" fill="#dfdfdf">
   <path id="path1862" d="m8.0312 2c-0.72537 0-1.4325 0.066974-2.1211 0.18359l0.53906 0.93555c0.49492-0.074094 0.99976-0.11914 1.5195-0.11914h0.00195c2.393 0 4.5225 0.83625 6.4355 2.0312l-4.209 4.5781 0.53125 0.91992 5.2715-5.8105c-2.257-1.654-4.9578-2.7188-7.9688-2.7188zm-3.1504 0.40234c-1.7887 0.45662-3.4314 1.2777-4.8809 2.3477l8.0312 8.75 1.9902-2.1934-0.5332-0.92578-1.5176 1.6504-6.377-7.0312c1.1875-0.73688 2.4561-1.3336 3.8184-1.6777l-0.53125-0.91992z" color="#000000" opacity=".35"/>
   <rect id="rect1864" transform="rotate(-30)" x="2.0263" y="2.4904" width="1" height="16" rx="0" ry="0"/>
  </g>
 </g>
 <g id="network-wireless-disconnected" transform="translate(33,-204)">
  <rect id="rect2264" x="-60" y="233" width="22" height="22" fill="none" style="paint-order:stroke fill markers"/>
  <g id="g1892" transform="translate(-57 236)" fill="#dfdfdf">
   <path id="path1878" d="m8.031 2c-3.034 0-5.766 1.078-8.031 2.75l8.031 8.75 7.969-8.781c-2.257-1.654-4.958-2.719-7.969-2.719zm-0.061 1c2.393 0 4.524 0.836 6.437 2.031l-6.437 7-6.376-7.031c1.9-1.179 4.005-2 6.375-2z" color="#000000" overflow="visible"/>
   <path id="path1880" d="m6.5859 4.0859c-0.12781 0-0.25558 0.04855-0.35352 0.14648-0.19587 0.19587-0.19587 0.51116 0 0.70703l1.0605 1.0605-1.0605 1.0605c-0.19587 0.19587-0.19587 0.51116 0 0.70703s0.51116 0.19587 0.70703 0l1.0605-1.0605 1.0605 1.0605c0.19587 0.19587 0.51116 0.19587 0.70703 0s0.19587-0.51116 0-0.70703l-1.0605-1.0605 1.0605-1.0605c0.19587-0.19587 0.19587-0.51116 0-0.70703s-0.51116-0.19587-0.70703 0l-1.0605 1.0605-1.0605-1.0605c-0.097934-0.097934-0.22571-0.14648-0.35352-0.14648z" fill-rule="evenodd" opacity=".5" style="paint-order:fill markers stroke"/>
  </g>
 </g>
 <g id="network-wireless-available" transform="translate(33,-204)">
  <rect id="rect2266" x="-88" y="233" width="22" height="22" fill="none" style="paint-order:stroke fill markers"/>
  <g id="g1950" transform="translate(-85 236)" enable-background="new">
   <g id="g1937" fill="#dfdfdf">
    <path id="path1933" d="m7.846 3c1.643-0.092 3.096 1.17 3.188 2.813 0 1.4-0.378 1.921-1.594 2.843-0.191 0.144-0.326 0.25-0.375 0.313-0.05 0.062-0.031 0.033-0.031 0.031 7e-3 0.528-0.472 1-1 1-0.529 0-1.007-0.472-1-1 0-0.502 0.224-0.943 0.468-1.25a3.82 3.82 0 0 1 0.72-0.688c0.203-0.16 0.46-0.384 0.687-0.656 0.093-0.112 0.129-0.307 0.125-0.437v-0.032a0.988 0.988 0 0 0-1.064-0.937c-0.563 0.032-0.969 0.437-0.937 1h-2c-0.092-1.642 1.17-2.908 2.812-3zm0.188 8a1 1 0 1 1 0 2 1 1 0 0 1 0-2z" color="#dfdfdf" overflow="visible" stroke-width="2"/>
    <path id="path1935" d="m8.031 2c1.214 9e-3 2.319 0.585 3.063 1.469 1.174 0.355 2.27 0.885 3.312 1.531l-5.093 5.594c0.266 0.23 0.472 0.52 0.593 0.844l6.094-6.72c-2.257-1.652-4.958-2.718-7.969-2.718zm-0.375 0.031c-2.883 0.086-5.485 1.117-7.656 2.719l6.156 6.687c0.121-0.324 0.328-0.612 0.594-0.843l-5.156-5.564a14.089 14.089 0 0 1 3.281-1.53 4.005 4.005 0 0 1 2.781-1.469zm-3.5 2.875a16.75 16.75 0 0 0-0.906 0.438l0.781 0.843v-0.125a3.658 3.658 0 0 1 0.125-1.156zm7.719 0c0.079 0.274 0.14 0.548 0.156 0.844v0.062c0 0.11-0.026 0.207-0.03 0.313l0.75-0.813c-0.287-0.146-0.585-0.277-0.876-0.406zm-7.094 2.094 1.313 1.406a3.16 3.16 0 0 1 0.625-1.281c0.043-0.055 0.08-0.075 0.125-0.125h-1.814z" color="#000000" enable-background="accumulate" opacity=".35" overflow="visible"/>
   </g>
  </g>
 </g>
 <g id="network-wireless-connected-00" transform="translate(33,-204)">
  <rect id="rect2250" x="101" y="260" width="22" height="22" fill="none" style="paint-order:stroke fill markers"/>
  <g id="g1968" transform="translate(104 263)" enable-background="new">
   <path id="path1957" d="m8.031 2c-3.034 0-5.766 1.078-8.031 2.75l8.031 8.75 7.969-8.781c-2.257-1.654-4.958-2.719-7.969-2.719zm-0.061 1c2.393 0 4.524 0.836 6.437 2.031l-6.437 7-6.376-7.031c1.9-1.179 4.005-2 6.375-2z" color="#000000" enable-background="accumulate" fill="#dfdfdf" opacity=".35" overflow="visible"/>
  </g>
 </g>
 <g id="network-wireless-100-locked" transform="translate(33,-204)">
  <rect id="rect2214" x="-32" y="288" width="22" height="22" fill="none" style="paint-order:stroke fill markers"/>
  <g id="g1980" transform="translate(-29 290)" fill="#dfdfdf">
   <path id="path1970" d="m13 9c-1.108 0-2 0.91-2 2.031v0.969h-0.5s-0.5 0-0.5 0.5v3c0 0.5 0.5 0.5 0.5 0.5h5s0.5 0 0.5-0.5v-3c0-0.5-0.5-0.5-0.5-0.5h-0.5v-0.969c0-1.12-0.892-2.031-2-2.031zm0 1c0.554 0 1 0.442 1 1v1h-2v-1c0-0.558 0.446-1 1-1z"/>
   <g id="g1976" color="#000000">
    <path id="path1972" d="m8.0312 2c-3.034 0-5.7662 1.078-8.0312 2.75l8.0312 8.75 0.98242-1.084c0.039757-0.55238 0.44336-1.0752 0.78906-1.248 0.10277-0.05137 0.10613-0.02201 0.19727-0.04687v-0.08984c0-1.6515 1.3445-3.0312 3-3.0312 0.0067 0 0.01284 0.00191 0.01953 0.00195l2.9805-3.2832c-2.257-1.654-4.9578-2.7188-7.9688-2.7188zm-0.00195 1h0.00195c2.37 0 4.474 0.821 6.375 2l-6.375 7-6.4375-6.9688c1.913-1.195 4.0435-2.0312 6.4355-2.0312z"/>
    <path id="path1974" d="M 8.031,4 C 6.301,4 4.742,4.573 3.25,5.344 L 8.031,10.5 12.75,5.312 C 11.274,4.556 9.74,4 8.031,4 Z" fill="#dfdfdf" overflow="visible"/>
   </g>
   <path id="path1978" d="m13 9c-1.108 0-2 0.91-2 2.031v0.969h-0.5s-0.5 0-0.5 0.5v3s0 0.5 0.5 0.5h5c0.5 0 0.5-0.5 0.5-0.5v-3c0-0.5-0.5-0.5-0.5-0.5h-0.5v-0.969c0-1.12-0.892-2.031-2-2.031zm0 1c0.554 0 1 0.442 1 1v1h-2v-1c0-0.558 0.446-1 1-1z"/>
  </g>
 </g>
 <g id="network-wireless-connected-100" transform="translate(33,-204)">
  <rect id="rect2240" x="-32" y="260" width="22" height="22" fill="none" style="paint-order:stroke fill markers"/>
  <g id="g2018" transform="translate(-29 263)" enable-background="new">
   <g id="g2005" color="#000000" fill="#dfdfdf">
    <path id="path2001" d="M 8.031,2 C 4.997,2 2.265,3.078 0,4.75 L 8.031,13.5 16,4.719 C 13.743,3.065 11.042,2 8.031,2 Z m 0,1 c 2.37,0 4.474,0.821 6.375,2 L 8.031,12 1.594,5.031 C 3.507,3.836 5.638,3 8.03,3 Z" enable-background="accumulate" overflow="visible"/>
    <path id="path2003" d="M 8.031,4 C 6.301,4 4.742,4.573 3.25,5.344 L 8.031,10.5 12.75,5.312 C 11.274,4.556 9.74,4 8.031,4 Z" enable-background="accumulate" overflow="visible"/>
   </g>
  </g>
 </g>
 <g id="network-wireless-connected-80" transform="translate(33,-204)">
  <rect id="rect2242" x="-5" y="260" width="22" height="22" fill="none" style="paint-order:stroke fill markers"/>
  <g id="g2068" transform="translate(-2.003 263)" enable-background="new">
   <g id="g2055" color="#000000" fill="#dfdfdf">
    <path id="path2051" d="m8.034 2c-3.034 0-5.766 1.078-8.031 2.75l8.031 8.75 7.969-8.781c-2.257-1.654-4.958-2.719-7.969-2.719zm-0.062 1c2.393 0 4.524 0.836 6.437 2.031l-6.437 7-6.375-7.031c1.9-1.179 4.005-2 6.375-2z" enable-background="accumulate" overflow="visible"/>
    <path id="path2053" d="m7.972 4.969c-1.488 0-2.85 0.421-4.094 1.062l4.094 4.5 4.125-4.469c-1.255-0.647-2.625-1.092-4.125-1.092z" enable-background="accumulate" overflow="visible"/>
   </g>
  </g>
 </g>
 <g id="network-wireless-connected-20" transform="translate(33,-204)">
  <rect id="rect2248" x="75" y="260" width="22" height="22" fill="none" style="paint-order:stroke fill markers"/>
  <g id="g2086" transform="translate(78 263)" enable-background="new">
   <path id="path2075" d="m8.031 2c-3.034 0-5.766 1.078-8.031 2.75l8.031 8.75 7.969-8.781c-2.257-1.654-4.958-2.719-7.969-2.719zm-0.061 1c2.393 0 4.524 0.836 6.437 2.031l-6.437 7-6.376-7.031c1.9-1.179 4.005-2 6.375-2z" color="#000000" enable-background="accumulate" fill="#dfdfdf" overflow="visible"/>
  </g>
 </g>
 <g id="network-wireless-connected-60" transform="translate(33,-204)">
  <rect id="rect2244" x="22" y="260" width="22" height="22" fill="none" style="paint-order:stroke fill markers"/>
  <g id="g2136" transform="translate(24.997 263)" enable-background="new">
   <g id="g2123" color="#000000" fill="#dfdfdf">
    <path id="path2119" d="m8.034 2c-3.034 0-5.766 1.078-8.031 2.75l8.031 8.75 7.969-8.781c-2.257-1.654-4.958-2.719-7.969-2.719zm-0.062 1c2.393 0 4.524 0.836 6.437 2.031l-6.437 7-6.375-7.031c1.9-1.179 4.005-2 6.375-2z" enable-background="accumulate" overflow="visible"/>
    <path id="path2121" d="m7.972 6.406c-1.12 0-2.148 0.258-3.094 0.719l3.094 3.406 3.093-3.375c-0.948-0.461-1.973-0.75-3.093-0.75z" enable-background="accumulate" overflow="visible"/>
   </g>
  </g>
 </g>
 <g id="network-wireless-connected-40" transform="translate(33,-204)">
  <rect id="rect2246" x="49" y="260" width="22" height="22" fill="none" style="paint-order:stroke fill markers"/>
  <g id="g2185" transform="translate(52 263)" enable-background="new">
   <g id="g2172" color="#000000" fill="#dfdfdf">
    <path id="path2168" d="m8.031 2c-3.034 0-5.766 1.078-8.031 2.75l8.031 8.75 7.969-8.781c-2.257-1.654-4.958-2.719-7.969-2.719zm-0.061 1c2.393 0 4.524 0.836 6.437 2.031l-6.437 7-6.376-7.031c1.9-1.179 4.005-2 6.375-2z" enable-background="accumulate" overflow="visible"/>
    <path id="path2170" d="m7.969 7.813c-0.74 0-1.425 0.16-2.063 0.437l2.063 2.281 2.093-2.25c-0.65-0.287-1.338-0.469-2.093-0.469z" enable-background="accumulate" overflow="visible"/>
   </g>
  </g>
 </g>
 <g id="network-wireless-80-locked" transform="translate(33,-204)">
  <rect id="rect2218" x="-5" y="288" width="22" height="22" fill="none" style="paint-order:stroke fill markers"/>
  <g id="g2030" transform="translate(-2.0039 290)" fill="#dfdfdf">
   <path id="path2020" d="m13 9c-1.108 0-2 0.91-2 2.031v0.969h-0.5s-0.5 0-0.5 0.5v3c0 0.5 0.5 0.5 0.5 0.5h5s0.5 0 0.5-0.5v-3c0-0.5-0.5-0.5-0.5-0.5h-0.5v-0.969c0-1.12-0.892-2.031-2-2.031zm0 1c0.554 0 1 0.442 1 1v1h-2v-1c0-0.558 0.446-1 1-1z"/>
   <g id="g2026" color="#000000">
    <path id="path2022" d="m8.0332 2c-3.034 0-5.7643 1.078-8.0293 2.75l8.0293 8.75 0.98047-1.0801c0.038098-0.55381 0.44255-1.0787 0.78906-1.252 0.10277-0.05137 0.10613-0.022005 0.19727-0.046875v-0.08984c0-1.6515 1.3445-3.0312 3-3.0312 8e-3 0 0.01543 0.00189 0.02344 0.00195l2.9805-3.2832c-2.257-1.654-4.9597-2.7188-7.9707-2.7188zm-0.060547 1c2.393 0 4.5225 0.83625 6.4355 2.0312l-6.4355 7-6.375-7.0312c1.9-1.179 4.005-2 6.375-2z"/>
    <path id="path2024" d="m7.972 4.969c-1.488 0-2.85 0.421-4.094 1.062l4.094 4.5 4.125-4.469c-1.255-0.647-2.625-1.092-4.125-1.092z" overflow="visible"/>
   </g>
   <path id="path2028" d="m13 9c-1.108 0-2 0.91-2 2.031v0.969h-0.5s-0.5 0-0.5 0.5v3s0 0.5 0.5 0.5h5c0.5 0 0.5-0.5 0.5-0.5v-3c0-0.5-0.5-0.5-0.5-0.5h-0.5v-0.969c0-1.12-0.892-2.031-2-2.031zm0 1c0.554 0 1 0.442 1 1v1h-2v-1c0-0.558 0.446-1 1-1z"/>
  </g>
 </g>
 <g id="network-wireless-60-locked" transform="translate(33,-204)">
  <rect id="rect2220" x="22" y="288" width="22" height="22" fill="none" style="paint-order:stroke fill markers"/>
  <g id="g2098" transform="translate(24.996 290)" fill="#dfdfdf">
   <g id="g2092" color="#000000">
    <path id="path2088" d="m8.0332 2c-3.034 0-5.7643 1.078-8.0293 2.75l8.0293 8.75 0.98047-1.0801c0.038098-0.55381 0.44255-1.0787 0.78906-1.252 0.10277-0.05137 0.10613-0.022005 0.19727-0.046875v-0.08984c0-1.6515 1.3445-3.0312 3-3.0312 8e-3 0 0.01543 0.00189 0.02344 0.00195l2.9805-3.2832c-2.257-1.654-4.9597-2.7188-7.9707-2.7188zm-0.060547 1c2.393 0 4.5225 0.83625 6.4355 2.0312l-6.4355 7-6.375-7.0312c1.9-1.179 4.005-2 6.375-2z"/>
    <path id="path2090" d="m7.972 6.406c-1.12 0-2.148 0.258-3.094 0.719l3.094 3.406 3.093-3.375c-0.948-0.461-1.973-0.75-3.093-0.75z" overflow="visible"/>
   </g>
   <path id="path2094" d="m13 9c-1.108 0-2 0.91-2 2.031v0.969h-0.5s-0.5 0-0.5 0.5v3s0 0.5 0.5 0.5h5s0.5 0 0.5-0.5v-3c0-0.5-0.5-0.5-0.5-0.5h-0.5v-0.969c0-1.12-0.892-2.031-2-2.031zm0 1c0.554 0 1 0.442 1 1v1h-2v-1c0-0.558 0.446-1 1-1z"/>
   <path id="path2096" d="m13 9c-1.108 0-2 0.91-2 2.031v0.969h-0.5s-0.5 0-0.5 0.5v3s0 0.5 0.5 0.5h5c0.5 0 0.5-0.5 0.5-0.5v-3c0-0.5-0.5-0.5-0.5-0.5h-0.5v-0.969c0-1.12-0.892-2.031-2-2.031zm0 1c0.554 0 1 0.442 1 1v1h-2v-1c0-0.558 0.446-1 1-1z"/>
  </g>
 </g>
 <g id="network-wireless-40-locked" transform="translate(33,-204)">
  <rect id="rect2222" x="49" y="288" width="22" height="22" fill="none" style="paint-order:stroke fill markers"/>
  <g id="g2161" transform="translate(52 290)" fill="#dfdfdf">
   <g id="g2142" color="#000000">
    <path id="path2138" d="m8.0312 2c-3.034 0-5.7662 1.078-8.0312 2.75l8.0312 8.75 0.98242-1.084c0.039757-0.55238 0.44336-1.0752 0.78906-1.248 0.10277-0.05137 0.10613-0.02201 0.19727-0.04687v-0.08984c0-1.6515 1.3445-3.0312 3-3.0312 0.0067 0 0.01284 0.00191 0.01953 0.00195l2.9805-3.2832c-2.257-1.654-4.9578-2.7188-7.9688-2.7188zm-0.0625 1h0.00195c2.393 0 4.5225 0.83625 6.4355 2.0312l-6.4355 7-6.377-7.0312c1.9-1.179 4.005-2 6.375-2z"/>
    <path id="path2140" d="m7.969 7.813c-0.74 0-1.425 0.16-2.063 0.437l2.063 2.281 2.093-2.25c-0.65-0.287-1.338-0.469-2.093-0.469z" overflow="visible"/>
   </g>
   <g id="g2146">
    <path id="path2144" d="m13 9c-1.108 0-2 0.91-2 2.031v0.969h-0.5s-0.5 0-0.5 0.5v3s0 0.5 0.5 0.5h5c0.5 0 0.5-0.5 0.5-0.5v-3c0-0.5-0.5-0.5-0.5-0.5h-0.5v-0.969c0-1.12-0.892-2.031-2-2.031zm0 1c0.554 0 1 0.442 1 1v1h-2v-1c0-0.558 0.446-1 1-1z"/>
   </g>
  </g>
 </g>
 <g id="network-wireless-20-locked" transform="translate(33,-204)">
  <rect id="rect2224" x="75" y="288" width="22" height="22" fill="none" style="paint-order:stroke fill markers"/>
  <g id="g2204" transform="translate(78 290)" fill="#dfdfdf">
   <path id="path2187" d="m8.0312 2c-3.034 0-5.7662 1.078-8.0312 2.75l8.0312 8.75 0.98242-1.084c0.039757-0.55238 0.44336-1.0752 0.78906-1.248 0.10277-0.05137 0.10613-0.02201 0.19727-0.04687v-0.08984c0-1.6515 1.3445-3.0312 3-3.0312 0.0067 0 0.01284 0.00191 0.01953 0.00195l2.9805-3.2832c-2.257-1.654-4.9578-2.7188-7.9688-2.7188zm-0.0625 1h0.00195c2.393 0 4.5225 0.83625 6.4355 2.0312l-6.4355 7-6.377-7.0312c1.9-1.179 4.005-2 6.375-2z" color="#000000"/>
   <g id="g2191">
    <path id="path2189" d="m13 9c-1.108 0-2 0.91-2 2.031v0.969h-0.5s-0.5 0-0.5 0.5v3s0 0.5 0.5 0.5h5c0.5 0 0.5-0.5 0.5-0.5v-3c0-0.5-0.5-0.5-0.5-0.5h-0.5v-0.969c0-1.12-0.892-2.031-2-2.031zm0 1c0.554 0 1 0.442 1 1v1h-2v-1c0-0.558 0.446-1 1-1z"/>
   </g>
  </g>
 </g>
 <g id="network-wireless-0-locked" transform="translate(33,-204)">
  <rect id="rect2226" x="101" y="288" width="22" height="22" fill="none" style="paint-order:stroke fill markers"/>
  <g id="g2212" transform="translate(104 290)" fill="#dfdfdf">
   <path id="path2206" d="m8.0312 2c-3.034 0-5.7662 1.078-8.0312 2.75l8.0312 8.75 0.98242-1.084c0.039757-0.55238 0.44336-1.0752 0.78906-1.248 0.10277-0.05137 0.10613-0.02201 0.19727-0.04687v-0.08984c0-1.6515 1.3445-3.0312 3-3.0312 0.0067 0 0.01284 0.00191 0.01953 0.00195l2.9805-3.2832c-2.257-1.654-4.9578-2.7188-7.9688-2.7188zm-0.0625 1h0.00195c2.393 0 4.5225 0.83625 6.4355 2.0312l-6.4355 7-6.377-7.0312c1.9-1.179 4.005-2 6.375-2z" color="#000000" opacity=".35"/>
   <g id="g2210">
    <path id="path2208" d="m13 9c-1.108 0-2 0.91-2 2.031v0.969h-0.5s-0.5 0-0.5 0.5v3s0 0.5 0.5 0.5h5c0.5 0 0.5-0.5 0.5-0.5v-3c0-0.5-0.5-0.5-0.5-0.5h-0.5v-0.969c0-1.12-0.892-2.031-2-2.031zm0 1c0.554 0 1 0.442 1 1v1h-2v-1c0-0.558 0.446-1 1-1z"/>
   </g>
  </g>
 </g>
 <g id="network-wireless-100-limited" transform="translate(33,-204)">
  <rect id="rect2228" x="-32" y="316" width="22" height="22" fill="none" style="paint-order:stroke fill markers"/>
  <g id="g2292" transform="translate(-29 319)" enable-background="new">
   <g id="g2290" color="#000000" fill="#dfdfdf">
    <path id="path2286" transform="translate(29,-255)" d="m-20.969 257c-3.034 0-5.7662 1.078-8.0312 2.75l8.0312 8.75 2.9863-3.291-0.017578-0.14648v-1.3223l-2.9688 3.2598-6.4375-6.9688c1.913-1.195 4.0435-2.0312 6.4355-2.0312h2e-3c2.37 0 4.474 0.821 6.375 2h0.5937v0.82031l1-1.1016c-2.257-1.654-4.9578-2.7188-7.9688-2.7188zm0 2c-1.73 0-3.2892 0.57275-4.7812 1.3438l4.7812 5.1562 2.9688-3.2637v-2.2363h1.082c-1.2726-0.58577-2.5968-1-4.0508-1z" enable-background="accumulate"/>
   </g>
  </g>
  <path id="path2324" class="warning" d="m-17 325v4l0.25 2h1.5l0.25-2v-4zm0 7v2h2v-2z" fill="#fdbc4b"/>
 </g>
 <g id="network-wireless-80-limited" transform="translate(33,-204)">
  <rect id="rect2230" x="-5" y="316" width="22" height="22" fill="none" style="paint-order:stroke fill markers"/>
  <g id="g2300" transform="translate(-2.003 319)" enable-background="new">
   <g id="g2298" color="#000000" fill="#dfdfdf">
    <path id="path2294" transform="translate(2.003,-255)" d="m6.0312 257c-3.034 0-5.7662 1.078-8.0312 2.75l8.0312 8.75 2.9863-3.291-0.017578-0.14648v-1.3281l-3.0312 3.2969-6.375-7.0312c1.9-1.179 4.005-2 6.375-2 2.3701 0 4.482 0.82328 6.3809 2h0.65039v0.82031l1-1.1016c-2.257-1.654-4.9578-2.7188-7.9688-2.7188zm-0.0625 2.9688c-1.488 0-2.8498 0.4215-4.0938 1.0625l4.0938 4.5 3.0312-3.2832v-1.6738c-0.94798-0.3684-1.9549-0.60352-3.0312-0.60352z" enable-background="accumulate"/>
   </g>
  </g>
  <path id="path2336" class="warning" d="m10 325v4l0.25 2h1.5l0.25-2v-4zm0 7v2h2v-2z" fill="#fdbc4b"/>
 </g>
 <g id="network-wireless-60-limited" transform="translate(33,-204)">
  <rect id="rect2232" x="22" y="316" width="22" height="22" fill="none" style="paint-order:stroke fill markers"/>
  <g id="g2312" transform="translate(24.997 319)" enable-background="new">
   <g id="g2310" color="#000000" fill="#dfdfdf">
    <path id="path2306" transform="translate(-24.997,-255)" d="m33.031 257c-3.034 0-5.7662 1.078-8.0312 2.75l8.0312 8.75 2.9863-3.291-0.017578-0.14648v-1.3281l-3.0312 3.2969-6.375-7.0312c1.9-1.179 4.005-2 6.375-2 2.3701 0 4.482 0.82328 6.3809 2h0.65039v0.82031l1-1.1016c-2.257-1.654-4.9578-2.7188-7.9688-2.7188zm-0.0625 4.4062c-1.12 0-2.1478 0.25775-3.0938 0.71875l3.0938 3.4062 3.0312-3.3066v-0.0957c-0.93085-0.44375-1.9354-0.72266-3.0312-0.72266z" enable-background="accumulate"/>
   </g>
  </g>
  <path id="path2340" class="warning" d="m37 325v4l0.25 2h1.5l0.25-2v-4zm0 7v2h2v-2z" fill="#fdbc4b"/>
 </g>
 <g id="network-wireless-40-limited" transform="translate(33,-204)">
  <rect id="rect2234" x="49" y="316" width="22" height="22" fill="none" style="paint-order:stroke fill markers"/>
  <g id="g2320" transform="translate(52 319)" enable-background="new">
   <g id="g2318" color="#000000" fill="#dfdfdf">
    <path id="path2314" transform="translate(-52,-255)" d="m60.031 257c-3.034 0-5.7662 1.078-8.0312 2.75l8.0312 8.75 2.9863-3.291-0.017578-0.14648v-1.3262l-3.0293 3.2949-6.377-7.0312c1.9-1.179 4.005-2 6.375-2h2e-3c2.3701 0 4.4801 0.82328 6.3789 2h0.65034v0.82031l1-1.1016c-2.257-1.654-4.9578-2.7188-7.9688-2.7188zm-0.0625 5.8125c-0.74 0-1.4245 0.1605-2.0625 0.4375l2.0625 2.2812 2.0938-2.25c-0.65-0.287-1.3388-0.46875-2.0938-0.46875z" enable-background="accumulate"/>
   </g>
  </g>
  <path id="path2344" class="warning" d="m64 325v4l0.25 2h1.5l0.25-2v-4zm0 7v2h2v-2z" fill="#fdbc4b"/>
 </g>
 <g id="network-wireless-20-limited" transform="translate(33,-204)">
  <rect id="rect2236" x="75" y="316" width="22" height="22" fill="none" style="paint-order:stroke fill markers"/>
  <g id="g2304" transform="translate(78 319)" enable-background="new">
   <path id="path2302" transform="translate(-78,-255)" d="m86.031 257c-3.034 0-5.7662 1.078-8.0312 2.75l8.0312 8.75 2.9863-3.291-0.017578-0.14648v-1.3262l-3.0293 3.2949-6.377-7.0312c1.9-1.179 4.005-2 6.375-2h2e-3c2.3701 0 4.4801 0.8233 6.3789 2h0.65034v0.82031l1-1.1016c-2.257-1.654-4.9578-2.7188-7.9688-2.7188z" color="#000000" enable-background="accumulate" fill="#dfdfdf"/>
  </g>
  <path id="path2348" class="warning" d="m90 325v4l0.25 2h1.5l0.25-2v-4zm0 7v2h2v-2z" fill="#fdbc4b"/>
 </g>
 <g id="network-wireless-0-limited" transform="translate(33,-204)">
  <rect id="rect2238" x="101" y="316" width="22" height="22" fill="none" style="paint-order:stroke fill markers"/>
  <g id="g2284" transform="translate(104 319)" enable-background="new">
   <path id="path2282" transform="translate(-104,-255)" d="m112.03 257c-3.034 0-5.7662 1.078-8.0312 2.75l8.0312 8.75 3.9688-4.373v-1.4785l-4.0293 4.3828-6.377-7.0312c1.9-1.179 4.005-2 6.375-2h2e-3c2.3701 0 4.4801 0.8233 6.3789 2h1.3945l0.25581-0.28125c-2.257-1.654-4.9578-2.7188-7.9688-2.7188z" color="#000000" enable-background="accumulate" fill="#dfdfdf" opacity=".35"/>
  </g>
  <path id="path2352" class="warning" d="m117 325v4l0.25 2h1.5l0.25-2v-4zm0 7v2h2v-2z" fill="#fdbc4b"/>
 </g>
 <g id="network-wireless-on" transform="translate(33,-204)">
  <rect id="rect2268" x="-115" y="233" width="22" height="22" fill="none" style="paint-order:stroke fill markers"/>
  <g id="g2370" transform="translate(-112 236)" enable-background="new">
   <g id="g2368" color="#000000" fill="#dfdfdf">
    <path id="path2364" d="M 8.031,2 C 4.997,2 2.265,3.078 0,4.75 L 8.031,13.5 16,4.719 C 13.743,3.065 11.042,2 8.031,2 Z m 0,1 c 2.37,0 4.474,0.821 6.375,2 L 8.031,12 1.594,5.031 C 3.507,3.836 5.638,3 8.03,3 Z" enable-background="accumulate" overflow="visible"/>
    <path id="path2366" d="M 8.031,4 C 6.301,4 4.742,4.573 3.25,5.344 L 8.031,10.5 12.75,5.312 C 11.274,4.556 9.74,4 8.031,4 Z" enable-background="accumulate" overflow="visible"/>
   </g>
  </g>
 </g>
 <g id="network-wireless-0" transform="translate(33,-204)">
  <rect id="rect2262" x="101" y="233" width="22" height="22" fill="none" style="paint-order:stroke fill markers"/>
  <g id="g2374" transform="translate(104 236)" enable-background="new">
   <path id="path2372" d="m8.031 2c-3.034 0-5.766 1.078-8.031 2.75l8.031 8.75 7.969-8.781c-2.257-1.654-4.958-2.719-7.969-2.719zm-0.061 1c2.393 0 4.524 0.836 6.437 2.031l-6.437 7-6.376-7.031c1.9-1.179 4.005-2 6.375-2z" color="#000000" enable-background="accumulate" fill="#dfdfdf" opacity=".35" overflow="visible"/>
  </g>
 </g>
 <g id="network-wireless-100" transform="translate(33,-204)">
  <rect id="rect2252" x="-32" y="233" width="22" height="22" fill="none" style="paint-order:stroke fill markers"/>
  <g id="g2382" transform="translate(-29 236)" enable-background="new">
   <g id="g2380" color="#000000" fill="#dfdfdf">
    <path id="path2376" d="M 8.031,2 C 4.997,2 2.265,3.078 0,4.75 L 8.031,13.5 16,4.719 C 13.743,3.065 11.042,2 8.031,2 Z m 0,1 c 2.37,0 4.474,0.821 6.375,2 L 8.031,12 1.594,5.031 C 3.507,3.836 5.638,3 8.03,3 Z" enable-background="accumulate" overflow="visible"/>
    <path id="path2378" d="M 8.031,4 C 6.301,4 4.742,4.573 3.25,5.344 L 8.031,10.5 12.75,5.312 C 11.274,4.556 9.74,4 8.031,4 Z" enable-background="accumulate" overflow="visible"/>
   </g>
  </g>
 </g>
 <g id="network-wireless-80" transform="translate(33,-204)">
  <rect id="rect2254" x="-5" y="233" width="22" height="22" fill="none" style="paint-order:stroke fill markers"/>
  <g id="g2390" transform="translate(-2.003 236)" enable-background="new">
   <g id="g2388" color="#000000" fill="#dfdfdf">
    <path id="path2384" d="m8.034 2c-3.034 0-5.766 1.078-8.031 2.75l8.031 8.75 7.969-8.781c-2.257-1.654-4.958-2.719-7.969-2.719zm-0.062 1c2.393 0 4.524 0.836 6.437 2.031l-6.437 7-6.375-7.031c1.9-1.179 4.005-2 6.375-2z" enable-background="accumulate" overflow="visible"/>
    <path id="path2386" d="m7.972 4.969c-1.488 0-2.85 0.421-4.094 1.062l4.094 4.5 4.125-4.469c-1.255-0.647-2.625-1.092-4.125-1.092z" enable-background="accumulate" overflow="visible"/>
   </g>
  </g>
 </g>
 <g id="network-wireless-20" transform="translate(33,-204)">
  <rect id="rect2260" x="75" y="233" width="22" height="22" fill="none" style="paint-order:stroke fill markers"/>
  <g id="g2394" transform="translate(78 236)" enable-background="new">
   <path id="path2392" d="m8.031 2c-3.034 0-5.766 1.078-8.031 2.75l8.031 8.75 7.969-8.781c-2.257-1.654-4.958-2.719-7.969-2.719zm-0.061 1c2.393 0 4.524 0.836 6.437 2.031l-6.437 7-6.376-7.031c1.9-1.179 4.005-2 6.375-2z" color="#000000" enable-background="accumulate" fill="#dfdfdf" overflow="visible"/>
  </g>
 </g>
 <g id="network-wireless-60" transform="translate(33,-204)">
  <rect id="rect2256" x="22" y="233" width="22" height="22" fill="none" style="paint-order:stroke fill markers"/>
  <g id="g2402" transform="translate(24.997 236)" enable-background="new">
   <g id="g2400" color="#000000" fill="#dfdfdf">
    <path id="path2396" d="m8.034 2c-3.034 0-5.766 1.078-8.031 2.75l8.031 8.75 7.969-8.781c-2.257-1.654-4.958-2.719-7.969-2.719zm-0.062 1c2.393 0 4.524 0.836 6.437 2.031l-6.437 7-6.375-7.031c1.9-1.179 4.005-2 6.375-2z" enable-background="accumulate" overflow="visible"/>
    <path id="path2398" d="m7.972 6.406c-1.12 0-2.148 0.258-3.094 0.719l3.094 3.406 3.093-3.375c-0.948-0.461-1.973-0.75-3.093-0.75z" enable-background="accumulate" overflow="visible"/>
   </g>
  </g>
 </g>
 <g id="network-wireless-40" transform="translate(33,-204)">
  <rect id="rect2258" x="49" y="233" width="22" height="22" fill="none" style="paint-order:stroke fill markers"/>
  <g id="g2410" transform="translate(52 236)" enable-background="new">
   <g id="g2408" color="#000000" fill="#dfdfdf">
    <path id="path2404" d="m8.031 2c-3.034 0-5.766 1.078-8.031 2.75l8.031 8.75 7.969-8.781c-2.257-1.654-4.958-2.719-7.969-2.719zm-0.061 1c2.393 0 4.524 0.836 6.437 2.031l-6.437 7-6.376-7.031c1.9-1.179 4.005-2 6.375-2z" enable-background="accumulate" overflow="visible"/>
    <path id="path2406" d="m7.969 7.813c-0.74 0-1.425 0.16-2.063 0.437l2.063 2.281 2.093-2.25c-0.65-0.287-1.338-0.469-2.093-0.469z" enable-background="accumulate" overflow="visible"/>
   </g>
  </g>
 </g>
 <g id="network-wired" transform="translate(33,-204)">
  <rect id="rect2428" x="75" y="204" width="22" height="22" fill="none" style="paint-order:stroke fill markers"/>
  <g id="g2436" transform="translate(78,207)" enable-background="new">
   <g id="g2434" color="#000000" fill="#dfdfdf">
    <path id="path2430" d="m10 0.469v2.531h-3v1h4v-1.469l3.406 2.969-3.406 2.969v-1.469h-3v1h2v2.531l0.813-0.656 5.187-4.375-5.188-4.375z"/>
    <path id="path2432" d="M 6,4.469 5.187,5.125 0,9.5 5.188,13.875 6,14.531 V 12 H 9 V 11 H 5 v 1.469 L 1.594,9.5 5,6.531 V 8 H 8 V 7 H 6 V 5.5 Z"/>
   </g>
  </g>
 </g>
 <g id="network-bluetooth" transform="translate(33,-204)">
  <rect id="rect2457" x="101" y="204" width="22" height="22" fill="none" style="paint-order:stroke fill markers"/>
  <path id="path2443" d="m111.5 207c-3.047 0-5.5 2.676-5.5 6v4c0 3.324 2.453 6 5.5 6s5.5-2.676 5.5-6v-4c0-3.324-2.453-6-5.5-6zm-0.5 2h0.5c0.208 0 0.393 0.133 0.469 0.313l2.875 2.843 0.406 0.375-0.438 0.344-2.562 2.125 2.562 2.125 0.438 0.344-0.406 0.375-2.875 2.844c-0.026 0.06-0.08 0.11-0.125 0.156a0.484 0.484 0 0 1-0.344 0.156h-0.5v-4.937l-2.156 1.78a0.485 0.485 0 0 1-0.344 0.157h-0.5v-0.5c0-0.153 0.079-0.283 0.187-0.375l2.563-2.125-2.438-2.031c-0.046-0.02-0.086-0.062-0.125-0.094a0.494 0.494 0 0 1-0.187-0.375v-0.5h0.5c0.123 0 0.225 0.051 0.312 0.125l0.032 0.031 2.156 1.782zm1 1.688v3.25l1.781-1.47zm0 5.375v3.25l1.781-1.782z" fill="#dfdfdf"/>
 </g>
 <g id="network-bluetooth-activated" transform="translate(33,-204)">
  <rect id="rect2459" x="128" y="204" width="22" height="22" fill="none" style="paint-order:stroke fill markers"/>
  <path id="path2465" d="m138.5 207c-3.047 0-5.5 2.676-5.5 6v4c0 3.324 2.453 6 5.5 6s5.5-2.676 5.5-6v-4c0-3.324-2.453-6-5.5-6zm-0.5 2h0.5c0.208 0 0.393 0.133 0.469 0.313l2.875 2.843 0.406 0.375-0.438 0.344-2.562 2.125 2.562 2.125 0.438 0.344-0.406 0.375-2.875 2.844c-0.026 0.06-0.08 0.11-0.125 0.156a0.484 0.484 0 0 1-0.344 0.156h-0.5v-4.937l-2.156 1.78a0.485 0.485 0 0 1-0.344 0.157h-0.5v-0.5c0-0.153 0.079-0.283 0.187-0.375l2.563-2.125-2.438-2.031c-0.046-0.02-0.086-0.062-0.125-0.094a0.494 0.494 0 0 1-0.187-0.375v-0.5h0.5c0.123 0 0.225 0.051 0.312 0.125l0.032 0.031 2.156 1.782zm1 1.688v3.25l1.781-1.47zm0 5.375v3.25l1.781-1.782z" fill="#dfdfdf"/>
  <circle id="path2477" cx="131" cy="215" r="1" fill="#dfdfdf" style="paint-order:stroke fill markers"/>
  <circle id="circle2479" cx="146" cy="215" r="1" fill="#dfdfdf" style="paint-order:stroke fill markers"/>
 </g>
 <g id="network-bluetooth-activated-locked" transform="translate(33,-204)">
  <rect id="rect2461" x="155" y="204" width="22" height="22" fill="none" style="paint-order:stroke fill markers"/>
  <path id="path2467" d="m165.5 207c-3.047 0-5.5 2.676-5.5 6v4c0 3.324 2.453 6 5.5 6 0.9025 0 1.75-0.23941 2.5-0.65625v-3.3438h1.0137c0.0154-1.2837 0.8399-2.3896 1.9863-2.8106v-3.1894c0-3.324-2.453-6-5.5-6zm-0.5 2h0.5c0.208 0 0.39275 0.1325 0.46875 0.3125l2.875 2.8438 0.40625 0.375-0.4375 0.34375-2.5625 2.125 2.5625 2.125 0.4375 0.34375-0.40625 0.375-2.875 2.8438c-0.026 0.06-0.08 0.11025-0.125 0.15625a0.484 0.484 0 0 1-0.34375 0.15625h-0.5v-4.9375l-2.1562 1.7812a0.485 0.485 0 0 1-0.34375 0.15625h-0.5v-0.5c0-0.153 0.0795-0.283 0.1875-0.375l2.5625-2.125-2.4375-2.0312c-0.046-0.02-0.086-0.0617-0.125-0.0937a0.494 0.494 0 0 1-0.1875-0.37505v-0.5h0.5c0.123 0 0.2255 0.051 0.3125 0.125l0.0312 0.0312 2.1563 1.7813zm1 1.6875v3.25l1.7812-1.4688zm0 5.375v3.25l1.7812-1.7812z" fill="#dfdfdf"/>
  <path id="path2481" d="m172 217c-1.108 0-2 0.91-2 2.031v0.969h-1v4h6v-4h-1v-0.969c0-1.12-0.892-2.031-2-2.031zm0 1c0.554 0 1 0.442 1 1v1h-2v-1c0-0.558 0.446-1 1-1z" fill="#dfdfdf"/>
 </g>
 <g id="edit" transform="translate(33,-204)">
  <rect id="rect2272" x="-5" y="343" width="22" height="22" fill="none" style="paint-order:stroke fill markers"/>
  <path id="path2757" d="m5.7798 347c-0.13 0.013-0.3 0.034-0.437 0.094 0 0-0.089 0.296-0.157 1.031-0.083 0.9-0.428 1.13-0.687 1.313-0.26 0.183-0.34 0.237-0.438 0.281-0.508 0.085-0.961 0.14-1.656-0.437-0.568-0.472-0.812-0.625-0.812-0.625-0.28 0.11-0.532 0.406-0.532 0.406s-0.295 0.25-0.406 0.531c0 0 0.153 0.245 0.625 0.813 0.577 0.694 0.523 1.148 0.438 1.656-0.044 0.097-0.098 0.178-0.282 0.437-0.183 0.26-0.413 0.605-1.312 0.688-0.735 0.068-1 0.156-1 0.156-0.12 0.277-0.125 0.656-0.125 0.656s5e-3 0.38 0.125 0.657c0 0 0.265 0.088 1 0.156 0.899 0.083 1.128 0.428 1.312 0.687 0.184 0.26 0.238 0.34 0.282 0.438 0.085 0.508 0.14 0.962-0.438 1.656-0.472 0.568-0.625 0.813-0.625 0.813 0.111 0.28 0.406 0.53 0.406 0.53s0.25 0.297 0.532 0.407c0 0 0.244-0.153 0.812-0.625 0.695-0.577 1.148-0.522 1.656-0.437 0.097 0.044 0.178 0.097 0.438 0.28 0.26 0.184 0.604 0.414 0.687 1.313 0.068 0.735 0.157 1 0.157 1 0.277 0.12 0.656 0.125 0.656 0.125s0.38-5e-3 0.656-0.125c0 0 0.089-0.264 0.156-1 0.083-0.899 0.425-1.138 0.844-1.437v-0.031c0.1-0.037 0.184-0.081 0.281-0.125 0.508-0.086 0.962-0.14 1.657 0.437 0.567 0.472 0.812 0.625 0.812 0.625 0.281-0.11 0.531-0.406 0.531-0.406s0.296-0.25 0.407-0.531c0 0-0.153-0.245-0.625-0.813-0.578-0.694-0.523-1.148-0.438-1.656 0.044-0.097 0.088-0.182 0.125-0.281h0.031c0.3-0.42 0.539-0.76 1.438-0.844 0.735-0.068 1.031-0.156 1.031-0.156 0.12-0.277 0.094-0.657 0.094-0.657s0.026-0.38-0.094-0.656c0 0-0.296-0.088-1.031-0.156-0.9-0.083-1.138-0.424-1.438-0.844-0.037-0.1-0.112-0.184-0.156-0.281-0.085-0.508-0.14-0.962 0.438-1.656 0.471-0.568 0.625-0.813 0.625-0.813-0.111-0.28-0.407-0.531-0.407-0.531s-0.25-0.296-0.53-0.406c0 0-0.245 0.153-0.813 0.625-0.695 0.577-1.13 0.52-1.75 0.25s-0.949-0.507-1.032-1.407c-0.068-0.735-0.156-1.03-0.156-1.03-0.276-0.122-0.656-0.096-0.656-0.096s-0.09-0.012-0.219 0zm0.219 5a2 2 0 1 1 0 4 2 2 0 0 1 0-4z" fill="#dfdfdf"/>
 </g>
 <g id="edit-hover" transform="translate(33,-204)">
  <rect id="rect2274" x="22" y="343" width="22" height="22" fill="none" style="paint-order:stroke fill markers"/>
  <path id="path2768" d="m32.78 347c-0.13 0.013-0.3 0.034-0.437 0.094 0 0-0.089 0.296-0.157 1.031-0.083 0.9-0.428 1.13-0.687 1.313-0.26 0.183-0.34 0.237-0.438 0.281-0.508 0.085-0.961 0.14-1.656-0.437-0.568-0.472-0.812-0.625-0.812-0.625-0.28 0.11-0.532 0.406-0.532 0.406s-0.295 0.25-0.406 0.531c0 0 0.153 0.245 0.625 0.813 0.577 0.694 0.523 1.148 0.438 1.656-0.044 0.097-0.098 0.178-0.282 0.437-0.183 0.26-0.413 0.605-1.312 0.688-0.735 0.068-1 0.156-1 0.156-0.12 0.277-0.125 0.656-0.125 0.656s5e-3 0.38 0.125 0.657c0 0 0.265 0.088 1 0.156 0.899 0.083 1.128 0.428 1.312 0.687 0.184 0.26 0.238 0.34 0.282 0.438 0.085 0.508 0.14 0.962-0.438 1.656-0.472 0.568-0.625 0.813-0.625 0.813 0.111 0.28 0.406 0.53 0.406 0.53s0.25 0.297 0.532 0.407c0 0 0.244-0.153 0.812-0.625 0.695-0.577 1.148-0.522 1.656-0.437 0.097 0.044 0.178 0.097 0.438 0.28 0.26 0.184 0.604 0.414 0.687 1.313 0.068 0.735 0.157 1 0.157 1 0.277 0.12 0.656 0.125 0.656 0.125s0.38-5e-3 0.656-0.125c0 0 0.089-0.264 0.156-1 0.083-0.899 0.425-1.138 0.844-1.437v-0.031c0.1-0.037 0.184-0.081 0.281-0.125 0.508-0.086 0.962-0.14 1.657 0.437 0.567 0.472 0.812 0.625 0.812 0.625 0.281-0.11 0.531-0.406 0.531-0.406s0.296-0.25 0.407-0.531c0 0-0.153-0.245-0.625-0.813-0.578-0.694-0.523-1.148-0.438-1.656 0.044-0.097 0.088-0.182 0.125-0.281h0.031c0.3-0.42 0.539-0.76 1.438-0.844 0.735-0.068 1.031-0.156 1.031-0.156 0.12-0.277 0.094-0.657 0.094-0.657s0.026-0.38-0.094-0.656c0 0-0.296-0.088-1.031-0.156-0.9-0.083-1.138-0.424-1.438-0.844-0.037-0.1-0.112-0.184-0.156-0.281-0.085-0.508-0.14-0.962 0.438-1.656 0.471-0.568 0.625-0.813 0.625-0.813-0.111-0.28-0.407-0.531-0.407-0.531s-0.25-0.296-0.53-0.406c0 0-0.245 0.153-0.813 0.625-0.695 0.577-1.13 0.52-1.75 0.25s-0.949-0.507-1.032-1.407c-0.068-0.735-0.156-1.03-0.156-1.03-0.276-0.122-0.656-0.096-0.656-0.096s-0.09-0.012-0.219 0zm0.219 5a2 2 0 1 1 0 4 2 2 0 0 1 0-4z" fill="#3498db"/>
 </g>
 <g id="16-16-network-bluetooth" transform="translate(184,-60)">
  <rect id="rect879" x="40" y="63" width="16" height="16" fill="none" stroke-width=".72727" style="paint-order:stroke fill markers"/>
  <path id="path865" d="m47.5 63c-3.047 0-5.5 2.676-5.5 6v4c0 3.324 2.453 6 5.5 6s5.5-2.676 5.5-6v-4c0-3.324-2.453-6-5.5-6zm-0.5 2h0.5c0.208 0 0.393 0.133 0.469 0.313l2.875 2.843 0.406 0.375-0.438 0.344-2.562 2.125 2.562 2.125 0.438 0.344-0.406 0.375-2.875 2.844c-0.026 0.06-0.08 0.11-0.125 0.156a0.484 0.484 0 0 1-0.344 0.156h-0.5v-4.937l-2.156 1.78a0.485 0.485 0 0 1-0.344 0.157h-0.5v-0.5c0-0.153 0.079-0.283 0.187-0.375l2.563-2.125-2.438-2.031c-0.046-0.02-0.086-0.062-0.125-0.094a0.494 0.494 0 0 1-0.187-0.375v-0.5h0.5c0.123 0 0.225 0.051 0.312 0.125l0.032 0.031 2.156 1.782zm1 1.688v3.25l1.781-1.47zm0 5.375v3.25l1.781-1.782z" fill="#dfdfdf"/>
 </g>
 <g id="16-16-network-bluetooth-activated" transform="translate(184,-60)">
  <rect id="rect881" x="63" y="63" width="16" height="16" fill="none" stroke-width=".72727" style="paint-order:stroke fill markers"/>
  <path id="path855" d="m70.5 63c-3.047 0-5.5 2.676-5.5 6v4c0 3.324 2.453 6 5.5 6s5.5-2.676 5.5-6v-4c0-3.324-2.453-6-5.5-6zm-0.5 2h0.5c0.208 0 0.393 0.133 0.469 0.313l2.875 2.843 0.406 0.375-0.438 0.344-2.562 2.125 2.562 2.125 0.438 0.344-0.406 0.375-2.875 2.844c-0.026 0.06-0.08 0.11-0.125 0.156a0.484 0.484 0 0 1-0.344 0.156h-0.5v-4.937l-2.156 1.78a0.485 0.485 0 0 1-0.344 0.157h-0.5v-0.5c0-0.153 0.079-0.283 0.187-0.375l2.563-2.125-2.438-2.031c-0.046-0.02-0.086-0.062-0.125-0.094a0.494 0.494 0 0 1-0.187-0.375v-0.5h0.5c0.123 0 0.225 0.051 0.312 0.125l0.032 0.031 2.156 1.782zm1 1.688v3.25l1.781-1.47zm0 5.375v3.25l1.781-1.782z" fill="#dfdfdf"/>
  <circle id="circle859" cx="78" cy="68" r="1" fill="#dfdfdf" style="paint-order:stroke fill markers"/>
  <circle id="circle883" cx="78" cy="71" r="1" fill="#dfdfdf" style="paint-order:stroke fill markers"/>
  <circle id="circle885" cx="78" cy="74" r="1" fill="#dfdfdf" style="paint-order:stroke fill markers"/>
 </g>
 <g id="16-16-network-bluetooth-activated-locked">
  <rect id="rect1598" x="270" y="3" width="16" height="16" fill="none" stroke-width=".72727" style="paint-order:stroke fill markers"/>
  <path id="path1606" d="m277.5 3c-3.047 0-5.5 2.676-5.5 6v4c0 3.324 2.453 6 5.5 6 0.52236 0 1.0227-0.08794 1.5-0.23633v-3.0957l-1.0312 1.0195c-0.026 0.06-0.08 0.11025-0.125 0.15625-0.0887 0.096475-0.21274 0.15286-0.34375 0.15625h-0.5v-4.9375l-2.1562 1.7812c-0.08877 0.09638-0.21276 0.15274-0.34375 0.15625h-0.5v-0.5c0-0.153 0.0795-0.283 0.1875-0.375l2.5625-2.125-2.4375-2.0312c-0.046-0.02-0.086-0.06175-0.125-0.09375-0.11508-0.090963-0.18377-0.22836-0.1875-0.375v-0.5h0.5c0.123 0 0.2255 0.051 0.3125 0.125l0.0312 0.03125 2.1563 1.7812v-4.9375h0.5c0.208 0 0.39275 0.1325 0.46875 0.3125l2.875 2.8438 0.40625 0.375-0.4375 0.34375-2.5625 2.125 2.0742 1.7188c0.48441-1.0062 1.4929-1.7188 2.6758-1.7188v-2c0-3.324-2.453-6-5.5-6zm0.5 3.6875v3.25l1.7812-1.4688zm0 5.375v3.25l1.7812-1.7812z" fill="#dfdfdf"/>
  <path id="path1608" d="m283 12c-1.108 0-2 0.91-2 2.031v0.969h-1v4h6v-4h-1v-0.969c0-1.12-0.892-2.031-2-2.031zm0 1c0.554 0 1 0.442 1 1v1h-2v-1c0-0.558 0.446-1 1-1z" fill="#dfdfdf"/>
 </g>
</svg>
