<svg xmlns="http://www.w3.org/2000/svg" xmlns:xlink="http://www.w3.org/1999/xlink" viewBox="0 0 22 22" id="svg" version="1.1" width="100%" height="100%"><defs id="defs81"><style id="current-color-scheme" type="text/css">.ColorScheme-Text{color:#D3DAE3}</style><linearGradient xlink:href="#linearGradient4254" id="linearGradient5399" gradientUnits="userSpaceOnUse" x1="317.917" y1="909.772" x2="317.917" y2="912.772"/><linearGradient id="linearGradient4254"><stop id="stop4256" offset="0" stop-color="#888" stop-opacity="1"/><stop id="stop4258" offset="1" stop-color="#232323" stop-opacity="1"/></linearGradient></defs><g id="notification-progress-active" transform="translate(39 -1)" stroke="none"><path id="rect3009" fill="#fff" fill-opacity="0" d="M1 1h22v22H1z"/><rect ry="8" y="4" x="4" height="16" width="16" id="rect5921-0" fill="#3daee9" fill-opacity="1"/></g><g id="notification-inactive" transform="translate(-1 -1)"><path id="rect3028" fill="#fff" fill-opacity="0" stroke="none" d="M1 1h22v22H1z"/><path d="M11 3c-4.432 0-8 3.568-8 8s3.568 8 8 8 8-3.568 8-8-3.568-8-8-8zm-.156 1h.312A6.827 6.827 0 0 1 18 10.844v.312A6.827 6.827 0 0 1 11.156 18h-.312A6.827 6.827 0 0 1 4 11.156v-.312A6.827 6.827 0 0 1 10.844 4zm-.656 3v5.594h1.624V7h-1.624zM11 13.406c-.368 0-.813.413-.813.781 0 .369.445.813.813.813.368 0 .813-.444.813-.813 0-.368-.445-.78-.813-.78z" transform="translate(1 1)" id="path3016" class="ColorScheme-Text" fill="currentColor" fill-opacity=".941" stroke="none"/></g><g id="notification-progress-inactive" transform="translate(39 39)"><path id="rect3060" fill="#fff" fill-opacity="0" stroke="none" d="M1 1h22v22H1z"/><rect ry="8" y="4" x="4" height="16" width="16" id="rect5933-8" class="ColorScheme-Text" opacity=".4" fill="currentColor" fill-opacity="1" stroke="none"/></g><g id="notification-active" transform="translate(-1 39)" stroke="none"><path id="rect3068" fill="#fff" fill-opacity="0" d="M1 1h22v22H1z"/><rect id="rect4130-82-0" width="16" height="16" x="4" y="4" ry="8" fill="#3daee9" fill-opacity="1"/><path d="M11.203 7.2l-.003 7.2h1.6l.003-7.2zm.8 8a.8.8 0 1 0 0 1.6.8.8 0 0 0 0-1.6z" id="rect4142-6" fill="#fcfcfc" fill-opacity="1"/></g><path class="ColorScheme-Text" d="M-18 23l2-2 2 2z" id="expander-bottom" fill="currentColor" fill-opacity="1"/><path class="ColorScheme-Text" id="expander-top" d="M-18 17l2 2 2-2z" fill="currentColor" fill-opacity="1"/><path class="ColorScheme-Text" d="M-13 18l-2 2 2 2z" id="expander-right" fill="currentColor" fill-opacity="1"/><path class="ColorScheme-Text" id="expander-left" d="M-19 18l2 2-2 2z" fill="currentColor" fill-opacity="1"/><g transform="translate(-1 -41)" id="notification-disabled"><path id="rect3022" fill="#fff" fill-opacity="0" stroke="none" d="M1 1h22v22H1z"/><path class="ColorScheme-Text" id="path3024" transform="translate(1 1)" d="M11 3c-4.432 0-8 3.568-8 8s3.568 8 8 8 8-3.568 8-8-3.568-8-8-8zm-.156 1h.312A6.827 6.827 0 0 1 18 10.844v.312A6.827 6.827 0 0 1 11.156 18h-.312A6.827 6.827 0 0 1 4 11.156v-.312A6.827 6.827 0 0 1 10.844 4zm-.656 3v5.594h1.624V7h-1.624zM11 13.406c-.368 0-.813.413-.813.781 0 .369.445.813.813.813.368 0 .813-.444.813-.813 0-.368-.445-.78-.813-.78z" fill="currentColor" fill-opacity=".941" stroke="none" opacity=".4"/></g><g transform="translate(39 -41)" id="notification-empty"><path id="rect3798" fill="#fff" fill-opacity="0" stroke="none" d="M1 1h22v22H1z"/><path class="ColorScheme-Text" id="path3800" transform="translate(1 1)" d="M11 3c-4.432 0-8 3.568-8 8s3.568 8 8 8 8-3.568 8-8-3.568-8-8-8zm-.156 1h.312A6.827 6.827 0 0 1 18 10.844v.312A6.827 6.827 0 0 1 11.156 18h-.312A6.827 6.827 0 0 1 4 11.156v-.312A6.827 6.827 0 0 1 10.844 4z" fill="currentColor" fill-opacity=".941" stroke="none"/></g></svg>