<svg xmlns="http://www.w3.org/2000/svg" width="32" height="32" id="svg3869" version="1.1"><defs id="defs3871"><style type="text/css" id="current-color-scheme">.ColorScheme-Text{color:#dfdfdf}</style></defs><g id="layer1" transform="translate(-321 -529.362)"><g id="phone"><path id="rect4436" opacity="1" fill="none" fill-opacity="1" stroke="none" stroke-width=".1" stroke-linecap="square" stroke-linejoin="miter" stroke-miterlimit="4" stroke-dasharray="none" stroke-dashoffset="0" stroke-opacity="1" d="M321 529.362h32v32h-32z"/><path d="M8 2v28h16V2H8zm5 1h6v1h-6V3zM9 5h14v23H9V5z" transform="translate(321 529.362)" id="path4167" class="ColorScheme-Text" opacity="1" fill="currentColor" fill-opacity="1" stroke="none"/></g><g id="16-16-phone"><path id="rect4442" opacity="1" fill="none" fill-opacity="1" stroke="none" stroke-width=".101" stroke-linecap="square" stroke-linejoin="miter" stroke-miterlimit="4" stroke-dasharray="none" stroke-dashoffset="0" stroke-opacity="1" d="M303 537.362h16v16h-16z"/><path d="M-14 10v12h8V10h-8zm3 1h2v1h-2v-1zm-2 2h6v7h-6v-7z" transform="translate(321 529.362)" id="path4193" class="ColorScheme-Text" opacity="1" fill="currentColor" fill-opacity="1" stroke="none"/></g><g id="22-22-phone" transform="translate(-1)"><path id="rect4444" opacity="1" fill="none" fill-opacity="1" stroke="none" stroke-width=".139" stroke-linecap="square" stroke-linejoin="miter" stroke-miterlimit="4" stroke-dasharray="none" stroke-dashoffset="0" stroke-opacity="1" d="M356 534.362h22v22h-22z"/><path d="M40 8v16h10V8H40zm3 1h4v1h-4V9zm-2 2h8v12h-8V11z" transform="translate(322 529.362)" id="path4181" class="ColorScheme-Text" opacity="1" fill="currentColor" fill-opacity="1" stroke="none" stroke-width=".1" stroke-linecap="square" stroke-linejoin="miter" stroke-miterlimit="4" stroke-dasharray="none" stroke-dashoffset="0" stroke-opacity="1"/></g><g id="phone-battery" transform="translate(0 32)"><path id="rect4162" opacity="1" fill="none" fill-opacity="1" stroke="none" stroke-width=".1" stroke-linecap="square" stroke-linejoin="miter" stroke-miterlimit="4" stroke-dasharray="none" stroke-dashoffset="0" stroke-opacity="1" d="M321 529.362h32v32h-32z"/><path d="M8 34v28h16V34H8zm5 1h6v1h-6v-1zm-4 2h14v23H9V37zm7.5 4l-4 8H15v6l4.5-8h-3v-6z" transform="translate(321 497.362)" id="path4214" class="ColorScheme-Text" opacity="1" fill="currentColor" fill-opacity="1" stroke="none"/></g><g id="16-16-phone-battery" transform="translate(0 32)"><path id="rect4168" opacity="1" fill="none" fill-opacity="1" stroke="none" stroke-width=".101" stroke-linecap="square" stroke-linejoin="miter" stroke-miterlimit="4" stroke-dasharray="none" stroke-dashoffset="0" stroke-opacity="1" d="M303 537.362h16v16h-16z"/><path d="M-14 42v12h8V42zm3 1h2v1h-2zm-2 2h6v7h-6zm3 6l1-3h-1v-2l-1 3h1z" transform="translate(321 497.362)" id="path4201" class="ColorScheme-Text" opacity="1" fill="currentColor" fill-opacity="1" stroke="none"/></g><g transform="translate(-1 32)" id="22-22-phone-battery"><path id="rect4174" opacity="1" fill="none" fill-opacity="1" stroke="none" stroke-width=".139" stroke-linecap="square" stroke-linejoin="miter" stroke-miterlimit="4" stroke-dasharray="none" stroke-dashoffset="0" stroke-opacity="1" d="M356 534.362h22v22h-22z"/><path d="M40 40v16h10V40H40zm3 1h4v1h-4v-1zm-2 2h8v12h-8V43zm4 2l-2 5h2v3l2-5h-2v-3z" transform="translate(322 497.362)" id="path4239" class="ColorScheme-Text" opacity="1" fill="currentColor" fill-opacity="1" stroke="none" stroke-width=".1" stroke-linecap="square" stroke-linejoin="miter" stroke-miterlimit="4" stroke-dasharray="none" stroke-dashoffset="0" stroke-opacity="1"/></g></g></svg>