<svg xmlns="http://www.w3.org/2000/svg" viewBox="0 0 22 22" id="svg" version="1.1" width="100%" height="100%"><defs id="defs81"><style id="current-color-scheme" type="text/css">.ColorScheme-Text{color:#D3DAE3}</style><style id="current-color-scheme-5" type="text/css">.ColorScheme-Text{color:#dfdfdf}</style></defs><g id="preferences-desktop-display-randr" transform="translate(0 -1)"><path id="rect3832" fill="#fff" fill-opacity="0" stroke="none" d="M1 1h22v22H1z"/><path id="rect7235" d="M7 20h10v1H7zm3-2h4v2h-4zM2 4v14h20V4zm1 1h18v10H3z" class="ColorScheme-Text" fill="currentColor" fill-opacity="1" stroke="none"/><path d="M4 10l4 4H4z" id="rect3018" class="ColorScheme-Text" fill="currentColor" fill-opacity="1" stroke="none"/><path class="ColorScheme-Text" id="path3028" d="M20 10l-4-4h4z" fill="currentColor" fill-opacity="1" stroke="none"/></g><g id="preferences-desktop-notification" transform="translate(-1 39)" stroke="none"><path id="rect3068" fill="#fff" fill-opacity="0" d="M1 1h22v22H1z"/><rect id="rect4130-82-0" width="16" height="16" x="4" y="4" ry="8" fill="#3daee9" fill-opacity="1"/><path d="M11.203 7.2l-.003 7.2h1.6l.003-7.2zm.8 8a.8.8 0 1 0 0 1.6.8.8 0 0 0 0-1.6z" id="rect4142-6" fill="#fcfcfc" fill-opacity="1"/></g><g transform="translate(-22 94)" id="22-22-preferences-system-bluetooth"><path id="rect4645" fill="none" stroke="none" d="M66 0h22v22H66z"/><path id="rect4163-9" d="M76.998 3V10.041l-3.293-3.293-.002.002-.996-.996L72 6.46l4.545 4.541L72 15.543l.707.707.996-.996h.002L77 11.96V19h1l4-4-4-4 4-4-4-4zM78 4.416l2.586 2.586L78 9.588zm0 8l2.586 2.586L78 17.588z" class="ColorScheme-Text" text-decoration="none" fill="currentColor" fill-opacity="1" fill-rule="nonzero" stroke="none" visibility="visible" display="inline" overflow="visible"/></g><g id="22-22-preferences-system-bluetooth-activated" transform="translate(0 94)"><path id="rect4674" fill="none" stroke="none" d="M66 0h22v22H66z"/><path d="M76.998 3V10.041l-3.293-3.293-.002.002-.996-.996L72 6.46l4.545 4.541L72 15.543l.707.707.996-.996h.002L77 11.96V19h1l4-4-4-4 4-4-4-4h-1.002zM78 4.416l2.586 2.586L78 9.588V4.416zM67 10a1 1 0 0 0-1 1 1 1 0 0 0 1 1 1 1 0 0 0 1-1 1 1 0 0 0-1-1zm4 0a1 1 0 0 0-1 1 1 1 0 0 0 1 1 1 1 0 0 0 1-1 1 1 0 0 0-1-1zm12 0a1 1 0 0 0-1 1 1 1 0 0 0 1 1 1 1 0 0 0 1-1 1 1 0 0 0-1-1zm4 0a1 1 0 0 0-1 1 1 1 0 0 0 1 1 1 1 0 0 0 1-1 1 1 0 0 0-1-1zm-9 2.416l2.586 2.586L78 17.588v-5.172z" id="path4676" class="ColorScheme-Text" text-decoration="none" fill="currentColor" fill-opacity="1" fill-rule="nonzero" stroke="none" visibility="visible" display="inline" overflow="visible"/></g><g id="22-22-preferences-system-bluetooth-inactive" transform="translate(-44 94)"><path id="rect4162" fill="none" stroke="none" d="M66 0h22v22H66z"/><path d="M76.998 3V10.041l-3.293-3.293-.002.002-.996-.996L72 6.46l4.545 4.541L72 15.543l.707.707.996-.996h.002L77 11.96V19h1l4-4-4-4 4-4-4-4zM78 4.416l2.586 2.586L78 9.588zm0 8l2.586 2.586L78 17.588z" id="path4164" class="ColorScheme-Text" text-decoration="none" opacity=".5" fill="currentColor" fill-opacity="1" fill-rule="nonzero" stroke="none" visibility="visible" display="inline" overflow="visible"/></g><g id="preferences-system-bluetooth" transform="translate(44 94)"><path id="rect4168" fill="none" stroke="none" d="M-5 22h32v32H-5z"/><path id="rect4331" d="M11 26v10.998L5.002 31l-.705.705L10.59 38l-6.293 6.295.705.705L11 39.002V50h1.002L18 44.002v-.004L12.002 38 18 32.002v-.004L12.002 26H11zm1 1.41L16.588 32 12 36.59v-9.18zm0 12L16.588 44 12 48.59v-9.18z" class="ColorScheme-Text" fill="currentColor" fill-opacity="1" stroke="none"/></g><g id="preferences-system-bluetooth-activated" transform="translate(44 94)"><path id="rect4422" fill="none" stroke="none" d="M27 22h32v32H27z"/><path id="path4424" d="M43 26v10.998L37.002 31l-.705.705L42.59 38l-6.293 6.295.705.705L43 39.002V50h1.002L50 44.002v-.004L44.002 38 50 32.002v-.004L44.002 26H43zm1 1.41L48.588 32 44 36.59v-9.18zM30 37a1 1 0 0 0-1 1 1 1 0 0 0 1 1 1 1 0 0 0 1-1 1 1 0 0 0-1-1zm6 0a1 1 0 0 0-1 1 1 1 0 0 0 1 1 1 1 0 0 0 1-1 1 1 0 0 0-1-1zm14 0a1 1 0 0 0-1 1 1 1 0 0 0 1 1 1 1 0 0 0 1-1 1 1 0 0 0-1-1zm6 0a1 1 0 0 0-1 1 1 1 0 0 0 1 1 1 1 0 0 0 1-1 1 1 0 0 0-1-1zm-12 2.41L48.588 44 44 48.59v-9.18z" class="ColorScheme-Text" fill="currentColor" fill-opacity="1" stroke="none"/></g><g id="preferences-system-bluetooth-inactive" transform="translate(44 94)"><path id="rect4426" fill="none" stroke="none" d="M-37 22h32v32h-32z"/><path id="path4428" d="M-21 26v10.998L-26.998 31l-.705.705L-21.41 38l-6.293 6.295.705.705L-21 39.002V50h1.002L-14 44.002v-.004L-19.998 38-14 32.002v-.004L-19.998 26H-21zm1 1.41l4.588 4.59L-20 36.59v-9.18zm0 12l4.588 4.59L-20 48.59v-9.18z" class="ColorScheme-Text" opacity=".5" fill="currentColor" fill-opacity="1" stroke="none"/></g><g id="preferences-system-bluetooth-battery" transform="translate(44 126)"><path id="rect4168-3" fill="none" stroke="none" d="M-5 22h32v32H-5z"/><path id="rect4331-5" d="M11 26v10.998L5.002 31l-.705.705L10.59 38l-6.293 6.295.705.705L11 39.002V50h1.002L18 44.002v-.004L12.002 38 18 32.002v-.004L12.002 26H12zm1 1.41L16.588 32 12 36.59zm0 12L16.588 44 12 48.59z" class="ColorScheme-Text" fill="currentColor" fill-opacity="1" stroke="none"/></g></svg>