<svg xmlns="http://www.w3.org/2000/svg" viewBox="0 0 22 22" id="svg" version="1.1" width="100%" height="100%"><defs id="defs81"><style id="current-color-scheme" type="text/css">.ColorScheme-Text{color:#D3DAE3}</style><style type="text/css" id="current-color-scheme">.ColorScheme-Text{color:#dfdfdf}</style></defs><g id="22-22-printer" transform="translate(0 -2)"><path id="rect3009" fill="currentColor" fill-opacity="0" stroke="none" color="#eff0f1" d="M0 2h22v22H0z"/><path id="rect3007" transform="translate(0 2)" d="M6 3v4H3v8h2v1h1v3h10v-3h1v-1h2V7h-3V3H6zm1 1h8v4H7V4zM4 8h1v1h12V8h1v6h-1v-2H5v2H4V8zm10 2v1h3v-1h-3zm-7 3h8v5H7v-5zm1 1v1h6v-1H8zm0 2v1h6v-1H8z" class="ColorScheme-Text" fill="currentColor" fill-opacity="1" stroke="none"/></g><g id="printer"><path id="rect4172" d="M-23-6v6h-5v12h3v1h2v5h14v-5h2v-1h3V0h-5v-6h-14zm1 1h12v6h-12v-6zm-5 6h2v1h18V1h2v10h-2V8h-18v3h-2V1zm17 3v2h4V4h-4zm-12 5h12v8h-12V9zm1 2v1h10v-1h-10zm0 3v1h10v-1h-10z" class="ColorScheme-Text" opacity="1" fill="currentColor" fill-opacity="1" stroke="none"/><path id="rect4208" opacity="1" fill="none" fill-opacity="1" stroke="none" d="M-32-10H0v32h-32z"/></g></svg>