<svg xmlns="http://www.w3.org/2000/svg" viewBox="0 0 22 22" id="svg" version="1.1" width="100%" height="100%"><defs id="defs81"><style id="current-color-scheme" type="text/css">.ColorScheme-Text{color:#D3DAE3}</style></defs><g id="quassel" transform="translate(-1 -1)"><path id="rect3881" fill="#fff" fill-opacity=".01" stroke="none" d="M1 1h22v22H1z"/><path d="M11 3a8 8 0 1 0 0 16 8 8 0 0 0 0-16zm0 1a7 7 0 1 1 0 14 7 7 0 0 1 0-14zm2 7a3 3 0 1 0 0 6 3 3 0 0 0 0-6z" transform="translate(1 1)" id="path2999" class="ColorScheme-Text" fill="currentColor" fill-opacity="1" stroke="none"/></g><g transform="translate(-25 -1)" id="quassel_inactive"><path id="rect3777" fill="#fff" fill-opacity=".01" stroke="none" d="M1 1h22v22H1z"/><path class="ColorScheme-Text" id="path3779" transform="translate(1 1)" d="M11 3a8 8 0 1 0 0 16 8 8 0 0 0 0-16zm0 1a7 7 0 1 1 0 14 7 7 0 0 1 0-14zm2 7a3 3 0 1 0 0 6 3 3 0 0 0 0-6z" opacity=".2" fill="currentColor" fill-opacity="1" stroke="none"/></g><g transform="translate(23 -1)" id="quassel_message" stroke="none"><path id="rect3785" fill="#fff" fill-opacity=".01" d="M1 1h22v22H1z"/><path id="path3787" transform="translate(1 1)" d="M11 3a8 8 0 1 0 0 16 8 8 0 0 0 0-16zm0 1a7 7 0 1 1 0 14 7 7 0 0 1 0-14zm2 7a3 3 0 1 0 0 6 3 3 0 0 0 0-6z" fill="currentColor" fill-opacity="1" color="#3daee6"/></g></svg>