<svg xmlns="http://www.w3.org/2000/svg" viewBox="0 0 22 22" id="svg" version="1.1" width="100%" height="100%"><defs id="defs81"><style id="current-color-scheme" type="text/css">.ColorScheme-Text{color:#D3DAE3}</style></defs><g id="slc-like" transform="translate(-1 -41)"><path id="rect3791" fill="#fff" fill-opacity="0" stroke="none" d="M1 1h22v22H1z"/><path d="M8 4a5 5 0 0 0-5 5c0 5 7 9 9 11 2-2 9-6 9-11a5 5 0 0 0-5-5c-1.64 0-3.088.78-4 2-.912-1.22-2.36-2-4-2zm0 2c3 0 4 2 4 2s1-2 4-2a3 3 0 0 1 3 3c0 4-5 7-7 9-2-2-7-5-7-9a3 3 0 0 1 3-3z" id="path3795" class="ColorScheme-Text" fill="currentColor"/></g><g id="slc-share" transform="translate(39 -1)"><path id="rect3833" fill="#fff" fill-opacity="0" stroke="none" d="M1 1h22v22H1z"/><path class="ColorScheme-Text" id="path3837" d="M18 4a3 3 0 0 0-3 3c0 .087.024.165.031.25l-6.75 2.813A2.986 2.986 0 0 0 6 9a3 3 0 0 0 0 6c.916 0 1.731-.415 2.281-1.063l6.75 2.813c-.007.085-.031.163-.031.25a3 3 0 1 0 3-3c-.916 0-1.731.415-2.281 1.063l-6.75-2.813c.007-.085.031-.163.031-.25s-.024-.165-.031-.25l6.75-2.813A2.986 2.986 0 0 0 18 10a3 3 0 0 0 0-6zm0 2a1 1 0 1 1 0 2 1 1 0 0 1 0-2zM6 11a1 1 0 1 1 0 2 1 1 0 0 1 0-2zm12 5a1 1 0 1 1 0 2 1 1 0 0 1 0-2z" fill="currentColor"/></g><g id="slc-connect" transform="translate(-1 -1)"><path id="rect3009" fill="#fff" fill-opacity="0" stroke="none" d="M1 1h22v22H1z"/><path d="M14 4c-.779.779-.937 2.169-.031 3.688l-4.25 2.843c-.529-.213-1.096-.372-1.657-.375-.728-.003-1.437.219-2.062.844l3 3-4 4-1 2 2-1 4-4 3 3c1.107-1.107.965-2.508.469-3.719l2.844-4.25c1.518.906 2.908.748 3.687-.031l-6-6z" id="rect3845" class="ColorScheme-Text" fill="currentColor"/></g></svg>