<svg xmlns="http://www.w3.org/2000/svg" id="svg4153" version="1.1" width="22" height="22"><defs id="defs4157"><style type="text/css" id="current-color-scheme">.ColorScheme-Text{color:#dfdfdf}.ColorScheme-Background{color:#eff0f1}.ColorScheme-Highlight{color:#3daee9}</style></defs><g id="software-updates-important"><path id="path4198" d="M51 7l-3 3v9h14.1v-9l-3-3h-6zm.3 1h7.4l2 2H49.3zm1.7 3h4v5l-1-1-1 1-1-1-1 1z" class="ColorScheme-Text" fill="currentColor" fill-rule="evenodd" stroke="none" stroke-width="1" stroke-linecap="butt" stroke-linejoin="miter" stroke-opacity="1"/><path id="path4202" d="M60 3l3 5h-6z" fill="#fdbc4b" fill-opacity="1" fill-rule="evenodd" stroke="none" stroke-width="1" stroke-linecap="butt" stroke-linejoin="miter" stroke-opacity="1"/><path id="rect4206" opacity="1" fill="none" fill-opacity=".599" stroke="none" d="M44 0h22v22H44z"/></g><g id="software-updates-security"><path d="M29 7l-3 3v9h14.1v-9l-3-3h-6zm.3 1h7.4l2 2H27.3zm1.7 3h4v5l-1-1-1 1-1-1-1 1z" id="path4185" class="ColorScheme-Text" fill="currentColor" fill-rule="evenodd" stroke="none" stroke-width="1" stroke-linecap="butt" stroke-linejoin="miter" stroke-opacity="1"/><path id="path4191" d="M38 3c0 1-2 1-2 1v3c0 1 1 1 2 2 1-1 2-1 2-2V4s-2 0-2-1z" fill="#fdbc4b" fill-opacity="1" fill-rule="evenodd" stroke="none" stroke-width="1" stroke-linecap="butt" stroke-linejoin="miter" stroke-opacity="1"/><path id="rect4208" opacity="1" fill="none" fill-opacity=".599" stroke="none" d="M22 0h22v22H22z"/></g><g id="software-updates-updates"><path id="path4149" d="M7 7l-3 3v9h14.1v-9l-3-3h-6zm.3 1h7.4l2 2H5.3zM9 11h4v5l-1-1-1 1-1-1-1 1z" class="ColorScheme-Text" fill="currentColor" fill-rule="evenodd" stroke="none" stroke-width="1" stroke-linecap="butt" stroke-linejoin="miter" stroke-opacity="1"/><path id="path4180" d="M16 3a3 3 0 0 0-3 3 3 3 0 0 0 3 3 3 3 0 0 0 3-3 3 3 0 0 0-3-3z" opacity="1" fill="#2ecc71" fill-opacity="1" stroke="none"/><path id="path4167" d="M16 4l2 2h-1v2h-2V6h-1l1-1 1-1z" class="ColorScheme-Background" opacity="1" fill="currentColor" fill-opacity="1" stroke="none"/><path id="rect4212" opacity="1" fill="none" fill-opacity=".599" stroke="none" d="M0 0h22v22H0z"/></g><g id="software-updates-inactive"><path d="M-15 7l-3 3v9h14.1v-9l-3-3h-6zm.3 1h7.4l2 2h-11.4zm1.7 3h4v5l-1-1-1 1-1-1-1 1z" id="path4204" class="ColorScheme-Text" fill="currentColor" fill-rule="evenodd" stroke="none" stroke-width="1" stroke-linecap="butt" stroke-linejoin="miter" stroke-opacity="1"/><path id="rect4214" opacity="1" fill="none" fill-opacity=".599" stroke="none" d="M-22 0H0v22h-22z"/></g><g id="software-updates-release" transform="translate(0 22)"><path d="M7 7l-3 3v9h14.1v-9l-3-3h-6zm.3 1h7.4l2 2H5.3zM9 11h4v5l-1-1-1 1-1-1-1 1z" id="path4164" fill="#2ecc71" fill-opacity="1" fill-rule="evenodd" stroke="none" stroke-width="1" stroke-linecap="butt" stroke-linejoin="miter" stroke-opacity="1"/><path d="M16 3a3 3 0 0 0-3 3 3 3 0 0 0 3 3 3 3 0 0 0 3-3 3 3 0 0 0-3-3z" id="path4166" opacity="1" fill="#2ecc71" fill-opacity="1" stroke="none"/><path d="M16 4l2 2h-1v2h-2V6h-1l1-1 1-1z" id="path4168" class="ColorScheme-Background" opacity="1" fill="currentColor" fill-opacity="1" stroke="none"/><path id="rect4170" opacity="1" fill="none" fill-opacity=".599" stroke="none" d="M0 0h22v22H0z"/></g><g transform="translate(-22 22)" id="software-updates-additional"><path id="path4186" d="M7 7l-3 3v9h14.1v-9l-3-3h-6zm.3 1h7.4l2 2H5.3zM9 11h4v5l-1-1-1 1-1-1-1 1z" class="ColorScheme-Highlight" fill="currentColor" fill-opacity="1" fill-rule="evenodd" stroke="none" stroke-width="1" stroke-linecap="butt" stroke-linejoin="miter" stroke-opacity="1"/><path id="path4188" d="M16 3a3 3 0 0 0-3 3 3 3 0 0 0 3 3 3 3 0 0 0 3-3 3 3 0 0 0-3-3z" class="ColorScheme-Highlight" opacity="1" fill="currentColor" fill-opacity="1" stroke="none"/><path id="path4190" d="M16 4l2 2h-1v2h-2V6h-1l1-1 1-1z" class="ColorScheme-Background" opacity="1" fill="currentColor" fill-opacity="1" stroke="none"/><path id="rect4192" opacity="1" fill="none" fill-opacity=".599" stroke="none" d="M0 0h22v22H0z"/></g></svg>