<svg width="22" height="22" version="1.1" xmlns="http://www.w3.org/2000/svg">
 <defs>
  <style id="current-color-scheme" type="text/css"/>
 </defs>
 <g id="sogoupinyin" transform="translate(-113,-22)">
  <path transform="translate(113,22)" d="m5 3c-1.108 0-2 0.892-2 2v12c0 1.108 0.892 2 2 2h12c1.108 0 2-0.892 2-2v-12c0-1.108-0.892-2-2-2h-12zm5.6211 2.002c0.44601-0.0075 0.89899 0.0030963 1.25 0.035156 1.7636 0.167 3.299 0.71602 4.623 1.666 0.445 0.31551 0.45401 0.27712-0.35352 1.2031-0.65752 0.75201-0.75745 0.81643-0.91992 0.77344-0.0415-0.0085-0.22932-0.098058-0.42383-0.20508-1.009-0.56451-2.1524-0.97256-3.043-1.082-0.47798-0.058-0.84752 0.011568-1.0391 0.20508-0.0975 0.097-0.13532 0.35405-0.070313 0.49805 0.11749 0.27051 0.57541 0.53014 1.793 1.0156 1.7425 0.69802 2.4676 1.0698 3.1836 1.6309 0.71352 0.56051 1.1568 1.224 1.3223 1.959 0.10017 0.45351 0.063835 1.202-0.072265 1.582-0.13852 0.39101-0.31829 0.66959-0.61328 0.99609-0.82503 0.91952-2.392 1.5486-4.3145 1.7031-0.35099 0.026-1.3489 0.02349-1.6289 0-1.2285-0.105-1.883-0.22562-2.6641-0.51562-0.46551-0.1715-0.7433-0.30827-1.1562-0.55078-0.38052-0.2215-1.0728-0.73401-1.3203-0.97852-0.25057-0.24501-0.24531-0.31736 0.11719-0.67188 0.55701-0.54351 1.3124-1.2155 1.416-1.2715 0.13698-0.0735 0.17424-0.062766 0.63672 0.24023 0.45954 0.30301 1.0171 0.57594 1.5801 0.77344 0.79851 0.28551 1.3728 0.40761 2.0273 0.41211 0.35701 2e-3 0.42477-0.019438 0.61328-0.085938 0.283-0.103 0.40538-0.22189 0.42578-0.46289 0.0119-0.152-0.018803-0.21725-0.095703-0.34375-0.19698-0.31151-0.61837-0.56258-2.0039-1.1855-1.1555-0.52151-1.5566-0.72379-2.0762-1.0312-1.2235-0.72502-1.8725-1.4477-2.1465-2.3887-0.0823-0.26701-0.055562-0.96847 0.023437-1.2734 0.14401-0.50501 0.36194-0.89291 0.73047-1.2539 0.67301-0.66602 1.716-1.1247 3.0195-1.3242 0.29102-0.0435 0.73366-0.060259 1.1797-0.068359z" fill="#dfdfdf"/>
  <path d="m113 22h22v22h-22z" fill="none"/>
 </g>
 <g id="sogouwubi" transform="translate(-110,-22)">
  <path d="m135 25v15.998h9v1h8v-10h-1v-6.998zm1 0.99805h14v6h-7.7637l0.66601-3h4.0977v-1h-9v1h3.877l-0.66601 3h-2.2109v1h1.9883l-0.88867 4h-2.0996v1h6v2h-8zm6.0137 7h1.9863v4h-2.877zm5.7969 1.002c0.22329-0.0036 0.44975 0.0014 0.625 0.01758 0.88215 0.08353 1.6502 0.35882 2.3125 0.83398 0.22251 0.1578 0.22601 0.13836-0.17774 0.60156-0.32839 0.37611-0.37758 0.40825-0.45898 0.38672-0.0209-0.0042-0.11539-0.05029-0.21289-0.10352-0.50472-0.28233-1.0759-0.48598-1.5215-0.54102-0.23927-0.02901-0.42383 0.0067-0.51953 0.10352-0.0479 0.04857-0.065 0.17603-0.0351 0.24805 0.0587 0.1353 0.28751 0.26497 0.89648 0.50781 0.87163 0.34913 1.2335 0.53582 1.5918 0.81641 0.35692 0.28036 0.57765 0.61285 0.66015 0.98047 0.0496 0.22683 0.0331 0.60092-0.0351 0.79102-0.0694 0.19553-0.1589 0.33475-0.30664 0.49805-0.41266 0.45997-1.1966 0.77428-2.1582 0.85156-0.17556 0.01316-0.67448 0.01196-0.81445 0-0.61447-0.05252-0.94339-0.11276-1.334-0.25781-0.23268-0.08577-0.37177-0.15409-0.57813-0.27539-0.19003-0.11078-0.53635-0.36791-0.66016-0.49023-0.12444-0.12256-0.12069-0.15865 0.0606-0.33594 0.27891-0.27187 0.65313-0.60666 0.70703-0.63476 0.0688-0.03679 0.0869-0.03243 0.31836 0.11914 0.2298 0.15157 0.5093 0.28791 0.79102 0.38672 0.39945 0.14284 0.68648 0.20473 1.0137 0.20703 0.17885 0.0012 0.21409-0.0095 0.30859-0.04297 0.14174-0.0515 0.19894-0.1119 0.21094-0.23242 6e-3 -0.07603-0.011-0.1086-0.0469-0.17188-0.0986-0.15582-0.31091-0.28212-1.0039-0.59375-0.57823-0.26085-0.77751-0.36178-1.0371-0.51562-0.6119-0.36264-0.93725-0.72463-1.0742-1.1953-0.0418-0.13358-0.0301-0.48218 0.0117-0.63476 0.0718-0.25259 0.181-0.44833 0.36523-0.62891 0.33664-0.33316 0.85968-0.56234 1.5117-0.66211 0.14535-0.02154 0.36674-0.0292 0.58985-0.0332z" color="#dfdfdf" fill="currentColor"/>
  <path d="m132 21.998h22v22h-22z" fill="none"/>
 </g>
 <g id="sogou_notify" transform="translate(-113 3.5424)">
  <path transform="translate(113,-3.5424)" d="m5 28.543c-1.108 0-2 0.892-2 2v12c0 1.108 0.892 2 2 2h12c1.108 0 2-0.892 2-2v-12c0-1.108-0.892-2-2-2h-12zm5.6211 2.002c0.44601-0.0075 0.89899 0.003096 1.25 0.035156 1.7636 0.167 3.299 0.71602 4.623 1.666 0.445 0.31551 0.45401 0.27712-0.35352 1.2031-0.65752 0.75201-0.75745 0.81643-0.91992 0.77344-0.0415-0.0085-0.22932-0.098058-0.42383-0.20508-1.009-0.56451-2.1524-0.97256-3.043-1.082-0.47798-0.058-0.84752 0.011568-1.0391 0.20508-0.0975 0.097-0.13532 0.35405-0.070313 0.49805 0.11749 0.27051 0.57541 0.53014 1.793 1.0156 1.7425 0.69802 2.4676 1.0698 3.1836 1.6309 0.71352 0.56051 1.1568 1.224 1.3223 1.959 0.10017 0.45351 0.063835 1.202-0.072265 1.582-0.13852 0.39101-0.31829 0.66959-0.61328 0.99609-0.82503 0.91952-2.392 1.5486-4.3145 1.7031-0.35099 0.026-1.3489 0.02349-1.6289 0-1.2285-0.105-1.883-0.22562-2.6641-0.51562-0.46551-0.1715-0.7433-0.30827-1.1562-0.55078-0.38052-0.2215-1.0728-0.734-1.3203-0.97852-0.25057-0.24501-0.24531-0.31736 0.11719-0.67188 0.55701-0.54351 1.3124-1.2155 1.416-1.2715 0.13698-0.0735 0.17424-0.062765 0.63672 0.24024 0.45954 0.30301 1.0171 0.57594 1.5801 0.77344 0.79851 0.28551 1.3728 0.40761 2.0273 0.41211 0.35701 2e-3 0.42477-0.019438 0.61328-0.085938 0.283-0.103 0.40538-0.22189 0.42578-0.46289 0.0119-0.152-0.018803-0.21725-0.095703-0.34375-0.19698-0.31151-0.61837-0.56258-2.0039-1.1855-1.1555-0.52151-1.5566-0.72379-2.0762-1.0312-1.2235-0.72502-1.8725-1.4477-2.1465-2.3887-0.0823-0.26701-0.055562-0.96847 0.023437-1.2734 0.14401-0.50501 0.36194-0.89291 0.73047-1.2539 0.67301-0.66602 1.716-1.1247 3.0195-1.3242 0.29102-0.0435 0.73366-0.060259 1.1797-0.068359z" fill="#dfdfdf"/>
  <path d="m113 22h22v22h-22z" fill="none"/>
 </g>
</svg>
