<?xml version="1.0" encoding="UTF-8" standalone="no"?>
<svg
   xmlns:osb="http://www.openswatchbook.org/uri/2009/osb"
   xmlns:dc="http://purl.org/dc/elements/1.1/"
   xmlns:cc="http://creativecommons.org/ns#"
   xmlns:rdf="http://www.w3.org/1999/02/22-rdf-syntax-ns#"
   xmlns:svg="http://www.w3.org/2000/svg"
   xmlns="http://www.w3.org/2000/svg"
   xmlns:sodipodi="http://sodipodi.sourceforge.net/DTD/sodipodi-0.dtd"
   xmlns:inkscape="http://www.inkscape.org/namespaces/inkscape"
   viewBox="0 0 54 32"
   id="svg2"
   version="1.1"
   sodipodi:docname="start.svg"
   inkscape:version="0.92.4 (5da689c313, 2019-01-14)">
  <metadata
     id="metadata23">
    <rdf:RDF>
      <cc:Work
         rdf:about="">
        <dc:format>image/svg+xml</dc:format>
        <dc:type
           rdf:resource="http://purl.org/dc/dcmitype/StillImage" />
      </cc:Work>
    </rdf:RDF>
  </metadata>
  <sodipodi:namedview
     pagecolor="#ffffff"
     bordercolor="#666666"
     borderopacity="1"
     objecttolerance="10"
     gridtolerance="10"
     guidetolerance="10"
     inkscape:pageopacity="0"
     inkscape:pageshadow="2"
     inkscape:window-width="1366"
     inkscape:window-height="709"
     id="namedview21"
     showgrid="true"
     inkscape:snap-bbox="true"
     inkscape:bbox-nodes="true"
     inkscape:snap-bbox-edge-midpoints="true"
     inkscape:snap-nodes="true"
     inkscape:snap-intersection-paths="true"
     inkscape:snap-smooth-nodes="true"
     inkscape:snap-midpoints="true"
     inkscape:object-paths="true"
     inkscape:zoom="3.6875"
     inkscape:cx="48.560654"
     inkscape:cy="29.55692"
     inkscape:window-x="0"
     inkscape:window-y="0"
     inkscape:window-maximized="1"
     inkscape:current-layer="svg2">
    <inkscape:grid
       type="xygrid"
       id="grid830" />
  </sodipodi:namedview>
  <defs
     id="defs3051">
    <style
       type="text/css"
       id="current-color-scheme" />
    <linearGradient
       id="dark_icon_bg"
       osb:paint="solid">
      <stop
         offset="0"
         id="stop1476"
         stop-color="#32343d"
         stop-opacity="1" />
    </linearGradient>
    <linearGradient
       id="selected_fg_color"
       osb:paint="solid">
      <stop
         offset="0"
         id="stop6555"
         stop-color="#fffgit"
         stop-opacity="1" />
    </linearGradient>
  </defs>
  <g
     id="start-here-kde"
     transform="matrix(1.33333,0,0,1.33333,-79.33304,0)"
     stroke-miterlimit="4"
     style="fill:#dfdfdf;fill-opacity:1;stroke:none;stroke-width:0.75;stroke-linecap:round;stroke-linejoin:miter;stroke-miterlimit:4;stroke-dasharray:none;stroke-opacity:0.494;paint-order:stroke fill markers">
    <path
       style="opacity:1;stroke-width:0.95599765"
       d="M 38 1 A 15 15 0 0 0 23 16 A 15 15 0 0 0 38 31 A 15 15 0 0 0 53 16 A 15 15 0 0 0 38 1 z M 38 2 A 14 14 0 0 1 52 16 A 14 14 0 0 1 38 30 A 14 14 0 0 1 24 16 A 14 14 0 0 1 38 2 z "
       transform="matrix(0.75000188,0,0,0.75000188,59.499929,0)"
       id="path1786" />
    <path
       d="M 96.250021,16.500041 H 84.999992 l 5.250014,-9.7500241 z"
       id="path1820"
       inkscape:connector-curvature="0"
       style="opacity:0.5;stroke-width:0.75"
       sodipodi:nodetypes="cccc" />
    <path
       id="rect1817"
       d="M 92.500011,16.500041 H 79.749979 L 85.749994,4.5000113 Z"
       inkscape:connector-curvature="0"
       style="opacity:1;stroke-width:0.75"
       sodipodi:nodetypes="cccc" />
  </g>
  <g
     id="22-22-start-here-kde"
     transform="matrix(1.375,0,0,1.375,-5.5,-8.125)"
     stroke-miterlimit="4"
     style="fill:#dfdfdf;fill-opacity:1;stroke:none;stroke-width:0.727;stroke-linecap:round;stroke-miterlimit:4;stroke-dasharray:none">
    <path
       id="path884"
       d="m 17.090909,21.909091 h -6.545454 l 3.636363,-5.818182 z"
       inkscape:connector-curvature="0"
       style="opacity:0.5;stroke-width:0.727;stroke-linejoin:miter;stroke-opacity:0.494;paint-order:stroke fill markers"
       sodipodi:nodetypes="cccc" />
    <path
       d="M 14.909091,21.909091 H 6.9090909 l 3.6363641,-8 z"
       id="path886"
       inkscape:connector-curvature="0"
       style="opacity:1;stroke-width:0.727;stroke-linejoin:miter;stroke-opacity:0.494;paint-order:stroke fill markers"
       sodipodi:nodetypes="cccc" />
    <path
       style="opacity:1;fill-rule:evenodd;stroke-width:24.00062561;stroke-linejoin:round;stroke-opacity:1;paint-order:fill markers stroke"
       d="M 11 8 A 10 10 0 0 0 1 18 A 10 10 0 0 0 11 28 A 10 10 0 0 0 21 18 A 10 10 0 0 0 11 8 z M 11 9 A 9.0000005 9.0000005 0 0 1 20 18 A 9.0000005 9.0000005 0 0 1 11 27 A 9.0000005 9.0000005 0 0 1 2 18 A 9.0000005 9.0000005 0 0 1 11 9 z "
       transform="matrix(0.72727273,0,0,0.72727273,4,5.9090909)"
       id="path923" />
  </g>
  <g
     id="16-16-start-here-kde"
     transform="matrix(1.33333,0,0,1.33333,-74.33318,-50.99984)"
     stroke-miterlimit="4"
     style="fill:#dfdfdf;fill-opacity:1;stroke:none;stroke-width:0.75;stroke-linecap:round;stroke-miterlimit:4;stroke-dasharray:none">
    <path
       d="m 49.750009,55.500019 h -4.500011 l 1.500004,-3.75001 z"
       id="path936"
       inkscape:connector-curvature="0"
       style="opacity:0.5;stroke-width:0.75;stroke-linejoin:miter;stroke-opacity:0.494;paint-order:stroke fill markers"
       sodipodi:nodetypes="cccc" />
    <path
       id="path938"
       d="m 48.250006,55.500019 h -6.000015 l 2.250005,-4.500011 z"
       inkscape:connector-curvature="0"
       style="opacity:1;stroke-width:0.75;stroke-linejoin:miter;stroke-opacity:0.494;paint-order:stroke fill markers"
       sodipodi:nodetypes="cccc" />
    <path
       style="opacity:1;fill-rule:evenodd;stroke-width:23.99994087;stroke-linejoin:round;stroke-opacity:1;paint-order:fill markers stroke"
       d="M -13 14 A 7 7 0 0 0 -20 21 A 7 7 0 0 0 -13 28 A 7 7 0 0 0 -6 21 A 7 7 0 0 0 -13 14 z M -13 15 A 5.9999801 5.9999801 0 0 1 -7 21 A 5.9999801 5.9999801 0 0 1 -13 27 A 5.9999801 5.9999801 0 0 1 -19 21 A 5.9999801 5.9999801 0 0 1 -13 15 z "
       transform="matrix(0.75000188,0,0,0.75000188,55.750024,38.249976)"
       id="path948" />
  </g>
</svg>
