<svg xmlns="http://www.w3.org/2000/svg" version="1.1" id="svg2" viewBox="0 0 54 128"><defs id="defs3051"><style type="text/css" id="current-color-scheme">.ColorScheme-Text{color:#dfdfdf}</style></defs><g id="22-22-system-log-out"><path id="path7" class="ColorScheme-Text" d="M11 13c-4.432 0-8 3.568-8 8s3.568 8 8 8 8-3.568 8-8-3.568-8-8-8zm0 1c3.878 0 7 3.122 7 7s-3.122 7-7 7-7-3.122-7-7 3.122-7 7-7zm1.293 3L9 20.293 8.293 21l.707.707L12.293 25l.707-.707L9.707 21 13 17.707 12.293 17z" fill="currentColor" fill-opacity="1" stroke="none"/><path id="path9" d="M0 10v22h22V10H0z" opacity="1" fill="none"/></g><g id="system-log-out"><path id="path12" class="ColorScheme-Text" d="M38 4a12 12 0 0 0-12 12 12 12 0 0 0 12 12 12 12 0 0 0 12-12A12 12 0 0 0 38 4zm0 1a11 11 0 0 1 11 11 11 11 0 0 1-11 11 11 11 0 0 1-11-11A11 11 0 0 1 38 5zm3.27 3L33 16l8.27 8 .73-.707L34.46 16 42 8.707 41.27 8z" fill="currentColor" fill-opacity="1" stroke="none"/><path id="path14" d="M22 0v32h32V0H22z" opacity="1" fill="none"/></g><g transform="translate(54 96)" id="22-22-system-lock-screen"><path id="path17" class="ColorScheme-Text" d="M11 13c-2.216 0-4 1.784-4 4v4H5v8h12v-8h-2v-4c0-2.216-1.784-4-4-4zm0 1c1.662 0 3 1.561 3 3.5V21H8v-3.5c0-1.939 1.338-3.5 3-3.5zm-5 8h10v6H6v-6z" fill="currentColor" fill-opacity="1" stroke="none"/><path id="path19" d="M0 10v22h22V10H0z" opacity="1" fill="none"/></g><g transform="translate(54 96)" id="system-lock-screen"><path id="path22" class="ColorScheme-Text" d="M38 4c-6.627 0-12 5.373-12 12s5.373 12 12 12 12-5.373 12-12S44.627 4 38 4zm0 1c6.075 0 11 4.925 11 11s-4.925 11-11 11-11-4.925-11-11S31.925 5 38 5zm0 3c-2.216 0-4 1.784-4 4v4h-2v8h12v-8h-2v-4c0-2.216-1.784-4-4-4zm0 1c1.662 0 3 1.561 3 3.5V16h-6v-3.5c0-1.939 1.338-3.5 3-3.5zm-5 8h10v6H33v-6z" fill="currentColor" fill-opacity="1" stroke="none"/><path id="path24" d="M22 0v32h32V0H22z" opacity="1" fill="none"/></g><g transform="translate(54 64)" id="22-22-system-reboot"><path id="path27" class="ColorScheme-Text" d="M11 13c-1.442 0-2.803.37-3.969 1.031l.719.688.063.062 2.75 2.781.718-.718-2.5-2.469A6.938 6.938 0 0 1 11 14c3.878 0 7 3.122 7 7a6.992 6.992 0 0 1-.781 3.219l.75.75A8.023 8.023 0 0 0 19 21c0-4.432-3.568-8-8-8zm-6.969 4.031A8.023 8.023 0 0 0 3 21c0 4.432 3.568 8 8 8 1.442 0 2.803-.37 3.969-1.031l-.688-.688-.062-.062-2.781-2.782-.688.72 2.469 2.468A6.938 6.938 0 0 1 11 28c-3.878 0-7-3.122-7-7 0-1.163.284-2.256.781-3.219l-.75-.75z" fill="currentColor" fill-opacity="1" stroke="none"/><path id="path29" d="M0 10v22h22V10H0z" opacity="1" fill="none"/></g><g transform="translate(54 64)" id="system-reboot"><path id="path32" class="ColorScheme-Text" d="M38 4a12 12 0 0 0-6.084 1.672l5.377 5.379.707-.711-4.404-4.404A11 11 0 0 1 38 5a11 11 0 0 1 11 11 11 11 0 0 1-1.404 5.352l.732.728A12 12 0 0 0 50 16 12 12 0 0 0 38 4zM27.672 9.916A12 12 0 0 0 26 16a12 12 0 0 0 12 12 12 12 0 0 0 6.084-1.672l-5.377-5.379-.707.707 4.406 4.405A11 11 0 0 1 38 27a11 11 0 0 1-11-11 11 11 0 0 1 1.404-5.352l-.732-.732z" fill="currentColor" fill-opacity="1" stroke="none"/><path id="path34" d="M22 0v32h32V0H22z" opacity="1" fill="none"/></g><g transform="translate(112 32)" id="22-22-system-save-session"><path id="path37" class="ColorScheme-Text" d="M3 13.004v16h16v-12.7h-.007L19 16.29l-3.293-3.293-.008.015v-.015h-12.7zm1 1.001h3v5h8v-5h.293L18 16.712v11.293h-2v-7H6v7H4v-14zm4 0h3.9v4H8v-4zm-1 8h8v6H7v-6z" fill="currentColor" fill-opacity="1" stroke="none"/><path id="path39" d="M0 10v22h22V10H0z" opacity="1" fill="none"/></g><g transform="translate(112 32)" id="system-save-session"><path id="path42" class="ColorScheme-Text" d="M26 4v24h24V10l-1-1-4-4-1-1H26zm1 1h5v8h11V5h.586L49 10.414V27h-4v-8H31v8h-4V5zm6 0h6v7h-6V5zm-1 15h12v7H32v-7z" fill="currentColor" fill-opacity="1" stroke="none"/><path id="path44" d="M22 0v32h32V0H22z" opacity="1" fill="none"/></g><g transform="translate(0 32)" id="22-22-system-shutdown"><path id="path47" class="ColorScheme-Text" d="M10 13v7h2v-7h-2zm-1 .266A7.969 7.969 0 0 0 3 21c0 4.432 3.568 8 8 8s8-3.568 8-8a7.969 7.969 0 0 0-6-7.734v1.037c2.895.857 5 3.517 5 6.697 0 3.878-3.122 7-7 7s-7-3.122-7-7c0-3.18 2.105-5.84 5-6.697v-1.037z" fill="currentColor" fill-opacity="1" stroke="none"/><path id="path49" d="M0 10v22h22V10H0z" opacity="1" fill="none"/></g><g transform="translate(0 32)" id="system-shutdown"><path id="path52" class="ColorScheme-Text" d="M37 4v9h2V4h-2zm3 .17V5.19A11 11 0 0 1 49 16a11 11 0 0 1-11 11 11 11 0 0 1-11-11 11 11 0 0 1 9-10.81V4.181A12 12 0 0 0 26 16a12 12 0 0 0 12 12 12 12 0 0 0 12-12A12 12 0 0 0 40 4.17z" fill="currentColor" fill-opacity="1" stroke="none"/><path id="path54" d="M22 0v32h32V0H22z" opacity="1" fill="none"/></g><g transform="translate(0 64)" id="22-22-system-suspend-hibernate"><path id="path49-1" d="M0 10v22h22V10z" opacity="1" fill="none"/><path id="path918-7" class="ColorScheme-Text" d="M6.79 13.412l-.868.5 1.646 2.85-2.248-.602-.26.967 3.215.861 1.57 2.717H6.708l-2.353-2.353-.708.707 1.647 1.646H2v1h3.293l-1.647 1.647.708.707 2.353-2.354H9.84l-1.567 2.713-3.214.861.257.967 2.25-.603-1.646 2.851.865.5 1.647-2.851.603 2.25.965-.26-.861-3.217 1.855-3.21H11l1.857 3.218-.86 3.215.966.257.601-2.248L15.211 29l.867-.5-1.646-2.852 2.248.602.26-.965-3.215-.861-1.57-2.719h3.138l2.353 2.354.708-.707-1.647-1.647H20v-1h-3.293l1.647-1.646-.051-.059H17l-1.707 1.705h-3.137L13.141 19H12l-.998 1.703H11l-.004-.002-1.853-3.213.86-3.215-.966-.26-.601 2.25zm10.713 1.838h1.503l-.028.75H16l1.503-2.25H16V13h3.006zm-4.005 2H15l-.028.75h-2.975l1.501-2.25h-1.501V15H15z" fill="currentColor" fill-opacity="1" stroke="none"/></g><g transform="translate(0 64)" id="system-suspend-hibernate"><path id="path891-3" class="ColorScheme-Text" d="M31.79 5.244l-.868.5 2.146 3.717-3.615-.969-.258.967 4.58 1.227 3.069 5.316h-6.137l-3.353-3.353-.708.707 2.647 2.646H25v1h4.293l-2.647 2.647.708.707 3.353-3.354h6.137l-3.069 5.317-4.58 1.226.258.967 3.615-.969-2.146 3.717.867.5 2.147-3.717.968 3.615.965-.26-1.226-4.58L38 17.003l3.357 5.817-1.226 4.58.965.26.968-3.616 2.147 3.717.867-.5-2.146-3.717 3.615.969.258-.967-4.58-1.226-3.069-5.317h6.137l3.353 3.354.708-.707-2.647-2.647H51v-1h-4.293L48.715 14h-1.428l-1.994 2.002h-6.137L40.31 14h-1.16L38 16l-3.357-5.814 1.226-4.58-.965-.26-.968 3.615zm15.543 1.287H49v.844h-3.333l1.666-2.531h-1.666V4H49zm-1.99 5.625h1.667V13h-3.333l1.667-2.531h-1.667v-.844h3.333zm-4.676-3.375h1.666v.844H39l1.667-2.531H39V6.25h3.333z" fill="currentColor" fill-opacity="1" stroke="none"/><path id="path64" d="M22 0v32h32V0H22z" opacity="1" fill="none"/></g><g transform="translate(0 96)" id="22-22-system-suspend"><path id="path69" d="M0 10v22h21V10z" opacity="1" fill="none"/><path id="path893-3" class="ColorScheme-Text" d="M7.046 14.049A7.995 8 0 0 0 3 21a7.995 8 0 0 0 7.995 8 7.995 8 0 0 0 6.937-4.043 7.995 8 0 0 0 .01-.006l-.738-.738a6.996 7 0 0 1-.004.006 6.996 7 0 0 1-3.207.781 6.996 7 0 0 1-6.996-7 6.996 7 0 0 1 .787-3.213zm-.743 1.771A7.995 8 0 0 0 5.998 18a7.995 8 0 0 0 7.995 8 7.995 8 0 0 0 2.186-.313A6.996 7 0 0 1 10.995 28a6.996 7 0 0 1-6.996-7 6.996 7 0 0 1 2.304-5.18zm5.407 3.28h1.715l-.032.9H9.996l1.714-2.7H9.996v-.9h3.429zm4.573-2.4H18l-.032.9h-3.401l1.716-2.7h-1.716V14H18z" fill="currentColor" fill-opacity="1" stroke="none"/></g><g transform="translate(0 96)" id="system-suspend"><path id="path902-3" class="ColorScheme-Text" d="M32.216 4A12.955 12.955 0 0 0 26 15.046C26 22.2 31.798 28 38.95 28A12.948 12.948 0 0 0 50 21.78l-.79-.79a11.868 11.868 0 0 1-5.942 1.612c-6.557 0-11.872-5.316-11.872-11.874.003-2.09.558-4.141 1.608-5.948zm-.906 1.817a12.957 12.957 0 0 0-.993 4.91c0 7.155 5.798 12.955 12.95 12.955a12.934 12.934 0 0 0 4.973-1.008l-.318.14a11.87 11.87 0 0 1-8.971 4.106c-6.557 0-11.872-5.316-11.872-11.874a11.874 11.874 0 0 1 4.117-8.973zm14.857 1.996H48v.937h-3.667l1.834-2.812h-1.834V5H48zm-2.189 6.25h1.833V15h-3.666l1.833-2.813h-1.833v-.937h3.666zm-5.145-4h1.834V11H37l1.833-2.813H37V7.25h3.667z" fill="currentColor" fill-opacity="1" stroke="none"/><path id="path74" d="M22 0v32h32V0H22z" opacity="1" fill="none"/></g><g transform="translate(54)" id="22-22-system-switch-user"><path id="path890" class="ColorScheme-Text" d="M11.398 12.388c-1.99 0-3.22 1.264-3.398 2.799v1.018l-2.151-1.52-.849.663 2.547 1.989.849.663.849-.663 2.547-1.99-.85-.662L9 16.205v-1.018c0-1.036 1.065-1.799 2.398-1.799 1.332 0 2.62.764 2.602 1.799V16h1v-.813c0-1.546-1.613-2.799-3.602-2.799zM14 17a2 2 0 1 0 0 4 2 2 0 0 0 0-4zm-6 2a2 2 0 0 0-2 2 2 2 0 0 0 2 2 2 2 0 0 0 2-2 2 2 0 0 0-2-2zm6.016 3c-1.52 0-2.765 1.163-2.979 2.672C11.62 25.334 12 26 12 27H16.43c.393-.54.606-1.199.607-1.875 0-1.726-1.352-3.125-3.021-3.125zm-.05 1c1.103 0 1.997.84 1.997 1.875 0 .406-.14.8-.4 1.125h-2.821A2.525 2.525 0 0 0 12 24.602c.142-.906.964-1.602 1.967-1.602zM8 24a3 3.125 0 0 0-3 3.125A3 3.125 0 0 0 5.605 29h4.793A3 3.125 0 0 0 11 27.125 3 3.125 0 0 0 8 24zm0 1a2 2.25 0 0 1 2 2.25 2 2.25 0 0 1-.117.75H6.117A2 2.25 0 0 1 6 27.25 2 2.25 0 0 1 8 25z" fill="currentColor" fill-opacity="1" stroke="none"/><path id="path79" d="M0 10v22h22V10H0z" opacity="1" fill="none"/></g><g transform="translate(54)" id="system-switch-user"><path id="path84" d="M22 0v32h32V0H22z" opacity="1" fill="none"/><path id="path1011" transform="translate(-54)" class="ColorScheme-Text" d="M94 8a3.977 3.977 0 0 0-3.148 1.56c.329.113.646.251.945.419A2.981 2.981 0 0 1 94 9a2.993 2.993 0 1 1 .744 5.896c0 .035.006.069.006.104 0 .318-.032.628-.082.932A3.99 3.99 0 0 0 98 12a4 4 0 0 0-4-4zm-5 12c-3.881 0-7 2.69-7 6.436.003.527.07 1.051.198 1.564h13.659c.129-.513.14-1.037.143-1.564C96 22.69 92.881 20 89 20zm.027.992c3.814 0 5.973 2.274 5.973 5.444a5.48 5.48 0 0 1-.029.521H83.029a5.656 5.656 0 0 1-.029-.521c0-3.17 2.18-5.444 5.973-5.444zM95.251 17c-.257 0-.509.016-.758.043A5.756 5.756 0 0 1 94 18.14 5.92 5.92 0 0 1 95.251 18c3.154 0 5.71 2.462 5.71 5.5 0 .167-.008.334-.026.5h-4.53c.109.321.203.649.27.986l5.134.014c.124-.491.188-.995.191-1.5 0-3.59-3.022-6.5-6.749-6.5zM89 11a4 4 0 1 0 0 8 4 4 0 0 0 0-8zm0 1a3 3 0 1 1 0 6 3 3 0 0 1 0-6zm3.027-8.2a3.68 3.68 0 0 0-3.684 3.675v.616l-1.607-1.703-.613.743 2.233 2.227L89 10l.582-.743 2.064-2.227-.644-.642-1.707 1.703v-.616c0-1.45 1.279-2.625 2.732-2.625C93.48 4.85 94 5.37 94 6.82h1c0-2.1-1.117-2.98-2.973-3.019z" fill="currentColor" fill-opacity="1" stroke="none"/></g><g transform="translate(54 32)" id="22-22-system-users"><path id="path87" class="ColorScheme-Text" d="M14 13c-1.662 0-3 1.338-3 3s1.338 3 3 3 3-1.338 3-3-1.338-3-3-3zm-6 3c-1.662 0-3 1.338-3 3s1.338 3 3 3 3-1.338 3-3-1.338-3-3-3zm6 4c-.646 0-1.256.134-1.818.361l.455.914c.428-.16.877-.275 1.363-.275 2.216 0 4 1.784 4 4h-3.5l.5 1h4v-1c0-2.77-2.23-5-5-5zm-6 3c-2.77 0-5 2.23-5 5v1h10v-1c0-2.77-2.23-5-5-5zm0 1c2.216 0 4 1.784 4 4H4c0-2.216 1.784-4 4-4z" fill="currentColor" fill-opacity="1" stroke="none"/><path id="path89" d="M0 10v22h22V10H0z" opacity="1" fill="none"/></g><g transform="translate(54 32)" id="system-users"><path id="path92" class="ColorScheme-Text" d="M42.5 4A4.5 4.5 0 0 0 38 8.5a4.5 4.5 0 0 0 4.5 4.5A4.5 4.5 0 0 0 47 8.5 4.5 4.5 0 0 0 42.5 4zm0 1A3.5 3.5 0 0 1 46 8.5a3.5 3.5 0 0 1-3.5 3.5A3.5 3.5 0 0 1 39 8.5 3.5 3.5 0 0 1 42.5 5zm-9 4a4.5 4.5 0 1 0 0 9 4.5 4.5 0 0 0 0-9zm0 1a3.5 3.5 0 0 1 3.5 3.5 3.5 3.5 0 0 1-3.5 3.5 3.5 3.5 0 0 1-3.5-3.5 3.5 3.5 0 0 1 3.5-3.5zm9 4a7.084 7.084 0 0 0-2.586.5 6.5 6.5 0 0 1-.322 1.242A6.124 6.124 0 0 1 42.5 15c3.59 0 6.5 3.134 6.5 7h-8.342c.17.323.326.657.465 1H50v-1c0-4.418-3.358-8-7.5-8zm-9 5c-4.142 0-7.5 3.582-7.5 8v1h15v-1c0-4.418-3.358-8-7.5-8zm0 1c3.59 0 6.5 3.134 6.5 7H27c0-3.866 2.91-7 6.5-7z" fill="currentColor" fill-opacity="1" stroke="none"/><path id="path94" d="M22 0v32h32V0H22z" opacity="1" fill="none"/></g><g transform="translate(0 -32)" id="22-22-system-search"><path id="path61" class="ColorScheme-Text" d="M9 13c-3.324 0-6 2.676-6 6s2.676 6 6 6c1.481 0 2.83-.535 3.875-1.418L18.293 29l.707-.707-5.418-5.418A5.975 5.975 0 0 0 15 19c0-3.324-2.676-6-6-6zm0 1c2.77 0 5 2.23 5 5s-2.23 5-5 5-5-2.23-5-5 2.23-5 5-5z" fill="currentColor" fill-opacity="1" stroke="none"/><path id="path63" d="M0 10v22h22V10H0z" opacity="1" fill="none"/></g><g transform="translate(0 -32)" id="system-search"><path id="path66" class="ColorScheme-Text" d="M35 4a9 9 0 0 0-9 9 9 9 0 0 0 9 9 9 9 0 0 0 5.994-2.299L49.293 28l.707-.707-8.3-8.3A9 9 0 0 0 44 13a9 9 0 0 0-9-9zm0 1a8 8 0 0 1 8 8 8 8 0 0 1-8 8 8 8 0 0 1-8-8 8 8 0 0 1 8-8z" fill="currentColor" fill-opacity="1" stroke="none"/><path id="path68" d="M22 0v32h32V0H22z" opacity="1" fill="none"/></g><g transform="translate(108)" id="system-user-list"><path id="path110" class="ColorScheme-Text" d="M45 9c-.59 0-1.133.175-1.594.469.043.464.008.922-.008 1.336a2 2 0 1 1-.39 1.36c-.185.419-.465.77-.696 1.099l-.004.004C42.784 14.288 43.797 15 45 15a2.992 2.992 0 0 0 2.998-3c0-1.662-1.337-3-2.998-3zm-7 9c4.432 0 8 3.568 8 8H30c0-4.432 3.568-8 8-8zm0-1c-4.986 0-9 3.717-9 8.333V27h18v-1.667C47 20.717 42.986 17 38 17zm6.977-1a4.984 4.984 0 0 0-3.276 1.24c.38.156.766.336 1.143.508l.013.008c.616-.45 1.333-.756 2.118-.756 2.226 0 4.023 2.338 4.023 4H46.27c.196.34.301.648.449 1H50v-1c0-2.77-2.24-4.999-5.021-5zM38 6a4 4 0 1 1 0 8 4 4 0 0 1 0-8zm0-1a5 5 0 1 0 0 10 5 5 0 0 0 0-10zm-6.977 11c1.262 0 2.397.479 3.276 1.24-.405.163-.806.356-1.156.516-.616-.45-1.333-.756-2.118-.756-2.226 0-4.023 2.338-4.023 4h2.728c-.187.333-.318.69-.449 1H26v-1c0-2.77 2.24-4.999 5.021-5zm-.025-7c.59 0 1.133.175 1.594.469-.049.46-.01.927.008 1.336a2 2 0 1 0 .39 1.36c.189.402.472.77.696 1.099l.004.004C33.214 14.288 32.2 15 30.998 15A2.992 2.992 0 0 1 28 12c0-1.662 1.337-3 2.998-3z" fill="currentColor" fill-opacity="1" stroke="none"/><path id="path84-3" d="M22 0v32h32V0z" opacity="1" fill="none"/></g><g transform="translate(112 64)" id="system-user-prompt"><path id="path44-5" d="M22 0v32h32V0z" opacity="1" fill="none"/><path id="path889" class="ColorScheme-Text" d="M37 10.75v1.5h5v-1.5zm-4 0v1.5h3v-1.5zm-6 0v1.5h5v-1.5zM26 9h24v5H26zm-1-1v7h26V8zm1 10h24v5H26zm-1-1v7h26v-7zm3.5 2a1.5 1.5 0 1 0 0 3 1.5 1.5 0 0 0 0-3zm4 0a1.5 1.5 0 1 0 0 3 1.5 1.5 0 0 0 0-3zm4 0a1.5 1.5 0 1 0 0 3 1.5 1.5 0 0 0 0-3zm4 0a1.5 1.5 0 1 0 0 3 1.5 1.5 0 0 0 0-3z" fill="currentColor" fill-opacity="1" stroke="none"/></g><g transform="translate(96.875 74) scale(.6875)" id="22-22-system-user-prompt" stroke-width="1.455"><path id="path909-5" class="ColorScheme-Text" d="M35.818 21.09a.727.727 0 0 1-.727.728.727.727 0 0 1-.727-.727.727.727 0 0 1 .727-.727.727.727 0 0 1 .727.727zm-2.182 0a.727.727 0 0 1-.727.728.727.727 0 0 1-.727-.727.727.727 0 0 1 .727-.727.727.727 0 0 1 .727.727zm-2.181 0a.727.727 0 0 1-.728.728.727.727 0 0 1-.727-.727.727.727 0 0 1 .727-.727.727.727 0 0 1 .728.727zm-2.182 0a.727.727 0 0 1-.728.728.727.727 0 0 1-.727-.727.727.727 0 0 1 .727-.727.727.727 0 0 1 .728.727zm5.818-10.908H38v1.454h-2.91zm-2.91 0h1.455v1.454h-1.454zm-4.363 0h2.91v1.454h-2.91zm-2.909 7.273v7.272h26.182v-7.272zm1.455 1.454h23.272v4.364H26.364zM24.909 7.273v7.272h26.182V7.273zm1.455 1.454h23.272v4.364H26.364z" fill="currentColor" fill-opacity="1" stroke="none"/><path id="path44-5-7" d="M22 0v32h32V0z" opacity="1" fill="none"/></g><g transform="translate(92.875 10) scale(.6875)" id="22-22-system-user-list" stroke-width="1.455"><path id="path340-1-2" class="ColorScheme-Text" d="M44.552 10.182c-.374 0-.72.103-1.028.27 0 .002-.096.058-.095.06.114 1.453-.25 2.377-.665 3.099a2.184 2.184 0 0 0 1.788.934 2.183 2.183 0 0 0 0-4.363zm-13.097 0c.374 0 .72.103 1.028.27 0 .002.095.058.095.06-.115 1.453.25 2.377.665 3.099a2.184 2.184 0 0 1-1.788.934 2.183 2.183 0 0 1 0-4.363zm0 5.818c1.226 0 2.302.566 2.96 1.477-.37.196-.745.436-1.071.63-.359-.422-1.025-.652-1.89-.652-1.309 0-2.181.96-2.181 2.909h1.818l-.727 1.454h-2.546v-2.21c0-2.093 1.622-3.608 3.637-3.608zm13.09 0c-1.226 0-2.302.566-2.96 1.477.37.196.745.436 1.071.63.359-.422 1.025-.652 1.89-.652 1.309 0 2.181.993 2.181 2.909H44.91l.727 1.454h2.546v-2.21c0-2.093-1.622-3.608-3.637-3.608zM38 18.91c2.91 0 5.818 1.454 5.818 5.817H32.182c0-4.363 2.909-5.818 5.818-5.818zm0-1.455c-4.23 0-7.261 2.974-7.27 7.272l-.003 1.455h14.546l-.003-1.455c-.009-4.321-3.04-7.272-7.27-7.272zm0-11.637A5.09 5.09 0 1 0 38 16a5.09 5.09 0 0 0 0-10.182z" fill="currentColor" fill-opacity="1" stroke="none"/><path id="path84-3-7" d="M22 0v32h32V0z" opacity="1" fill="none"/></g></svg>