<?xml version="1.0" encoding="UTF-8" standalone="no"?>
<svg
   xmlns:dc="http://purl.org/dc/elements/1.1/"
   xmlns:cc="http://creativecommons.org/ns#"
   xmlns:rdf="http://www.w3.org/1999/02/22-rdf-syntax-ns#"
   xmlns:svg="http://www.w3.org/2000/svg"
   xmlns="http://www.w3.org/2000/svg"
   xmlns:sodipodi="http://sodipodi.sourceforge.net/DTD/sodipodi-0.dtd"
   xmlns:inkscape="http://www.inkscape.org/namespaces/inkscape"
   version="1.1"
   id="svg2"
   viewBox="0 0 54 64"
   sodipodi:docname="touchpad.svg"
   inkscape:version="0.92.4 (5da689c313, 2019-01-14)">
  <metadata
     id="metadata21">
    <rdf:RDF>
      <cc:Work
         rdf:about="">
        <dc:format>image/svg+xml</dc:format>
        <dc:type
           rdf:resource="http://purl.org/dc/dcmitype/StillImage" />
        <dc:title></dc:title>
      </cc:Work>
    </rdf:RDF>
  </metadata>
  <sodipodi:namedview
     pagecolor="#ffffff"
     bordercolor="#666666"
     borderopacity="1"
     objecttolerance="10"
     gridtolerance="10"
     guidetolerance="10"
     inkscape:pageopacity="0"
     inkscape:pageshadow="2"
     inkscape:window-width="1366"
     inkscape:window-height="705"
     id="namedview19"
     showgrid="false"
     inkscape:zoom="3.493042"
     inkscape:cx="57.458318"
     inkscape:cy="8.9252255"
     inkscape:window-x="0"
     inkscape:window-y="34"
     inkscape:window-maximized="1"
     inkscape:current-layer="svg2" />
  <defs
     id="defs3051">
    <style
       type="text/css"
       id="current-color-scheme">.ColorScheme-Text{color:#dfdfdf}.ColorScheme-NegativeText{color:#da4453}</style>
  </defs>
  <g
     transform="translate(0 32)"
     id="22-22-touchpad_enabled">
    <path
       id="path7"
       class="ColorScheme-Text"
       d="M4 13c-.554 0-1 .446-1 1v14c0 .554.446 1 1 1h14c.554 0 1-.446 1-1V14c0-.554-.446-1-1-1H4zm0 1h14v11H4V14zm0 12h6v2H4v-2zm8 0h6v2h-6v-2z"
       fill="currentColor"
       fill-opacity="1"
       stroke="none" />
    <path
       id="path9"
       d="M0 10v22h22V10H0z"
       opacity="1"
       fill="none" />
  </g>
  <g
     transform="translate(0 32)"
     id="touchpad_enabled">
    <path
       id="path12"
       class="ColorScheme-Text"
       d="M27 4c-.554 0-1 .446-1 1v22c0 .554.446 1 1 1h22c.554 0 1-.446 1-1V5c0-.554-.446-1-1-1H27zm0 1h22v17H27V5zm0 18h10v4H27v-4zm12 0h10v4H39v-4z"
       fill="currentColor"
       fill-opacity="1"
       stroke="none" />
    <path
       id="path14"
       d="M22 0v32h32V0H22z"
       opacity="1"
       fill="none" />
  </g>
  <g
     id="22-22-touchpad_disabled">
    <path
       id="path17"
       class="ColorScheme-Text"
       d="M4 13c-.554 0-1 .446-1 1v14c0 .554.446 1 1 1h14c.554 0 1-.446 1-1V14c0-.554-.446-1-1-1H4zm0 1h14v11H4V14zm0 12h6v2H4v-2zm8 0h6v2h-6v-2z"
       fill="currentColor"
       fill-opacity=".6"
       stroke="none" />
    <path
       id="path19"
       d="M0 10v22h22V10H0z"
       opacity="1"
       fill="none" />
    <path
       id="path21"
       class="ColorScheme-NegativeText"
       d="M8.848 17L8 17.848 10.152 20 8 22.152l.848.848L11 20.848 13.152 23l.848-.848L11.848 20 14 17.848 13.152 17 11 19.152 8.848 17z"
       fill="currentColor"
       fill-opacity="1"
       stroke="none" />
  </g>
  <g
     id="touchpad_disabled">
    <path
       id="path24"
       class="ColorScheme-Text"
       d="M27 4c-.554 0-1 .446-1 1v22c0 .554.446 1 1 1h22c.554 0 1-.446 1-1V5c0-.554-.446-1-1-1H27zm0 1h22v17H27V5zm0 18h10v4H27v-4zm12 0h10v4H39v-4z"
       fill="currentColor"
       fill-opacity=".6"
       stroke="none" />
    <path
       id="path26"
       d="M22 0v32h32V0H22z"
       opacity="1"
       fill="none" />
  </g>
  <path
     id="path28"
     class="ColorScheme-NegativeText"
     d="M34 10.207l3.293 3.293L34 16.793c.013.025.707.707.707.707L38 14.207l3.293 3.293.707-.707-3.293-3.293L42 10.207l-.707-.707L38 12.793 34.707 9.5z"
     fill="currentColor"
     fill-opacity="1"
     stroke="none" />
  <g
     id="input-touchpad-on"
     transform="translate(62.409785,32)">
    <path
       d="m 4,13 c -0.554,0 -1,0.446 -1,1 v 14 c 0,0.554 0.446,1 1,1 h 14 c 0.554,0 1,-0.446 1,-1 V 14 c 0,-0.554 -0.446,-1 -1,-1 z m 0,1 H 18 V 25 H 4 Z m 0,12 h 6 v 2 H 4 Z m 8,0 h 6 v 2 h -6 z"
       class="ColorScheme-Text"
       id="path831"
       inkscape:connector-curvature="0"
       style="color:#dfdfdf;fill:currentColor;fill-opacity:1;stroke:none" />
    <path
       d="M 0,10 V 32 H 22 V 10 Z"
       id="path833"
       inkscape:connector-curvature="0"
       style="opacity:1;fill:none" />
  </g>
  <g
     id="input-touchpad-off"
     transform="translate(62.409785)">
    <path
       d="m 4,13 c -0.554,0 -1,0.446 -1,1 v 14 c 0,0.554 0.446,1 1,1 h 14 c 0.554,0 1,-0.446 1,-1 V 14 c 0,-0.554 -0.446,-1 -1,-1 z m 0,1 H 18 V 25 H 4 Z m 0,12 h 6 v 2 H 4 Z m 8,0 h 6 v 2 h -6 z"
       class="ColorScheme-Text"
       id="path837"
       inkscape:connector-curvature="0"
       style="color:#dfdfdf;fill:currentColor;fill-opacity:0.6;stroke:none" />
    <path
       d="M 0,10 V 32 H 22 V 10 Z"
       id="path839"
       inkscape:connector-curvature="0"
       style="opacity:1;fill:none" />
    <path
       d="M 8.848,17 8,17.848 10.152,20 8,22.152 8.848,23 11,20.848 13.152,23 14,22.152 11.848,20 14,17.848 13.152,17 11,19.152 Z"
       class="ColorScheme-NegativeText"
       id="path841"
       inkscape:connector-curvature="0"
       style="color:#da4453;fill:currentColor;fill-opacity:1;stroke:none" />
  </g>
</svg>
