<svg xmlns="http://www.w3.org/2000/svg" version="1.1" id="svg2" viewBox="0 0 54 64"><defs id="defs3051"><style type="text/css" id="current-color-scheme">.ColorScheme-Text{color:#dfdfdf}.ColorScheme-NegativeText{color:#da4453}</style></defs><g transform="translate(0 32)" id="22-22-touchpad_enabled"><path id="path7" class="ColorScheme-Text" d="M4 13c-.554 0-1 .446-1 1v14c0 .554.446 1 1 1h14c.554 0 1-.446 1-1V14c0-.554-.446-1-1-1H4zm0 1h14v11H4V14zm0 12h6v2H4v-2zm8 0h6v2h-6v-2z" fill="currentColor" fill-opacity="1" stroke="none"/><path id="path9" d="M0 10v22h22V10H0z" opacity="1" fill="none"/></g><g transform="translate(0 32)" id="touchpad_enabled"><path id="path12" class="ColorScheme-Text" d="M27 4c-.554 0-1 .446-1 1v22c0 .554.446 1 1 1h22c.554 0 1-.446 1-1V5c0-.554-.446-1-1-1H27zm0 1h22v17H27V5zm0 18h10v4H27v-4zm12 0h10v4H39v-4z" fill="currentColor" fill-opacity="1" stroke="none"/><path id="path14" d="M22 0v32h32V0H22z" opacity="1" fill="none"/></g><g id="22-22-touchpad_disabled"><path id="path17" class="ColorScheme-Text" d="M4 13c-.554 0-1 .446-1 1v14c0 .554.446 1 1 1h14c.554 0 1-.446 1-1V14c0-.554-.446-1-1-1H4zm0 1h14v11H4V14zm0 12h6v2H4v-2zm8 0h6v2h-6v-2z" fill="currentColor" fill-opacity=".6" stroke="none"/><path id="path19" d="M0 10v22h22V10H0z" opacity="1" fill="none"/><path id="path21" class="ColorScheme-NegativeText" d="M8.848 17L8 17.848 10.152 20 8 22.152l.848.848L11 20.848 13.152 23l.848-.848L11.848 20 14 17.848 13.152 17 11 19.152 8.848 17z" fill="currentColor" fill-opacity="1" stroke="none"/></g><g id="touchpad_disabled"><path id="path24" class="ColorScheme-Text" d="M27 4c-.554 0-1 .446-1 1v22c0 .554.446 1 1 1h22c.554 0 1-.446 1-1V5c0-.554-.446-1-1-1H27zm0 1h22v17H27V5zm0 18h10v4H27v-4zm12 0h10v4H39v-4z" fill="currentColor" fill-opacity=".6" stroke="none"/><path id="path26" d="M22 0v32h32V0H22z" opacity="1" fill="none"/></g><path id="path28" class="ColorScheme-NegativeText" d="M34 10.207l3.293 3.293L34 16.793c.013.025.707.707.707.707L38 14.207l3.293 3.293.707-.707-3.293-3.293L42 10.207l-.707-.707L38 12.793 34.707 9.5z" fill="currentColor" fill-opacity="1" stroke="none"/></svg>