<svg xmlns="http://www.w3.org/2000/svg" id="svg4153" version="1.1" width="22" height="22"><defs id="defs4157"><style type="text/css" id="current-color-scheme">.ColorScheme-Text{color:#dfdfdf}.ColorScheme-Background{color:#eff0f1}</style></defs><g id="user-away" fill-opacity="1" stroke="none"><path id="rect4562" opacity=".97" fill="none" d="M-44 0h22v22h-22z"/><path id="path4149" d="M-33 3a4 4 0 0 0-4 4 4 4 0 0 0 4 4 4 4 0 0 0 4-4 4 4 0 0 0-4-4zm0 1a3 3 0 0 1 3 3 3 3 0 0 1-3 3 3 3 0 0 1-3-3 3 3 0 0 1 3-3z" opacity="1" fill="#fdbc4b"/><path id="ellipse4156" d="M-33 12a8 8 0 0 0-7.928 7h1.008A7 7 0 0 1-33 13a7 7 0 0 1 1 .08v-1.01a8 8 0 0 0-1-.07z" opacity="1" fill="#fdbc4b"/><path id="path4227" d="M-25 11l-8 4 2 1 1 3 1-2 2 1z" fill="#fdbc4b" fill-rule="evenodd" stroke-width="1" stroke-linecap="butt" stroke-linejoin="miter" stroke-opacity="1"/></g><g id="user-busy"><path id="rect4560" opacity=".97" fill="none" fill-opacity="1" stroke="none" d="M-66 0h22v22h-22z"/><path id="path4149-4" d="M-55 3a4 4 0 0 0-4 4 4 4 0 0 0 4 4 4 4 0 0 0 4-4 4 4 0 0 0-4-4zm0 1a3 3 0 0 1 3 3 3 3 0 0 1-3 3 3 3 0 0 1-3-3 3 3 0 0 1 3-3z" opacity="1" fill="#f47750" fill-opacity="1" stroke="none"/><path id="ellipse4156-7" d="M-55 12a8 8 0 0 0-7.928 7h1.008A7 7 0 0 1-55 13a7 7 0 0 1 1 .08v-1.01a8 8 0 0 0-1-.07z" opacity="1" fill="#f47750" fill-opacity="1" stroke="none"/><path id="path4169" d="M-50.5 12a3.5 3.5 0 0 0-3.5 3.5 3.5 3.5 0 0 0 3.5 3.5 3.5 3.5 0 0 0 3.5-3.5 3.5 3.5 0 0 0-3.5-3.5z" opacity="1" fill="#f47750" fill-opacity="1" stroke="none"/><path id="rect4146" d="M-51 13v3h2v-1h-1v-2z" class="ColorScheme-Background" opacity="1" fill="currentColor" fill-opacity="1" stroke="none"/></g><g id="user-invisible"><path id="rect4556" opacity=".97" fill="none" fill-opacity="1" stroke="none" d="M22 0h22v22H22z"/><path id="path4149-7" d="M33 3a4 4 0 0 0-4 4 4 4 0 0 0 4 4 4 4 0 0 0 4-4 4 4 0 0 0-4-4zm0 1a3 3 0 0 1 3 3 3 3 0 0 1-3 3 3 3 0 0 1-3-3 3 3 0 0 1 3-3z" class="ColorScheme-Text" opacity="1" fill="currentColor" fill-opacity="1" stroke="none"/><path id="ellipse4156-0" d="M33 12a8 8 0 0 0-7.928 7h1.008A7 7 0 0 1 33 13a7 7 0 0 1 1 .08v-1.01a8 8 0 0 0-1-.07z" class="ColorScheme-Text" opacity="1" fill="currentColor" fill-opacity="1" stroke="none"/><circle r="3.5" cy="15.5" cx="37.5" id="path4167" opacity="1" fill="#666" fill-opacity="1" stroke="none"/><path transform="rotate(45)" id="rect4152" class="ColorScheme-Background" opacity="1" fill="currentColor" fill-opacity="1" stroke="none" d="M36.977-17.885h1v4.657h-1z"/></g><g id="user-offline"><path id="rect4564" opacity=".97" fill="none" fill-opacity="1" stroke="none" d="M-22 0H0v22h-22z"/><ellipse ry="3.25" rx="3.25" cy="15.5" cx="-6.5" id="path4146" class="ColorScheme-Background" opacity="1" fill="currentColor" fill-opacity="1" stroke="none"/><path id="path4149-3" d="M-11 3a4 4 0 0 0-4 4 4 4 0 0 0 4 4 4 4 0 0 0 4-4 4 4 0 0 0-4-4zm0 1a3 3 0 0 1 3 3 3 3 0 0 1-3 3 3 3 0 0 1-3-3 3 3 0 0 1 3-3z" class="ColorScheme-Text" opacity="1" fill="#bdc3c7" fill-opacity="1" stroke="none"/><path id="ellipse4156-75" d="M-11 12a8 8 0 0 0-7.928 7h1.008A7 7 0 0 1-11 13a7 7 0 0 1 1 .08v-1.01a8 8 0 0 0-1-.07z" class="ColorScheme-Text" opacity="1" fill="#bdc3c7" fill-opacity="1" stroke="none"/><path id="path4167-8" d="M-6.5 12a3.5 3.5 0 0 0-3.5 3.5A3.5 3.5 0 0 0-6.5 19 3.5 3.5 0 0 0-3 15.5 3.5 3.5 0 0 0-6.5 12zm0 1A2.5 2.5 0 0 1-4 15.5 2.5 2.5 0 0 1-6.5 18 2.5 2.5 0 0 1-9 15.5 2.5 2.5 0 0 1-6.5 13z" opacity="1" fill="#bdc3c7" fill-opacity="1" stroke="none"/><path transform="rotate(90)" id="rect4152-8" opacity="1" fill="#bdc3c7" fill-opacity="1" stroke="none" d="M15 5h1v3h-1z"/></g><g id="user-online"><path id="rect4554" opacity=".97" fill="none" fill-opacity="1" stroke="none" d="M0 0h22v22H0z"/><path id="path4149-8" d="M10.964 3a4 4 0 0 0-4 4 4 4 0 0 0 4 4 4 4 0 0 0 4-4 4 4 0 0 0-4-4zm0 1a3 3 0 0 1 3 3 3 3 0 0 1-3 3 3 3 0 0 1-3-3 3 3 0 0 1 3-3z" opacity="1" fill="#43be80" fill-opacity="1" stroke="none"/><path id="ellipse4156-8" d="M10.964 12a8 8 0 0 0-7.928 7h1.008a7 7 0 0 1 6.92-6 7 7 0 0 1 1 .08v-1.01a8 8 0 0 0-1-.07z" opacity="1" fill="#43be80" fill-opacity="1" stroke="none"/><circle r="3.5" cy="15.5" cx="15.464" id="path4144" opacity="1" fill="#43be80" fill-opacity="1" stroke="none"/><path id="path4166" d="M16.964 14l1 1-3 3-2-2 1-1 1 1z" class="ColorScheme-Background" fill="currentColor" fill-rule="evenodd" stroke="none" stroke-width="1" stroke-linecap="butt" stroke-linejoin="miter" stroke-opacity="1"/></g><g id="user-identity"><path id="rect4585" opacity=".97" fill="none" fill-opacity="1" stroke="none" d="M-88 0h22v22h-22z"/><path id="path4149-2" d="M-77 3a4 4 0 0 0-4 4 4 4 0 0 0 4 4 4 4 0 0 0 4-4 4 4 0 0 0-4-4zm0 1a3 3 0 0 1 3 3 3 3 0 0 1-3 3 3 3 0 0 1-3-3 3 3 0 0 1 3-3zm0 8a8 8 0 0 0-7.928 7h1.008A7 7 0 0 1-77 13a7 7 0 0 1 6.922 6h1.008A8 8 0 0 0-77 12z" class="ColorScheme-Text" opacity="1" fill="currentColor" fill-opacity="1" stroke="none"/></g><g id="user-away-extended"><path id="rect4649" opacity=".97" fill="none" fill-opacity="1" stroke="none" d="M44 0h22v22H44z"/><circle id="circle4653" cx="59.5" cy="15.5" r="3.5" opacity="1" fill="#9b59b6" fill-opacity="1" stroke="none"/><path d="M55 3a4 4 0 0 0-4 4 4 4 0 0 0 4 4 4 4 0 0 0 4-4 4 4 0 0 0-4-4zm0 1a3 3 0 0 1 3 3 3 3 0 0 1-3 3 3 3 0 0 1-3-3 3 3 0 0 1 3-3z" id="path4655" opacity="1" fill="#9b59b6" fill-opacity="1" stroke="none"/><path d="M55 12a8 8 0 0 0-7.928 7h1.008A7 7 0 0 1 55 13a7 7 0 0 1 1 .08v-1.01a8 8 0 0 0-1-.07z" id="path4657" opacity="1" fill="#9b59b6" fill-opacity="1" stroke="none"/><circle r=".5" cy="-57.5" cx="15.5" id="circle4659" transform="rotate(90)" class="ColorScheme-Background" opacity=".7" fill="currentColor" fill-opacity="1" stroke="none"/><circle id="circle4661" cx="59.5" cy="15.5" r=".5" class="ColorScheme-Background" opacity=".4" fill="currentColor" fill-opacity="1" stroke="none"/><circle id="circle4663" cx="61.5" cy="15.5" r=".5" class="ColorScheme-Background" opacity=".3" fill="currentColor" fill-opacity="1" stroke="none"/></g></svg>