<svg id="svg" version="1.1" viewBox="0 0 22 22" xmlns="http://www.w3.org/2000/svg" xmlns:xlink="http://www.w3.org/1999/xlink">
 <defs>
  <style id="current-color-scheme" type="text/css">.ColorScheme-Text{color:#D3DAE3}</style>
 </defs>
 <g id="22-22-video-display-brightness" transform="matrix(.75 0 0 .75 -289.43 -387.6)">
  <path d="m385.9 516.8h29.333v29.333h-29.333z" fill="#00000f" fill-opacity=".004" opacity=".01"/>
  <g>
   <path class="ColorScheme-Text" d="m393.9 542.13h13.333v1.334h-13.333zm4-2.666h5.333v2.666h-5.333zm-10.667-18.667v18.667h26.667v-18.667zm1.333 1.333h24v13.334h-24z" fill="#dedede"/>
   <path class="ColorScheme-Text" d="m388.57 522.13h24v13.333h-24z" fill="#dbdbdb" opacity=".2"/>
   <path class="ColorScheme-Text" d="m400.57 524.13a4.667 4.667 0 1 0 0 9.334 4.667 4.667 0 0 0 0-9.334zm0 1.334v6.666a3.333 3.333 0 1 1 0-6.666z" fill="#dedede"/>
  </g>
 </g>
 <g id="video-display-brightness" transform="translate(-420.99 -597.79) scale(1.0909)">
  <path d="m385.9 516.8h29.333v29.333h-29.333z" fill="#00000f" fill-opacity=".004" opacity=".01"/>
  <path class="ColorScheme-Text" d="M394.155 542.475h12.833v.917h-12.833zm3.75-2.75h5.333v2.75h-5.333zm-10.167-19.25v19.25h25.667v-19.25zm.917.917h23.833v14.666h-23.833z" fill="#dedede"/>
  <path class="ColorScheme-Text" d="m388.66 521.39h23.833v14.667h-23.833z" fill="#dcdcdc" fill-opacity=".2" opacity=".2"/>
  <g transform="matrix(.36251 0 0 .36251 395.48 50.672)">
   <path d="m24.075 1315.6a10.023 10.023 0 1 1-19.065 6.195 10.023 10.023 0 1 1 19.065-6.195z" color="#eff0f1" fill="currentColor" fill-opacity=".49"/>
   <path class="ColorScheme-Text" d="M14 1311.139c4.166 0 7.527 3.377 7.527 7.542 0 4.166-3.361 7.543-7.527 7.543v-7.543zm-4.853-7.58l.563 5.188a10.857 10.857 0 0 0-3.75 2.719l-4.781-2.125 3.5 3.906a10.888 10.888 0 0 0-1.47 4.437l-5.093 1.094 5.125 1.094c.079.738.23 1.485.469 2.219.239.736.534 1.448.906 2.094l-3.5 3.906 4.781-2.125c1.035 1.162 2.317 2.06 3.719 2.687l-.562 5.25 2.656-4.562c1.492.332 3.059.37 4.625.03l2.625 4.5-.531-5.187a10.832 10.832 0 0 0 3.687-2.656l4.844 2.125-3.531-3.938a10.97 10.97 0 0 0 1.406-4.343l5.156-1.094-5.125-1.125a10.879 10.879 0 0 0-.469-2.281 10.81 10.81 0 0 0-.968-2.125l3.5-3.907-4.813 2.125a10.904 10.904 0 0 0-3.719-2.656l.563-5.25-2.625 4.563a10.849 10.849 0 0 0-4.563-.031zm4.782 6a9.178 9.178 0 0 1 8.843 6.344c1.568 4.825-1.08 9.995-5.906 11.563-4.825 1.568-9.963-1.081-11.531-5.906a9.126 9.126 0 0 1 5.875-11.532 9.198 9.198 0 0 1 2.719-.469z" fill="#dedede"/>
  </g>
 </g>
</svg>
