<svg xmlns="http://www.w3.org/2000/svg" width="24" height="16" id="svg3869" version="1.1"><defs id="defs3871"><style type="text/css" id="current-color-scheme">.ColorScheme-Text{color:#dfdfdf}</style></defs><g id="edit-delete" transform="matrix(.72727 0 0 .72727 -237.09 -388.627)"><path id="rect8" opacity="1" fill="none" d="M326 534.362h22v22h-22z"/><path id="path12" d="M337 535.737a9.625 9.625 0 0 0-9.625 9.625 9.625 9.625 0 0 0 9.625 9.625 9.625 9.625 0 0 0 9.625-9.625 9.625 9.625 0 0 0-9.625-9.625zm-3.962 4.813l3.962 3.962 3.962-3.962.85.85-3.961 3.962 3.962 3.962-.851.85-3.962-3.961-3.962 3.962-.85-.85 3.961-3.963-3.961-3.962.85-.85z" fill="currentColor" fill-opacity="1" stroke="none" color="#da4453"/><path d="M5.12 4.5l-.62.62L7.38 8 4.5 10.88l.62.62L8 8.62l2.88 2.88.62-.62L8.62 8l2.88-2.88-.62-.62L8 7.38 5.12 4.5z" transform="translate(326 534.362) scale(1.375)" id="rect4145" fill="#fff" fill-opacity=".712" stroke="none"/></g><g transform="translate(62 -36)" id="window-pin"><path id="rect15" opacity="1" fill="none" d="M-46 44h8v8h-8z"/><path id="path17" d="M-41 44c-.39.39-.468 1.084-.016 1.844l-2.125 1.422a2.284 2.284 0 0 0-.828-.188A1.388 1.388 0 0 0-45 47.5l1.5 1.5-2 2-.5 1 1-.5 2-2 1.5 1.5c.553-.553.482-1.254.234-1.86l1.422-2.124c.76.452 1.455.373 1.844-.016z" class="ColorScheme-Text" fill="currentColor" fill-opacity="1" stroke="none"/></g><g transform="translate(82 -44)" id="window-unpin"><path id="path20" d="M-61 44c-.39.39-.468 1.084-.016 1.844l-2.125 1.422a2.284 2.284 0 0 0-.828-.188A1.388 1.388 0 0 0-65 47.5l1.5 1.5-2 2-.5 1 1-.5 2-2 1.5 1.5c.553-.553.482-1.254.234-1.86l1.422-2.124c.76.452 1.455.373 1.844-.016z" fill="currentColor" fill-opacity="1" stroke="none" color="#3daee9"/><path id="rect22" opacity="1" fill="none" d="M-66 44h8v8h-8z"/></g><g transform="translate(-292 -542.362)" id="window-list"><path id="rect3008" transform="translate(326 534.362)" d="M-36 31v10h10V31h-10zm1 1h8v8h-8v-8z" class="ColorScheme-Text" fill="currentColor"/><path id="rect3010" transform="translate(326 534.362)" d="M-22 31v10h10V31h-10zm1 1h8v8h-8v-8z" class="ColorScheme-Text" fill="currentColor"/><path id="rect3012" transform="translate(326 534.362)" d="M-36 45v10h10V45h-10zm1 1h8v8h-8v-8z" class="ColorScheme-Text" fill="currentColor"/><path id="rect3014" transform="translate(326 534.362)" d="M-22 45v10h10V45h-10zm1 1h8v8h-8v-8z" class="ColorScheme-Text" fill="currentColor"/></g></svg>