<svg width="24" height="16" version="1.1" xmlns="http://www.w3.org/2000/svg">
 <defs>
  <style id="current-color-scheme" type="text/css">.ColorScheme-Text{color:#dfdfdf}</style>
 </defs>
 <g id="edit-delete" transform="matrix(.72727 0 0 .72727 -237.09 -388.63)">
  <path d="m326 534.36h22v22h-22z" fill="none"/>
  <path d="M337 535.737a9.625 9.625 0 0 0-9.625 9.625 9.625 9.625 0 0 0 9.625 9.625 9.625 9.625 0 0 0 9.625-9.625 9.625 9.625 0 0 0-9.625-9.625zm-3.962 4.813l3.962 3.962 3.962-3.962.85.85-3.961 3.962 3.962 3.962-.851.85-3.962-3.961-3.962 3.962-.85-.85 3.961-3.963-3.961-3.962.85-.85z" color="#da4453" fill="currentColor"/>
  <path transform="translate(326 534.36) scale(1.375)" d="M5.12 4.5l-.62.62L7.38 8 4.5 10.88l.62.62L8 8.62l2.88 2.88.62-.62L8.62 8l2.88-2.88-.62-.62L8 7.38 5.12 4.5z" fill="#fff" fill-opacity=".712"/>
 </g>
 <g id="window-pin" transform="translate(62 -36)">
  <path d="m-46 44h8v8h-8z" fill="none"/>
  <path class="ColorScheme-Text" d="M-41 44c-.39.39-.468 1.084-.016 1.844l-2.125 1.422a2.284 2.284 0 0 0-.828-.188A1.388 1.388 0 0 0-45 47.5l1.5 1.5-2 2-.5 1 1-.5 2-2 1.5 1.5c.553-.553.482-1.254.234-1.86l1.422-2.124c.76.452 1.455.373 1.844-.016z" fill="currentColor"/>
 </g>
 <g id="window-unpin" transform="translate(82 -44)">
  <path d="M-61 44c-.39.39-.468 1.084-.016 1.844l-2.125 1.422a2.284 2.284 0 0 0-.828-.188A1.388 1.388 0 0 0-65 47.5l1.5 1.5-2 2-.5 1 1-.5 2-2 1.5 1.5c.553-.553.482-1.254.234-1.86l1.422-2.124c.76.452 1.455.373 1.844-.016z" color="#3daee9" fill="currentColor"/>
  <path d="m-66 44h8v8h-8z" fill="none"/>
 </g>
 <g id="window-list" transform="translate(-292 -542.36)" fill="currentColor">
  <path class="ColorScheme-Text" transform="translate(326 534.36)" d="M-36 31v10h10V31h-10zm1 1h8v8h-8v-8z"/>
  <path class="ColorScheme-Text" transform="translate(326 534.36)" d="M-22 31v10h10V31h-10zm1 1h8v8h-8v-8z"/>
  <path class="ColorScheme-Text" transform="translate(326 534.36)" d="M-36 45v10h10V45h-10zm1 1h8v8h-8v-8z"/>
  <path class="ColorScheme-Text" transform="translate(326 534.36)" d="M-22 45v10h10V45h-10zm1 1h8v8h-8v-8z"/>
 </g>
</svg>
