<?xml version="1.0" encoding="UTF-8" standalone="no"?>
<svg
   id="svg3642"
   width="84"
   height="84"
   version="1"
   sodipodi:docname="decoration.svg"
   inkscape:version="1.1.2 (0a00cf5339, 2022-02-04, custom)"
   xmlns:inkscape="http://www.inkscape.org/namespaces/inkscape"
   xmlns:sodipodi="http://sodipodi.sourceforge.net/DTD/sodipodi-0.dtd"
   xmlns:xlink="http://www.w3.org/1999/xlink"
   xmlns="http://www.w3.org/2000/svg"
   xmlns:svg="http://www.w3.org/2000/svg"
   xmlns:rdf="http://www.w3.org/1999/02/22-rdf-syntax-ns#"
   xmlns:cc="http://creativecommons.org/ns#"
   xmlns:dc="http://purl.org/dc/elements/1.1/">
  <metadata
     id="metadata58">
    <rdf:RDF>
      <cc:Work
         rdf:about="">
        <dc:format>image/svg+xml</dc:format>
        <dc:type
           rdf:resource="http://purl.org/dc/dcmitype/StillImage" />
      </cc:Work>
    </rdf:RDF>
  </metadata>
  <sodipodi:namedview
     pagecolor="#484b5b"
     bordercolor="#666666"
     borderopacity="1"
     objecttolerance="10"
     gridtolerance="10"
     guidetolerance="10"
     inkscape:pageopacity="1"
     inkscape:pageshadow="2"
     inkscape:window-width="1368"
     inkscape:window-height="706"
     id="namedview56"
     showgrid="false"
     inkscape:zoom="3.9732666"
     inkscape:cx="64.933976"
     inkscape:cy="43.792682"
     inkscape:window-x="0"
     inkscape:window-y="0"
     inkscape:window-maximized="1"
     inkscape:current-layer="svg3642"
     inkscape:object-paths="true"
     inkscape:snap-intersection-paths="true"
     inkscape:snap-smooth-nodes="true"
     inkscape:snap-midpoints="true"
     inkscape:pagecheckerboard="0">
    <inkscape:grid
       type="xygrid"
       id="grid866" />
  </sodipodi:namedview>
  <defs
     id="defs3644">
    <linearGradient
       id="linearGradient1562">
      <stop
         id="stop1558"
         offset="0"
         style="stop-color:#000000;stop-opacity:1" />
      <stop
         id="stop1560"
         offset="1"
         style="stop-color:#000000;stop-opacity:0" />
    </linearGradient>
    <linearGradient
       id="linearGradient4271"
       x1="83.599998"
       x2="83.600006"
       y1="-969.362"
       y2="-952.36218"
       gradientTransform="matrix(0.71428571,0,0,1,-317.71429,1250.3622)"
       gradientUnits="userSpaceOnUse"
       xlink:href="#linearGradient1562" />
    <linearGradient
       id="linearGradient4259"
       x1="83.599998"
       x2="83.600006"
       y1="-969.362"
       y2="-952.36218"
       gradientTransform="matrix(0.71428571,0,0,1,-317.71429,1250.3622)"
       gradientUnits="userSpaceOnUse"
       xlink:href="#linearGradient1562" />
    <linearGradient
       id="linearGradient4452"
       x1="-260"
       x2="-260"
       y1="281"
       y2="298"
       gradientUnits="userSpaceOnUse"
       xlink:href="#linearGradient1562" />
    <linearGradient
       id="linearGradient4283"
       x1="83.599998"
       x2="83.600006"
       y1="-969.362"
       y2="-952.36218"
       gradientTransform="matrix(0.71428571,0,0,1,-317.71429,1250.3622)"
       gradientUnits="userSpaceOnUse"
       xlink:href="#linearGradient1562" />
    <radialGradient
       id="radialGradient4255"
       cx="982.909"
       cy="906.453"
       r="8.5"
       fx="982.909"
       fy="906.453"
       gradientTransform="matrix(2.0000159,1.8388577e-5,-1.8388254e-5,1.9999808,-1898.8171,-1795.9068)"
       gradientUnits="userSpaceOnUse"
       xlink:href="#linearGradient1562" />
    <radialGradient
       inkscape:collect="always"
       xlink:href="#linearGradient1562"
       id="radialGradient876"
       gradientUnits="userSpaceOnUse"
       gradientTransform="matrix(2.0000192,2.6238099e-5,-2.6237598e-5,1.999981,-1898.8132,-1795.9148)"
       cx="982.909"
       cy="906.453"
       fx="982.909"
       fy="906.453"
       r="8.5" />
    <radialGradient
       inkscape:collect="always"
       xlink:href="#linearGradient1562"
       id="radialGradient886"
       gradientUnits="userSpaceOnUse"
       gradientTransform="matrix(2.0000192,2.6238099e-5,-2.6237598e-5,1.999981,-1898.8132,-1795.9148)"
       cx="982.909"
       cy="906.453"
       fx="982.909"
       fy="906.453"
       r="8.5" />
    <radialGradient
       inkscape:collect="always"
       xlink:href="#linearGradient1562"
       id="radialGradient896"
       gradientUnits="userSpaceOnUse"
       gradientTransform="matrix(2.0000192,2.6238099e-5,-2.6237598e-5,1.999981,-1898.8132,-1795.9148)"
       cx="982.909"
       cy="906.453"
       fx="982.909"
       fy="906.453"
       r="8.5" />
  </defs>
  <rect
     style="opacity:1;fill:#ff6600;fill-opacity:1;stroke:none"
     id="hint-tile-center"
     width="5"
     height="5"
     x="0"
     y="904.36218" />
  <rect
     id="decoration-center"
     width="50"
     height="50"
     x="17"
     y="17"
     style="fill:#282a33;fill-opacity:1" />
  <g
     id="decoration-left">
    <g
       id="shadow-left-3"
       transform="matrix(-1,0,0,1,298,-240)">
      <rect
         id="rect31"
         width="50"
         height="11"
         x="-307"
         y="287"
         transform="rotate(-90)"
         style="opacity:0.25;fill:url(#linearGradient4271);fill-opacity:1;stroke:none" />
      <rect
         id="rect33"
         width="7"
         height="1"
         x="278"
         y="257"
         transform="translate(3,2)"
         style="fill:#3498db;fill-opacity:0" />
    </g>
    <path
       id="path71"
       d="M 11 17 L 11 67 L 17 67 L 17 17 L 11 17 z"
       style="fill:#282a33;fill-opacity:1" />
    <path
       id="path4438"
       d="M 10 17 L 10 67 L 11 67 L 11 17 L 10 17 z"
       style="fill:#ffffff;opacity:0.15" />
  </g>
  <g
     id="decoration-right">
    <g
       id="shadow-right"
       transform="translate(-214,-240)">
      <rect
         id="rect45"
         width="50"
         height="11"
         x="-307"
         y="287"
         transform="rotate(-90)"
         style="opacity:0.25;fill:url(#linearGradient4452);fill-opacity:1;stroke:none" />
      <rect
         id="rect47"
         width="7"
         height="1"
         x="278"
         y="257"
         transform="translate(3,2)"
         style="fill:#3498db;fill-opacity:0" />
    </g>
    <path
       id="path79"
       d="M 67 17 L 67 67 L 73 67 L 73 17 L 67 17 z"
       style="fill:#282a33;fill-opacity:1" />
    <path
       id="path4440"
       d="M 73 17 L 73 67 L 74 67 L 74 17 L 73 17 z"
       style="fill:#ffffff;opacity:0.15" />
  </g>
  <g
     id="decoration-bottom">
    <g
       id="shadow-bottom"
       transform="matrix(0,1,-1,0,324,-214)">
      <rect
         id="rect39"
         width="50"
         height="11"
         x="-307"
         y="287"
         transform="rotate(-90)"
         style="opacity:0.25;fill:url(#linearGradient4259);fill-opacity:1;stroke:none" />
      <rect
         id="rect41"
         width="7"
         height="1"
         x="278"
         y="257"
         transform="translate(3,2)"
         style="fill:#3498db;fill-opacity:0" />
    </g>
    <path
       id="path95"
       d="M 17 67 L 17 73 L 67 73 L 67 67 L 17 67 z"
       style="fill:#32343d;fill-opacity:1;opacity:0.8" />
    <path
       id="path4436"
       d="M 17 73 L 17 74 L 67 74 L 67 73 L 17 73 z"
       style="fill:#ffffff;opacity:0.15" />
    <path
       d="m 17,72 v 1 h 50 v -1 z"
       id="path67"
       style="fill:#282a33;fill-opacity:1" />
  </g>
  <g
     id="decoration-top">
    <g
       id="shadow-top-6"
       transform="matrix(0,-1,-1,0,324,298)">
      <rect
         id="rect51"
         width="50"
         height="11"
         x="-307"
         y="287"
         transform="rotate(-90)"
         style="opacity:0.25;fill:url(#linearGradient4283);fill-opacity:1;stroke:none" />
      <rect
         id="rect53"
         width="7"
         height="1"
         x="278"
         y="257"
         transform="translate(3,2)"
         style="fill:#3498db;fill-opacity:0" />
    </g>
    <path
       id="path111"
       d="M 17 11 L 17 17 L 67 17 L 67 11 L 17 11 z"
       style="fill:#282a33;fill-opacity:1" />
    <path
       id="path4433"
       d="M 17 10 L 17 11 L 67 11 L 67 10 L 17 10 z"
       style="fill:#ffffff;opacity:0.15" />
  </g>
  <g
     id="decoration-topright">
    <path
       id="shadow-topright"
       d="m 67,0 v 11 h 6 v 6 H 84 V 0 Z"
       style="opacity:0.25;fill:url(#radialGradient4255);fill-opacity:1;stroke:none"
       inkscape:connector-curvature="0"
       sodipodi:nodetypes="ccccccc" />
    <path
       id="path119"
       d="m 67,11 v 6 h 6 v -6 z"
       style="fill:#282a33;fill-opacity:1"
       sodipodi:nodetypes="ccccc" />
    <path
       id="path4445"
       d="m 67,10 v 1 h 2 4 v 6 h 1 v -7 h -5 z"
       style="fill:#ffffff;opacity:0.15" />
  </g>
  <g
     id="decoration-topleft"
     transform="matrix(-1,0,0,1,84,0)">
    <path
       sodipodi:nodetypes="ccccccc"
       inkscape:connector-curvature="0"
       style="opacity:0.25;fill:url(#radialGradient876);fill-opacity:1;stroke:none"
       d="m 67,0 v 11 h 6 v 6 H 84 V 0 Z"
       id="path868" />
    <path
       d="m 67,11 v 6 h 6 v -6 z"
       id="path870"
       style="fill:#282a33;fill-opacity:1"
       sodipodi:nodetypes="ccccc" />
    <path
       d="m 67,10 v 1 h 2 4 v 6 h 1 v -7 h -5 z"
       id="path872"
       style="fill:#ffffff;opacity:0.15" />
  </g>
  <g
     transform="rotate(-180,42,42)"
     id="decoration-bottomleft">
    <path
       id="path878"
       d="m 67,0 v 11 h 6 v 6 H 84 V 0 Z"
       style="opacity:0.25;fill:url(#radialGradient886);fill-opacity:1;stroke:none"
       inkscape:connector-curvature="0"
       sodipodi:nodetypes="ccccccc" />
    <path
       id="path880"
       d="m 67,11 v 6 h 6 v -6 h -4 z"
       style="fill:#32343d;fill-opacity:1;opacity:0.8" />
    <path
       id="path882"
       d="m 67,10 v 1 h 2 4 v 6 h 1 v -7 h -5 z"
       style="fill:#ffffff;opacity:0.15" />
    <path
       id="path62"
       d="M 11 67 L 11 73 L 15 73 L 17 73 L 17 72 L 15.333984 72 L 12 72 L 12 67 L 11 67 z "
       transform="rotate(180,42,42)"
       style="fill:#282a33;fill-opacity:1" />
  </g>
  <g
     id="decoration-bottomright"
     transform="matrix(1,0,0,-1,0,84)">
    <path
       sodipodi:nodetypes="ccccccc"
       inkscape:connector-curvature="0"
       style="opacity:0.25;fill:url(#radialGradient896);fill-opacity:1;stroke:none"
       d="m 67,0 v 11 h 6 v 6 H 84 V 0 Z"
       id="path888" />
    <path
       d="m 67,11 v 6 h 6 v -6 h -4 z"
       id="path890"
       style="fill:#32343d;fill-opacity:1;opacity:0.8" />
    <path
       d="m 67,10 v 1 h 2 4 v 6 h 1 v -7 h -5 z"
       id="path892"
       style="fill:#ffffff;opacity:0.15" />
    <path
       d="M 72 67 L 72 72 L 68.666016 72 L 67 72 L 67 73 L 69 73 L 73 73 L 73 67 L 72 67 z "
       transform="matrix(1,0,0,-1,0,84)"
       id="path69"
       style="fill:#282a33;fill-opacity:1" />
  </g>
</svg>
