<svg width="220" height="212" version="1.0" xmlns="http://www.w3.org/2000/svg" xmlns:xlink="http://www.w3.org/1999/xlink">
 <defs>
  <linearGradient id="linearGradient4134-0">
   <stop stop-color="#fafafa" offset="0"/>
   <stop stop-color="#fafafa" offset="1"/>
   <stop stop-color="#afb4b9" stop-opacity=".31373" offset="1"/>
  </linearGradient>
  <style id="current-color-scheme" type="text/css">.ColorScheme-Text {
        color:#31363b;
        stop-color:#31363b;
      }
      .ColorScheme-Background {
        color:#eff0f1;
        stop-color:#eff0f1;
      }
      .ColorScheme-Highlight {
        color:#3daee9;
        stop-color:#3daee9;
      }
      .ColorScheme-ViewText {
        color:#31363b;
        stop-color:#31363b;
      }
      .ColorScheme-ViewBackground {
        color:#fcfcfc;
        stop-color:#fcfcfc;
      }
      .ColorScheme-ViewHover {
        color:#93cee9;
        stop-color:#93cee9;
      }
      .ColorScheme-ViewFocus{
        color:#3daee9;
        stop-color:#3daee9;
      }
      .ColorScheme-ButtonText {
        color:#31363b;
        stop-color:#31363b;
      }
      .ColorScheme-ButtonBackground {
        color:#eff0f1;
        stop-color:#eff0f1;
      }
      .ColorScheme-ButtonHover {
        color:#93cee9;
        stop-color:#93cee9;
      }
      .ColorScheme-ButtonFocus{
        color:#3daee9;
        stop-color:#3daee9;
      }</style>
  <linearGradient id="linearGradient4381" x1="216" x2="216" y1="107" y2="110" gradientUnits="userSpaceOnUse">
   <stop stop-color="#0c6395" offset="0"/>
   <stop stop-color="#3daeef" offset="1"/>
  </linearGradient>
  <linearGradient id="linearGradient6298" x1="160" x2="160" y1="-159" y2="-138" gradientTransform="translate(-879.81 948.58)" gradientUnits="userSpaceOnUse" xlink:href="#linearGradient4134-0"/>
  <linearGradient id="linearGradient6300" x1="160" x2="160" y1="-159" y2="-138" gradientTransform="translate(-823.81 948.58)" gradientUnits="userSpaceOnUse" xlink:href="#linearGradient4134-0"/>
 </defs>
 <g id="pressed-left" transform="matrix(-1,0,0,1,325,58)">
  <rect class="ColorScheme-ButtonFocus" transform="scale(1,-1)" x="216" y="-145" width="1" height="35" color="#3daee9" fill="#93cee9" opacity=".01"/>
  <rect class="ColorScheme-ButtonHover" transform="scale(1,-1)" x="215" y="-145" width="1" height="35" fill="#7bd9c7"/>
  <rect class="ColorScheme-ButtonHover" transform="scale(-1,1)" x="-217" y="110" width="1" height="35" fill="#2eb398"/>
 </g>
 <g id="pressed-topleft" transform="matrix(-1,0,0,1,325,58)">
  <path class="ColorScheme-ButtonFocus" d="m215 107v3h1v-2c0-0.55228-0.44772-1-1-1z" color="#3daee9" fill="#7bd9c7"/>
  <g>
   <path class="ColorScheme-ButtonFocus" d="m215 106c1.1046 0 2 0.89543 2 2v2h-1v-2c0-0.55228-0.44772-1-1-1z" color="#3daee9" fill="url(#linearGradient4381)" opacity=".01"/>
   <path class="ColorScheme-ButtonHover" d="m215 106c1.1046 0 2 0.89543 2 2v2h-1v-2c0-0.55228-0.44772-1-1-1z" fill="#2eb398"/>
  </g>
 </g>
 <g id="pressed-bottomleft" transform="matrix(-1,0,0,1,325,58)">
  <path class="ColorScheme-ButtonFocus" d="m215 147c1.1046 0 2-0.89543 2-2h-1c0 0.55228-0.44772 1-1 1z" color="#3daee9" fill="#93cee9" opacity=".01"/>
  <path class="ColorScheme-ButtonHover" d="m215 145v1c0.55228 0 1-0.44772 1-1h-1z" fill="#7bd9c7"/>
  <path class="ColorScheme-ButtonHover" d="m215 147c1.1046 0 2-0.89543 2-2h-1c0 0.55228-0.44772 1-1 1z" fill="#2eb398"/>
 </g>
 <g id="pressed-bottom" transform="translate(0,58)">
  <rect class="ColorScheme-ButtonHover" transform="scale(1,-1)" x="110" y="-146" width="105" height="1" fill="#7bd9c7"/>
  <rect class="ColorScheme-ButtonFocus" transform="scale(1,-1)" x="110" y="-147" width="105" height="1" color="#3daee9" fill="#93cee9" opacity=".01"/>
  <rect class="ColorScheme-ButtonHover" transform="scale(1,-1)" x="110" y="-147" width="105" height="1" fill="#2eb398"/>
 </g>
 <g id="pressed-right" transform="translate(0,58)">
  <rect class="ColorScheme-ButtonFocus" transform="scale(1,-1)" x="216" y="-145" width="1" height="35" color="#3daee9" fill="#93cee9" opacity=".01"/>
  <rect class="ColorScheme-ButtonHover" transform="scale(1,-1)" x="215" y="-145" width="1" height="35" fill="#7bd9c7"/>
  <rect class="ColorScheme-ButtonHover" transform="scale(-1,1)" x="-217" y="110" width="1" height="35" fill="#2eb398"/>
 </g>
 <g id="pressed-top" transform="translate(0,58)">
  <rect class="ColorScheme-ButtonFocus" x="110" y="106" width="105" height="1" color="#3daee9" fill="#0c6395" opacity=".01"/>
  <g transform="matrix(1.9091 0 0 -1.5 1484.2 1324.4)">
   <rect class="ColorScheme-ButtonHover" x="-719.82" y="809.6" width="55" height="2" color="#93cee9" fill="#7bd9c7"/>
  </g>
  <rect class="ColorScheme-ButtonHover" x="110" y="106" width="105" height="1" fill="#2eb398"/>
 </g>
 <g id="normal-left" transform="matrix(1 0 0 1.6667 829.81 -1306)">
  <rect class="ColorScheme-ButtonText" x="-721.81" y="789.58" width="1" height="21" fill="currentColor" opacity=".3"/>
  <rect class="ColorScheme-ButtonBackground" x="-720.81" y="789.58" width="1" height="21" color="#eff0f1" opacity="0"/>
  <rect class="ColorScheme-ButtonText" x="-720.81" y="789.58" width="1" height="21" color="#31363b" fill="#ffffff"/>
 </g>
 <g id="normal-top" transform="matrix(1.9091 0 0 1 1484.2 -769.58)">
  <rect class="ColorScheme-ButtonText" x="-719.81" y="777.58" width="55" height="1" fill="currentColor" opacity=".3"/>
  <rect class="ColorScheme-ButtonBackground" x="-719.81" y="778.58" width="55" height="1" color="#eff0f1" opacity="0"/>
  <rect class="ColorScheme-ButtonText" x="-719.81" y="778.58" width="55" height="1" color="#31363b" fill="#ffffff"/>
 </g>
 <g id="normal-bottom" transform="matrix(1.9091 0 0 1 1484.2 -765.58)">
  <rect class="ColorScheme-ButtonText" x="-719.81" y="811.58" width="55" height="1" fill="currentColor" opacity=".3"/>
  <rect x="-719.81" y="810.58" width="55" height="1" color="#eff0f1" opacity="0"/>
  <rect class="ColorScheme-ButtonText" x="-719.81" y="810.58" width="55" height="1" color="#31363b" fill="#ffffff"/>
 </g>
 <g id="normal-right" transform="matrix(1 0 0 1.6667 879.81 -1306)">
  <rect class="ColorScheme-ButtonBackground" x="-664.81" y="789.58" width="1" height="21" color="#eff0f1" opacity="0"/>
  <rect class="ColorScheme-ButtonText" transform="scale(-1,1)" x="662.81" y="789.58" width="1" height="21" fill="currentColor" opacity=".3"/>
  <rect class="ColorScheme-ButtonText" transform="scale(-1,1)" x="663.81" y="789.58" width="1" height="21" color="#31363b" fill="#ffffff"/>
 </g>
 <g id="normal-center" transform="translate(0,58)">
  <rect class="ColorScheme-ButtonBackground" x="110" y="-48" width="105" height="35" fill="currentColor"/>
  <rect x="110" y="-48" width="105" height="35" color="#eff0f1" fill="#ffffff"/>
 </g>
 <rect id="pressed-center" class="ColorScheme-ButtonHover" transform="scale(1,-1)" x="110" y="-203" width="105" height="35" fill="#7bd9c7"/>
 <g id="hover-topleft" transform="translate(829.81 -713.58)">
  <path class="ColorScheme-ButtonHover" d="m-719.81 777.58c-1.1046 0-2 0.89543-2 2h1c0-0.55228 0.44772-1 1-1v-1z" fill="#2eb398" opacity=".6"/>
  <path transform="matrix(-.5 0 0 -.5 -639.81 700.08)" d="m162-159a2 2 0 0 1-2 2v-2z" fill="#ffffff"/>
 </g>
 <g id="hover-bottomleft" transform="translate(829.81 -709.58)">
  <path class="ColorScheme-ButtonHover" d="m-719.81 812.58c-1.1046 0-2-0.89543-2-2h1c0 0.55228 0.44772 1 1 1v1z" fill="#2eb398" opacity=".6"/>
  <path transform="matrix(-.5 0 0 .5 -639.81 890.08)" d="m162-159a2 2 0 0 1-2 2v-2z" fill="#ffffff"/>
 </g>
 <g id="hover-left" transform="matrix(1 0 0 1.6667 829.81 -1250)">
  <rect class="ColorScheme-ButtonHover" x="-721.81" y="789.58" width="1" height="21" fill="#2eb398" opacity=".6"/>
  <rect x="-720.81" y="789.58" width="1" height="21" fill="#ffffff"/>
 </g>
 <g id="hover-top" transform="matrix(1.9091 0 0 1 1484.2 -713.58)">
  <rect class="ColorScheme-ButtonHover" x="-719.81" y="777.58" width="55" height="1" fill="#2eb398" opacity=".6"/>
  <rect x="-719.81" y="778.58" width="55" height="1" fill="#ffffff"/>
 </g>
 <g id="hover-bottom" transform="matrix(1.9091 0 0 1 1484.2 -709.58)">
  <rect class="ColorScheme-ButtonHover" x="-719.81" y="811.58" width="55" height="1" fill="#2eb398" opacity=".6"/>
  <rect x="-719.81" y="810.58" width="55" height="1" fill="#ffffff"/>
 </g>
 <g id="hover-topright" transform="translate(879.81 -713.58)">
  <path class="ColorScheme-ButtonHover" d="m-664.81 777.58c1.1046 0 2 0.89543 2 2h-1c0-0.55228-0.44772-1-1-1v-1z" fill="#2eb398" opacity=".6"/>
  <path transform="matrix(.5 0 0 -.5 -744.81 700.08)" d="m162-159a2 2 0 0 1-2 2v-2z" fill="#ffffff"/>
 </g>
 <g id="hover-bottomright" transform="translate(879.81 -709.58)">
  <path class="ColorScheme-ButtonHover" d="m-664.81 812.58c1.1046 0 2-0.89543 2-2h-1c0 0.55228-0.44772 1-1 1v1z" fill="#2eb398" opacity=".6"/>
  <path transform="matrix(.5 0 0 .5 -744.81 890.08)" d="m162-159a2 2 0 0 1-2 2v-2z" fill="#ffffff"/>
 </g>
 <g id="hover-right" transform="matrix(1 0 0 1.6667 879.81 -1250)">
  <rect class="ColorScheme-ButtonHover" transform="scale(-1,1)" x="662.81" y="789.58" width="1" height="21" fill="#2eb398" opacity=".6"/>
  <rect x="-664.81" y="789.58" width="1" height="21" fill="#ffffff"/>
 </g>
 <rect id="hover-center" class="ColorScheme-Background" x="110" y="66" width="105" height="35" fill="#ffffff" fill-opacity=".97159"/>
 <g id="focus-topleft" transform="translate(829.81 -665.58)">
  <path class="ColorScheme-ButtonFocus" d="m-719.81 776.58c-1.6568 0-3 1.3431-3 3h1c0-1.0784 0.88252-2 2-2z" fill="#2eb398" opacity=".2"/>
  <path class="ColorScheme-ButtonFocus" d="m-719.81 777.58c-1.1046 0-2 0.89543-2 2h1c0-0.55228 0.44772-1 1-1v-1z" fill="#2eb398" fill-opacity=".93725" opacity=".5"/>
  <path transform="matrix(-.5 0 0 -.5 -639.81 700.08)" d="m162-159a2 2 0 0 1-2 2v-2z" fill="#ffffff"/>
 </g>
 <g id="focus-bottomleft" transform="translate(829.81 -661.58)">
  <path class="ColorScheme-ButtonFocus" d="m-719.81 813.58c-1.6568 0-3-1.3431-3-3h1c0 1.1722 0.95283 2 2 2z" fill="#2eb398" opacity=".2"/>
  <path class="ColorScheme-ButtonFocus" d="m-719.81 812.58c-1.1046 0-2-0.89543-2-2h1c0 0.55228 0.44772 1 1 1v1z" fill="#2eb398" fill-opacity=".93725" opacity=".5"/>
  <path transform="matrix(-.5 0 0 .5 -639.81 890.08)" d="m162-159a2 2 0 0 1-2 2v-2z" fill="#ffffff" fill-opacity=".39216"/>
 </g>
 <g id="focus-left" transform="matrix(1 0 0 1.6667 829.81 -1202)">
  <rect class="ColorScheme-ButtonFocus" x="-721.81" y="789.58" width="1" height="21" fill="#2eb398" fill-opacity=".93725" opacity=".5"/>
  <rect x="-720.81" y="789.58" width="1" height="21" fill="#ffffff"/>
  <rect class="ColorScheme-ButtonFocus" x="-722.81" y="789.58" width="1" height="21" fill="#2eb398" opacity=".2"/>
 </g>
 <g id="focus-top" transform="matrix(1.9091 0 0 1 1484.2 -665.58)">
  <rect class="ColorScheme-ButtonFocus" x="-719.81" y="777.58" width="55" height="1" fill="#2eb398" fill-opacity=".93725" opacity=".5"/>
  <rect x="-719.81" y="778.58" width="55" height="1" fill="#ffffff"/>
  <rect class="ColorScheme-ButtonFocus" x="-719.81" y="776.58" width="55" height="1" fill="#2eb398" opacity=".2"/>
 </g>
 <g id="focus-bottom" transform="matrix(1.9091 0 0 1 1484.2 -661.58)">
  <rect class="ColorScheme-ButtonFocus" x="-719.81" y="811.58" width="55" height="1" fill="#2eb398" fill-opacity=".93725" opacity=".5"/>
  <rect x="-719.81" y="810.58" width="55" height="1" fill="#ffffff" fill-opacity=".39216"/>
  <rect class="ColorScheme-ButtonFocus" x="-719.81" y="812.58" width="55" height="1" fill="#2eb398" opacity=".2"/>
 </g>
 <g id="focus-topright" transform="translate(879.81 -665.58)">
  <path class="ColorScheme-ButtonFocus" d="m-664.81 776.58c1.6568 0 3 1.3431 3 3h-1c0-1.1722-1.0153-2-2-2z" fill="#2eb398" opacity=".2"/>
  <path class="ColorScheme-ButtonFocus" d="m-664.81 777.58c1.1046 0 2 0.89543 2 2h-1c0-0.55228-0.44772-1-1-1v-1z" fill="#2eb398" fill-opacity=".93725" opacity=".5"/>
  <path transform="matrix(.5 0 0 -.5 -744.81 700.08)" d="m162-159a2 2 0 0 1-2 2v-2z" fill="#ffffff"/>
 </g>
 <g id="focus-bottomright" transform="translate(879.81 -661.58)">
  <path class="ColorScheme-ButtonFocus" d="m-664.81 813.58c1.6568 0 3-1.3431 3-3h-1c0 1.1378-0.93952 2-2 2z" fill="#2eb398" opacity=".2"/>
  <path class="ColorScheme-ButtonFocus" d="m-664.81 812.58c1.1046 0 2-0.89543 2-2h-1c0 0.55228-0.44772 1-1 1v1z" fill="#2eb398" fill-opacity=".93725" opacity=".5"/>
  <path transform="matrix(.5 0 0 .5 -744.81 890.08)" d="m162-159a2 2 0 0 1-2 2v-2z" fill="#ffffff" fill-opacity=".39216"/>
 </g>
 <g id="focus-right" transform="matrix(1 0 0 1.6667 879.81 -1202)">
  <rect class="ColorScheme-ButtonFocus" transform="scale(-1,1)" x="662.81" y="789.58" width="1" height="21" fill="#2eb398" fill-opacity=".93725" opacity=".5"/>
  <rect x="-664.81" y="789.58" width="1" height="21" fill="#ffffff"/>
  <rect class="ColorScheme-ButtonFocus" transform="scale(-1,1)" x="661.81" y="789.58" width="1" height="21" fill="#2eb398" opacity=".2"/>
 </g>
 <rect id="focus-center" class="ColorScheme-Background" x="110" y="114" width="105" height="35" fill="#ffffff"/>
 <rect id="focus-hint-top-margin" x="51" y="122" width="2" height=".001" fill="#4e9a06"/>
 <rect id="focus-hint-bottom-margin" x="51" y="147" width="2" height=".001" fill="#4e9a06"/>
 <rect id="focus-hint-left-margin" x="39" y="133" width=".001" height="2" fill="#4e9a06"/>
 <rect id="focus-hint-right-margin" x="64" y="132" width=".001" height="2" fill="#4e9a06"/>
 <rect x="51" y="71" width="2" height=".01" fill="#4e9a06"/>
 <rect x="51" y="96.99" width="2" height=".01" fill="#4e9a06"/>
 <rect x="39" y="83" width=".01" height="2" fill="#4e9a06"/>
 <rect x="64.99" y="83" width=".01" height="2" fill="#4e9a06"/>
 <rect id="normal-hint-bottom-margin" x="161.5" y="41" width="2" height="6" fill="#4e9a06"/>
 <rect id="normal-hint-top-margin" x="161.5" y="8" width="2" height="6" fill="#4e9a06"/>
 <rect id="normal-hint-left-margin" transform="rotate(-90)" x="-28" y="108" width="2" height="6" fill="#4e9a06"/>
 <rect id="pressed-hint-top-margin" x="161.5" y="165" width="2" height="6" fill="#4e9a06"/>
 <rect id="pressed-hint-right-margin" transform="rotate(-90)" x="-186" y="211" width="2" height="6" fill="#4e9a06"/>
 <rect id="normal-hint-compose-over-border" x="91" y="25" width="3" height="3" ry="0" fill="#4e9a06"/>
 <rect id="normal-hint-right-margin" transform="rotate(-90)" x="-28" y="211" width="2" height="6" fill="#4e9a06"/>
 <rect id="pressed-hint-left-margin" transform="rotate(-90)" x="-186" y="108" width="2" height="6" fill="#4e9a06"/>
 <rect id="pressed-hint-bottom-margin" x="161.5" y="199" width="2" height="6" fill="#4e9a06"/>
 <g id="pressed-topright" transform="translate(0,58)">
  <path class="ColorScheme-ButtonFocus" d="m215 107v3h1v-2c0-0.55228-0.44772-1-1-1z" color="#3daee9" fill="#7bd9c7"/>
  <g>
   <path class="ColorScheme-ButtonFocus" d="m215 106c1.1046 0 2 0.89543 2 2v2h-1v-2c0-0.55228-0.44772-1-1-1z" color="#3daee9" fill="url(#linearGradient4381)" opacity=".01"/>
   <path class="ColorScheme-ButtonHover" d="m215 106c1.1046 0 2 0.89543 2 2v2h-1v-2c0-0.55228-0.44772-1-1-1z" fill="#2eb398"/>
  </g>
 </g>
 <g id="pressed-bottomright" transform="translate(0,58)">
  <path class="ColorScheme-ButtonFocus" d="m215 147c1.1046 0 2-0.89543 2-2h-1c0 0.55228-0.44772 1-1 1z" color="#3daee9" fill="#93cee9" opacity=".01"/>
  <path class="ColorScheme-ButtonHover" d="m215 145v1c0.55228 0 1-0.44772 1-1h-1z" fill="#7bd9c7"/>
  <path class="ColorScheme-ButtonHover" d="m215 147c1.1046 0 2-0.89543 2-2h-1c0 0.55228-0.44772 1-1 1z" fill="#2eb398"/>
 </g>
 <rect id="hover-hint-top-margin" x="58" y="72.999" width="2" height=".001" fill="#4e9a06"/>
 <rect id="hover-hint-bottom-margin" x="58" y="97.999" width="2" height=".001" fill="#4e9a06"/>
 <rect id="hover-hint-left-margin" x="46" y="84" width=".001" height="2" fill="#4e9a06"/>
 <rect id="hover-hint-right-margin" x="71" y="83" width=".001" height="2" fill="#4e9a06"/>
 <path id="shadow-center" d="m239 21v13h33v-13h-33z" fill="none"/>
 <rect id="shadow-left" x="233" y="21" width="3" height="13" opacity="0"/>
 <rect id="shadow-hint-top-margin" x="254" y="14" width="2" height="1" fill="#4e9a06"/>
 <rect id="shadow-hint-bottom-margin" x="258" y="44.596" width="2" height="1" fill="#4e9a06"/>
 <rect id="shadow-hint-left-margin" x="232" y="27" width="1" height="2" fill="#4e9a06"/>
 <rect id="shadow-hint-right-margin" x="279" y="26" width="1" height="2" fill="#4e9a06"/>
 <g id="shadow-bottom" transform="translate(148 9)">
  <path d="m90 29v0.5h33.996v-0.5z" color="#31363b" opacity="0"/>
  <rect x="94" y="27" width="1" height="3" opacity="0"/>
 </g>
 <path id="shadow-topleft" d="m233 19v-3h3v3z" opacity="0"/>
 <g id="shadow-top" transform="matrix(1,0,0,-1,149,46)" opacity="0">
  <path d="m90 29v1h33v-1z" fill="#000000" fill-opacity=".31373"/>
  <rect x="94" y="27" width="1" height="3" opacity="0"/>
 </g>
 <g id="shadow-bottomleft" transform="translate(127,-13)">
  <path d="m107 49v0.46875c0 1.3821 0.88168 2.0312 2 2.0312v-0.5c-0.97585 0-1.7848-0.70044-1.9609-1.625-0.0256-0.119-0.0406-0.2441-0.0391-0.375z" opacity="0"/>
  <rect x="106" y="49" width="3" height="3" opacity="0"/>
 </g>
 <g id="shadow-right">
  <rect x="274" y="21" width="3" height="13" opacity="0"/>
  <path d="m276 21h0.5v13h-0.5z" opacity="0"/>
 </g>
 <g id="shadow-topright" transform="matrix(0 1 1 0 225 -90)">
  <path d="m107 49v0.46875c0 1.3821 0.88168 2.0312 2 2.0312v-0.5c-0.97585 0-1.7848-0.70044-1.9609-1.625-0.0256-0.119-0.0406-0.2441-0.0391-0.375z" opacity="0"/>
  <rect x="106" y="49" width="3" height="3" opacity="0"/>
 </g>
 <path id="mask-normal-center" d="m36.004 22v13.944h33.996v-13.944h-33.996z" fill="#000000"/>
 <g id="mask-normal-left" transform="translate(-27.988 64)">
  <path d="m62-42v14h1l-0.0117-14z" fill="#000000"/>
  <path d="m61-42v14h1v-14h-1z" fill-opacity="0"/>
 </g>
 <g id="mask-normal-top" transform="matrix(.25951 0 0 1 18.876 65.984)">
  <path d="m66-45.984 2e-6 1h131v-1z" fill="#000000"/>
  <path d="m66-46.984v1h131v-1h-131z" fill-opacity="0"/>
 </g>
 <g id="mask-normal-right" transform="translate(-128.99 64.045)">
  <path d="m200.99-42.045 0.0117 14.014-1.0117-0.01377v-14z" fill="#000000"/>
  <path d="m202-41.984v13.984h-1v-13.984h1z" fill-opacity="0"/>
  <path d="m201-41.986v13.955h-1v-13.955h1z" fill-opacity="0"/>
 </g>
 <g id="mask-normal-bottom" transform="matrix(.25951 0 0 1 18.88 62.045)">
  <path d="m65.971-25.045 0.01349 1.045 130.98-0.0625-0.0135-0.98248z" fill="#000000"/>
  <rect x="66" y="-24" width="131" height="1" fill-opacity="0"/>
 </g>
 <g id="mask-normal-topleft">
  <path class="ColorScheme-ButtonBackground" transform="matrix(-.5 0 0 -.5 115 -58.5)" d="m162-159a2 2 0 0 1-2 2v-2z" color="#eff0f1" fill="#000000"/>
  <rect x="33" y="19" width="1" height="1" opacity="0"/>
 </g>
 <g id="mask-normal-topright" transform="matrix(0,1,-1,0,92,-14)">
  <path class="ColorScheme-ButtonBackground" transform="matrix(-.5 0 0 -.5 115 -58.5)" d="m162-159a2 2 0 0 1-2 2v-2z" color="#eff0f1" fill="#000000"/>
  <rect x="33" y="19" width="1" height="1" opacity="0"/>
  <path class="ColorScheme-ButtonBackground" transform="matrix(-.5 0 0 -.5 115 -58.5)" d="m162-159a2 2 0 0 1-2 2v-2z" color="#eff0f1" fill="#000000"/>
 </g>
 <g id="mask-normal-bottomleft" transform="matrix(1,0,0,-1,0,58)">
  <path class="ColorScheme-ButtonBackground" transform="matrix(-.5 0 0 -.5 115 -58.5)" d="m162-159a2 2 0 0 1-2 2v-2z" color="#eff0f1" fill="#000000"/>
  <rect x="33" y="19" width="1" height="1" opacity="0"/>
 </g>
 <g id="mask-normal-bottomright" transform="matrix(0,-1,-1,0,92,72)">
  <path class="ColorScheme-ButtonBackground" transform="matrix(-.5 0 0 -.5 115 -58.5)" d="m162-159a2 2 0 0 1-2 2v-2z" color="#eff0f1" fill="#000000"/>
  <rect x="33" y="19" width="1" height="1" opacity="0"/>
  <path class="ColorScheme-ButtonBackground" transform="matrix(-.5 0 0 -.5 115 -58.5)" d="m162-159a2 2 0 0 1-2 2v-2z" color="#eff0f1" fill="#000000"/>
 </g>
 <rect id="pressed-hint-compose-over-border" x="92" y="183" width="3" height="3" ry="0" fill="#4e9a06"/>
 <g id="shadow-bottomright">
  <path d="m276 36c0 1.1046-0.89543 2-2 2v0.5h2e-3c1.6502 0 2.4872-0.83286 2.498-2.4805l-5e-5 -0.019531z" opacity="0"/>
  <rect x="276" y="38" width="1" height="1" opacity="0"/>
 </g>
 <rect id="toolbutton-pressed-right" class="ColorScheme-ButtonHover" transform="scale(-1,1)" x="-339" y="168" width="3" height="35" fill="#2eb398" opacity=".6"/>
 <rect id="toolbutton-pressed-top" class="ColorScheme-ButtonHover" x="231" y="165" width="105" height="3" fill="#2eb398" opacity=".6"/>
 <rect id="toolbutton-pressed-center" class="ColorScheme-ButtonHover" transform="scale(1,-1)" x="231" y="-203" width="105" height="35" fill="#2eb398" opacity=".6"/>
 <rect id="toolbutton-pressed-hint-top-margin" x="282.5" y="165" width="2" height="6" fill="#4e9a06"/>
 <rect id="toolbutton-pressed-hint-right-margin" transform="rotate(-90)" x="-186" y="332" width="2" height="6" fill="#4e9a06"/>
 <g id="toolbutton-hover-topleft" transform="translate(947.81 -713.58)">
  <path class="ColorScheme-ButtonFocus" d="m-719.81 776.58c-1.6568 0-3 1.3431-3 3h1c0-1.0784 0.88252-2 2-2z" fill="#2eb398" opacity=".5"/>
  <path transform="matrix(-.5 0 0 -.5 -639.81 700.08)" d="m162-159a2 2 0 0 1-2 2v-2z" fill="#fafafa" opacity=".01"/>
 </g>
 <g id="toolbutton-hover-bottomleft" transform="translate(947.81 -709.58)">
  <path class="ColorScheme-ButtonFocus" d="m-719.81 813.58c-1.6568 0-3-1.3431-3-3h1c0 1.1722 0.95283 2 2 2z" fill="#2eb398" opacity=".5"/>
  <path transform="matrix(-.5 0 0 .5 -639.81 890.08)" d="m162-159a2 2 0 0 1-2 2v-2z" fill="#afb4b9" fill-opacity=".39216" opacity=".01"/>
 </g>
 <g id="toolbutton-hover-left" transform="matrix(1 0 0 1.6667 947.81 -1250)">
  <rect x="-720.81" y="789.58" width="1" height="21" fill="url(#linearGradient6298)" opacity=".01"/>
  <rect class="ColorScheme-ButtonFocus" x="-722.81" y="789.58" width="1" height="21" fill="#2eb398" opacity=".5"/>
 </g>
 <g id="toolbutton-hover-top" transform="matrix(1.9091 0 0 1 1602.2 -713.58)">
  <rect x="-719.81" y="778.58" width="55" height="1" fill="#fafafa" opacity=".01"/>
  <rect class="ColorScheme-ButtonFocus" x="-719.81" y="776.58" width="55" height="1" fill="#2eb398" opacity=".5"/>
 </g>
 <g id="toolbutton-hover-bottom" transform="matrix(1.9091 0 0 1 1602.2 -709.58)">
  <rect x="-719.81" y="810.58" width="55" height="1" fill="#afb4b9" fill-opacity=".39216" opacity=".01"/>
  <rect class="ColorScheme-ButtonFocus" x="-719.81" y="812.58" width="55" height="1" fill="#2eb398" opacity=".5"/>
 </g>
 <g id="toolbutton-hover-topright" transform="translate(997.81 -713.58)">
  <path class="ColorScheme-ButtonFocus" d="m-664.81 776.58c1.6568 0 3 1.3431 3 3h-1c0-1.1722-1.0153-2-2-2z" fill="#2eb398" opacity=".5"/>
  <path transform="matrix(.5 0 0 -.5 -744.81 700.08)" d="m162-159a2 2 0 0 1-2 2v-2z" fill="#fafafa" opacity=".01"/>
 </g>
 <g id="toolbutton-hover-bottomright" transform="translate(997.81 -709.58)">
  <path class="ColorScheme-ButtonFocus" d="m-664.81 813.58c1.6568 0 3-1.3431 3-3h-1c0 1.1378-0.93952 2-2 2z" fill="#2eb398" opacity=".5"/>
  <path transform="matrix(.5 0 0 .5 -744.81 890.08)" d="m162-159a2 2 0 0 1-2 2v-2z" fill="#afb4b9" fill-opacity=".39216" opacity=".01"/>
 </g>
 <g id="toolbutton-hover-right" transform="matrix(1 0 0 1.6667 997.81 -1250)">
  <rect x="-664.81" y="789.58" width="1" height="21" fill="url(#linearGradient6300)" opacity=".01"/>
  <rect class="ColorScheme-ButtonFocus" transform="scale(-1,1)" x="661.81" y="789.58" width="1" height="21" fill="#2eb398" opacity=".5"/>
 </g>
 <rect id="toolbutton-hover-center" class="ColorScheme-Background" x="228" y="66" width="105" height="35" fill="currentColor" fill-opacity=".01"/>
 <path id="toolbutton-pressed-topright" class="ColorScheme-ButtonHover" d="m336 165c1.6568 0 3 1.3431 3 3h-3z" fill="#2eb398" opacity=".6"/>
 <path id="toolbutton-pressed-topleft" class="ColorScheme-ButtonHover" d="m228 168c0-1.6569 1.3431-3 3-3v3z" fill="#2eb398" opacity=".6"/>
 <rect id="toolbutton-pressed-left" class="ColorScheme-ButtonHover" transform="scale(-1,1)" x="-231" y="168" width="3" height="35" fill="#2eb398" opacity=".6"/>
 <rect id="toolbutton-pressed-bottom" class="ColorScheme-ButtonHover" transform="scale(1,-1)" x="231" y="-206" width="105" height="3" fill="#2eb398" opacity=".6"/>
 <path id="toolbutton-pressed-bottomright" class="ColorScheme-ButtonHover" d="m336 206c1.6568 0 3-1.3431 3-3h-3z" fill="#2eb398" opacity=".6"/>
 <path id="toolbutton-pressed-bottomleft" class="ColorScheme-ButtonHover" d="m228 203c0 1.6569 1.3431 3 3 3v-3z" fill="#2eb398" opacity=".6"/>
 <rect id="toolbutton-hover-hint-bottom-margin" x="279.5" y="97" width="2" height="6" fill="#4e9a06"/>
 <rect id="toolbutton-hover-hint-top-margin" x="279.5" y="64" width="2" height="6" fill="#4e9a06"/>
 <rect id="toolbutton-hover-hint-left-margin" transform="rotate(-90)" x="-84" y="226" width="2" height="6" fill="#4e9a06"/>
 <rect id="toolbutton-hover-hint-right-margin" transform="rotate(-90)" x="-84" y="329" width="2" height="6" fill="#4e9a06"/>
 <rect id="toolbutton-pressed-hint-left-margin" transform="rotate(-90)" x="-186" y="229" width="2" height="6" fill="#4e9a06"/>
 <rect id="toolbutton-pressed-hint-bottom-margin" x="282.5" y="199" width="2" height="6" fill="#4e9a06"/>
 <g id="normal-topleft" transform="translate(829.81 -769.58)">
  <path class="ColorScheme-ButtonHover" d="m-719.81 777.58c-1.1046 0-2 0.89543-2 2h1c0-0.55228 0.44772-1 1-1z" color="#93cee9" fill="#31363b" opacity=".3"/>
  <path transform="matrix(-.5 0 0 -.5 -639.81 700.08)" d="m162-159a2 2 0 0 1-2 2v-2z" fill="#ffffff"/>
 </g>
 <g id="normal-topright" transform="rotate(90 132.39 862.2)">
  <path class="ColorScheme-ButtonHover" d="m-719.81 777.58c-1.1046 0-2 0.89543-2 2h1c0-0.55228 0.44772-1 1-1z" color="#93cee9" fill="#32363c" opacity=".3"/>
  <path transform="matrix(-.5 0 0 -.5 -639.81 700.08)" d="m162-159a2 2 0 0 1-2 2v-2z" fill="#ffffff"/>
 </g>
 <g id="normal-bottomright" transform="rotate(180 -252.4 412.29)">
  <path class="ColorScheme-ButtonHover" d="m-719.81 777.58c-1.1046 0-2 0.89543-2 2h1c0-0.55228 0.44772-1 1-1z" color="#93cee9" fill="#32363c" opacity=".3"/>
  <path transform="matrix(-.5 0 0 -.5 -639.81 700.08)" d="m162-159a2 2 0 0 1-2 2v-2z" fill="#ffffff"/>
 </g>
 <g id="normal-bottomleft" transform="rotate(-90 -672.2 -2.6115)">
  <path class="ColorScheme-ButtonHover" d="m-719.81 777.58c-1.1046 0-2 0.89543-2 2h1c0-0.55228 0.44772-1 1-1z" color="#93cee9" fill="#32363c" opacity=".3"/>
  <path transform="matrix(-.5 0 0 -.5 -639.81 700.08)" d="m162-159a2 2 0 0 1-2 2v-2z" fill="#ffffff"/>
 </g>
</svg>
