<svg width="54" height="32" version="1.1" xmlns="http://www.w3.org/2000/svg">
 <defs>
  <style id="current-color-scheme" type="text/css">.ColorScheme-Text{color:#dfdfdf}</style>
 </defs>
 <g id="22-22-applications-other" transform="translate(-420.72 -516.79)">
  <path transform="translate(420.71 524.79)" d="M0 2h22v22H0z" fill-opacity=".004" opacity=".01"/>
  <path class="ColorScheme-Text" d="m423.71 529.79v7h7v-7h-7zm9 0v7h7v-7h-7zm-8 1h5v5h-5v-5zm9 0h5v5h-5v-5zm-10 8v7h7v-7h-7zm9 0v7h7v-7h-7zm-8 1h5v5h-5v-5zm9 0h5v5h-5v-5z" fill="currentColor"/>
 </g>
 <g id="applications-other" transform="translate(-67.222 -.13659)">
  <rect x="89.22" y=".13559" width="32" height="32" opacity="0" stroke-width=".91829"/>
  <g transform="translate(20.655 1.3938)">
   <rect x="70.637" y=".81415" width="27.855" height="27.855" rx="13.928" ry="13.928" fill="none" stroke="#707d90" stroke-linecap="round" stroke-linejoin="round" stroke-width="2.1427" style="paint-order:markers stroke fill"/>
   <rect x="70.566" y=".74279" width="27.998" height="27.998" rx="13.999" ry="13.999" fill="#97a0af" stroke-width="1.0768" style="paint-order:markers stroke fill"/>
   <path d="m83.422 6.7418c-0.206 0-0.377 0.794-0.478 1.93a6.286 6.286 0 0 0-1.519 0.638c-0.877-0.735-1.562-1.18-1.708-1.033l-1.617 1.617c-0.146 0.146 0.298 0.831 1.033 1.708a6.286 6.286 0 0 0-0.633 1.52c-1.138 0.1-1.935 0.271-1.935 0.477v2.286c0 0.206 0.794 0.377 1.93 0.478a6.286 6.286 0 0 0 0.636 1.522c-0.734 0.876-1.177 1.56-1.031 1.705l1.617 1.617c0.145 0.146 0.828-0.296 1.703-1.029a6.286 6.286 0 0 0 1.524 0.629c0.101 1.138 0.272 1.935 0.478 1.935h2.286c0.206 0 0.377-0.794 0.478-1.93a6.286 6.286 0 0 0 1.519-0.638c0.877 0.735 1.562 1.18 1.708 1.033l1.617-1.617c0.146-0.146-0.298-0.831-1.033-1.708a6.286 6.286 0 0 0 0.633-1.52c1.138-0.1 1.935-0.271 1.935-0.477v-2.286c0-0.206-0.794-0.377-1.93-0.478a6.286 6.286 0 0 0-0.636-1.522c0.734-0.876 1.177-1.56 1.031-1.705l-1.617-1.617c-0.145-0.146-0.828 0.296-1.703 1.029a6.286 6.286 0 0 0-1.524-0.629c-0.101-1.138-0.272-1.935-0.478-1.935zm1.143 5.143a2.857 2.857 0 0 1 2.857 2.857 2.857 2.857 0 0 1-2.857 2.857 2.857 2.857 0 0 1-2.857-2.857 2.857 2.857 0 0 1 2.857-2.857z" color="#000000" fill="#6b7b90" overflow="visible" solid-color="#000000" style="isolation:auto;mix-blend-mode:normal"/>
   <path d="m83.675 7.2418c-0.018 0.051-0.03 0.077-0.05 0.16-0.072 0.298-0.14 0.765-0.188 1.317a0.493 0.493 0 0 1-0.361 0.434c-0.49 0.133-0.959 0.33-1.397 0.587a0.493 0.493 0 0 1-0.566-0.047 10.182 10.182 0 0 0-1.072-0.806c-0.072-0.044-0.099-0.054-0.148-0.078l-1.26 1.26c0.023 0.05 0.032 0.077 0.077 0.15 0.162 0.262 0.448 0.643 0.806 1.07a0.493 0.493 0 0 1 0.049 0.565 5.78 5.78 0 0 0-0.584 1.397 0.493 0.493 0 0 1-0.433 0.363c-0.554 0.049-1.023 0.116-1.323 0.187-0.083 0.02-0.108 0.033-0.16 0.051v1.78c0.052 0.018 0.077 0.03 0.16 0.05 0.299 0.072 0.765 0.14 1.317 0.188a0.493 0.493 0 0 1 0.434 0.363c0.132 0.49 0.329 0.961 0.585 1.401a0.493 0.493 0 0 1-0.047 0.564c-0.357 0.427-0.642 0.806-0.804 1.068-0.044 0.072-0.054 0.1-0.078 0.148l1.259 1.259c0.049-0.024 0.076-0.032 0.148-0.076 0.262-0.162 0.642-0.446 1.068-0.802a0.493 0.493 0 0 1 0.562-0.05c0.44 0.255 0.912 0.45 1.403 0.58a0.493 0.493 0 0 1 0.365 0.434c0.049 0.554 0.116 1.023 0.187 1.323 0.02 0.083 0.033 0.108 0.051 0.16h1.78c0.018-0.052 0.03-0.077 0.05-0.16 0.072-0.298 0.139-0.765 0.188-1.317a0.493 0.493 0 0 1 0.361-0.434c0.49-0.133 0.959-0.33 1.397-0.587a0.493 0.493 0 0 1 0.566 0.047c0.428 0.358 0.81 0.644 1.072 0.806 0.072 0.044 0.099 0.054 0.148 0.078l1.26-1.26c-0.023-0.05-0.032-0.077-0.077-0.15a10.182 10.182 0 0 0-0.806-1.07 0.493 0.493 0 0 1-0.049-0.565 5.78 5.78 0 0 0 0.584-1.397 0.493 0.493 0 0 1 0.433-0.363 10.098 10.098 0 0 0 1.323-0.187c0.083-0.02 0.108-0.033 0.16-0.051v-1.78c-0.052-0.018-0.077-0.03-0.16-0.05a10.006 10.006 0 0 0-1.317-0.188 0.493 0.493 0 0 1-0.434-0.363 5.783 5.783 0 0 0-0.585-1.401 0.493 0.493 0 0 1 0.047-0.564c0.357-0.427 0.642-0.806 0.804-1.068 0.044-0.072 0.054-0.1 0.078-0.148l-1.259-1.259c-0.049 0.024-0.076 0.032-0.148 0.076-0.262 0.162-0.642 0.446-1.068 0.802a0.493 0.493 0 0 1-0.562 0.05 5.786 5.786 0 0 0-1.403-0.58 0.493 0.493 0 0 1-0.365-0.434 10.096 10.096 0 0 0-0.187-1.323c-0.02-0.083-0.033-0.108-0.051-0.16z" color="#000000" fill="none" opacity=".25" overflow="visible" solid-color="#000000" stroke="#474c59" stroke-width="1.0002" style="isolation:auto;mix-blend-mode:normal"/>
   <path d="m84.565 18.116c1.983 0.058 3.687-1.922 3.325-3.878-0.247-1.964-2.445-3.356-4.32-2.704-1.841 0.522-2.906 2.772-2.102 4.52 0.508 1.224 1.77 2.076 3.098 2.062z" fill="none" opacity=".25" overflow="visible" stroke="#474c59"/>
  </g>
 </g>
</svg>
