<svg width="54" height="32" version="1.1" xmlns="http://www.w3.org/2000/svg">
 <defs>
  <style id="current-color-scheme" type="text/css">.ColorScheme-Text{color:#dfdfdf}</style>
 </defs>
 <g id="22-22-bookmarks" transform="translate(-420.72 -516.79)">
  <path transform="translate(420.71 524.79)" d="M0 2h22v22H0z" fill-opacity=".004" opacity=".01"/>
  <path class="ColorScheme-Text" d="m426.71 529.79v16l5-2 5 2v-16h-10m1 1h8v13.6l-4-1.6-4 1.6v-13.6" fill="currentColor"/>
 </g>
 <g id="bookmarks">
  <path d="m21.99 0h32v32h-32z" fill-opacity=".004" opacity=".01"/>
  <rect x="23" y="1" width="30" height="30" rx="15" ry="15" fill="#df3d3d"/>
  <rect x="24" y="2" width="28" height="28" rx="14" ry="14" fill="#f55"/>
  <path d="m38 2c-2.9824 0-5.7357 0.93037-8.002 2.5078v20.492l8-4 8 4v-20.496c-2.2654-1.5755-5.0176-2.5039-7.998-2.5039z" color="#dfdfdf" fill="#df3d3d" opacity=".75"/>
  <path d="m38 2c-2.5566 0-4.9415 0.68957-7 1.877v19.531l7-3.4082 7 3.3594v-19.482c-2.0585-1.1874-4.4434-1.877-7-1.877z" color="#dfdfdf" fill="#fff"/>
 </g>
</svg>
