<svg version="1.1" viewBox="0 0 54 32" xmlns="http://www.w3.org/2000/svg">
 <defs>
  <style id="current-color-scheme" type="text/css">.ColorScheme-Text{color:#dfdfdf}</style>
 </defs>
 <g id="22-22-configure">
  <path d="m0 10v22h22v-22z" fill="none"/>
  <path d="m10.78 14.003c-0.13 0.013-0.3 0.034-0.437 0.094 0 0-0.089 0.296-0.157 1.031-0.083 0.9-0.428 1.13-0.687 1.313-0.26 0.183-0.34 0.237-0.438 0.281-0.508 0.085-0.961 0.14-1.656-0.437-0.568-0.472-0.812-0.625-0.812-0.625-0.28 0.11-0.532 0.406-0.532 0.406s-0.295 0.25-0.406 0.531c0 0 0.153 0.245 0.625 0.813 0.577 0.694 0.523 1.148 0.438 1.656-0.044 0.097-0.098 0.178-0.282 0.437-0.183 0.26-0.413 0.605-1.312 0.688-0.735 0.068-1 0.156-1 0.156-0.12 0.277-0.125 0.656-0.125 0.656s5e-3 0.38 0.125 0.657c0 0 0.265 0.088 1 0.156 0.899 0.083 1.128 0.428 1.312 0.687 0.184 0.26 0.238 0.34 0.282 0.438 0.085 0.508 0.14 0.962-0.438 1.656-0.472 0.568-0.625 0.813-0.625 0.813 0.111 0.28 0.406 0.53 0.406 0.53s0.25 0.297 0.532 0.407c0 0 0.244-0.153 0.812-0.625 0.695-0.577 1.148-0.522 1.656-0.437 0.097 0.044 0.178 0.097 0.438 0.28 0.26 0.184 0.604 0.414 0.687 1.313 0.068 0.735 0.157 1 0.157 1 0.277 0.12 0.656 0.125 0.656 0.125s0.38-5e-3 0.656-0.125c0 0 0.089-0.264 0.156-1 0.083-0.899 0.425-1.138 0.844-1.437v-0.031c0.1-0.037 0.184-0.081 0.281-0.125 0.508-0.086 0.962-0.14 1.657 0.437 0.567 0.472 0.812 0.625 0.812 0.625 0.281-0.11 0.531-0.406 0.531-0.406s0.296-0.25 0.407-0.531c0 0-0.153-0.245-0.625-0.813-0.578-0.694-0.523-1.148-0.438-1.656 0.044-0.097 0.088-0.182 0.125-0.281h0.031c0.3-0.42 0.539-0.76 1.438-0.844 0.735-0.068 1.031-0.156 1.031-0.156 0.12-0.277 0.094-0.657 0.094-0.657s0.026-0.38-0.094-0.656c0 0-0.296-0.088-1.031-0.156-0.9-0.083-1.138-0.424-1.438-0.844-0.037-0.1-0.112-0.184-0.156-0.281-0.085-0.508-0.14-0.962 0.438-1.656 0.471-0.568 0.625-0.813 0.625-0.813-0.111-0.28-0.407-0.531-0.407-0.531s-0.25-0.296-0.53-0.406c0 0-0.245 0.153-0.813 0.625-0.695 0.577-1.13 0.52-1.75 0.25s-0.949-0.507-1.032-1.407c-0.068-0.735-0.156-1.03-0.156-1.03-0.276-0.122-0.656-0.096-0.656-0.096s-0.09-0.012-0.219 0zm0.219 5a2 2 0 1 1 0 4 2 2 0 0 1 0-4z" fill="#dfdfdf"/>
 </g>
 <g id="16-16-configure" transform="translate(3.4394 -8.1528)">
  <path d="m0 49.63v16h16v-16z" fill="none" stroke-width=".72727"/>
  <path d="m7.7798 50.633c-0.13 0.013-0.3 0.034-0.437 0.094 0 0-0.089 0.296-0.157 1.031-0.083 0.9-0.428 1.13-0.687 1.313-0.26 0.183-0.34 0.237-0.438 0.281-0.508 0.085-0.961 0.14-1.656-0.437-0.568-0.472-0.812-0.625-0.812-0.625-0.28 0.11-0.532 0.406-0.532 0.406s-0.295 0.25-0.406 0.531c0 0 0.153 0.245 0.625 0.813 0.577 0.694 0.523 1.148 0.438 1.656-0.044 0.097-0.098 0.178-0.282 0.437-0.183 0.26-0.413 0.605-1.312 0.688-0.735 0.068-1 0.156-1 0.156-0.12 0.277-0.125 0.656-0.125 0.656s5e-3 0.38 0.125 0.657c0 0 0.265 0.088 1 0.156 0.899 0.083 1.128 0.428 1.312 0.687 0.184 0.26 0.238 0.34 0.282 0.438 0.085 0.508 0.14 0.962-0.438 1.656-0.472 0.568-0.625 0.813-0.625 0.813 0.111 0.28 0.406 0.53 0.406 0.53s0.25 0.297 0.532 0.407c0 0 0.244-0.153 0.812-0.625 0.695-0.577 1.148-0.522 1.656-0.437 0.097 0.044 0.178 0.097 0.438 0.28 0.26 0.184 0.604 0.414 0.687 1.313 0.068 0.735 0.157 1 0.157 1 0.277 0.12 0.656 0.125 0.656 0.125s0.38-5e-3 0.656-0.125c0 0 0.089-0.264 0.156-1 0.083-0.899 0.425-1.138 0.844-1.437v-0.031c0.1-0.037 0.184-0.081 0.281-0.125 0.508-0.086 0.962-0.14 1.657 0.437 0.567 0.472 0.812 0.625 0.812 0.625 0.281-0.11 0.531-0.406 0.531-0.406s0.296-0.25 0.407-0.531c0 0-0.153-0.245-0.625-0.813-0.578-0.694-0.523-1.148-0.438-1.656 0.044-0.097 0.088-0.182 0.125-0.281h0.031c0.3-0.42 0.539-0.76 1.438-0.844 0.735-0.068 1.031-0.156 1.031-0.156 0.12-0.277 0.094-0.657 0.094-0.657s0.026-0.38-0.094-0.656c0 0-0.296-0.088-1.031-0.156-0.9-0.083-1.138-0.424-1.438-0.844-0.037-0.1-0.112-0.184-0.156-0.281-0.085-0.508-0.14-0.962 0.438-1.656 0.471-0.568 0.625-0.813 0.625-0.813-0.111-0.28-0.407-0.531-0.407-0.531s-0.25-0.296-0.53-0.406c0 0-0.245 0.153-0.813 0.625-0.695 0.577-1.13 0.52-1.75 0.25s-0.949-0.507-1.032-1.407c-0.068-0.735-0.156-1.03-0.156-1.03-0.276-0.122-0.656-0.096-0.656-0.096s-0.09-0.012-0.219 0zm0.219 5a2 2 0 1 1 0 4 2 2 0 0 1 0-4z" fill="#dfdfdf"/>
 </g>
 <g id="configure">
  <path d="m22 0v32h32v-32z" fill="none"/>
  <path d="m37.654 5.0099c-0.20419 0.020418-0.47122 0.053399-0.6864 0.14765 0 0-0.13979 0.46493-0.2466 1.6194-0.13037 1.4136-0.67227 1.7749-1.0791 2.0624-0.40839 0.28744-0.53404 0.37226-0.68797 0.44137-0.79792 0.13351-1.5095 0.2199-2.6011-0.6864-0.89217-0.74138-1.2754-0.9817-1.2754-0.9817-0.4398 0.17278-0.83562 0.63771-0.83562 0.63771s-0.46336 0.39268-0.63771 0.83405c0 0 0.24032 0.38482 0.9817 1.277 0.9063 1.0901 0.82149 1.8032 0.68798 2.6011-0.06912 0.15236-0.15393 0.27959-0.44294 0.6864-0.28744 0.40839-0.6487 0.95028-2.0608 1.0807-1.1545 0.10681-1.5707 0.24503-1.5707 0.24503-0.18849 0.43509-0.19634 1.0304-0.19634 1.0304s0.0079 0.59687 0.19634 1.032c0 0 0.41624 0.13822 1.5707 0.24503 1.4121 0.13037 1.7718 0.67227 2.0608 1.0791 0.28901 0.40839 0.37383 0.53404 0.44294 0.68797 0.13351 0.79792 0.2199 1.511-0.68798 2.6011-0.74138 0.89217-0.9817 1.277-0.9817 1.277 0.17435 0.4398 0.63771 0.83248 0.63771 0.83248s0.39268 0.4665 0.83562 0.63928c0 0 0.38326-0.24032 1.2754-0.9817 1.0917-0.9063 1.8032-0.81991 2.6011-0.6864 0.15236 0.06911 0.27959 0.15236 0.68797 0.4398 0.40839 0.28901 0.94871 0.65028 1.0791 2.0624 0.10681 1.1545 0.2466 1.5707 0.2466 1.5707 0.43509 0.18849 1.0304 0.19634 1.0304 0.19634s0.59687-0.0079 1.0304-0.19634c0 0 0.13979-0.41467 0.24503-1.5707 0.13037-1.4121 0.66756-1.7875 1.3257-2.2571v-0.04868c0.15707-0.05812 0.28901-0.12723 0.44138-0.19634 0.79792-0.13508 1.511-0.2199 2.6027 0.6864 0.8906 0.74138 1.2754 0.9817 1.2754 0.9817 0.44137-0.17278 0.83405-0.63771 0.83405-0.63771s0.46493-0.39268 0.63928-0.83405c0 0-0.24032-0.38482-0.9817-1.277-0.90788-1.0901-0.82149-1.8032-0.68798-2.6011 0.06912-0.15236 0.13822-0.28587 0.19634-0.44137h0.04868c0.47122-0.6597 0.84662-1.1937 2.2587-1.3257 1.1545-0.10681 1.6194-0.24503 1.6194-0.24503 0.18849-0.43509 0.14765-1.032 0.14765-1.032s0.04085-0.59687-0.14765-1.0304c0 0-0.46493-0.13822-1.6194-0.24503-1.4136-0.13037-1.7875-0.66598-2.2587-1.3257-0.05812-0.15707-0.17592-0.28901-0.24503-0.44137-0.13351-0.79793-0.2199-1.511 0.68797-2.6011 0.73981-0.89217 0.9817-1.277 0.9817-1.277-0.17434-0.43981-0.63928-0.83406-0.63928-0.83406s-0.39268-0.46493-0.83248-0.63771c0 0-0.38483 0.24032-1.277 0.9817-1.0916 0.9063-1.7749 0.81677-2.7488 0.39268-0.97385-0.42409-1.4906-0.79635-1.621-2.21-0.10681-1.1545-0.24503-1.6178-0.24503-1.6178-0.43352-0.19163-1.0304-0.15079-1.0304-0.15079s-0.14136-0.018841-0.34399 0zm0.34399 7.8536a3.1414 3.1414 0 1 1 0 6.2829 3.1414 3.1414 0 0 1 0-6.2829z" fill="#dfdfdf" stroke-width="1.5707"/>
 </g>
</svg>
