<svg xmlns="http://www.w3.org/2000/svg" height="54" width="54" version="1.1" id="svg"><defs id="defs81"><style type="text/css" id="current-color-scheme">.ColorScheme-Text{color:#dfdfdf}</style></defs><g transform="translate(22)" id="document-decrypt"><path id="rect6" opacity="1" fill="none" d="M0 0h22v22H0z"/><path id="path8" d="M11 3C8.784 3 7 4.784 7 7v1h1v-.5C8 5.561 9.338 4 11 4s3 1.561 3 3.5V11H5v8h12v-8h-2V7c0-2.216-1.784-4-4-4z" class="ColorScheme-Text" opacity="1" fill="currentColor"/></g><g id="document-encrypt"><path id="rect11" opacity="1" fill="none" d="M0 0h22v22H0z"/><path id="path13" transform="translate(0 -54)" d="M11 57c-2.216 0-4 1.784-4 4v4H5v8h12v-8h-2v-4c0-2.216-1.784-4-4-4zm0 1c1.662 0 3 1.561 3 3.5V65H8v-3.5c0-1.939 1.338-3.5 3-3.5z" class="ColorScheme-Text" opacity="1" fill="currentColor"/></g><g transform="translate(0 32)" id="g8125"><path class="ColorScheme-Text" id="rect3802" opacity="1" fill="none" d="M0 0h22v22H0z"/></g><g transform="translate(27 27)" id="document-open-recent"><path id="path14" d="M0-3v28h10v-1H1V-2h20v15h1V-3H0zm16 16a6 6 0 0 0-6 6 6 6 0 0 0 6 6 6 6 0 0 0 6-6 6 6 0 0 0-6-6zm0 1a5 5 0 0 1 5 5 5 5 0 0 1-5 5 5 5 0 0 1-5-5 5 5 0 0 1 5-5zm-1 1v5h4v-1h-3v-4h-1z" class="ColorScheme-Text" opacity="1" fill="currentColor"/><path id="rect23" opacity="1" fill="none" d="M-5-5h32v32H-5z"/></g><g transform="translate(3.438 35.438) scale(.6875)" id="22-22-document-open-recent"><path id="rect23-7" opacity="1" fill="none" d="M-5-5h32v32H-5z"/><path id="path19" d="M.818-.636v23.272h8.727v-1.454H2.273V.818h17.454V11h1.455V-.636H.818zM15.364 11a5.805 5.805 0 0 0-5.819 5.818 5.805 5.805 0 0 0 5.819 5.818 5.805 5.805 0 0 0 5.818-5.818A5.805 5.805 0 0 0 15.364 11zm0 1.455a4.354 4.354 0 0 1 4.363 4.363 4.354 4.354 0 0 1-4.363 4.364A4.354 4.354 0 0 1 11 16.818a4.354 4.354 0 0 1 4.364-4.363zm-1.455 1.454v4.364h2.909v-1.455h-1.454V13.91h-1.455z" class="ColorScheme-Text" opacity="1" fill="currentColor"/></g></svg>