<svg version="1.1" viewBox="0 0 54 32" xmlns="http://www.w3.org/2000/svg">
 <defs>
  <style id="current-color-scheme" type="text/css">.ColorScheme-Text{color:#dfdfdf}</style>
 </defs>
 <g id="16-16-drive">
  <path d="m-17.83 16v16h16v-16z" fill="none"/>
  <g transform="translate(-17.83 16)" fill="#dfdfdf">
   <path d="m3 0c-1.108 0-2 0.892-2 2v12c0 1.108 0.892 2 2 2h10c1.108 0 2-0.892 2-2v-12c0-1.108-0.892-2-2-2zm0 1h10c0.554 0 1 0.446 1 1v12c0 0.554-0.446 1-1 1h-10c-0.554 0-1-0.446-1-1v-12c0-0.554 0.446-1 1-1z" style="paint-order:stroke fill markers"/>
   <path class="ColorScheme-Text" d="m8 13c-2.209 0-4-1.7909-4-4s1.791-4 4-4h4v4c0 2.2091-1.7909 4-4 4zm0-2c1.1046 0 2-0.8954 2-2s-0.8954-2-2-2-2 0.8954-2 2 0.8954 2 2 2z" color="#dfdfdf"/>
   <rect x="3" y="2" width="1" height="1" ry=".5" style="paint-order:stroke fill markers"/>
   <rect x="12" y="2" width="1" height="1" ry=".5" style="paint-order:stroke fill markers"/>
   <rect x="3" y="13" width="1" height="1" ry=".5" style="paint-order:stroke fill markers"/>
   <rect x="12" y="13" width="1" height="1" ry=".5" style="paint-order:stroke fill markers"/>
  </g>
 </g>
 <g id="22-22-drive">
  <path d="m0 10v22h22v-22z" fill="none"/>
  <g transform="translate(3.3105 13)" fill="#dfdfdf">
   <path d="m3 0c-1.108 0-2 0.892-2 2v12c0 1.108 0.892 2 2 2h10c1.108 0 2-0.892 2-2v-12c0-1.108-0.892-2-2-2zm0 1h10c0.554 0 1 0.446 1 1v12c0 0.554-0.446 1-1 1h-10c-0.554 0-1-0.446-1-1v-12c0-0.554 0.446-1 1-1z" style="paint-order:stroke fill markers"/>
   <path class="ColorScheme-Text" d="m8 13c-2.209 0-4-1.7909-4-4s1.791-4 4-4h4v4c0 2.2091-1.7909 4-4 4zm0-2c1.1046 0 2-0.8954 2-2s-0.8954-2-2-2-2 0.8954-2 2 0.8954 2 2 2z" color="#dfdfdf"/>
   <rect x="3" y="2" width="1" height="1" ry=".5" style="paint-order:stroke fill markers"/>
   <rect x="12" y="2" width="1" height="1" ry=".5" style="paint-order:stroke fill markers"/>
   <rect x="3" y="13" width="1" height="1" ry=".5" style="paint-order:stroke fill markers"/>
   <rect x="12" y="13" width="1" height="1" ry=".5" style="paint-order:stroke fill markers"/>
  </g>
 </g>
 <g id="drive">
  <path d="m22 0v32h32v-32z" fill="none"/>
  <path class="ColorScheme-Text" d="m38 25c-4.418 0-8-3.5818-8-8s3.582-8 8-8h8v8c0 4.4182-3.5818 8-8 8zm0-4c2.2092 0 4-1.7908 4-4s-1.7908-4-4-4-4 1.7908-4 4 1.7908 4 4 4z" color="#dfdfdf" fill="#dfdfdf" stroke-width="2"/>
  <rect x="29" y="25" width="1" height="1" ry=".5" fill="#dfdfdf" style="paint-order:stroke fill markers"/>
  <rect x="46" y="25" width="1" height="1" ry=".5" fill="#dfdfdf" style="paint-order:stroke fill markers"/>
  <path d="m29 4c-1.108 0-2 0.892-2 2v20c0 1.108 0.892 2 2 2h18c1.108 0 2-0.892 2-2v-20c0-1.108-0.892-2-2-2h-18zm0 1h18c0.554 0 1 0.446 1 1v20c0 0.554-0.446 1-1 1h-18c-0.554 0-1-0.446-1-1v-20c0-0.554 0.446-1 1-1z" fill="#dfdfdf" style="paint-order:stroke fill markers"/>
  <rect x="29" y="6" width="1" height="1" ry=".5" fill="#dfdfdf" style="paint-order:stroke fill markers"/>
  <rect x="46" y="6" width="1" height="1" ry=".5" fill="#dfdfdf" style="paint-order:stroke fill markers"/>
 </g>
</svg>
