<svg xmlns="http://www.w3.org/2000/svg" width="22" height="22" id="svg3869" version="1.1"><defs id="defs3871"><style type="text/css" id="current-color-scheme">.ColorScheme-Text{color:#dfdfdf}</style></defs><g id="layer1" transform="translate(-326 -534.362)"><g id="go-home"><path id="rect4180" opacity="1" fill="none" fill-opacity="1" stroke="none" stroke-width="3.567" stroke-linecap="butt" stroke-linejoin="miter" stroke-miterlimit="4" stroke-dasharray="none" stroke-dashoffset="0" stroke-opacity="1" d="M326 534.362h22v22h-22z"/><path id="rect4164" d="M337 537.362l-.707.707-7.293 7.293.707.707.293-.293v7.586h14v-7.586l.293.293.707-.707-3-3v-3h-3l-1.293-1.293-.707-.707zm0 1.414l6 6v7.586h-4v-5h-4v5h-4v-7.586l6-6z" class="ColorScheme-Text" opacity="1" fill="currentColor" fill-opacity="1" stroke="none"/></g><g id="go-down"><path id="rect4411" opacity="1" fill="none" fill-opacity="1" stroke="none" stroke-width="3.567" stroke-linecap="butt" stroke-linejoin="miter" stroke-miterlimit="4" stroke-dasharray="none" stroke-dashoffset="0" stroke-opacity="1" d="M414 534.362h22v22h-22z"/><g id="layer1-0" transform="translate(414 -496)"><path d="M3.707 7L3 7.707l6.125 6.125L11 15.707l1.875-1.875L19 7.707 18.293 7l-6.125 6.125L11 14.293l-1.168-1.168L3.707 7z" transform="translate(0 1030.362)" id="rect4176" class="ColorScheme-Text" fill="currentColor" fill-opacity="1" stroke="none"/></g></g><g id="go-next"><path id="rect4407" opacity="1" fill="none" fill-opacity="1" stroke="none" stroke-width="3.567" stroke-linecap="butt" stroke-linejoin="miter" stroke-miterlimit="4" stroke-dasharray="none" stroke-dashoffset="0" stroke-opacity="1" d="M370 534.362h22v22h-22z"/><g id="layer1-3" transform="translate(370 -496)"><path d="M7.707 3L7 3.707l6.125 6.125L14.293 11l-1.168 1.168L7 18.293l.707.707 6.125-6.125L15.707 11l-1.875-1.875L7.707 3z" transform="translate(0 1030.362)" id="rect4176-0" class="ColorScheme-Text" fill="currentColor" fill-opacity="1" stroke="none"/></g></g><g id="go-previous"><path id="rect4405" opacity="1" fill="none" fill-opacity="1" stroke="none" stroke-width="3.567" stroke-linecap="butt" stroke-linejoin="miter" stroke-miterlimit="4" stroke-dasharray="none" stroke-dashoffset="0" stroke-opacity="1" d="M348 534.362h22v22h-22z"/><g id="layer1-1" transform="translate(348 -496)"><path d="M14.293 3L8.168 9.125 6.293 11l1.875 1.875L14.293 19l.707-.707-6.125-6.125L7.707 11l1.168-1.168L15 3.707 14.293 3z" transform="translate(0 1030.362)" id="rect4176-7" class="ColorScheme-Text" fill="currentColor" fill-opacity="1" stroke="none"/></g></g><g id="go-up"><path id="rect4409" opacity="1" fill="none" fill-opacity="1" stroke="none" stroke-width="3.567" stroke-linecap="butt" stroke-linejoin="miter" stroke-miterlimit="4" stroke-dasharray="none" stroke-dashoffset="0" stroke-opacity="1" d="M392 534.362h22v22h-22z"/><path id="path4165" d="M403 543.362l-5 4h10l-5-4z" class="ColorScheme-Text" fill="currentColor" fill-rule="evenodd" stroke="none" stroke-width="1" stroke-linecap="butt" stroke-linejoin="miter" stroke-opacity="1"/></g></g></svg>