<svg width="242" height="154" version="1.1" xmlns="http://www.w3.org/2000/svg">
 <defs>
  <style id="current-color-scheme" type="text/css">.ColorScheme-Text{color:#dfdfdf}</style>
 </defs>
 <g id="ime-libpinyin-bopomofo" transform="translate(66 22)">
  <path d="M0 0h22v22H0z" fill="none" fill-rule="evenodd"/>
  <path transform="translate(-66,-22)" d="m69 25v16h16v-16h-16zm8.3008 1.5996 2 1.5-0.60156 0.80078-2-1.5 0.60156-0.80078zm-5.9473 0.046875 2 2-0.70703 0.70703-2-2 0.70703-0.70703zm2.6465 2.3535h9v1h-4v3h3v1h-3v4h4v1h-9v-1h4v-4h-3v-1h3v-3h-4v-1zm-2.6465 0.64648 2 2-0.70703 0.70703-2-2 0.70703-0.70703zm1.1719 3.1953 0.94922 0.31641-2 6-0.94922-0.31641 2-6z" fill="#dfdfdf"/>
 </g>
 <g id="ime-pinyin">
  <path class="ColorScheme-Text" d="M3 3.002V19h16V3.002H3zM4 4h14v14H4V4zm6.9.701l-.8.6L11.375 7H10v1h1v3H9.117l.106-.053-.446-.894L8 10.44V8h1V7H8V5H7v2H5v1h2v2.941l-2.223 1.112.446.894L7 12.06V16H5v1h3v-5.441l1-.5V12h1.96c-.088.895-.39 1.612-.792 2.307-.497.86-1.51 1.83-1.51 1.83l.684.728s1.07-.983 1.691-2.058c.449-.778.83-1.688.926-2.807H14v5h1v-5h2v-1h-2V8h2V7h-2.375L15.9 5.3l-.8-.599-1.5 2 .398.299h-1.996l.398-.299-1.5-2zM12 8h2v3h-2V8z" fill="currentColor"/>
  <path d="M0 0h22v22H0z" fill="none"/>
 </g>
 <g id="ime-shuangpin" transform="translate(44)">
  <path class="ColorScheme-Text" d="M3 3.002V19h16V3.002H3zM4 4h14v14H4V4zm1 1v1h4.428c-.071.643-.318 2.737-.87 4.643-.694-.963-1.486-1.981-2.667-3.456l-.782.627c1.418 1.77 2.287 2.884 3.053 3.99-1.293 3.343-3.264 4.657-3.264 4.657l.557.832s1.97-1.363 3.365-4.488c.437.686.883 1.421 1.422 2.375l.87-.49a45.784 45.784 0 0 0-1.839-3.012c.897-2.608 1.225-6.13 1.225-6.13l.05-.548H5zm6 0v1h.59c.102.592.552 3.137 1.31 5.094.266.685.55 1.343.887 1.992-1.288 2.042-3.068 3.143-3.068 3.143l.517.855s1.71-1.05 3.104-3.037c.656 1.024 1.521 2.03 2.803 3.064l.627-.779c-1.384-1.117-2.22-2.147-2.844-3.23.125-.228.256-.448.367-.694C16.167 10.468 17 7.647 17 5.5V5h-6zm1.607 1h3.317c-.109 1.853-.786 4.318-1.543 5.998l-.008.016a24.198 24.198 0 0 1-.539-1.282C13.176 9.033 12.747 6.765 12.607 6z" fill="currentColor"/>
  <path d="M0 0h22v22H0z" fill="none"/>
 </g>
 <g id="ime-wubi" transform="translate(154)">
  <path class="ColorScheme-Text" d="M3 3.002V19h16V3.002zM4 4h14v14H4zm2 2v1h3.877l-.666 3H7v1h1.988L8.1 15H6v1h10v-1h-2v-5h-3.764l.666-3H15V6zm4.014 5H13v4H9.123z" fill="currentColor"/>
  <path d="M0 0h22v22H0z" fill="none"/>
 </g>
 <g id="ime-googlepinyin" transform="translate(0 44)">
  <path class="ColorScheme-Text" d="M3 3.002V19h16V3.002H3zM4 4h14v14H4V4zm6.898 1.504a5.49 5.49 0 0 0-3.597 1.424 5.513 5.513 0 0 0-.826 7.199A5.512 5.512 0 0 0 13.5 15.9c2.19-1.117 3.332-3.545 2.898-5.9h-2.056l.002.008H11v2h3.336a3.458 3.458 0 0 1-1.746 2.111c-1.57.8-3.47.321-4.47-1.129a3.49 3.49 0 0 1 .526-4.582 3.487 3.487 0 0 1 4.61-.084l1.29-1.53a5.492 5.492 0 0 0-3.648-1.29z" fill="currentColor"/>
  <path d="M0 0h22v22H0z" fill="none"/>
 </g>
 <g id="ime-libpinyin-pinyin" transform="translate(0 22)">
  <path class="ColorScheme-Text" d="M3 3v16h16V3H3zm7.9 1.701l1.5 2-.398.299h1.996l-.398-.299 1.5-2 .8.6L14.625 7H17v1h-2v3h2v1h-2v5h-1v-5h-2.041c-.096 1.119-.477 2.03-.926 2.807-.62 1.075-1.691 2.058-1.691 2.058l-.684-.728s1.013-.97 1.51-1.83c.401-.695.704-1.412.793-2.307H9v-.941l-1 .5V17H5v-1h2v-3.941l-1.777.888-.446-.894L7 10.94V8H5V7h2V5h1v2h1v1H8v2.441l.777-.388.446.894-.106.053H11V8h-1V7h1.375L10.1 5.3l.8-.599zM12 8v3h2V8h-2z" fill="currentColor"/>
  <path d="M0 0h22v22H0z" fill="none"/>
 </g>
 <g id="ime-libpinyin-shuangpin" transform="translate(44 22)">
  <path class="ColorScheme-Text" d="M3 3v16h16V3H3zm2 2h5.549l-.051.549s-.328 3.52-1.225 6.129a45.785 45.785 0 0 1 1.838 3.011l-.869.49a51.03 51.03 0 0 0-1.422-2.374c-1.394 3.125-3.365 4.488-3.365 4.488l-.557-.832s1.97-1.314 3.264-4.656c-.766-1.107-1.635-2.222-3.053-3.99l.782-.628c1.18 1.475 1.973 2.493 2.668 3.456.55-1.906.798-4 .869-4.643H5V5zm6 0h6v.5c0 2.147-.833 4.968-1.707 6.908-.111.247-.242.466-.367.694.624 1.083 1.46 2.113 2.844 3.23l-.627.78c-1.282-1.035-2.147-2.042-2.803-3.065-1.393 1.987-3.104 3.037-3.104 3.037l-.517-.855s1.78-1.101 3.068-3.143a19.584 19.584 0 0 1-.887-1.992C12.142 9.137 11.692 6.592 11.59 6H11V5zm1.607 1c.14.765.569 3.033 1.227 4.732.173.448.351.868.539 1.282.003-.006.005-.006.008-.016.757-1.68 1.434-4.145 1.543-5.998h-3.317z" fill="currentColor"/>
  <path d="M0 0h22v22H0z" fill="none"/>
 </g>
 <g id="ime-sunpinyin" transform="translate(22 44)">
  <path class="ColorScheme-Text" d="M11 1.514c-.256 0-.511.099-.707.295L8.102 4H5c-.554 0-1 .446-1 1v3.1l-2.193 2.193a.998.998 0 0 0 0 1.414L4 13.9V17c0 .554.446 1 1 1h3.1l2.193 2.193a.998.998 0 0 0 1.414 0L13.9 18H17c.554 0 1-.446 1-1v-3.102l2.191-2.191a.998.998 0 0 0 0-1.414L18 8.102V5c0-.554-.446-1-1-1h-3.102l-2.191-2.191A.998.998 0 0 0 11 1.514zM10.9 4.7l1.5 2-.398.299h1.996l-.398-.299 1.5-2 .8.6L14.625 7H17v1h-2v3h2v1h-2v5h-1v-5h-2.041c-.096 1.119-.477 2.03-.926 2.807-.62 1.075-1.691 2.058-1.691 2.058l-.684-.728s1.013-.97 1.51-1.83c.401-.695.704-1.412.793-2.307H9v-.941l-1 .5V17H5v-1h2v-3.941l-1.777.888-.446-.894L7 10.94V8H5V7h2V5h1v2h1v1H8v2.441l.777-.388.446.894-.106.053H11V8h-1V7h1.375L10.1 5.3l.8-.599zM12 8v3h2V8h-2z" fill="currentColor"/>
  <path d="M0 0h22v22H0z" fill="none"/>
 </g>
 <g id="ime-emoji" transform="translate(0 -38)">
  <path d="M0 170h22v22H0z" fill="none"/>
  <path class="ColorScheme-Text" transform="translate(0 26)" d="M3.223 150.053l-.446.894 4 2 .446-.894-4-2zm15.554 0l-4 2 .446.894 4-2-.446-.894zM4 153a1 1 0 0 0-1 1 1 1 0 0 0 1 1 1 1 0 0 0 1-1 1 1 0 0 0-1-1zm14 0a1 1 0 0 0-1 1 1 1 0 0 0 1 1 1 1 0 0 0 1-1 1 1 0 0 0-1-1zm-9.9 1.7c-.81 1.08-1.235 2.288-1.16 3.335.037.524.21 1.022.568 1.39.358.37.888.575 1.492.575.961 0 1.639-.68 2-1.457.361.776 1.039 1.457 2 1.457.604 0 1.134-.205 1.492-.574.359-.37.531-.867.569-1.39.074-1.048-.35-2.257-1.16-3.337l-.801.602c.69.92 1.015 1.961.964 2.664-.025.351-.133.603-.29.765-.158.163-.378.27-.774.27-.528 0-.84-.307-1.107-.895-.268-.587-.393-1.41-.393-2.105h-1c0 .694-.125 1.518-.393 2.105-.267.588-.58.895-1.107.895-.396 0-.616-.107-.773-.27-.158-.162-.266-.414-.291-.765-.05-.703.274-1.744.964-2.664l-.8-.602z" fill="currentColor"/>
 </g>
 <g id="ime-erbi" transform="translate(132)">
  <path class="ColorScheme-Text" d="M3 3v16h16V3H3zm1 1h14v14H4V4zm2 3v1h10V7H6zm-1 7v1h12v-1H5z" fill="currentColor"/>
  <path d="M0 0h22v22H0z" fill="none"/>
 </g>
 <g id="ime-ziranma" transform="translate(198)">
  <path class="ColorScheme-Text" d="M3 3v16h16V3H3zm1 1h14v14H4V4zm5.68.615L6.818 7H6v10h10V7H8.383l1.937-1.615-.64-.77zM7 8h8v8H7v-2h6v-1H7v-2h6v-1H7V8z" fill="currentColor"/>
  <path d="M0 0h22v22H0z" fill="none"/>
 </g>
 <g id="ime-quanpin" transform="translate(22)">
  <path class="ColorScheme-Text" d="M3 3v16h16V3H3zm1 1h14v14H4V4zm6.51.902c-.186.93-1.548 2.061-2.944 2.85C6.171 8.54 4.83 9.029 4.83 9.029l.34.942S5.97 9.677 7 9.176V10h3.5v2H8v1h2.5v3H6v1h10v-1h-4.5v-3H14v-1h-2.5v-2H15v-.87c1.016.517 1.824.839 1.824.839l.352-.938s-3.856-1.498-5.733-3.787c.013-.05.037-.096.047-.146l-.98-.196zm.49 1.33C12.116 7.447 13.543 8.37 14.734 9H7.338c.237-.121.473-.237.72-.377 1.096-.619 2.274-1.394 2.942-2.39z" fill="currentColor"/>
  <path d="M0 0h22v22H0z" fill="none"/>
 </g>
 <g id="ime-cangjie" transform="translate(220)">
  <path class="ColorScheme-Text" transform="translate(-176 -12)" d="M179 15v16h16V15h-16zm1 1h14v14h-14V16zm6.584.723c-1.844 2.765-5.647 3.28-5.647 3.28l.125.993s.834-.124 1.938-.535V24.5c0 .833-.454 1.913-.934 2.752-.48.84-.957 1.436-.957 1.436l.782.625s.522-.654 1.043-1.565c.022-.039.044-.085.066-.125V29h8v-3h-7.275a5.32 5.32 0 0 0 .22-1H191v-4.54c1.104.412 1.938.536 1.938.536l.125-.992s-3.803-.516-5.647-3.281h-.832zm.416.98c.859 1.07 1.933 1.799 2.934 2.297H187.5l.277-.416-1.5-1-.554.832.875.584h-2.532c1-.498 2.075-1.227 2.934-2.297zM184 21h6v3h-6v-1h5v-1h-5v-1zm0 6h6v1h-6v-1z" fill="currentColor"/>
  <path d="M0 0h22v22H0z" fill="none"/>
 </g>
 <g id="ime-libpinyin-quanpin" transform="translate(22 22)">
  <path class="ColorScheme-Text" transform="translate(25.5 18)" d="M-22.5-15V1h16v-16h-16zm7.51 1.902l.98.196c-.01.05-.034.096-.047.146 1.877 2.29 5.733 3.787 5.733 3.787l-.352.938s-.808-.322-1.824-.838V-8H-14v2h2.5v1H-14v3h4.5v1h-10v-1h4.5v-3h-2.5v-1h2.5v-2h-3.5v-.824c-1.029.501-1.83.795-1.83.795l-.34-.942s1.341-.489 2.736-1.277c1.396-.789 2.758-1.92 2.944-2.85zm.49 1.33c-.668.997-1.846 1.772-2.941 2.391-.248.14-.484.256-.721.377h7.396c-1.191-.63-2.618-1.553-3.734-2.768z" fill="currentColor"/>
  <path d="M0 0h22v22H0z" fill="none"/>
 </g>
 <g id="ime-bopomofo" transform="translate(66)">
  <path d="M0 0h22v22H0z" fill="none" fill-rule="evenodd"/>
  <path class="ColorScheme-Text" transform="translate(-88 -34)" d="M91 37v16h16V37H91zm1 1h14v14H92V38zm7.3.6l-.6.8 2 1.5.6-.8-2-1.5zm-5.946.046l-.708.708 2 2 .708-.708-2-2zM96 41v1h4v3h-3v1h3v4h-4v1h9v-1h-4v-4h3v-1h-3v-3h4v-1h-9zm-2.646.646l-.708.708 2 2 .708-.708-2-2zm1.171 3.196l-2 6 .95.316 2-6-.95-.316z" fill="currentColor"/>
 </g>
 <g id="ime-chewing" transform="translate(88)">
  <path class="ColorScheme-Text" transform="translate(-88 -34)" d="M91 37v16h16V37H91zm1 1h14v14H92V38zm1 1v1h1v3h-1v8h6v-8h-2v-3h2v-1h-6zm6 4l.4.3s.399-.51.797-1.3H102v2h-2v1h5v-1h-2v-2h2v-1h-2v-2h-1v2h-1.383c.218-.611.383-1.291.383-2h-1c0 1.75-1.4 3.7-1.4 3.7l.4.3zm-4-3h1v3h-1v-3zm0 4h1v3h1v-3h1v6h-4v-1h3v-1h-3v-1h1v-3zm5 2v5h5v-5h-5zm1 1h3v3h-3v-3z" fill="currentColor"/>
  <path d="M0 0h22v22H0z" fill="none"/>
 </g>
 <g id="ime-libpinyin-chewing" transform="translate(88 22)">
  <path class="ColorScheme-Text" transform="translate(-88 -34)" d="M91 37v16h16V37H91zm2 2h6v1h-2v3h2l-.4-.3s1.4-1.95 1.4-3.7h1c0 .709-.165 1.389-.383 2H102v-2h1v2h2v1h-2v2h2v1h-5v-1h2v-2h-1.803c-.398.79-.797 1.3-.797 1.3L99 43v8h-6v-8h1v-3h-1v-1zm2 1v3h1v-3h-1zm0 4v3h-1v1h3v1h-3v1h4v-6h-1v3h-1v-3h-1zm5 2h5v5h-5v-5zm1 1v3h3v-3h-3z" fill="currentColor"/>
  <path d="M0 0h22v22H0z" fill="none"/>
 </g>
 <g id="ime-rime" transform="translate(110)">
  <path class="ColorScheme-Text" transform="translate(-110 -12)" d="M113 15v16h16V15h-16zm1 1h14v14h-14V16zm6 1v6.982c-1.811-.081-2.72-.606-3.262-1.492-.59-.965-.738-2.51-.738-4.49h-1c0 2.02.102 3.725.887 5.01.726 1.189 2.063 1.874 4.113 1.97V28h-5v1h11v-1h-5v-3.02c2.05-.096 3.387-.781 4.113-1.97.785-1.285.887-2.99.887-5.01h-1c0 1.98-.148 3.525-.738 4.49-.541.886-1.451 1.41-3.262 1.492V17h-1z" fill="currentColor"/>
  <path d="M0 0h22v22H0z" fill="none"/>
 </g>
 <g id="ime-unikey" transform="translate(0 -60)">
  <path d="M0 170h22v22H0z" fill="none"/>
  <path class="ColorScheme-Text" transform="translate(0 48)" d="M4 126v8h3v7h8v-7h3v-8h-7zm1 1h6v6H5zm7 0h5v6h-5zm-6 1v1.5c0 .806.123 1.423.484 1.875.362.452.933.625 1.516.625s1.154-.173 1.516-.625c.361-.452.484-1.07.484-1.875V128H9v1.5c0 .694-.127 1.077-.266 1.25-.138.173-.317.25-.734.25s-.596-.077-.734-.25c-.139-.173-.266-.556-.266-1.25V128zm8 0v4h1v-4zm-6 6h6v6H8zm2 1H9v4h1v-2.498L12 139h1v-4h-1v2.498z" fill="currentColor"/>
 </g>
 <g id="ime-anthy" transform="translate(0 -104)">
  <path d="M0 170h22v22H0z" fill="none"/>
  <path class="ColorScheme-Text" d="M11 173c-1.099 0-2 .901-2 2v.002c.001.609.333 1.122.795 1.496-.145.976-.373 2.233-.77 3.256-.211.546-.467 1.014-.734 1.316-.267.302-.507.43-.791.43-.298 0-.54-.111-.793-.348-.253-.236-.495-.6-.701-1.037-.38-.804-.608-1.815-.762-2.644.44-.375.756-.88.756-1.471 0-1.099-.901-2-2-2s-2 .901-2 2c.001.821.564 1.455 1.299 1.758L5.08 188h11.84l1.781-10.24c.736-.303 1.3-.938 1.299-1.76 0-1.099-.901-2-2-2s-2 .901-2 2c0 .592.316 1.096.756 1.47-.154.83-.382 1.841-.762 2.645-.206.436-.448.801-.701 1.037-.254.237-.495.348-.793.348-.284 0-.524-.128-.791-.43-.267-.301-.523-.77-.734-1.316-.397-1.022-.625-2.278-.77-3.254.462-.374.795-.89.795-1.5 0-1.099-.901-2-2-2zm0 1c.558 0 1 .442 1 1 0 .384-.218.73-.563.898l-.326.159.05.361c.144 1.034.406 2.47.882 3.697.238.614.527 1.178.918 1.62.39.44.92.765 1.539.765.575 0 1.085-.252 1.475-.615.39-.363.683-.834.923-1.344.404-.855.596-1.788.76-2.615L16.08 187H5.92l-1.576-9.072c.164.827.355 1.76.758 2.613.24.51.534.98.923 1.344.39.363.9.615 1.475.615.619 0 1.15-.326 1.541-.768.39-.44.68-1.003.918-1.617.476-1.227.736-2.665.88-3.699l.05-.361-.326-.159A1 1 0 0 1 10 175v-.002a.992.992 0 0 1 1-.998zm-7 1c.558 0 1 .442 1 1a.995.995 0 0 1-.541.887l-.293.152-.328-.055A.993.993 0 0 1 3 176c0-.558.442-1 1-1zm14 0c.558 0 1 .442 1 1 0 .493-.35.907-.838.986l-.326.055-.295-.154A.995.995 0 0 1 17 176c0-.558.442-1 1-1z" fill="currentColor"/>
 </g>
 <g id="ime-libkkc" transform="translate(22 -104)">
  <path d="M0 170h22v22H0z" fill="none"/>
  <path class="ColorScheme-Text" transform="translate(-22 92)" d="M25 81v16h16V81H25zm1 1h14v14H26V82zm1 3v8h1v-2.293L30.293 93H32v-2.293L34.293 93h1.414l-3-3 3-3h-1.414L32 89.293V85h-1v2h-.707L28 89.293V85h-1zm10 2c-.583 0-1.11.154-1.479.521-.367.368-.521.896-.521 1.479v2c0 .583.154 1.11.521 1.479.368.367.896.521 1.479.521.583 0 1.11-.154 1.479-.521.367-.368.521-.896.521-1.479h-1c0 .417-.096.64-.229.771-.132.133-.354.229-.771.229-.417 0-.64-.096-.771-.229C36.096 91.64 36 91.417 36 91v-2c0-.417.096-.64.229-.771.132-.133.354-.229.771-.229.417 0 .64.096.771.229.133.132.229.354.229.771h1c0-.583-.154-1.11-.521-1.479C38.11 87.154 37.583 87 37 87zm-6 .707v4.586L28.707 90 31 87.707z" fill="currentColor"/>
 </g>
 <g id="ime-libskk" transform="translate(44.021 -103.98)">
  <path d="M0 170h22v22H0z" fill="none"/>
  <path class="ColorScheme-Text" transform="translate(-44.021 91.979)" d="M47.021 81.021v16h16v-16h-16zm1 1h14v14h-14v-14zM53 85v8h1v-2.293L56.293 93H58v-2.293L60.293 93h1.414l-3-3 3-3h-1.414L58 89.293V85h-1v2h-.707L54 89.293V85h-1zm0 6c0-.583-.154-1.11-.521-1.479C52.11 89.154 51.583 89 51 89c-.417 0-.64-.096-.771-.229C50.096 88.64 50 88.417 50 88c0-.417.096-.64.229-.771.132-.133.354-.229.771-.229.417 0 .64.096.771.229.133.132.229.354.229.771h1c0-.583-.154-1.11-.521-1.479C52.11 86.154 51.583 86 51 86c-.583 0-1.11.154-1.479.521-.367.368-.521.896-.521 1.479 0 .583.154 1.11.521 1.479.368.367.896.521 1.479.521.417 0 .64.096.771.229.133.132.229.354.229.771 0 .417-.096.64-.229.771-.132.133-.354.229-.771.229-.417 0-.64-.096-.771-.229C50.096 91.64 50 91.417 50 91h-1c0 .583.154 1.11.521 1.479.368.367.896.521 1.479.521.583 0 1.11-.154 1.479-.521.367-.368.521-.896.521-1.479zm4-3.293v4.586L54.707 90 57 87.707z" fill="currentColor"/>
 </g>
 <g id="ime-hangul" transform="translate(0 -82)">
  <path d="M0 170h22v22H0z" fill="none"/>
  <path class="ColorScheme-Text" transform="translate(0 70)" d="M3 103v16h16v-16H3zm1 1h14v14H4v-14zm4 1v1h2v-1H8zm6 1v8h1v-4h2v-1h-2v-3h-1zm-8 1v1h6v-1H6zm3 2c-1.597 0-3 1.058-3 2.5s1.403 2.5 3 2.5 3-1.058 3-2.5-1.403-2.5-3-2.5zm0 1c1.165 0 2 .733 2 1.5s-.835 1.5-2 1.5-2-.733-2-1.5.835-1.5 2-1.5zm-1 5v2h8v-1H9v-1H8z" fill="currentColor"/>
 </g>
 <g id="ime-fullwidth" transform="translate(132 -82)">
  <path d="M0 170h22v22H0z" fill="none"/>
  <ellipse class="ColorScheme-Text" cx="11" cy="181" rx="8" ry="8" fill="currentColor"/>
 </g>
 <g id="ime-halfwidth" transform="translate(154 -82)">
  <path d="M0 170h22v22H0z" fill="none"/>
  <path class="ColorScheme-Text" transform="translate(-154 82)" d="M167.566 91.432A8 8 0 0 1 168 94a8 8 0 0 1-8 8 8 8 0 0 1-2.566-.432A8 8 0 0 0 165 107a8 8 0 0 0 8-8 8 8 0 0 0-5.434-7.568z" fill="currentColor"/>
 </g>
 <g id="ime-punctuation-halfwidth" transform="translate(154 -60)">
  <path d="M0 170h22v22H0z" fill="none"/>
  <circle class="ColorScheme-Text" cx="7.5" cy="180.5" r="1.5" fill="currentColor"/>
  <path class="ColorScheme-Text" d="M14.5 179a1.5 1.5 0 0 0-1.5 1.5 1.5 1.5 0 0 0 1.5 1.5 1.5 1.5 0 0 0 .047-.002c-.533.94-1.348 1.602-1.348 1.602l.602.8s1.967-1.426 2.162-3.572A1.5 1.5 0 0 0 16 180.5a1.5 1.5 0 0 0-1.5-1.5z" fill="currentColor"/>
 </g>
 <g id="ime-punctuation-fullwidth" transform="translate(132 -60)">
  <path d="M7.5 178a2.508 2.508 0 0 0-2.5 2.5c0 1.375 1.125 2.5 2.5 2.5s2.5-1.125 2.5-2.5-1.125-2.5-2.5-2.5zm0 1c.834 0 1.5.666 1.5 1.5s-.666 1.5-1.5 1.5-1.5-.666-1.5-1.5.666-1.5 1.5-1.5z" color-rendering="auto" fill="#dfdfdf" font-family="sans-serif" font-weight="400" image-rendering="auto" overflow="visible" shape-rendering="auto" stroke-linejoin="bevel" text-rendering="auto" style="block-progression:tb;isolation:auto;mix-blend-mode:normal;text-decoration-color:#000;text-decoration-line:none;text-decoration-style:solid;text-indent:0;text-transform:none;white-space:normal"/>
  <path d="M0 170h22v22H0z" fill="none"/>
  <path transform="translate(-198 82)" d="M212.5 96a2.508 2.508 0 0 0-2.5 2.5c0 1.375 1.125 2.5 2.5 2.5.365 0 .71-.084 1.023-.227a3.874 3.874 0 0 1-1.306 1.502c-.895.616-1.78.729-1.78.729l.125.992s1.116-.137 2.221-.896c1.105-.76 2.217-2.202 2.217-4.6 0-1.375-1.125-2.5-2.5-2.5zm0 1c.834 0 1.5.666 1.5 1.5s-.666 1.5-1.5 1.5-1.5-.666-1.5-1.5.666-1.5 1.5-1.5z" color-rendering="auto" fill="#dfdfdf" font-family="sans-serif" font-weight="400" image-rendering="auto" overflow="visible" shape-rendering="auto" stroke-linejoin="bevel" text-rendering="auto" style="block-progression:tb;isolation:auto;mix-blend-mode:normal;text-decoration-color:#000;text-decoration-line:none;text-decoration-style:solid;text-indent:0;text-transform:none;white-space:normal"/>
 </g>
 <g id="ime-chinese-simplified" transform="translate(132 -38)">
  <path d="M0 170h22v22H0z" fill="none"/>
  <path class="ColorScheme-Text" transform="translate(-132 60)" d="M138.81 113.406c-.507 1.367-1.347 2.598-2.519 3.692l.996.761c.195-.039.742-.722 1.64-2.05h.762c.43.625.801 1.27 1.114 1.933l1.172-.644-.938-1.29h2.05v-1.113h-3.632l.469-.937-1.113-.352zm6.036 0c-.47 1.328-1.27 2.54-2.403 3.633l.996.762c.665-.625 1.172-1.29 1.524-1.992h.996c.43.586.8 1.21 1.113 1.875l1.055-.645c-.273-.43-.566-.84-.879-1.23h2.461v-1.114h-4.16c.156-.312.293-.625.41-.937l-1.113-.352zm-5.45 4.102l-.996.586c.547.547.957 1.094 1.23 1.64l1.114-.586a7.528 7.528 0 0 0-1.348-1.64zm1.993.527v.996h6.386v6.035c0 .547-.136.82-.41.82-.39 0-.898-.019-1.523-.058l.293 1.113c.547.04 1.015.059 1.406.059.469 0 .82-.137 1.055-.41.234-.274.351-.664.351-1.172v-7.383h-7.558zm-3.985 1.582V127h1.172v-7.383h-1.172zm2.871.645v5.039h5.391v-5.04h-5.39zm1.114.996h3.164v.996h-3.164v-.996zm0 1.933h3.164v1.114h-3.164v-1.114zM135 128v1h16v-1h-16z" fill="currentColor"/>
 </g>
 <g id="ime-chinese-traditional" transform="translate(154 -38)">
  <path d="M0 170h22v22H0z" fill="none"/>
  <path class="ColorScheme-Text" transform="translate(-154 60)" d="M160.02 113.465c-.313.703-.899 1.387-1.758 2.05l.82.645c.39-.273.762-.644 1.113-1.113h5.45v-.879h-4.864c.04-.117.098-.254.176-.41l-.937-.293zm7.148 0a9.114 9.114 0 0 1-1.875 3.34l.703.761.586-.703a6.784 6.784 0 0 0 1.23 1.524c-.625.508-1.367.957-2.226 1.347l.82.88a14.66 14.66 0 0 0 2.227-1.466 14.006 14.006 0 0 0 2.344 1.465l.761-.937c-.937-.39-1.738-.82-2.402-1.29a6.443 6.443 0 0 0 1.406-2.519h.82v-.996h-3.867l.47-1.113-.997-.293zm-7.266 2.285l-.351 1.7h-1.172v.937h.996l-.352 1.758h4.395v.351h.996l.059-.351H165v-.88h-.469l.117-.878h.938v-.938h-.82l.234-1.699h-5.098zm7.325.117h2.402c-.195.664-.547 1.29-1.055 1.875a10.674 10.674 0 0 1-1.406-1.758c.04-.039.059-.078.059-.117zm-6.446.703h.762c.195.235.39.528.586.88h-1.524l.176-.88zm1.7 0h1.464l-.117.88h-.762l-.586-.88zm-1.993 1.817h.762c.195.234.41.527.645.879h-1.583l.176-.88zm1.758 0h1.465l-.176.879h-.762a6.542 6.542 0 0 0-.527-.88zm5.684 1.933c-1.25.742-2.11 1.153-2.578 1.23-.704.118-1.954.196-3.75.235a8.109 8.109 0 0 0 1.875-.879l-.762-.527c-.781.547-1.758.976-2.93 1.289l.117.82c1.172 0 2.364-.039 3.575-.117-1.25.469-2.774.879-4.57 1.23l.175.938c1.758 0 3.535-.059 5.332-.176v1.23c0 .313-.117.47-.351.47-.43 0-.86-.06-1.29-.176l.176 1.054c.352.079.723.118 1.114.118.625 0 1.035-.098 1.23-.293.195-.196.293-.528.293-.996v-1.524a69.146 69.146 0 0 0 3.984-.469c.313.313.586.645.82.996l1.114-.527a14.92 14.92 0 0 0-2.813-2.578l-1.054.469c.43.273.82.586 1.172.937-1.563.313-3.965.528-7.207.645 2.617-.586 5.039-1.504 7.265-2.754l-.937-.645zm-.88 4.278l-.468.937c1.29.313 2.578.742 3.867 1.29l.469-.997c-1.211-.469-2.5-.879-3.867-1.23zm-4.687.117c-1.133.469-2.383.84-3.75 1.113l.703.996c1.485-.39 2.754-.898 3.809-1.523l-.762-.586zM157 128v1h16v-1h-16z" fill="currentColor"/>
 </g>
 <g id="ime-remind-off" transform="translate(22)">
  <path d="m198 88h22v22h-22z" fill="none"/>
  <path class="ColorScheme-Text" d="M209 91c-3.308 0-6 2.692-6 6a.5.5 0 0 0 .002.057c.014 2.321.86 3.509 1.62 4.394.764.893 1.378 1.442 1.378 3.049v2.5h2v1h2v-1h2v-2.5c0-1.607.634-2.304 1.39-3.25.75-.936 1.589-2.104 1.606-4.187A.5.5 0 0 0 215 97c0-3.308-2.692-6-6-6zm0 1c2.767 0 5 2.233 5 5 0 1.875-.647 2.696-1.39 3.625-.663.828-1.337 1.843-1.495 3.375h-4.234c-.164-1.504-.85-2.44-1.502-3.201-.735-.857-1.379-1.66-1.379-3.799 0-2.767 2.233-5 5-5zm-1.854 5.146l-1.5 1.5.708.708 1.146-1.147 1.146 1.147h.708l1.146-1.147 1.146 1.147.708-.708-1.5-1.5h-.708L209 98.293l-1.146-1.147h-.708z" fill="currentColor"/>
 </g>
 <g id="ime-handwriting-off" transform="translate(22)">
  <path class="ColorScheme-Text" transform="translate(-22)" d="M235.137 112.568l-3.272 12.207 1.07 3.739 2.795-2.703 3.27-12.207-.482-.131-3.381-.905zm.707 1.223l1.931.518-.26.968-1.931-.52.26-.966zm-.518 1.934l1.932.517-2.422 9.043-1.397 1.352-.535-1.87 2.422-9.042zm-11.004 3.726a5.65 5.65 0 0 0-.644.057.5.5 0 0 0 .115.994.5.5 0 0 0 .021-.002c.42-.058.71-.056.872-.03.16.027.164.058.152.042-.012-.017.006-.01-.006.092a2.344 2.344 0 0 1-.125.45c-.134.374-.351.824-.41 1.327-.03.251-.015.54.133.806.147.268.42.468.738.575.153.05.213.04.309.045.095.004.2.005.316.005.231 0 .504-.003.758.004.032.001.047.006.078.008-.09.056-.146.098-.252.158-.533.301-1.218.645-1.781 1.022-.282.188-.536.383-.737.621-.2.238-.37.576-.287.95.083.372.37.631.73.825.361.195.834.352 1.481.498 1.051.238 2.36.169 3.543.221 1.183.052 2.169.26 2.553.703a.5.5 0 1 0 .754-.656c-.756-.871-2.016-.992-3.262-1.047-1.246-.055-2.55-.01-3.367-.195-.596-.135-1-.28-1.227-.403-.227-.122-.235-.195-.228-.162.007.033-.019.023.076-.09a2.75 2.75 0 0 1 .527-.433c.482-.322 1.152-.663 1.717-.982a6.18 6.18 0 0 0 .752-.479c.214-.166.466-.33.477-.752.006-.246-.165-.47-.305-.564a1.105 1.105 0 0 0-.397-.16 4.22 4.22 0 0 0-.818-.083c-.282-.008-.562-.004-.783-.004-.11 0-.206 0-.272-.003a.45.45 0 0 1-.064-.008c.012.004.013.007.027.011-.05-.016-.047-.015-.027-.011-.114-.043-.142-.077-.154-.098-.013-.023-.03-.08-.016-.205.03-.25.206-.675.36-1.105.076-.216.148-.436.175-.678.028-.242.006-.535-.176-.787-.181-.252-.478-.39-.798-.444a2.832 2.832 0 0 0-.528-.033z" fill="currentColor"/>
  <path d="m198 110h22v22h-22z" fill="none" stroke-linecap="round"/>
  <path d="m198 110h22v22h-22z" fill="none" stroke-linecap="round"/>
 </g>
 <g id="ime-remind-on">
  <path class="ColorScheme-Text" d="M209 91c-3.308 0-6 2.692-6 6a.5.5 0 0 0 .002.057c.014 2.321.86 3.509 1.62 4.394.764.893 1.378 1.442 1.378 3.049v2.5h2v1h2v-1h2v-2.5c0-1.607.634-2.304 1.39-3.25.75-.936 1.589-2.104 1.606-4.188A.5.5 0 0 0 215 97c0-3.308-2.692-6-6-6zm0 1c2.767 0 5 2.233 5 5 0 1.875-.647 2.696-1.39 3.625-.663.828-1.337 1.843-1.495 3.375h-4.234c-.164-1.504-.85-2.44-1.502-3.201-.735-.857-1.379-1.66-1.379-3.799 0-2.767 2.233-5 5-5zm-1.854 5.146l-1.5 1.5.708.708 1.146-1.147 1.146 1.147h.708l1.146-1.147 1.146 1.147.708-.708-1.5-1.5h-.708L209 98.293l-1.146-1.147h-.708z" fill="currentColor"/>
  <path d="m198 88h22v22h-22z" fill="none"/>
  <ellipse cx="202.5" cy="92.5" rx="2.5" ry="2.5" fill="#11d116" stroke-linecap="round"/>
 </g>
 <g id="ime-handwriting-on">
  <path class="ColorScheme-Text" d="M213.137 112.568l-3.272 12.207 1.07 3.739 2.795-2.703 3.27-12.207-.482-.131-3.381-.905zm.707 1.223l1.931.518-.26.968-1.931-.52.26-.966zm-.518 1.934l1.932.517-2.422 9.043-1.397 1.352-.535-1.87 2.422-9.042zm-11.004 3.726a5.594 5.594 0 0 0-.644.057.5.5 0 1 0 .136.992c.42-.058.71-.056.872-.03.16.027.164.058.152.042-.012-.017.006-.01-.006.091a2.344 2.344 0 0 1-.125.452c-.134.373-.351.823-.41 1.326-.03.251-.015.54.133.806.147.268.42.468.738.575.152.05.213.04.308.045.096.004.201.006.317.006.231 0 .503-.003.758.004.032 0 .046.006.078.008-.091.055-.146.098-.252.158-.533.3-1.218.644-1.781 1.021-.282.189-.537.383-.737.621-.2.239-.37.576-.287.95.082.373.37.631.73.826.361.194.834.351 1.481.498 1.051.238 2.36.168 3.543.22 1.183.053 2.168.26 2.553.704a.5.5 0 1 0 .754-.657c-.756-.87-2.016-.991-3.262-1.047-1.246-.055-2.55-.01-3.367-.195-.596-.135-1-.28-1.227-.402-.227-.123-.236-.195-.228-.162.007.033-.019.023.076-.09a2.75 2.75 0 0 1 .527-.434c.481-.322 1.152-.663 1.717-.982a6.18 6.18 0 0 0 .752-.479c.214-.166.466-.33.477-.752.006-.246-.165-.47-.305-.564a1.105 1.105 0 0 0-.397-.16 4.22 4.22 0 0 0-.818-.082c-.282-.008-.563-.004-.783-.004-.11 0-.207-.001-.272-.004a.391.391 0 0 1-.064-.008c.012.005.013.007.027.012-.05-.017-.047-.016-.027-.012-.114-.043-.143-.076-.154-.098-.014-.023-.03-.08-.016-.205.03-.25.205-.675.36-1.105.076-.216.148-.436.175-.678.027-.242.006-.535-.176-.787-.181-.252-.478-.39-.799-.444a2.829 2.829 0 0 0-.527-.033z" fill="currentColor"/>
  <path d="m198 110h22v22h-22z" fill="none" stroke-linecap="round"/>
  <path d="m198 110h22v22h-22z" fill="none" stroke-linecap="round"/>
  <ellipse cx="202.5" cy="114.5" rx="2.5" ry="2.5" fill="#11d116" stroke-linecap="round"/>
 </g>
 <g id="ime-wubipinyin" transform="translate(176)">
  <path class="ColorScheme-Text" transform="translate(-25 -95)" d="M28 98.002V114h9v1h8v-10h-1v-6.998zM29 99h14v6h-7.764l.666-3H40v-1h-9v1h3.877l-.666 3H32v1h1.988l-.888 4H31v1h6v2h-8zm6.014 7H37v4h-2.877zM39 107h.5c.75 0 1.532-.017 2.22.213.345.115.677.305.917.613S43 108.542 43 109c0 .458-.124.866-.363 1.174-.24.308-.572.498-.916.613-.534.178-1.134.16-1.721.164V113h-1zm1 1.043v1.914c.528-.012 1.083-.012 1.404-.12.218-.072.355-.163.444-.276.088-.114.152-.27.152-.561 0-.292-.064-.447-.152-.56-.089-.114-.226-.205-.444-.278-.321-.107-.876-.107-1.404-.119z" fill="currentColor"/>
  <path d="M0 0h22v22H0z" fill="none"/>
 </g>
</svg>
