<svg xmlns="http://www.w3.org/2000/svg" version="1.1" id="svg3869" height="22" width="22"><defs id="defs3871"><style id="current-color-scheme" type="text/css">.ColorScheme-Text{color:#dfdfdf}</style></defs><g transform="translate(-326 -534.362)" id="kalarm"><path id="rect4178" opacity="1" fill="none" fill-opacity="1" stroke="none" stroke-width=".1" stroke-linecap="square" stroke-linejoin="miter" stroke-miterlimit="4" stroke-dasharray="none" stroke-dashoffset="0" stroke-opacity="1" d="M326 534.362h22v22h-22z"/><path class="ColorScheme-Text" d="M337 537.362a1.5 1.5 0 0 0-1.5 1.5 1.5 1.5 0 0 0 .168.686 5 5 0 0 0-3.668 4.814 3.5 6 0 0 1-3 5.932V551.362h11.088a1.5 1.5 0 0 0-.088.5 1.5 1.5 0 0 0 1.5 1.5 1.5 1.5 0 0 0 1.5-1.5 1.5 1.5 0 0 0-.088-.5H345V550.294a3.5 6 0 0 1-3-5.932 5 5 0 0 0-3.666-4.818 1.5 1.5 0 0 0 .166-.682 1.5 1.5 0 0 0-1.5-1.5zm0 3a4 4 0 0 1 4 4 4.5 7 0 0 0 2.195 6h-12.39a4.5 7 0 0 0 2.195-6 4 4 0 0 1 4-4z" id="path4183" fill="currentColor" fill-opacity="1" stroke="none"/></g><g transform="translate(-304 -534.362)" id="kalarm-disabled"><path id="rect4178-6" opacity="1" fill="none" fill-opacity="1" stroke="none" stroke-width=".1" stroke-linecap="square" stroke-linejoin="miter" stroke-miterlimit="4" stroke-dasharray="none" stroke-dashoffset="0" stroke-opacity="1" d="M326 534.362h22v22h-22z"/><path id="path4183-7" class="ColorScheme-Text" transform="translate(304 534.362)" d="M33 3a1.5 1.5 0 0 0-1.5 1.5 1.5 1.5 0 0 0 .168.686A5 5 0 0 0 28 10a3.5 6 0 0 1-3 5.932V17h10v-1h-8.195A4.5 7 0 0 0 29 10a4 4 0 0 1 4-4 4 4 0 0 1 4 4 4.5 7 0 0 0 .443 3h1.03A3.5 6 0 0 1 38 10a5 5 0 0 0-3.666-4.818A1.5 1.5 0 0 0 34.5 4.5 1.5 1.5 0 0 0 33 3z" fill="currentColor" fill-opacity="1" stroke="none"/><path id="rect4145" transform="translate(304 534.362)" d="M36 14v6h2v-6h-2zm3 0v6h2v-6h-2z" class="ColorScheme-Text" fill="currentColor" fill-opacity=".6" stroke="none"/></g><g transform="translate(-282 -534.362)" id="kalarm-partdisabled"><path id="rect4178-6-3" opacity="1" fill="none" fill-opacity="1" stroke="none" stroke-width=".1" stroke-linecap="square" stroke-linejoin="miter" stroke-miterlimit="4" stroke-dasharray="none" stroke-dashoffset="0" stroke-opacity="1" d="M326 534.362h22v22h-22z"/><path id="path17" class="ColorScheme-Text" transform="translate(282 534.362)" d="M55 3a1.5 1.5 0 0 0-1.332 2.186A5 5 0 0 0 50 10c-.002 2.98-1.28 5.506-3 5.932V17h10v-1h-8.195c1.359-1.26 2.192-3.539 2.195-6a4 4 0 1 1 8 0 10.34 10.34 0 0 0 .443 3h1.03A9.494 9.494 0 0 1 60 10a5 5 0 0 0-3.666-4.818A1.5 1.5 0 0 0 55 3z" fill="currentColor" fill-opacity="1" stroke="none"/><path id="path19" d="M340 548.362v6h5v-6z" class="ColorScheme-Text" fill="currentColor" fill-opacity=".6" stroke="none"/></g></svg>