<svg id="svg3869" width="32" height="32" version="1.1" xmlns="http://www.w3.org/2000/svg">
 <defs id="defs3871">
  <style id="current-color-scheme" type="text/css">.ColorScheme-Text{color:#dfdfdf}</style>
 </defs>
 <g id="kdeconnect">
  <path id="rect894" d="m10 3c-1.108 0-2 0.892-2 2v22c0 1.108 0.892 2 2 2h12c1.108 0 2-0.892 2-2v-22c0-1.108-0.892-2-2-2zm0 1h12c0.554 0 1 0.446 1 1v22c0 0.554-0.446 1-1 1h-12c-0.554 0-1-0.446-1-1v-22c0-0.554 0.446-1 1-1z" fill="#dfdfdf"/>
  <rect id="rect5" width="32" height="32" rx="0" ry="0" opacity="0"/>
  <rect id="rect903" x="13" y="3" width="6" height="2" rx="1" ry="1" fill="#dfdfdf"/>
  <rect id="rect905" x="12" y="26" width="8" height="1" rx=".537" ry="1" fill="#dfdfdf" opacity=".5"/>
  <path id="path864" d="m15.89 12.502c-0.06499 0.0065-0.14998 0.017-0.21846 0.04699 0 0-0.04449 0.14798-0.07849 0.51541-0.04149 0.44992-0.21396 0.5649-0.34344 0.65639-0.12998 0.09148-0.16997 0.11848-0.21896 0.14048-0.25396 0.04249-0.48042 0.06999-0.82786-0.21846-0.28395-0.23596-0.40593-0.31245-0.40593-0.31245-0.13998 0.05499-0.26596 0.20297-0.26596 0.20297s-0.14748 0.12498-0.20297 0.26546c0 0 0.07649 0.12248 0.31245 0.40643 0.28845 0.34694 0.26146 0.5739 0.21896 0.82786-0.022 0.04849-0.04899 0.08899-0.14098 0.21846-0.09148 0.12998-0.20646 0.30245-0.65589 0.34394-0.36744 0.03399-0.49992 0.07799-0.49992 0.07799-0.05999 0.13848-0.06249 0.32794-0.06249 0.32794s0.0025 0.18997 0.06249 0.32844c0 0 0.13248 0.04399 0.49992 0.07799 0.44942 0.04149 0.5639 0.21396 0.65589 0.34344 0.09199 0.12998 0.11898 0.16997 0.14098 0.21896 0.04249 0.25396 0.06999 0.48092-0.21896 0.82786-0.23596 0.28395-0.31245 0.40643-0.31245 0.40643 0.05549 0.13998 0.20297 0.26496 0.20297 0.26496s0.12498 0.14848 0.26596 0.20347c0 0 0.12198-0.07649 0.40593-0.31245 0.34744-0.28845 0.5739-0.26096 0.82786-0.21846 0.04849 0.022 0.08898 0.04849 0.21896 0.13998 0.12998 0.09198 0.30195 0.20696 0.34344 0.65639 0.03399 0.36744 0.07849 0.49992 0.07849 0.49992 0.13848 0.05999 0.32794 0.06249 0.32794 0.06249s0.18997-0.0025 0.32794-0.06249c0 0 0.04449-0.13198 0.07799-0.49992 0.04149-0.44942 0.21246-0.5689 0.42193-0.71838v-0.0155c0.04999-0.0185 0.09198-0.04049 0.14048-0.06249 0.25396-0.04299 0.48092-0.06999 0.82836 0.21846 0.28345 0.23596 0.40593 0.31245 0.40593 0.31245 0.14048-0.05499 0.26546-0.20297 0.26546-0.20297s0.14798-0.12498 0.20347-0.26546c0 0-0.07649-0.12248-0.31245-0.40643-0.28895-0.34694-0.26146-0.5739-0.21896-0.82786 0.022-0.04849 0.04399-0.09098 0.06249-0.14048h0.0155c0.14998-0.20996 0.26946-0.37994 0.71888-0.42193 0.36744-0.03399 0.51541-0.07799 0.51541-0.07799 0.05999-0.13848 0.04699-0.32844 0.04699-0.32844s0.013-0.18997-0.04699-0.32794c0 0-0.14798-0.04399-0.51541-0.07799-0.44992-0.04149-0.5689-0.21196-0.71888-0.42193-0.0185-0.04999-0.05599-0.09199-0.07799-0.14048-0.04249-0.25396-0.06999-0.48092 0.21896-0.82786 0.23546-0.28395 0.31245-0.40643 0.31245-0.40643-0.05549-0.13998-0.20347-0.26546-0.20347-0.26546s-0.12498-0.14798-0.26496-0.20297c0 0-0.12248 0.07649-0.40643 0.31245-0.34744 0.28845-0.5649 0.25996-0.87485 0.12498-0.30995-0.13498-0.47442-0.25346-0.51591-0.70338-0.03399-0.36744-0.07799-0.51491-0.07799-0.51491-0.13798-0.06099-0.32794-0.04799-0.32794-0.04799s-0.04499-6e-3 -0.10948 0zm0.10948 2.4996a0.99983 0.99983 0 1 1 0 1.9997 0.99983 0.99983 0 0 1 0-1.9997z" fill="#dfdfdf" stroke-width=".49992"/>
 </g>
 <g id="22-22-kdeconnect">
  <path id="path15" d="m0 34h22v22h-22z" opacity="0"/>
  <path id="rect834" d="m7 35c-1.108 0-2 0.892-2 2v16c0 1.108 0.892 2 2 2h8c1.108 0 2-0.892 2-2v-16c0-1.108-0.892-2-2-2h-6zm0 1h1c0 0.554 0.446 1 1 1h4c0.554 0 1-0.446 1-1h1c0.554 0 1 0.446 1 1v16c0 0.554-0.446 1-1 1h-8c-0.554 0-1-0.446-1-1v-16c0-0.554 0.446-1 1-1z" fill="#dfdfdf"/>
  <path id="rect844" d="m8.5 52h5c0.277 0 0.5 0.223 0.5 0.5s-0.223 0.5-0.5 0.5h-5c-0.277 0-0.5-0.223-0.5-0.5s0.223-0.5 0.5-0.5z" fill="#dfdfdf" opacity=".5"/>
  <path id="path875" d="m10.89 41.502c-0.06499 0.0065-0.14998 0.017-0.21846 0.04699 0 0-0.04449 0.14798-0.07849 0.51541-0.04149 0.44992-0.21396 0.5649-0.34344 0.65639-0.12998 0.09148-0.16997 0.11848-0.21896 0.14048-0.25396 0.04249-0.48042 0.06999-0.82786-0.21846-0.28395-0.23596-0.40593-0.31245-0.40593-0.31245-0.13998 0.05499-0.26596 0.20297-0.26596 0.20297s-0.14748 0.12498-0.20297 0.26546c0 0 0.07649 0.12248 0.31245 0.40643 0.28845 0.34694 0.26146 0.5739 0.21896 0.82786-0.022 0.04849-0.04899 0.08899-0.14098 0.21846-0.09148 0.12998-0.20646 0.30245-0.65589 0.34394-0.36744 0.03399-0.49992 0.07799-0.49992 0.07799-0.05999 0.13848-0.06249 0.32794-0.06249 0.32794s0.0025 0.18997 0.06249 0.32844c0 0 0.13248 0.04399 0.49992 0.07799 0.44942 0.04149 0.5639 0.21396 0.65589 0.34344 0.09199 0.12998 0.11898 0.16997 0.14098 0.21896 0.04249 0.25396 0.06999 0.48092-0.21896 0.82786-0.23596 0.28395-0.31245 0.40643-0.31245 0.40643 0.05549 0.13998 0.20297 0.26496 0.20297 0.26496s0.12498 0.14848 0.26596 0.20347c0 0 0.12198-0.07649 0.40593-0.31245 0.34744-0.28845 0.5739-0.26096 0.82786-0.21846 0.04849 0.022 0.08898 0.04849 0.21896 0.13998 0.12998 0.09198 0.30195 0.20696 0.34344 0.65639 0.03399 0.36744 0.07849 0.49992 0.07849 0.49992 0.13848 0.05999 0.32794 0.06249 0.32794 0.06249s0.18997-0.0025 0.32794-0.06249c0 0 0.04449-0.13198 0.07799-0.49992 0.04149-0.44942 0.21246-0.5689 0.42193-0.71838v-0.0155c0.04999-0.0185 0.09198-0.04049 0.14048-0.06249 0.25396-0.04299 0.48092-0.06999 0.82836 0.21846 0.28345 0.23596 0.40593 0.31245 0.40593 0.31245 0.14048-0.05499 0.26546-0.20297 0.26546-0.20297s0.14798-0.12498 0.20347-0.26546c0 0-0.07649-0.12248-0.31245-0.40643-0.28895-0.34694-0.26146-0.5739-0.21896-0.82786 0.022-0.04849 0.04399-0.09098 0.06249-0.14048h0.0155c0.14998-0.20996 0.26946-0.37994 0.71888-0.42193 0.36744-0.03399 0.51541-0.07799 0.51541-0.07799 0.05999-0.13848 0.04699-0.32844 0.04699-0.32844s0.013-0.18997-0.04699-0.32794c0 0-0.14798-0.04399-0.51541-0.07799-0.44992-0.04149-0.5689-0.21196-0.71888-0.42193-0.0185-0.04999-0.05599-0.09199-0.07799-0.14048-0.04249-0.25396-0.06999-0.48092 0.21896-0.82786 0.23546-0.28395 0.31245-0.40643 0.31245-0.40643-0.05549-0.13998-0.20347-0.26546-0.20347-0.26546s-0.12498-0.14798-0.26496-0.20297c0 0-0.12248 0.07649-0.40643 0.31245-0.34744 0.28845-0.5649 0.25996-0.87485 0.12498-0.30995-0.13498-0.47442-0.25346-0.51591-0.70338-0.03399-0.36744-0.07799-0.51491-0.07799-0.51491-0.13798-0.06099-0.32794-0.04799-0.32794-0.04799s-0.04499-6e-3 -0.10948 0zm0.10948 2.4996a0.99983 0.99983 0 1 1 0 1.9997 0.99983 0.99983 0 0 1 0-1.9997z" fill="#dfdfdf" stroke-width=".49992"/>
 </g>
 <g id="16-16-kdeconnect">
  <path id="rect872" d="m5 61c-1.108 0-2 0.892-2 2v10c0 1.108 0.892 2 2 2h6c1.108 0 2-0.892 2-2v-10c0-1.108-0.892-2-2-2zm0 1h6c0.554 0 1 0.446 1 1v10c0 0.554-0.446 1-1 1h-6c-0.554 0-1-0.446-1-1v-10c0-0.554 0.446-1 1-1z" fill="#dfdfdf"/>
  <rect id="rect10" y="60" width="16" height="16" rx="0" ry="0" opacity="0"/>
  <rect id="rect882" x="6" y="61" width="4" height="2" rx="1" ry="1" fill="#dfdfdf"/>
  <path id="rect884" d="m6.6375 72h2.7251c0.35315 0 0.63746 0.223 0.63746 0.5s-0.28431 0.5-0.63746 0.5h-2.7251c-0.35315 0-0.63746-0.223-0.63746-0.5s0.28431-0.5 0.63746-0.5z" fill="#dfdfdf" opacity=".5"/>
  <path id="path877" d="m7.8899 64.502c-0.06499 0.0065-0.14998 0.017-0.21846 0.04699 0 0-0.04449 0.14798-0.07849 0.51541-0.04149 0.44992-0.21396 0.5649-0.34344 0.65639-0.12998 0.09148-0.16997 0.11848-0.21896 0.14048-0.25396 0.04249-0.48042 0.06999-0.82786-0.21846-0.28395-0.23596-0.40593-0.31245-0.40593-0.31245-0.13998 0.05499-0.26596 0.20297-0.26596 0.20297s-0.14748 0.12498-0.20297 0.26546c0 0 0.07649 0.12248 0.31245 0.40643 0.28845 0.34694 0.26146 0.5739 0.21896 0.82786-0.022 0.04849-0.04899 0.08899-0.14098 0.21846-0.09148 0.12998-0.20646 0.30245-0.65589 0.34394-0.36744 0.03399-0.49992 0.07799-0.49992 0.07799-0.05999 0.13848-0.06249 0.32794-0.06249 0.32794s0.0025 0.18997 0.06249 0.32844c0 0 0.13248 0.04399 0.49992 0.07799 0.44942 0.04149 0.5639 0.21396 0.65589 0.34344 0.09199 0.12998 0.11898 0.16997 0.14098 0.21896 0.04249 0.25396 0.06999 0.48092-0.21896 0.82786-0.23596 0.28395-0.31245 0.40643-0.31245 0.40643 0.05549 0.13998 0.20297 0.26496 0.20297 0.26496s0.12498 0.14848 0.26596 0.20347c0 0 0.12198-0.07649 0.40593-0.31245 0.34744-0.28845 0.5739-0.26096 0.82786-0.21846 0.04849 0.022 0.08898 0.04849 0.21896 0.13998 0.12998 0.09198 0.30195 0.20696 0.34344 0.65639 0.03399 0.36744 0.07849 0.49992 0.07849 0.49992 0.13848 0.05999 0.32794 0.06249 0.32794 0.06249s0.18997-0.0025 0.32794-0.06249c0 0 0.04449-0.13198 0.07799-0.49992 0.04149-0.44942 0.21246-0.5689 0.42193-0.71838v-0.0155c0.04999-0.0185 0.09198-0.04049 0.14048-0.06249 0.25396-0.04299 0.48092-0.06999 0.82836 0.21846 0.28345 0.23596 0.40593 0.31245 0.40593 0.31245 0.14048-0.05499 0.26546-0.20297 0.26546-0.20297s0.14798-0.12498 0.20347-0.26546c0 0-0.07649-0.12248-0.31245-0.40643-0.28895-0.34694-0.26146-0.5739-0.21896-0.82786 0.022-0.04849 0.04399-0.09098 0.06249-0.14048h0.0155c0.14998-0.20996 0.26946-0.37994 0.71888-0.42193 0.36744-0.03399 0.51541-0.07799 0.51541-0.07799 0.05999-0.13848 0.04699-0.32844 0.04699-0.32844s0.013-0.18997-0.04699-0.32794c0 0-0.14798-0.04399-0.51541-0.07799-0.44992-0.04149-0.5689-0.21196-0.71888-0.42193-0.0185-0.04999-0.05599-0.09199-0.07799-0.14048-0.04249-0.25396-0.06999-0.48092 0.21896-0.82786 0.23546-0.28395 0.31245-0.40643 0.31245-0.40643-0.05549-0.13998-0.20347-0.26546-0.20347-0.26546s-0.12498-0.14798-0.26496-0.20297c0 0-0.12248 0.07649-0.40643 0.31245-0.34744 0.28845-0.5649 0.25996-0.87485 0.12498-0.30995-0.13498-0.47442-0.25346-0.51591-0.70338-0.03399-0.36744-0.07799-0.51491-0.07799-0.51491-0.13798-0.06099-0.32794-0.04799-0.32794-0.04799s-0.04499-6e-3 -0.10948 0zm0.10948 2.4996a0.99983 0.99983 0 1 1 0 1.9997 0.99983 0.99983 0 0 1 0-1.9997z" fill="#dfdfdf" stroke-width=".49992"/>
 </g>
</svg>
