<svg id="svg2" width="54" height="32" version="1.1" xmlns="http://www.w3.org/2000/svg">
 <defs id="defs4">
  <style id="current-color-scheme" type="text/css">.ColorScheme-Text{color:#dfdfdf}</style>
 </defs>
 <g id="keyboard-layout" transform="matrix(1.4546 0 0 1.4546 22 0)">
  <path id="rect4215" d="M0 0h22v22H0z" fill="none" fill-rule="evenodd"/>
  <path id="path4217" class="ColorScheme-Text" transform="matrix(.6875 0 0 .6875 -15.125 22)" d="M47-28c0 .84-.093 1.44-.248 1.846-.155.406-.348.62-.629.785C45.561-25.041 44.5-25 43-25c-1.5 0-2.936-.027-4.1.555a3.102 3.102 0 0 0-1.408 1.408c-.273.546-.425 1.222-.47 2.037H25v17h26v-17H38.021c.044-.685.171-1.207.362-1.588.235-.47.549-.758.967-.967C40.186-23.973 41.5-24 43-24s2.689.041 3.627-.506c.469-.273.838-.714 1.059-1.293.22-.578.314-1.29.314-2.201h-1zm-21 8h24v2H26v-2zm0 3h24v12H26v-12zm1 2v2h1v-2h-1zm2 0v2h2v-2h-2zm3 0v2h2v-2h-2zm3 0v2h2v-2h-2zm3 0v2h2v-2h-2zm3 0v2h2v-2h-2zm3 0v2h2v-2h-2zm3 0v2h2v-2h-2zm-20 3v2h3v-2h-3zm4 0v2h2v-2h-2zm3 0v2h2v-2h-2zm3 0v2h2v-2h-2zm3 0v2h2v-2h-2zm3 0v2h2v-2h-2zm3 0v2h3v-2h-3zM27-9v2h2v-2h-2zm3 0v2h2v-2h-2zm3 0v2h10v-2H33zm11 0v2h2v-2h-2zm3 0v2h2v-2h-2z" fill="currentColor"/>
 </g>
 <g id="22-22-keyboard-layout" transform="translate(-152.52 -58.63)">
  <path id="path206" d="m154 66h22v22h-22z" fill="none"/>
  <path id="path2" d="m160 70c-1.108 0-2 0.892-2 2v10c0 1.108 0.892 2 2 2h10c1.108 0 2-0.892 2-2v-10c0-1.108-0.892-2-2-2zm0 1h10c0.554 0 1 0.446 1 1v9c0 0.554-0.446 1-1 1h-10c-0.554 0-1-0.446-1-1v-9c0-0.554 0.446-1 1-1zm6.656 3.994c-0.79 0-1.548 0.257-2.28 0.75l0.374 0.85c0.312-0.21 0.616-0.36 0.906-0.469 0.298-0.116 0.571-0.156 0.876-0.156 0.449 0 0.791 0.104 1.03 0.344 0.24 0.232 0.438 0.548 0.438 0.968v0.307c-0.21-0.08-0.52-0.144-0.781-0.188a4.015 4.015 0 0 0-0.781-0.062c-0.356 0-0.672 0.038-0.969 0.125-0.29 0.087-0.564 0.215-0.781 0.375-0.21 0.16-0.353 0.345-0.469 0.562-0.116 0.218-0.188 0.55-0.188 0.819 0 0.254 0.063 0.501 0.157 0.719 0.101 0.217 0.208 0.402 0.375 0.562 0.174 0.16 0.393 0.28 0.625 0.375 0.239 0.087 0.505 0.125 0.781 0.125a2.73 2.73 0 0 0 1.188-0.25c0.377-0.181 0.683-0.448 0.937-0.781l0.031 0.344a0.743 0.743 0 0 0 0.219 0.437c0.123 0.109 0.299 0.173 0.531 0.188 0.08 0 0.187 6e-3 0.281 0 0.102-8e-3 0.197-0.01 0.313-0.032v-1.031c-0.124-7e-3 -0.304-0.036-0.354-0.094a0.497 0.497 0 0 1-0.115-0.312v-2.131c0-0.747-0.096-1.32-0.531-1.719s-1.03-0.625-1.813-0.625zm-0.09 3.07c0.218 0 0.608 0.05 0.833 0.094 0.232 0.044 0.398 0.106 0.601 0.186v0.75c0 0.145-0.129 0.307-0.281 0.437-0.427 0.38-0.94 0.43-1.438 0.469-0.326 0-0.734 0.018-0.944-0.171-0.21-0.196-0.337-0.421-0.337-0.704 0-0.305 0.295-0.569 0.563-0.75a1.67 1.67 0 0 1 1.004-0.31z" color="#000000" fill="#dfdfdf" overflow="visible"/>
 </g>
</svg>
