<svg width="22" height="22" version="1.1" xmlns="http://www.w3.org/2000/svg">
 <g stroke-linecap="round">
  <path d="M0 0h22v22H0z" fill="none" stroke-linejoin="round"/>
  <path d="M9 3C5.778 3 2.252 5.066 2.252 5.066a.5.5 0 0 0 .496.87S6.222 4 9 4c1.361 0 3.217.6 5.092 1.225C15.967 5.85 17.862 6.5 19.5 6.5a.5.5 0 1 0 0-1c-1.361 0-3.217-.598-5.092-1.223C12.533 3.652 10.638 3 9 3zm.5 4a2.806 2.806 0 0 0-.264.016C5.045 7.182 2.1 11.2 2.1 11.2a.5.5 0 0 0 .152.735s1.308.744 3.248 1.34V18.5a.5.5 0 1 0 1 0v-4.957c.69.169 1.425.305 2.205.38.116.138.643.757 1.441 1.556.892.891 2.027 1.916 3.131 2.468 2.048 1.024 3.587 1.405 4.864 1.033.587-.17 1.042-.396 1.37-.734.33-.338.489-.793.489-1.246 0-.54-.272-1.008-.63-1.367-.36-.36-.83-.633-1.37-.633-.521 0-.995.243-1.361.596-.367.353-.639.842-.639 1.404a.5.5 0 1 0 1 0c0-.227.125-.486.332-.686.207-.199.482-.314.668-.314.167 0 .448.126.662.34.214.214.338.493.338.66 0 .254-.053.394-.205.55-.152.157-.446.329-.936.471-.877.256-2.184.01-4.136-.968-.896-.448-2.011-1.423-2.87-2.282-.297-.298-.51-.533-.734-.775 4.137-.049 6.725-2.583 9.54-3.521a.5.5 0 0 0-.077-.967c-2.96-.493-4.391-1.094-5.646-1.596-1.193-.477-2.286-.86-4.157-.898A2.806 2.806 0 0 0 9.5 7zm2.328 1.242c.603.147 1.126.354 1.736.598 1.001.4 2.427.885 4.444 1.328C15.478 11.339 13.22 13 10 13c-3.291 0-5.854-1.257-6.633-1.66.427-.51 1.742-1.988 3.63-2.795a2.806 2.806 0 0 0-.302 1.26A2.806 2.806 0 0 0 9.5 12.61a2.806 2.806 0 0 0 2.805-2.806 2.806 2.806 0 0 0-.477-1.563z" color="currentColor" fill="#dfdfdf" fill-rule="evenodd" font-family="sans-serif" font-weight="400" overflow="visible" style="block-progression:tb;isolation:auto;mix-blend-mode:normal;text-decoration-color:#000;text-decoration-line:none;text-decoration-style:solid;text-indent:0;text-transform:none;white-space:normal"/>
 </g>
</svg>
