<svg id="svg4153" width="32" height="32" version="1.1" xmlns="http://www.w3.org/2000/svg">
 <defs id="defs4157">
  <style id="current-color-scheme" type="text/css">.ColorScheme-Text{color:#dfdfdf}</style>
 </defs>
 <g id="klipper">
  <path id="rect4202" d="m16 4c-1.662 0-3 1.338-3 3h-2-3-2v21h20v-21h-3-2-2c0-1.662-1.338-3-3-3zm0 2a1 1 0 0 1 1 1 1 1 0 0 1-1 1 1 1 0 0 1-1-1 1 1 0 0 1 1-1zm-9 2h1 3 2v1h-1c-1.108 0-2 0.892-2 2h12c0-1.108-0.892-2-2-2h-1v-1h2 2 2v19h-18v-19zm3 7v1h12v-1h-12zm0 3v1h12v-1h-12zm0 3v1h12v-1h-12zm0 3v1h7v-1h-7z" color="#dfdfdf" fill="currentColor"/>
  <path id="rect4230" d="M0 0h32v32H0z" fill="none"/>
 </g>
 <g id="22-22-klipper">
  <path id="rect4148" d="m49 5h22v22h-22z" fill="none"/>
  <path id="path7" d="m60 8a2 2 0 0 0-2 2h-4v13h12v-13h-4c0-0.138-5e-3 -0.276-0.031-0.406a2.008 2.008 0 0 0-1.969-1.594zm0 1c0.414 0 0.754 0.266 0.906 0.625a0.94 0.94 0 0 1 0.094 0.375 1 1 0 1 1-1-1zm-5 2h3v1s-1 0-1 1h6c0-0.75-0.563-0.953-0.844-1h-0.156v-1h3v11h-10v-10.5z" color="#000000" fill="#dfdfdf" overflow="visible"/>
 </g>
 <g id="16-16-klipper" transform="translate(0 -2.5)">
  <path id="path834" d="m81 10.5h16v16h-16z" fill="none"/>
  <path id="path836" d="m89 10.5a2 2 0 0 0-2 2h-4v13h12v-13h-4c0-0.138-5e-3 -0.276-0.031-0.406a2.008 2.008 0 0 0-1.969-1.594zm0 1c0.414 0 0.754 0.266 0.906 0.625a0.94 0.94 0 0 1 0.094 0.375 1 1 0 1 1-1-1zm-5 2h3v1s-1 0-1 1h6c0-0.75-0.563-0.953-0.844-1h-0.156v-1h3v11h-10v-10.5z" color="#000000" fill="#dfdfdf" overflow="visible"/>
 </g>
</svg>
