<svg xmlns="http://www.w3.org/2000/svg" id="svg4153" version="1.1" width="22" height="22"><defs id="defs4157"><style type="text/css" id="current-color-scheme"></style></defs><g id="kopete" fill-opacity="1" stroke="none"><path id="rect4144" d="M3 3v12h3v4l4-4h9V3zm1 1h14v10H4zm9.234.53l-.238.476A5 5 0 0 1 15 9a5 5 0 0 1-2.004 3.994l.238.473A5 5 0 0 0 16 9a5 5 0 0 0-2.766-4.47zM6 5v2h2V5zm3 3v2h4V8zm-3 3v2h2v-2z" opacity="1" fill="currentColor" color="#dfdfdf"/><path id="rect4186" opacity="1" fill="none" d="M0 0h22v22H0z"/></g></svg>