<svg id="svg4153" width="22" height="22" version="1.1" xmlns="http://www.w3.org/2000/svg">
 <defs id="defs4157">
  <style id="current-color-scheme" type="text/css">.ColorScheme-Text{color:#dfdfdf}</style>
 </defs>
 <g id="mail-unread">
  <path id="rect4193" d="m0 0h22v22h-22z" fill="none"/>
  <path id="path820" d="m5.5 6c-0.831 0-1.5 0.669-1.5 1.5v7c0 0.831 0.669 1.5 1.5 1.5h11c0.831 0 1.5-0.669 1.5-1.5v-7c0-0.831-0.669-1.5-1.5-1.5zm0.475 1h10.048l-5.023 3.871zm11.025 0.512v6.988c0 0.277-0.223 0.5-0.5 0.5h-11a0.499 0.499 0 0 1-0.5-0.5v-6.986l5.691 4.382c0.016 0.013 0.035 0.016 0.051 0.026a0.56 0.56 0 0 0 0.17 0.064c0.03 6e-3 0.058 6e-3 0.088 6e-3s0.059 0 0.088-6e-3a0.49 0.49 0 0 0 0.115-0.037c0.019-9e-3 0.037-0.016 0.055-0.027 0.016-0.01 0.035-0.013 0.05-0.026z" color="#000000" fill="#dfdfdf" overflow="visible" style="isolation:auto;mix-blend-mode:normal"/>
 </g>
 <g id="mail-unread-new">
  <path id="rect4178" d="m27 0h22v22h-22z" fill="none"/>
  <g id="g843" transform="translate(30.027,2.955)" color="#5d656b" fill="#dfdfdf">
   <path id="path839" d="m2.498 3.052c-0.83 0-1.5 0.669-1.5 1.5v7c0 0.831 0.67 1.5 1.5 1.5h6.5v-1h-6.5a0.499 0.499 0 0 1-0.5-0.5v-6.986l5.692 4.382c0.015 0.013 0.034 0.016 0.05 0.026a0.56 0.56 0 0 0 0.17 0.064c0.03 6e-3 0.058 6e-3 0.088 6e-3s0.059 0 0.088-6e-3a0.489 0.489 0 0 0 0.115-0.037c0.02-9e-3 0.037-0.016 0.055-0.027 0.017-0.01 0.035-0.013 0.05-0.026l5.692-4.384v4.488h1v-4.5c0-0.831-0.669-1.5-1.5-1.5zm0.475 1h10.049l-5.024 3.871z" overflow="visible" style="isolation:auto;mix-blend-mode:normal"/>
   <path id="path841" d="m11.998 10.055v1.996h-2v1.998h2v1.996h2v-1.996h2v-1.998h-2v-1.996z" overflow="visible"/>
  </g>
 </g>
</svg>
