<svg id="svg" version="1.1" viewBox="0 0 22 22" xmlns="http://www.w3.org/2000/svg" xmlns:xlink="http://www.w3.org/1999/xlink">
 <defs>
  <style id="current-color-scheme" type="text/css">.ColorScheme-Text{color:#7b7c7e}</style>
 </defs>
 <g id="notification-progress-active" transform="translate(39 -1)">
  <path d="M1 1h22v22H1z" fill="#fff" fill-opacity="0"/>
  <rect x="4" y="4" width="16" height="16" ry="8" fill="#3daee9"/>
 </g>
 <g id="notification-inactive" transform="translate(-1 -1)">
  <path d="M1 1h22v22H1z" fill="#fff" fill-opacity="0"/>
  <path class="ColorScheme-Text" transform="translate(1 1)" d="M11 3c-4.432 0-8 3.568-8 8s3.568 8 8 8 8-3.568 8-8-3.568-8-8-8zm-.156 1h.312A6.827 6.827 0 0 1 18 10.844v.312A6.827 6.827 0 0 1 11.156 18h-.312A6.827 6.827 0 0 1 4 11.156v-.312A6.827 6.827 0 0 1 10.844 4zm-.656 3v5.594h1.624V7h-1.624zM11 13.406c-.368 0-.813.413-.813.781 0 .369.445.813.813.813.368 0 .813-.444.813-.813 0-.368-.445-.78-.813-.78z" fill="#dfdfdf"/>
 </g>
 <g id="notification-progress-inactive" transform="translate(39 39)">
  <path d="M1 1h22v22H1z" fill="#fff" fill-opacity="0"/>
  <rect class="ColorScheme-Text" x="4" y="4" width="16" height="16" ry="8" fill="#dfdfdf" opacity=".4"/>
 </g>
 <g id="notification-active" transform="translate(-1 39)">
  <path d="M1 1h22v22H1z" fill="#fff" fill-opacity="0"/>
  <rect x="4" y="4" width="16" height="16" ry="8" fill="#3daee9"/>
  <path d="M11.203 7.2l-.003 7.2h1.6l.003-7.2zm.8 8a.8.8 0 1 0 0 1.6.8.8 0 0 0 0-1.6z" fill="#fcfcfc"/>
 </g>
 <path id="expander-bottom" class="ColorScheme-Text" d="m-18 23 2-2 2 2z" fill="#dfdfdf"/>
 <path id="expander-top" class="ColorScheme-Text" d="m-18 17 2 2 2-2z" fill="#dfdfdf"/>
 <path id="expander-right" class="ColorScheme-Text" d="m-13 18-2 2 2 2z" fill="#dfdfdf"/>
 <path id="expander-left" class="ColorScheme-Text" d="m-19 18 2 2-2 2z" fill="#dfdfdf"/>
 <g id="notification-disabled" transform="translate(-1 -41)">
  <path d="M1 1h22v22H1z" fill="#fff" fill-opacity="0"/>
  <path class="ColorScheme-Text" transform="translate(1 1)" d="M11 3c-4.432 0-8 3.568-8 8s3.568 8 8 8 8-3.568 8-8-3.568-8-8-8zm-.156 1h.312A6.827 6.827 0 0 1 18 10.844v.312A6.827 6.827 0 0 1 11.156 18h-.312A6.827 6.827 0 0 1 4 11.156v-.312A6.827 6.827 0 0 1 10.844 4zm-.656 3v5.594h1.624V7h-1.624zM11 13.406c-.368 0-.813.413-.813.781 0 .369.445.813.813.813.368 0 .813-.444.813-.813 0-.368-.445-.78-.813-.78z" fill="#dfdfdf" opacity=".4"/>
 </g>
 <g id="notification-empty" transform="translate(39 -41)">
  <path d="M1 1h22v22H1z" fill="#fff" fill-opacity="0"/>
  <path class="ColorScheme-Text" transform="translate(1 1)" d="M11 3c-4.432 0-8 3.568-8 8s3.568 8 8 8 8-3.568 8-8-3.568-8-8-8zm-.156 1h.312A6.827 6.827 0 0 1 18 10.844v.312A6.827 6.827 0 0 1 11.156 18h-.312A6.827 6.827 0 0 1 4 11.156v-.312A6.827 6.827 0 0 1 10.844 4z" fill="#dfdfdf"/>
 </g>
</svg>
