<svg xmlns="http://www.w3.org/2000/svg" id="svg4153" version="1.1" width="32" height="32"><defs id="defs4157"><style type="text/css" id="current-color-scheme">.ColorScheme-Text{color:#dfdfdf}</style></defs><g id="22-22-plasmavault_error" transform="translate(49 5)"><path id="rect4148" opacity="1" fill="none" fill-opacity="1" stroke="none" stroke-width=".1" stroke-linecap="square" stroke-linejoin="miter" stroke-miterlimit="4" stroke-dasharray="none" stroke-dashoffset="0" stroke-opacity="1" d="M0 0h22v22H0z"/><path d="M11 3C8.784 3 7 4.784 7 7v4H5v8h12v-8h-2V7c0-2.216-1.784-4-4-4m0 1c1.662 0 3 1.561 3 3.5V11H8V7.5C8 5.561 9.338 4 11 4" class="ColorScheme-Text" id="path4" fill="#da4453" fill-opacity="1" stroke="none" stroke-width="1"/></g><g id="plasmavault_error"><path id="rect4230" opacity="1" fill="none" fill-opacity="1" stroke="none" d="M0 0h32v32H0z"/><path d="M16 4c-3.324 0-6 2.676-6 6v6H7v12h18V16h-3v-6c0-3.324-2.676-6-6-6m0 1.5c2.493 0 4.5 2.341 4.5 5.25V16h-9v-5.25c0-2.909 2.007-5.25 4.5-5.25" class="ColorScheme-Text" id="path4-3" fill="#da4453" fill-opacity="1" stroke="none" stroke-width="1"/></g></svg>