<svg id="svg" version="1.1" viewBox="0 0 22 22" xmlns="http://www.w3.org/2000/svg">
 <defs id="defs81">
  <style id="current-color-scheme" type="text/css">.ColorScheme-Text{color:#D3DAE3}</style>
  <style id="style3" type="text/css">.ColorScheme-Text{color:#dfdfdf}</style>
  <filter id="a" color-interpolation-filters="sRGB">
   <feBlend id="feBlend2" in2="BackgroundImage" mode="darken"/>
  </filter>
 </defs>
 <g id="printer">
  <path id="rect4172" d="m-23-6v6h-5v12h3v1h2v5h14v-5h2v-1h3v-12h-5v-6h-14zm1 1h12v6h-12v-6zm12 9h4v2h-4v-2zm-12 5h12v8h-12v-8zm1 2v1h10v-1h-10zm0 3v1h10v-1h-10z" color="#dfdfdf" fill="currentColor"/>
  <path id="rect4208" d="M-32-10H0v32h-32z" fill="none"/>
 </g>
 <g id="22-22-printer">
  <path id="rect3009" d="m0 0h22v22h-22z" color="#eff0f1" fill-opacity="0"/>
  <path id="path7" d="m5.9986 4v6h-1c-1 0-1 1-1 1v5h2v2h10v-2h2v-5s0.108-1-1-1h-1v-6zm1 1h8v5h-8zm-1 7h1v1h-1zm1 4h8v1h-8z" color="#000000" fill="#dfdfdf" filter="url(#a)" overflow="visible"/>
 </g>
</svg>
