<svg width="22" height="22" version="1.1" viewBox="0 0 22 22" xmlns="http://www.w3.org/2000/svg">
 <g transform="translate(-326 -534.36)">
  <g id="quota" transform="translate(0 .0022146)">
   <g transform="translate(329,537.36)" fill="#dfdfdf">
    <path d="m3 0c-1.108 0-2 0.892-2 2v12c0 1.108 0.892 2 2 2h10c1.108 0 2-0.892 2-2v-12c0-1.108-0.892-2-2-2zm0 1h10c0.554 0 1 0.446 1 1v12c0 0.554-0.446 1-1 1h-10c-0.554 0-1-0.446-1-1v-12c0-0.554 0.446-1 1-1z" style="paint-order:stroke fill markers"/>
    <rect x="3" y="2" width="1" height="1" ry=".5" style="paint-order:stroke fill markers"/>
    <rect x="12" y="2" width="1" height="1" ry=".5" style="paint-order:stroke fill markers"/>
    <rect x="3" y="13" width="1" height="1" ry=".5" style="paint-order:stroke fill markers"/>
    <rect x="12" y="13" width="1" height="1" ry=".5" style="paint-order:stroke fill markers"/>
   </g>
   <rect x="326" y="534.36" width="22" height="22" clip-rule="evenodd" fill-opacity="0" stroke-linejoin="round" stroke-miterlimit="1.4142" stroke-width=".54635"/>
   <path d="m337 540.36a5 5 0 0 0-5 5 5 5 0 0 0 5 5 5 5 0 0 0 5-5h-5z" fill="#dfdfdf" opacity=".3"/>
   <circle cx="337" cy="545.36" r="2" fill="#dfdfdf"/>
  </g>
 </g>
</svg>
