<svg version="1.1" viewBox="0 0 54 128" xmlns="http://www.w3.org/2000/svg">
 <defs>
  <style id="current-color-scheme" type="text/css">.ColorScheme-Text{color:#dfdfdf}</style>
 </defs>
 <g id="22-22-system-log-out">
  <path class="ColorScheme-Text" d="m11 13c-4.432 0-8 3.568-8 8s3.568 8 8 8 8-3.568 8-8-3.568-8-8-8zm0 1c3.878 0 7 3.122 7 7s-3.122 7-7 7-7-3.122-7-7 3.122-7 7-7zm1.293 3-4 4 4 4 0.707-0.707-3.293-3.293 3.293-3.293-0.707-0.707z" fill="currentColor"/>
  <path d="M0 10v22h22V10H0z" fill="none"/>
 </g>
 <g id="22-22-system-lock-screen" transform="translate(54 96)">
  <path class="ColorScheme-Text" d="M11 13c-2.216 0-4 1.784-4 4v4H5v8h12v-8h-2v-4c0-2.216-1.784-4-4-4zm0 1c1.662 0 3 1.561 3 3.5V21H8v-3.5c0-1.939 1.338-3.5 3-3.5zm-5 8h10v6H6v-6z" fill="currentColor"/>
  <path d="M0 10v22h22V10H0z" fill="none"/>
 </g>
 <g id="22-22-system-reboot" transform="translate(54 64)">
  <path class="ColorScheme-Text" d="M11 13c-1.442 0-2.803.37-3.969 1.031l.719.688.063.062 2.75 2.781.718-.718-2.5-2.469A6.938 6.938 0 0 1 11 14c3.878 0 7 3.122 7 7a6.992 6.992 0 0 1-.781 3.219l.75.75A8.023 8.023 0 0 0 19 21c0-4.432-3.568-8-8-8zm-6.969 4.031A8.023 8.023 0 0 0 3 21c0 4.432 3.568 8 8 8 1.442 0 2.803-.37 3.969-1.031l-.688-.688-.062-.062-2.781-2.782-.688.72 2.469 2.468A6.938 6.938 0 0 1 11 28c-3.878 0-7-3.122-7-7 0-1.163.284-2.256.781-3.219l-.75-.75z" fill="currentColor"/>
  <path d="M0 10v22h22V10H0z" fill="none"/>
 </g>
 <g id="22-22-system-save-session" transform="translate(112 32)">
  <path class="ColorScheme-Text" d="M3 13.004v16h16v-12.7h-.007L19 16.29l-3.293-3.293-.008.015v-.015h-12.7zm1 1.001h3v5h8v-5h.293L18 16.712v11.293h-2v-7H6v7H4v-14zm4 0h3.9v4H8v-4zm-1 8h8v6H7v-6z" fill="currentColor"/>
  <path d="M0 10v22h22V10H0z" fill="none"/>
 </g>
 <g id="system-save-session" transform="translate(112 32)">
  <path class="ColorScheme-Text" d="M26 4v24h24V10l-1-1-4-4-1-1H26zm1 1h5v8h11V5h.586L49 10.414V27h-4v-8H31v8h-4V5zm6 0h6v7h-6V5zm-1 15h12v7H32v-7z" fill="currentColor"/>
  <path d="M22 0v32h32V0H22z" fill="none"/>
 </g>
 <g id="22-22-system-shutdown" transform="translate(0 32)">
  <path class="ColorScheme-Text" d="M10 13v7h2v-7h-2zm-1 .266A7.969 7.969 0 0 0 3 21c0 4.432 3.568 8 8 8s8-3.568 8-8a7.969 7.969 0 0 0-6-7.734v1.037c2.895.857 5 3.517 5 6.697 0 3.878-3.122 7-7 7s-7-3.122-7-7c0-3.18 2.105-5.84 5-6.697v-1.037z" fill="currentColor"/>
  <path d="M0 10v22h22V10H0z" fill="none"/>
 </g>
 <g id="22-22-system-suspend-hibernate" transform="translate(0 64)">
  <path d="M0 10v22h22V10z" fill="none"/>
  <path class="ColorScheme-Text" d="M6.79 13.412l-.868.5 1.646 2.85-2.248-.602-.26.967 3.215.861 1.57 2.717H6.708l-2.353-2.353-.708.707 1.647 1.646H2v1h3.293l-1.647 1.647.708.707 2.353-2.354H9.84l-1.567 2.713-3.214.861.257.967 2.25-.603-1.646 2.851.865.5 1.647-2.851.603 2.25.965-.26-.861-3.217 1.855-3.21H11l1.857 3.218-.86 3.215.966.257.601-2.248L15.211 29l.867-.5-1.646-2.852 2.248.602.26-.965-3.215-.861-1.57-2.719h3.138l2.353 2.354.708-.707-1.647-1.647H20v-1h-3.293l1.647-1.646-.051-.059H17l-1.707 1.705h-3.137L13.141 19H12l-.998 1.703H11l-.004-.002-1.853-3.213.86-3.215-.966-.26-.601 2.25zm10.713 1.838h1.503l-.028.75H16l1.503-2.25H16V13h3.006zm-4.005 2H15l-.028.75h-2.975l1.501-2.25h-1.501V15H15z" fill="currentColor"/>
 </g>
 <g id="22-22-system-suspend" transform="translate(0 96)">
  <path d="M0 10v22h21V10z" fill="none"/>
  <path class="ColorScheme-Text" d="M7.046 14.049A7.995 8 0 0 0 3 21a7.995 8 0 0 0 7.995 8 7.995 8 0 0 0 6.937-4.043 7.995 8 0 0 0 .01-.006l-.738-.738a6.996 7 0 0 1-.004.006 6.996 7 0 0 1-3.207.781 6.996 7 0 0 1-6.996-7 6.996 7 0 0 1 .787-3.213zm-.743 1.771A7.995 8 0 0 0 5.998 18a7.995 8 0 0 0 7.995 8 7.995 8 0 0 0 2.186-.313A6.996 7 0 0 1 10.995 28a6.996 7 0 0 1-6.996-7 6.996 7 0 0 1 2.304-5.18zm5.407 3.28h1.715l-.032.9H9.996l1.714-2.7H9.996v-.9h3.429zm4.573-2.4H18l-.032.9h-3.401l1.716-2.7h-1.716V14H18z" fill="currentColor"/>
 </g>
 <g id="22-22-system-switch-user" transform="translate(54)">
  <path class="ColorScheme-Text" d="M11.398 12.388c-1.99 0-3.22 1.264-3.398 2.799v1.018l-2.151-1.52-.849.663 2.547 1.989.849.663.849-.663 2.547-1.99-.85-.662L9 16.205v-1.018c0-1.036 1.065-1.799 2.398-1.799 1.332 0 2.62.764 2.602 1.799V16h1v-.813c0-1.546-1.613-2.799-3.602-2.799zM14 17a2 2 0 1 0 0 4 2 2 0 0 0 0-4zm-6 2a2 2 0 0 0-2 2 2 2 0 0 0 2 2 2 2 0 0 0 2-2 2 2 0 0 0-2-2zm6.016 3c-1.52 0-2.765 1.163-2.979 2.672C11.62 25.334 12 26 12 27H16.43c.393-.54.606-1.199.607-1.875 0-1.726-1.352-3.125-3.021-3.125zm-.05 1c1.103 0 1.997.84 1.997 1.875 0 .406-.14.8-.4 1.125h-2.821A2.525 2.525 0 0 0 12 24.602c.142-.906.964-1.602 1.967-1.602zM8 24a3 3.125 0 0 0-3 3.125A3 3.125 0 0 0 5.605 29h4.793A3 3.125 0 0 0 11 27.125 3 3.125 0 0 0 8 24zm0 1a2 2.25 0 0 1 2 2.25 2 2.25 0 0 1-.117.75H6.117A2 2.25 0 0 1 6 27.25 2 2.25 0 0 1 8 25z" fill="currentColor"/>
  <path d="M0 10v22h22V10H0z" fill="none"/>
 </g>
 <g id="22-22-system-users" transform="translate(54 32)">
  <path class="ColorScheme-Text" d="M14 13c-1.662 0-3 1.338-3 3s1.338 3 3 3 3-1.338 3-3-1.338-3-3-3zm-6 3c-1.662 0-3 1.338-3 3s1.338 3 3 3 3-1.338 3-3-1.338-3-3-3zm6 4c-.646 0-1.256.134-1.818.361l.455.914c.428-.16.877-.275 1.363-.275 2.216 0 4 1.784 4 4h-3.5l.5 1h4v-1c0-2.77-2.23-5-5-5zm-6 3c-2.77 0-5 2.23-5 5v1h10v-1c0-2.77-2.23-5-5-5zm0 1c2.216 0 4 1.784 4 4H4c0-2.216 1.784-4 4-4z" fill="currentColor"/>
  <path d="M0 10v22h22V10H0z" fill="none"/>
 </g>
 <g id="system-users" transform="translate(54 32)">
  <path class="ColorScheme-Text" d="M42.5 4A4.5 4.5 0 0 0 38 8.5a4.5 4.5 0 0 0 4.5 4.5A4.5 4.5 0 0 0 47 8.5 4.5 4.5 0 0 0 42.5 4zm0 1A3.5 3.5 0 0 1 46 8.5a3.5 3.5 0 0 1-3.5 3.5A3.5 3.5 0 0 1 39 8.5 3.5 3.5 0 0 1 42.5 5zm-9 4a4.5 4.5 0 1 0 0 9 4.5 4.5 0 0 0 0-9zm0 1a3.5 3.5 0 0 1 3.5 3.5 3.5 3.5 0 0 1-3.5 3.5 3.5 3.5 0 0 1-3.5-3.5 3.5 3.5 0 0 1 3.5-3.5zm9 4a7.084 7.084 0 0 0-2.586.5 6.5 6.5 0 0 1-.322 1.242A6.124 6.124 0 0 1 42.5 15c3.59 0 6.5 3.134 6.5 7h-8.342c.17.323.326.657.465 1H50v-1c0-4.418-3.358-8-7.5-8zm-9 5c-4.142 0-7.5 3.582-7.5 8v1h15v-1c0-4.418-3.358-8-7.5-8zm0 1c3.59 0 6.5 3.134 6.5 7H27c0-3.866 2.91-7 6.5-7z" fill="currentColor"/>
  <path d="M22 0v32h32V0H22z" fill="none"/>
 </g>
 <g id="22-22-system-search" transform="translate(0 -32)">
  <path class="ColorScheme-Text" d="M9 13c-3.324 0-6 2.676-6 6s2.676 6 6 6c1.481 0 2.83-.535 3.875-1.418L18.293 29l.707-.707-5.418-5.418A5.975 5.975 0 0 0 15 19c0-3.324-2.676-6-6-6zm0 1c2.77 0 5 2.23 5 5s-2.23 5-5 5-5-2.23-5-5 2.23-5 5-5z" fill="currentColor"/>
  <path d="M0 10v22h22V10H0z" fill="none"/>
 </g>
 <g id="system-search" transform="translate(0 -32)">
  <path class="ColorScheme-Text" d="M35 4a9 9 0 0 0-9 9 9 9 0 0 0 9 9 9 9 0 0 0 5.994-2.299L49.293 28l.707-.707-8.3-8.3A9 9 0 0 0 44 13a9 9 0 0 0-9-9zm0 1a8 8 0 0 1 8 8 8 8 0 0 1-8 8 8 8 0 0 1-8-8 8 8 0 0 1 8-8z" fill="currentColor"/>
  <path d="M22 0v32h32V0H22z" fill="none"/>
 </g>
 <g id="system-user-list" transform="translate(108)">
  <path class="ColorScheme-Text" d="M45 9c-.59 0-1.133.175-1.594.469.043.464.008.922-.008 1.336a2 2 0 1 1-.39 1.36c-.185.419-.465.77-.696 1.099l-.004.004C42.784 14.288 43.797 15 45 15a2.992 2.992 0 0 0 2.998-3c0-1.662-1.337-3-2.998-3zm-7 9c4.432 0 8 3.568 8 8H30c0-4.432 3.568-8 8-8zm0-1c-4.986 0-9 3.717-9 8.333V27h18v-1.667C47 20.717 42.986 17 38 17zm6.977-1a4.984 4.984 0 0 0-3.276 1.24c.38.156.766.336 1.143.508l.013.008c.616-.45 1.333-.756 2.118-.756 2.226 0 4.023 2.338 4.023 4H46.27c.196.34.301.648.449 1H50v-1c0-2.77-2.24-4.999-5.021-5zM38 6a4 4 0 1 1 0 8 4 4 0 0 1 0-8zm0-1a5 5 0 1 0 0 10 5 5 0 0 0 0-10zm-6.977 11c1.262 0 2.397.479 3.276 1.24-.405.163-.806.356-1.156.516-.616-.45-1.333-.756-2.118-.756-2.226 0-4.023 2.338-4.023 4h2.728c-.187.333-.318.69-.449 1H26v-1c0-2.77 2.24-4.999 5.021-5zm-.025-7c.59 0 1.133.175 1.594.469-.049.46-.01.927.008 1.336a2 2 0 1 0 .39 1.36c.189.402.472.77.696 1.099l.004.004C33.214 14.288 32.2 15 30.998 15A2.992 2.992 0 0 1 28 12c0-1.662 1.337-3 2.998-3z" fill="currentColor"/>
  <path d="M22 0v32h32V0z" fill="none"/>
 </g>
 <g id="system-user-prompt" transform="translate(112 64)">
  <path d="M22 0v32h32V0z" fill="none"/>
  <path class="ColorScheme-Text" d="M37 10.75v1.5h5v-1.5zm-4 0v1.5h3v-1.5zm-6 0v1.5h5v-1.5zM26 9h24v5H26zm-1-1v7h26V8zm1 10h24v5H26zm-1-1v7h26v-7zm3.5 2a1.5 1.5 0 1 0 0 3 1.5 1.5 0 0 0 0-3zm4 0a1.5 1.5 0 1 0 0 3 1.5 1.5 0 0 0 0-3zm4 0a1.5 1.5 0 1 0 0 3 1.5 1.5 0 0 0 0-3zm4 0a1.5 1.5 0 1 0 0 3 1.5 1.5 0 0 0 0-3z" fill="currentColor"/>
 </g>
 <g id="22-22-system-user-prompt" transform="translate(96.875 74) scale(.6875)" stroke-width="1.455">
  <path class="ColorScheme-Text" d="M35.818 21.09a.727.727 0 0 1-.727.728.727.727 0 0 1-.727-.727.727.727 0 0 1 .727-.727.727.727 0 0 1 .727.727zm-2.182 0a.727.727 0 0 1-.727.728.727.727 0 0 1-.727-.727.727.727 0 0 1 .727-.727.727.727 0 0 1 .727.727zm-2.181 0a.727.727 0 0 1-.728.728.727.727 0 0 1-.727-.727.727.727 0 0 1 .727-.727.727.727 0 0 1 .728.727zm-2.182 0a.727.727 0 0 1-.728.728.727.727 0 0 1-.727-.727.727.727 0 0 1 .727-.727.727.727 0 0 1 .728.727zm5.818-10.908H38v1.454h-2.91zm-2.91 0h1.455v1.454h-1.454zm-4.363 0h2.91v1.454h-2.91zm-2.909 7.273v7.272h26.182v-7.272zm1.455 1.454h23.272v4.364H26.364zM24.909 7.273v7.272h26.182V7.273zm1.455 1.454h23.272v4.364H26.364z" fill="currentColor"/>
  <path d="M22 0v32h32V0z" fill="none"/>
 </g>
 <g id="22-22-system-user-list" transform="translate(92.875 10) scale(.6875)" stroke-width="1.455">
  <path class="ColorScheme-Text" d="M44.552 10.182c-.374 0-.72.103-1.028.27 0 .002-.096.058-.095.06.114 1.453-.25 2.377-.665 3.099a2.184 2.184 0 0 0 1.788.934 2.183 2.183 0 0 0 0-4.363zm-13.097 0c.374 0 .72.103 1.028.27 0 .002.095.058.095.06-.115 1.453.25 2.377.665 3.099a2.184 2.184 0 0 1-1.788.934 2.183 2.183 0 0 1 0-4.363zm0 5.818c1.226 0 2.302.566 2.96 1.477-.37.196-.745.436-1.071.63-.359-.422-1.025-.652-1.89-.652-1.309 0-2.181.96-2.181 2.909h1.818l-.727 1.454h-2.546v-2.21c0-2.093 1.622-3.608 3.637-3.608zm13.09 0c-1.226 0-2.302.566-2.96 1.477.37.196.745.436 1.071.63.359-.422 1.025-.652 1.89-.652 1.309 0 2.181.993 2.181 2.909H44.91l.727 1.454h2.546v-2.21c0-2.093-1.622-3.608-3.637-3.608zM38 18.91c2.91 0 5.818 1.454 5.818 5.817H32.182c0-4.363 2.909-5.818 5.818-5.818zm0-1.455c-4.23 0-7.261 2.974-7.27 7.272l-.003 1.455h14.546l-.003-1.455c-.009-4.321-3.04-7.272-7.27-7.272zm0-11.637A5.09 5.09 0 1 0 38 16a5.09 5.09 0 0 0 0-10.182z" fill="currentColor"/>
  <path d="M22 0v32h32V0z" fill="none"/>
 </g>
 <g id="system-suspend" transform="translate(82 164.11)">
  <rect x="-60" y="-98" width="32" height="32" rx="0" ry="0" opacity="0" stroke-width="2" style="paint-order:fill markers stroke"/>
  <g transform="translate(-60,-98)">
   <path d="m16 2c-7.7241 0-14 6.2759-14 14 0 7.7241 6.2759 14 14 14 7.7241 0 14-6.2759 14-14 0-7.7241-6.2759-14-14-14z" color="#000000" fill="#64728a" overflow="visible" stroke="#566072" stroke-width="2"/>
   <path d="m16 2c-7.7241 0-14 6.2759-14 14 0 7.7241 6.2759 14 14 14 7.7241 0 14-6.2759 14-14 0-7.7241-6.2759-14-14-14z" color="#000000" fill="#64728a" overflow="visible"/>
   <path d="m16 1.5c-8 0-14.5 6.5-14.5 14.5s6.5 14.5 14.5 14.5 14.5-6.5 14.5-14.5-6.5-14.5-14.5-14.5z" color="#000000" fill="none" opacity=".5" overflow="visible" solid-color="#000000" style="isolation:auto;mix-blend-mode:normal"/>
   <path d="m16 6.5a9.5 9.5 0 1 0 0 19 9.5 9.5 0 0 0 0-19zm0 2a7.5 7.5 0 0 1 7.438 6.5h-14.875a7.5 7.5 0 0 1 7.437-6.5zm-7.438 8.5h14.876a7.5 7.5 0 0 1-7.438 6.5 7.5 7.5 0 0 1-7.438-6.5z" color="#000000" fill="#fff" overflow="visible"/>
  </g>
 </g>
 <g id="system-reboot" transform="translate(95.616 164.71)">
  <rect x="-20" y="-98" width="32" height="32" rx="0" ry="0" opacity="0" stroke-width="2" style="paint-order:fill markers stroke"/>
  <g transform="translate(-20.002,-97.998)">
   <path d="m16.002 1.998c-7.725 0-14 6.275-14 14 0 7.725 6.275 14 14 14 7.724 0 14-6.275 14-14 0-7.724-6.275-14-14-14z" color="#000000" fill="#4da2f3" fill-opacity=".992" opacity=".99" overflow="visible" stroke="#1e88ea" stroke-width="2"/>
   <path d="m16.002 1.998c-7.725 0-14 6.275-14 14 0 7.725 6.275 14 14 14 7.724 0 14-6.275 14-14 0-7.724-6.275-14-14-14z" color="#000000" fill="#4da2f3" fill-opacity=".992" opacity=".99" overflow="visible"/>
   <path d="m16.002 1.498c-8 0-14.5 6.5-14.5 14.5s6.5 14.5 14.5 14.5 14.5-6.5 14.5-14.5-6.5-14.5-14.5-14.5z" color="#000000" fill="none" opacity=".5" overflow="visible" solid-color="#000000" style="isolation:auto;mix-blend-mode:normal"/>
   <path d="m16 6.5v2.429a7.286 7.286 0 1 0 7.286 7.285h-2.429a4.857 4.857 0 1 1-4.857-4.857v2.429l6.071-3.643z" color="#bebebe" fill="#fff" overflow="visible"/>
  </g>
 </g>
 <g id="system-shutdown" transform="translate(2,130)">
  <rect x="20" y="-98" width="32" height="32" rx="0" ry="0" opacity="0" stroke-width="2" style="paint-order:fill markers stroke"/>
  <g transform="translate(20,-98)">
   <path d="m16 2c-7.725 0-14 6.275-14 14 0 7.725 6.275 14 14 14 7.725 0 14-6.275 14-14 0-7.725-6.275-14-14-14z" color="#000000" fill="#d93c3f" fill-opacity=".992" overflow="visible" stroke="#be2a2d" stroke-width="2"/>
   <path d="m16 2c-7.725 0-14 6.275-14 14 0 7.725 6.275 14 14 14 7.725 0 14-6.275 14-14 0-7.725-6.275-14-14-14z" color="#000000" fill="#d93c3f" fill-opacity=".992" overflow="visible"/>
   <path d="m16 1.5c-8 0-14.5 6.5-14.5 14.5s6.5 14.5 14.5 14.5 14.5-6.5 14.5-14.5-6.5-14.5-14.5-14.5z" color="#000000" fill="none" opacity=".5" overflow="visible"/>
   <path d="m11.877 8.776c-0.204 0-0.394 0.08-0.566 0.162l-0.405 0.243c-1.984 1.309-3.382 3.331-3.8 5.7 0 2e-3 -0.04-3e-3 -0.04 0-0.011 0.065 0.01 0.136 0 0.202-0.06 0.4-0.121 0.795-0.121 1.213 0 4.822 4.054 8.732 9.055 8.732s9.055-3.91 9.055-8.732c0-0.371-0.033-0.733-0.08-1.092-0.015-0.111-0.062-0.213-0.081-0.323-0.418-2.369-1.816-4.391-3.8-5.7l-0.405-0.243c-0.172-0.081-0.362-0.162-0.566-0.162-0.736 0-1.334 0.598-1.334 1.335 0 0.419 0.223 0.806 0.526 1.05 0.096 0.078 0.208 0.154 0.323 0.203a6.32 6.32 0 0 1 2.588 3.517c7e-3 0.027 0.033 0.053 0.04 0.08 0.135 0.495 0.202 1 0.202 1.537 0 3.445-2.896 6.226-6.468 6.226s-6.468-2.781-6.468-6.226c0-0.536 0.068-1.042 0.202-1.536 8e-3 -0.03 0.032-0.053 0.04-0.081a6.32 6.32 0 0 1 2.588-3.517c0.115-0.05 0.227-0.125 0.323-0.202 0.303-0.245 0.526-0.632 0.526-1.051 0-0.737-0.598-1.335-1.334-1.335zm4.123-3.153a1.29 1.29 0 0 1 1.294 1.294v7.762a1.29 1.29 0 0 1-1.294 1.293 1.29 1.29 0 0 1-1.294-1.293v-7.762a1.29 1.29 0 0 1 1.294-1.294z" color="#000000" fill="#fff" overflow="visible"/>
  </g>
 </g>
 <g id="system-suspend-hibernate" transform="translate(-38 196.11)">
  <rect x="60" y="-98" width="32" height="32" rx="0" ry="0" opacity="0" stroke-width="2" style="paint-order:fill markers stroke"/>
  <g transform="translate(60 -1188.5)">
   <circle cx="16" cy="1106.5" r="14" fill="#9575cd" stroke="#7b5cb8" stroke-width="2"/>
   <circle cx="16" cy="1106.5" r="14" fill="#9575cd"/>
   <path d="m16.667 1100.5a0.665 0.665 0 0 0-0.667 0.666v2c0 0.37 0.297 0.667 0.667 0.667h3.333l-4 3.333v2.667c0 0.37 0.297 0.667 0.667 0.667h6.666c0.37 0 0.667-0.298 0.667-0.667v-2a0.665 0.665 0 0 0-0.667-0.667h-3.333l4-3.333v-2.667a0.665 0.665 0 0 0-0.667-0.666zm-8 6a0.665 0.665 0 0 0-0.667 0.666v0.667c0 0.37 0.298 0.685 0.667 0.667h1.333l-2 2v1.333c0 0.37 0.297 0.667 0.667 0.667h3.333c0.37 0 0.667-0.298 0.667-0.667v-0.667a0.665 0.665 0 0 0-0.667-0.666h-1.333l2-2v-1.334a0.665 0.665 0 0 0-0.667-0.666z" fill="#fff" stroke-linecap="round" stroke-linejoin="round" stroke-opacity=".528" stroke-width="2"/>
  </g>
 </g>
 <g id="system-log-out" transform="translate(-76,98)">
  <rect x="98" y="-98" width="32" height="32" rx="0" ry="0" opacity="0" stroke-width="2" style="paint-order:fill markers stroke"/>
  <g transform="translate(98,-98)">
   <path d="m16 2c-7.7241 0-14 6.2759-14 14 0 7.7241 6.2759 14 14 14 7.7241 0 14-6.2759 14-14 0-7.7241-6.2759-14-14-14z" color="#000000" fill="#f88230" overflow="visible" stroke="#e66b15" stroke-width="2"/>
   <path d="m16 2c-7.7241 0-14 6.2759-14 14 0 7.7241 6.2759 14 14 14 7.7241 0 14-6.2759 14-14 0-7.7241-6.2759-14-14-14z" color="#000000" fill="#f88230" overflow="visible"/>
   <path d="m16 1.5c-8 0-14.5 6.5-14.5 14.5s6.5 14.5 14.5 14.5 14.5-6.5 14.5-14.5-6.5-14.5-14.5-14.5z" color="#000000" fill="none" opacity=".35" overflow="visible"/>
   <path d="m17 9 8 7.027-8 6.973v-5h-9v-3.928h9z" fill="#fff" overflow="visible"/>
  </g>
 </g>
 <g id="system-lock-screen" transform="translate(-63.041 199.21)">
  <rect x="140" y="-98" width="32" height="32" rx="0" ry="0" opacity="0" stroke-width="2" style="paint-order:fill markers stroke"/>
  <g transform="translate(-2.5,-46.5)">
   <path d="m158.5-49.5c-7.7241 0-14 6.2759-14 14s6.2759 14 14 14 14-6.2759 14-14-6.2759-14-14-14z" color="#000000" fill="#77cb75" overflow="visible" stroke="#5bb759" stroke-width="2"/>
   <path d="m158.5-49.5c-7.7241 0-14 6.2759-14 14s6.2759 14 14 14 14-6.2759 14-14-6.2759-14-14-14z" color="#000000" fill="#77cb75" overflow="visible"/>
   <path d="m158.5-50c-8 0-14.5 6.5-14.5 14.5s6.5 14.5 14.5 14.5 14.5-6.5 14.5-14.5-6.5-14.5-14.5-14.5z" color="#000000" fill="none" opacity=".5" overflow="visible" solid-color="#000000" style="isolation:auto;mix-blend-mode:normal"/>
   <path d="m158-44c-2.216 0-4 1.8119-4 4.0625v2.9375h-1c-0.554 0-1 0.446-1 1v7c0 0.554 0.446 1 1 1h11c0.554 0 1-0.446 1-1v-7c0-0.554-0.446-1-1-1h-1v-2.9375c0-2.2506-1.784-4.0625-4-4.0625zm0 2h1c1.108 0 2 0.892 2 2v3h-5v-3c0-1.108 0.892-2 2-2z" fill="#fff" fill-rule="evenodd" style="paint-order:fill markers stroke"/>
  </g>
 </g>
 <g id="system-switch-user" transform="translate(-107,98)">
  <rect x="183" y="-98" width="32" height="32" rx="0" ry="0" opacity="0" stroke-width="2" style="paint-order:fill markers stroke"/>
  <g transform="translate(183 -1188.5)">
   <circle cx="16" cy="1106.5" r="14" fill="#81c784" stroke="#62b266" stroke-width="2"/>
   <circle cx="16" cy="1106.5" r="14" fill="#81c784"/>
   <g fill="#fff" stroke-linecap="round" stroke-linejoin="round" stroke-width="2">
    <path d="m14.52 1107a0.5 0.5 0 0 1 0.48 0.5v2h7c0.277 0 0.5 0.223 0.5 0.5v2c0 0.276-0.223 0.5-0.5 0.5h-7v2a0.5 0.5 0 0 1-0.806 0.394l-4.5-3.5a0.5 0.5 0 0 1 0-0.79l4.5-3.499a0.503 0.503 0 0 1 0.326-0.105zm2.96-9a0.5 0.5 0 0 0-0.48 0.5v2h-7c-0.277 0-0.5 0.223-0.5 0.5v2c0 0.277 0.223 0.5 0.5 0.5h7v2a0.5 0.5 0 0 0 0.806 0.394l4.5-3.5a0.5 0.5 0 0 0 0-0.789l-4.5-3.5a0.503 0.503 0 0 0-0.326-0.105z"/>
   </g>
  </g>
 </g>
</svg>
