<svg version="1.1" viewBox="0 0 22 22" xmlns="http://www.w3.org/2000/svg">
 <g id="22-22-video-card-inactive">
  <path d="M0 0v22h22V0H0z" fill="none"/>
  <path d="M2 2v18h1v-3h4v1h8v-1h1v-1H3V5h16v8h1V4H3V2H2zm10.5 4a3.5 3.5 0 0 0-3.158 2H6v7h7v-2.041A3.5 3.5 0 0 0 16 9.5 3.5 3.5 0 0 0 12.5 6zm-.064 1a2.5 2.5 0 0 1 .064 0A2.5 2.5 0 0 1 15 9.5a2.5 2.5 0 0 1-2 2.445V8h-2.496a2.5 2.5 0 0 1 1.932-1zM7 9h2.04a3.5 3.5 0 0 0-.04.5 3.5 3.5 0 0 0 3 3.46V14H7V9zm3.05 0H12v2.95a2.5 2.5 0 0 1-2-2.45 2.5 2.5 0 0 1 .05-.5z" color="#dfdfdf" fill="currentColor"/>
  <path d="M18.768 14.014A2 2 0 0 0 17 16h1a1 1 0 0 1 1-1c.507 0 .935.395.994.898-.018 1.18-.896 1.237-1.992 1.323L18 19.014h1V18h.232A2 2 0 0 0 21 16.104c-.01-.106-.008-.196-.014-.32a2 2 0 0 0-1.896-1.768l-.322-.002zM18.002 20v1h1v-1h-1z" fill="#fdbc4b"/>
 </g>
</svg>
