<svg id="svg" version="1.1" viewBox="0 0 22 22" xmlns="http://www.w3.org/2000/svg">
 <defs>
  <style id="current-color-scheme" type="text/css">.ColorScheme-Text{color:#D3DAE3}</style>
 </defs>
 <g id="video-display-brightness">
  <path d="m-0.01169-34.013h31.999v31.999h-31.999z" fill="#00000f" fill-opacity=".004" opacity=".01" stroke-width="1.0909"/>
  <path d="m3.988-29c-1.108 0-2 0.892-2 2v14c0 1.108 0.892 2 2 2h9.0059v4.1406l-2.5449 0.18359h-0.01172c-0.26 0-0.44922 0.18325-0.44922 0.40625v0.26953h12v-0.26953c0-0.223-0.18922-0.40625-0.44922-0.40625h-0.01367l-2.543-0.18359v-4.1406h9.0059c1.108 0 2-0.892 2-2v-14c0-1.108-0.892-2-2-2zm0 1h24c0.554 0 1 0.446 1 1v14c0 0.554-0.446 1-1 1h-24c-0.554 0-1-0.446-1-1v-14c0-0.554 0.446-1 1-1z" fill="#dfdfdf" style="paint-order:stroke fill markers"/>
  <g transform="matrix(.39546 0 0 .39546 10.43 -542.51)">
   <path class="ColorScheme-Text" d="m14 1313.7c4.166 0 7.527 3.377 7.527 7.542 0 4.166-3.361 7.543-7.527 7.543v-7.543zm-4.853-7.58 0.563 5.188a10.857 10.857 0 0 0-3.75 2.719l-4.781-2.125 3.5 3.906a10.888 10.888 0 0 0-1.47 4.437l-5.093 1.094 5.125 1.094c0.079 0.738 0.23 1.485 0.469 2.219 0.239 0.736 0.534 1.448 0.906 2.094l-3.5 3.906 4.781-2.125c1.035 1.162 2.317 2.06 3.719 2.687l-0.562 5.25 2.656-4.562c1.492 0.332 3.059 0.37 4.625 0.03l2.625 4.5-0.531-5.187a10.832 10.832 0 0 0 3.687-2.656l4.844 2.125-3.531-3.938a10.97 10.97 0 0 0 1.406-4.343l5.156-1.094-5.125-1.125a10.879 10.879 0 0 0-0.469-2.281 10.81 10.81 0 0 0-0.968-2.125l3.5-3.907-4.813 2.125a10.904 10.904 0 0 0-3.719-2.656l0.563-5.25-2.625 4.563a10.849 10.849 0 0 0-4.563-0.031zm4.782 6a9.178 9.178 0 0 1 8.843 6.344c1.568 4.825-1.08 9.995-5.906 11.563-4.825 1.568-9.963-1.081-11.531-5.906a9.126 9.126 0 0 1 5.875-11.532 9.198 9.198 0 0 1 2.719-0.469z" color="#d3dae3" fill="#dfdfdf"/>
  </g>
 </g>
 <g id="22-22-video-display-brightness">
  <path d="m-5e-3 0h22v22h-22z" fill="#00000f" fill-opacity=".004" opacity=".01" stroke-width=".75"/>
  <path class="ColorScheme-Text" d="m10.998 7a3.5002 3.5002 0 1 0 0 7.0005 3.5002 3.5002 0 0 0 0-7.0005zm0 1.0005v4.9995a2.4998 2.4998 0 1 1 0-4.9995z" color="#d3dae3" fill="#dfdfdf" stroke-width=".75"/>
  <path d="m4 4c-0.554 0-1 0.446-1 1v10c0 0.554 0.446 1 1 1h5v1s0 1-1 1v1h6v-1c-1 0-1-1-1-1v-1h5c0.554 0 1-0.446 1-1v-10c0-0.554-0.446-1-1-1zm0.5 0.996h13s0.5 0 0.5 0.5v9c0 0.5-0.5 0.5-0.5 0.5h-13c-0.5 0-0.5-0.5-0.5-0.5v-9s0-0.5 0.5-0.5z" fill="#dfdfdf"/>
 </g>
</svg>
