<svg width="46" height="44" version="1.0" xmlns="http://www.w3.org/2000/svg">
 <defs>
  <style id="current-color-scheme" type="text/css">.ColorScheme-Text{color:#5c616c}</style>
 </defs>
 <g id="zoom-fit-height" transform="translate(-252.54 -343.5)">
  <path class="ColorScheme-Text" d="m253.52 366.5v1h20v-1zm10 1-3 3h2v3.188c-1.158 0.415-2 1.51-2 2.812 0 1.301 0.842 2.397 2 2.813v3.187h-2l3 3 3-3h-2v-3.187c1.159-0.416 2-1.512 2-2.813s-0.841-2.397-2-2.812v-3.188h2zm0 18h-10v1h20v-1zm0-11a2 2 0 1 1 0 4 2 2 0 0 1 0-4z" color="#5c616c" fill="#dfdfdf"/>
  <circle class="ColorScheme-Text" transform="translate(252.52 365.5)" cx="11.013" cy="11" r="1" color="#5c616c" fill="#dfdfdf" fill-opacity=".94118"/>
  <path transform="translate(252.52 365.5)" d="m0.013 0h22v22h-22z" fill="none" fill-opacity="0"/>
 </g>
 <g id="zoom-fit-width" transform="rotate(90 321.02 90.484)">
  <path class="ColorScheme-Text" d="m253.52 366.5v1h20v-1zm10 1-3 3h2v3.188c-1.158 0.415-2 1.51-2 2.812 0 1.301 0.842 2.397 2 2.813v3.187h-2l3 3 3-3h-2v-3.187c1.159-0.416 2-1.512 2-2.813s-0.841-2.397-2-2.812v-3.188h2zm0 18h-10v1h20v-1zm0-11a2 2 0 1 1 0 4 2 2 0 0 1 0-4z" color="#5c616c" fill="#dfdfdf"/>
  <circle class="ColorScheme-Text" transform="translate(252.52 365.5)" cx="11.013" cy="11" r="1" color="#5c616c" fill="#dfdfdf" fill-opacity=".94118"/>
  <path transform="translate(252.52 365.5)" d="m0.013 0h22v22h-22z" fill="none" fill-opacity="0"/>
 </g>
 <g id="16-16-zoom-fit-height" transform="translate(-232.54 -368.5)">
  <path class="ColorScheme-Text" d="m256.52 369.5v1h14v-1zm7 1-2 2h1s7e-3 1.128 0 2.281c-0.597 0.346-1 0.98-1 1.719 0 0.74 0.403 1.373 1 1.719 7e-3 1.186 0 2.312 0 2.312h-1l1.969 1.969h-6.938v1h13.97v-1h-6.97l1.97-1.969-1.032-0.03v-2.25a1.993 1.993 0 0 0 1.031-1.75c0-0.755-0.414-1.41-1.031-1.75v-2.22l1.031-0.03-2-2zm-0.125 5.031h0.25c0.488 0.066 0.875 0.463 0.875 0.969a1 1 0 0 1-2 0c0-0.506 0.387-0.902 0.875-0.969z" color="#5c616c" fill="#dfdfdf"/>
  <path transform="translate(255.52 368.5)" d="m0.013 0h16v16h-16z" fill="none" fill-opacity="0"/>
 </g>
 <g id="16-16-zoom-fit-width" transform="rotate(90 321.01 65.478)">
  <path class="ColorScheme-Text" d="m256.52 369.5v1h14v-1zm7 1-2 2h1s7e-3 1.128 0 2.281c-0.597 0.346-1 0.98-1 1.719 0 0.74 0.403 1.373 1 1.719 7e-3 1.186 0 2.312 0 2.312h-1l1.969 1.969h-6.938v1h13.97v-1h-6.97l1.97-1.969-1.032-0.03v-2.25a1.993 1.993 0 0 0 1.031-1.75c0-0.755-0.414-1.41-1.031-1.75v-2.22l1.031-0.03-2-2zm-0.125 5.031h0.25c0.488 0.066 0.875 0.463 0.875 0.969a1 1 0 0 1-2 0c0-0.506 0.387-0.902 0.875-0.969z" color="#5c616c" fill="#dfdfdf"/>
  <path transform="translate(255.52 368.5)" d="m0.013 0h16v16h-16z" fill="none" fill-opacity="0"/>
 </g>
</svg>
