<?xml version="1.0" encoding="UTF-8" standalone="no"?>
<svg
   xmlns:dc="http://purl.org/dc/elements/1.1/"
   xmlns:cc="http://creativecommons.org/ns#"
   xmlns:rdf="http://www.w3.org/1999/02/22-rdf-syntax-ns#"
   xmlns:svg="http://www.w3.org/2000/svg"
   xmlns="http://www.w3.org/2000/svg"
   xmlns:sodipodi="http://sodipodi.sourceforge.net/DTD/sodipodi-0.dtd"
   xmlns:inkscape="http://www.inkscape.org/namespaces/inkscape"
   width="50"
   height="90"
   version="1.1"
   id="svg64"
   sodipodi:docname="keepabove.svg"
   inkscape:version="0.92.4 5da689c313, 2019-01-14">
  <metadata
     id="metadata70">
    <rdf:RDF>
      <cc:Work
         rdf:about="">
        <dc:format>image/svg+xml</dc:format>
        <dc:type
           rdf:resource="http://purl.org/dc/dcmitype/StillImage" />
        <dc:title>Vetro</dc:title>
      </cc:Work>
    </rdf:RDF>
  </metadata>
  <defs
     id="defs68" />
  <sodipodi:namedview
     pagecolor="#3a3a3a"
     bordercolor="#666666"
     borderopacity="1"
     objecttolerance="10"
     gridtolerance="10"
     guidetolerance="10"
     inkscape:pageopacity="0"
     inkscape:pageshadow="2"
     inkscape:window-width="1366"
     inkscape:window-height="696"
     id="namedview66"
     showgrid="true"
     inkscape:zoom="5.2444444"
     inkscape:cx="85.270636"
     inkscape:cy="48.123445"
     inkscape:window-x="0"
     inkscape:window-y="0"
     inkscape:window-maximized="1"
     inkscape:current-layer="svg64">
    <inkscape:grid
       type="xygrid"
       id="grid47" />
  </sodipodi:namedview>
  <title
     id="title2">Vetro</title>
  <g
     id="active-center"
     transform="translate(49.017578,-1)">
    <rect
       ry="0.85714287"
       y="1"
       x="-49"
       height="30"
       width="38"
       id="rect57"
       style="opacity:0;fill:#b3b3b3;fill-opacity:1;stroke:none;stroke-width:1.61422253;stroke-linecap:round;stroke-linejoin:round;stroke-miterlimit:4;stroke-dasharray:none;stroke-opacity:1;paint-order:stroke fill markers" />
    <circle
       r="12"
       cy="16"
       cx="-30"
       id="path48"
       style="opacity:0;fill:#ffffff;fill-opacity:1;stroke:none;stroke-width:2.39841461;stroke-linecap:round;stroke-linejoin:round;stroke-miterlimit:4;stroke-dasharray:none;stroke-opacity:1;paint-order:stroke fill markers" />
    <g
       transform="translate(-0.30985222,-19.151293)"
       id="g905">
      <path
         id="rect88"
         transform="translate(0.30985222,19.151293)"
         d="m -30.017578,10 -7.990234,7.990234 0.707031,0.707032 7.292969,-7.291016 7.291015,7.291016 0.707031,-0.707032 L -30,10 l -0.0078,0.0078 z m 0,4 -7.990234,7.990234 0.707031,0.707032 7.292969,-7.291016 7.291015,7.291016 0.707031,-0.707032 L -30,14 l -0.0078,0.0078 z"
         style="opacity:1;fill:#d9dee7;fill-opacity:0.58431373;stroke:none;stroke-width:1.79682255;stroke-linecap:round;stroke-linejoin:round;stroke-miterlimit:4;stroke-dasharray:none;stroke-opacity:1;paint-order:stroke fill markers"
         inkscape:connector-curvature="0" />
    </g>
  </g>
  <g
     transform="translate(-0.30985222,-15.151293)"
     id="g911" />
  <g
     id="hover-center"
     transform="translate(49.017578,-1)">
    <rect
       style="opacity:0;fill:#b3b3b3;fill-opacity:1;stroke:none;stroke-width:1.61422253;stroke-linecap:round;stroke-linejoin:round;stroke-miterlimit:4;stroke-dasharray:none;stroke-opacity:1;paint-order:stroke fill markers"
       id="rect65"
       width="38"
       height="30"
       x="-49"
       y="33"
       ry="0.85714287" />
    <circle
       style="opacity:0.1;fill:#ffffff;fill-opacity:1;stroke:none;stroke-width:2.39841461;stroke-linecap:round;stroke-linejoin:round;stroke-miterlimit:4;stroke-dasharray:none;stroke-opacity:1;paint-order:stroke fill markers"
       id="circle67"
       cx="-30"
       cy="48"
       r="12" />
    <g
       id="g919"
       transform="translate(-0.30985222,12.848707)">
      <path
         inkscape:connector-curvature="0"
         style="opacity:1;fill:#d9dee7;fill-opacity:0.58431373;stroke:none;stroke-width:1.79682255;stroke-linecap:round;stroke-linejoin:round;stroke-miterlimit:4;stroke-dasharray:none;stroke-opacity:1;paint-order:stroke fill markers"
         d="m -30.017578,10 -7.990234,7.990234 0.707031,0.707032 7.292969,-7.291016 7.291015,7.291016 0.707031,-0.707032 L -30,10 l -0.0078,0.0078 z m 0,4 -7.990234,7.990234 0.707031,0.707032 7.292969,-7.291016 7.291015,7.291016 0.707031,-0.707032 L -30,14 l -0.0078,0.0078 z"
         transform="translate(0.30985222,19.151293)"
         id="path917" />
    </g>
  </g>
  <g
     id="pressed-center"
     transform="translate(49.017578,-1)">
    <rect
       ry="0.85714287"
       y="65"
       x="-49"
       height="30"
       width="38"
       id="rect75"
       style="opacity:0;fill:#b3b3b3;fill-opacity:1;stroke:none;stroke-width:1.61422253;stroke-linecap:round;stroke-linejoin:round;stroke-miterlimit:4;stroke-dasharray:none;stroke-opacity:1;paint-order:stroke fill markers" />
    <circle
       r="12"
       cy="80"
       cx="-30"
       id="circle77"
       style="opacity:0.2;fill:#ffffff;fill-opacity:1;stroke:none;stroke-width:2.39841461;stroke-linecap:round;stroke-linejoin:round;stroke-miterlimit:4;stroke-dasharray:none;stroke-opacity:1;paint-order:stroke fill markers" />
    <g
       transform="translate(-0.30985222,43.848707)"
       id="g940">
      <path
         id="path938"
         transform="translate(0.30985222,19.151293)"
         d="m -30.017578,10 -7.990234,7.990234 0.707031,0.707032 7.292969,-7.291016 7.291015,7.291016 0.707031,-0.707032 L -30,10 l -0.0078,0.0078 z m 0,4 -7.990234,7.990234 0.707031,0.707032 7.292969,-7.291016 7.291015,7.291016 0.707031,-0.707032 L -30,14 l -0.0078,0.0078 z"
         style="opacity:1;fill:#d9dee7;fill-opacity:0.58431373;stroke:none;stroke-width:1.79682255;stroke-linecap:round;stroke-linejoin:round;stroke-miterlimit:4;stroke-dasharray:none;stroke-opacity:1;paint-order:stroke fill markers"
         inkscape:connector-curvature="0" />
    </g>
  </g>
  <g
     id="deactivated-center"
     transform="translate(49.017578,-1)">
    <rect
       style="opacity:0;fill:#b3b3b3;fill-opacity:1;stroke:none;stroke-width:1.61422253;stroke-linecap:round;stroke-linejoin:round;stroke-miterlimit:4;stroke-dasharray:none;stroke-opacity:1;paint-order:stroke fill markers"
       id="rect85"
       width="38"
       height="30"
       x="-49"
       y="97"
       ry="0.85714287" />
    <circle
       style="opacity:0.05;fill:#ffffff;fill-opacity:1;stroke:none;stroke-width:2.39841461;stroke-linecap:round;stroke-linejoin:round;stroke-miterlimit:4;stroke-dasharray:none;stroke-opacity:1;paint-order:stroke fill markers"
       id="circle87"
       cx="-30"
       cy="112"
       r="12" />
    <g
       id="g944"
       transform="translate(-0.30985222,75.848707)">
      <path
         inkscape:connector-curvature="0"
         style="opacity:1;fill:#d9dee7;fill-opacity:0.58431373;stroke:none;stroke-width:1.79682255;stroke-linecap:round;stroke-linejoin:round;stroke-miterlimit:4;stroke-dasharray:none;stroke-opacity:1;paint-order:stroke fill markers"
         d="m -30.017578,10 -7.990234,7.990234 0.707031,0.707032 7.292969,-7.291016 7.291015,7.291016 0.707031,-0.707032 L -30,10 l -0.0078,0.0078 z m 0,4 -7.990234,7.990234 0.707031,0.707032 7.292969,-7.291016 7.291015,7.291016 0.707031,-0.707032 L -30,14 l -0.0078,0.0078 z"
         transform="translate(0.30985222,19.151293)"
         id="path942" />
    </g>
  </g>
  <g
     id="inactive-center"
     transform="translate(142.30078)">
    <rect
       style="opacity:0;fill:#b3b3b3;fill-opacity:1;stroke:none;stroke-width:1.61422253;stroke-linecap:round;stroke-linejoin:round;stroke-miterlimit:4;stroke-dasharray:none;stroke-opacity:1;paint-order:stroke fill markers"
       id="rect964"
       width="38"
       height="30"
       x="-49"
       y="1"
       ry="0.85714287" />
    <circle
       style="opacity:0;fill:#ffffff;fill-opacity:1;stroke:none;stroke-width:2.39841461;stroke-linecap:round;stroke-linejoin:round;stroke-miterlimit:4;stroke-dasharray:none;stroke-opacity:1;paint-order:stroke fill markers"
       id="circle966"
       cx="-30"
       cy="16"
       r="12" />
    <g
       id="g970"
       transform="translate(-0.30985222,-19.151293)">
      <path
         style="opacity:0.5;fill:#d9dee7;fill-opacity:0.58431373;stroke:none;stroke-width:1.79682255;stroke-linecap:round;stroke-linejoin:round;stroke-miterlimit:4;stroke-dasharray:none;stroke-opacity:1;paint-order:stroke fill markers"
         d="m -30.017578,10 -7.990234,7.990234 0.707031,0.707032 7.292969,-7.291016 7.291015,7.291016 0.707031,-0.707032 L -30,10 l -0.0078,0.0078 z m 0,4 -7.990234,7.990234 0.707031,0.707032 7.292969,-7.291016 7.291015,7.291016 0.707031,-0.707032 L -30,14 l -0.0078,0.0078 z"
         transform="translate(0.30985222,19.151293)"
         id="path968"
         inkscape:connector-curvature="0" />
    </g>
  </g>
  <g
     id="hover-inactive-center"
     transform="translate(142.30078)">
    <rect
       ry="0.85714287"
       y="33"
       x="-49"
       height="30"
       width="38"
       id="rect974"
       style="opacity:0;fill:#b3b3b3;fill-opacity:1;stroke:none;stroke-width:1.61422253;stroke-linecap:round;stroke-linejoin:round;stroke-miterlimit:4;stroke-dasharray:none;stroke-opacity:1;paint-order:stroke fill markers" />
    <circle
       r="12"
       cy="48"
       cx="-30"
       id="circle976"
       style="opacity:0.1;fill:#ffffff;fill-opacity:1;stroke:none;stroke-width:2.39841461;stroke-linecap:round;stroke-linejoin:round;stroke-miterlimit:4;stroke-dasharray:none;stroke-opacity:1;paint-order:stroke fill markers" />
    <g
       transform="translate(-0.30985222,12.848707)"
       id="g980">
      <path
         id="path978"
         transform="translate(0.30985222,19.151293)"
         d="m -30.017578,10 -7.990234,7.990234 0.707031,0.707032 7.292969,-7.291016 7.291015,7.291016 0.707031,-0.707032 L -30,10 l -0.0078,0.0078 z m 0,4 -7.990234,7.990234 0.707031,0.707032 7.292969,-7.291016 7.291015,7.291016 0.707031,-0.707032 L -30,14 l -0.0078,0.0078 z"
         style="opacity:0.5;fill:#d9dee7;fill-opacity:0.58431373;stroke:none;stroke-width:1.79682255;stroke-linecap:round;stroke-linejoin:round;stroke-miterlimit:4;stroke-dasharray:none;stroke-opacity:1;paint-order:stroke fill markers"
         inkscape:connector-curvature="0" />
    </g>
  </g>
  <g
     id="pressed-inactive-center"
     transform="translate(142.30078)">
    <rect
       style="opacity:0;fill:#b3b3b3;fill-opacity:1;stroke:none;stroke-width:1.61422253;stroke-linecap:round;stroke-linejoin:round;stroke-miterlimit:4;stroke-dasharray:none;stroke-opacity:1;paint-order:stroke fill markers"
       id="rect984"
       width="38"
       height="30"
       x="-49"
       y="65"
       ry="0.85714287" />
    <circle
       style="opacity:0.2;fill:#ffffff;fill-opacity:1;stroke:none;stroke-width:2.39841461;stroke-linecap:round;stroke-linejoin:round;stroke-miterlimit:4;stroke-dasharray:none;stroke-opacity:1;paint-order:stroke fill markers"
       id="circle986"
       cx="-30"
       cy="80"
       r="12" />
    <g
       id="g990"
       transform="translate(-0.30985222,43.848707)">
      <path
         inkscape:connector-curvature="0"
         style="opacity:0.5;fill:#d9dee7;fill-opacity:0.58431373;stroke:none;stroke-width:1.79682255;stroke-linecap:round;stroke-linejoin:round;stroke-miterlimit:4;stroke-dasharray:none;stroke-opacity:1;paint-order:stroke fill markers"
         d="m -30.017578,10 -7.990234,7.990234 0.707031,0.707032 7.292969,-7.291016 7.291015,7.291016 0.707031,-0.707032 L -30,10 l -0.0078,0.0078 z m 0,4 -7.990234,7.990234 0.707031,0.707032 7.292969,-7.291016 7.291015,7.291016 0.707031,-0.707032 L -30,14 l -0.0078,0.0078 z"
         transform="translate(0.30985222,19.151293)"
         id="path988" />
    </g>
  </g>
  <g
     id="deactivated-inactive-center"
     transform="translate(142.30078)">
    <rect
       ry="0.85714287"
       y="97"
       x="-49"
       height="30"
       width="38"
       id="rect994"
       style="opacity:0;fill:#b3b3b3;fill-opacity:1;stroke:none;stroke-width:1.61422253;stroke-linecap:round;stroke-linejoin:round;stroke-miterlimit:4;stroke-dasharray:none;stroke-opacity:1;paint-order:stroke fill markers" />
    <circle
       r="12"
       cy="112"
       cx="-30"
       id="circle996"
       style="opacity:0.05;fill:#ffffff;fill-opacity:1;stroke:none;stroke-width:2.39841461;stroke-linecap:round;stroke-linejoin:round;stroke-miterlimit:4;stroke-dasharray:none;stroke-opacity:1;paint-order:stroke fill markers" />
    <g
       transform="translate(-0.30985222,75.848707)"
       id="g1000">
      <path
         id="path998"
         transform="translate(0.30985222,19.151293)"
         d="m -30.017578,10 -7.990234,7.990234 0.707031,0.707032 7.292969,-7.291016 7.291015,7.291016 0.707031,-0.707032 L -30,10 l -0.0078,0.0078 z m 0,4 -7.990234,7.990234 0.707031,0.707032 7.292969,-7.291016 7.291015,7.291016 0.707031,-0.707032 L -30,14 l -0.0078,0.0078 z"
         style="opacity:0.5;fill:#d9dee7;fill-opacity:0.58431373;stroke:none;stroke-width:1.79682255;stroke-linecap:round;stroke-linejoin:round;stroke-miterlimit:4;stroke-dasharray:none;stroke-opacity:1;paint-order:stroke fill markers"
         inkscape:connector-curvature="0" />
    </g>
  </g>
</svg>
